  0
SECTION
  2
HEADER
  9
$ACADVER
  1
AC1014
  9
$HANDSEED
  5
FFFF
  9
$MEASUREMENT
 70
     1
  0
ENDSEC
  0
SECTION
  2
TABLES
  0
TABLE
  2
VPORT
  5
8
330
0
100
AcDbSymbolTable
 70
     4
  0
VPORT
  5
2E
330
8
100
AcDbSymbolTableRecord
100
AcDbViewportTableRecord
  2
*ACTIVE
 70
     0
 10
0.0
 20
0.0
 11
1.0
 21
1.0
 12
210.0
 22
148.5
 13
0.0
 23
0.0
 14
10.0
 24
10.0
 15
10.0
 25
10.0
 16
0.0
 26
0.0
 36
1.0
 17
0.0
 27
0.0
 37
0.0
 40
341.0
 41
1.24
 42
50.0
 43
0.0
 44
0.0
 50
0.0
 51
0.0
 71
     0
 72
   100
 73
     1
 74
     3
 75
     0
 76
     0
 77
     0
 78
     0
  0
ENDTAB
  0
TABLE
  2
LTYPE
  5
5
330
0
100
AcDbSymbolTable
 70
     1
  0
LTYPE
  5
14
330
5
100
AcDbSymbolTableRecord
100
AcDbLinetypeTableRecord
  2
BYBLOCK
 70
     0
  3

 72
    65
 73
     0
 40
0.0
  0
LTYPE
  5
15
330
5
100
AcDbSymbolTableRecord
100
AcDbLinetypeTableRecord
  2
BYLAYER
 70
     0
  3

 72
    65
 73
     0
 40
0.0
  0
LTYPE
  5
16
330
5
100
AcDbSymbolTableRecord
100
AcDbLinetypeTableRecord
  2
CONTINUOUS
 70
     0
  3
Solid line
 72
    65
 73
     0
 40
0.0
  0
ENDTAB
  0
TABLE
  2
LAYER
  5
2
100
AcDbSymbolTable
 70
1
  0
LAYER
  5
50
100
AcDbSymbolTableRecord
100
AcDbLayerTableRecord
  2
0
 70
0
  6
CONTINUOUS
  0
ENDTAB
  0
TABLE
  2
STYLE
  5
3
330
0
100
AcDbSymbolTable
 70
     1
  0
STYLE
  5
11
330
3
100
AcDbSymbolTableRecord
100
AcDbTextStyleTableRecord
  2
STANDARD
 70
     0
 40
0.0
 41
1.0
 50
0.0
 71
     0
 42
2.5
  3
txt
  4

  0
ENDTAB
  0
TABLE
  2
VIEW
  5
6
330
0
100
AcDbSymbolTable
 70
     0
  0
ENDTAB
  0
TABLE
  2
UCS
  5
7
330
0
100
AcDbSymbolTable
 70
     0
  0
ENDTAB
  0
TABLE
  2
APPID
  5
9
330
0
100
AcDbSymbolTable
 70
     2
  0
APPID
  5
12
330
9
100
AcDbSymbolTableRecord
100
AcDbRegAppTableRecord
  2
ACAD
 70
     0
  0
ENDTAB
  0
TABLE
  2
DIMSTYLE
  5
A
330
0
100
AcDbSymbolTable
 70
     1
  0
DIMSTYLE
105
27
330
A
100
AcDbSymbolTableRecord
100
AcDbDimStyleTableRecord
  2
ISO-25
 70
     0
  3

  4

  5

  6

  7

 40
1.0
 41
2.5
 42
0.625
 43
3.75
 44
1.25
 45
0.0
 46
0.0
 47
0.0
 48
0.0
140
2.5
141
2.5
142
0.0
143
0.03937007874016
144
1.0
145
0.0
146
1.0
147
0.625
 71
     0
 72
     0
 73
     0
 74
     0
 75
     0
 76
     0
 77
     1
 78
     8
170
     0
171
     3
172
     1
173
     0
174
     0
175
     0
176
     0
177
     0
178
     0
270
     2
271
     2
272
     2
273
     2
274
     3
340
11
275
     0
280
     0
281
     0
282
     0
283
     0
284
     8
285
     0
286
     0
287
     3
288
     0
  0
ENDTAB
  0
TABLE
  2
BLOCK_RECORD
  5
1
330
0
100
AcDbSymbolTable
 70
     1
  0
BLOCK_RECORD
  5
1F
330
1
100
AcDbSymbolTableRecord
100
AcDbBlockTableRecord
  2
*MODEL_SPACE
  0
BLOCK_RECORD
  5
1B
330
1
100
AcDbSymbolTableRecord
100
AcDbBlockTableRecord
  2
*PAPER_SPACE
  0
ENDTAB
  0
ENDSEC
  0
SECTION
  2
BLOCKS
  0
BLOCK
  5
20
330
1F
100
AcDbEntity
  8
0
100
AcDbBlockBegin
  2
*MODEL_SPACE
 70
     0
 10
0.0
 20
0.0
 30
0.0
  3
*MODEL_SPACE
  1

  0
ENDBLK
  5
21
330
1F
100
AcDbEntity
  8
0
100
AcDbBlockEnd
  0
BLOCK
  5
1C
330
1B
100
AcDbEntity
 67
     1
  8
0
100
AcDbBlockBegin
  2
*PAPER_SPACE
  1

  0
ENDBLK
  5
1D
330
1B
100
AcDbEntity
 67
     1
  8
0
100
AcDbBlockEnd
  0
ENDSEC
  0
SECTION
  2
ENTITIES
  0
LWPOLYLINE
  5
100
100
AcDbEntity
  8
0
 62
7
100
AcDbPolyline
 90
2
 70
0
 10
55.389780
 20
-106.556231
 30
0.0
 10
55.389780
 20
-103.254231
 30
0.0
  0
LWPOLYLINE
  5
101
100
AcDbEntity
  8
0
 62
7
100
AcDbPolyline
 90
2
 70
0
 10
55.389780
 20
-106.556231
 30
0.0
 10
52.890420
 20
-106.556231
 30
0.0
  0
LWPOLYLINE
  5
102
100
AcDbEntity
  8
0
 62
7
100
AcDbPolyline
 90
2
 70
0
 10
52.890420
 20
-103.254231
 30
0.0
 10
55.389780
 20
-103.254231
 30
0.0
  0
LWPOLYLINE
  5
103
100
AcDbEntity
  8
0
 62
7
100
AcDbPolyline
 90
2
 70
0
 10
52.890420
 20
-103.254231
 30
0.0
 10
52.890420
 20
-106.556231
 30
0.0
  0
LWPOLYLINE
  5
104
100
AcDbEntity
  8
0
 62
7
100
AcDbPolyline
 90
4
 70
0
 10
47.541180
 20
-108.506951
 30
0.0
 10
42.842180
 20
-108.506951
 30
0.0
 10
42.842180
 20
-110.805651
 30
0.0
 10
47.541180
 20
-110.805651
 30
0.0
  0
LWPOLYLINE
  5
105
100
AcDbEntity
  8
0
 62
7
100
AcDbPolyline
 90
2
 70
0
 10
47.541180
 20
-108.506951
 30
0.0
 10
47.541180
 20
-110.805651
 30
0.0
  0
LWPOLYLINE
  5
106
100
AcDbEntity
  8
0
 62
7
100
AcDbPolyline
 90
2
 70
0
 10
47.541180
 20
-89.406151
 30
0.0
 10
47.541180
 20
-91.704851
 30
0.0
  0
LWPOLYLINE
  5
107
100
AcDbEntity
  8
0
 62
7
100
AcDbPolyline
 90
2
 70
0
 10
42.842180
 20
-91.704851
 30
0.0
 10
47.541180
 20
-91.704851
 30
0.0
  0
LWPOLYLINE
  5
108
100
AcDbEntity
  8
0
 62
7
100
AcDbPolyline
 90
2
 70
0
 10
42.842180
 20
-89.406151
 30
0.0
 10
42.842180
 20
-91.704851
 30
0.0
  0
LWPOLYLINE
  5
109
100
AcDbEntity
  8
0
 62
7
100
AcDbPolyline
 90
2
 70
0
 10
47.541180
 20
-89.406151
 30
0.0
 10
42.842180
 20
-89.406151
 30
0.0
  0
LWPOLYLINE
  5
10a
100
AcDbEntity
  8
0
 62
7
100
AcDbPolyline
 90
4
 70
0
 10
47.579280
 20
-70.533951
 30
0.0
 10
42.880280
 20
-70.533951
 30
0.0
 10
42.880280
 20
-72.832651
 30
0.0
 10
47.579280
 20
-72.832651
 30
0.0
  0
LWPOLYLINE
  5
10b
100
AcDbEntity
  8
0
 62
7
100
AcDbPolyline
 90
2
 70
0
 10
47.579280
 20
-70.533951
 30
0.0
 10
47.579280
 20
-72.832651
 30
0.0
  0
LWPOLYLINE
  5
10c
100
AcDbEntity
  8
0
 62
7
100
AcDbPolyline
 90
4
 70
1
 10
44.795440
 20
-59.929451
 30
0.0
 10
44.795440
 20
-55.928951
 30
0.0
 10
37.195760
 20
-55.928951
 30
0.0
 10
37.195760
 20
-59.929451
 30
0.0
  0
LWPOLYLINE
  5
10d
100
AcDbEntity
  8
0
 62
7
100
AcDbPolyline
 90
4
 70
1
 10
44.795440
 20
-78.928651
 30
0.0
 10
44.795440
 20
-74.928151
 30
0.0
 10
37.195760
 20
-74.928151
 30
0.0
 10
37.195760
 20
-78.928651
 30
0.0
  0
LWPOLYLINE
  5
10e
100
AcDbEntity
  8
0
 62
7
100
AcDbPolyline
 90
4
 70
1
 10
44.795440
 20
-97.930391
 30
0.0
 10
44.795440
 20
-93.929891
 30
0.0
 10
37.195760
 20
-93.929891
 30
0.0
 10
37.195760
 20
-97.930391
 30
0.0
  0
LWPOLYLINE
  5
10f
100
AcDbEntity
  8
0
 62
7
100
AcDbPolyline
 90
2
 70
0
 10
76.141580
 20
-96.431791
 30
0.0
 10
76.141580
 20
-113.932391
 30
0.0
  0
LWPOLYLINE
  5
110
100
AcDbEntity
  8
0
 62
7
100
AcDbPolyline
 90
2
 70
0
 10
76.141580
 20
-96.431791
 30
0.0
 10
90.340180
 20
-96.431791
 30
0.0
  0
LWPOLYLINE
  5
111
100
AcDbEntity
  8
0
 62
7
100
AcDbPolyline
 90
2
 70
0
 10
90.340180
 20
-113.932391
 30
0.0
 10
76.141580
 20
-113.932391
 30
0.0
  0
LWPOLYLINE
  5
112
100
AcDbEntity
  8
0
 62
7
100
AcDbPolyline
 90
2
 70
0
 10
90.340180
 20
-113.932391
 30
0.0
 10
90.340180
 20
-96.431791
 30
0.0
  0
LWPOLYLINE
  5
113
100
AcDbEntity
  8
0
 62
7
100
AcDbPolyline
 90
2
 70
0
 10
151.721820
 20
-83.574311
 30
0.0
 10
148.361400
 20
-83.574311
 30
0.0
  0
LWPOLYLINE
  5
114
100
AcDbEntity
  8
0
 62
7
100
AcDbPolyline
 90
2
 70
0
 10
151.721820
 20
-85.474231
 30
0.0
 10
151.721820
 20
-83.574311
 30
0.0
  0
LWPOLYLINE
  5
115
100
AcDbEntity
  8
0
 62
7
100
AcDbPolyline
 90
2
 70
0
 10
148.361400
 20
-85.474231
 30
0.0
 10
151.721820
 20
-85.474231
 30
0.0
  0
LWPOLYLINE
  5
116
100
AcDbEntity
  8
0
 62
7
100
AcDbPolyline
 90
2
 70
0
 10
148.361400
 20
-83.574311
 30
0.0
 10
148.361400
 20
-85.474231
 30
0.0
  0
LWPOLYLINE
  5
117
100
AcDbEntity
  8
0
 62
7
100
AcDbPolyline
 90
2
 70
0
 10
95.196660
 20
-35.428611
 30
0.0
 10
102.796340
 20
-35.428611
 30
0.0
  0
LWPOLYLINE
  5
118
100
AcDbEntity
  8
0
 62
7
100
AcDbPolyline
 90
2
 70
0
 10
95.196660
 20
-31.428111
 30
0.0
 10
95.196660
 20
-35.428611
 30
0.0
  0
LWPOLYLINE
  5
119
100
AcDbEntity
  8
0
 62
7
100
AcDbPolyline
 90
2
 70
0
 10
102.796340
 20
-31.428111
 30
0.0
 10
95.196660
 20
-31.428111
 30
0.0
  0
LWPOLYLINE
  5
11a
100
AcDbEntity
  8
0
 62
7
100
AcDbPolyline
 90
2
 70
0
 10
102.796340
 20
-35.428611
 30
0.0
 10
102.796340
 20
-31.428111
 30
0.0
  0
LWPOLYLINE
  5
11b
100
AcDbEntity
  8
0
 62
7
100
AcDbPolyline
 90
2
 70
0
 10
114.195860
 20
-78.428271
 30
0.0
 10
121.795540
 20
-78.428271
 30
0.0
  0
LWPOLYLINE
  5
11c
100
AcDbEntity
  8
0
 62
7
100
AcDbPolyline
 90
2
 70
0
 10
114.195860
 20
-74.430311
 30
0.0
 10
114.195860
 20
-78.428271
 30
0.0
  0
LWPOLYLINE
  5
11d
100
AcDbEntity
  8
0
 62
7
100
AcDbPolyline
 90
2
 70
0
 10
121.795540
 20
-74.430311
 30
0.0
 10
114.195860
 20
-74.430311
 30
0.0
  0
LWPOLYLINE
  5
11e
100
AcDbEntity
  8
0
 62
7
100
AcDbPolyline
 90
2
 70
0
 10
121.795540
 20
-78.428271
 30
0.0
 10
121.795540
 20
-74.430311
 30
0.0
  0
LWPOLYLINE
  5
11f
100
AcDbEntity
  8
0
 62
7
100
AcDbPolyline
 90
2
 70
0
 10
127.876300
 20
-112.045171
 30
0.0
 10
125.575060
 20
-112.045171
 30
0.0
  0
LWPOLYLINE
  5
120
100
AcDbEntity
  8
0
 62
7
100
AcDbPolyline
 90
2
 70
0
 10
125.575060
 20
-107.343631
 30
0.0
 10
125.575060
 20
-112.045171
 30
0.0
  0
LWPOLYLINE
  5
121
100
AcDbEntity
  8
0
 62
7
100
AcDbPolyline
 90
2
 70
0
 10
127.876300
 20
-107.343631
 30
0.0
 10
125.575060
 20
-107.343631
 30
0.0
  0
LWPOLYLINE
  5
122
100
AcDbEntity
  8
0
 62
7
100
AcDbPolyline
 90
2
 70
0
 10
127.876300
 20
-112.045171
 30
0.0
 10
127.876300
 20
-107.343631
 30
0.0
  0
LWPOLYLINE
  5
123
100
AcDbEntity
  8
0
 62
7
100
AcDbPolyline
 90
2
 70
0
 10
135.709660
 20
-103.645391
 30
0.0
 10
143.192500
 20
-104.966191
 30
0.0
  0
LWPOLYLINE
  5
124
100
AcDbEntity
  8
0
 62
7
100
AcDbPolyline
 90
2
 70
0
 10
136.403080
 20
-99.705851
 30
0.0
 10
135.709660
 20
-103.645391
 30
0.0
  0
LWPOLYLINE
  5
125
100
AcDbEntity
  8
0
 62
7
100
AcDbPolyline
 90
2
 70
0
 10
143.888460
 20
-101.026651
 30
0.0
 10
136.403080
 20
-99.705851
 30
0.0
  0
LWPOLYLINE
  5
126
100
AcDbEntity
  8
0
 62
7
100
AcDbPolyline
 90
2
 70
0
 10
143.192500
 20
-104.966191
 30
0.0
 10
143.888460
 20
-101.026651
 30
0.0
  0
LWPOLYLINE
  5
127
100
AcDbEntity
  8
0
 62
7
100
AcDbPolyline
 90
2
 70
0
 10
114.195860
 20
-102.428731
 30
0.0
 10
121.795540
 20
-102.428731
 30
0.0
  0
LWPOLYLINE
  5
128
100
AcDbEntity
  8
0
 62
7
100
AcDbPolyline
 90
2
 70
0
 10
114.195860
 20
-98.428231
 30
0.0
 10
114.195860
 20
-102.428731
 30
0.0
  0
LWPOLYLINE
  5
129
100
AcDbEntity
  8
0
 62
7
100
AcDbPolyline
 90
2
 70
0
 10
121.795540
 20
-98.428231
 30
0.0
 10
114.195860
 20
-98.428231
 30
0.0
  0
LWPOLYLINE
  5
12a
100
AcDbEntity
  8
0
 62
7
100
AcDbPolyline
 90
2
 70
0
 10
121.795540
 20
-102.428731
 30
0.0
 10
121.795540
 20
-98.428231
 30
0.0
  0
LWPOLYLINE
  5
12b
100
AcDbEntity
  8
0
 62
7
100
AcDbPolyline
 90
2
 70
0
 10
156.682440
 20
-108.580611
 30
0.0
 10
163.824920
 20
-111.179031
 30
0.0
  0
LWPOLYLINE
  5
12c
100
AcDbEntity
  8
0
 62
7
100
AcDbPolyline
 90
2
 70
0
 10
158.051500
 20
-104.821411
 30
0.0
 10
156.682440
 20
-108.580611
 30
0.0
  0
LWPOLYLINE
  5
12d
100
AcDbEntity
  8
0
 62
7
100
AcDbPolyline
 90
2
 70
0
 10
165.193980
 20
-107.422371
 30
0.0
 10
158.051500
 20
-104.821411
 30
0.0
  0
LWPOLYLINE
  5
12e
100
AcDbEntity
  8
0
 62
7
100
AcDbPolyline
 90
2
 70
0
 10
163.824920
 20
-111.179031
 30
0.0
 10
165.193980
 20
-107.422371
 30
0.0
  0
LWPOLYLINE
  5
12f
100
AcDbEntity
  8
0
 62
7
100
AcDbPolyline
 90
2
 70
0
 10
133.195060
 20
-80.930171
 30
0.0
 10
140.797280
 20
-80.930171
 30
0.0
  0
LWPOLYLINE
  5
130
100
AcDbEntity
  8
0
 62
7
100
AcDbPolyline
 90
2
 70
0
 10
133.195060
 20
-76.929671
 30
0.0
 10
133.195060
 20
-80.930171
 30
0.0
  0
LWPOLYLINE
  5
131
100
AcDbEntity
  8
0
 62
7
100
AcDbPolyline
 90
2
 70
0
 10
140.797280
 20
-76.929671
 30
0.0
 10
133.195060
 20
-76.929671
 30
0.0
  0
LWPOLYLINE
  5
132
100
AcDbEntity
  8
0
 62
7
100
AcDbPolyline
 90
2
 70
0
 10
140.797280
 20
-80.930171
 30
0.0
 10
140.797280
 20
-76.929671
 30
0.0
  0
LWPOLYLINE
  5
133
100
AcDbEntity
  8
0
 62
7
100
AcDbPolyline
 90
2
 70
0
 10
73.342500
 20
-113.241511
 30
0.0
 10
71.041260
 20
-113.241511
 30
0.0
  0
LWPOLYLINE
  5
134
100
AcDbEntity
  8
0
 62
7
100
AcDbPolyline
 90
2
 70
0
 10
71.041260
 20
-108.539971
 30
0.0
 10
71.041260
 20
-113.241511
 30
0.0
  0
LWPOLYLINE
  5
135
100
AcDbEntity
  8
0
 62
7
100
AcDbPolyline
 90
2
 70
0
 10
73.342500
 20
-108.539971
 30
0.0
 10
71.041260
 20
-108.539971
 30
0.0
  0
LWPOLYLINE
  5
136
100
AcDbEntity
  8
0
 62
7
100
AcDbPolyline
 90
2
 70
0
 10
73.342500
 20
-113.241511
 30
0.0
 10
73.342500
 20
-108.539971
 30
0.0
  0
LWPOLYLINE
  5
137
100
AcDbEntity
  8
0
 62
7
100
AcDbPolyline
 90
2
 70
0
 10
76.197460
 20
-78.428271
 30
0.0
 10
83.797140
 20
-78.428271
 30
0.0
  0
LWPOLYLINE
  5
138
100
AcDbEntity
  8
0
 62
7
100
AcDbPolyline
 90
2
 70
0
 10
76.197460
 20
-74.430311
 30
0.0
 10
76.197460
 20
-78.428271
 30
0.0
  0
LWPOLYLINE
  5
139
100
AcDbEntity
  8
0
 62
7
100
AcDbPolyline
 90
2
 70
0
 10
83.797140
 20
-74.430311
 30
0.0
 10
76.197460
 20
-74.430311
 30
0.0
  0
LWPOLYLINE
  5
13a
100
AcDbEntity
  8
0
 62
7
100
AcDbPolyline
 90
2
 70
0
 10
83.797140
 20
-78.428271
 30
0.0
 10
83.797140
 20
-74.430311
 30
0.0
  0
LWPOLYLINE
  5
13b
100
AcDbEntity
  8
0
 62
7
100
AcDbPolyline
 90
2
 70
0
 10
114.195860
 20
-40.429871
 30
0.0
 10
121.795540
 20
-40.429871
 30
0.0
  0
LWPOLYLINE
  5
13c
100
AcDbEntity
  8
0
 62
7
100
AcDbPolyline
 90
2
 70
0
 10
114.195860
 20
-36.429371
 30
0.0
 10
114.195860
 20
-40.429871
 30
0.0
  0
LWPOLYLINE
  5
13d
100
AcDbEntity
  8
0
 62
7
100
AcDbPolyline
 90
2
 70
0
 10
121.795540
 20
-36.429371
 30
0.0
 10
114.195860
 20
-36.429371
 30
0.0
  0
LWPOLYLINE
  5
13e
100
AcDbEntity
  8
0
 62
7
100
AcDbPolyline
 90
2
 70
0
 10
121.795540
 20
-40.429871
 30
0.0
 10
121.795540
 20
-36.429371
 30
0.0
  0
LWPOLYLINE
  5
13f
100
AcDbEntity
  8
0
 62
7
100
AcDbPolyline
 90
2
 70
0
 10
114.195860
 20
-59.429071
 30
0.0
 10
121.795540
 20
-59.429071
 30
0.0
  0
LWPOLYLINE
  5
140
100
AcDbEntity
  8
0
 62
7
100
AcDbPolyline
 90
2
 70
0
 10
114.195860
 20
-55.428571
 30
0.0
 10
114.195860
 20
-59.429071
 30
0.0
  0
LWPOLYLINE
  5
141
100
AcDbEntity
  8
0
 62
7
100
AcDbPolyline
 90
2
 70
0
 10
121.795540
 20
-55.428571
 30
0.0
 10
114.195860
 20
-55.428571
 30
0.0
  0
LWPOLYLINE
  5
142
100
AcDbEntity
  8
0
 62
7
100
AcDbPolyline
 90
2
 70
0
 10
121.795540
 20
-59.429071
 30
0.0
 10
121.795540
 20
-55.428571
 30
0.0
  0
LWPOLYLINE
  5
143
100
AcDbEntity
  8
0
 62
7
100
AcDbPolyline
 90
2
 70
0
 10
133.195060
 20
-42.929231
 30
0.0
 10
140.797280
 20
-42.929231
 30
0.0
  0
LWPOLYLINE
  5
144
100
AcDbEntity
  8
0
 62
7
100
AcDbPolyline
 90
2
 70
0
 10
133.195060
 20
-38.928731
 30
0.0
 10
133.195060
 20
-42.929231
 30
0.0
  0
LWPOLYLINE
  5
145
100
AcDbEntity
  8
0
 62
7
100
AcDbPolyline
 90
2
 70
0
 10
140.797280
 20
-38.928731
 30
0.0
 10
133.195060
 20
-38.928731
 30
0.0
  0
LWPOLYLINE
  5
146
100
AcDbEntity
  8
0
 62
7
100
AcDbPolyline
 90
2
 70
0
 10
140.797280
 20
-42.929231
 30
0.0
 10
140.797280
 20
-38.928731
 30
0.0
  0
LWPOLYLINE
  5
147
100
AcDbEntity
  8
0
 62
7
100
AcDbPolyline
 90
2
 70
0
 10
95.196660
 20
-73.429551
 30
0.0
 10
102.796340
 20
-73.429551
 30
0.0
  0
LWPOLYLINE
  5
148
100
AcDbEntity
  8
0
 62
7
100
AcDbPolyline
 90
2
 70
0
 10
95.196660
 20
-69.429051
 30
0.0
 10
95.196660
 20
-73.429551
 30
0.0
  0
LWPOLYLINE
  5
149
100
AcDbEntity
  8
0
 62
7
100
AcDbPolyline
 90
2
 70
0
 10
102.796340
 20
-69.429051
 30
0.0
 10
95.196660
 20
-69.429051
 30
0.0
  0
LWPOLYLINE
  5
14a
100
AcDbEntity
  8
0
 62
7
100
AcDbPolyline
 90
2
 70
0
 10
102.796340
 20
-73.429551
 30
0.0
 10
102.796340
 20
-69.429051
 30
0.0
  0
LWPOLYLINE
  5
14b
100
AcDbEntity
  8
0
 62
7
100
AcDbPolyline
 90
2
 70
0
 10
57.195720
 20
-90.930151
 30
0.0
 10
64.795400
 20
-90.930151
 30
0.0
  0
LWPOLYLINE
  5
14c
100
AcDbEntity
  8
0
 62
7
100
AcDbPolyline
 90
2
 70
0
 10
57.195720
 20
-86.929651
 30
0.0
 10
57.195720
 20
-90.930151
 30
0.0
  0
LWPOLYLINE
  5
14d
100
AcDbEntity
  8
0
 62
7
100
AcDbPolyline
 90
2
 70
0
 10
64.795400
 20
-86.929651
 30
0.0
 10
57.195720
 20
-86.929651
 30
0.0
  0
LWPOLYLINE
  5
14e
100
AcDbEntity
  8
0
 62
7
100
AcDbPolyline
 90
2
 70
0
 10
64.795400
 20
-90.930151
 30
0.0
 10
64.795400
 20
-86.929651
 30
0.0
  0
LWPOLYLINE
  5
14f
100
AcDbEntity
  8
0
 62
7
100
AcDbPolyline
 90
2
 70
0
 10
95.196660
 20
-54.430351
 30
0.0
 10
102.796340
 20
-54.430351
 30
0.0
  0
LWPOLYLINE
  5
150
100
AcDbEntity
  8
0
 62
7
100
AcDbPolyline
 90
2
 70
0
 10
95.196660
 20
-50.429851
 30
0.0
 10
95.196660
 20
-54.430351
 30
0.0
  0
LWPOLYLINE
  5
151
100
AcDbEntity
  8
0
 62
7
100
AcDbPolyline
 90
2
 70
0
 10
102.796340
 20
-50.429851
 30
0.0
 10
95.196660
 20
-50.429851
 30
0.0
  0
LWPOLYLINE
  5
152
100
AcDbEntity
  8
0
 62
7
100
AcDbPolyline
 90
2
 70
0
 10
102.796340
 20
-54.430351
 30
0.0
 10
102.796340
 20
-50.429851
 30
0.0
  0
LWPOLYLINE
  5
153
100
AcDbEntity
  8
0
 62
7
100
AcDbPolyline
 90
2
 70
0
 10
76.197460
 20
-59.429071
 30
0.0
 10
83.797140
 20
-59.429071
 30
0.0
  0
LWPOLYLINE
  5
154
100
AcDbEntity
  8
0
 62
7
100
AcDbPolyline
 90
2
 70
0
 10
76.197460
 20
-55.428571
 30
0.0
 10
76.197460
 20
-59.429071
 30
0.0
  0
LWPOLYLINE
  5
155
100
AcDbEntity
  8
0
 62
7
100
AcDbPolyline
 90
2
 70
0
 10
83.797140
 20
-55.428571
 30
0.0
 10
76.197460
 20
-55.428571
 30
0.0
  0
LWPOLYLINE
  5
156
100
AcDbEntity
  8
0
 62
7
100
AcDbPolyline
 90
2
 70
0
 10
83.797140
 20
-59.429071
 30
0.0
 10
83.797140
 20
-55.428571
 30
0.0
  0
LWPOLYLINE
  5
157
100
AcDbEntity
  8
0
 62
7
100
AcDbPolyline
 90
2
 70
0
 10
57.195720
 20
-71.928411
 30
0.0
 10
64.795400
 20
-71.928411
 30
0.0
  0
LWPOLYLINE
  5
158
100
AcDbEntity
  8
0
 62
7
100
AcDbPolyline
 90
2
 70
0
 10
57.195720
 20
-67.927911
 30
0.0
 10
57.195720
 20
-71.928411
 30
0.0
  0
LWPOLYLINE
  5
159
100
AcDbEntity
  8
0
 62
7
100
AcDbPolyline
 90
2
 70
0
 10
64.795400
 20
-67.927911
 30
0.0
 10
57.195720
 20
-67.927911
 30
0.0
  0
LWPOLYLINE
  5
15a
100
AcDbEntity
  8
0
 62
7
100
AcDbPolyline
 90
2
 70
0
 10
64.795400
 20
-71.928411
 30
0.0
 10
64.795400
 20
-67.927911
 30
0.0
  0
LWPOLYLINE
  5
15b
100
AcDbEntity
  8
0
 62
7
100
AcDbPolyline
 90
2
 70
0
 10
133.195060
 20
-61.928431
 30
0.0
 10
140.797280
 20
-61.928431
 30
0.0
  0
LWPOLYLINE
  5
15c
100
AcDbEntity
  8
0
 62
7
100
AcDbPolyline
 90
2
 70
0
 10
133.195060
 20
-57.927931
 30
0.0
 10
133.195060
 20
-61.928431
 30
0.0
  0
LWPOLYLINE
  5
15d
100
AcDbEntity
  8
0
 62
7
100
AcDbPolyline
 90
2
 70
0
 10
140.797280
 20
-57.927931
 30
0.0
 10
133.195060
 20
-57.927931
 30
0.0
  0
LWPOLYLINE
  5
15e
100
AcDbEntity
  8
0
 62
7
100
AcDbPolyline
 90
2
 70
0
 10
140.797280
 20
-61.928431
 30
0.0
 10
140.797280
 20
-57.927931
 30
0.0
  0
LWPOLYLINE
  5
15f
100
AcDbEntity
  8
0
 62
7
100
AcDbPolyline
 90
2
 70
0
 10
76.197460
 20
-40.429871
 30
0.0
 10
83.797140
 20
-40.429871
 30
0.0
  0
LWPOLYLINE
  5
160
100
AcDbEntity
  8
0
 62
7
100
AcDbPolyline
 90
2
 70
0
 10
76.197460
 20
-36.429371
 30
0.0
 10
76.197460
 20
-40.429871
 30
0.0
  0
LWPOLYLINE
  5
161
100
AcDbEntity
  8
0
 62
7
100
AcDbPolyline
 90
2
 70
0
 10
83.797140
 20
-36.429371
 30
0.0
 10
76.197460
 20
-36.429371
 30
0.0
  0
LWPOLYLINE
  5
162
100
AcDbEntity
  8
0
 62
7
100
AcDbPolyline
 90
2
 70
0
 10
83.797140
 20
-40.429871
 30
0.0
 10
83.797140
 20
-36.429371
 30
0.0
  0
LWPOLYLINE
  5
163
100
AcDbEntity
  8
0
 62
7
100
AcDbPolyline
 90
2
 70
0
 10
57.195720
 20
-52.929211
 30
0.0
 10
64.795400
 20
-52.929211
 30
0.0
  0
LWPOLYLINE
  5
164
100
AcDbEntity
  8
0
 62
7
100
AcDbPolyline
 90
2
 70
0
 10
57.195720
 20
-48.928711
 30
0.0
 10
57.195720
 20
-52.929211
 30
0.0
  0
LWPOLYLINE
  5
165
100
AcDbEntity
  8
0
 62
7
100
AcDbPolyline
 90
2
 70
0
 10
64.795400
 20
-48.928711
 30
0.0
 10
57.195720
 20
-48.928711
 30
0.0
  0
LWPOLYLINE
  5
166
100
AcDbEntity
  8
0
 62
7
100
AcDbPolyline
 90
2
 70
0
 10
64.795400
 20
-52.929211
 30
0.0
 10
64.795400
 20
-48.928711
 30
0.0
  0
LWPOLYLINE
  5
167
100
AcDbEntity
  8
0
 62
7
100
AcDbPolyline
 90
2
 70
0
 10
154.096720
 20
-120.450031
 30
0.0
 10
154.881580
 20
-118.288491
 30
0.0
  0
LWPOLYLINE
  5
168
100
AcDbEntity
  8
0
 62
7
100
AcDbPolyline
 90
2
 70
0
 10
159.298640
 20
-119.896311
 30
0.0
 10
154.881580
 20
-118.288491
 30
0.0
  0
LWPOLYLINE
  5
169
100
AcDbEntity
  8
0
 62
7
100
AcDbPolyline
 90
2
 70
0
 10
158.511240
 20
-122.055311
 30
0.0
 10
159.298640
 20
-119.896311
 30
0.0
  0
LWPOLYLINE
  5
16a
100
AcDbEntity
  8
0
 62
7
100
AcDbPolyline
 90
2
 70
0
 10
154.096720
 20
-120.450031
 30
0.0
 10
158.511240
 20
-122.055311
 30
0.0
  0
LWPOLYLINE
  5
16b
100
AcDbEntity
  8
0
 62
7
100
AcDbPolyline
 90
2
 70
0
 10
147.007580
 20
-114.900131
 30
0.0
 10
144.741900
 20
-114.501351
 30
0.0
  0
LWPOLYLINE
  5
16c
100
AcDbEntity
  8
0
 62
7
100
AcDbPolyline
 90
2
 70
0
 10
145.559780
 20
-109.873471
 30
0.0
 10
144.741900
 20
-114.501351
 30
0.0
  0
LWPOLYLINE
  5
16d
100
AcDbEntity
  8
0
 62
7
100
AcDbPolyline
 90
2
 70
0
 10
147.822920
 20
-110.272251
 30
0.0
 10
145.559780
 20
-109.873471
 30
0.0
  0
LWPOLYLINE
  5
16e
100
AcDbEntity
  8
0
 62
7
100
AcDbPolyline
 90
2
 70
0
 10
147.007580
 20
-114.900131
 30
0.0
 10
147.822920
 20
-110.272251
 30
0.0
  0
LWPOLYLINE
  5
16f
100
AcDbEntity
  8
0
 62
7
100
AcDbPolyline
 90
2
 70
0
 10
135.056880
 20
-93.825751
 30
0.0
 10
135.056880
 20
-91.527051
 30
0.0
  0
LWPOLYLINE
  5
170
100
AcDbEntity
  8
0
 62
7
100
AcDbPolyline
 90
2
 70
0
 10
139.755880
 20
-91.527051
 30
0.0
 10
135.056880
 20
-91.527051
 30
0.0
  0
LWPOLYLINE
  5
171
100
AcDbEntity
  8
0
 62
7
100
AcDbPolyline
 90
2
 70
0
 10
139.755880
 20
-93.825751
 30
0.0
 10
139.755880
 20
-91.527051
 30
0.0
  0
LWPOLYLINE
  5
172
100
AcDbEntity
  8
0
 62
7
100
AcDbPolyline
 90
2
 70
0
 10
135.056880
 20
-93.825751
 30
0.0
 10
139.755880
 20
-93.825751
 30
0.0
  0
LWPOLYLINE
  5
173
100
AcDbEntity
  8
0
 62
7
100
AcDbPolyline
 90
2
 70
0
 10
127.889000
 20
-88.080271
 30
0.0
 10
125.587760
 20
-88.080271
 30
0.0
  0
LWPOLYLINE
  5
174
100
AcDbEntity
  8
0
 62
7
100
AcDbPolyline
 90
2
 70
0
 10
125.587760
 20
-83.378731
 30
0.0
 10
125.587760
 20
-88.080271
 30
0.0
  0
LWPOLYLINE
  5
175
100
AcDbEntity
  8
0
 62
7
100
AcDbPolyline
 90
2
 70
0
 10
127.889000
 20
-83.378731
 30
0.0
 10
125.587760
 20
-83.378731
 30
0.0
  0
LWPOLYLINE
  5
176
100
AcDbEntity
  8
0
 62
7
100
AcDbPolyline
 90
2
 70
0
 10
127.889000
 20
-88.080271
 30
0.0
 10
127.889000
 20
-83.378731
 30
0.0
  0
LWPOLYLINE
  5
177
100
AcDbEntity
  8
0
 62
7
100
AcDbPolyline
 90
2
 70
0
 10
108.902500
 20
-83.051071
 30
0.0
 10
106.601260
 20
-83.051071
 30
0.0
  0
LWPOLYLINE
  5
178
100
AcDbEntity
  8
0
 62
7
100
AcDbPolyline
 90
2
 70
0
 10
106.601260
 20
-78.349531
 30
0.0
 10
106.601260
 20
-83.051071
 30
0.0
  0
LWPOLYLINE
  5
179
100
AcDbEntity
  8
0
 62
7
100
AcDbPolyline
 90
2
 70
0
 10
108.902500
 20
-78.349531
 30
0.0
 10
106.601260
 20
-78.349531
 30
0.0
  0
LWPOLYLINE
  5
17a
100
AcDbEntity
  8
0
 62
7
100
AcDbPolyline
 90
2
 70
0
 10
108.902500
 20
-83.051071
 30
0.0
 10
108.902500
 20
-78.349531
 30
0.0
  0
LWPOLYLINE
  5
17b
100
AcDbEntity
  8
0
 62
7
100
AcDbPolyline
 90
2
 70
0
 10
89.763600
 20
-88.054871
 30
0.0
 10
87.462360
 20
-88.054871
 30
0.0
  0
LWPOLYLINE
  5
17c
100
AcDbEntity
  8
0
 62
7
100
AcDbPolyline
 90
2
 70
0
 10
87.462360
 20
-83.353331
 30
0.0
 10
87.462360
 20
-88.054871
 30
0.0
  0
LWPOLYLINE
  5
17d
100
AcDbEntity
  8
0
 62
7
100
AcDbPolyline
 90
2
 70
0
 10
89.763600
 20
-83.353331
 30
0.0
 10
87.462360
 20
-83.353331
 30
0.0
  0
LWPOLYLINE
  5
17e
100
AcDbEntity
  8
0
 62
7
100
AcDbPolyline
 90
2
 70
0
 10
89.763600
 20
-88.054871
 30
0.0
 10
89.763600
 20
-83.353331
 30
0.0
  0
LWPOLYLINE
  5
17f
100
AcDbEntity
  8
0
 62
7
100
AcDbPolyline
 90
2
 70
0
 10
70.929500
 20
-100.602471
 30
0.0
 10
68.628260
 20
-100.602471
 30
0.0
  0
LWPOLYLINE
  5
180
100
AcDbEntity
  8
0
 62
7
100
AcDbPolyline
 90
2
 70
0
 10
68.628260
 20
-95.900931
 30
0.0
 10
68.628260
 20
-100.602471
 30
0.0
  0
LWPOLYLINE
  5
181
100
AcDbEntity
  8
0
 62
7
100
AcDbPolyline
 90
2
 70
0
 10
70.929500
 20
-95.900931
 30
0.0
 10
68.628260
 20
-95.900931
 30
0.0
  0
LWPOLYLINE
  5
182
100
AcDbEntity
  8
0
 62
7
100
AcDbPolyline
 90
2
 70
0
 10
70.929500
 20
-100.602471
 30
0.0
 10
70.929500
 20
-95.900931
 30
0.0
  0
LWPOLYLINE
  5
183
100
AcDbEntity
  8
0
 62
7
100
AcDbPolyline
 90
2
 70
0
 10
134.777480
 20
-74.826551
 30
0.0
 10
134.777480
 20
-72.527851
 30
0.0
  0
LWPOLYLINE
  5
184
100
AcDbEntity
  8
0
 62
7
100
AcDbPolyline
 90
2
 70
0
 10
139.476480
 20
-72.527851
 30
0.0
 10
134.777480
 20
-72.527851
 30
0.0
  0
LWPOLYLINE
  5
185
100
AcDbEntity
  8
0
 62
7
100
AcDbPolyline
 90
2
 70
0
 10
139.476480
 20
-74.826551
 30
0.0
 10
139.476480
 20
-72.527851
 30
0.0
  0
LWPOLYLINE
  5
186
100
AcDbEntity
  8
0
 62
7
100
AcDbPolyline
 90
2
 70
0
 10
134.777480
 20
-74.826551
 30
0.0
 10
139.476480
 20
-74.826551
 30
0.0
  0
LWPOLYLINE
  5
187
100
AcDbEntity
  8
0
 62
7
100
AcDbPolyline
 90
2
 70
0
 10
127.952500
 20
-69.131871
 30
0.0
 10
125.651260
 20
-69.131871
 30
0.0
  0
LWPOLYLINE
  5
188
100
AcDbEntity
  8
0
 62
7
100
AcDbPolyline
 90
2
 70
0
 10
125.651260
 20
-64.430331
 30
0.0
 10
125.651260
 20
-69.131871
 30
0.0
  0
LWPOLYLINE
  5
189
100
AcDbEntity
  8
0
 62
7
100
AcDbPolyline
 90
2
 70
0
 10
127.952500
 20
-64.430331
 30
0.0
 10
125.651260
 20
-64.430331
 30
0.0
  0
LWPOLYLINE
  5
18a
100
AcDbEntity
  8
0
 62
7
100
AcDbPolyline
 90
2
 70
0
 10
127.952500
 20
-69.131871
 30
0.0
 10
127.952500
 20
-64.430331
 30
0.0
  0
LWPOLYLINE
  5
18b
100
AcDbEntity
  8
0
 62
7
100
AcDbPolyline
 90
2
 70
0
 10
96.931480
 20
-67.333551
 30
0.0
 10
96.931480
 20
-65.034851
 30
0.0
  0
LWPOLYLINE
  5
18c
100
AcDbEntity
  8
0
 62
7
100
AcDbPolyline
 90
2
 70
0
 10
101.630480
 20
-65.034851
 30
0.0
 10
96.931480
 20
-65.034851
 30
0.0
  0
LWPOLYLINE
  5
18d
100
AcDbEntity
  8
0
 62
7
100
AcDbPolyline
 90
2
 70
0
 10
101.630480
 20
-67.333551
 30
0.0
 10
101.630480
 20
-65.034851
 30
0.0
  0
LWPOLYLINE
  5
18e
100
AcDbEntity
  8
0
 62
7
100
AcDbPolyline
 90
2
 70
0
 10
96.931480
 20
-67.333551
 30
0.0
 10
101.630480
 20
-67.333551
 30
0.0
  0
LWPOLYLINE
  5
18f
100
AcDbEntity
  8
0
 62
7
100
AcDbPolyline
 90
2
 70
0
 10
89.827100
 20
-69.042971
 30
0.0
 10
87.525860
 20
-69.042971
 30
0.0
  0
LWPOLYLINE
  5
190
100
AcDbEntity
  8
0
 62
7
100
AcDbPolyline
 90
2
 70
0
 10
87.525860
 20
-64.341431
 30
0.0
 10
87.525860
 20
-69.042971
 30
0.0
  0
LWPOLYLINE
  5
191
100
AcDbEntity
  8
0
 62
7
100
AcDbPolyline
 90
2
 70
0
 10
89.827100
 20
-64.341431
 30
0.0
 10
87.525860
 20
-64.341431
 30
0.0
  0
LWPOLYLINE
  5
192
100
AcDbEntity
  8
0
 62
7
100
AcDbPolyline
 90
2
 70
0
 10
89.827100
 20
-69.042971
 30
0.0
 10
89.827100
 20
-64.341431
 30
0.0
  0
LWPOLYLINE
  5
193
100
AcDbEntity
  8
0
 62
7
100
AcDbPolyline
 90
2
 70
0
 10
70.827900
 20
-81.552471
 30
0.0
 10
68.526660
 20
-81.552471
 30
0.0
  0
LWPOLYLINE
  5
194
100
AcDbEntity
  8
0
 62
7
100
AcDbPolyline
 90
2
 70
0
 10
68.526660
 20
-76.850931
 30
0.0
 10
68.526660
 20
-81.552471
 30
0.0
  0
LWPOLYLINE
  5
195
100
AcDbEntity
  8
0
 62
7
100
AcDbPolyline
 90
2
 70
0
 10
70.827900
 20
-76.850931
 30
0.0
 10
68.526660
 20
-76.850931
 30
0.0
  0
LWPOLYLINE
  5
196
100
AcDbEntity
  8
0
 62
7
100
AcDbPolyline
 90
2
 70
0
 10
70.827900
 20
-81.552471
 30
0.0
 10
70.827900
 20
-76.850931
 30
0.0
  0
LWPOLYLINE
  5
197
100
AcDbEntity
  8
0
 62
7
100
AcDbPolyline
 90
2
 70
0
 10
134.752080
 20
-55.865451
 30
0.0
 10
134.752080
 20
-53.566751
 30
0.0
  0
LWPOLYLINE
  5
198
100
AcDbEntity
  8
0
 62
7
100
AcDbPolyline
 90
2
 70
0
 10
139.451080
 20
-53.566751
 30
0.0
 10
134.752080
 20
-53.566751
 30
0.0
  0
LWPOLYLINE
  5
199
100
AcDbEntity
  8
0
 62
7
100
AcDbPolyline
 90
2
 70
0
 10
139.451080
 20
-55.865451
 30
0.0
 10
139.451080
 20
-53.566751
 30
0.0
  0
LWPOLYLINE
  5
19a
100
AcDbEntity
  8
0
 62
7
100
AcDbPolyline
 90
2
 70
0
 10
134.752080
 20
-55.865451
 30
0.0
 10
139.451080
 20
-55.865451
 30
0.0
  0
LWPOLYLINE
  5
19b
100
AcDbEntity
  8
0
 62
7
100
AcDbPolyline
 90
2
 70
0
 10
127.876300
 20
-50.843871
 30
0.0
 10
125.575060
 20
-50.843871
 30
0.0
  0
LWPOLYLINE
  5
19c
100
AcDbEntity
  8
0
 62
7
100
AcDbPolyline
 90
2
 70
0
 10
125.575060
 20
-46.142331
 30
0.0
 10
125.575060
 20
-50.843871
 30
0.0
  0
LWPOLYLINE
  5
19d
100
AcDbEntity
  8
0
 62
7
100
AcDbPolyline
 90
2
 70
0
 10
127.876300
 20
-46.142331
 30
0.0
 10
125.575060
 20
-46.142331
 30
0.0
  0
LWPOLYLINE
  5
19e
100
AcDbEntity
  8
0
 62
7
100
AcDbPolyline
 90
2
 70
0
 10
127.876300
 20
-50.843871
 30
0.0
 10
127.876300
 20
-46.142331
 30
0.0
  0
LWPOLYLINE
  5
19f
100
AcDbEntity
  8
0
 62
7
100
AcDbPolyline
 90
2
 70
0
 10
96.626680
 20
-48.232751
 30
0.0
 10
96.626680
 20
-45.934051
 30
0.0
  0
LWPOLYLINE
  5
1a0
100
AcDbEntity
  8
0
 62
7
100
AcDbPolyline
 90
2
 70
0
 10
101.325680
 20
-45.934051
 30
0.0
 10
96.626680
 20
-45.934051
 30
0.0
  0
LWPOLYLINE
  5
1a1
100
AcDbEntity
  8
0
 62
7
100
AcDbPolyline
 90
2
 70
0
 10
101.325680
 20
-48.232751
 30
0.0
 10
101.325680
 20
-45.934051
 30
0.0
  0
LWPOLYLINE
  5
1a2
100
AcDbEntity
  8
0
 62
7
100
AcDbPolyline
 90
2
 70
0
 10
96.626680
 20
-48.232751
 30
0.0
 10
101.325680
 20
-48.232751
 30
0.0
  0
LWPOLYLINE
  5
1a3
100
AcDbEntity
  8
0
 62
7
100
AcDbPolyline
 90
2
 70
0
 10
86.517480
 20
-51.001351
 30
0.0
 10
86.517480
 20
-53.300051
 30
0.0
  0
LWPOLYLINE
  5
1a4
100
AcDbEntity
  8
0
 62
7
100
AcDbPolyline
 90
2
 70
0
 10
81.818480
 20
-53.300051
 30
0.0
 10
86.517480
 20
-53.300051
 30
0.0
  0
LWPOLYLINE
  5
1a5
100
AcDbEntity
  8
0
 62
7
100
AcDbPolyline
 90
2
 70
0
 10
81.818480
 20
-51.001351
 30
0.0
 10
81.818480
 20
-53.300051
 30
0.0
  0
LWPOLYLINE
  5
1a6
100
AcDbEntity
  8
0
 62
7
100
AcDbPolyline
 90
2
 70
0
 10
86.517480
 20
-51.001351
 30
0.0
 10
81.818480
 20
-51.001351
 30
0.0
  0
LWPOLYLINE
  5
1a7
100
AcDbEntity
  8
0
 62
7
100
AcDbPolyline
 90
2
 70
0
 10
70.815200
 20
-62.540571
 30
0.0
 10
68.513960
 20
-62.540571
 30
0.0
  0
LWPOLYLINE
  5
1a8
100
AcDbEntity
  8
0
 62
7
100
AcDbPolyline
 90
2
 70
0
 10
68.513960
 20
-57.839031
 30
0.0
 10
68.513960
 20
-62.540571
 30
0.0
  0
LWPOLYLINE
  5
1a9
100
AcDbEntity
  8
0
 62
7
100
AcDbPolyline
 90
2
 70
0
 10
70.815200
 20
-57.839031
 30
0.0
 10
68.513960
 20
-57.839031
 30
0.0
  0
LWPOLYLINE
  5
1aa
100
AcDbEntity
  8
0
 62
7
100
AcDbPolyline
 90
2
 70
0
 10
70.815200
 20
-62.540571
 30
0.0
 10
70.815200
 20
-57.839031
 30
0.0
  0
LWPOLYLINE
  5
1ab
100
AcDbEntity
  8
0
 62
7
100
AcDbPolyline
 90
2
 70
0
 10
52.895500
 20
-106.556231
 30
0.0
 10
52.895500
 20
-103.256771
 30
0.0
  0
LWPOLYLINE
  5
1ac
100
AcDbEntity
  8
0
 62
7
100
AcDbPolyline
 90
2
 70
0
 10
52.895500
 20
-106.556231
 30
0.0
 10
55.394860
 20
-106.556231
 30
0.0
  0
LWPOLYLINE
  5
1ad
100
AcDbEntity
  8
0
 62
7
100
AcDbPolyline
 90
2
 70
0
 10
55.394860
 20
-103.256771
 30
0.0
 10
52.895500
 20
-103.256771
 30
0.0
  0
LWPOLYLINE
  5
1ae
100
AcDbEntity
  8
0
 62
7
100
AcDbPolyline
 90
2
 70
0
 10
55.394860
 20
-103.256771
 30
0.0
 10
55.394860
 20
-106.556231
 30
0.0
  0
LWPOLYLINE
  5
1af
100
AcDbEntity
  8
0
 62
7
100
AcDbPolyline
 90
4
 70
0
 10
47.541180
 20
-110.805651
 30
0.0
 10
42.842180
 20
-110.805651
 30
0.0
 10
42.842180
 20
-108.506951
 30
0.0
 10
47.541180
 20
-108.506951
 30
0.0
  0
LWPOLYLINE
  5
1b0
100
AcDbEntity
  8
0
 62
7
100
AcDbPolyline
 90
2
 70
0
 10
47.541180
 20
-110.805651
 30
0.0
 10
47.541180
 20
-108.506951
 30
0.0
  0
LWPOLYLINE
  5
1b1
100
AcDbEntity
  8
0
 62
7
100
AcDbPolyline
 90
2
 70
0
 10
47.541180
 20
-91.704851
 30
0.0
 10
47.541180
 20
-89.406151
 30
0.0
  0
LWPOLYLINE
  5
1b2
100
AcDbEntity
  8
0
 62
7
100
AcDbPolyline
 90
2
 70
0
 10
42.842180
 20
-89.406151
 30
0.0
 10
47.541180
 20
-89.406151
 30
0.0
  0
LWPOLYLINE
  5
1b3
100
AcDbEntity
  8
0
 62
7
100
AcDbPolyline
 90
2
 70
0
 10
42.842180
 20
-91.704851
 30
0.0
 10
42.842180
 20
-89.406151
 30
0.0
  0
LWPOLYLINE
  5
1b4
100
AcDbEntity
  8
0
 62
7
100
AcDbPolyline
 90
2
 70
0
 10
47.541180
 20
-91.704851
 30
0.0
 10
42.842180
 20
-91.704851
 30
0.0
  0
LWPOLYLINE
  5
1b5
100
AcDbEntity
  8
0
 62
7
100
AcDbPolyline
 90
4
 70
0
 10
47.579280
 20
-72.832651
 30
0.0
 10
42.880280
 20
-72.832651
 30
0.0
 10
42.880280
 20
-70.533951
 30
0.0
 10
47.579280
 20
-70.533951
 30
0.0
  0
LWPOLYLINE
  5
1b6
100
AcDbEntity
  8
0
 62
7
100
AcDbPolyline
 90
2
 70
0
 10
47.579280
 20
-72.832651
 30
0.0
 10
47.579280
 20
-70.533951
 30
0.0
  0
LWPOLYLINE
  5
1b7
100
AcDbEntity
  8
0
 62
7
100
AcDbPolyline
 90
4
 70
1
 10
37.195760
 20
-59.929451
 30
0.0
 10
37.195760
 20
-55.928951
 30
0.0
 10
44.795440
 20
-55.928951
 30
0.0
 10
44.795440
 20
-59.929451
 30
0.0
  0
LWPOLYLINE
  5
1b8
100
AcDbEntity
  8
0
 62
7
100
AcDbPolyline
 90
4
 70
1
 10
37.195760
 20
-78.928651
 30
0.0
 10
37.195760
 20
-74.928151
 30
0.0
 10
44.795440
 20
-74.928151
 30
0.0
 10
44.795440
 20
-78.928651
 30
0.0
  0
SPLINE
  5
1b9
100
AcDbEntity
  8
0
 62
7
100
AcDbSpline
 70
8
 71
3
 72
8
 73
4
 74
0
 40
0
 40
0
 40
0
 40
0
 40
1
 40
1
 40
1
 40
1
 10
56.477662
 20
-106.670353
 30
0.0
 10
55.082265
 20
-106.670353
 30
0.0
 10
53.824268
 20
-107.510920
 30
0.0
 10
53.290272
 20
-108.800099
 30
0.0
  0
SPLINE
  5
1ba
100
AcDbEntity
  8
0
 62
7
100
AcDbSpline
 70
8
 71
3
 72
8
 73
4
 74
0
 40
0
 40
0
 40
0
 40
0
 40
1
 40
1
 40
1
 40
1
 10
53.290272
 20
-108.800099
 30
0.0
 10
52.756277
 20
-110.089278
 30
0.0
 10
53.051445
 20
-111.573187
 30
0.0
 10
54.038140
 20
-112.559881
 30
0.0
  0
SPLINE
  5
1bb
100
AcDbEntity
  8
0
 62
7
100
AcDbSpline
 70
8
 71
3
 72
8
 73
4
 74
0
 40
0
 40
0
 40
0
 40
0
 40
1
 40
1
 40
1
 40
1
 10
54.038140
 20
-112.559881
 30
0.0
 10
55.024834
 20
-113.546576
 30
0.0
 10
56.508743
 20
-113.841744
 30
0.0
 10
57.797922
 20
-113.307749
 30
0.0
  0
SPLINE
  5
1bc
100
AcDbEntity
  8
0
 62
7
100
AcDbSpline
 70
8
 71
3
 72
8
 73
4
 74
0
 40
0
 40
0
 40
0
 40
0
 40
1
 40
1
 40
1
 40
1
 10
57.797922
 20
-113.307749
 30
0.0
 10
59.087101
 20
-112.773753
 30
0.0
 10
59.927668
 20
-111.515756
 30
0.0
 10
59.927668
 20
-110.120359
 30
0.0
  0
SPLINE
  5
1bd
100
AcDbEntity
  8
0
 62
7
100
AcDbSpline
 70
8
 71
3
 72
8
 73
4
 74
0
 40
0
 40
0
 40
0
 40
0
 40
1
 40
1
 40
1
 40
1
 10
59.927668
 20
-110.120359
 30
0.0
 10
59.927668
 20
-109.205360
 30
0.0
 10
59.564186
 20
-108.327838
 30
0.0
 10
58.917184
 20
-107.680836
 30
0.0
  0
SPLINE
  5
1be
100
AcDbEntity
  8
0
 62
7
100
AcDbSpline
 70
8
 71
3
 72
8
 73
4
 74
0
 40
0
 40
0
 40
0
 40
0
 40
1
 40
1
 40
1
 40
1
 10
58.917184
 20
-107.680836
 30
0.0
 10
58.270183
 20
-107.033835
 30
0.0
 10
57.392660
 20
-106.670353
 30
0.0
 10
56.477662
 20
-106.670353
 30
0.0
  0
LWPOLYLINE
  5
1bf
100
AcDbEntity
  8
0
 62
7
100
AcDbPolyline
 90
4
 70
1
 10
37.195760
 20
-97.930391
 30
0.0
 10
37.195760
 20
-93.929891
 30
0.0
 10
44.795440
 20
-93.929891
 30
0.0
 10
44.795440
 20
-97.930391
 30
0.0
  0
SPLINE
  5
1c0
100
AcDbEntity
  8
0
 62
7
100
AcDbSpline
 70
8
 71
3
 72
8
 73
4
 74
0
 40
0
 40
0
 40
0
 40
0
 40
1
 40
1
 40
1
 40
1
 10
70.637654
 20
-49.710345
 30
0.0
 10
69.242257
 20
-49.710345
 30
0.0
 10
67.984260
 20
-50.550912
 30
0.0
 10
67.450264
 20
-51.840091
 30
0.0
  0
SPLINE
  5
1c1
100
AcDbEntity
  8
0
 62
7
100
AcDbSpline
 70
8
 71
3
 72
8
 73
4
 74
0
 40
0
 40
0
 40
0
 40
0
 40
1
 40
1
 40
1
 40
1
 10
67.450264
 20
-51.840091
 30
0.0
 10
66.916269
 20
-53.129270
 30
0.0
 10
67.211437
 20
-54.613179
 30
0.0
 10
68.198132
 20
-55.599873
 30
0.0
  0
SPLINE
  5
1c2
100
AcDbEntity
  8
0
 62
7
100
AcDbSpline
 70
8
 71
3
 72
8
 73
4
 74
0
 40
0
 40
0
 40
0
 40
0
 40
1
 40
1
 40
1
 40
1
 10
68.198132
 20
-55.599873
 30
0.0
 10
69.184826
 20
-56.586568
 30
0.0
 10
70.668735
 20
-56.881736
 30
0.0
 10
71.957914
 20
-56.347741
 30
0.0
  0
SPLINE
  5
1c3
100
AcDbEntity
  8
0
 62
7
100
AcDbSpline
 70
8
 71
3
 72
8
 73
4
 74
0
 40
0
 40
0
 40
0
 40
0
 40
1
 40
1
 40
1
 40
1
 10
71.957914
 20
-56.347741
 30
0.0
 10
73.247093
 20
-55.813745
 30
0.0
 10
74.087660
 20
-54.555748
 30
0.0
 10
74.087660
 20
-53.160351
 30
0.0
  0
SPLINE
  5
1c4
100
AcDbEntity
  8
0
 62
7
100
AcDbSpline
 70
8
 71
3
 72
8
 73
4
 74
0
 40
0
 40
0
 40
0
 40
0
 40
1
 40
1
 40
1
 40
1
 10
74.087660
 20
-53.160351
 30
0.0
 10
74.087660
 20
-52.245352
 30
0.0
 10
73.724178
 20
-51.367830
 30
0.0
 10
73.077176
 20
-50.720828
 30
0.0
  0
SPLINE
  5
1c5
100
AcDbEntity
  8
0
 62
7
100
AcDbSpline
 70
8
 71
3
 72
8
 73
4
 74
0
 40
0
 40
0
 40
0
 40
0
 40
1
 40
1
 40
1
 40
1
 10
73.077176
 20
-50.720828
 30
0.0
 10
72.430175
 20
-50.073827
 30
0.0
 10
71.552652
 20
-49.710345
 30
0.0
 10
70.637654
 20
-49.710345
 30
0.0
  0
LWPOLYLINE
  5
1c6
100
AcDbEntity
  8
0
 62
7
100
AcDbPolyline
 90
1
 70
1
 10
56.477662
 20
-106.670353
 30
0.0
  0
SPLINE
  5
1c7
100
AcDbEntity
  8
0
 62
7
100
AcDbSpline
 70
8
 71
3
 72
8
 73
4
 74
0
 40
0
 40
0
 40
0
 40
0
 40
1
 40
1
 40
1
 40
1
 10
127.487680
 20
-56.250337
 30
0.0
 10
126.092283
 20
-56.250337
 30
0.0
 10
124.834286
 20
-57.090904
 30
0.0
 10
124.300290
 20
-58.380083
 30
0.0
  0
SPLINE
  5
1c8
100
AcDbEntity
  8
0
 62
7
100
AcDbSpline
 70
8
 71
3
 72
8
 73
4
 74
0
 40
0
 40
0
 40
0
 40
0
 40
1
 40
1
 40
1
 40
1
 10
124.300290
 20
-58.380083
 30
0.0
 10
123.766295
 20
-59.669262
 30
0.0
 10
124.061463
 20
-61.153171
 30
0.0
 10
125.048158
 20
-62.139865
 30
0.0
  0
SPLINE
  5
1c9
100
AcDbEntity
  8
0
 62
7
100
AcDbSpline
 70
8
 71
3
 72
8
 73
4
 74
0
 40
0
 40
0
 40
0
 40
0
 40
1
 40
1
 40
1
 40
1
 10
125.048158
 20
-62.139865
 30
0.0
 10
126.034852
 20
-63.126560
 30
0.0
 10
127.518761
 20
-63.421728
 30
0.0
 10
128.807940
 20
-62.887733
 30
0.0
  0
SPLINE
  5
1ca
100
AcDbEntity
  8
0
 62
7
100
AcDbSpline
 70
8
 71
3
 72
8
 73
4
 74
0
 40
0
 40
0
 40
0
 40
0
 40
1
 40
1
 40
1
 40
1
 10
128.807940
 20
-62.887733
 30
0.0
 10
130.097119
 20
-62.353737
 30
0.0
 10
130.937686
 20
-61.095740
 30
0.0
 10
130.937686
 20
-59.700343
 30
0.0
  0
SPLINE
  5
1cb
100
AcDbEntity
  8
0
 62
7
100
AcDbSpline
 70
8
 71
3
 72
8
 73
4
 74
0
 40
0
 40
0
 40
0
 40
0
 40
1
 40
1
 40
1
 40
1
 10
130.937686
 20
-59.700343
 30
0.0
 10
130.937686
 20
-58.785344
 30
0.0
 10
130.574204
 20
-57.907822
 30
0.0
 10
129.927202
 20
-57.260820
 30
0.0
  0
SPLINE
  5
1cc
100
AcDbEntity
  8
0
 62
7
100
AcDbSpline
 70
8
 71
3
 72
8
 73
4
 74
0
 40
0
 40
0
 40
0
 40
0
 40
1
 40
1
 40
1
 40
1
 10
129.927202
 20
-57.260820
 30
0.0
 10
129.280201
 20
-56.613819
 30
0.0
 10
128.402678
 20
-56.250337
 30
0.0
 10
127.487680
 20
-56.250337
 30
0.0
  0
LWPOLYLINE
  5
1cd
100
AcDbEntity
  8
0
 62
7
100
AcDbPolyline
 90
1
 70
1
 10
70.637654
 20
-49.710345
 30
0.0
  0
SPLINE
  5
1ce
100
AcDbEntity
  8
0
 62
7
100
AcDbSpline
 70
8
 71
3
 72
8
 73
4
 74
0
 40
0
 40
0
 40
0
 40
0
 40
1
 40
1
 40
1
 40
1
 10
129.187702
 20
-94.520771
 30
0.0
 10
127.792305
 20
-94.520771
 30
0.0
 10
126.534308
 20
-95.361338
 30
0.0
 10
126.000312
 20
-96.650517
 30
0.0
  0
SPLINE
  5
1cf
100
AcDbEntity
  8
0
 62
7
100
AcDbSpline
 70
8
 71
3
 72
8
 73
4
 74
0
 40
0
 40
0
 40
0
 40
0
 40
1
 40
1
 40
1
 40
1
 10
126.000312
 20
-96.650517
 30
0.0
 10
125.466317
 20
-97.939696
 30
0.0
 10
125.761485
 20
-99.423605
 30
0.0
 10
126.748180
 20
-100.410299
 30
0.0
  0
SPLINE
  5
1d0
100
AcDbEntity
  8
0
 62
7
100
AcDbSpline
 70
8
 71
3
 72
8
 73
4
 74
0
 40
0
 40
0
 40
0
 40
0
 40
1
 40
1
 40
1
 40
1
 10
126.748180
 20
-100.410299
 30
0.0
 10
127.734874
 20
-101.396994
 30
0.0
 10
129.218783
 20
-101.692162
 30
0.0
 10
130.507962
 20
-101.158167
 30
0.0
  0
SPLINE
  5
1d1
100
AcDbEntity
  8
0
 62
7
100
AcDbSpline
 70
8
 71
3
 72
8
 73
4
 74
0
 40
0
 40
0
 40
0
 40
0
 40
1
 40
1
 40
1
 40
1
 10
130.507962
 20
-101.158167
 30
0.0
 10
131.797141
 20
-100.624171
 30
0.0
 10
132.637708
 20
-99.366174
 30
0.0
 10
132.637708
 20
-97.970777
 30
0.0
  0
SPLINE
  5
1d2
100
AcDbEntity
  8
0
 62
7
100
AcDbSpline
 70
8
 71
3
 72
8
 73
4
 74
0
 40
0
 40
0
 40
0
 40
0
 40
1
 40
1
 40
1
 40
1
 10
132.637708
 20
-97.970777
 30
0.0
 10
132.637708
 20
-97.055778
 30
0.0
 10
132.274226
 20
-96.178256
 30
0.0
 10
131.627224
 20
-95.531254
 30
0.0
  0
SPLINE
  5
1d3
100
AcDbEntity
  8
0
 62
7
100
AcDbSpline
 70
8
 71
3
 72
8
 73
4
 74
0
 40
0
 40
0
 40
0
 40
0
 40
1
 40
1
 40
1
 40
1
 10
131.627224
 20
-95.531254
 30
0.0
 10
130.980223
 20
-94.884253
 30
0.0
 10
130.102700
 20
-94.520771
 30
0.0
 10
129.187702
 20
-94.520771
 30
0.0
  0
LWPOLYLINE
  5
1d4
100
AcDbEntity
  8
0
 62
7
100
AcDbPolyline
 90
1
 70
1
 10
127.487680
 20
-56.250337
 30
0.0
  0
LWPOLYLINE
  5
1d5
100
AcDbEntity
  8
0
 62
7
100
AcDbPolyline
 90
1
 70
1
 10
129.187702
 20
-94.520771
 30
0.0
  0
LWPOLYLINE
  5
1d6
100
AcDbEntity
  8
0
 62
7
100
AcDbPolyline
 90
2
 70
0
 10
163.824920
 20
-111.179031
 30
0.0
 10
156.682440
 20
-108.580611
 30
0.0
  0
LWPOLYLINE
  5
1d7
100
AcDbEntity
  8
0
 62
7
100
AcDbPolyline
 90
2
 70
0
 10
165.193980
 20
-107.422371
 30
0.0
 10
163.824920
 20
-111.179031
 30
0.0
  0
LWPOLYLINE
  5
1d8
100
AcDbEntity
  8
0
 62
7
100
AcDbPolyline
 90
2
 70
0
 10
158.051500
 20
-104.821411
 30
0.0
 10
165.193980
 20
-107.422371
 30
0.0
  0
LWPOLYLINE
  5
1d9
100
AcDbEntity
  8
0
 62
7
100
AcDbPolyline
 90
2
 70
0
 10
156.682440
 20
-108.580611
 30
0.0
 10
158.051500
 20
-104.821411
 30
0.0
  0
LWPOLYLINE
  5
1da
100
AcDbEntity
  8
0
 62
7
100
AcDbPolyline
 90
2
 70
0
 10
102.796340
 20
-73.429551
 30
0.0
 10
95.196660
 20
-73.429551
 30
0.0
  0
LWPOLYLINE
  5
1db
100
AcDbEntity
  8
0
 62
7
100
AcDbPolyline
 90
2
 70
0
 10
102.796340
 20
-69.429051
 30
0.0
 10
102.796340
 20
-73.429551
 30
0.0
  0
LWPOLYLINE
  5
1dc
100
AcDbEntity
  8
0
 62
7
100
AcDbPolyline
 90
2
 70
0
 10
95.196660
 20
-69.429051
 30
0.0
 10
102.796340
 20
-69.429051
 30
0.0
  0
LWPOLYLINE
  5
1dd
100
AcDbEntity
  8
0
 62
7
100
AcDbPolyline
 90
2
 70
0
 10
95.196660
 20
-73.429551
 30
0.0
 10
95.196660
 20
-69.429051
 30
0.0
  0
LWPOLYLINE
  5
1de
100
AcDbEntity
  8
0
 62
7
100
AcDbPolyline
 90
2
 70
0
 10
143.192500
 20
-104.966191
 30
0.0
 10
135.709660
 20
-103.645391
 30
0.0
  0
LWPOLYLINE
  5
1df
100
AcDbEntity
  8
0
 62
7
100
AcDbPolyline
 90
2
 70
0
 10
143.888460
 20
-101.026651
 30
0.0
 10
143.192500
 20
-104.966191
 30
0.0
  0
LWPOLYLINE
  5
1e0
100
AcDbEntity
  8
0
 62
7
100
AcDbPolyline
 90
2
 70
0
 10
136.403080
 20
-99.705851
 30
0.0
 10
143.888460
 20
-101.026651
 30
0.0
  0
LWPOLYLINE
  5
1e1
100
AcDbEntity
  8
0
 62
7
100
AcDbPolyline
 90
2
 70
0
 10
135.709660
 20
-103.645391
 30
0.0
 10
136.403080
 20
-99.705851
 30
0.0
  0
LWPOLYLINE
  5
1e2
100
AcDbEntity
  8
0
 62
7
100
AcDbPolyline
 90
2
 70
0
 10
102.796340
 20
-54.430351
 30
0.0
 10
95.196660
 20
-54.430351
 30
0.0
  0
LWPOLYLINE
  5
1e3
100
AcDbEntity
  8
0
 62
7
100
AcDbPolyline
 90
2
 70
0
 10
102.796340
 20
-50.429851
 30
0.0
 10
102.796340
 20
-54.430351
 30
0.0
  0
LWPOLYLINE
  5
1e4
100
AcDbEntity
  8
0
 62
7
100
AcDbPolyline
 90
2
 70
0
 10
95.196660
 20
-50.429851
 30
0.0
 10
102.796340
 20
-50.429851
 30
0.0
  0
LWPOLYLINE
  5
1e5
100
AcDbEntity
  8
0
 62
7
100
AcDbPolyline
 90
2
 70
0
 10
95.196660
 20
-54.430351
 30
0.0
 10
95.196660
 20
-50.429851
 30
0.0
  0
LWPOLYLINE
  5
1e6
100
AcDbEntity
  8
0
 62
7
100
AcDbPolyline
 90
2
 70
0
 10
102.796340
 20
-35.428611
 30
0.0
 10
95.196660
 20
-35.428611
 30
0.0
  0
LWPOLYLINE
  5
1e7
100
AcDbEntity
  8
0
 62
7
100
AcDbPolyline
 90
2
 70
0
 10
102.796340
 20
-31.428111
 30
0.0
 10
102.796340
 20
-35.428611
 30
0.0
  0
LWPOLYLINE
  5
1e8
100
AcDbEntity
  8
0
 62
7
100
AcDbPolyline
 90
2
 70
0
 10
95.196660
 20
-31.428111
 30
0.0
 10
102.796340
 20
-31.428111
 30
0.0
  0
LWPOLYLINE
  5
1e9
100
AcDbEntity
  8
0
 62
7
100
AcDbPolyline
 90
2
 70
0
 10
95.196660
 20
-35.428611
 30
0.0
 10
95.196660
 20
-31.428111
 30
0.0
  0
LWPOLYLINE
  5
1ea
100
AcDbEntity
  8
0
 62
7
100
AcDbPolyline
 90
2
 70
0
 10
121.795540
 20
-102.428731
 30
0.0
 10
114.195860
 20
-102.428731
 30
0.0
  0
LWPOLYLINE
  5
1eb
100
AcDbEntity
  8
0
 62
7
100
AcDbPolyline
 90
2
 70
0
 10
121.795540
 20
-98.428231
 30
0.0
 10
121.795540
 20
-102.428731
 30
0.0
  0
LWPOLYLINE
  5
1ec
100
AcDbEntity
  8
0
 62
7
100
AcDbPolyline
 90
2
 70
0
 10
114.195860
 20
-98.428231
 30
0.0
 10
121.795540
 20
-98.428231
 30
0.0
  0
LWPOLYLINE
  5
1ed
100
AcDbEntity
  8
0
 62
7
100
AcDbPolyline
 90
2
 70
0
 10
114.195860
 20
-102.428731
 30
0.0
 10
114.195860
 20
-98.428231
 30
0.0
  0
LWPOLYLINE
  5
1ee
100
AcDbEntity
  8
0
 62
7
100
AcDbPolyline
 90
2
 70
0
 10
83.797140
 20
-40.429871
 30
0.0
 10
76.197460
 20
-40.429871
 30
0.0
  0
LWPOLYLINE
  5
1ef
100
AcDbEntity
  8
0
 62
7
100
AcDbPolyline
 90
2
 70
0
 10
83.797140
 20
-36.429371
 30
0.0
 10
83.797140
 20
-40.429871
 30
0.0
  0
LWPOLYLINE
  5
1f0
100
AcDbEntity
  8
0
 62
7
100
AcDbPolyline
 90
2
 70
0
 10
76.197460
 20
-36.429371
 30
0.0
 10
83.797140
 20
-36.429371
 30
0.0
  0
LWPOLYLINE
  5
1f1
100
AcDbEntity
  8
0
 62
7
100
AcDbPolyline
 90
2
 70
0
 10
76.197460
 20
-40.429871
 30
0.0
 10
76.197460
 20
-36.429371
 30
0.0
  0
LWPOLYLINE
  5
1f2
100
AcDbEntity
  8
0
 62
7
100
AcDbPolyline
 90
2
 70
0
 10
140.797280
 20
-80.930171
 30
0.0
 10
133.195060
 20
-80.930171
 30
0.0
  0
LWPOLYLINE
  5
1f3
100
AcDbEntity
  8
0
 62
7
100
AcDbPolyline
 90
2
 70
0
 10
140.797280
 20
-76.929671
 30
0.0
 10
140.797280
 20
-80.930171
 30
0.0
  0
LWPOLYLINE
  5
1f4
100
AcDbEntity
  8
0
 62
7
100
AcDbPolyline
 90
2
 70
0
 10
133.195060
 20
-76.929671
 30
0.0
 10
140.797280
 20
-76.929671
 30
0.0
  0
LWPOLYLINE
  5
1f5
100
AcDbEntity
  8
0
 62
7
100
AcDbPolyline
 90
2
 70
0
 10
133.195060
 20
-80.930171
 30
0.0
 10
133.195060
 20
-76.929671
 30
0.0
  0
LWPOLYLINE
  5
1f6
100
AcDbEntity
  8
0
 62
7
100
AcDbPolyline
 90
2
 70
0
 10
83.797140
 20
-59.429071
 30
0.0
 10
76.197460
 20
-59.429071
 30
0.0
  0
LWPOLYLINE
  5
1f7
100
AcDbEntity
  8
0
 62
7
100
AcDbPolyline
 90
2
 70
0
 10
83.797140
 20
-55.428571
 30
0.0
 10
83.797140
 20
-59.429071
 30
0.0
  0
LWPOLYLINE
  5
1f8
100
AcDbEntity
  8
0
 62
7
100
AcDbPolyline
 90
2
 70
0
 10
76.197460
 20
-55.428571
 30
0.0
 10
83.797140
 20
-55.428571
 30
0.0
  0
LWPOLYLINE
  5
1f9
100
AcDbEntity
  8
0
 62
7
100
AcDbPolyline
 90
2
 70
0
 10
76.197460
 20
-59.429071
 30
0.0
 10
76.197460
 20
-55.428571
 30
0.0
  0
LWPOLYLINE
  5
1fa
100
AcDbEntity
  8
0
 62
7
100
AcDbPolyline
 90
2
 70
0
 10
140.797280
 20
-61.928431
 30
0.0
 10
133.195060
 20
-61.928431
 30
0.0
  0
LWPOLYLINE
  5
1fb
100
AcDbEntity
  8
0
 62
7
100
AcDbPolyline
 90
2
 70
0
 10
140.797280
 20
-57.927931
 30
0.0
 10
140.797280
 20
-61.928431
 30
0.0
  0
LWPOLYLINE
  5
1fc
100
AcDbEntity
  8
0
 62
7
100
AcDbPolyline
 90
2
 70
0
 10
133.195060
 20
-57.927931
 30
0.0
 10
140.797280
 20
-57.927931
 30
0.0
  0
LWPOLYLINE
  5
1fd
100
AcDbEntity
  8
0
 62
7
100
AcDbPolyline
 90
2
 70
0
 10
133.195060
 20
-61.928431
 30
0.0
 10
133.195060
 20
-57.927931
 30
0.0
  0
LWPOLYLINE
  5
1fe
100
AcDbEntity
  8
0
 62
7
100
AcDbPolyline
 90
2
 70
0
 10
83.797140
 20
-78.428271
 30
0.0
 10
76.197460
 20
-78.428271
 30
0.0
  0
LWPOLYLINE
  5
1ff
100
AcDbEntity
  8
0
 62
7
100
AcDbPolyline
 90
2
 70
0
 10
83.797140
 20
-74.430311
 30
0.0
 10
83.797140
 20
-78.428271
 30
0.0
  0
LWPOLYLINE
  5
200
100
AcDbEntity
  8
0
 62
7
100
AcDbPolyline
 90
2
 70
0
 10
76.197460
 20
-74.430311
 30
0.0
 10
83.797140
 20
-74.430311
 30
0.0
  0
LWPOLYLINE
  5
201
100
AcDbEntity
  8
0
 62
7
100
AcDbPolyline
 90
2
 70
0
 10
76.197460
 20
-78.428271
 30
0.0
 10
76.197460
 20
-74.430311
 30
0.0
  0
LWPOLYLINE
  5
202
100
AcDbEntity
  8
0
 62
7
100
AcDbPolyline
 90
2
 70
0
 10
140.797280
 20
-42.929231
 30
0.0
 10
133.195060
 20
-42.929231
 30
0.0
  0
LWPOLYLINE
  5
203
100
AcDbEntity
  8
0
 62
7
100
AcDbPolyline
 90
2
 70
0
 10
140.797280
 20
-38.928731
 30
0.0
 10
140.797280
 20
-42.929231
 30
0.0
  0
LWPOLYLINE
  5
204
100
AcDbEntity
  8
0
 62
7
100
AcDbPolyline
 90
2
 70
0
 10
133.195060
 20
-38.928731
 30
0.0
 10
140.797280
 20
-38.928731
 30
0.0
  0
LWPOLYLINE
  5
205
100
AcDbEntity
  8
0
 62
7
100
AcDbPolyline
 90
2
 70
0
 10
133.195060
 20
-42.929231
 30
0.0
 10
133.195060
 20
-38.928731
 30
0.0
  0
LWPOLYLINE
  5
206
100
AcDbEntity
  8
0
 62
7
100
AcDbPolyline
 90
2
 70
0
 10
121.795540
 20
-40.429871
 30
0.0
 10
114.195860
 20
-40.429871
 30
0.0
  0
LWPOLYLINE
  5
207
100
AcDbEntity
  8
0
 62
7
100
AcDbPolyline
 90
2
 70
0
 10
121.795540
 20
-36.429371
 30
0.0
 10
121.795540
 20
-40.429871
 30
0.0
  0
LWPOLYLINE
  5
208
100
AcDbEntity
  8
0
 62
7
100
AcDbPolyline
 90
2
 70
0
 10
114.195860
 20
-36.429371
 30
0.0
 10
121.795540
 20
-36.429371
 30
0.0
  0
LWPOLYLINE
  5
209
100
AcDbEntity
  8
0
 62
7
100
AcDbPolyline
 90
2
 70
0
 10
114.195860
 20
-40.429871
 30
0.0
 10
114.195860
 20
-36.429371
 30
0.0
  0
LWPOLYLINE
  5
20a
100
AcDbEntity
  8
0
 62
7
100
AcDbPolyline
 90
2
 70
0
 10
64.795400
 20
-90.930151
 30
0.0
 10
57.195720
 20
-90.930151
 30
0.0
  0
LWPOLYLINE
  5
20b
100
AcDbEntity
  8
0
 62
7
100
AcDbPolyline
 90
2
 70
0
 10
64.795400
 20
-86.929651
 30
0.0
 10
64.795400
 20
-90.930151
 30
0.0
  0
LWPOLYLINE
  5
20c
100
AcDbEntity
  8
0
 62
7
100
AcDbPolyline
 90
2
 70
0
 10
57.195720
 20
-86.929651
 30
0.0
 10
64.795400
 20
-86.929651
 30
0.0
  0
LWPOLYLINE
  5
20d
100
AcDbEntity
  8
0
 62
7
100
AcDbPolyline
 90
2
 70
0
 10
57.195720
 20
-90.930151
 30
0.0
 10
57.195720
 20
-86.929651
 30
0.0
  0
LWPOLYLINE
  5
20e
100
AcDbEntity
  8
0
 62
7
100
AcDbPolyline
 90
2
 70
0
 10
121.795540
 20
-59.429071
 30
0.0
 10
114.195860
 20
-59.429071
 30
0.0
  0
LWPOLYLINE
  5
20f
100
AcDbEntity
  8
0
 62
7
100
AcDbPolyline
 90
2
 70
0
 10
121.795540
 20
-55.428571
 30
0.0
 10
121.795540
 20
-59.429071
 30
0.0
  0
LWPOLYLINE
  5
210
100
AcDbEntity
  8
0
 62
7
100
AcDbPolyline
 90
2
 70
0
 10
114.195860
 20
-55.428571
 30
0.0
 10
121.795540
 20
-55.428571
 30
0.0
  0
LWPOLYLINE
  5
211
100
AcDbEntity
  8
0
 62
7
100
AcDbPolyline
 90
2
 70
0
 10
114.195860
 20
-59.429071
 30
0.0
 10
114.195860
 20
-55.428571
 30
0.0
  0
LWPOLYLINE
  5
212
100
AcDbEntity
  8
0
 62
7
100
AcDbPolyline
 90
2
 70
0
 10
64.795400
 20
-71.928411
 30
0.0
 10
57.195720
 20
-71.928411
 30
0.0
  0
LWPOLYLINE
  5
213
100
AcDbEntity
  8
0
 62
7
100
AcDbPolyline
 90
2
 70
0
 10
64.795400
 20
-67.927911
 30
0.0
 10
64.795400
 20
-71.928411
 30
0.0
  0
LWPOLYLINE
  5
214
100
AcDbEntity
  8
0
 62
7
100
AcDbPolyline
 90
2
 70
0
 10
57.195720
 20
-67.927911
 30
0.0
 10
64.795400
 20
-67.927911
 30
0.0
  0
LWPOLYLINE
  5
215
100
AcDbEntity
  8
0
 62
7
100
AcDbPolyline
 90
2
 70
0
 10
57.195720
 20
-71.928411
 30
0.0
 10
57.195720
 20
-67.927911
 30
0.0
  0
LWPOLYLINE
  5
216
100
AcDbEntity
  8
0
 62
7
100
AcDbPolyline
 90
2
 70
0
 10
121.795540
 20
-78.428271
 30
0.0
 10
114.195860
 20
-78.428271
 30
0.0
  0
LWPOLYLINE
  5
217
100
AcDbEntity
  8
0
 62
7
100
AcDbPolyline
 90
2
 70
0
 10
121.795540
 20
-74.430311
 30
0.0
 10
121.795540
 20
-78.428271
 30
0.0
  0
LWPOLYLINE
  5
218
100
AcDbEntity
  8
0
 62
7
100
AcDbPolyline
 90
2
 70
0
 10
114.195860
 20
-74.430311
 30
0.0
 10
121.795540
 20
-74.430311
 30
0.0
  0
LWPOLYLINE
  5
219
100
AcDbEntity
  8
0
 62
7
100
AcDbPolyline
 90
2
 70
0
 10
114.195860
 20
-78.428271
 30
0.0
 10
114.195860
 20
-74.430311
 30
0.0
  0
LWPOLYLINE
  5
21a
100
AcDbEntity
  8
0
 62
7
100
AcDbPolyline
 90
2
 70
0
 10
64.795400
 20
-52.929211
 30
0.0
 10
57.195720
 20
-52.929211
 30
0.0
  0
LWPOLYLINE
  5
21b
100
AcDbEntity
  8
0
 62
7
100
AcDbPolyline
 90
2
 70
0
 10
64.795400
 20
-48.928711
 30
0.0
 10
64.795400
 20
-52.929211
 30
0.0
  0
LWPOLYLINE
  5
21c
100
AcDbEntity
  8
0
 62
7
100
AcDbPolyline
 90
2
 70
0
 10
57.195720
 20
-48.928711
 30
0.0
 10
64.795400
 20
-48.928711
 30
0.0
  0
LWPOLYLINE
  5
21d
100
AcDbEntity
  8
0
 62
7
100
AcDbPolyline
 90
2
 70
0
 10
57.195720
 20
-52.929211
 30
0.0
 10
57.195720
 20
-48.928711
 30
0.0
  0
LWPOLYLINE
  5
21e
100
AcDbEntity
  8
0
 62
7
100
AcDbPolyline
 90
2
 70
0
 10
71.041260
 20
-113.241511
 30
0.0
 10
73.342500
 20
-113.241511
 30
0.0
  0
LWPOLYLINE
  5
21f
100
AcDbEntity
  8
0
 62
7
100
AcDbPolyline
 90
2
 70
0
 10
73.342500
 20
-108.539971
 30
0.0
 10
73.342500
 20
-113.241511
 30
0.0
  0
LWPOLYLINE
  5
220
100
AcDbEntity
  8
0
 62
7
100
AcDbPolyline
 90
2
 70
0
 10
71.041260
 20
-108.539971
 30
0.0
 10
73.342500
 20
-108.539971
 30
0.0
  0
LWPOLYLINE
  5
221
100
AcDbEntity
  8
0
 62
7
100
AcDbPolyline
 90
2
 70
0
 10
71.041260
 20
-113.241511
 30
0.0
 10
71.041260
 20
-108.539971
 30
0.0
  0
LWPOLYLINE
  5
222
100
AcDbEntity
  8
0
 62
7
100
AcDbPolyline
 90
2
 70
0
 10
74.739500
 20
-97.826251
 30
0.0
 10
92.240100
 20
-97.826251
 30
0.0
  0
LWPOLYLINE
  5
223
100
AcDbEntity
  8
0
 62
7
100
AcDbPolyline
 90
2
 70
0
 10
74.739500
 20
-97.826251
 30
0.0
 10
74.739500
 20
-112.024851
 30
0.0
  0
LWPOLYLINE
  5
224
100
AcDbEntity
  8
0
 62
7
100
AcDbPolyline
 90
2
 70
0
 10
92.240100
 20
-112.024851
 30
0.0
 10
92.240100
 20
-97.826251
 30
0.0
  0
LWPOLYLINE
  5
225
100
AcDbEntity
  8
0
 62
7
100
AcDbPolyline
 90
2
 70
0
 10
92.240100
 20
-112.024851
 30
0.0
 10
74.739500
 20
-112.024851
 30
0.0
  0
LWPOLYLINE
  5
226
100
AcDbEntity
  8
0
 62
7
100
AcDbPolyline
 90
2
 70
0
 10
154.881580
 20
-118.288491
 30
0.0
 10
154.096720
 20
-120.450031
 30
0.0
  0
LWPOLYLINE
  5
227
100
AcDbEntity
  8
0
 62
7
100
AcDbPolyline
 90
2
 70
0
 10
158.511240
 20
-122.055311
 30
0.0
 10
154.096720
 20
-120.450031
 30
0.0
  0
LWPOLYLINE
  5
228
100
AcDbEntity
  8
0
 62
7
100
AcDbPolyline
 90
2
 70
0
 10
159.298640
 20
-119.896311
 30
0.0
 10
158.511240
 20
-122.055311
 30
0.0
  0
LWPOLYLINE
  5
229
100
AcDbEntity
  8
0
 62
7
100
AcDbPolyline
 90
2
 70
0
 10
154.881580
 20
-118.288491
 30
0.0
 10
159.298640
 20
-119.896311
 30
0.0
  0
LWPOLYLINE
  5
22a
100
AcDbEntity
  8
0
 62
7
100
AcDbPolyline
 90
2
 70
0
 10
135.056880
 20
-91.527051
 30
0.0
 10
135.056880
 20
-93.825751
 30
0.0
  0
LWPOLYLINE
  5
22b
100
AcDbEntity
  8
0
 62
7
100
AcDbPolyline
 90
2
 70
0
 10
139.755880
 20
-93.825751
 30
0.0
 10
135.056880
 20
-93.825751
 30
0.0
  0
LWPOLYLINE
  5
22c
100
AcDbEntity
  8
0
 62
7
100
AcDbPolyline
 90
2
 70
0
 10
139.755880
 20
-91.527051
 30
0.0
 10
139.755880
 20
-93.825751
 30
0.0
  0
LWPOLYLINE
  5
22d
100
AcDbEntity
  8
0
 62
7
100
AcDbPolyline
 90
2
 70
0
 10
135.056880
 20
-91.527051
 30
0.0
 10
139.755880
 20
-91.527051
 30
0.0
  0
LWPOLYLINE
  5
22e
100
AcDbEntity
  8
0
 62
7
100
AcDbPolyline
 90
2
 70
0
 10
134.777480
 20
-72.527851
 30
0.0
 10
134.777480
 20
-74.826551
 30
0.0
  0
LWPOLYLINE
  5
22f
100
AcDbEntity
  8
0
 62
7
100
AcDbPolyline
 90
2
 70
0
 10
139.476480
 20
-74.826551
 30
0.0
 10
134.777480
 20
-74.826551
 30
0.0
  0
LWPOLYLINE
  5
230
100
AcDbEntity
  8
0
 62
7
100
AcDbPolyline
 90
2
 70
0
 10
139.476480
 20
-72.527851
 30
0.0
 10
139.476480
 20
-74.826551
 30
0.0
  0
LWPOLYLINE
  5
231
100
AcDbEntity
  8
0
 62
7
100
AcDbPolyline
 90
2
 70
0
 10
134.777480
 20
-72.527851
 30
0.0
 10
139.476480
 20
-72.527851
 30
0.0
  0
LWPOLYLINE
  5
232
100
AcDbEntity
  8
0
 62
7
100
AcDbPolyline
 90
2
 70
0
 10
134.752080
 20
-53.566751
 30
0.0
 10
134.752080
 20
-55.865451
 30
0.0
  0
LWPOLYLINE
  5
233
100
AcDbEntity
  8
0
 62
7
100
AcDbPolyline
 90
2
 70
0
 10
139.451080
 20
-55.865451
 30
0.0
 10
134.752080
 20
-55.865451
 30
0.0
  0
LWPOLYLINE
  5
234
100
AcDbEntity
  8
0
 62
7
100
AcDbPolyline
 90
2
 70
0
 10
139.451080
 20
-53.566751
 30
0.0
 10
139.451080
 20
-55.865451
 30
0.0
  0
LWPOLYLINE
  5
235
100
AcDbEntity
  8
0
 62
7
100
AcDbPolyline
 90
2
 70
0
 10
134.752080
 20
-53.566751
 30
0.0
 10
139.451080
 20
-53.566751
 30
0.0
  0
LWPOLYLINE
  5
236
100
AcDbEntity
  8
0
 62
7
100
AcDbPolyline
 90
2
 70
0
 10
144.741900
 20
-114.501351
 30
0.0
 10
147.007580
 20
-114.900131
 30
0.0
  0
LWPOLYLINE
  5
237
100
AcDbEntity
  8
0
 62
7
100
AcDbPolyline
 90
2
 70
0
 10
147.822920
 20
-110.272251
 30
0.0
 10
147.007580
 20
-114.900131
 30
0.0
  0
LWPOLYLINE
  5
238
100
AcDbEntity
  8
0
 62
7
100
AcDbPolyline
 90
2
 70
0
 10
145.559780
 20
-109.873471
 30
0.0
 10
147.822920
 20
-110.272251
 30
0.0
  0
LWPOLYLINE
  5
239
100
AcDbEntity
  8
0
 62
7
100
AcDbPolyline
 90
2
 70
0
 10
144.741900
 20
-114.501351
 30
0.0
 10
145.559780
 20
-109.873471
 30
0.0
  0
LWPOLYLINE
  5
23a
100
AcDbEntity
  8
0
 62
7
100
AcDbPolyline
 90
2
 70
0
 10
125.587760
 20
-88.080271
 30
0.0
 10
127.889000
 20
-88.080271
 30
0.0
  0
LWPOLYLINE
  5
23b
100
AcDbEntity
  8
0
 62
7
100
AcDbPolyline
 90
2
 70
0
 10
127.889000
 20
-83.378731
 30
0.0
 10
127.889000
 20
-88.080271
 30
0.0
  0
LWPOLYLINE
  5
23c
100
AcDbEntity
  8
0
 62
7
100
AcDbPolyline
 90
2
 70
0
 10
125.587760
 20
-83.378731
 30
0.0
 10
127.889000
 20
-83.378731
 30
0.0
  0
LWPOLYLINE
  5
23d
100
AcDbEntity
  8
0
 62
7
100
AcDbPolyline
 90
2
 70
0
 10
125.587760
 20
-88.080271
 30
0.0
 10
125.587760
 20
-83.378731
 30
0.0
  0
LWPOLYLINE
  5
23e
100
AcDbEntity
  8
0
 62
7
100
AcDbPolyline
 90
2
 70
0
 10
125.651260
 20
-69.131871
 30
0.0
 10
127.952500
 20
-69.131871
 30
0.0
  0
LWPOLYLINE
  5
23f
100
AcDbEntity
  8
0
 62
7
100
AcDbPolyline
 90
2
 70
0
 10
127.952500
 20
-64.430331
 30
0.0
 10
127.952500
 20
-69.131871
 30
0.0
  0
LWPOLYLINE
  5
240
100
AcDbEntity
  8
0
 62
7
100
AcDbPolyline
 90
2
 70
0
 10
125.651260
 20
-64.430331
 30
0.0
 10
127.952500
 20
-64.430331
 30
0.0
  0
LWPOLYLINE
  5
241
100
AcDbEntity
  8
0
 62
7
100
AcDbPolyline
 90
2
 70
0
 10
125.651260
 20
-69.131871
 30
0.0
 10
125.651260
 20
-64.430331
 30
0.0
  0
LWPOLYLINE
  5
242
100
AcDbEntity
  8
0
 62
7
100
AcDbPolyline
 90
2
 70
0
 10
125.575060
 20
-50.843871
 30
0.0
 10
127.876300
 20
-50.843871
 30
0.0
  0
LWPOLYLINE
  5
243
100
AcDbEntity
  8
0
 62
7
100
AcDbPolyline
 90
2
 70
0
 10
127.876300
 20
-46.142331
 30
0.0
 10
127.876300
 20
-50.843871
 30
0.0
  0
LWPOLYLINE
  5
244
100
AcDbEntity
  8
0
 62
7
100
AcDbPolyline
 90
2
 70
0
 10
125.575060
 20
-46.142331
 30
0.0
 10
127.876300
 20
-46.142331
 30
0.0
  0
LWPOLYLINE
  5
245
100
AcDbEntity
  8
0
 62
7
100
AcDbPolyline
 90
2
 70
0
 10
125.575060
 20
-50.843871
 30
0.0
 10
125.575060
 20
-46.142331
 30
0.0
  0
LWPOLYLINE
  5
246
100
AcDbEntity
  8
0
 62
7
100
AcDbPolyline
 90
2
 70
0
 10
125.575060
 20
-112.045171
 30
0.0
 10
127.876300
 20
-112.045171
 30
0.0
  0
LWPOLYLINE
  5
247
100
AcDbEntity
  8
0
 62
7
100
AcDbPolyline
 90
2
 70
0
 10
127.876300
 20
-107.343631
 30
0.0
 10
127.876300
 20
-112.045171
 30
0.0
  0
LWPOLYLINE
  5
248
100
AcDbEntity
  8
0
 62
7
100
AcDbPolyline
 90
2
 70
0
 10
125.575060
 20
-107.343631
 30
0.0
 10
127.876300
 20
-107.343631
 30
0.0
  0
LWPOLYLINE
  5
249
100
AcDbEntity
  8
0
 62
7
100
AcDbPolyline
 90
2
 70
0
 10
106.601260
 20
-83.051071
 30
0.0
 10
108.902500
 20
-83.051071
 30
0.0
  0
LWPOLYLINE
  5
24a
100
AcDbEntity
  8
0
 62
7
100
AcDbPolyline
 90
2
 70
0
 10
108.902500
 20
-78.349531
 30
0.0
 10
108.902500
 20
-83.051071
 30
0.0
  0
LWPOLYLINE
  5
24b
100
AcDbEntity
  8
0
 62
7
100
AcDbPolyline
 90
2
 70
0
 10
106.601260
 20
-78.349531
 30
0.0
 10
108.902500
 20
-78.349531
 30
0.0
  0
LWPOLYLINE
  5
24c
100
AcDbEntity
  8
0
 62
7
100
AcDbPolyline
 90
2
 70
0
 10
106.601260
 20
-83.051071
 30
0.0
 10
106.601260
 20
-78.349531
 30
0.0
  0
LWPOLYLINE
  5
24d
100
AcDbEntity
  8
0
 62
7
100
AcDbPolyline
 90
2
 70
0
 10
96.931480
 20
-65.034851
 30
0.0
 10
96.931480
 20
-67.333551
 30
0.0
  0
LWPOLYLINE
  5
24e
100
AcDbEntity
  8
0
 62
7
100
AcDbPolyline
 90
2
 70
0
 10
101.630480
 20
-67.333551
 30
0.0
 10
96.931480
 20
-67.333551
 30
0.0
  0
LWPOLYLINE
  5
24f
100
AcDbEntity
  8
0
 62
7
100
AcDbPolyline
 90
2
 70
0
 10
101.630480
 20
-65.034851
 30
0.0
 10
101.630480
 20
-67.333551
 30
0.0
  0
LWPOLYLINE
  5
250
100
AcDbEntity
  8
0
 62
7
100
AcDbPolyline
 90
2
 70
0
 10
96.931480
 20
-65.034851
 30
0.0
 10
101.630480
 20
-65.034851
 30
0.0
  0
LWPOLYLINE
  5
251
100
AcDbEntity
  8
0
 62
7
100
AcDbPolyline
 90
2
 70
0
 10
96.626680
 20
-45.934051
 30
0.0
 10
96.626680
 20
-48.232751
 30
0.0
  0
LWPOLYLINE
  5
252
100
AcDbEntity
  8
0
 62
7
100
AcDbPolyline
 90
2
 70
0
 10
101.325680
 20
-48.232751
 30
0.0
 10
96.626680
 20
-48.232751
 30
0.0
  0
LWPOLYLINE
  5
253
100
AcDbEntity
  8
0
 62
7
100
AcDbPolyline
 90
2
 70
0
 10
101.325680
 20
-45.934051
 30
0.0
 10
101.325680
 20
-48.232751
 30
0.0
  0
LWPOLYLINE
  5
254
100
AcDbEntity
  8
0
 62
7
100
AcDbPolyline
 90
2
 70
0
 10
96.626680
 20
-45.934051
 30
0.0
 10
101.325680
 20
-45.934051
 30
0.0
  0
LWPOLYLINE
  5
255
100
AcDbEntity
  8
0
 62
7
100
AcDbPolyline
 90
2
 70
0
 10
87.462360
 20
-88.054871
 30
0.0
 10
89.763600
 20
-88.054871
 30
0.0
  0
LWPOLYLINE
  5
256
100
AcDbEntity
  8
0
 62
7
100
AcDbPolyline
 90
2
 70
0
 10
89.763600
 20
-83.353331
 30
0.0
 10
89.763600
 20
-88.054871
 30
0.0
  0
LWPOLYLINE
  5
257
100
AcDbEntity
  8
0
 62
7
100
AcDbPolyline
 90
2
 70
0
 10
87.462360
 20
-83.353331
 30
0.0
 10
89.763600
 20
-83.353331
 30
0.0
  0
LWPOLYLINE
  5
258
100
AcDbEntity
  8
0
 62
7
100
AcDbPolyline
 90
2
 70
0
 10
87.462360
 20
-88.054871
 30
0.0
 10
87.462360
 20
-83.353331
 30
0.0
  0
LWPOLYLINE
  5
259
100
AcDbEntity
  8
0
 62
7
100
AcDbPolyline
 90
2
 70
0
 10
87.525860
 20
-69.042971
 30
0.0
 10
89.827100
 20
-69.042971
 30
0.0
  0
LWPOLYLINE
  5
25a
100
AcDbEntity
  8
0
 62
7
100
AcDbPolyline
 90
2
 70
0
 10
87.525860
 20
-64.341431
 30
0.0
 10
89.827100
 20
-64.341431
 30
0.0
  0
LWPOLYLINE
  5
25b
100
AcDbEntity
  8
0
 62
7
100
AcDbPolyline
 90
2
 70
0
 10
87.525860
 20
-69.042971
 30
0.0
 10
87.525860
 20
-64.341431
 30
0.0
  0
LWPOLYLINE
  5
25c
100
AcDbEntity
  8
0
 62
7
100
AcDbPolyline
 90
2
 70
0
 10
86.517480
 20
-53.300051
 30
0.0
 10
86.517480
 20
-51.001351
 30
0.0
  0
LWPOLYLINE
  5
25d
100
AcDbEntity
  8
0
 62
7
100
AcDbPolyline
 90
2
 70
0
 10
81.818480
 20
-51.001351
 30
0.0
 10
86.517480
 20
-51.001351
 30
0.0
  0
LWPOLYLINE
  5
25e
100
AcDbEntity
  8
0
 62
7
100
AcDbPolyline
 90
2
 70
0
 10
81.818480
 20
-53.300051
 30
0.0
 10
81.818480
 20
-51.001351
 30
0.0
  0
LWPOLYLINE
  5
25f
100
AcDbEntity
  8
0
 62
7
100
AcDbPolyline
 90
2
 70
0
 10
86.517480
 20
-53.300051
 30
0.0
 10
81.818480
 20
-53.300051
 30
0.0
  0
LWPOLYLINE
  5
260
100
AcDbEntity
  8
0
 62
7
100
AcDbPolyline
 90
2
 70
0
 10
68.628260
 20
-100.602471
 30
0.0
 10
70.929500
 20
-100.602471
 30
0.0
  0
LWPOLYLINE
  5
261
100
AcDbEntity
  8
0
 62
7
100
AcDbPolyline
 90
2
 70
0
 10
70.929500
 20
-95.900931
 30
0.0
 10
70.929500
 20
-100.602471
 30
0.0
  0
LWPOLYLINE
  5
262
100
AcDbEntity
  8
0
 62
7
100
AcDbPolyline
 90
2
 70
0
 10
68.628260
 20
-95.900931
 30
0.0
 10
70.929500
 20
-95.900931
 30
0.0
  0
LWPOLYLINE
  5
263
100
AcDbEntity
  8
0
 62
7
100
AcDbPolyline
 90
2
 70
0
 10
68.628260
 20
-100.602471
 30
0.0
 10
68.628260
 20
-95.900931
 30
0.0
  0
LWPOLYLINE
  5
264
100
AcDbEntity
  8
0
 62
7
100
AcDbPolyline
 90
2
 70
0
 10
68.526660
 20
-81.552471
 30
0.0
 10
70.827900
 20
-81.552471
 30
0.0
  0
LWPOLYLINE
  5
265
100
AcDbEntity
  8
0
 62
7
100
AcDbPolyline
 90
2
 70
0
 10
70.827900
 20
-76.850931
 30
0.0
 10
70.827900
 20
-81.552471
 30
0.0
  0
LWPOLYLINE
  5
266
100
AcDbEntity
  8
0
 62
7
100
AcDbPolyline
 90
2
 70
0
 10
68.526660
 20
-76.850931
 30
0.0
 10
70.827900
 20
-76.850931
 30
0.0
  0
LWPOLYLINE
  5
267
100
AcDbEntity
  8
0
 62
7
100
AcDbPolyline
 90
2
 70
0
 10
68.526660
 20
-81.552471
 30
0.0
 10
68.526660
 20
-76.850931
 30
0.0
  0
LWPOLYLINE
  5
268
100
AcDbEntity
  8
0
 62
7
100
AcDbPolyline
 90
2
 70
0
 10
68.513960
 20
-62.540571
 30
0.0
 10
70.815200
 20
-62.540571
 30
0.0
  0
LWPOLYLINE
  5
269
100
AcDbEntity
  8
0
 62
7
100
AcDbPolyline
 90
2
 70
0
 10
70.815200
 20
-57.839031
 30
0.0
 10
70.815200
 20
-62.540571
 30
0.0
  0
LWPOLYLINE
  5
26a
100
AcDbEntity
  8
0
 62
7
100
AcDbPolyline
 90
2
 70
0
 10
68.513960
 20
-57.839031
 30
0.0
 10
70.815200
 20
-57.839031
 30
0.0
  0
LWPOLYLINE
  5
26b
100
AcDbEntity
  8
0
 62
7
100
AcDbPolyline
 90
2
 70
0
 10
68.513960
 20
-62.540571
 30
0.0
 10
68.513960
 20
-57.839031
 30
0.0
  0
LWPOLYLINE
  5
26c
100
AcDbEntity
  8
0
 62
7
100
AcDbPolyline
 90
2
 70
0
 10
151.721820
 20
-85.474231
 30
0.0
 10
148.361400
 20
-85.474231
 30
0.0
  0
LWPOLYLINE
  5
26d
100
AcDbEntity
  8
0
 62
7
100
AcDbPolyline
 90
2
 70
0
 10
151.721820
 20
-83.574311
 30
0.0
 10
151.721820
 20
-85.474231
 30
0.0
  0
LWPOLYLINE
  5
26e
100
AcDbEntity
  8
0
 62
7
100
AcDbPolyline
 90
2
 70
0
 10
148.361400
 20
-83.574311
 30
0.0
 10
151.721820
 20
-83.574311
 30
0.0
  0
LWPOLYLINE
  5
26f
100
AcDbEntity
  8
0
 62
7
100
AcDbPolyline
 90
2
 70
0
 10
148.361400
 20
-85.474231
 30
0.0
 10
148.361400
 20
-83.574311
 30
0.0
  0
LWPOLYLINE
  5
270
100
AcDbEntity
  8
0
 62
7
100
AcDbPolyline
 90
2
 70
0
 10
47.896780
 20
-94.110231
 30
0.0
 10
34.096960
 20
-94.110231
 30
0.0
  0
LWPOLYLINE
  5
271
100
AcDbEntity
  8
0
 62
7
100
AcDbPolyline
 90
2
 70
0
 10
34.096960
 20
-107.910051
 30
0.0
 10
47.896780
 20
-107.910051
 30
0.0
  0
LWPOLYLINE
  5
272
100
AcDbEntity
  8
0
 62
7
100
AcDbPolyline
 90
2
 70
0
 10
34.096960
 20
-107.910051
 30
0.0
 10
34.096960
 20
-94.110231
 30
0.0
  0
LWPOLYLINE
  5
273
100
AcDbEntity
  8
0
 62
7
100
AcDbPolyline
 90
2
 70
0
 10
47.896780
 20
-94.110231
 30
0.0
 10
47.896780
 20
-107.910051
 30
0.0
  0
LWPOLYLINE
  5
274
100
AcDbEntity
  8
0
 62
7
100
AcDbPolyline
 90
2
 70
0
 10
47.896780
 20
-75.108491
 30
0.0
 10
34.096960
 20
-75.108491
 30
0.0
  0
LWPOLYLINE
  5
275
100
AcDbEntity
  8
0
 62
7
100
AcDbPolyline
 90
2
 70
0
 10
34.096960
 20
-88.908311
 30
0.0
 10
47.896780
 20
-88.908311
 30
0.0
  0
LWPOLYLINE
  5
276
100
AcDbEntity
  8
0
 62
7
100
AcDbPolyline
 90
2
 70
0
 10
34.096960
 20
-88.908311
 30
0.0
 10
34.096960
 20
-75.108491
 30
0.0
  0
LWPOLYLINE
  5
277
100
AcDbEntity
  8
0
 62
7
100
AcDbPolyline
 90
2
 70
0
 10
47.896780
 20
-75.108491
 30
0.0
 10
47.896780
 20
-88.908311
 30
0.0
  0
LWPOLYLINE
  5
278
100
AcDbEntity
  8
0
 62
7
100
AcDbPolyline
 90
2
 70
0
 10
47.896780
 20
-56.109291
 30
0.0
 10
34.096960
 20
-56.109291
 30
0.0
  0
LWPOLYLINE
  5
279
100
AcDbEntity
  8
0
 62
7
100
AcDbPolyline
 90
2
 70
0
 10
34.096960
 20
-69.909111
 30
0.0
 10
47.896780
 20
-69.909111
 30
0.0
  0
LWPOLYLINE
  5
27a
100
AcDbEntity
  8
0
 62
7
100
AcDbPolyline
 90
2
 70
0
 10
34.096960
 20
-69.909111
 30
0.0
 10
34.096960
 20
-56.109291
 30
0.0
  0
LWPOLYLINE
  5
27b
100
AcDbEntity
  8
0
 62
7
100
AcDbPolyline
 90
2
 70
0
 10
47.896780
 20
-56.109291
 30
0.0
 10
47.896780
 20
-69.909111
 30
0.0
  0
LWPOLYLINE
  5
27c
100
AcDbEntity
  8
0
 62
7
100
AcDbPolyline
 90
2
 70
0
 10
168.043860
 20
-108.651731
 30
0.0
 10
155.077160
 20
-103.929871
 30
0.0
  0
LWPOLYLINE
  5
27d
100
AcDbEntity
  8
0
 62
7
100
AcDbPolyline
 90
2
 70
0
 10
150.357840
 20
-116.899111
 30
0.0
 10
163.324540
 20
-121.618431
 30
0.0
  0
LWPOLYLINE
  5
27e
100
AcDbEntity
  8
0
 62
7
100
AcDbPolyline
 90
2
 70
0
 10
150.357840
 20
-116.899111
 30
0.0
 10
155.077160
 20
-103.929871
 30
0.0
  0
LWPOLYLINE
  5
27f
100
AcDbEntity
  8
0
 62
7
100
AcDbPolyline
 90
2
 70
0
 10
168.043860
 20
-108.651731
 30
0.0
 10
163.324540
 20
-121.618431
 30
0.0
  0
LWPOLYLINE
  5
280
100
AcDbEntity
  8
0
 62
7
100
AcDbPolyline
 90
2
 70
0
 10
146.908520
 20
-101.742931
 30
0.0
 10
133.319520
 20
-99.345171
 30
0.0
  0
LWPOLYLINE
  5
281
100
AcDbEntity
  8
0
 62
7
100
AcDbPolyline
 90
2
 70
0
 10
130.924300
 20
-112.936711
 30
0.0
 10
144.513300
 20
-115.331931
 30
0.0
  0
LWPOLYLINE
  5
282
100
AcDbEntity
  8
0
 62
7
100
AcDbPolyline
 90
2
 70
0
 10
130.924300
 20
-112.936711
 30
0.0
 10
133.319520
 20
-99.345171
 30
0.0
  0
LWPOLYLINE
  5
283
100
AcDbEntity
  8
0
 62
7
100
AcDbPolyline
 90
2
 70
0
 10
146.908520
 20
-101.742931
 30
0.0
 10
144.513300
 20
-115.331931
 30
0.0
  0
LWPOLYLINE
  5
284
100
AcDbEntity
  8
0
 62
7
100
AcDbPolyline
 90
2
 70
0
 10
143.896080
 20
-77.110011
 30
0.0
 10
130.096260
 20
-77.110011
 30
0.0
  0
LWPOLYLINE
  5
285
100
AcDbEntity
  8
0
 62
7
100
AcDbPolyline
 90
2
 70
0
 10
130.096260
 20
-90.909831
 30
0.0
 10
143.896080
 20
-90.909831
 30
0.0
  0
LWPOLYLINE
  5
286
100
AcDbEntity
  8
0
 62
7
100
AcDbPolyline
 90
2
 70
0
 10
130.096260
 20
-90.909831
 30
0.0
 10
130.096260
 20
-77.110011
 30
0.0
  0
LWPOLYLINE
  5
287
100
AcDbEntity
  8
0
 62
7
100
AcDbPolyline
 90
2
 70
0
 10
143.896080
 20
-77.110011
 30
0.0
 10
143.896080
 20
-90.909831
 30
0.0
  0
LWPOLYLINE
  5
288
100
AcDbEntity
  8
0
 62
7
100
AcDbPolyline
 90
2
 70
0
 10
124.896880
 20
-74.608111
 30
0.0
 10
111.097060
 20
-74.608111
 30
0.0
  0
LWPOLYLINE
  5
289
100
AcDbEntity
  8
0
 62
7
100
AcDbPolyline
 90
2
 70
0
 10
111.097060
 20
-88.407931
 30
0.0
 10
124.896880
 20
-88.407931
 30
0.0
  0
LWPOLYLINE
  5
28a
100
AcDbEntity
  8
0
 62
7
100
AcDbPolyline
 90
2
 70
0
 10
111.097060
 20
-88.407931
 30
0.0
 10
111.097060
 20
-74.608111
 30
0.0
  0
LWPOLYLINE
  5
28b
100
AcDbEntity
  8
0
 62
7
100
AcDbPolyline
 90
2
 70
0
 10
124.896880
 20
-74.608111
 30
0.0
 10
124.896880
 20
-88.407931
 30
0.0
  0
LWPOLYLINE
  5
28c
100
AcDbEntity
  8
0
 62
7
100
AcDbPolyline
 90
2
 70
0
 10
105.895140
 20
-69.609391
 30
0.0
 10
92.095320
 20
-69.609391
 30
0.0
  0
LWPOLYLINE
  5
28d
100
AcDbEntity
  8
0
 62
7
100
AcDbPolyline
 90
2
 70
0
 10
92.095320
 20
-83.409211
 30
0.0
 10
105.895140
 20
-83.409211
 30
0.0
  0
LWPOLYLINE
  5
28e
100
AcDbEntity
  8
0
 62
7
100
AcDbPolyline
 90
2
 70
0
 10
92.095320
 20
-83.409211
 30
0.0
 10
92.095320
 20
-69.609391
 30
0.0
  0
LWPOLYLINE
  5
28f
100
AcDbEntity
  8
0
 62
7
100
AcDbPolyline
 90
2
 70
0
 10
105.895140
 20
-69.609391
 30
0.0
 10
105.895140
 20
-83.409211
 30
0.0
  0
LWPOLYLINE
  5
290
100
AcDbEntity
  8
0
 62
7
100
AcDbPolyline
 90
2
 70
0
 10
86.895940
 20
-74.608111
 30
0.0
 10
73.096120
 20
-74.608111
 30
0.0
  0
LWPOLYLINE
  5
291
100
AcDbEntity
  8
0
 62
7
100
AcDbPolyline
 90
2
 70
0
 10
73.096120
 20
-88.407931
 30
0.0
 10
86.895940
 20
-88.407931
 30
0.0
  0
LWPOLYLINE
  5
292
100
AcDbEntity
  8
0
 62
7
100
AcDbPolyline
 90
2
 70
0
 10
73.096120
 20
-88.407931
 30
0.0
 10
73.096120
 20
-74.608111
 30
0.0
  0
LWPOLYLINE
  5
293
100
AcDbEntity
  8
0
 62
7
100
AcDbPolyline
 90
2
 70
0
 10
86.895940
 20
-74.608111
 30
0.0
 10
86.895940
 20
-88.407931
 30
0.0
  0
LWPOLYLINE
  5
294
100
AcDbEntity
  8
0
 62
7
100
AcDbPolyline
 90
2
 70
0
 10
67.896740
 20
-87.109991
 30
0.0
 10
54.096920
 20
-87.109991
 30
0.0
  0
LWPOLYLINE
  5
295
100
AcDbEntity
  8
0
 62
7
100
AcDbPolyline
 90
2
 70
0
 10
54.096920
 20
-100.909811
 30
0.0
 10
67.896740
 20
-100.909811
 30
0.0
  0
LWPOLYLINE
  5
296
100
AcDbEntity
  8
0
 62
7
100
AcDbPolyline
 90
2
 70
0
 10
54.096920
 20
-100.909811
 30
0.0
 10
54.096920
 20
-87.109991
 30
0.0
  0
LWPOLYLINE
  5
297
100
AcDbEntity
  8
0
 62
7
100
AcDbPolyline
 90
2
 70
0
 10
67.896740
 20
-87.109991
 30
0.0
 10
67.896740
 20
-100.909811
 30
0.0
  0
LWPOLYLINE
  5
298
100
AcDbEntity
  8
0
 62
7
100
AcDbPolyline
 90
2
 70
0
 10
143.896080
 20
-58.108271
 30
0.0
 10
130.096260
 20
-58.108271
 30
0.0
  0
LWPOLYLINE
  5
299
100
AcDbEntity
  8
0
 62
7
100
AcDbPolyline
 90
2
 70
0
 10
130.096260
 20
-71.908091
 30
0.0
 10
143.896080
 20
-71.908091
 30
0.0
  0
LWPOLYLINE
  5
29a
100
AcDbEntity
  8
0
 62
7
100
AcDbPolyline
 90
2
 70
0
 10
130.096260
 20
-71.908091
 30
0.0
 10
130.096260
 20
-58.108271
 30
0.0
  0
LWPOLYLINE
  5
29b
100
AcDbEntity
  8
0
 62
7
100
AcDbPolyline
 90
2
 70
0
 10
143.896080
 20
-58.108271
 30
0.0
 10
143.896080
 20
-71.908091
 30
0.0
  0
LWPOLYLINE
  5
29c
100
AcDbEntity
  8
0
 62
7
100
AcDbPolyline
 90
2
 70
0
 10
124.896880
 20
-55.608911
 30
0.0
 10
111.097060
 20
-55.608911
 30
0.0
  0
LWPOLYLINE
  5
29d
100
AcDbEntity
  8
0
 62
7
100
AcDbPolyline
 90
2
 70
0
 10
111.097060
 20
-69.408731
 30
0.0
 10
124.896880
 20
-69.408731
 30
0.0
  0
LWPOLYLINE
  5
29e
100
AcDbEntity
  8
0
 62
7
100
AcDbPolyline
 90
2
 70
0
 10
111.097060
 20
-69.408731
 30
0.0
 10
111.097060
 20
-55.608911
 30
0.0
  0
LWPOLYLINE
  5
29f
100
AcDbEntity
  8
0
 62
7
100
AcDbPolyline
 90
2
 70
0
 10
124.896880
 20
-55.608911
 30
0.0
 10
124.896880
 20
-69.408731
 30
0.0
  0
LWPOLYLINE
  5
2a0
100
AcDbEntity
  8
0
 62
7
100
AcDbPolyline
 90
2
 70
0
 10
105.895140
 20
-50.610191
 30
0.0
 10
92.095320
 20
-50.610191
 30
0.0
  0
LWPOLYLINE
  5
2a1
100
AcDbEntity
  8
0
 62
7
100
AcDbPolyline
 90
2
 70
0
 10
92.095320
 20
-64.410011
 30
0.0
 10
105.895140
 20
-64.410011
 30
0.0
  0
LWPOLYLINE
  5
2a2
100
AcDbEntity
  8
0
 62
7
100
AcDbPolyline
 90
2
 70
0
 10
92.095320
 20
-64.410011
 30
0.0
 10
92.095320
 20
-50.610191
 30
0.0
  0
LWPOLYLINE
  5
2a3
100
AcDbEntity
  8
0
 62
7
100
AcDbPolyline
 90
2
 70
0
 10
105.895140
 20
-50.610191
 30
0.0
 10
105.895140
 20
-64.410011
 30
0.0
  0
LWPOLYLINE
  5
2a4
100
AcDbEntity
  8
0
 62
7
100
AcDbPolyline
 90
2
 70
0
 10
86.895940
 20
-55.608911
 30
0.0
 10
73.096120
 20
-55.608911
 30
0.0
  0
LWPOLYLINE
  5
2a5
100
AcDbEntity
  8
0
 62
7
100
AcDbPolyline
 90
2
 70
0
 10
73.096120
 20
-69.408731
 30
0.0
 10
86.895940
 20
-69.408731
 30
0.0
  0
LWPOLYLINE
  5
2a6
100
AcDbEntity
  8
0
 62
7
100
AcDbPolyline
 90
2
 70
0
 10
73.096120
 20
-69.408731
 30
0.0
 10
73.096120
 20
-55.608911
 30
0.0
  0
LWPOLYLINE
  5
2a7
100
AcDbEntity
  8
0
 62
7
100
AcDbPolyline
 90
2
 70
0
 10
86.895940
 20
-55.608911
 30
0.0
 10
86.895940
 20
-69.408731
 30
0.0
  0
LWPOLYLINE
  5
2a8
100
AcDbEntity
  8
0
 62
7
100
AcDbPolyline
 90
2
 70
0
 10
67.896740
 20
-68.108251
 30
0.0
 10
54.096920
 20
-68.108251
 30
0.0
  0
LWPOLYLINE
  5
2a9
100
AcDbEntity
  8
0
 62
7
100
AcDbPolyline
 90
2
 70
0
 10
54.096920
 20
-81.908071
 30
0.0
 10
67.896740
 20
-81.908071
 30
0.0
  0
LWPOLYLINE
  5
2aa
100
AcDbEntity
  8
0
 62
7
100
AcDbPolyline
 90
2
 70
0
 10
54.096920
 20
-81.908071
 30
0.0
 10
54.096920
 20
-68.108251
 30
0.0
  0
LWPOLYLINE
  5
2ab
100
AcDbEntity
  8
0
 62
7
100
AcDbPolyline
 90
2
 70
0
 10
67.896740
 20
-68.108251
 30
0.0
 10
67.896740
 20
-81.908071
 30
0.0
  0
LWPOLYLINE
  5
2ac
100
AcDbEntity
  8
0
 62
7
100
AcDbPolyline
 90
2
 70
0
 10
124.896880
 20
-98.608571
 30
0.0
 10
111.097060
 20
-98.608571
 30
0.0
  0
LWPOLYLINE
  5
2ad
100
AcDbEntity
  8
0
 62
7
100
AcDbPolyline
 90
2
 70
0
 10
111.097060
 20
-112.408391
 30
0.0
 10
124.896880
 20
-112.408391
 30
0.0
  0
LWPOLYLINE
  5
2ae
100
AcDbEntity
  8
0
 62
7
100
AcDbPolyline
 90
2
 70
0
 10
111.097060
 20
-112.408391
 30
0.0
 10
111.097060
 20
-98.608571
 30
0.0
  0
LWPOLYLINE
  5
2af
100
AcDbEntity
  8
0
 62
7
100
AcDbPolyline
 90
2
 70
0
 10
124.896880
 20
-98.608571
 30
0.0
 10
124.896880
 20
-112.408391
 30
0.0
  0
LWPOLYLINE
  5
2b0
100
AcDbEntity
  8
0
 62
7
100
AcDbPolyline
 90
2
 70
0
 10
143.896080
 20
-39.109071
 30
0.0
 10
130.096260
 20
-39.109071
 30
0.0
  0
LWPOLYLINE
  5
2b1
100
AcDbEntity
  8
0
 62
7
100
AcDbPolyline
 90
2
 70
0
 10
130.096260
 20
-52.908891
 30
0.0
 10
143.896080
 20
-52.908891
 30
0.0
  0
LWPOLYLINE
  5
2b2
100
AcDbEntity
  8
0
 62
7
100
AcDbPolyline
 90
2
 70
0
 10
130.096260
 20
-52.908891
 30
0.0
 10
130.096260
 20
-39.109071
 30
0.0
  0
LWPOLYLINE
  5
2b3
100
AcDbEntity
  8
0
 62
7
100
AcDbPolyline
 90
2
 70
0
 10
143.896080
 20
-39.109071
 30
0.0
 10
143.896080
 20
-52.908891
 30
0.0
  0
LWPOLYLINE
  5
2b4
100
AcDbEntity
  8
0
 62
7
100
AcDbPolyline
 90
2
 70
0
 10
124.896880
 20
-36.609711
 30
0.0
 10
111.097060
 20
-36.609711
 30
0.0
  0
LWPOLYLINE
  5
2b5
100
AcDbEntity
  8
0
 62
7
100
AcDbPolyline
 90
2
 70
0
 10
111.097060
 20
-50.409531
 30
0.0
 10
124.896880
 20
-50.409531
 30
0.0
  0
LWPOLYLINE
  5
2b6
100
AcDbEntity
  8
0
 62
7
100
AcDbPolyline
 90
2
 70
0
 10
111.097060
 20
-50.409531
 30
0.0
 10
111.097060
 20
-36.609711
 30
0.0
  0
LWPOLYLINE
  5
2b7
100
AcDbEntity
  8
0
 62
7
100
AcDbPolyline
 90
2
 70
0
 10
124.896880
 20
-36.609711
 30
0.0
 10
124.896880
 20
-50.409531
 30
0.0
  0
LWPOLYLINE
  5
2b8
100
AcDbEntity
  8
0
 62
7
100
AcDbPolyline
 90
2
 70
0
 10
105.895140
 20
-31.608451
 30
0.0
 10
92.095320
 20
-31.608451
 30
0.0
  0
LWPOLYLINE
  5
2b9
100
AcDbEntity
  8
0
 62
7
100
AcDbPolyline
 90
2
 70
0
 10
92.095320
 20
-45.408271
 30
0.0
 10
105.895140
 20
-45.408271
 30
0.0
  0
LWPOLYLINE
  5
2ba
100
AcDbEntity
  8
0
 62
7
100
AcDbPolyline
 90
2
 70
0
 10
92.095320
 20
-45.408271
 30
0.0
 10
92.095320
 20
-31.608451
 30
0.0
  0
LWPOLYLINE
  5
2bb
100
AcDbEntity
  8
0
 62
7
100
AcDbPolyline
 90
2
 70
0
 10
105.895140
 20
-31.608451
 30
0.0
 10
105.895140
 20
-45.408271
 30
0.0
  0
LWPOLYLINE
  5
2bc
100
AcDbEntity
  8
0
 62
7
100
AcDbPolyline
 90
2
 70
0
 10
86.895940
 20
-36.609711
 30
0.0
 10
73.096120
 20
-36.609711
 30
0.0
  0
LWPOLYLINE
  5
2bd
100
AcDbEntity
  8
0
 62
7
100
AcDbPolyline
 90
2
 70
0
 10
73.096120
 20
-50.409531
 30
0.0
 10
86.895940
 20
-50.409531
 30
0.0
  0
LWPOLYLINE
  5
2be
100
AcDbEntity
  8
0
 62
7
100
AcDbPolyline
 90
2
 70
0
 10
73.096120
 20
-50.409531
 30
0.0
 10
73.096120
 20
-36.609711
 30
0.0
  0
LWPOLYLINE
  5
2bf
100
AcDbEntity
  8
0
 62
7
100
AcDbPolyline
 90
2
 70
0
 10
86.895940
 20
-36.609711
 30
0.0
 10
86.895940
 20
-50.409531
 30
0.0
  0
LWPOLYLINE
  5
2c0
100
AcDbEntity
  8
0
 62
7
100
AcDbPolyline
 90
2
 70
0
 10
67.896740
 20
-49.109051
 30
0.0
 10
54.096920
 20
-49.109051
 30
0.0
  0
LWPOLYLINE
  5
2c1
100
AcDbEntity
  8
0
 62
7
100
AcDbPolyline
 90
2
 70
0
 10
54.096920
 20
-62.908871
 30
0.0
 10
67.896740
 20
-62.908871
 30
0.0
  0
LWPOLYLINE
  5
2c2
100
AcDbEntity
  8
0
 62
7
100
AcDbPolyline
 90
2
 70
0
 10
54.096920
 20
-62.908871
 30
0.0
 10
54.096920
 20
-49.109051
 30
0.0
  0
LWPOLYLINE
  5
2c3
100
AcDbEntity
  8
0
 62
7
100
AcDbPolyline
 90
2
 70
0
 10
67.896740
 20
-49.109051
 30
0.0
 10
67.896740
 20
-62.908871
 30
0.0
  0
LWPOLYLINE
  5
2c4
100
AcDbEntity
  8
0
 62
7
100
AcDbPolyline
 90
2
 70
0
 10
51.468020
 20
-79.919251
 30
0.0
 10
50.454560
 20
-79.919251
 30
0.0
  0
LWPOLYLINE
  5
2c5
100
AcDbEntity
  8
0
 62
7
100
AcDbPolyline
 90
2
 70
0
 10
51.475640
 20
-64.717351
 30
0.0
 10
50.469800
 20
-64.717351
 30
0.0
  0
LWPOLYLINE
  5
2c6
100
AcDbEntity
  8
0
 62
7
100
AcDbPolyline
 90
2
 70
0
 10
50.454560
 20
-79.919251
 30
0.0
 10
50.469800
 20
-64.717351
 30
0.0
  0
LWPOLYLINE
  5
2c7
100
AcDbEntity
  8
0
 62
7
100
AcDbPolyline
 90
2
 70
0
 10
51.493420
 20
-98.839711
 30
0.0
 10
50.477420
 20
-98.839711
 30
0.0
  0
LWPOLYLINE
  5
2c8
100
AcDbEntity
  8
0
 62
7
100
AcDbPolyline
 90
2
 70
0
 10
51.455320
 20
-84.961151
 30
0.0
 10
50.462180
 20
-84.961151
 30
0.0
  0
LWPOLYLINE
  5
2c9
100
AcDbEntity
  8
0
 62
7
100
AcDbPolyline
 90
2
 70
0
 10
127.462280
 20
-36.508111
 30
0.0
 10
151.452580
 20
-36.505571
 30
0.0
  0
LWPOLYLINE
  5
2ca
100
AcDbEntity
  8
0
 62
7
100
AcDbPolyline
 90
2
 70
0
 10
51.468020
 20
-79.919251
 30
0.0
 10
51.475640
 20
-64.717351
 30
0.0
  0
LWPOLYLINE
  5
2cb
100
AcDbEntity
  8
0
 62
7
100
AcDbPolyline
 90
2
 70
0
 10
51.493420
 20
-98.839711
 30
0.0
 10
51.455320
 20
-84.961151
 30
0.0
  0
LWPOLYLINE
  5
2cc
100
AcDbEntity
  8
0
 62
7
100
AcDbPolyline
 90
8
 70
0
 10
52.105560
 20
-114.425151
 30
0.0
 10
51.927760
 20
-114.221951
 30
0.0
 10
51.775360
 20
-114.000971
 30
0.0
 10
51.653440
 20
-113.762211
 30
0.0
 10
51.559460
 20
-113.513291
 30
0.0
 10
51.495960
 20
-113.251671
 30
0.0
 10
51.468020
 20
-112.984971
 30
0.0
 10
51.465480
 20
-112.875751
 30
0.0
  0
LWPOLYLINE
  5
2cd
100
AcDbEntity
  8
0
 62
7
100
AcDbPolyline
 90
8
 70
0
 10
50.472340
 20
-112.878291
 30
0.0
 10
50.454560
 20
-113.150071
 30
0.0
 10
50.403760
 20
-113.416771
 30
0.0
 10
50.322480
 20
-113.673311
 30
0.0
 10
50.210720
 20
-113.919691
 30
0.0
 10
50.068480
 20
-114.150831
 30
0.0
 10
49.898300
 20
-114.361651
 30
0.0
 10
49.822100
 20
-114.442931
 30
0.0
  0
LWPOLYLINE
  5
2ce
100
AcDbEntity
  8
0
 62
7
100
AcDbPolyline
 90
2
 70
0
 10
51.465480
 20
-103.962891
 30
0.0
 10
50.472340
 20
-103.962891
 30
0.0
  0
LWPOLYLINE
  5
2cf
100
AcDbEntity
  8
0
 62
7
100
AcDbPolyline
 90
2
 70
0
 10
50.477420
 20
-98.839711
 30
0.0
 10
50.462180
 20
-84.961151
 30
0.0
  0
LWPOLYLINE
  5
2d0
100
AcDbEntity
  8
0
 62
7
100
AcDbPolyline
 90
14
 70
0
 10
33.975040
 20
-115.080471
 30
0.0
 10
33.713420
 20
-115.067771
 30
0.0
 10
33.459420
 20
-115.029671
 30
0.0
 10
33.215580
 20
-114.966171
 30
0.0
 10
32.979360
 20
-114.879811
 30
0.0
 10
32.649160
 20
-114.709631
 30
0.0
 10
32.346900
 20
-114.496271
 30
0.0
 10
32.082740
 20
-114.242271
 30
0.0
 10
31.854140
 20
-113.952711
 30
0.0
 10
31.668720
 20
-113.630131
 30
0.0
 10
31.531560
 20
-113.282151
 30
0.0
 10
31.468060
 20
-113.035771
 30
0.0
 10
31.429960
 20
-112.781771
 30
0.0
 10
31.417260
 20
-112.520151
 30
0.0
  0
LWPOLYLINE
  5
2d1
100
AcDbEntity
  8
0
 62
7
100
AcDbPolyline
 90
2
 70
0
 10
162.412680
 20
-124.110171
 30
0.0
 10
146.982180
 20
-118.491691
 30
0.0
  0
LWPOLYLINE
  5
2d2
100
AcDbEntity
  8
0
 62
7
100
AcDbPolyline
 90
2
 70
0
 10
50.472340
 20
-103.962891
 30
0.0
 10
50.472340
 20
-112.878291
 30
0.0
  0
LWPOLYLINE
  5
2d3
100
AcDbEntity
  8
0
 62
7
100
AcDbPolyline
 90
2
 70
0
 10
146.982180
 20
-118.491691
 30
0.0
 10
127.510540
 20
-115.060151
 30
0.0
  0
LWPOLYLINE
  5
2d4
100
AcDbEntity
  8
0
 62
7
100
AcDbPolyline
 90
2
 70
0
 10
31.417260
 20
-112.520151
 30
0.0
 10
31.419800
 20
-55.979751
 30
0.0
  0
LWPOLYLINE
  5
2d5
100
AcDbEntity
  8
0
 62
7
100
AcDbPolyline
 90
2
 70
0
 10
127.510540
 20
-115.060151
 30
0.0
 10
53.654960
 20
-115.065231
 30
0.0
  0
LWPOLYLINE
  5
2d6
100
AcDbEntity
  8
0
 62
7
100
AcDbPolyline
 90
2
 70
0
 10
51.465480
 20
-112.875751
 30
0.0
 10
51.465480
 20
-103.962891
 30
0.0
  0
LWPOLYLINE
  5
2d7
100
AcDbEntity
  8
0
 62
7
100
AcDbPolyline
 90
8
 70
0
 10
48.183800
 20
-53.437211
 30
0.0
 10
48.465740
 20
-53.454991
 30
0.0
 10
48.740060
 20
-53.505791
 30
0.0
 10
49.006760
 20
-53.589611
 30
0.0
 10
49.258220
 20
-53.703911
 30
0.0
 10
49.496980
 20
-53.851231
 30
0.0
 10
49.717960
 20
-54.026491
 30
0.0
 10
49.799240
 20
-54.102691
 30
0.0
  0
LWPOLYLINE
  5
2d8
100
AcDbEntity
  8
0
 62
7
100
AcDbPolyline
 90
9
 70
0
 10
49.822100
 20
-114.442931
 30
0.0
 10
49.618900
 20
-114.623271
 30
0.0
 10
49.395380
 20
-114.775671
 30
0.0
 10
49.154080
 20
-114.900131
 30
0.0
 10
48.902620
 20
-114.994111
 30
0.0
 10
48.638460
 20
-115.057611
 30
0.0
 10
48.369220
 20
-115.085551
 30
0.0
 10
48.257460
 20
-115.090631
 30
0.0
 10
33.975040
 20
-115.080471
 30
0.0
  0
LWPOLYLINE
  5
2d9
100
AcDbEntity
  8
0
 62
7
100
AcDbPolyline
 90
13
 70
0
 10
31.419800
 20
-55.979751
 30
0.0
 10
31.435040
 20
-55.723211
 30
0.0
 10
31.473140
 20
-55.474291
 30
0.0
 10
31.572200
 20
-55.118691
 30
0.0
 10
31.724600
 20
-54.785951
 30
0.0
 10
31.917640
 20
-54.478611
 30
0.0
 10
32.153860
 20
-54.206831
 30
0.0
 10
32.428180
 20
-53.970611
 30
0.0
 10
32.732980
 20
-53.775031
 30
0.0
 10
33.065720
 20
-53.622631
 30
0.0
 10
33.421320
 20
-53.521031
 30
0.0
 10
33.670240
 20
-53.482931
 30
0.0
 10
33.926780
 20
-53.467691
 30
0.0
  0
LWPOLYLINE
  5
2da
100
AcDbEntity
  8
0
 62
7
100
AcDbPolyline
 90
8
 70
0
 10
53.654960
 20
-115.065231
 30
0.0
 10
53.385720
 20
-115.049991
 30
0.0
 10
53.121560
 20
-114.999191
 30
0.0
 10
52.867560
 20
-114.920451
 30
0.0
 10
52.623720
 20
-114.808691
 30
0.0
 10
52.395120
 20
-114.668991
 30
0.0
 10
52.184300
 20
-114.498811
 30
0.0
 10
52.105560
 20
-114.425151
 30
0.0
  0
LWPOLYLINE
  5
2db
100
AcDbEntity
  8
0
 62
7
100
AcDbPolyline
 90
2
 70
0
 10
89.509600
 20
-34.008751
 30
0.0
 10
89.481660
 20
-31.313811
 30
0.0
  0
LWPOLYLINE
  5
2dc
100
AcDbEntity
  8
0
 62
7
100
AcDbPolyline
 90
2
 70
0
 10
70.510400
 20
-46.508091
 30
0.0
 10
70.469760
 20
-36.266811
 30
0.0
  0
LWPOLYLINE
  5
2dd
100
AcDbEntity
  8
0
 62
7
100
AcDbPolyline
 90
8
 70
0
 10
106.004360
 20
-29.007491
 30
0.0
 10
106.311700
 20
-29.027811
 30
0.0
 10
106.611420
 20
-29.083691
 30
0.0
 10
106.903520
 20
-29.177671
 30
0.0
 10
107.180380
 20
-29.304671
 30
0.0
 10
107.439460
 20
-29.464691
 30
0.0
 10
107.678220
 20
-29.657731
 30
0.0
 10
107.767120
 20
-29.744091
 30
0.0
  0
LWPOLYLINE
  5
2de
100
AcDbEntity
  8
0
 62
7
100
AcDbPolyline
 90
2
 70
0
 10
51.457860
 20
-60.391731
 30
0.0
 10
51.460400
 20
-48.664551
 30
0.0
  0
LWPOLYLINE
  5
2df
100
AcDbEntity
  8
0
 62
7
100
AcDbPolyline
 90
8
 70
0
 10
126.761240
 20
-34.745351
 30
0.0
 10
126.961900
 20
-34.976491
 30
0.0
 10
127.129540
 20
-35.230491
 30
0.0
 10
127.264160
 20
-35.502271
 30
0.0
 10
127.365760
 20
-35.786751
 30
0.0
 10
127.431800
 20
-36.083931
 30
0.0
 10
127.459740
 20
-36.386191
 30
0.0
 10
127.459740
 20
-36.510651
 30
0.0
  0
LWPOLYLINE
  5
2e0
100
AcDbEntity
  8
0
 62
7
100
AcDbPolyline
 90
2
 70
0
 10
72.720200
 20
-34.008751
 30
0.0
 10
89.509600
 20
-34.008751
 30
0.0
  0
LWPOLYLINE
  5
2e1
100
AcDbEntity
  8
0
 62
7
100
AcDbPolyline
 90
8
 70
0
 10
71.125080
 20
-34.671691
 30
0.0
 10
71.333360
 20
-34.486271
 30
0.0
 10
71.561960
 20
-34.331331
 30
0.0
 10
71.805800
 20
-34.204331
 30
0.0
 10
72.064880
 20
-34.107811
 30
0.0
 10
72.331580
 20
-34.044311
 30
0.0
 10
72.608440
 20
-34.011291
 30
0.0
 10
72.720200
 20
-34.008751
 30
0.0
  0
LWPOLYLINE
  5
2e2
100
AcDbEntity
  8
0
 62
7
100
AcDbPolyline
 90
8
 70
0
 10
49.799240
 20
-54.102691
 30
0.0
 10
49.987200
 20
-54.316051
 30
0.0
 10
50.144680
 20
-54.544651
 30
0.0
 10
50.274220
 20
-54.793571
 30
0.0
 10
50.370740
 20
-55.055191
 30
0.0
 10
50.434240
 20
-55.326971
 30
0.0
 10
50.467260
 20
-55.606371
 30
0.0
 10
50.469800
 20
-55.718131
 30
0.0
  0
LWPOLYLINE
  5
2e3
100
AcDbEntity
  8
0
 62
7
100
AcDbPolyline
 90
2
 70
0
 10
50.469800
 20
-60.391731
 30
0.0
 10
51.457860
 20
-60.391731
 30
0.0
  0
LWPOLYLINE
  5
2e4
100
AcDbEntity
  8
0
 62
7
100
AcDbPolyline
 90
2
 70
0
 10
91.765120
 20
-29.007491
 30
0.0
 10
106.004360
 20
-29.007491
 30
0.0
  0
LWPOLYLINE
  5
2e5
100
AcDbEntity
  8
0
 62
7
100
AcDbPolyline
 90
12
 70
0
 10
51.460400
 20
-48.664551
 30
0.0
 10
51.483260
 20
-48.336891
 30
0.0
 10
51.556920
 20
-48.024471
 30
0.0
 10
51.671220
 20
-47.729831
 30
0.0
 10
51.828700
 20
-47.460591
 30
0.0
 10
52.019200
 20
-47.216751
 30
0.0
 10
52.245260
 20
-47.000851
 30
0.0
 10
52.496720
 20
-46.820511
 30
0.0
 10
52.776120
 20
-46.678271
 30
0.0
 10
53.075840
 20
-46.576671
 30
0.0
 10
53.395880
 20
-46.520791
 30
0.0
 10
53.616860
 20
-46.508091
 30
0.0
  0
LWPOLYLINE
  5
2e6
100
AcDbEntity
  8
0
 62
7
100
AcDbPolyline
 90
2
 70
0
 10
33.926780
 20
-53.467691
 30
0.0
 10
48.183800
 20
-53.437211
 30
0.0
  0
LWPOLYLINE
  5
2e7
100
AcDbEntity
  8
0
 62
7
100
AcDbPolyline
 90
2
 70
0
 10
50.469800
 20
-55.718131
 30
0.0
 10
50.469800
 20
-60.391731
 30
0.0
  0
LWPOLYLINE
  5
2e8
100
AcDbEntity
  8
0
 62
7
100
AcDbPolyline
 90
2
 70
0
 10
108.485940
 20
-31.514471
 30
0.0
 10
108.460540
 20
-34.011291
 30
0.0
  0
LWPOLYLINE
  5
2e9
100
AcDbEntity
  8
0
 62
7
100
AcDbPolyline
 90
8
 70
0
 10
125.008640
 20
-34.008751
 30
0.0
 10
125.315980
 20
-34.029071
 30
0.0
 10
125.615700
 20
-34.084951
 30
0.0
 10
125.902720
 20
-34.178931
 30
0.0
 10
126.177040
 20
-34.305931
 30
0.0
 10
126.433580
 20
-34.465951
 30
0.0
 10
126.672340
 20
-34.658991
 30
0.0
 10
126.761240
 20
-34.745351
 30
0.0
  0
LWPOLYLINE
  5
2ea
100
AcDbEntity
  8
0
 62
7
100
AcDbPolyline
 90
8
 70
0
 10
107.767120
 20
-29.744091
 30
0.0
 10
107.970320
 20
-29.975231
 30
0.0
 10
108.140500
 20
-30.229231
 30
0.0
 10
108.280200
 20
-30.501011
 30
0.0
 10
108.384340
 20
-30.788031
 30
0.0
 10
108.452920
 20
-31.085211
 30
0.0
 10
108.483400
 20
-31.390011
 30
0.0
 10
108.485940
 20
-31.514471
 30
0.0
  0
LWPOLYLINE
  5
2eb
100
AcDbEntity
  8
0
 62
7
100
AcDbPolyline
 90
8
 70
0
 10
90.142060
 20
-29.685671
 30
0.0
 10
90.355420
 20
-29.497711
 30
0.0
 10
90.586560
 20
-29.337691
 30
0.0
 10
90.835480
 20
-29.208151
 30
0.0
 10
91.097100
 20
-29.109091
 30
0.0
 10
91.368880
 20
-29.043051
 30
0.0
 10
91.650820
 20
-29.012571
 30
0.0
 10
91.765120
 20
-29.007491
 30
0.0
  0
LWPOLYLINE
  5
2ec
100
AcDbEntity
  8
0
 62
7
100
AcDbPolyline
 90
8
 70
0
 10
70.469760
 20
-36.266811
 30
0.0
 10
70.487540
 20
-35.989951
 30
0.0
 10
70.535800
 20
-35.718171
 30
0.0
 10
70.619620
 20
-35.454011
 30
0.0
 10
70.733920
 20
-35.205091
 30
0.0
 10
70.876160
 20
-34.968871
 30
0.0
 10
71.048880
 20
-34.752971
 30
0.0
 10
71.125080
 20
-34.671691
 30
0.0
  0
LWPOLYLINE
  5
2ed
100
AcDbEntity
  8
0
 62
7
100
AcDbPolyline
 90
2
 70
0
 10
108.460540
 20
-34.011291
 30
0.0
 10
125.008640
 20
-34.008751
 30
0.0
  0
LWPOLYLINE
  5
2ee
100
AcDbEntity
  8
0
 62
7
100
AcDbPolyline
 90
8
 70
0
 10
89.481660
 20
-31.313811
 30
0.0
 10
89.496900
 20
-31.031871
 30
0.0
 10
89.547700
 20
-30.752471
 30
0.0
 10
89.628980
 20
-30.485771
 30
0.0
 10
89.743280
 20
-30.229231
 30
0.0
 10
89.890600
 20
-29.990471
 30
0.0
 10
90.065860
 20
-29.769491
 30
0.0
 10
90.142060
 20
-29.685671
 30
0.0
  0
LWPOLYLINE
  5
2ef
100
AcDbEntity
  8
0
 62
7
100
AcDbPolyline
 90
2
 70
0
 10
53.616860
 20
-46.508091
 30
0.0
 10
70.510400
 20
-46.508091
 30
0.0
  0
LWPOLYLINE
  5
2f0
100
AcDbEntity
  8
0
 62
7
100
AcDbPolyline
 90
2
 70
0
 10
169.054780
 20
-105.923771
 30
0.0
 10
153.471880
 20
-100.246871
 30
0.0
  0
LWPOLYLINE
  5
2f1
100
AcDbEntity
  8
0
 62
7
100
AcDbPolyline
 90
2
 70
0
 10
164.835840
 20
-122.974791
 30
0.0
 10
170.187620
 20
-108.344391
 30
0.0
  0
LWPOLYLINE
  5
2f2
100
AcDbEntity
  8
0
 62
7
100
AcDbPolyline
 90
12
 70
0
 10
169.054780
 20
-105.923771
 30
0.0
 10
169.316400
 20
-106.040611
 30
0.0
 10
169.552620
 20
-106.195551
 30
0.0
 10
169.760900
 20
-106.378431
 30
0.0
 10
169.938700
 20
-106.586711
 30
0.0
 10
170.080940
 20
-106.817851
 30
0.0
 10
170.190160
 20
-107.066771
 30
0.0
 10
170.263820
 20
-107.330931
 30
0.0
 10
170.299380
 20
-107.602711
 30
0.0
 10
170.291760
 20
-107.879571
 30
0.0
 10
170.243500
 20
-108.158971
 30
0.0
 10
170.187620
 20
-108.344391
 30
0.0
  0
LWPOLYLINE
  5
2f3
100
AcDbEntity
  8
0
 62
7
100
AcDbPolyline
 90
12
 70
0
 10
164.835840
 20
-122.974791
 30
0.0
 10
164.716460
 20
-123.238951
 30
0.0
 10
164.564060
 20
-123.475171
 30
0.0
 10
164.378640
 20
-123.680911
 30
0.0
 10
164.170360
 20
-123.858711
 30
0.0
 10
163.939220
 20
-124.003491
 30
0.0
 10
163.690300
 20
-124.112711
 30
0.0
 10
163.426140
 20
-124.183831
 30
0.0
 10
163.154360
 20
-124.219391
 30
0.0
 10
162.877500
 20
-124.214311
 30
0.0
 10
162.598100
 20
-124.166051
 30
0.0
 10
162.412680
 20
-124.110171
 30
0.0
  0
LWPOLYLINE
  5
2f4
100
AcDbEntity
  8
0
 62
7
100
AcDbPolyline
 90
13
 70
0
 10
151.452580
 20
-36.505571
 30
0.0
 10
151.762460
 20
-36.528431
 30
0.0
 10
152.057100
 20
-36.597011
 30
0.0
 10
152.333960
 20
-36.706231
 30
0.0
 10
152.590500
 20
-36.853551
 30
0.0
 10
152.819100
 20
-37.033891
 30
0.0
 10
153.019760
 20
-37.247251
 30
0.0
 10
153.189940
 20
-37.488551
 30
0.0
 10
153.322020
 20
-37.755251
 30
0.0
 10
153.416000
 20
-38.039731
 30
0.0
 10
153.466800
 20
-38.344531
 30
0.0
 10
153.474420
 20
-38.555351
 30
0.0
 10
153.471880
 20
-100.246871
 30
0.0
  0
ENDSEC
  0
SECTION
  2
OBJECTS
  0
DICTIONARY
  5
C
330
0
100
AcDbDictionary
  3
ACAD_GROUP
350
D
  3
ACAD_MLINESTYLE
350
17
  0
DICTIONARY
  5
D
330
C
100
AcDbDictionary
  0
DICTIONARY
  5
1A
330
C
100
AcDbDictionary
  0
DICTIONARY
  5
17
330
C
100
AcDbDictionary
  3
STANDARD
350
18
  0
DICTIONARY
  5
19
330
C
100
AcDbDictionary
  0
ENDSEC
  0
EOF
