<?xml version="1.0" encoding="utf-8"?>
<!-- Generator: Adobe Illustrator 25.0.0, SVG Export Plug-In . SVG Version: 6.00 Build 0)  -->
<svg version="1.1" id="katman_1" xmlns="http://www.w3.org/2000/svg" xmlns:xlink="http://www.w3.org/1999/xlink" x="0px" y="0px"
	 width="700px" height="700px" viewBox="0 0 700 700" style="enable-background:new 0 0 700 700;" xml:space="preserve">
<g id="ciVjyT.tif">
	<g>
		<path d="M285.1,349.3c-0.2-33.6,26.5-62.2,60.2-64.3c39.5-2.6,67.2,28.1,69.3,59.9c2.6,37.5-26.5,67.6-61.1,69.5
			C318.4,416.4,285,388.6,285.1,349.3z"/>
		<path d="M160.4,409.8c2.6-1.8,4.9-3.3,7.1-5c9.8-7.4,16.2-17.2,19.2-29c4.5-17.9,4.5-35.7-1-53.4c-3.5-11.1-10.2-20-19.6-26.8
			c-2-1.5-4.2-2.9-6.4-4.5c19.9-10,54.7-7.6,75.6,18.7c20,25.2,18.4,60.5-2.1,83.7C211,418.6,176.8,418.8,160.4,409.8z"/>
		<path d="M539.6,289.1c-0.2,1-1,1.3-1.8,1.8c-14.5,8.6-22.6,21.7-25.6,37.9c-3,16.1-2.7,32.2,2.3,47.9
			c3.9,12.3,11.8,21.7,22.3,28.9c1.1,0.8,2.6,1.2,3.3,2.6c-16.7,8.9-50.8,9.2-73.8-17.2c-20-23-20.6-59.2-1.3-83
			C487.3,280.8,522.3,280.1,539.6,289.1z"/>
		<path d="M60.6,287.2c15.4-3.5,40.9,4.8,55.4,23.6c19,24.5,17.6,55.8,2.8,77.2c-8.2,11.9-19.1,20.4-32.8,25
			c-7.8,2.6-15.8,3.9-24,3.1c2.6-1.9,5.8-1.6,8.7-2.5c3-1,6.1-1.7,9-3.1c3-1.5,6-2.9,8.8-4.6c2.7-1.7,5.3-3.5,7.7-5.6
			s4.7-4.3,6.8-6.7c2.1-2.4,4-5,5.8-7.5c1.8-2.6,3.3-5.4,4.5-8.4c1.2-2.9,2.4-5.9,3.3-8.9c0.9-3.2,1.5-6.5,2-9.7
			c0.5-3.2,0.5-6.3,0.3-9.5c-0.2-3.2-0.3-6.4-0.9-9.5C112.9,313.5,92.5,291.3,60.6,287.2z"/>
		<path d="M638.8,284.4c-39.1,5.9-55.8,36.7-57.3,59.5c-1.1,17.4,4,32.9,15.2,46.1c11.1,13.2,25.7,20.6,42.8,23.1
			c-7,1.5-13.7,0.4-20.4-1.3c-14-3.6-25.6-11.1-34.6-22.4c-18.5-23.1-19.3-55.6-1.1-80C598.9,288.4,625.6,280.9,638.8,284.4z"/>
	</g>
</g>
</svg>
