%TF.GenerationSoftware,KiCad,Pcbnew,(5.1.10)-1*%
%TF.CreationDate,2021-12-10T08:59:27-08:00*%
%TF.ProjectId,5col-switchplate-encoder,35636f6c-2d73-4776-9974-6368706c6174,rev?*%
%TF.SameCoordinates,Original*%
%TF.FileFunction,Legend,Top*%
%TF.FilePolarity,Positive*%
%FSLAX46Y46*%
G04 Gerber Fmt 4.6, Leading zero omitted, Abs format (unit mm)*
G04 Created by KiCad (PCBNEW (5.1.10)-1) date 2021-12-10 08:59:27*
%MOMM*%
%LPD*%
G01*
G04 APERTURE LIST*
%ADD10C,0.001920*%
%ADD11C,0.150000*%
G04 APERTURE END LIST*
D10*
X54496760Y-116588421D02*
X54498558Y-116554010D01*
X54498558Y-116554010D02*
X54499588Y-116519838D01*
X54499588Y-116519838D02*
X54499849Y-116485903D01*
X54499849Y-116485903D02*
X54499343Y-116452210D01*
X54499343Y-116452210D02*
X54498070Y-116418758D01*
X54498070Y-116418758D02*
X54496029Y-116385549D01*
X54496029Y-116385549D02*
X54493222Y-116352585D01*
X54493222Y-116352585D02*
X54489649Y-116319868D01*
X54489649Y-116319868D02*
X54485309Y-116287399D01*
X54485309Y-116287399D02*
X54480205Y-116255180D01*
X54480205Y-116255180D02*
X54474335Y-116223211D01*
X54474335Y-116223211D02*
X54467701Y-116191496D01*
X54467701Y-116191496D02*
X54460302Y-116160034D01*
X54460302Y-116160034D02*
X54452139Y-116128829D01*
X54452139Y-116128829D02*
X54443213Y-116097880D01*
X54443213Y-116097880D02*
X54433524Y-116067191D01*
X54433524Y-116067191D02*
X54423072Y-116036762D01*
X54423072Y-116036762D02*
X54411857Y-116006595D01*
X54411857Y-116006595D02*
X54399881Y-115976692D01*
X54399881Y-115976692D02*
X54387143Y-115947054D01*
X54387143Y-115947054D02*
X54373644Y-115917682D01*
X54373644Y-115917682D02*
X54359384Y-115888578D01*
X54359384Y-115888578D02*
X54344364Y-115859745D01*
X54344364Y-115859745D02*
X54328583Y-115831182D01*
X54328583Y-115831182D02*
X54312043Y-115802893D01*
X54312043Y-115802893D02*
X54294744Y-115774878D01*
X54294744Y-115774878D02*
X54276686Y-115747139D01*
X54276686Y-115747139D02*
X54257869Y-115719677D01*
X54257869Y-115719677D02*
X54238294Y-115692494D01*
X54238294Y-115692494D02*
X54217962Y-115665592D01*
X54217962Y-115665592D02*
X54196872Y-115638973D01*
X54196872Y-115638973D02*
X54175026Y-115612637D01*
X54433260Y-115625337D02*
X54468872Y-115671747D01*
X54468872Y-115671747D02*
X54502284Y-115719256D01*
X54502284Y-115719256D02*
X54533491Y-115767795D01*
X54533491Y-115767795D02*
X54562488Y-115817296D01*
X54562488Y-115817296D02*
X54589269Y-115867692D01*
X54589269Y-115867692D02*
X54613830Y-115918914D01*
X54613830Y-115918914D02*
X54636165Y-115970895D01*
X54636165Y-115970895D02*
X54656270Y-116023568D01*
X54656270Y-116023568D02*
X54674139Y-116076863D01*
X54674139Y-116076863D02*
X54689768Y-116130714D01*
X54689768Y-116130714D02*
X54703151Y-116185053D01*
X54703151Y-116185053D02*
X54714284Y-116239811D01*
X54714284Y-116239811D02*
X54723161Y-116294921D01*
X54723161Y-116294921D02*
X54729777Y-116350315D01*
X54729777Y-116350315D02*
X54734127Y-116405926D01*
X54734127Y-116405926D02*
X54736207Y-116461685D01*
X54736207Y-116461685D02*
X54736011Y-116517524D01*
X54736011Y-116517524D02*
X54733534Y-116573377D01*
X54733534Y-116573377D02*
X54728771Y-116629174D01*
X54728771Y-116629174D02*
X54721717Y-116684848D01*
X54721717Y-116684848D02*
X54712367Y-116740332D01*
X54712367Y-116740332D02*
X54700716Y-116795557D01*
X54700716Y-116795557D02*
X54686759Y-116850456D01*
X54686759Y-116850456D02*
X54670491Y-116904961D01*
X54670491Y-116904961D02*
X54651907Y-116959004D01*
X54651907Y-116959004D02*
X54631001Y-117012517D01*
X54631001Y-117012517D02*
X54607770Y-117065432D01*
X54607770Y-117065432D02*
X54582207Y-117117682D01*
X54582207Y-117117682D02*
X54554308Y-117169199D01*
X54554308Y-117169199D02*
X54524068Y-117219914D01*
X54524068Y-117219914D02*
X54491481Y-117269761D01*
X54491481Y-117269761D02*
X54456543Y-117318671D01*
X53700893Y-115151204D02*
X53728525Y-115158589D01*
X53728525Y-115158589D02*
X53755859Y-115166458D01*
X53755859Y-115166458D02*
X53782893Y-115174810D01*
X53782893Y-115174810D02*
X53809628Y-115183644D01*
X53809628Y-115183644D02*
X53836062Y-115192960D01*
X53836062Y-115192960D02*
X53862194Y-115202758D01*
X53862194Y-115202758D02*
X53888024Y-115213038D01*
X53888024Y-115213038D02*
X53913551Y-115223799D01*
X53913551Y-115223799D02*
X53938774Y-115235040D01*
X53938774Y-115235040D02*
X53963693Y-115246761D01*
X53963693Y-115246761D02*
X53988306Y-115258962D01*
X53988306Y-115258962D02*
X54012613Y-115271643D01*
X54012613Y-115271643D02*
X54036613Y-115284802D01*
X54036613Y-115284802D02*
X54060305Y-115298440D01*
X54060305Y-115298440D02*
X54083689Y-115312557D01*
X54083689Y-115312557D02*
X54106763Y-115327151D01*
X54106763Y-115327151D02*
X54129528Y-115342223D01*
X54129528Y-115342223D02*
X54151981Y-115357772D01*
X54151981Y-115357772D02*
X54174123Y-115373798D01*
X54174123Y-115373798D02*
X54195953Y-115390300D01*
X54195953Y-115390300D02*
X54217469Y-115407278D01*
X54217469Y-115407278D02*
X54238672Y-115424731D01*
X54238672Y-115424731D02*
X54259560Y-115442660D01*
X54259560Y-115442660D02*
X54280132Y-115461064D01*
X54280132Y-115461064D02*
X54300388Y-115479941D01*
X54300388Y-115479941D02*
X54320327Y-115499293D01*
X54320327Y-115499293D02*
X54339948Y-115519119D01*
X54339948Y-115519119D02*
X54359251Y-115539417D01*
X54359251Y-115539417D02*
X54378234Y-115560189D01*
X54378234Y-115560189D02*
X54396897Y-115581433D01*
X54396897Y-115581433D02*
X54415239Y-115603149D01*
X54415239Y-115603149D02*
X54433260Y-115625337D01*
X64307510Y-116668854D02*
X64318576Y-116721356D01*
X64318576Y-116721356D02*
X64331526Y-116773260D01*
X64331526Y-116773260D02*
X64346343Y-116824512D01*
X64346343Y-116824512D02*
X64363014Y-116875059D01*
X64363014Y-116875059D02*
X64381524Y-116924848D01*
X64381524Y-116924848D02*
X64401857Y-116973825D01*
X64401857Y-116973825D02*
X64424000Y-117021939D01*
X64424000Y-117021939D02*
X64447937Y-117069135D01*
X64447937Y-117069135D02*
X64473654Y-117115360D01*
X64473654Y-117115360D02*
X64501136Y-117160562D01*
X64501136Y-117160562D02*
X64530368Y-117204688D01*
X64530368Y-117204688D02*
X64561336Y-117247683D01*
X64561336Y-117247683D02*
X64594024Y-117289496D01*
X64594024Y-117289496D02*
X64628419Y-117330072D01*
X64628419Y-117330072D02*
X64664505Y-117369360D01*
X64664505Y-117369360D02*
X64702268Y-117407305D01*
X64702268Y-117407305D02*
X64741692Y-117443856D01*
X64741692Y-117443856D02*
X64782764Y-117478957D01*
X64782764Y-117478957D02*
X64825468Y-117512558D01*
X64825468Y-117512558D02*
X64869790Y-117544604D01*
X64869790Y-117544604D02*
X64915715Y-117575042D01*
X64915715Y-117575042D02*
X64963228Y-117603819D01*
X64963228Y-117603819D02*
X65012315Y-117630883D01*
X65012315Y-117630883D02*
X65062961Y-117656179D01*
X65062961Y-117656179D02*
X65115150Y-117679656D01*
X65115150Y-117679656D02*
X65168869Y-117701259D01*
X65168869Y-117701259D02*
X65224103Y-117720936D01*
X65224103Y-117720936D02*
X65280837Y-117738634D01*
X65280837Y-117738634D02*
X65339055Y-117754300D01*
X65339055Y-117754300D02*
X65398745Y-117767880D01*
X65398745Y-117767880D02*
X65459890Y-117779321D01*
X65459890Y-117779321D02*
X65522476Y-117788571D01*
X56935160Y-115591471D02*
X56973644Y-115637913D01*
X56973644Y-115637913D02*
X57009720Y-115685894D01*
X57009720Y-115685894D02*
X57043386Y-115735313D01*
X57043386Y-115735313D02*
X57074640Y-115786071D01*
X57074640Y-115786071D02*
X57103481Y-115838070D01*
X57103481Y-115838070D02*
X57129906Y-115891210D01*
X57129906Y-115891210D02*
X57153913Y-115945392D01*
X57153913Y-115945392D02*
X57175500Y-116000516D01*
X57175500Y-116000516D02*
X57194666Y-116056484D01*
X57194666Y-116056484D02*
X57211409Y-116113195D01*
X57211409Y-116113195D02*
X57225726Y-116170552D01*
X57225726Y-116170552D02*
X57237615Y-116228455D01*
X57237615Y-116228455D02*
X57247076Y-116286803D01*
X57247076Y-116286803D02*
X57254105Y-116345500D01*
X57254105Y-116345500D02*
X57258700Y-116404444D01*
X57258700Y-116404444D02*
X57260861Y-116463537D01*
X57260861Y-116463537D02*
X57260585Y-116522679D01*
X57260585Y-116522679D02*
X57257870Y-116581772D01*
X57257870Y-116581772D02*
X57252713Y-116640717D01*
X57252713Y-116640717D02*
X57245114Y-116699413D01*
X57245114Y-116699413D02*
X57235070Y-116757762D01*
X57235070Y-116757762D02*
X57222580Y-116815664D01*
X57222580Y-116815664D02*
X57207640Y-116873021D01*
X57207640Y-116873021D02*
X57190250Y-116929733D01*
X57190250Y-116929733D02*
X57170408Y-116985700D01*
X57170408Y-116985700D02*
X57148111Y-117040824D01*
X57148111Y-117040824D02*
X57123357Y-117095006D01*
X57123357Y-117095006D02*
X57096146Y-117148146D01*
X57096146Y-117148146D02*
X57066473Y-117200145D01*
X57066473Y-117200145D02*
X57034339Y-117250904D01*
X57034339Y-117250904D02*
X56999740Y-117300323D01*
X56999740Y-117300323D02*
X56962676Y-117348304D01*
X65492843Y-115060187D02*
X65487647Y-115063823D01*
X65487647Y-115063823D02*
X65482380Y-115067199D01*
X65482380Y-115067199D02*
X65477045Y-115070329D01*
X65477045Y-115070329D02*
X65471647Y-115073226D01*
X65471647Y-115073226D02*
X65466188Y-115075902D01*
X65466188Y-115075902D02*
X65460672Y-115078372D01*
X65460672Y-115078372D02*
X65455103Y-115080647D01*
X65455103Y-115080647D02*
X65449484Y-115082742D01*
X65449484Y-115082742D02*
X65443818Y-115084670D01*
X65443818Y-115084670D02*
X65438109Y-115086444D01*
X65438109Y-115086444D02*
X65432361Y-115088076D01*
X65432361Y-115088076D02*
X65426577Y-115089580D01*
X65426577Y-115089580D02*
X65420760Y-115090970D01*
X65420760Y-115090970D02*
X65414914Y-115092258D01*
X65414914Y-115092258D02*
X65409042Y-115093458D01*
X65409042Y-115093458D02*
X65403149Y-115094583D01*
X65403149Y-115094583D02*
X65397236Y-115095645D01*
X65397236Y-115095645D02*
X65391309Y-115096659D01*
X65391309Y-115096659D02*
X65385370Y-115097637D01*
X65385370Y-115097637D02*
X65379423Y-115098593D01*
X65379423Y-115098593D02*
X65373471Y-115099539D01*
X65373471Y-115099539D02*
X65367518Y-115100489D01*
X65367518Y-115100489D02*
X65361568Y-115101457D01*
X65361568Y-115101457D02*
X65355623Y-115102454D01*
X65355623Y-115102454D02*
X65349687Y-115103495D01*
X65349687Y-115103495D02*
X65343765Y-115104592D01*
X65343765Y-115104592D02*
X65337858Y-115105760D01*
X65337858Y-115105760D02*
X65331972Y-115107010D01*
X65331972Y-115107010D02*
X65326108Y-115108356D01*
X65326108Y-115108356D02*
X65320272Y-115109812D01*
X65320272Y-115109812D02*
X65314465Y-115111390D01*
X65314465Y-115111390D02*
X65308693Y-115113104D01*
X64294810Y-116266687D02*
X64293848Y-116273030D01*
X64293848Y-116273030D02*
X64292947Y-116279363D01*
X64292947Y-116279363D02*
X64292107Y-116285684D01*
X64292107Y-116285684D02*
X64291324Y-116291996D01*
X64291324Y-116291996D02*
X64290599Y-116298298D01*
X64290599Y-116298298D02*
X64289930Y-116304591D01*
X64289930Y-116304591D02*
X64289317Y-116310877D01*
X64289317Y-116310877D02*
X64288757Y-116317156D01*
X64288757Y-116317156D02*
X64288250Y-116323429D01*
X64288250Y-116323429D02*
X64287794Y-116329696D01*
X64287794Y-116329696D02*
X64287389Y-116335958D01*
X64287389Y-116335958D02*
X64287033Y-116342217D01*
X64287033Y-116342217D02*
X64286725Y-116348473D01*
X64286725Y-116348473D02*
X64286464Y-116354726D01*
X64286464Y-116354726D02*
X64286248Y-116360977D01*
X64286248Y-116360977D02*
X64286078Y-116367228D01*
X64286078Y-116367228D02*
X64285950Y-116373479D01*
X64285950Y-116373479D02*
X64285865Y-116379731D01*
X64285865Y-116379731D02*
X64285821Y-116385984D01*
X64285821Y-116385984D02*
X64285817Y-116392240D01*
X64285817Y-116392240D02*
X64285852Y-116398498D01*
X64285852Y-116398498D02*
X64285924Y-116404761D01*
X64285924Y-116404761D02*
X64286033Y-116411028D01*
X64286033Y-116411028D02*
X64286177Y-116417301D01*
X64286177Y-116417301D02*
X64286355Y-116423579D01*
X64286355Y-116423579D02*
X64286566Y-116429865D01*
X64286566Y-116429865D02*
X64286809Y-116436159D01*
X64286809Y-116436159D02*
X64287083Y-116442461D01*
X64287083Y-116442461D02*
X64287386Y-116448772D01*
X64287386Y-116448772D02*
X64287717Y-116455093D01*
X64287717Y-116455093D02*
X64288075Y-116461426D01*
X64288075Y-116461426D02*
X64288460Y-116467770D01*
X55373060Y-115227404D02*
X55407259Y-115210287D01*
X55407259Y-115210287D02*
X55443506Y-115194308D01*
X55443506Y-115194308D02*
X55481691Y-115179536D01*
X55481691Y-115179536D02*
X55521701Y-115166041D01*
X55521701Y-115166041D02*
X55563429Y-115153893D01*
X55563429Y-115153893D02*
X55606761Y-115143162D01*
X55606761Y-115143162D02*
X55651589Y-115133919D01*
X55651589Y-115133919D02*
X55697802Y-115126233D01*
X55697802Y-115126233D02*
X55745289Y-115120176D01*
X55745289Y-115120176D02*
X55793941Y-115115816D01*
X55793941Y-115115816D02*
X55843645Y-115113224D01*
X55843645Y-115113224D02*
X55894292Y-115112471D01*
X55894292Y-115112471D02*
X55945772Y-115113626D01*
X55945772Y-115113626D02*
X55997974Y-115116759D01*
X55997974Y-115116759D02*
X56050788Y-115121942D01*
X56050788Y-115121942D02*
X56104103Y-115129243D01*
X56104103Y-115129243D02*
X56157808Y-115138733D01*
X56157808Y-115138733D02*
X56211794Y-115150483D01*
X56211794Y-115150483D02*
X56265949Y-115164561D01*
X56265949Y-115164561D02*
X56320164Y-115181039D01*
X56320164Y-115181039D02*
X56374328Y-115199987D01*
X56374328Y-115199987D02*
X56428330Y-115221475D01*
X56428330Y-115221475D02*
X56482059Y-115245572D01*
X56482059Y-115245572D02*
X56535407Y-115272350D01*
X56535407Y-115272350D02*
X56588261Y-115301878D01*
X56588261Y-115301878D02*
X56640512Y-115334226D01*
X56640512Y-115334226D02*
X56692049Y-115369464D01*
X56692049Y-115369464D02*
X56742762Y-115407664D01*
X56742762Y-115407664D02*
X56792540Y-115448894D01*
X56792540Y-115448894D02*
X56841272Y-115493225D01*
X56841272Y-115493225D02*
X56888849Y-115540727D01*
X56888849Y-115540727D02*
X56935160Y-115591471D01*
X65522476Y-117788571D02*
X65522476Y-117788571D01*
X55442910Y-115282437D02*
X55440703Y-115280873D01*
X55440703Y-115280873D02*
X55438451Y-115279354D01*
X55438451Y-115279354D02*
X55436159Y-115277873D01*
X55436159Y-115277873D02*
X55433831Y-115276426D01*
X55433831Y-115276426D02*
X55431472Y-115275006D01*
X55431472Y-115275006D02*
X55429087Y-115273609D01*
X55429087Y-115273609D02*
X55426680Y-115272229D01*
X55426680Y-115272229D02*
X55424256Y-115270861D01*
X55424256Y-115270861D02*
X55421820Y-115269499D01*
X55421820Y-115269499D02*
X55419376Y-115268138D01*
X55419376Y-115268138D02*
X55416928Y-115266772D01*
X55416928Y-115266772D02*
X55414483Y-115265396D01*
X55414483Y-115265396D02*
X55412043Y-115264004D01*
X55412043Y-115264004D02*
X55409615Y-115262592D01*
X55409615Y-115262592D02*
X55407202Y-115261153D01*
X55407202Y-115261153D02*
X55404809Y-115259683D01*
X55404809Y-115259683D02*
X55402441Y-115258175D01*
X55402441Y-115258175D02*
X55400102Y-115256624D01*
X55400102Y-115256624D02*
X55397798Y-115255026D01*
X55397798Y-115255026D02*
X55395532Y-115253374D01*
X55395532Y-115253374D02*
X55393310Y-115251663D01*
X55393310Y-115251663D02*
X55391135Y-115249888D01*
X55391135Y-115249888D02*
X55389014Y-115248043D01*
X55389014Y-115248043D02*
X55386950Y-115246123D01*
X55386950Y-115246123D02*
X55384948Y-115244122D01*
X55384948Y-115244122D02*
X55383012Y-115242035D01*
X55383012Y-115242035D02*
X55381148Y-115239857D01*
X55381148Y-115239857D02*
X55379360Y-115237582D01*
X55379360Y-115237582D02*
X55377652Y-115235204D01*
X55377652Y-115235204D02*
X55376030Y-115232719D01*
X55376030Y-115232719D02*
X55374497Y-115230120D01*
X55374497Y-115230120D02*
X55373060Y-115227404D01*
X53283910Y-117847837D02*
X53283910Y-117847837D01*
X64288460Y-116467770D02*
X64288851Y-116474119D01*
X64288851Y-116474119D02*
X64289231Y-116480469D01*
X64289231Y-116480469D02*
X64289605Y-116486818D01*
X64289605Y-116486818D02*
X64289972Y-116493166D01*
X64289972Y-116493166D02*
X64290337Y-116499512D01*
X64290337Y-116499512D02*
X64290701Y-116505856D01*
X64290701Y-116505856D02*
X64291067Y-116512198D01*
X64291067Y-116512198D02*
X64291436Y-116518537D01*
X64291436Y-116518537D02*
X64291811Y-116524873D01*
X64291811Y-116524873D02*
X64292196Y-116531205D01*
X64292196Y-116531205D02*
X64292590Y-116537534D01*
X64292590Y-116537534D02*
X64292999Y-116543858D01*
X64292999Y-116543858D02*
X64293422Y-116550178D01*
X64293422Y-116550178D02*
X64293864Y-116556493D01*
X64293864Y-116556493D02*
X64294325Y-116562802D01*
X64294325Y-116562802D02*
X64294809Y-116569105D01*
X64294809Y-116569105D02*
X64295318Y-116575403D01*
X64295318Y-116575403D02*
X64295854Y-116581693D01*
X64295854Y-116581693D02*
X64296420Y-116587977D01*
X64296420Y-116587977D02*
X64297017Y-116594253D01*
X64297017Y-116594253D02*
X64297648Y-116600522D01*
X64297648Y-116600522D02*
X64298316Y-116606782D01*
X64298316Y-116606782D02*
X64299023Y-116613034D01*
X64299023Y-116613034D02*
X64299770Y-116619277D01*
X64299770Y-116619277D02*
X64300561Y-116625511D01*
X64300561Y-116625511D02*
X64301398Y-116631735D01*
X64301398Y-116631735D02*
X64302283Y-116637949D01*
X64302283Y-116637949D02*
X64303218Y-116644152D01*
X64303218Y-116644152D02*
X64304206Y-116650345D01*
X64304206Y-116650345D02*
X64305249Y-116656526D01*
X64305249Y-116656526D02*
X64306349Y-116662696D01*
X64306349Y-116662696D02*
X64307510Y-116668854D01*
X65308693Y-115113104D02*
X65302733Y-115115070D01*
X65302733Y-115115070D02*
X65296763Y-115117003D01*
X65296763Y-115117003D02*
X65290783Y-115118907D01*
X65290783Y-115118907D02*
X65284793Y-115120785D01*
X65284793Y-115120785D02*
X65278796Y-115122641D01*
X65278796Y-115122641D02*
X65272792Y-115124480D01*
X65272792Y-115124480D02*
X65266783Y-115126304D01*
X65266783Y-115126304D02*
X65260770Y-115128119D01*
X65260770Y-115128119D02*
X65254753Y-115129927D01*
X65254753Y-115129927D02*
X65248735Y-115131733D01*
X65248735Y-115131733D02*
X65242716Y-115133540D01*
X65242716Y-115133540D02*
X65236697Y-115135353D01*
X65236697Y-115135353D02*
X65230680Y-115137176D01*
X65230680Y-115137176D02*
X65224665Y-115139011D01*
X65224665Y-115139011D02*
X65218654Y-115140863D01*
X65218654Y-115140863D02*
X65212649Y-115142737D01*
X65212649Y-115142737D02*
X65206649Y-115144635D01*
X65206649Y-115144635D02*
X65200657Y-115146562D01*
X65200657Y-115146562D02*
X65194674Y-115148521D01*
X65194674Y-115148521D02*
X65188700Y-115150517D01*
X65188700Y-115150517D02*
X65182737Y-115152553D01*
X65182737Y-115152553D02*
X65176786Y-115154634D01*
X65176786Y-115154634D02*
X65170848Y-115156762D01*
X65170848Y-115156762D02*
X65164924Y-115158943D01*
X65164924Y-115158943D02*
X65159016Y-115161179D01*
X65159016Y-115161179D02*
X65153125Y-115163475D01*
X65153125Y-115163475D02*
X65147252Y-115165834D01*
X65147252Y-115165834D02*
X65141397Y-115168261D01*
X65141397Y-115168261D02*
X65135563Y-115170759D01*
X65135563Y-115170759D02*
X65129750Y-115173333D01*
X65129750Y-115173333D02*
X65123959Y-115175985D01*
X65123959Y-115175985D02*
X65118193Y-115178721D01*
X54456543Y-117318671D02*
X54425106Y-117359507D01*
X54425106Y-117359507D02*
X54392376Y-117398679D01*
X54392376Y-117398679D02*
X54358449Y-117436195D01*
X54358449Y-117436195D02*
X54323420Y-117472067D01*
X54323420Y-117472067D02*
X54287385Y-117506303D01*
X54287385Y-117506303D02*
X54250439Y-117538913D01*
X54250439Y-117538913D02*
X54212679Y-117569907D01*
X54212679Y-117569907D02*
X54174199Y-117599294D01*
X54174199Y-117599294D02*
X54135097Y-117627085D01*
X54135097Y-117627085D02*
X54095467Y-117653288D01*
X54095467Y-117653288D02*
X54055405Y-117677914D01*
X54055405Y-117677914D02*
X54015007Y-117700973D01*
X54015007Y-117700973D02*
X53974369Y-117722473D01*
X53974369Y-117722473D02*
X53933586Y-117742425D01*
X53933586Y-117742425D02*
X53892755Y-117760838D01*
X53892755Y-117760838D02*
X53851970Y-117777723D01*
X53851970Y-117777723D02*
X53811328Y-117793088D01*
X53811328Y-117793088D02*
X53770924Y-117806943D01*
X53770924Y-117806943D02*
X53730855Y-117819298D01*
X53730855Y-117819298D02*
X53691215Y-117830164D01*
X53691215Y-117830164D02*
X53652101Y-117839548D01*
X53652101Y-117839548D02*
X53613608Y-117847462D01*
X53613608Y-117847462D02*
X53575832Y-117853915D01*
X53575832Y-117853915D02*
X53538869Y-117858916D01*
X53538869Y-117858916D02*
X53502814Y-117862476D01*
X53502814Y-117862476D02*
X53467763Y-117864603D01*
X53467763Y-117864603D02*
X53433813Y-117865308D01*
X53433813Y-117865308D02*
X53401058Y-117864601D01*
X53401058Y-117864601D02*
X53369594Y-117862490D01*
X53369594Y-117862490D02*
X53339518Y-117858986D01*
X53339518Y-117858986D02*
X53310924Y-117854098D01*
X53310924Y-117854098D02*
X53283910Y-117847837D01*
X55421743Y-117710254D02*
X55450120Y-117692910D01*
X55450120Y-117692910D02*
X55477709Y-117675013D01*
X55477709Y-117675013D02*
X55504514Y-117656570D01*
X55504514Y-117656570D02*
X55530540Y-117637584D01*
X55530540Y-117637584D02*
X55555793Y-117618062D01*
X55555793Y-117618062D02*
X55580277Y-117598009D01*
X55580277Y-117598009D02*
X55603998Y-117577431D01*
X55603998Y-117577431D02*
X55626960Y-117556332D01*
X55626960Y-117556332D02*
X55649169Y-117534719D01*
X55649169Y-117534719D02*
X55670629Y-117512596D01*
X55670629Y-117512596D02*
X55691346Y-117489970D01*
X55691346Y-117489970D02*
X55711325Y-117466845D01*
X55711325Y-117466845D02*
X55730570Y-117443227D01*
X55730570Y-117443227D02*
X55749088Y-117419122D01*
X55749088Y-117419122D02*
X55766882Y-117394534D01*
X55766882Y-117394534D02*
X55783957Y-117369470D01*
X55783957Y-117369470D02*
X55800320Y-117343935D01*
X55800320Y-117343935D02*
X55815975Y-117317933D01*
X55815975Y-117317933D02*
X55830926Y-117291471D01*
X55830926Y-117291471D02*
X55845180Y-117264554D01*
X55845180Y-117264554D02*
X55858740Y-117237188D01*
X55858740Y-117237188D02*
X55871613Y-117209377D01*
X55871613Y-117209377D02*
X55883802Y-117181128D01*
X55883802Y-117181128D02*
X55895314Y-117152445D01*
X55895314Y-117152445D02*
X55906153Y-117123335D01*
X55906153Y-117123335D02*
X55916324Y-117093802D01*
X55916324Y-117093802D02*
X55925832Y-117063852D01*
X55925832Y-117063852D02*
X55934683Y-117033490D01*
X55934683Y-117033490D02*
X55942881Y-117002723D01*
X55942881Y-117002723D02*
X55950431Y-116971554D01*
X55950431Y-116971554D02*
X55957339Y-116939990D01*
X55957339Y-116939990D02*
X55963610Y-116908037D01*
X64502243Y-115695187D02*
X64498689Y-115700358D01*
X64498689Y-115700358D02*
X64495173Y-115705555D01*
X64495173Y-115705555D02*
X64491694Y-115710776D01*
X64491694Y-115710776D02*
X64488253Y-115716023D01*
X64488253Y-115716023D02*
X64484848Y-115721294D01*
X64484848Y-115721294D02*
X64481481Y-115726589D01*
X64481481Y-115726589D02*
X64478151Y-115731910D01*
X64478151Y-115731910D02*
X64474858Y-115737256D01*
X64474858Y-115737256D02*
X64471603Y-115742626D01*
X64471603Y-115742626D02*
X64468384Y-115748021D01*
X64468384Y-115748021D02*
X64465203Y-115753441D01*
X64465203Y-115753441D02*
X64462059Y-115758885D01*
X64462059Y-115758885D02*
X64458952Y-115764355D01*
X64458952Y-115764355D02*
X64455883Y-115769849D01*
X64455883Y-115769849D02*
X64452850Y-115775368D01*
X64452850Y-115775368D02*
X64449855Y-115780912D01*
X64449855Y-115780912D02*
X64446897Y-115786480D01*
X64446897Y-115786480D02*
X64443976Y-115792074D01*
X64443976Y-115792074D02*
X64441093Y-115797692D01*
X64441093Y-115797692D02*
X64438246Y-115803335D01*
X64438246Y-115803335D02*
X64435437Y-115809003D01*
X64435437Y-115809003D02*
X64432665Y-115814696D01*
X64432665Y-115814696D02*
X64429931Y-115820413D01*
X64429931Y-115820413D02*
X64427233Y-115826155D01*
X64427233Y-115826155D02*
X64424573Y-115831922D01*
X64424573Y-115831922D02*
X64421950Y-115837714D01*
X64421950Y-115837714D02*
X64419364Y-115843531D01*
X64419364Y-115843531D02*
X64416815Y-115849372D01*
X64416815Y-115849372D02*
X64414304Y-115855239D01*
X64414304Y-115855239D02*
X64411829Y-115861130D01*
X64411829Y-115861130D02*
X64409392Y-115867046D01*
X64409392Y-115867046D02*
X64406993Y-115872987D01*
X55963610Y-116908037D02*
X55969357Y-116876088D01*
X55969357Y-116876088D02*
X55974690Y-116844142D01*
X55974690Y-116844142D02*
X55979603Y-116812198D01*
X55979603Y-116812198D02*
X55984090Y-116780259D01*
X55984090Y-116780259D02*
X55988146Y-116748327D01*
X55988146Y-116748327D02*
X55991766Y-116716402D01*
X55991766Y-116716402D02*
X55994944Y-116684486D01*
X55994944Y-116684486D02*
X55997675Y-116652582D01*
X55997675Y-116652582D02*
X55999953Y-116620689D01*
X55999953Y-116620689D02*
X56001773Y-116588811D01*
X56001773Y-116588811D02*
X56003129Y-116556948D01*
X56003129Y-116556948D02*
X56004016Y-116525102D01*
X56004016Y-116525102D02*
X56004429Y-116493275D01*
X56004429Y-116493275D02*
X56004363Y-116461468D01*
X56004363Y-116461468D02*
X56003810Y-116429682D01*
X56003810Y-116429682D02*
X56002768Y-116397920D01*
X56002768Y-116397920D02*
X56001229Y-116366183D01*
X56001229Y-116366183D02*
X55999189Y-116334472D01*
X55999189Y-116334472D02*
X55996641Y-116302789D01*
X55996641Y-116302789D02*
X55993582Y-116271135D01*
X55993582Y-116271135D02*
X55990004Y-116239513D01*
X55990004Y-116239513D02*
X55985904Y-116207923D01*
X55985904Y-116207923D02*
X55981274Y-116176367D01*
X55981274Y-116176367D02*
X55976111Y-116144846D01*
X55976111Y-116144846D02*
X55970408Y-116113363D01*
X55970408Y-116113363D02*
X55964160Y-116081919D01*
X55964160Y-116081919D02*
X55957362Y-116050515D01*
X55957362Y-116050515D02*
X55950008Y-116019153D01*
X55950008Y-116019153D02*
X55942093Y-115987834D01*
X55942093Y-115987834D02*
X55933611Y-115956560D01*
X55933611Y-115956560D02*
X55924557Y-115925333D01*
X55924557Y-115925333D02*
X55914926Y-115894154D01*
X62853360Y-115913204D02*
X62844710Y-115948718D01*
X62844710Y-115948718D02*
X62836622Y-115984219D01*
X62836622Y-115984219D02*
X62829099Y-116019709D01*
X62829099Y-116019709D02*
X62822147Y-116055185D01*
X62822147Y-116055185D02*
X62815768Y-116090650D01*
X62815768Y-116090650D02*
X62809967Y-116126102D01*
X62809967Y-116126102D02*
X62804747Y-116161542D01*
X62804747Y-116161542D02*
X62800112Y-116196969D01*
X62800112Y-116196969D02*
X62796066Y-116232384D01*
X62796066Y-116232384D02*
X62792614Y-116267786D01*
X62792614Y-116267786D02*
X62789758Y-116303176D01*
X62789758Y-116303176D02*
X62787503Y-116338554D01*
X62787503Y-116338554D02*
X62785853Y-116373919D01*
X62785853Y-116373919D02*
X62784811Y-116409272D01*
X62784811Y-116409272D02*
X62784381Y-116444613D01*
X62784381Y-116444613D02*
X62784568Y-116479941D01*
X62784568Y-116479941D02*
X62785375Y-116515257D01*
X62785375Y-116515257D02*
X62786805Y-116550560D01*
X62786805Y-116550560D02*
X62788864Y-116585851D01*
X62788864Y-116585851D02*
X62791554Y-116621129D01*
X62791554Y-116621129D02*
X62794880Y-116656395D01*
X62794880Y-116656395D02*
X62798846Y-116691649D01*
X62798846Y-116691649D02*
X62803455Y-116726890D01*
X62803455Y-116726890D02*
X62808711Y-116762119D01*
X62808711Y-116762119D02*
X62814618Y-116797336D01*
X62814618Y-116797336D02*
X62821180Y-116832540D01*
X62821180Y-116832540D02*
X62828401Y-116867731D01*
X62828401Y-116867731D02*
X62836285Y-116902911D01*
X62836285Y-116902911D02*
X62844836Y-116938077D01*
X62844836Y-116938077D02*
X62854057Y-116973232D01*
X62854057Y-116973232D02*
X62863952Y-117008374D01*
X62863952Y-117008374D02*
X62874526Y-117043504D01*
X63289393Y-117610771D02*
X63293373Y-117613741D01*
X63293373Y-117613741D02*
X63297379Y-117616700D01*
X63297379Y-117616700D02*
X63301407Y-117619650D01*
X63301407Y-117619650D02*
X63305458Y-117622590D01*
X63305458Y-117622590D02*
X63309530Y-117625522D01*
X63309530Y-117625522D02*
X63313623Y-117628448D01*
X63313623Y-117628448D02*
X63317737Y-117631369D01*
X63317737Y-117631369D02*
X63321870Y-117634285D01*
X63321870Y-117634285D02*
X63326022Y-117637198D01*
X63326022Y-117637198D02*
X63330191Y-117640110D01*
X63330191Y-117640110D02*
X63334377Y-117643020D01*
X63334377Y-117643020D02*
X63338580Y-117645931D01*
X63338580Y-117645931D02*
X63342798Y-117648843D01*
X63342798Y-117648843D02*
X63347031Y-117651759D01*
X63347031Y-117651759D02*
X63351278Y-117654678D01*
X63351278Y-117654678D02*
X63355538Y-117657602D01*
X63355538Y-117657602D02*
X63359811Y-117660532D01*
X63359811Y-117660532D02*
X63364095Y-117663469D01*
X63364095Y-117663469D02*
X63368390Y-117666416D01*
X63368390Y-117666416D02*
X63372695Y-117669371D01*
X63372695Y-117669371D02*
X63377009Y-117672338D01*
X63377009Y-117672338D02*
X63381332Y-117675317D01*
X63381332Y-117675317D02*
X63385663Y-117678309D01*
X63385663Y-117678309D02*
X63390000Y-117681315D01*
X63390000Y-117681315D02*
X63394344Y-117684337D01*
X63394344Y-117684337D02*
X63398693Y-117687375D01*
X63398693Y-117687375D02*
X63403047Y-117690431D01*
X63403047Y-117690431D02*
X63407405Y-117693506D01*
X63407405Y-117693506D02*
X63411766Y-117696602D01*
X63411766Y-117696602D02*
X63416129Y-117699719D01*
X63416129Y-117699719D02*
X63420494Y-117702858D01*
X63420494Y-117702858D02*
X63424860Y-117706021D01*
X53283910Y-117847837D02*
X53360114Y-117834606D01*
X53360114Y-117834606D02*
X53433568Y-117818415D01*
X53433568Y-117818415D02*
X53504301Y-117799390D01*
X53504301Y-117799390D02*
X53572338Y-117777660D01*
X53572338Y-117777660D02*
X53637709Y-117753352D01*
X53637709Y-117753352D02*
X53700442Y-117726593D01*
X53700442Y-117726593D02*
X53760564Y-117697511D01*
X53760564Y-117697511D02*
X53818103Y-117666233D01*
X53818103Y-117666233D02*
X53873087Y-117632888D01*
X53873087Y-117632888D02*
X53925544Y-117597601D01*
X53925544Y-117597601D02*
X53975503Y-117560502D01*
X53975503Y-117560502D02*
X54022990Y-117521717D01*
X54022990Y-117521717D02*
X54068033Y-117481374D01*
X54068033Y-117481374D02*
X54110662Y-117439601D01*
X54110662Y-117439601D02*
X54150903Y-117396524D01*
X54150903Y-117396524D02*
X54188784Y-117352272D01*
X54188784Y-117352272D02*
X54224334Y-117306972D01*
X54224334Y-117306972D02*
X54257580Y-117260752D01*
X54257580Y-117260752D02*
X54288550Y-117213738D01*
X54288550Y-117213738D02*
X54317273Y-117166060D01*
X54317273Y-117166060D02*
X54343775Y-117117843D01*
X54343775Y-117117843D02*
X54368085Y-117069215D01*
X54368085Y-117069215D02*
X54390231Y-117020305D01*
X54390231Y-117020305D02*
X54410241Y-116971239D01*
X54410241Y-116971239D02*
X54428142Y-116922146D01*
X54428142Y-116922146D02*
X54443963Y-116873152D01*
X54443963Y-116873152D02*
X54457731Y-116824385D01*
X54457731Y-116824385D02*
X54469474Y-116775973D01*
X54469474Y-116775973D02*
X54479221Y-116728043D01*
X54479221Y-116728043D02*
X54486999Y-116680722D01*
X54486999Y-116680722D02*
X54492836Y-116634139D01*
X54492836Y-116634139D02*
X54496760Y-116588421D01*
X65522476Y-117788571D02*
X65491303Y-117794785D01*
X65491303Y-117794785D02*
X65458961Y-117799541D01*
X65458961Y-117799541D02*
X65425529Y-117802843D01*
X65425529Y-117802843D02*
X65391089Y-117804698D01*
X65391089Y-117804698D02*
X65355725Y-117805108D01*
X65355725Y-117805108D02*
X65319516Y-117804081D01*
X65319516Y-117804081D02*
X65282546Y-117801620D01*
X65282546Y-117801620D02*
X65244895Y-117797732D01*
X65244895Y-117797732D02*
X65206646Y-117792420D01*
X65206646Y-117792420D02*
X65167880Y-117785689D01*
X65167880Y-117785689D02*
X65128679Y-117777546D01*
X65128679Y-117777546D02*
X65089126Y-117767995D01*
X65089126Y-117767995D02*
X65049301Y-117757041D01*
X65049301Y-117757041D02*
X65009286Y-117744688D01*
X65009286Y-117744688D02*
X64969164Y-117730943D01*
X64969164Y-117730943D02*
X64929016Y-117715810D01*
X64929016Y-117715810D02*
X64888923Y-117699294D01*
X64888923Y-117699294D02*
X64848968Y-117681400D01*
X64848968Y-117681400D02*
X64809233Y-117662133D01*
X64809233Y-117662133D02*
X64769798Y-117641499D01*
X64769798Y-117641499D02*
X64730747Y-117619502D01*
X64730747Y-117619502D02*
X64692160Y-117596147D01*
X64692160Y-117596147D02*
X64654120Y-117571440D01*
X64654120Y-117571440D02*
X64616708Y-117545385D01*
X64616708Y-117545385D02*
X64580006Y-117517988D01*
X64580006Y-117517988D02*
X64544096Y-117489252D01*
X64544096Y-117489252D02*
X64509059Y-117459185D01*
X64509059Y-117459185D02*
X64474978Y-117427790D01*
X64474978Y-117427790D02*
X64441934Y-117395073D01*
X64441934Y-117395073D02*
X64410009Y-117361038D01*
X64410009Y-117361038D02*
X64379284Y-117325691D01*
X64379284Y-117325691D02*
X64349843Y-117289037D01*
X64768943Y-115394621D02*
X64764186Y-115398794D01*
X64764186Y-115398794D02*
X64759443Y-115402980D01*
X64759443Y-115402980D02*
X64754713Y-115407179D01*
X64754713Y-115407179D02*
X64749996Y-115411392D01*
X64749996Y-115411392D02*
X64745293Y-115415619D01*
X64745293Y-115415619D02*
X64740605Y-115419860D01*
X64740605Y-115419860D02*
X64735931Y-115424116D01*
X64735931Y-115424116D02*
X64731273Y-115428387D01*
X64731273Y-115428387D02*
X64726629Y-115432674D01*
X64726629Y-115432674D02*
X64722002Y-115436976D01*
X64722002Y-115436976D02*
X64717391Y-115441295D01*
X64717391Y-115441295D02*
X64712797Y-115445631D01*
X64712797Y-115445631D02*
X64708220Y-115449983D01*
X64708220Y-115449983D02*
X64703660Y-115454353D01*
X64703660Y-115454353D02*
X64699118Y-115458741D01*
X64699118Y-115458741D02*
X64694595Y-115463147D01*
X64694595Y-115463147D02*
X64690090Y-115467571D01*
X64690090Y-115467571D02*
X64685604Y-115472015D01*
X64685604Y-115472015D02*
X64681137Y-115476478D01*
X64681137Y-115476478D02*
X64676690Y-115480961D01*
X64676690Y-115480961D02*
X64672263Y-115485464D01*
X64672263Y-115485464D02*
X64667857Y-115489987D01*
X64667857Y-115489987D02*
X64663472Y-115494531D01*
X64663472Y-115494531D02*
X64659108Y-115499097D01*
X64659108Y-115499097D02*
X64654765Y-115503685D01*
X64654765Y-115503685D02*
X64650445Y-115508294D01*
X64650445Y-115508294D02*
X64646147Y-115512926D01*
X64646147Y-115512926D02*
X64641873Y-115517581D01*
X64641873Y-115517581D02*
X64637621Y-115522259D01*
X64637621Y-115522259D02*
X64633393Y-115526961D01*
X64633393Y-115526961D02*
X64629189Y-115531686D01*
X64629189Y-115531686D02*
X64625010Y-115536437D01*
X64290576Y-115654971D02*
X64307015Y-115631568D01*
X64307015Y-115631568D02*
X64323790Y-115608588D01*
X64323790Y-115608588D02*
X64340900Y-115586034D01*
X64340900Y-115586034D02*
X64358346Y-115563908D01*
X64358346Y-115563908D02*
X64376129Y-115542211D01*
X64376129Y-115542211D02*
X64394248Y-115520946D01*
X64394248Y-115520946D02*
X64412705Y-115500114D01*
X64412705Y-115500114D02*
X64431499Y-115479717D01*
X64431499Y-115479717D02*
X64450632Y-115459757D01*
X64450632Y-115459757D02*
X64470102Y-115440237D01*
X64470102Y-115440237D02*
X64489912Y-115421157D01*
X64489912Y-115421157D02*
X64510060Y-115402520D01*
X64510060Y-115402520D02*
X64530548Y-115384329D01*
X64530548Y-115384329D02*
X64551376Y-115366584D01*
X64551376Y-115366584D02*
X64572544Y-115349288D01*
X64572544Y-115349288D02*
X64594053Y-115332443D01*
X64594053Y-115332443D02*
X64615903Y-115316051D01*
X64615903Y-115316051D02*
X64638094Y-115300113D01*
X64638094Y-115300113D02*
X64660627Y-115284632D01*
X64660627Y-115284632D02*
X64683503Y-115269609D01*
X64683503Y-115269609D02*
X64706721Y-115255046D01*
X64706721Y-115255046D02*
X64730282Y-115240946D01*
X64730282Y-115240946D02*
X64754186Y-115227311D01*
X64754186Y-115227311D02*
X64778435Y-115214141D01*
X64778435Y-115214141D02*
X64803027Y-115201440D01*
X64803027Y-115201440D02*
X64827964Y-115189209D01*
X64827964Y-115189209D02*
X64853246Y-115177450D01*
X64853246Y-115177450D02*
X64878873Y-115166165D01*
X64878873Y-115166165D02*
X64904846Y-115155356D01*
X64904846Y-115155356D02*
X64931165Y-115145025D01*
X64931165Y-115145025D02*
X64957830Y-115135173D01*
X64957830Y-115135173D02*
X64984843Y-115125804D01*
X63410043Y-115193537D02*
X63404902Y-115197090D01*
X63404902Y-115197090D02*
X63399797Y-115200608D01*
X63399797Y-115200608D02*
X63394728Y-115204093D01*
X63394728Y-115204093D02*
X63389694Y-115207547D01*
X63389694Y-115207547D02*
X63384695Y-115210971D01*
X63384695Y-115210971D02*
X63379728Y-115214368D01*
X63379728Y-115214368D02*
X63374794Y-115217739D01*
X63374794Y-115217739D02*
X63369892Y-115221086D01*
X63369892Y-115221086D02*
X63365021Y-115224412D01*
X63365021Y-115224412D02*
X63360180Y-115227718D01*
X63360180Y-115227718D02*
X63355369Y-115231006D01*
X63355369Y-115231006D02*
X63350586Y-115234278D01*
X63350586Y-115234278D02*
X63345831Y-115237537D01*
X63345831Y-115237537D02*
X63341103Y-115240783D01*
X63341103Y-115240783D02*
X63336402Y-115244019D01*
X63336402Y-115244019D02*
X63331726Y-115247247D01*
X63331726Y-115247247D02*
X63327075Y-115250469D01*
X63327075Y-115250469D02*
X63322448Y-115253686D01*
X63322448Y-115253686D02*
X63317844Y-115256902D01*
X63317844Y-115256902D02*
X63313263Y-115260117D01*
X63313263Y-115260117D02*
X63308703Y-115263333D01*
X63308703Y-115263333D02*
X63304165Y-115266553D01*
X63304165Y-115266553D02*
X63299646Y-115269778D01*
X63299646Y-115269778D02*
X63295147Y-115273011D01*
X63295147Y-115273011D02*
X63290667Y-115276253D01*
X63290667Y-115276253D02*
X63286204Y-115279506D01*
X63286204Y-115279506D02*
X63281759Y-115282773D01*
X63281759Y-115282773D02*
X63277329Y-115286054D01*
X63277329Y-115286054D02*
X63272916Y-115289353D01*
X63272916Y-115289353D02*
X63268516Y-115292671D01*
X63268516Y-115292671D02*
X63264131Y-115296009D01*
X63264131Y-115296009D02*
X63259760Y-115299371D01*
X64625010Y-115536437D02*
X64620855Y-115541211D01*
X64620855Y-115541211D02*
X64616724Y-115546010D01*
X64616724Y-115546010D02*
X64612618Y-115550830D01*
X64612618Y-115550830D02*
X64608535Y-115555673D01*
X64608535Y-115555673D02*
X64604476Y-115560535D01*
X64604476Y-115560535D02*
X64600439Y-115565416D01*
X64600439Y-115565416D02*
X64596425Y-115570315D01*
X64596425Y-115570315D02*
X64592433Y-115575231D01*
X64592433Y-115575231D02*
X64588462Y-115580162D01*
X64588462Y-115580162D02*
X64584513Y-115585108D01*
X64584513Y-115585108D02*
X64580585Y-115590067D01*
X64580585Y-115590067D02*
X64576677Y-115595038D01*
X64576677Y-115595038D02*
X64572790Y-115600019D01*
X64572790Y-115600019D02*
X64568922Y-115605011D01*
X64568922Y-115605011D02*
X64565074Y-115610011D01*
X64565074Y-115610011D02*
X64561245Y-115615018D01*
X64561245Y-115615018D02*
X64557434Y-115620031D01*
X64557434Y-115620031D02*
X64553642Y-115625050D01*
X64553642Y-115625050D02*
X64549867Y-115630072D01*
X64549867Y-115630072D02*
X64546110Y-115635097D01*
X64546110Y-115635097D02*
X64542370Y-115640124D01*
X64542370Y-115640124D02*
X64538646Y-115645151D01*
X64538646Y-115645151D02*
X64534939Y-115650177D01*
X64534939Y-115650177D02*
X64531248Y-115655202D01*
X64531248Y-115655202D02*
X64527572Y-115660223D01*
X64527572Y-115660223D02*
X64523911Y-115665240D01*
X64523911Y-115665240D02*
X64520265Y-115670251D01*
X64520265Y-115670251D02*
X64516633Y-115675256D01*
X64516633Y-115675256D02*
X64513016Y-115680253D01*
X64513016Y-115680253D02*
X64509412Y-115685241D01*
X64509412Y-115685241D02*
X64505821Y-115690220D01*
X64505821Y-115690220D02*
X64502243Y-115695187D01*
X60770560Y-116474121D02*
X60770560Y-116474121D01*
X62874526Y-117043504D02*
X62881669Y-117065394D01*
X62881669Y-117065394D02*
X62889207Y-117087011D01*
X62889207Y-117087011D02*
X62897139Y-117108357D01*
X62897139Y-117108357D02*
X62905461Y-117129431D01*
X62905461Y-117129431D02*
X62914173Y-117150234D01*
X62914173Y-117150234D02*
X62923272Y-117170765D01*
X62923272Y-117170765D02*
X62932756Y-117191027D01*
X62932756Y-117191027D02*
X62942623Y-117211018D01*
X62942623Y-117211018D02*
X62952872Y-117230739D01*
X62952872Y-117230739D02*
X62963500Y-117250191D01*
X62963500Y-117250191D02*
X62974505Y-117269374D01*
X62974505Y-117269374D02*
X62985886Y-117288288D01*
X62985886Y-117288288D02*
X62997641Y-117306935D01*
X62997641Y-117306935D02*
X63009768Y-117325313D01*
X63009768Y-117325313D02*
X63022264Y-117343424D01*
X63022264Y-117343424D02*
X63035128Y-117361268D01*
X63035128Y-117361268D02*
X63048358Y-117378845D01*
X63048358Y-117378845D02*
X63061952Y-117396156D01*
X63061952Y-117396156D02*
X63075907Y-117413201D01*
X63075907Y-117413201D02*
X63090223Y-117429981D01*
X63090223Y-117429981D02*
X63104897Y-117446496D01*
X63104897Y-117446496D02*
X63119927Y-117462746D01*
X63119927Y-117462746D02*
X63135312Y-117478731D01*
X63135312Y-117478731D02*
X63151048Y-117494453D01*
X63151048Y-117494453D02*
X63167135Y-117509911D01*
X63167135Y-117509911D02*
X63183571Y-117525106D01*
X63183571Y-117525106D02*
X63200353Y-117540038D01*
X63200353Y-117540038D02*
X63217479Y-117554708D01*
X63217479Y-117554708D02*
X63234949Y-117569115D01*
X63234949Y-117569115D02*
X63252759Y-117583261D01*
X63252759Y-117583261D02*
X63270907Y-117597146D01*
X63270907Y-117597146D02*
X63289393Y-117610771D01*
X54175026Y-115612637D02*
X54152783Y-115586802D01*
X54152783Y-115586802D02*
X54130109Y-115561683D01*
X54130109Y-115561683D02*
X54107010Y-115537277D01*
X54107010Y-115537277D02*
X54083488Y-115513579D01*
X54083488Y-115513579D02*
X54059547Y-115490587D01*
X54059547Y-115490587D02*
X54035192Y-115468297D01*
X54035192Y-115468297D02*
X54010426Y-115446705D01*
X54010426Y-115446705D02*
X53985253Y-115425808D01*
X53985253Y-115425808D02*
X53959677Y-115405602D01*
X53959677Y-115405602D02*
X53933702Y-115386085D01*
X53933702Y-115386085D02*
X53907331Y-115367251D01*
X53907331Y-115367251D02*
X53880569Y-115349099D01*
X53880569Y-115349099D02*
X53853420Y-115331624D01*
X53853420Y-115331624D02*
X53825886Y-115314824D01*
X53825886Y-115314824D02*
X53797973Y-115298694D01*
X53797973Y-115298694D02*
X53769684Y-115283230D01*
X53769684Y-115283230D02*
X53741023Y-115268431D01*
X53741023Y-115268431D02*
X53711993Y-115254291D01*
X53711993Y-115254291D02*
X53682600Y-115240808D01*
X53682600Y-115240808D02*
X53652846Y-115227978D01*
X53652846Y-115227978D02*
X53622735Y-115215797D01*
X53622735Y-115215797D02*
X53592272Y-115204263D01*
X53592272Y-115204263D02*
X53561459Y-115193371D01*
X53561459Y-115193371D02*
X53530302Y-115183119D01*
X53530302Y-115183119D02*
X53498804Y-115173502D01*
X53498804Y-115173502D02*
X53466969Y-115164517D01*
X53466969Y-115164517D02*
X53434800Y-115156160D01*
X53434800Y-115156160D02*
X53402302Y-115148429D01*
X53402302Y-115148429D02*
X53369478Y-115141320D01*
X53369478Y-115141320D02*
X53336333Y-115134829D01*
X53336333Y-115134829D02*
X53302870Y-115128952D01*
X53302870Y-115128952D02*
X53269093Y-115123687D01*
X61824660Y-117310204D02*
X61786310Y-117259585D01*
X61786310Y-117259585D02*
X61750628Y-117207800D01*
X61750628Y-117207800D02*
X61717605Y-117154935D01*
X61717605Y-117154935D02*
X61687229Y-117101075D01*
X61687229Y-117101075D02*
X61659490Y-117046307D01*
X61659490Y-117046307D02*
X61634378Y-116990716D01*
X61634378Y-116990716D02*
X61611882Y-116934389D01*
X61611882Y-116934389D02*
X61591991Y-116877411D01*
X61591991Y-116877411D02*
X61574696Y-116819870D01*
X61574696Y-116819870D02*
X61559985Y-116761849D01*
X61559985Y-116761849D02*
X61547849Y-116703437D01*
X61547849Y-116703437D02*
X61538277Y-116644719D01*
X61538277Y-116644719D02*
X61531257Y-116585780D01*
X61531257Y-116585780D02*
X61526781Y-116526707D01*
X61526781Y-116526707D02*
X61524837Y-116467586D01*
X61524837Y-116467586D02*
X61525415Y-116408504D01*
X61525415Y-116408504D02*
X61528505Y-116349545D01*
X61528505Y-116349545D02*
X61534095Y-116290796D01*
X61534095Y-116290796D02*
X61542177Y-116232343D01*
X61542177Y-116232343D02*
X61552738Y-116174273D01*
X61552738Y-116174273D02*
X61565769Y-116116671D01*
X61565769Y-116116671D02*
X61581259Y-116059623D01*
X61581259Y-116059623D02*
X61599197Y-116003215D01*
X61599197Y-116003215D02*
X61619574Y-115947533D01*
X61619574Y-115947533D02*
X61642379Y-115892664D01*
X61642379Y-115892664D02*
X61667601Y-115838693D01*
X61667601Y-115838693D02*
X61695229Y-115785707D01*
X61695229Y-115785707D02*
X61725255Y-115733791D01*
X61725255Y-115733791D02*
X61757666Y-115683032D01*
X61757666Y-115683032D02*
X61792452Y-115633515D01*
X61792452Y-115633515D02*
X61829604Y-115585327D01*
X61829604Y-115585327D02*
X61869110Y-115538554D01*
X55383643Y-117748354D02*
X55383643Y-117748354D01*
X64931926Y-115276087D02*
X64926574Y-115279466D01*
X64926574Y-115279466D02*
X64921235Y-115282859D01*
X64921235Y-115282859D02*
X64915910Y-115286266D01*
X64915910Y-115286266D02*
X64910598Y-115289688D01*
X64910598Y-115289688D02*
X64905300Y-115293125D01*
X64905300Y-115293125D02*
X64900016Y-115296579D01*
X64900016Y-115296579D02*
X64894747Y-115300049D01*
X64894747Y-115300049D02*
X64889493Y-115303537D01*
X64889493Y-115303537D02*
X64884255Y-115307044D01*
X64884255Y-115307044D02*
X64879032Y-115310571D01*
X64879032Y-115310571D02*
X64873826Y-115314117D01*
X64873826Y-115314117D02*
X64868636Y-115317684D01*
X64868636Y-115317684D02*
X64863464Y-115321274D01*
X64863464Y-115321274D02*
X64858309Y-115324885D01*
X64858309Y-115324885D02*
X64853172Y-115328520D01*
X64853172Y-115328520D02*
X64848053Y-115332179D01*
X64848053Y-115332179D02*
X64842952Y-115335862D01*
X64842952Y-115335862D02*
X64837871Y-115339572D01*
X64837871Y-115339572D02*
X64832809Y-115343307D01*
X64832809Y-115343307D02*
X64827767Y-115347070D01*
X64827767Y-115347070D02*
X64822745Y-115350860D01*
X64822745Y-115350860D02*
X64817743Y-115354680D01*
X64817743Y-115354680D02*
X64812762Y-115358529D01*
X64812762Y-115358529D02*
X64807803Y-115362407D01*
X64807803Y-115362407D02*
X64802866Y-115366317D01*
X64802866Y-115366317D02*
X64797950Y-115370259D01*
X64797950Y-115370259D02*
X64793057Y-115374233D01*
X64793057Y-115374233D02*
X64788187Y-115378241D01*
X64788187Y-115378241D02*
X64783340Y-115382283D01*
X64783340Y-115382283D02*
X64778517Y-115386360D01*
X64778517Y-115386360D02*
X64773717Y-115390472D01*
X64773717Y-115390472D02*
X64768943Y-115394621D01*
X59322760Y-115096171D02*
X59392285Y-115094038D01*
X59392285Y-115094038D02*
X59461477Y-115095530D01*
X59461477Y-115095530D02*
X59530211Y-115100576D01*
X59530211Y-115100576D02*
X59598364Y-115109106D01*
X59598364Y-115109106D02*
X59665814Y-115121048D01*
X59665814Y-115121048D02*
X59732437Y-115136331D01*
X59732437Y-115136331D02*
X59798109Y-115154884D01*
X59798109Y-115154884D02*
X59862708Y-115176637D01*
X59862708Y-115176637D02*
X59926110Y-115201518D01*
X59926110Y-115201518D02*
X59988192Y-115229457D01*
X59988192Y-115229457D02*
X60048830Y-115260382D01*
X60048830Y-115260382D02*
X60107902Y-115294223D01*
X60107902Y-115294223D02*
X60165284Y-115330909D01*
X60165284Y-115330909D02*
X60220853Y-115370369D01*
X60220853Y-115370369D02*
X60274486Y-115412532D01*
X60274486Y-115412532D02*
X60326059Y-115457327D01*
X60326059Y-115457327D02*
X60375450Y-115504682D01*
X60375450Y-115504682D02*
X60422534Y-115554528D01*
X60422534Y-115554528D02*
X60467189Y-115606794D01*
X60467189Y-115606794D02*
X60509291Y-115661407D01*
X60509291Y-115661407D02*
X60548718Y-115718298D01*
X60548718Y-115718298D02*
X60585346Y-115777395D01*
X60585346Y-115777395D02*
X60619051Y-115838628D01*
X60619051Y-115838628D02*
X60649711Y-115901926D01*
X60649711Y-115901926D02*
X60677202Y-115967217D01*
X60677202Y-115967217D02*
X60701401Y-116034431D01*
X60701401Y-116034431D02*
X60722184Y-116103497D01*
X60722184Y-116103497D02*
X60739429Y-116174343D01*
X60739429Y-116174343D02*
X60753013Y-116246900D01*
X60753013Y-116246900D02*
X60762811Y-116321096D01*
X60762811Y-116321096D02*
X60768701Y-116396860D01*
X60768701Y-116396860D02*
X60770560Y-116474121D01*
X63410043Y-115193537D02*
X63410043Y-115193537D01*
X55383643Y-117748354D02*
X55384076Y-117746412D01*
X55384076Y-117746412D02*
X55384582Y-117744554D01*
X55384582Y-117744554D02*
X55385800Y-117741073D01*
X55385800Y-117741073D02*
X55387279Y-117737884D01*
X55387279Y-117737884D02*
X55389000Y-117734959D01*
X55389000Y-117734959D02*
X55390944Y-117732269D01*
X55390944Y-117732269D02*
X55393093Y-117729787D01*
X55393093Y-117729787D02*
X55395428Y-117727485D01*
X55395428Y-117727485D02*
X55397930Y-117725335D01*
X55397930Y-117725335D02*
X55400581Y-117723308D01*
X55400581Y-117723308D02*
X55403362Y-117721378D01*
X55403362Y-117721378D02*
X55406255Y-117719516D01*
X55406255Y-117719516D02*
X55409241Y-117717695D01*
X55409241Y-117717695D02*
X55412301Y-117715886D01*
X55412301Y-117715886D02*
X55415417Y-117714061D01*
X55415417Y-117714061D02*
X55418571Y-117712193D01*
X55418571Y-117712193D02*
X55421743Y-117710254D01*
X60770560Y-116474121D02*
X60769301Y-116540471D01*
X60769301Y-116540471D02*
X60764784Y-116606119D01*
X60764784Y-116606119D02*
X60757084Y-116670980D01*
X60757084Y-116670980D02*
X60746280Y-116734970D01*
X60746280Y-116734970D02*
X60732448Y-116798008D01*
X60732448Y-116798008D02*
X60715665Y-116860008D01*
X60715665Y-116860008D02*
X60696009Y-116920889D01*
X60696009Y-116920889D02*
X60673556Y-116980566D01*
X60673556Y-116980566D02*
X60648385Y-117038956D01*
X60648385Y-117038956D02*
X60620571Y-117095976D01*
X60620571Y-117095976D02*
X60590192Y-117151543D01*
X60590192Y-117151543D02*
X60557326Y-117205573D01*
X60557326Y-117205573D02*
X60522048Y-117257983D01*
X60522048Y-117257983D02*
X60484438Y-117308690D01*
X60484438Y-117308690D02*
X60444570Y-117357609D01*
X60444570Y-117357609D02*
X60402524Y-117404659D01*
X60402524Y-117404659D02*
X60358375Y-117449756D01*
X60358375Y-117449756D02*
X60312201Y-117492816D01*
X60312201Y-117492816D02*
X60264079Y-117533756D01*
X60264079Y-117533756D02*
X60214087Y-117572492D01*
X60214087Y-117572492D02*
X60162300Y-117608942D01*
X60162300Y-117608942D02*
X60108797Y-117643022D01*
X60108797Y-117643022D02*
X60053655Y-117674648D01*
X60053655Y-117674648D02*
X59996950Y-117703738D01*
X59996950Y-117703738D02*
X59938761Y-117730208D01*
X59938761Y-117730208D02*
X59879163Y-117753974D01*
X59879163Y-117753974D02*
X59818234Y-117774954D01*
X59818234Y-117774954D02*
X59756051Y-117793064D01*
X59756051Y-117793064D02*
X59692692Y-117808220D01*
X59692692Y-117808220D02*
X59628233Y-117820340D01*
X59628233Y-117820340D02*
X59562752Y-117829340D01*
X59562752Y-117829340D02*
X59496326Y-117835137D01*
X63424860Y-117706021D02*
X63384465Y-117725088D01*
X63384465Y-117725088D02*
X63342334Y-117742573D01*
X63342334Y-117742573D02*
X63298579Y-117758431D01*
X63298579Y-117758431D02*
X63253310Y-117772617D01*
X63253310Y-117772617D02*
X63206640Y-117785087D01*
X63206640Y-117785087D02*
X63158680Y-117795796D01*
X63158680Y-117795796D02*
X63109542Y-117804700D01*
X63109542Y-117804700D02*
X63059337Y-117811754D01*
X63059337Y-117811754D02*
X63008178Y-117816914D01*
X63008178Y-117816914D02*
X62956175Y-117820135D01*
X62956175Y-117820135D02*
X62903440Y-117821372D01*
X62903440Y-117821372D02*
X62850085Y-117820580D01*
X62850085Y-117820580D02*
X62796222Y-117817717D01*
X62796222Y-117817717D02*
X62741961Y-117812735D01*
X62741961Y-117812735D02*
X62687416Y-117805592D01*
X62687416Y-117805592D02*
X62632697Y-117796243D01*
X62632697Y-117796243D02*
X62577916Y-117784642D01*
X62577916Y-117784642D02*
X62523184Y-117770746D01*
X62523184Y-117770746D02*
X62468614Y-117754510D01*
X62468614Y-117754510D02*
X62414316Y-117735889D01*
X62414316Y-117735889D02*
X62360403Y-117714839D01*
X62360403Y-117714839D02*
X62306986Y-117691314D01*
X62306986Y-117691314D02*
X62254177Y-117665272D01*
X62254177Y-117665272D02*
X62202087Y-117636666D01*
X62202087Y-117636666D02*
X62150829Y-117605453D01*
X62150829Y-117605453D02*
X62100512Y-117571587D01*
X62100512Y-117571587D02*
X62051250Y-117535025D01*
X62051250Y-117535025D02*
X62003154Y-117495722D01*
X62003154Y-117495722D02*
X61956335Y-117453632D01*
X61956335Y-117453632D02*
X61910905Y-117408713D01*
X61910905Y-117408713D02*
X61866976Y-117360918D01*
X61866976Y-117360918D02*
X61824660Y-117310204D01*
X56962676Y-117348304D02*
X56917656Y-117400646D01*
X56917656Y-117400646D02*
X56871179Y-117449767D01*
X56871179Y-117449767D02*
X56823363Y-117495732D01*
X56823363Y-117495732D02*
X56774325Y-117538605D01*
X56774325Y-117538605D02*
X56724184Y-117578452D01*
X56724184Y-117578452D02*
X56673056Y-117615338D01*
X56673056Y-117615338D02*
X56621060Y-117649328D01*
X56621060Y-117649328D02*
X56568314Y-117680488D01*
X56568314Y-117680488D02*
X56514936Y-117708881D01*
X56514936Y-117708881D02*
X56461042Y-117734574D01*
X56461042Y-117734574D02*
X56406752Y-117757632D01*
X56406752Y-117757632D02*
X56352183Y-117778119D01*
X56352183Y-117778119D02*
X56297452Y-117796101D01*
X56297452Y-117796101D02*
X56242678Y-117811643D01*
X56242678Y-117811643D02*
X56187979Y-117824809D01*
X56187979Y-117824809D02*
X56133472Y-117835666D01*
X56133472Y-117835666D02*
X56079274Y-117844278D01*
X56079274Y-117844278D02*
X56025505Y-117850710D01*
X56025505Y-117850710D02*
X55972281Y-117855028D01*
X55972281Y-117855028D02*
X55919721Y-117857296D01*
X55919721Y-117857296D02*
X55867943Y-117857579D01*
X55867943Y-117857579D02*
X55817063Y-117855944D01*
X55817063Y-117855944D02*
X55767200Y-117852454D01*
X55767200Y-117852454D02*
X55718473Y-117847175D01*
X55718473Y-117847175D02*
X55670997Y-117840173D01*
X55670997Y-117840173D02*
X55624893Y-117831511D01*
X55624893Y-117831511D02*
X55580276Y-117821256D01*
X55580276Y-117821256D02*
X55537266Y-117809472D01*
X55537266Y-117809472D02*
X55495980Y-117796225D01*
X55495980Y-117796225D02*
X55456535Y-117781579D01*
X55456535Y-117781579D02*
X55419050Y-117765601D01*
X55419050Y-117765601D02*
X55383643Y-117748354D01*
X53269093Y-115123687D02*
X53282965Y-115120870D01*
X53282965Y-115120870D02*
X53296801Y-115118368D01*
X53296801Y-115118368D02*
X53310602Y-115116173D01*
X53310602Y-115116173D02*
X53324370Y-115114277D01*
X53324370Y-115114277D02*
X53338105Y-115112673D01*
X53338105Y-115112673D02*
X53351809Y-115111352D01*
X53351809Y-115111352D02*
X53365482Y-115110308D01*
X53365482Y-115110308D02*
X53379126Y-115109531D01*
X53379126Y-115109531D02*
X53392743Y-115109015D01*
X53392743Y-115109015D02*
X53406332Y-115108752D01*
X53406332Y-115108752D02*
X53419897Y-115108734D01*
X53419897Y-115108734D02*
X53433436Y-115108953D01*
X53433436Y-115108953D02*
X53446953Y-115109401D01*
X53446953Y-115109401D02*
X53460447Y-115110071D01*
X53460447Y-115110071D02*
X53473920Y-115110955D01*
X53473920Y-115110955D02*
X53487374Y-115112045D01*
X53487374Y-115112045D02*
X53500809Y-115113334D01*
X53500809Y-115113334D02*
X53514227Y-115114813D01*
X53514227Y-115114813D02*
X53527628Y-115116475D01*
X53527628Y-115116475D02*
X53541014Y-115118313D01*
X53541014Y-115118313D02*
X53554387Y-115120317D01*
X53554387Y-115120317D02*
X53567746Y-115122482D01*
X53567746Y-115122482D02*
X53581094Y-115124798D01*
X53581094Y-115124798D02*
X53594431Y-115127259D01*
X53594431Y-115127259D02*
X53607759Y-115129856D01*
X53607759Y-115129856D02*
X53621079Y-115132581D01*
X53621079Y-115132581D02*
X53634392Y-115135428D01*
X53634392Y-115135428D02*
X53647699Y-115138388D01*
X53647699Y-115138388D02*
X53661001Y-115141453D01*
X53661001Y-115141453D02*
X53674300Y-115144616D01*
X53674300Y-115144616D02*
X53687597Y-115147869D01*
X53687597Y-115147869D02*
X53700893Y-115151204D01*
X64406993Y-115872987D02*
X64404611Y-115878747D01*
X64404611Y-115878747D02*
X64402232Y-115884520D01*
X64402232Y-115884520D02*
X64399854Y-115890305D01*
X64399854Y-115890305D02*
X64397480Y-115896101D01*
X64397480Y-115896101D02*
X64395110Y-115901907D01*
X64395110Y-115901907D02*
X64392747Y-115907724D01*
X64392747Y-115907724D02*
X64390390Y-115913551D01*
X64390390Y-115913551D02*
X64388042Y-115919388D01*
X64388042Y-115919388D02*
X64385703Y-115925234D01*
X64385703Y-115925234D02*
X64383374Y-115931089D01*
X64383374Y-115931089D02*
X64381057Y-115936953D01*
X64381057Y-115936953D02*
X64378752Y-115942825D01*
X64378752Y-115942825D02*
X64376462Y-115948704D01*
X64376462Y-115948704D02*
X64374187Y-115954591D01*
X64374187Y-115954591D02*
X64371928Y-115960485D01*
X64371928Y-115960485D02*
X64369686Y-115966385D01*
X64369686Y-115966385D02*
X64367463Y-115972292D01*
X64367463Y-115972292D02*
X64365260Y-115978204D01*
X64365260Y-115978204D02*
X64363078Y-115984122D01*
X64363078Y-115984122D02*
X64360918Y-115990045D01*
X64360918Y-115990045D02*
X64358781Y-115995972D01*
X64358781Y-115995972D02*
X64356668Y-116001904D01*
X64356668Y-116001904D02*
X64354582Y-116007839D01*
X64354582Y-116007839D02*
X64352521Y-116013779D01*
X64352521Y-116013779D02*
X64350489Y-116019721D01*
X64350489Y-116019721D02*
X64348486Y-116025666D01*
X64348486Y-116025666D02*
X64346513Y-116031613D01*
X64346513Y-116031613D02*
X64344572Y-116037562D01*
X64344572Y-116037562D02*
X64342663Y-116043513D01*
X64342663Y-116043513D02*
X64340787Y-116049465D01*
X64340787Y-116049465D02*
X64338947Y-116055417D01*
X64338947Y-116055417D02*
X64337143Y-116061371D01*
X58029476Y-116567254D02*
X58026265Y-116493312D01*
X58026265Y-116493312D02*
X58026885Y-116420368D01*
X58026885Y-116420368D02*
X58031232Y-116348504D01*
X58031232Y-116348504D02*
X58039207Y-116277799D01*
X58039207Y-116277799D02*
X58050708Y-116208335D01*
X58050708Y-116208335D02*
X58065632Y-116140191D01*
X58065632Y-116140191D02*
X58083878Y-116073449D01*
X58083878Y-116073449D02*
X58105345Y-116008189D01*
X58105345Y-116008189D02*
X58129931Y-115944491D01*
X58129931Y-115944491D02*
X58157535Y-115882437D01*
X58157535Y-115882437D02*
X58188055Y-115822107D01*
X58188055Y-115822107D02*
X58221390Y-115763582D01*
X58221390Y-115763582D02*
X58257437Y-115706941D01*
X58257437Y-115706941D02*
X58296096Y-115652266D01*
X58296096Y-115652266D02*
X58337265Y-115599638D01*
X58337265Y-115599638D02*
X58380843Y-115549137D01*
X58380843Y-115549137D02*
X58426727Y-115500843D01*
X58426727Y-115500843D02*
X58474816Y-115454838D01*
X58474816Y-115454838D02*
X58525009Y-115411201D01*
X58525009Y-115411201D02*
X58577205Y-115370014D01*
X58577205Y-115370014D02*
X58631301Y-115331357D01*
X58631301Y-115331357D02*
X58687196Y-115295310D01*
X58687196Y-115295310D02*
X58744789Y-115261955D01*
X58744789Y-115261955D02*
X58803978Y-115231372D01*
X58803978Y-115231372D02*
X58864661Y-115203642D01*
X58864661Y-115203642D02*
X58926737Y-115178844D01*
X58926737Y-115178844D02*
X58990105Y-115157061D01*
X58990105Y-115157061D02*
X59054662Y-115138371D01*
X59054662Y-115138371D02*
X59120308Y-115122857D01*
X59120308Y-115122857D02*
X59186940Y-115110598D01*
X59186940Y-115110598D02*
X59254458Y-115101676D01*
X59254458Y-115101676D02*
X59322760Y-115096171D01*
X64349843Y-117289037D02*
X64313400Y-117240008D01*
X64313400Y-117240008D02*
X64279460Y-117190202D01*
X64279460Y-117190202D02*
X64247996Y-117139681D01*
X64247996Y-117139681D02*
X64218981Y-117088511D01*
X64218981Y-117088511D02*
X64192388Y-117036757D01*
X64192388Y-117036757D02*
X64168188Y-116984483D01*
X64168188Y-116984483D02*
X64146357Y-116931754D01*
X64146357Y-116931754D02*
X64126865Y-116878635D01*
X64126865Y-116878635D02*
X64109686Y-116825190D01*
X64109686Y-116825190D02*
X64094793Y-116771484D01*
X64094793Y-116771484D02*
X64082159Y-116717582D01*
X64082159Y-116717582D02*
X64071757Y-116663549D01*
X64071757Y-116663549D02*
X64063559Y-116609449D01*
X64063559Y-116609449D02*
X64057539Y-116555348D01*
X64057539Y-116555348D02*
X64053669Y-116501309D01*
X64053669Y-116501309D02*
X64051922Y-116447397D01*
X64051922Y-116447397D02*
X64052271Y-116393678D01*
X64052271Y-116393678D02*
X64054688Y-116340216D01*
X64054688Y-116340216D02*
X64059148Y-116287075D01*
X64059148Y-116287075D02*
X64065622Y-116234321D01*
X64065622Y-116234321D02*
X64074084Y-116182018D01*
X64074084Y-116182018D02*
X64084506Y-116130231D01*
X64084506Y-116130231D02*
X64096861Y-116079024D01*
X64096861Y-116079024D02*
X64111122Y-116028463D01*
X64111122Y-116028463D02*
X64127262Y-115978611D01*
X64127262Y-115978611D02*
X64145254Y-115929535D01*
X64145254Y-115929535D02*
X64165071Y-115881298D01*
X64165071Y-115881298D02*
X64186685Y-115833965D01*
X64186685Y-115833965D02*
X64210070Y-115787601D01*
X64210070Y-115787601D02*
X64235198Y-115742271D01*
X64235198Y-115742271D02*
X64262042Y-115698039D01*
X64262042Y-115698039D02*
X64290576Y-115654971D01*
X59496326Y-117835137D02*
X59418683Y-117838252D01*
X59418683Y-117838252D02*
X59342558Y-117837362D01*
X59342558Y-117837362D02*
X59268003Y-117832591D01*
X59268003Y-117832591D02*
X59195073Y-117824066D01*
X59195073Y-117824066D02*
X59123819Y-117811909D01*
X59123819Y-117811909D02*
X59054297Y-117796246D01*
X59054297Y-117796246D02*
X58986559Y-117777202D01*
X58986559Y-117777202D02*
X58920658Y-117754902D01*
X58920658Y-117754902D02*
X58856650Y-117729470D01*
X58856650Y-117729470D02*
X58794586Y-117701031D01*
X58794586Y-117701031D02*
X58734520Y-117669711D01*
X58734520Y-117669711D02*
X58676506Y-117635633D01*
X58676506Y-117635633D02*
X58620597Y-117598923D01*
X58620597Y-117598923D02*
X58566847Y-117559705D01*
X58566847Y-117559705D02*
X58515310Y-117518104D01*
X58515310Y-117518104D02*
X58466038Y-117474245D01*
X58466038Y-117474245D02*
X58419086Y-117428253D01*
X58419086Y-117428253D02*
X58374506Y-117380253D01*
X58374506Y-117380253D02*
X58332352Y-117330369D01*
X58332352Y-117330369D02*
X58292678Y-117278726D01*
X58292678Y-117278726D02*
X58255537Y-117225450D01*
X58255537Y-117225450D02*
X58220983Y-117170664D01*
X58220983Y-117170664D02*
X58189069Y-117114493D01*
X58189069Y-117114493D02*
X58159849Y-117057063D01*
X58159849Y-117057063D02*
X58133376Y-116998499D01*
X58133376Y-116998499D02*
X58109703Y-116938924D01*
X58109703Y-116938924D02*
X58088885Y-116878464D01*
X58088885Y-116878464D02*
X58070974Y-116817243D01*
X58070974Y-116817243D02*
X58056024Y-116755387D01*
X58056024Y-116755387D02*
X58044089Y-116693021D01*
X58044089Y-116693021D02*
X58035221Y-116630268D01*
X58035221Y-116630268D02*
X58029476Y-116567254D01*
X55914926Y-115894154D02*
X55906939Y-115869925D01*
X55906939Y-115869925D02*
X55898462Y-115846054D01*
X55898462Y-115846054D02*
X55889500Y-115822536D01*
X55889500Y-115822536D02*
X55880058Y-115799371D01*
X55880058Y-115799371D02*
X55870142Y-115776554D01*
X55870142Y-115776554D02*
X55859757Y-115754083D01*
X55859757Y-115754083D02*
X55848908Y-115731956D01*
X55848908Y-115731956D02*
X55837601Y-115710169D01*
X55837601Y-115710169D02*
X55825842Y-115688720D01*
X55825842Y-115688720D02*
X55813635Y-115667607D01*
X55813635Y-115667607D02*
X55800986Y-115646826D01*
X55800986Y-115646826D02*
X55787901Y-115626374D01*
X55787901Y-115626374D02*
X55774385Y-115606250D01*
X55774385Y-115606250D02*
X55760443Y-115586451D01*
X55760443Y-115586451D02*
X55746081Y-115566973D01*
X55746081Y-115566973D02*
X55731305Y-115547814D01*
X55731305Y-115547814D02*
X55716119Y-115528971D01*
X55716119Y-115528971D02*
X55700530Y-115510442D01*
X55700530Y-115510442D02*
X55684542Y-115492223D01*
X55684542Y-115492223D02*
X55668161Y-115474313D01*
X55668161Y-115474313D02*
X55651392Y-115456708D01*
X55651392Y-115456708D02*
X55634241Y-115439406D01*
X55634241Y-115439406D02*
X55616714Y-115422404D01*
X55616714Y-115422404D02*
X55598815Y-115405699D01*
X55598815Y-115405699D02*
X55580551Y-115389289D01*
X55580551Y-115389289D02*
X55561925Y-115373171D01*
X55561925Y-115373171D02*
X55542945Y-115357341D01*
X55542945Y-115357341D02*
X55523616Y-115341798D01*
X55523616Y-115341798D02*
X55503942Y-115326539D01*
X55503942Y-115326539D02*
X55483929Y-115311561D01*
X55483929Y-115311561D02*
X55463583Y-115296861D01*
X55463583Y-115296861D02*
X55442910Y-115282437D01*
X64984843Y-115125804D02*
X65000333Y-115120725D01*
X65000333Y-115120725D02*
X65015848Y-115115811D01*
X65015848Y-115115811D02*
X65031388Y-115111065D01*
X65031388Y-115111065D02*
X65046953Y-115106489D01*
X65046953Y-115106489D02*
X65062543Y-115102087D01*
X65062543Y-115102087D02*
X65078158Y-115097861D01*
X65078158Y-115097861D02*
X65093797Y-115093815D01*
X65093797Y-115093815D02*
X65109461Y-115089953D01*
X65109461Y-115089953D02*
X65125150Y-115086276D01*
X65125150Y-115086276D02*
X65140864Y-115082788D01*
X65140864Y-115082788D02*
X65156602Y-115079493D01*
X65156602Y-115079493D02*
X65172366Y-115076393D01*
X65172366Y-115076393D02*
X65188154Y-115073491D01*
X65188154Y-115073491D02*
X65203967Y-115070791D01*
X65203967Y-115070791D02*
X65219805Y-115068295D01*
X65219805Y-115068295D02*
X65235667Y-115066008D01*
X65235667Y-115066008D02*
X65251555Y-115063931D01*
X65251555Y-115063931D02*
X65267467Y-115062068D01*
X65267467Y-115062068D02*
X65283404Y-115060422D01*
X65283404Y-115060422D02*
X65299366Y-115058996D01*
X65299366Y-115058996D02*
X65315352Y-115057794D01*
X65315352Y-115057794D02*
X65331364Y-115056817D01*
X65331364Y-115056817D02*
X65347400Y-115056071D01*
X65347400Y-115056071D02*
X65363461Y-115055557D01*
X65363461Y-115055557D02*
X65379547Y-115055278D01*
X65379547Y-115055278D02*
X65395658Y-115055238D01*
X65395658Y-115055238D02*
X65411793Y-115055440D01*
X65411793Y-115055440D02*
X65427953Y-115055887D01*
X65427953Y-115055887D02*
X65444138Y-115056582D01*
X65444138Y-115056582D02*
X65460348Y-115057528D01*
X65460348Y-115057528D02*
X65476583Y-115058729D01*
X65476583Y-115058729D02*
X65492843Y-115060187D01*
X64337143Y-116061371D02*
X64335375Y-116067727D01*
X64335375Y-116067727D02*
X64333644Y-116074094D01*
X64333644Y-116074094D02*
X64331949Y-116080473D01*
X64331949Y-116080473D02*
X64330288Y-116086861D01*
X64330288Y-116086861D02*
X64328662Y-116093259D01*
X64328662Y-116093259D02*
X64327069Y-116099666D01*
X64327069Y-116099666D02*
X64325508Y-116106080D01*
X64325508Y-116106080D02*
X64323979Y-116112501D01*
X64323979Y-116112501D02*
X64322482Y-116118928D01*
X64322482Y-116118928D02*
X64321014Y-116125361D01*
X64321014Y-116125361D02*
X64319576Y-116131799D01*
X64319576Y-116131799D02*
X64318167Y-116138240D01*
X64318167Y-116138240D02*
X64316785Y-116144684D01*
X64316785Y-116144684D02*
X64315431Y-116151131D01*
X64315431Y-116151131D02*
X64314103Y-116157579D01*
X64314103Y-116157579D02*
X64312801Y-116164029D01*
X64312801Y-116164029D02*
X64311523Y-116170478D01*
X64311523Y-116170478D02*
X64310270Y-116176926D01*
X64310270Y-116176926D02*
X64309040Y-116183373D01*
X64309040Y-116183373D02*
X64307832Y-116189817D01*
X64307832Y-116189817D02*
X64306646Y-116196258D01*
X64306646Y-116196258D02*
X64305480Y-116202696D01*
X64305480Y-116202696D02*
X64304335Y-116209129D01*
X64304335Y-116209129D02*
X64303210Y-116215556D01*
X64303210Y-116215556D02*
X64302103Y-116221977D01*
X64302103Y-116221977D02*
X64301014Y-116228391D01*
X64301014Y-116228391D02*
X64299941Y-116234798D01*
X64299941Y-116234798D02*
X64298886Y-116241196D01*
X64298886Y-116241196D02*
X64297845Y-116247584D01*
X64297845Y-116247584D02*
X64296820Y-116253963D01*
X64296820Y-116253963D02*
X64295808Y-116260330D01*
X64295808Y-116260330D02*
X64294810Y-116266687D01*
X65118193Y-115178721D02*
X65112240Y-115181691D01*
X65112240Y-115181691D02*
X65106287Y-115184651D01*
X65106287Y-115184651D02*
X65100337Y-115187601D01*
X65100337Y-115187601D02*
X65094388Y-115190544D01*
X65094388Y-115190544D02*
X65088443Y-115193481D01*
X65088443Y-115193481D02*
X65082502Y-115196412D01*
X65082502Y-115196412D02*
X65076565Y-115199341D01*
X65076565Y-115199341D02*
X65070634Y-115202268D01*
X65070634Y-115202268D02*
X65064709Y-115205196D01*
X65064709Y-115205196D02*
X65058790Y-115208124D01*
X65058790Y-115208124D02*
X65052880Y-115211056D01*
X65052880Y-115211056D02*
X65046978Y-115213993D01*
X65046978Y-115213993D02*
X65041086Y-115216935D01*
X65041086Y-115216935D02*
X65035203Y-115219886D01*
X65035203Y-115219886D02*
X65029332Y-115222846D01*
X65029332Y-115222846D02*
X65023472Y-115225816D01*
X65023472Y-115225816D02*
X65017624Y-115228799D01*
X65017624Y-115228799D02*
X65011790Y-115231796D01*
X65011790Y-115231796D02*
X65005969Y-115234809D01*
X65005969Y-115234809D02*
X65000163Y-115237838D01*
X65000163Y-115237838D02*
X64994373Y-115240886D01*
X64994373Y-115240886D02*
X64988599Y-115243954D01*
X64988599Y-115243954D02*
X64982842Y-115247044D01*
X64982842Y-115247044D02*
X64977103Y-115250158D01*
X64977103Y-115250158D02*
X64971383Y-115253296D01*
X64971383Y-115253296D02*
X64965682Y-115256460D01*
X64965682Y-115256460D02*
X64960001Y-115259652D01*
X64960001Y-115259652D02*
X64954341Y-115262874D01*
X64954341Y-115262874D02*
X64948702Y-115266127D01*
X64948702Y-115266127D02*
X64943087Y-115269412D01*
X64943087Y-115269412D02*
X64937494Y-115272731D01*
X64937494Y-115272731D02*
X64931926Y-115276087D01*
X63259760Y-115299371D02*
X63240523Y-115314203D01*
X63240523Y-115314203D02*
X63221709Y-115329332D01*
X63221709Y-115329332D02*
X63203316Y-115344756D01*
X63203316Y-115344756D02*
X63185345Y-115360473D01*
X63185345Y-115360473D02*
X63167796Y-115376481D01*
X63167796Y-115376481D02*
X63150668Y-115392779D01*
X63150668Y-115392779D02*
X63133962Y-115409365D01*
X63133962Y-115409365D02*
X63117678Y-115426238D01*
X63117678Y-115426238D02*
X63101815Y-115443396D01*
X63101815Y-115443396D02*
X63086374Y-115460838D01*
X63086374Y-115460838D02*
X63071355Y-115478563D01*
X63071355Y-115478563D02*
X63056758Y-115496567D01*
X63056758Y-115496567D02*
X63042582Y-115514851D01*
X63042582Y-115514851D02*
X63028828Y-115533413D01*
X63028828Y-115533413D02*
X63015495Y-115552250D01*
X63015495Y-115552250D02*
X63002584Y-115571362D01*
X63002584Y-115571362D02*
X62990095Y-115590746D01*
X62990095Y-115590746D02*
X62978028Y-115610402D01*
X62978028Y-115610402D02*
X62966382Y-115630328D01*
X62966382Y-115630328D02*
X62955158Y-115650522D01*
X62955158Y-115650522D02*
X62944355Y-115670982D01*
X62944355Y-115670982D02*
X62933975Y-115691708D01*
X62933975Y-115691708D02*
X62924016Y-115712697D01*
X62924016Y-115712697D02*
X62914478Y-115733948D01*
X62914478Y-115733948D02*
X62905362Y-115755460D01*
X62905362Y-115755460D02*
X62896668Y-115777230D01*
X62896668Y-115777230D02*
X62888396Y-115799258D01*
X62888396Y-115799258D02*
X62880545Y-115821542D01*
X62880545Y-115821542D02*
X62873116Y-115844080D01*
X62873116Y-115844080D02*
X62866109Y-115866870D01*
X62866109Y-115866870D02*
X62859523Y-115889912D01*
X62859523Y-115889912D02*
X62853360Y-115913204D01*
X61869110Y-115538554D02*
X61913888Y-115490280D01*
X61913888Y-115490280D02*
X61960038Y-115445033D01*
X61960038Y-115445033D02*
X62007446Y-115402753D01*
X62007446Y-115402753D02*
X62055996Y-115363379D01*
X62055996Y-115363379D02*
X62105572Y-115326849D01*
X62105572Y-115326849D02*
X62156059Y-115293103D01*
X62156059Y-115293103D02*
X62207342Y-115262081D01*
X62207342Y-115262081D02*
X62259304Y-115233721D01*
X62259304Y-115233721D02*
X62311830Y-115207962D01*
X62311830Y-115207962D02*
X62364805Y-115184743D01*
X62364805Y-115184743D02*
X62418114Y-115164004D01*
X62418114Y-115164004D02*
X62471640Y-115145684D01*
X62471640Y-115145684D02*
X62525269Y-115129723D01*
X62525269Y-115129723D02*
X62578884Y-115116058D01*
X62578884Y-115116058D02*
X62632371Y-115104629D01*
X62632371Y-115104629D02*
X62685614Y-115095376D01*
X62685614Y-115095376D02*
X62738497Y-115088238D01*
X62738497Y-115088238D02*
X62790904Y-115083153D01*
X62790904Y-115083153D02*
X62842721Y-115080062D01*
X62842721Y-115080062D02*
X62893832Y-115078902D01*
X62893832Y-115078902D02*
X62944122Y-115079613D01*
X62944122Y-115079613D02*
X62993474Y-115082135D01*
X62993474Y-115082135D02*
X63041773Y-115086407D01*
X63041773Y-115086407D02*
X63088905Y-115092367D01*
X63088905Y-115092367D02*
X63134752Y-115099954D01*
X63134752Y-115099954D02*
X63179201Y-115109109D01*
X63179201Y-115109109D02*
X63222135Y-115119770D01*
X63222135Y-115119770D02*
X63263439Y-115131876D01*
X63263439Y-115131876D02*
X63302997Y-115145367D01*
X63302997Y-115145367D02*
X63340694Y-115160181D01*
X63340694Y-115160181D02*
X63376414Y-115176258D01*
X63376414Y-115176258D02*
X63410043Y-115193537D01*
%TO.C,*%
D11*
%TD*%
M02*
