%TF.GenerationSoftware,KiCad,Pcbnew,(5.1.10)-1*%
%TF.CreationDate,2021-12-10T08:59:27-08:00*%
%TF.ProjectId,5col-switchplate-encoder,35636f6c-2d73-4776-9974-6368706c6174,rev?*%
%TF.SameCoordinates,Original*%
%TF.FileFunction,Legend,Bot*%
%TF.FilePolarity,Positive*%
%FSLAX46Y46*%
G04 Gerber Fmt 4.6, Leading zero omitted, Abs format (unit mm)*
G04 Created by KiCad (PCBNEW (5.1.10)-1) date 2021-12-10 08:59:27*
%MOMM*%
%LPD*%
G01*
G04 APERTURE LIST*
%ADD10C,0.001920*%
G04 APERTURE END LIST*
D10*
X63420626Y-115202004D02*
X63415485Y-115205557D01*
X63415485Y-115205557D02*
X63410380Y-115209075D01*
X63410380Y-115209075D02*
X63405311Y-115212560D01*
X63405311Y-115212560D02*
X63400277Y-115216014D01*
X63400277Y-115216014D02*
X63395278Y-115219438D01*
X63395278Y-115219438D02*
X63390311Y-115222835D01*
X63390311Y-115222835D02*
X63385377Y-115226206D01*
X63385377Y-115226206D02*
X63380475Y-115229553D01*
X63380475Y-115229553D02*
X63375604Y-115232879D01*
X63375604Y-115232879D02*
X63370763Y-115236185D01*
X63370763Y-115236185D02*
X63365952Y-115239473D01*
X63365952Y-115239473D02*
X63361169Y-115242745D01*
X63361169Y-115242745D02*
X63356414Y-115246004D01*
X63356414Y-115246004D02*
X63351686Y-115249250D01*
X63351686Y-115249250D02*
X63346985Y-115252486D01*
X63346985Y-115252486D02*
X63342309Y-115255714D01*
X63342309Y-115255714D02*
X63337658Y-115258936D01*
X63337658Y-115258936D02*
X63333031Y-115262153D01*
X63333031Y-115262153D02*
X63328427Y-115265369D01*
X63328427Y-115265369D02*
X63323846Y-115268584D01*
X63323846Y-115268584D02*
X63319286Y-115271800D01*
X63319286Y-115271800D02*
X63314748Y-115275020D01*
X63314748Y-115275020D02*
X63310229Y-115278245D01*
X63310229Y-115278245D02*
X63305730Y-115281478D01*
X63305730Y-115281478D02*
X63301250Y-115284720D01*
X63301250Y-115284720D02*
X63296787Y-115287973D01*
X63296787Y-115287973D02*
X63292342Y-115291240D01*
X63292342Y-115291240D02*
X63287912Y-115294521D01*
X63287912Y-115294521D02*
X63283499Y-115297820D01*
X63283499Y-115297820D02*
X63279099Y-115301138D01*
X63279099Y-115301138D02*
X63274714Y-115304476D01*
X63274714Y-115304476D02*
X63270343Y-115307838D01*
X64360426Y-117297504D02*
X64323983Y-117248475D01*
X64323983Y-117248475D02*
X64290043Y-117198669D01*
X64290043Y-117198669D02*
X64258579Y-117148148D01*
X64258579Y-117148148D02*
X64229564Y-117096978D01*
X64229564Y-117096978D02*
X64202971Y-117045224D01*
X64202971Y-117045224D02*
X64178771Y-116992950D01*
X64178771Y-116992950D02*
X64156940Y-116940221D01*
X64156940Y-116940221D02*
X64137448Y-116887102D01*
X64137448Y-116887102D02*
X64120269Y-116833657D01*
X64120269Y-116833657D02*
X64105376Y-116779951D01*
X64105376Y-116779951D02*
X64092742Y-116726049D01*
X64092742Y-116726049D02*
X64082340Y-116672016D01*
X64082340Y-116672016D02*
X64074142Y-116617916D01*
X64074142Y-116617916D02*
X64068122Y-116563815D01*
X64068122Y-116563815D02*
X64064252Y-116509776D01*
X64064252Y-116509776D02*
X64062505Y-116455864D01*
X64062505Y-116455864D02*
X64062854Y-116402145D01*
X64062854Y-116402145D02*
X64065271Y-116348683D01*
X64065271Y-116348683D02*
X64069731Y-116295542D01*
X64069731Y-116295542D02*
X64076205Y-116242788D01*
X64076205Y-116242788D02*
X64084667Y-116190485D01*
X64084667Y-116190485D02*
X64095089Y-116138698D01*
X64095089Y-116138698D02*
X64107444Y-116087491D01*
X64107444Y-116087491D02*
X64121705Y-116036930D01*
X64121705Y-116036930D02*
X64137845Y-115987078D01*
X64137845Y-115987078D02*
X64155837Y-115938002D01*
X64155837Y-115938002D02*
X64175654Y-115889765D01*
X64175654Y-115889765D02*
X64197268Y-115842432D01*
X64197268Y-115842432D02*
X64220653Y-115796068D01*
X64220653Y-115796068D02*
X64245781Y-115750738D01*
X64245781Y-115750738D02*
X64272625Y-115706506D01*
X64272625Y-115706506D02*
X64301159Y-115663438D01*
X64779526Y-115403088D02*
X64774769Y-115407261D01*
X64774769Y-115407261D02*
X64770026Y-115411447D01*
X64770026Y-115411447D02*
X64765296Y-115415646D01*
X64765296Y-115415646D02*
X64760579Y-115419859D01*
X64760579Y-115419859D02*
X64755876Y-115424086D01*
X64755876Y-115424086D02*
X64751188Y-115428327D01*
X64751188Y-115428327D02*
X64746514Y-115432583D01*
X64746514Y-115432583D02*
X64741856Y-115436854D01*
X64741856Y-115436854D02*
X64737212Y-115441141D01*
X64737212Y-115441141D02*
X64732585Y-115445443D01*
X64732585Y-115445443D02*
X64727974Y-115449762D01*
X64727974Y-115449762D02*
X64723380Y-115454098D01*
X64723380Y-115454098D02*
X64718803Y-115458450D01*
X64718803Y-115458450D02*
X64714243Y-115462820D01*
X64714243Y-115462820D02*
X64709701Y-115467208D01*
X64709701Y-115467208D02*
X64705178Y-115471614D01*
X64705178Y-115471614D02*
X64700673Y-115476038D01*
X64700673Y-115476038D02*
X64696187Y-115480482D01*
X64696187Y-115480482D02*
X64691720Y-115484945D01*
X64691720Y-115484945D02*
X64687273Y-115489428D01*
X64687273Y-115489428D02*
X64682846Y-115493931D01*
X64682846Y-115493931D02*
X64678440Y-115498454D01*
X64678440Y-115498454D02*
X64674055Y-115502998D01*
X64674055Y-115502998D02*
X64669691Y-115507564D01*
X64669691Y-115507564D02*
X64665348Y-115512152D01*
X64665348Y-115512152D02*
X64661028Y-115516761D01*
X64661028Y-115516761D02*
X64656730Y-115521393D01*
X64656730Y-115521393D02*
X64652456Y-115526048D01*
X64652456Y-115526048D02*
X64648204Y-115530726D01*
X64648204Y-115530726D02*
X64643976Y-115535428D01*
X64643976Y-115535428D02*
X64639772Y-115540153D01*
X64639772Y-115540153D02*
X64635593Y-115544904D01*
X60781143Y-116482588D02*
X60781143Y-116482588D01*
X63435443Y-117714488D02*
X63395048Y-117733555D01*
X63395048Y-117733555D02*
X63352917Y-117751040D01*
X63352917Y-117751040D02*
X63309162Y-117766898D01*
X63309162Y-117766898D02*
X63263893Y-117781084D01*
X63263893Y-117781084D02*
X63217223Y-117793554D01*
X63217223Y-117793554D02*
X63169263Y-117804263D01*
X63169263Y-117804263D02*
X63120125Y-117813167D01*
X63120125Y-117813167D02*
X63069920Y-117820221D01*
X63069920Y-117820221D02*
X63018761Y-117825381D01*
X63018761Y-117825381D02*
X62966758Y-117828602D01*
X62966758Y-117828602D02*
X62914023Y-117829839D01*
X62914023Y-117829839D02*
X62860668Y-117829047D01*
X62860668Y-117829047D02*
X62806805Y-117826184D01*
X62806805Y-117826184D02*
X62752544Y-117821202D01*
X62752544Y-117821202D02*
X62697999Y-117814059D01*
X62697999Y-117814059D02*
X62643280Y-117804710D01*
X62643280Y-117804710D02*
X62588499Y-117793109D01*
X62588499Y-117793109D02*
X62533767Y-117779213D01*
X62533767Y-117779213D02*
X62479197Y-117762977D01*
X62479197Y-117762977D02*
X62424899Y-117744356D01*
X62424899Y-117744356D02*
X62370986Y-117723306D01*
X62370986Y-117723306D02*
X62317569Y-117699781D01*
X62317569Y-117699781D02*
X62264760Y-117673739D01*
X62264760Y-117673739D02*
X62212670Y-117645133D01*
X62212670Y-117645133D02*
X62161412Y-117613920D01*
X62161412Y-117613920D02*
X62111095Y-117580054D01*
X62111095Y-117580054D02*
X62061833Y-117543492D01*
X62061833Y-117543492D02*
X62013737Y-117504189D01*
X62013737Y-117504189D02*
X61966918Y-117462099D01*
X61966918Y-117462099D02*
X61921488Y-117417180D01*
X61921488Y-117417180D02*
X61877559Y-117369385D01*
X61877559Y-117369385D02*
X61835243Y-117318671D01*
X53294493Y-117856304D02*
X53294493Y-117856304D01*
X54507343Y-116596888D02*
X54509141Y-116562477D01*
X54509141Y-116562477D02*
X54510171Y-116528305D01*
X54510171Y-116528305D02*
X54510432Y-116494370D01*
X54510432Y-116494370D02*
X54509926Y-116460677D01*
X54509926Y-116460677D02*
X54508653Y-116427225D01*
X54508653Y-116427225D02*
X54506612Y-116394016D01*
X54506612Y-116394016D02*
X54503805Y-116361052D01*
X54503805Y-116361052D02*
X54500232Y-116328335D01*
X54500232Y-116328335D02*
X54495892Y-116295866D01*
X54495892Y-116295866D02*
X54490788Y-116263647D01*
X54490788Y-116263647D02*
X54484918Y-116231678D01*
X54484918Y-116231678D02*
X54478284Y-116199963D01*
X54478284Y-116199963D02*
X54470885Y-116168501D01*
X54470885Y-116168501D02*
X54462722Y-116137296D01*
X54462722Y-116137296D02*
X54453796Y-116106347D01*
X54453796Y-116106347D02*
X54444107Y-116075658D01*
X54444107Y-116075658D02*
X54433655Y-116045229D01*
X54433655Y-116045229D02*
X54422440Y-116015062D01*
X54422440Y-116015062D02*
X54410464Y-115985159D01*
X54410464Y-115985159D02*
X54397726Y-115955521D01*
X54397726Y-115955521D02*
X54384227Y-115926149D01*
X54384227Y-115926149D02*
X54369967Y-115897045D01*
X54369967Y-115897045D02*
X54354947Y-115868212D01*
X54354947Y-115868212D02*
X54339166Y-115839649D01*
X54339166Y-115839649D02*
X54322626Y-115811360D01*
X54322626Y-115811360D02*
X54305327Y-115783345D01*
X54305327Y-115783345D02*
X54287269Y-115755606D01*
X54287269Y-115755606D02*
X54268452Y-115728144D01*
X54268452Y-115728144D02*
X54248877Y-115700961D01*
X54248877Y-115700961D02*
X54228545Y-115674059D01*
X54228545Y-115674059D02*
X54207455Y-115647440D01*
X54207455Y-115647440D02*
X54185609Y-115621104D01*
X64301159Y-115663438D02*
X64317598Y-115640035D01*
X64317598Y-115640035D02*
X64334373Y-115617055D01*
X64334373Y-115617055D02*
X64351483Y-115594501D01*
X64351483Y-115594501D02*
X64368929Y-115572375D01*
X64368929Y-115572375D02*
X64386712Y-115550678D01*
X64386712Y-115550678D02*
X64404831Y-115529413D01*
X64404831Y-115529413D02*
X64423288Y-115508581D01*
X64423288Y-115508581D02*
X64442082Y-115488184D01*
X64442082Y-115488184D02*
X64461215Y-115468224D01*
X64461215Y-115468224D02*
X64480685Y-115448704D01*
X64480685Y-115448704D02*
X64500495Y-115429624D01*
X64500495Y-115429624D02*
X64520643Y-115410987D01*
X64520643Y-115410987D02*
X64541131Y-115392796D01*
X64541131Y-115392796D02*
X64561959Y-115375051D01*
X64561959Y-115375051D02*
X64583127Y-115357755D01*
X64583127Y-115357755D02*
X64604636Y-115340910D01*
X64604636Y-115340910D02*
X64626486Y-115324518D01*
X64626486Y-115324518D02*
X64648677Y-115308580D01*
X64648677Y-115308580D02*
X64671210Y-115293099D01*
X64671210Y-115293099D02*
X64694086Y-115278076D01*
X64694086Y-115278076D02*
X64717304Y-115263513D01*
X64717304Y-115263513D02*
X64740865Y-115249413D01*
X64740865Y-115249413D02*
X64764769Y-115235778D01*
X64764769Y-115235778D02*
X64789018Y-115222608D01*
X64789018Y-115222608D02*
X64813610Y-115209907D01*
X64813610Y-115209907D02*
X64838547Y-115197676D01*
X64838547Y-115197676D02*
X64863829Y-115185917D01*
X64863829Y-115185917D02*
X64889456Y-115174632D01*
X64889456Y-115174632D02*
X64915429Y-115163823D01*
X64915429Y-115163823D02*
X64941748Y-115153492D01*
X64941748Y-115153492D02*
X64968413Y-115143640D01*
X64968413Y-115143640D02*
X64995426Y-115134271D01*
X63299976Y-117619238D02*
X63303956Y-117622208D01*
X63303956Y-117622208D02*
X63307962Y-117625167D01*
X63307962Y-117625167D02*
X63311990Y-117628117D01*
X63311990Y-117628117D02*
X63316041Y-117631057D01*
X63316041Y-117631057D02*
X63320113Y-117633989D01*
X63320113Y-117633989D02*
X63324206Y-117636915D01*
X63324206Y-117636915D02*
X63328320Y-117639836D01*
X63328320Y-117639836D02*
X63332453Y-117642752D01*
X63332453Y-117642752D02*
X63336605Y-117645665D01*
X63336605Y-117645665D02*
X63340774Y-117648577D01*
X63340774Y-117648577D02*
X63344960Y-117651487D01*
X63344960Y-117651487D02*
X63349163Y-117654398D01*
X63349163Y-117654398D02*
X63353381Y-117657310D01*
X63353381Y-117657310D02*
X63357614Y-117660226D01*
X63357614Y-117660226D02*
X63361861Y-117663145D01*
X63361861Y-117663145D02*
X63366121Y-117666069D01*
X63366121Y-117666069D02*
X63370394Y-117668999D01*
X63370394Y-117668999D02*
X63374678Y-117671936D01*
X63374678Y-117671936D02*
X63378973Y-117674883D01*
X63378973Y-117674883D02*
X63383278Y-117677838D01*
X63383278Y-117677838D02*
X63387592Y-117680805D01*
X63387592Y-117680805D02*
X63391915Y-117683784D01*
X63391915Y-117683784D02*
X63396246Y-117686776D01*
X63396246Y-117686776D02*
X63400583Y-117689782D01*
X63400583Y-117689782D02*
X63404927Y-117692804D01*
X63404927Y-117692804D02*
X63409276Y-117695842D01*
X63409276Y-117695842D02*
X63413630Y-117698898D01*
X63413630Y-117698898D02*
X63417988Y-117701973D01*
X63417988Y-117701973D02*
X63422349Y-117705069D01*
X63422349Y-117705069D02*
X63426712Y-117708186D01*
X63426712Y-117708186D02*
X63431077Y-117711325D01*
X63431077Y-117711325D02*
X63435443Y-117714488D01*
X64305393Y-116275154D02*
X64304431Y-116281497D01*
X64304431Y-116281497D02*
X64303530Y-116287830D01*
X64303530Y-116287830D02*
X64302690Y-116294151D01*
X64302690Y-116294151D02*
X64301907Y-116300463D01*
X64301907Y-116300463D02*
X64301182Y-116306765D01*
X64301182Y-116306765D02*
X64300513Y-116313058D01*
X64300513Y-116313058D02*
X64299900Y-116319344D01*
X64299900Y-116319344D02*
X64299340Y-116325623D01*
X64299340Y-116325623D02*
X64298833Y-116331896D01*
X64298833Y-116331896D02*
X64298377Y-116338163D01*
X64298377Y-116338163D02*
X64297972Y-116344425D01*
X64297972Y-116344425D02*
X64297616Y-116350684D01*
X64297616Y-116350684D02*
X64297308Y-116356940D01*
X64297308Y-116356940D02*
X64297047Y-116363193D01*
X64297047Y-116363193D02*
X64296831Y-116369444D01*
X64296831Y-116369444D02*
X64296661Y-116375695D01*
X64296661Y-116375695D02*
X64296533Y-116381946D01*
X64296533Y-116381946D02*
X64296448Y-116388198D01*
X64296448Y-116388198D02*
X64296404Y-116394451D01*
X64296404Y-116394451D02*
X64296400Y-116400707D01*
X64296400Y-116400707D02*
X64296435Y-116406965D01*
X64296435Y-116406965D02*
X64296507Y-116413228D01*
X64296507Y-116413228D02*
X64296616Y-116419495D01*
X64296616Y-116419495D02*
X64296760Y-116425768D01*
X64296760Y-116425768D02*
X64296938Y-116432046D01*
X64296938Y-116432046D02*
X64297149Y-116438332D01*
X64297149Y-116438332D02*
X64297392Y-116444626D01*
X64297392Y-116444626D02*
X64297666Y-116450928D01*
X64297666Y-116450928D02*
X64297969Y-116457239D01*
X64297969Y-116457239D02*
X64298300Y-116463560D01*
X64298300Y-116463560D02*
X64298658Y-116469893D01*
X64298658Y-116469893D02*
X64299043Y-116476237D01*
X65128776Y-115187188D02*
X65122823Y-115190158D01*
X65122823Y-115190158D02*
X65116870Y-115193118D01*
X65116870Y-115193118D02*
X65110920Y-115196068D01*
X65110920Y-115196068D02*
X65104971Y-115199011D01*
X65104971Y-115199011D02*
X65099026Y-115201948D01*
X65099026Y-115201948D02*
X65093085Y-115204879D01*
X65093085Y-115204879D02*
X65087148Y-115207808D01*
X65087148Y-115207808D02*
X65081217Y-115210735D01*
X65081217Y-115210735D02*
X65075292Y-115213663D01*
X65075292Y-115213663D02*
X65069373Y-115216591D01*
X65069373Y-115216591D02*
X65063463Y-115219523D01*
X65063463Y-115219523D02*
X65057561Y-115222460D01*
X65057561Y-115222460D02*
X65051669Y-115225402D01*
X65051669Y-115225402D02*
X65045786Y-115228353D01*
X65045786Y-115228353D02*
X65039915Y-115231313D01*
X65039915Y-115231313D02*
X65034055Y-115234283D01*
X65034055Y-115234283D02*
X65028207Y-115237266D01*
X65028207Y-115237266D02*
X65022373Y-115240263D01*
X65022373Y-115240263D02*
X65016552Y-115243276D01*
X65016552Y-115243276D02*
X65010746Y-115246305D01*
X65010746Y-115246305D02*
X65004956Y-115249353D01*
X65004956Y-115249353D02*
X64999182Y-115252421D01*
X64999182Y-115252421D02*
X64993425Y-115255511D01*
X64993425Y-115255511D02*
X64987686Y-115258625D01*
X64987686Y-115258625D02*
X64981966Y-115261763D01*
X64981966Y-115261763D02*
X64976265Y-115264927D01*
X64976265Y-115264927D02*
X64970584Y-115268119D01*
X64970584Y-115268119D02*
X64964924Y-115271341D01*
X64964924Y-115271341D02*
X64959285Y-115274594D01*
X64959285Y-115274594D02*
X64953670Y-115277879D01*
X64953670Y-115277879D02*
X64948077Y-115281198D01*
X64948077Y-115281198D02*
X64942509Y-115284554D01*
X54185609Y-115621104D02*
X54163366Y-115595269D01*
X54163366Y-115595269D02*
X54140692Y-115570150D01*
X54140692Y-115570150D02*
X54117593Y-115545744D01*
X54117593Y-115545744D02*
X54094071Y-115522046D01*
X54094071Y-115522046D02*
X54070130Y-115499054D01*
X54070130Y-115499054D02*
X54045775Y-115476764D01*
X54045775Y-115476764D02*
X54021009Y-115455172D01*
X54021009Y-115455172D02*
X53995836Y-115434275D01*
X53995836Y-115434275D02*
X53970260Y-115414069D01*
X53970260Y-115414069D02*
X53944285Y-115394552D01*
X53944285Y-115394552D02*
X53917914Y-115375718D01*
X53917914Y-115375718D02*
X53891152Y-115357566D01*
X53891152Y-115357566D02*
X53864003Y-115340091D01*
X53864003Y-115340091D02*
X53836469Y-115323291D01*
X53836469Y-115323291D02*
X53808556Y-115307161D01*
X53808556Y-115307161D02*
X53780267Y-115291697D01*
X53780267Y-115291697D02*
X53751606Y-115276898D01*
X53751606Y-115276898D02*
X53722576Y-115262758D01*
X53722576Y-115262758D02*
X53693183Y-115249275D01*
X53693183Y-115249275D02*
X53663429Y-115236445D01*
X53663429Y-115236445D02*
X53633318Y-115224264D01*
X53633318Y-115224264D02*
X53602855Y-115212730D01*
X53602855Y-115212730D02*
X53572042Y-115201838D01*
X53572042Y-115201838D02*
X53540885Y-115191586D01*
X53540885Y-115191586D02*
X53509387Y-115181969D01*
X53509387Y-115181969D02*
X53477552Y-115172984D01*
X53477552Y-115172984D02*
X53445383Y-115164627D01*
X53445383Y-115164627D02*
X53412885Y-115156896D01*
X53412885Y-115156896D02*
X53380061Y-115149787D01*
X53380061Y-115149787D02*
X53346916Y-115143296D01*
X53346916Y-115143296D02*
X53313453Y-115137419D01*
X53313453Y-115137419D02*
X53279676Y-115132154D01*
X56945743Y-115599938D02*
X56984227Y-115646380D01*
X56984227Y-115646380D02*
X57020303Y-115694361D01*
X57020303Y-115694361D02*
X57053969Y-115743780D01*
X57053969Y-115743780D02*
X57085223Y-115794538D01*
X57085223Y-115794538D02*
X57114064Y-115846537D01*
X57114064Y-115846537D02*
X57140489Y-115899677D01*
X57140489Y-115899677D02*
X57164496Y-115953859D01*
X57164496Y-115953859D02*
X57186083Y-116008983D01*
X57186083Y-116008983D02*
X57205249Y-116064951D01*
X57205249Y-116064951D02*
X57221992Y-116121662D01*
X57221992Y-116121662D02*
X57236309Y-116179019D01*
X57236309Y-116179019D02*
X57248198Y-116236922D01*
X57248198Y-116236922D02*
X57257659Y-116295270D01*
X57257659Y-116295270D02*
X57264688Y-116353967D01*
X57264688Y-116353967D02*
X57269283Y-116412911D01*
X57269283Y-116412911D02*
X57271444Y-116472004D01*
X57271444Y-116472004D02*
X57271168Y-116531146D01*
X57271168Y-116531146D02*
X57268453Y-116590239D01*
X57268453Y-116590239D02*
X57263296Y-116649184D01*
X57263296Y-116649184D02*
X57255697Y-116707880D01*
X57255697Y-116707880D02*
X57245653Y-116766229D01*
X57245653Y-116766229D02*
X57233163Y-116824131D01*
X57233163Y-116824131D02*
X57218223Y-116881488D01*
X57218223Y-116881488D02*
X57200833Y-116938200D01*
X57200833Y-116938200D02*
X57180991Y-116994167D01*
X57180991Y-116994167D02*
X57158694Y-117049291D01*
X57158694Y-117049291D02*
X57133940Y-117103473D01*
X57133940Y-117103473D02*
X57106729Y-117156613D01*
X57106729Y-117156613D02*
X57077056Y-117208612D01*
X57077056Y-117208612D02*
X57044922Y-117259371D01*
X57044922Y-117259371D02*
X57010323Y-117308790D01*
X57010323Y-117308790D02*
X56973259Y-117356771D01*
X65503426Y-115068654D02*
X65498230Y-115072290D01*
X65498230Y-115072290D02*
X65492963Y-115075666D01*
X65492963Y-115075666D02*
X65487628Y-115078796D01*
X65487628Y-115078796D02*
X65482230Y-115081693D01*
X65482230Y-115081693D02*
X65476771Y-115084369D01*
X65476771Y-115084369D02*
X65471255Y-115086839D01*
X65471255Y-115086839D02*
X65465686Y-115089114D01*
X65465686Y-115089114D02*
X65460067Y-115091209D01*
X65460067Y-115091209D02*
X65454401Y-115093137D01*
X65454401Y-115093137D02*
X65448692Y-115094911D01*
X65448692Y-115094911D02*
X65442944Y-115096543D01*
X65442944Y-115096543D02*
X65437160Y-115098047D01*
X65437160Y-115098047D02*
X65431343Y-115099437D01*
X65431343Y-115099437D02*
X65425497Y-115100725D01*
X65425497Y-115100725D02*
X65419625Y-115101925D01*
X65419625Y-115101925D02*
X65413732Y-115103050D01*
X65413732Y-115103050D02*
X65407819Y-115104112D01*
X65407819Y-115104112D02*
X65401892Y-115105126D01*
X65401892Y-115105126D02*
X65395953Y-115106104D01*
X65395953Y-115106104D02*
X65390006Y-115107060D01*
X65390006Y-115107060D02*
X65384054Y-115108006D01*
X65384054Y-115108006D02*
X65378101Y-115108956D01*
X65378101Y-115108956D02*
X65372151Y-115109924D01*
X65372151Y-115109924D02*
X65366206Y-115110921D01*
X65366206Y-115110921D02*
X65360270Y-115111962D01*
X65360270Y-115111962D02*
X65354348Y-115113059D01*
X65354348Y-115113059D02*
X65348441Y-115114227D01*
X65348441Y-115114227D02*
X65342555Y-115115477D01*
X65342555Y-115115477D02*
X65336691Y-115116823D01*
X65336691Y-115116823D02*
X65330855Y-115118279D01*
X65330855Y-115118279D02*
X65325048Y-115119857D01*
X65325048Y-115119857D02*
X65319276Y-115121571D01*
X55432326Y-117718721D02*
X55460703Y-117701377D01*
X55460703Y-117701377D02*
X55488292Y-117683480D01*
X55488292Y-117683480D02*
X55515097Y-117665037D01*
X55515097Y-117665037D02*
X55541123Y-117646051D01*
X55541123Y-117646051D02*
X55566376Y-117626529D01*
X55566376Y-117626529D02*
X55590860Y-117606476D01*
X55590860Y-117606476D02*
X55614581Y-117585898D01*
X55614581Y-117585898D02*
X55637543Y-117564799D01*
X55637543Y-117564799D02*
X55659752Y-117543186D01*
X55659752Y-117543186D02*
X55681212Y-117521063D01*
X55681212Y-117521063D02*
X55701929Y-117498437D01*
X55701929Y-117498437D02*
X55721908Y-117475312D01*
X55721908Y-117475312D02*
X55741153Y-117451694D01*
X55741153Y-117451694D02*
X55759671Y-117427589D01*
X55759671Y-117427589D02*
X55777465Y-117403001D01*
X55777465Y-117403001D02*
X55794540Y-117377937D01*
X55794540Y-117377937D02*
X55810903Y-117352402D01*
X55810903Y-117352402D02*
X55826558Y-117326400D01*
X55826558Y-117326400D02*
X55841509Y-117299938D01*
X55841509Y-117299938D02*
X55855763Y-117273021D01*
X55855763Y-117273021D02*
X55869323Y-117245655D01*
X55869323Y-117245655D02*
X55882196Y-117217844D01*
X55882196Y-117217844D02*
X55894385Y-117189595D01*
X55894385Y-117189595D02*
X55905897Y-117160912D01*
X55905897Y-117160912D02*
X55916736Y-117131802D01*
X55916736Y-117131802D02*
X55926907Y-117102269D01*
X55926907Y-117102269D02*
X55936415Y-117072319D01*
X55936415Y-117072319D02*
X55945266Y-117041957D01*
X55945266Y-117041957D02*
X55953464Y-117011190D01*
X55953464Y-117011190D02*
X55961014Y-116980021D01*
X55961014Y-116980021D02*
X55967922Y-116948457D01*
X55967922Y-116948457D02*
X55974193Y-116916504D01*
X55394226Y-117756821D02*
X55394659Y-117754879D01*
X55394659Y-117754879D02*
X55395165Y-117753021D01*
X55395165Y-117753021D02*
X55396383Y-117749540D01*
X55396383Y-117749540D02*
X55397862Y-117746351D01*
X55397862Y-117746351D02*
X55399583Y-117743426D01*
X55399583Y-117743426D02*
X55401527Y-117740736D01*
X55401527Y-117740736D02*
X55403676Y-117738254D01*
X55403676Y-117738254D02*
X55406011Y-117735952D01*
X55406011Y-117735952D02*
X55408513Y-117733802D01*
X55408513Y-117733802D02*
X55411164Y-117731775D01*
X55411164Y-117731775D02*
X55413945Y-117729845D01*
X55413945Y-117729845D02*
X55416838Y-117727983D01*
X55416838Y-117727983D02*
X55419824Y-117726162D01*
X55419824Y-117726162D02*
X55422884Y-117724353D01*
X55422884Y-117724353D02*
X55426000Y-117722528D01*
X55426000Y-117722528D02*
X55429154Y-117720660D01*
X55429154Y-117720660D02*
X55432326Y-117718721D01*
X55394226Y-117756821D02*
X55394226Y-117756821D01*
X59506909Y-117843604D02*
X59429266Y-117846719D01*
X59429266Y-117846719D02*
X59353141Y-117845829D01*
X59353141Y-117845829D02*
X59278586Y-117841058D01*
X59278586Y-117841058D02*
X59205656Y-117832533D01*
X59205656Y-117832533D02*
X59134402Y-117820376D01*
X59134402Y-117820376D02*
X59064880Y-117804713D01*
X59064880Y-117804713D02*
X58997142Y-117785669D01*
X58997142Y-117785669D02*
X58931241Y-117763369D01*
X58931241Y-117763369D02*
X58867233Y-117737937D01*
X58867233Y-117737937D02*
X58805169Y-117709498D01*
X58805169Y-117709498D02*
X58745103Y-117678178D01*
X58745103Y-117678178D02*
X58687089Y-117644100D01*
X58687089Y-117644100D02*
X58631180Y-117607390D01*
X58631180Y-117607390D02*
X58577430Y-117568172D01*
X58577430Y-117568172D02*
X58525893Y-117526571D01*
X58525893Y-117526571D02*
X58476621Y-117482712D01*
X58476621Y-117482712D02*
X58429669Y-117436720D01*
X58429669Y-117436720D02*
X58385089Y-117388720D01*
X58385089Y-117388720D02*
X58342935Y-117338836D01*
X58342935Y-117338836D02*
X58303261Y-117287193D01*
X58303261Y-117287193D02*
X58266120Y-117233917D01*
X58266120Y-117233917D02*
X58231566Y-117179131D01*
X58231566Y-117179131D02*
X58199652Y-117122960D01*
X58199652Y-117122960D02*
X58170432Y-117065530D01*
X58170432Y-117065530D02*
X58143959Y-117006966D01*
X58143959Y-117006966D02*
X58120286Y-116947391D01*
X58120286Y-116947391D02*
X58099468Y-116886931D01*
X58099468Y-116886931D02*
X58081557Y-116825710D01*
X58081557Y-116825710D02*
X58066607Y-116763854D01*
X58066607Y-116763854D02*
X58054672Y-116701488D01*
X58054672Y-116701488D02*
X58045804Y-116638735D01*
X58045804Y-116638735D02*
X58040059Y-116575721D01*
X64995426Y-115134271D02*
X65010916Y-115129192D01*
X65010916Y-115129192D02*
X65026431Y-115124278D01*
X65026431Y-115124278D02*
X65041971Y-115119532D01*
X65041971Y-115119532D02*
X65057536Y-115114956D01*
X65057536Y-115114956D02*
X65073126Y-115110554D01*
X65073126Y-115110554D02*
X65088741Y-115106328D01*
X65088741Y-115106328D02*
X65104380Y-115102282D01*
X65104380Y-115102282D02*
X65120044Y-115098420D01*
X65120044Y-115098420D02*
X65135733Y-115094743D01*
X65135733Y-115094743D02*
X65151447Y-115091255D01*
X65151447Y-115091255D02*
X65167185Y-115087960D01*
X65167185Y-115087960D02*
X65182949Y-115084860D01*
X65182949Y-115084860D02*
X65198737Y-115081958D01*
X65198737Y-115081958D02*
X65214550Y-115079258D01*
X65214550Y-115079258D02*
X65230388Y-115076762D01*
X65230388Y-115076762D02*
X65246250Y-115074475D01*
X65246250Y-115074475D02*
X65262138Y-115072398D01*
X65262138Y-115072398D02*
X65278050Y-115070535D01*
X65278050Y-115070535D02*
X65293987Y-115068889D01*
X65293987Y-115068889D02*
X65309949Y-115067463D01*
X65309949Y-115067463D02*
X65325935Y-115066261D01*
X65325935Y-115066261D02*
X65341947Y-115065284D01*
X65341947Y-115065284D02*
X65357983Y-115064538D01*
X65357983Y-115064538D02*
X65374044Y-115064024D01*
X65374044Y-115064024D02*
X65390130Y-115063745D01*
X65390130Y-115063745D02*
X65406241Y-115063705D01*
X65406241Y-115063705D02*
X65422376Y-115063907D01*
X65422376Y-115063907D02*
X65438536Y-115064354D01*
X65438536Y-115064354D02*
X65454721Y-115065049D01*
X65454721Y-115065049D02*
X65470931Y-115065995D01*
X65470931Y-115065995D02*
X65487166Y-115067196D01*
X65487166Y-115067196D02*
X65503426Y-115068654D01*
X64942509Y-115284554D02*
X64937157Y-115287933D01*
X64937157Y-115287933D02*
X64931818Y-115291326D01*
X64931818Y-115291326D02*
X64926493Y-115294733D01*
X64926493Y-115294733D02*
X64921181Y-115298155D01*
X64921181Y-115298155D02*
X64915883Y-115301592D01*
X64915883Y-115301592D02*
X64910599Y-115305046D01*
X64910599Y-115305046D02*
X64905330Y-115308516D01*
X64905330Y-115308516D02*
X64900076Y-115312004D01*
X64900076Y-115312004D02*
X64894838Y-115315511D01*
X64894838Y-115315511D02*
X64889615Y-115319038D01*
X64889615Y-115319038D02*
X64884409Y-115322584D01*
X64884409Y-115322584D02*
X64879219Y-115326151D01*
X64879219Y-115326151D02*
X64874047Y-115329741D01*
X64874047Y-115329741D02*
X64868892Y-115333352D01*
X64868892Y-115333352D02*
X64863755Y-115336987D01*
X64863755Y-115336987D02*
X64858636Y-115340646D01*
X64858636Y-115340646D02*
X64853535Y-115344329D01*
X64853535Y-115344329D02*
X64848454Y-115348039D01*
X64848454Y-115348039D02*
X64843392Y-115351774D01*
X64843392Y-115351774D02*
X64838350Y-115355537D01*
X64838350Y-115355537D02*
X64833328Y-115359327D01*
X64833328Y-115359327D02*
X64828326Y-115363147D01*
X64828326Y-115363147D02*
X64823345Y-115366996D01*
X64823345Y-115366996D02*
X64818386Y-115370874D01*
X64818386Y-115370874D02*
X64813449Y-115374784D01*
X64813449Y-115374784D02*
X64808533Y-115378726D01*
X64808533Y-115378726D02*
X64803640Y-115382700D01*
X64803640Y-115382700D02*
X64798770Y-115386708D01*
X64798770Y-115386708D02*
X64793923Y-115390750D01*
X64793923Y-115390750D02*
X64789100Y-115394827D01*
X64789100Y-115394827D02*
X64784300Y-115398939D01*
X64784300Y-115398939D02*
X64779526Y-115403088D01*
X53294493Y-117856304D02*
X53370697Y-117843073D01*
X53370697Y-117843073D02*
X53444151Y-117826882D01*
X53444151Y-117826882D02*
X53514884Y-117807857D01*
X53514884Y-117807857D02*
X53582921Y-117786127D01*
X53582921Y-117786127D02*
X53648292Y-117761819D01*
X53648292Y-117761819D02*
X53711025Y-117735060D01*
X53711025Y-117735060D02*
X53771147Y-117705978D01*
X53771147Y-117705978D02*
X53828686Y-117674700D01*
X53828686Y-117674700D02*
X53883670Y-117641355D01*
X53883670Y-117641355D02*
X53936127Y-117606068D01*
X53936127Y-117606068D02*
X53986086Y-117568969D01*
X53986086Y-117568969D02*
X54033573Y-117530184D01*
X54033573Y-117530184D02*
X54078616Y-117489841D01*
X54078616Y-117489841D02*
X54121245Y-117448068D01*
X54121245Y-117448068D02*
X54161486Y-117404991D01*
X54161486Y-117404991D02*
X54199367Y-117360739D01*
X54199367Y-117360739D02*
X54234917Y-117315439D01*
X54234917Y-117315439D02*
X54268163Y-117269219D01*
X54268163Y-117269219D02*
X54299133Y-117222205D01*
X54299133Y-117222205D02*
X54327856Y-117174527D01*
X54327856Y-117174527D02*
X54354358Y-117126310D01*
X54354358Y-117126310D02*
X54378668Y-117077682D01*
X54378668Y-117077682D02*
X54400814Y-117028772D01*
X54400814Y-117028772D02*
X54420824Y-116979706D01*
X54420824Y-116979706D02*
X54438725Y-116930613D01*
X54438725Y-116930613D02*
X54454546Y-116881619D01*
X54454546Y-116881619D02*
X54468314Y-116832852D01*
X54468314Y-116832852D02*
X54480057Y-116784440D01*
X54480057Y-116784440D02*
X54489804Y-116736510D01*
X54489804Y-116736510D02*
X54497582Y-116689189D01*
X54497582Y-116689189D02*
X54503419Y-116642606D01*
X54503419Y-116642606D02*
X54507343Y-116596888D01*
X53279676Y-115132154D02*
X53293548Y-115129337D01*
X53293548Y-115129337D02*
X53307384Y-115126835D01*
X53307384Y-115126835D02*
X53321185Y-115124640D01*
X53321185Y-115124640D02*
X53334953Y-115122744D01*
X53334953Y-115122744D02*
X53348688Y-115121140D01*
X53348688Y-115121140D02*
X53362392Y-115119819D01*
X53362392Y-115119819D02*
X53376065Y-115118775D01*
X53376065Y-115118775D02*
X53389709Y-115117998D01*
X53389709Y-115117998D02*
X53403326Y-115117482D01*
X53403326Y-115117482D02*
X53416915Y-115117219D01*
X53416915Y-115117219D02*
X53430480Y-115117201D01*
X53430480Y-115117201D02*
X53444019Y-115117420D01*
X53444019Y-115117420D02*
X53457536Y-115117868D01*
X53457536Y-115117868D02*
X53471030Y-115118538D01*
X53471030Y-115118538D02*
X53484503Y-115119422D01*
X53484503Y-115119422D02*
X53497957Y-115120512D01*
X53497957Y-115120512D02*
X53511392Y-115121801D01*
X53511392Y-115121801D02*
X53524810Y-115123280D01*
X53524810Y-115123280D02*
X53538211Y-115124942D01*
X53538211Y-115124942D02*
X53551597Y-115126780D01*
X53551597Y-115126780D02*
X53564970Y-115128784D01*
X53564970Y-115128784D02*
X53578329Y-115130949D01*
X53578329Y-115130949D02*
X53591677Y-115133265D01*
X53591677Y-115133265D02*
X53605014Y-115135726D01*
X53605014Y-115135726D02*
X53618342Y-115138323D01*
X53618342Y-115138323D02*
X53631662Y-115141048D01*
X53631662Y-115141048D02*
X53644975Y-115143895D01*
X53644975Y-115143895D02*
X53658282Y-115146855D01*
X53658282Y-115146855D02*
X53671584Y-115149920D01*
X53671584Y-115149920D02*
X53684883Y-115153083D01*
X53684883Y-115153083D02*
X53698180Y-115156336D01*
X53698180Y-115156336D02*
X53711476Y-115159671D01*
X55453493Y-115290904D02*
X55451286Y-115289340D01*
X55451286Y-115289340D02*
X55449034Y-115287821D01*
X55449034Y-115287821D02*
X55446742Y-115286340D01*
X55446742Y-115286340D02*
X55444414Y-115284893D01*
X55444414Y-115284893D02*
X55442055Y-115283473D01*
X55442055Y-115283473D02*
X55439670Y-115282076D01*
X55439670Y-115282076D02*
X55437263Y-115280696D01*
X55437263Y-115280696D02*
X55434839Y-115279328D01*
X55434839Y-115279328D02*
X55432403Y-115277966D01*
X55432403Y-115277966D02*
X55429959Y-115276605D01*
X55429959Y-115276605D02*
X55427511Y-115275239D01*
X55427511Y-115275239D02*
X55425066Y-115273863D01*
X55425066Y-115273863D02*
X55422626Y-115272471D01*
X55422626Y-115272471D02*
X55420198Y-115271059D01*
X55420198Y-115271059D02*
X55417785Y-115269620D01*
X55417785Y-115269620D02*
X55415392Y-115268150D01*
X55415392Y-115268150D02*
X55413024Y-115266642D01*
X55413024Y-115266642D02*
X55410685Y-115265091D01*
X55410685Y-115265091D02*
X55408381Y-115263493D01*
X55408381Y-115263493D02*
X55406115Y-115261841D01*
X55406115Y-115261841D02*
X55403893Y-115260130D01*
X55403893Y-115260130D02*
X55401718Y-115258355D01*
X55401718Y-115258355D02*
X55399597Y-115256510D01*
X55399597Y-115256510D02*
X55397533Y-115254590D01*
X55397533Y-115254590D02*
X55395531Y-115252589D01*
X55395531Y-115252589D02*
X55393595Y-115250502D01*
X55393595Y-115250502D02*
X55391731Y-115248324D01*
X55391731Y-115248324D02*
X55389943Y-115246049D01*
X55389943Y-115246049D02*
X55388235Y-115243671D01*
X55388235Y-115243671D02*
X55386613Y-115241186D01*
X55386613Y-115241186D02*
X55385080Y-115238587D01*
X55385080Y-115238587D02*
X55383643Y-115235871D01*
X55974193Y-116916504D02*
X55979940Y-116884555D01*
X55979940Y-116884555D02*
X55985273Y-116852609D01*
X55985273Y-116852609D02*
X55990186Y-116820665D01*
X55990186Y-116820665D02*
X55994673Y-116788726D01*
X55994673Y-116788726D02*
X55998729Y-116756794D01*
X55998729Y-116756794D02*
X56002349Y-116724869D01*
X56002349Y-116724869D02*
X56005527Y-116692953D01*
X56005527Y-116692953D02*
X56008258Y-116661049D01*
X56008258Y-116661049D02*
X56010536Y-116629156D01*
X56010536Y-116629156D02*
X56012356Y-116597278D01*
X56012356Y-116597278D02*
X56013712Y-116565415D01*
X56013712Y-116565415D02*
X56014599Y-116533569D01*
X56014599Y-116533569D02*
X56015012Y-116501742D01*
X56015012Y-116501742D02*
X56014946Y-116469935D01*
X56014946Y-116469935D02*
X56014393Y-116438149D01*
X56014393Y-116438149D02*
X56013351Y-116406387D01*
X56013351Y-116406387D02*
X56011812Y-116374650D01*
X56011812Y-116374650D02*
X56009772Y-116342939D01*
X56009772Y-116342939D02*
X56007224Y-116311256D01*
X56007224Y-116311256D02*
X56004165Y-116279602D01*
X56004165Y-116279602D02*
X56000587Y-116247980D01*
X56000587Y-116247980D02*
X55996487Y-116216390D01*
X55996487Y-116216390D02*
X55991857Y-116184834D01*
X55991857Y-116184834D02*
X55986694Y-116153313D01*
X55986694Y-116153313D02*
X55980991Y-116121830D01*
X55980991Y-116121830D02*
X55974743Y-116090386D01*
X55974743Y-116090386D02*
X55967945Y-116058982D01*
X55967945Y-116058982D02*
X55960591Y-116027620D01*
X55960591Y-116027620D02*
X55952676Y-115996301D01*
X55952676Y-115996301D02*
X55944194Y-115965027D01*
X55944194Y-115965027D02*
X55935140Y-115933800D01*
X55935140Y-115933800D02*
X55925509Y-115902621D01*
X54467126Y-117327138D02*
X54435689Y-117367974D01*
X54435689Y-117367974D02*
X54402959Y-117407146D01*
X54402959Y-117407146D02*
X54369032Y-117444662D01*
X54369032Y-117444662D02*
X54334003Y-117480534D01*
X54334003Y-117480534D02*
X54297968Y-117514770D01*
X54297968Y-117514770D02*
X54261022Y-117547380D01*
X54261022Y-117547380D02*
X54223262Y-117578374D01*
X54223262Y-117578374D02*
X54184782Y-117607761D01*
X54184782Y-117607761D02*
X54145680Y-117635552D01*
X54145680Y-117635552D02*
X54106050Y-117661755D01*
X54106050Y-117661755D02*
X54065988Y-117686381D01*
X54065988Y-117686381D02*
X54025590Y-117709440D01*
X54025590Y-117709440D02*
X53984952Y-117730940D01*
X53984952Y-117730940D02*
X53944169Y-117750892D01*
X53944169Y-117750892D02*
X53903338Y-117769305D01*
X53903338Y-117769305D02*
X53862553Y-117786190D01*
X53862553Y-117786190D02*
X53821911Y-117801555D01*
X53821911Y-117801555D02*
X53781507Y-117815410D01*
X53781507Y-117815410D02*
X53741438Y-117827765D01*
X53741438Y-117827765D02*
X53701798Y-117838631D01*
X53701798Y-117838631D02*
X53662684Y-117848015D01*
X53662684Y-117848015D02*
X53624191Y-117855929D01*
X53624191Y-117855929D02*
X53586415Y-117862382D01*
X53586415Y-117862382D02*
X53549452Y-117867383D01*
X53549452Y-117867383D02*
X53513397Y-117870943D01*
X53513397Y-117870943D02*
X53478346Y-117873070D01*
X53478346Y-117873070D02*
X53444396Y-117873775D01*
X53444396Y-117873775D02*
X53411641Y-117873068D01*
X53411641Y-117873068D02*
X53380177Y-117870957D01*
X53380177Y-117870957D02*
X53350101Y-117867453D01*
X53350101Y-117867453D02*
X53321507Y-117862565D01*
X53321507Y-117862565D02*
X53294493Y-117856304D01*
X64417576Y-115881454D02*
X64415194Y-115887214D01*
X64415194Y-115887214D02*
X64412815Y-115892987D01*
X64412815Y-115892987D02*
X64410437Y-115898772D01*
X64410437Y-115898772D02*
X64408063Y-115904568D01*
X64408063Y-115904568D02*
X64405693Y-115910374D01*
X64405693Y-115910374D02*
X64403330Y-115916191D01*
X64403330Y-115916191D02*
X64400973Y-115922018D01*
X64400973Y-115922018D02*
X64398625Y-115927855D01*
X64398625Y-115927855D02*
X64396286Y-115933701D01*
X64396286Y-115933701D02*
X64393957Y-115939556D01*
X64393957Y-115939556D02*
X64391640Y-115945420D01*
X64391640Y-115945420D02*
X64389335Y-115951292D01*
X64389335Y-115951292D02*
X64387045Y-115957171D01*
X64387045Y-115957171D02*
X64384770Y-115963058D01*
X64384770Y-115963058D02*
X64382511Y-115968952D01*
X64382511Y-115968952D02*
X64380269Y-115974852D01*
X64380269Y-115974852D02*
X64378046Y-115980759D01*
X64378046Y-115980759D02*
X64375843Y-115986671D01*
X64375843Y-115986671D02*
X64373661Y-115992589D01*
X64373661Y-115992589D02*
X64371501Y-115998512D01*
X64371501Y-115998512D02*
X64369364Y-116004439D01*
X64369364Y-116004439D02*
X64367251Y-116010371D01*
X64367251Y-116010371D02*
X64365165Y-116016306D01*
X64365165Y-116016306D02*
X64363104Y-116022246D01*
X64363104Y-116022246D02*
X64361072Y-116028188D01*
X64361072Y-116028188D02*
X64359069Y-116034133D01*
X64359069Y-116034133D02*
X64357096Y-116040080D01*
X64357096Y-116040080D02*
X64355155Y-116046029D01*
X64355155Y-116046029D02*
X64353246Y-116051980D01*
X64353246Y-116051980D02*
X64351370Y-116057932D01*
X64351370Y-116057932D02*
X64349530Y-116063884D01*
X64349530Y-116063884D02*
X64347726Y-116069838D01*
X64347726Y-116069838D02*
X64345958Y-116076194D01*
X64345958Y-116076194D02*
X64344227Y-116082561D01*
X64344227Y-116082561D02*
X64342532Y-116088940D01*
X64342532Y-116088940D02*
X64340871Y-116095328D01*
X64340871Y-116095328D02*
X64339245Y-116101726D01*
X64339245Y-116101726D02*
X64337652Y-116108133D01*
X64337652Y-116108133D02*
X64336091Y-116114547D01*
X64336091Y-116114547D02*
X64334562Y-116120968D01*
X64334562Y-116120968D02*
X64333065Y-116127395D01*
X64333065Y-116127395D02*
X64331597Y-116133828D01*
X64331597Y-116133828D02*
X64330159Y-116140266D01*
X64330159Y-116140266D02*
X64328750Y-116146707D01*
X64328750Y-116146707D02*
X64327368Y-116153151D01*
X64327368Y-116153151D02*
X64326014Y-116159598D01*
X64326014Y-116159598D02*
X64324686Y-116166046D01*
X64324686Y-116166046D02*
X64323384Y-116172496D01*
X64323384Y-116172496D02*
X64322106Y-116178945D01*
X64322106Y-116178945D02*
X64320853Y-116185393D01*
X64320853Y-116185393D02*
X64319623Y-116191840D01*
X64319623Y-116191840D02*
X64318415Y-116198284D01*
X64318415Y-116198284D02*
X64317229Y-116204725D01*
X64317229Y-116204725D02*
X64316063Y-116211163D01*
X64316063Y-116211163D02*
X64314918Y-116217596D01*
X64314918Y-116217596D02*
X64313793Y-116224023D01*
X64313793Y-116224023D02*
X64312686Y-116230444D01*
X64312686Y-116230444D02*
X64311597Y-116236858D01*
X64311597Y-116236858D02*
X64310524Y-116243265D01*
X64310524Y-116243265D02*
X64309469Y-116249663D01*
X64309469Y-116249663D02*
X64308428Y-116256051D01*
X64308428Y-116256051D02*
X64307403Y-116262430D01*
X64307403Y-116262430D02*
X64306391Y-116268797D01*
X64306391Y-116268797D02*
X64305393Y-116275154D01*
X53711476Y-115159671D02*
X53739108Y-115167056D01*
X53739108Y-115167056D02*
X53766442Y-115174925D01*
X53766442Y-115174925D02*
X53793476Y-115183277D01*
X53793476Y-115183277D02*
X53820211Y-115192111D01*
X53820211Y-115192111D02*
X53846645Y-115201427D01*
X53846645Y-115201427D02*
X53872777Y-115211225D01*
X53872777Y-115211225D02*
X53898607Y-115221505D01*
X53898607Y-115221505D02*
X53924134Y-115232266D01*
X53924134Y-115232266D02*
X53949357Y-115243507D01*
X53949357Y-115243507D02*
X53974276Y-115255228D01*
X53974276Y-115255228D02*
X53998889Y-115267429D01*
X53998889Y-115267429D02*
X54023196Y-115280110D01*
X54023196Y-115280110D02*
X54047196Y-115293269D01*
X54047196Y-115293269D02*
X54070888Y-115306907D01*
X54070888Y-115306907D02*
X54094272Y-115321024D01*
X54094272Y-115321024D02*
X54117346Y-115335618D01*
X54117346Y-115335618D02*
X54140111Y-115350690D01*
X54140111Y-115350690D02*
X54162564Y-115366239D01*
X54162564Y-115366239D02*
X54184706Y-115382265D01*
X54184706Y-115382265D02*
X54206536Y-115398767D01*
X54206536Y-115398767D02*
X54228052Y-115415745D01*
X54228052Y-115415745D02*
X54249255Y-115433198D01*
X54249255Y-115433198D02*
X54270143Y-115451127D01*
X54270143Y-115451127D02*
X54290715Y-115469531D01*
X54290715Y-115469531D02*
X54310971Y-115488408D01*
X54310971Y-115488408D02*
X54330910Y-115507760D01*
X54330910Y-115507760D02*
X54350531Y-115527586D01*
X54350531Y-115527586D02*
X54369834Y-115547884D01*
X54369834Y-115547884D02*
X54388817Y-115568656D01*
X54388817Y-115568656D02*
X54407480Y-115589900D01*
X54407480Y-115589900D02*
X54425822Y-115611616D01*
X54425822Y-115611616D02*
X54443843Y-115633804D01*
X64318093Y-116677321D02*
X64329159Y-116729823D01*
X64329159Y-116729823D02*
X64342109Y-116781727D01*
X64342109Y-116781727D02*
X64356926Y-116832979D01*
X64356926Y-116832979D02*
X64373597Y-116883526D01*
X64373597Y-116883526D02*
X64392107Y-116933315D01*
X64392107Y-116933315D02*
X64412440Y-116982292D01*
X64412440Y-116982292D02*
X64434583Y-117030406D01*
X64434583Y-117030406D02*
X64458520Y-117077602D01*
X64458520Y-117077602D02*
X64484237Y-117123827D01*
X64484237Y-117123827D02*
X64511719Y-117169029D01*
X64511719Y-117169029D02*
X64540951Y-117213155D01*
X64540951Y-117213155D02*
X64571919Y-117256150D01*
X64571919Y-117256150D02*
X64604607Y-117297963D01*
X64604607Y-117297963D02*
X64639002Y-117338539D01*
X64639002Y-117338539D02*
X64675088Y-117377827D01*
X64675088Y-117377827D02*
X64712851Y-117415772D01*
X64712851Y-117415772D02*
X64752275Y-117452323D01*
X64752275Y-117452323D02*
X64793347Y-117487424D01*
X64793347Y-117487424D02*
X64836051Y-117521025D01*
X64836051Y-117521025D02*
X64880373Y-117553071D01*
X64880373Y-117553071D02*
X64926298Y-117583509D01*
X64926298Y-117583509D02*
X64973811Y-117612286D01*
X64973811Y-117612286D02*
X65022898Y-117639350D01*
X65022898Y-117639350D02*
X65073544Y-117664646D01*
X65073544Y-117664646D02*
X65125733Y-117688123D01*
X65125733Y-117688123D02*
X65179452Y-117709726D01*
X65179452Y-117709726D02*
X65234686Y-117729403D01*
X65234686Y-117729403D02*
X65291420Y-117747101D01*
X65291420Y-117747101D02*
X65349638Y-117762767D01*
X65349638Y-117762767D02*
X65409328Y-117776347D01*
X65409328Y-117776347D02*
X65470473Y-117787788D01*
X65470473Y-117787788D02*
X65533059Y-117797038D01*
X65319276Y-115121571D02*
X65313316Y-115123537D01*
X65313316Y-115123537D02*
X65307346Y-115125470D01*
X65307346Y-115125470D02*
X65301366Y-115127374D01*
X65301366Y-115127374D02*
X65295376Y-115129252D01*
X65295376Y-115129252D02*
X65289379Y-115131108D01*
X65289379Y-115131108D02*
X65283375Y-115132947D01*
X65283375Y-115132947D02*
X65277366Y-115134771D01*
X65277366Y-115134771D02*
X65271353Y-115136586D01*
X65271353Y-115136586D02*
X65265336Y-115138394D01*
X65265336Y-115138394D02*
X65259318Y-115140200D01*
X65259318Y-115140200D02*
X65253299Y-115142007D01*
X65253299Y-115142007D02*
X65247280Y-115143820D01*
X65247280Y-115143820D02*
X65241263Y-115145643D01*
X65241263Y-115145643D02*
X65235248Y-115147478D01*
X65235248Y-115147478D02*
X65229237Y-115149330D01*
X65229237Y-115149330D02*
X65223232Y-115151204D01*
X65223232Y-115151204D02*
X65217232Y-115153102D01*
X65217232Y-115153102D02*
X65211240Y-115155029D01*
X65211240Y-115155029D02*
X65205257Y-115156988D01*
X65205257Y-115156988D02*
X65199283Y-115158984D01*
X65199283Y-115158984D02*
X65193320Y-115161020D01*
X65193320Y-115161020D02*
X65187369Y-115163101D01*
X65187369Y-115163101D02*
X65181431Y-115165229D01*
X65181431Y-115165229D02*
X65175507Y-115167410D01*
X65175507Y-115167410D02*
X65169599Y-115169646D01*
X65169599Y-115169646D02*
X65163708Y-115171942D01*
X65163708Y-115171942D02*
X65157835Y-115174301D01*
X65157835Y-115174301D02*
X65151980Y-115176728D01*
X65151980Y-115176728D02*
X65146146Y-115179226D01*
X65146146Y-115179226D02*
X65140333Y-115181800D01*
X65140333Y-115181800D02*
X65134542Y-115184452D01*
X65134542Y-115184452D02*
X65128776Y-115187188D01*
X64635593Y-115544904D02*
X64631438Y-115549678D01*
X64631438Y-115549678D02*
X64627307Y-115554477D01*
X64627307Y-115554477D02*
X64623201Y-115559297D01*
X64623201Y-115559297D02*
X64619118Y-115564140D01*
X64619118Y-115564140D02*
X64615059Y-115569002D01*
X64615059Y-115569002D02*
X64611022Y-115573883D01*
X64611022Y-115573883D02*
X64607008Y-115578782D01*
X64607008Y-115578782D02*
X64603016Y-115583698D01*
X64603016Y-115583698D02*
X64599045Y-115588629D01*
X64599045Y-115588629D02*
X64595096Y-115593575D01*
X64595096Y-115593575D02*
X64591168Y-115598534D01*
X64591168Y-115598534D02*
X64587260Y-115603505D01*
X64587260Y-115603505D02*
X64583373Y-115608486D01*
X64583373Y-115608486D02*
X64579505Y-115613478D01*
X64579505Y-115613478D02*
X64575657Y-115618478D01*
X64575657Y-115618478D02*
X64571828Y-115623485D01*
X64571828Y-115623485D02*
X64568017Y-115628498D01*
X64568017Y-115628498D02*
X64564225Y-115633517D01*
X64564225Y-115633517D02*
X64560450Y-115638539D01*
X64560450Y-115638539D02*
X64556693Y-115643564D01*
X64556693Y-115643564D02*
X64552953Y-115648591D01*
X64552953Y-115648591D02*
X64549229Y-115653618D01*
X64549229Y-115653618D02*
X64545522Y-115658644D01*
X64545522Y-115658644D02*
X64541831Y-115663669D01*
X64541831Y-115663669D02*
X64538155Y-115668690D01*
X64538155Y-115668690D02*
X64534494Y-115673707D01*
X64534494Y-115673707D02*
X64530848Y-115678718D01*
X64530848Y-115678718D02*
X64527216Y-115683723D01*
X64527216Y-115683723D02*
X64523599Y-115688720D01*
X64523599Y-115688720D02*
X64519995Y-115693708D01*
X64519995Y-115693708D02*
X64516404Y-115698687D01*
X64516404Y-115698687D02*
X64512826Y-115703654D01*
X55383643Y-115235871D02*
X55417842Y-115218754D01*
X55417842Y-115218754D02*
X55454089Y-115202775D01*
X55454089Y-115202775D02*
X55492274Y-115188003D01*
X55492274Y-115188003D02*
X55532284Y-115174508D01*
X55532284Y-115174508D02*
X55574012Y-115162360D01*
X55574012Y-115162360D02*
X55617344Y-115151629D01*
X55617344Y-115151629D02*
X55662172Y-115142386D01*
X55662172Y-115142386D02*
X55708385Y-115134700D01*
X55708385Y-115134700D02*
X55755872Y-115128643D01*
X55755872Y-115128643D02*
X55804524Y-115124283D01*
X55804524Y-115124283D02*
X55854228Y-115121691D01*
X55854228Y-115121691D02*
X55904875Y-115120938D01*
X55904875Y-115120938D02*
X55956355Y-115122093D01*
X55956355Y-115122093D02*
X56008557Y-115125226D01*
X56008557Y-115125226D02*
X56061371Y-115130409D01*
X56061371Y-115130409D02*
X56114686Y-115137710D01*
X56114686Y-115137710D02*
X56168391Y-115147200D01*
X56168391Y-115147200D02*
X56222377Y-115158950D01*
X56222377Y-115158950D02*
X56276532Y-115173028D01*
X56276532Y-115173028D02*
X56330747Y-115189506D01*
X56330747Y-115189506D02*
X56384911Y-115208454D01*
X56384911Y-115208454D02*
X56438913Y-115229942D01*
X56438913Y-115229942D02*
X56492642Y-115254039D01*
X56492642Y-115254039D02*
X56545990Y-115280817D01*
X56545990Y-115280817D02*
X56598844Y-115310345D01*
X56598844Y-115310345D02*
X56651095Y-115342693D01*
X56651095Y-115342693D02*
X56702632Y-115377931D01*
X56702632Y-115377931D02*
X56753345Y-115416131D01*
X56753345Y-115416131D02*
X56803123Y-115457361D01*
X56803123Y-115457361D02*
X56851855Y-115501692D01*
X56851855Y-115501692D02*
X56899432Y-115549194D01*
X56899432Y-115549194D02*
X56945743Y-115599938D01*
X58040059Y-116575721D02*
X58036848Y-116501779D01*
X58036848Y-116501779D02*
X58037468Y-116428835D01*
X58037468Y-116428835D02*
X58041815Y-116356971D01*
X58041815Y-116356971D02*
X58049790Y-116286266D01*
X58049790Y-116286266D02*
X58061291Y-116216802D01*
X58061291Y-116216802D02*
X58076215Y-116148658D01*
X58076215Y-116148658D02*
X58094461Y-116081916D01*
X58094461Y-116081916D02*
X58115928Y-116016656D01*
X58115928Y-116016656D02*
X58140514Y-115952958D01*
X58140514Y-115952958D02*
X58168118Y-115890904D01*
X58168118Y-115890904D02*
X58198638Y-115830574D01*
X58198638Y-115830574D02*
X58231973Y-115772049D01*
X58231973Y-115772049D02*
X58268020Y-115715408D01*
X58268020Y-115715408D02*
X58306679Y-115660733D01*
X58306679Y-115660733D02*
X58347848Y-115608105D01*
X58347848Y-115608105D02*
X58391426Y-115557604D01*
X58391426Y-115557604D02*
X58437310Y-115509310D01*
X58437310Y-115509310D02*
X58485399Y-115463305D01*
X58485399Y-115463305D02*
X58535592Y-115419668D01*
X58535592Y-115419668D02*
X58587788Y-115378481D01*
X58587788Y-115378481D02*
X58641884Y-115339824D01*
X58641884Y-115339824D02*
X58697779Y-115303777D01*
X58697779Y-115303777D02*
X58755372Y-115270422D01*
X58755372Y-115270422D02*
X58814561Y-115239839D01*
X58814561Y-115239839D02*
X58875244Y-115212109D01*
X58875244Y-115212109D02*
X58937320Y-115187311D01*
X58937320Y-115187311D02*
X59000688Y-115165528D01*
X59000688Y-115165528D02*
X59065245Y-115146838D01*
X59065245Y-115146838D02*
X59130891Y-115131324D01*
X59130891Y-115131324D02*
X59197523Y-115119065D01*
X59197523Y-115119065D02*
X59265041Y-115110143D01*
X59265041Y-115110143D02*
X59333343Y-115104638D01*
X60781143Y-116482588D02*
X60779884Y-116548938D01*
X60779884Y-116548938D02*
X60775367Y-116614586D01*
X60775367Y-116614586D02*
X60767667Y-116679447D01*
X60767667Y-116679447D02*
X60756863Y-116743437D01*
X60756863Y-116743437D02*
X60743031Y-116806475D01*
X60743031Y-116806475D02*
X60726248Y-116868475D01*
X60726248Y-116868475D02*
X60706592Y-116929356D01*
X60706592Y-116929356D02*
X60684139Y-116989033D01*
X60684139Y-116989033D02*
X60658968Y-117047423D01*
X60658968Y-117047423D02*
X60631154Y-117104443D01*
X60631154Y-117104443D02*
X60600775Y-117160010D01*
X60600775Y-117160010D02*
X60567909Y-117214040D01*
X60567909Y-117214040D02*
X60532631Y-117266450D01*
X60532631Y-117266450D02*
X60495021Y-117317157D01*
X60495021Y-117317157D02*
X60455153Y-117366076D01*
X60455153Y-117366076D02*
X60413107Y-117413126D01*
X60413107Y-117413126D02*
X60368958Y-117458223D01*
X60368958Y-117458223D02*
X60322784Y-117501283D01*
X60322784Y-117501283D02*
X60274662Y-117542223D01*
X60274662Y-117542223D02*
X60224670Y-117580959D01*
X60224670Y-117580959D02*
X60172883Y-117617409D01*
X60172883Y-117617409D02*
X60119380Y-117651489D01*
X60119380Y-117651489D02*
X60064238Y-117683115D01*
X60064238Y-117683115D02*
X60007533Y-117712205D01*
X60007533Y-117712205D02*
X59949344Y-117738675D01*
X59949344Y-117738675D02*
X59889746Y-117762441D01*
X59889746Y-117762441D02*
X59828817Y-117783421D01*
X59828817Y-117783421D02*
X59766634Y-117801531D01*
X59766634Y-117801531D02*
X59703275Y-117816687D01*
X59703275Y-117816687D02*
X59638816Y-117828807D01*
X59638816Y-117828807D02*
X59573335Y-117837807D01*
X59573335Y-117837807D02*
X59506909Y-117843604D01*
X55925509Y-115902621D02*
X55917522Y-115878392D01*
X55917522Y-115878392D02*
X55909045Y-115854521D01*
X55909045Y-115854521D02*
X55900083Y-115831003D01*
X55900083Y-115831003D02*
X55890641Y-115807838D01*
X55890641Y-115807838D02*
X55880725Y-115785021D01*
X55880725Y-115785021D02*
X55870340Y-115762550D01*
X55870340Y-115762550D02*
X55859491Y-115740423D01*
X55859491Y-115740423D02*
X55848184Y-115718636D01*
X55848184Y-115718636D02*
X55836425Y-115697187D01*
X55836425Y-115697187D02*
X55824218Y-115676074D01*
X55824218Y-115676074D02*
X55811569Y-115655293D01*
X55811569Y-115655293D02*
X55798484Y-115634841D01*
X55798484Y-115634841D02*
X55784968Y-115614717D01*
X55784968Y-115614717D02*
X55771026Y-115594918D01*
X55771026Y-115594918D02*
X55756664Y-115575440D01*
X55756664Y-115575440D02*
X55741888Y-115556281D01*
X55741888Y-115556281D02*
X55726702Y-115537438D01*
X55726702Y-115537438D02*
X55711113Y-115518909D01*
X55711113Y-115518909D02*
X55695125Y-115500690D01*
X55695125Y-115500690D02*
X55678744Y-115482780D01*
X55678744Y-115482780D02*
X55661975Y-115465175D01*
X55661975Y-115465175D02*
X55644824Y-115447873D01*
X55644824Y-115447873D02*
X55627297Y-115430871D01*
X55627297Y-115430871D02*
X55609398Y-115414166D01*
X55609398Y-115414166D02*
X55591134Y-115397756D01*
X55591134Y-115397756D02*
X55572508Y-115381638D01*
X55572508Y-115381638D02*
X55553528Y-115365808D01*
X55553528Y-115365808D02*
X55534199Y-115350265D01*
X55534199Y-115350265D02*
X55514525Y-115335006D01*
X55514525Y-115335006D02*
X55494512Y-115320028D01*
X55494512Y-115320028D02*
X55474166Y-115305328D01*
X55474166Y-115305328D02*
X55453493Y-115290904D01*
X62885109Y-117051971D02*
X62892252Y-117073861D01*
X62892252Y-117073861D02*
X62899790Y-117095478D01*
X62899790Y-117095478D02*
X62907722Y-117116824D01*
X62907722Y-117116824D02*
X62916044Y-117137898D01*
X62916044Y-117137898D02*
X62924756Y-117158701D01*
X62924756Y-117158701D02*
X62933855Y-117179232D01*
X62933855Y-117179232D02*
X62943339Y-117199494D01*
X62943339Y-117199494D02*
X62953206Y-117219485D01*
X62953206Y-117219485D02*
X62963455Y-117239206D01*
X62963455Y-117239206D02*
X62974083Y-117258658D01*
X62974083Y-117258658D02*
X62985088Y-117277841D01*
X62985088Y-117277841D02*
X62996469Y-117296755D01*
X62996469Y-117296755D02*
X63008224Y-117315402D01*
X63008224Y-117315402D02*
X63020351Y-117333780D01*
X63020351Y-117333780D02*
X63032847Y-117351891D01*
X63032847Y-117351891D02*
X63045711Y-117369735D01*
X63045711Y-117369735D02*
X63058941Y-117387312D01*
X63058941Y-117387312D02*
X63072535Y-117404623D01*
X63072535Y-117404623D02*
X63086490Y-117421668D01*
X63086490Y-117421668D02*
X63100806Y-117438448D01*
X63100806Y-117438448D02*
X63115480Y-117454963D01*
X63115480Y-117454963D02*
X63130510Y-117471213D01*
X63130510Y-117471213D02*
X63145895Y-117487198D01*
X63145895Y-117487198D02*
X63161631Y-117502920D01*
X63161631Y-117502920D02*
X63177718Y-117518378D01*
X63177718Y-117518378D02*
X63194154Y-117533573D01*
X63194154Y-117533573D02*
X63210936Y-117548505D01*
X63210936Y-117548505D02*
X63228062Y-117563175D01*
X63228062Y-117563175D02*
X63245532Y-117577582D01*
X63245532Y-117577582D02*
X63263342Y-117591728D01*
X63263342Y-117591728D02*
X63281490Y-117605613D01*
X63281490Y-117605613D02*
X63299976Y-117619238D01*
X56973259Y-117356771D02*
X56928239Y-117409113D01*
X56928239Y-117409113D02*
X56881762Y-117458234D01*
X56881762Y-117458234D02*
X56833946Y-117504199D01*
X56833946Y-117504199D02*
X56784908Y-117547072D01*
X56784908Y-117547072D02*
X56734767Y-117586919D01*
X56734767Y-117586919D02*
X56683639Y-117623805D01*
X56683639Y-117623805D02*
X56631643Y-117657795D01*
X56631643Y-117657795D02*
X56578897Y-117688955D01*
X56578897Y-117688955D02*
X56525519Y-117717348D01*
X56525519Y-117717348D02*
X56471625Y-117743041D01*
X56471625Y-117743041D02*
X56417335Y-117766099D01*
X56417335Y-117766099D02*
X56362766Y-117786586D01*
X56362766Y-117786586D02*
X56308035Y-117804568D01*
X56308035Y-117804568D02*
X56253261Y-117820110D01*
X56253261Y-117820110D02*
X56198562Y-117833276D01*
X56198562Y-117833276D02*
X56144055Y-117844133D01*
X56144055Y-117844133D02*
X56089857Y-117852745D01*
X56089857Y-117852745D02*
X56036088Y-117859177D01*
X56036088Y-117859177D02*
X55982864Y-117863495D01*
X55982864Y-117863495D02*
X55930304Y-117865763D01*
X55930304Y-117865763D02*
X55878526Y-117866046D01*
X55878526Y-117866046D02*
X55827646Y-117864411D01*
X55827646Y-117864411D02*
X55777783Y-117860921D01*
X55777783Y-117860921D02*
X55729056Y-117855642D01*
X55729056Y-117855642D02*
X55681580Y-117848640D01*
X55681580Y-117848640D02*
X55635476Y-117839978D01*
X55635476Y-117839978D02*
X55590859Y-117829723D01*
X55590859Y-117829723D02*
X55547849Y-117817939D01*
X55547849Y-117817939D02*
X55506563Y-117804692D01*
X55506563Y-117804692D02*
X55467118Y-117790046D01*
X55467118Y-117790046D02*
X55429633Y-117774068D01*
X55429633Y-117774068D02*
X55394226Y-117756821D01*
X64512826Y-115703654D02*
X64509272Y-115708825D01*
X64509272Y-115708825D02*
X64505756Y-115714022D01*
X64505756Y-115714022D02*
X64502277Y-115719243D01*
X64502277Y-115719243D02*
X64498836Y-115724490D01*
X64498836Y-115724490D02*
X64495431Y-115729761D01*
X64495431Y-115729761D02*
X64492064Y-115735056D01*
X64492064Y-115735056D02*
X64488734Y-115740377D01*
X64488734Y-115740377D02*
X64485441Y-115745723D01*
X64485441Y-115745723D02*
X64482186Y-115751093D01*
X64482186Y-115751093D02*
X64478967Y-115756488D01*
X64478967Y-115756488D02*
X64475786Y-115761908D01*
X64475786Y-115761908D02*
X64472642Y-115767352D01*
X64472642Y-115767352D02*
X64469535Y-115772822D01*
X64469535Y-115772822D02*
X64466466Y-115778316D01*
X64466466Y-115778316D02*
X64463433Y-115783835D01*
X64463433Y-115783835D02*
X64460438Y-115789379D01*
X64460438Y-115789379D02*
X64457480Y-115794947D01*
X64457480Y-115794947D02*
X64454559Y-115800541D01*
X64454559Y-115800541D02*
X64451676Y-115806159D01*
X64451676Y-115806159D02*
X64448829Y-115811802D01*
X64448829Y-115811802D02*
X64446020Y-115817470D01*
X64446020Y-115817470D02*
X64443248Y-115823163D01*
X64443248Y-115823163D02*
X64440514Y-115828880D01*
X64440514Y-115828880D02*
X64437816Y-115834622D01*
X64437816Y-115834622D02*
X64435156Y-115840389D01*
X64435156Y-115840389D02*
X64432533Y-115846181D01*
X64432533Y-115846181D02*
X64429947Y-115851998D01*
X64429947Y-115851998D02*
X64427398Y-115857839D01*
X64427398Y-115857839D02*
X64424887Y-115863706D01*
X64424887Y-115863706D02*
X64422412Y-115869597D01*
X64422412Y-115869597D02*
X64419975Y-115875513D01*
X64419975Y-115875513D02*
X64417576Y-115881454D01*
X61835243Y-117318671D02*
X61796893Y-117268052D01*
X61796893Y-117268052D02*
X61761211Y-117216267D01*
X61761211Y-117216267D02*
X61728188Y-117163402D01*
X61728188Y-117163402D02*
X61697812Y-117109542D01*
X61697812Y-117109542D02*
X61670073Y-117054774D01*
X61670073Y-117054774D02*
X61644961Y-116999183D01*
X61644961Y-116999183D02*
X61622465Y-116942856D01*
X61622465Y-116942856D02*
X61602574Y-116885878D01*
X61602574Y-116885878D02*
X61585279Y-116828337D01*
X61585279Y-116828337D02*
X61570568Y-116770316D01*
X61570568Y-116770316D02*
X61558432Y-116711904D01*
X61558432Y-116711904D02*
X61548860Y-116653186D01*
X61548860Y-116653186D02*
X61541840Y-116594247D01*
X61541840Y-116594247D02*
X61537364Y-116535174D01*
X61537364Y-116535174D02*
X61535420Y-116476053D01*
X61535420Y-116476053D02*
X61535998Y-116416971D01*
X61535998Y-116416971D02*
X61539088Y-116358012D01*
X61539088Y-116358012D02*
X61544678Y-116299263D01*
X61544678Y-116299263D02*
X61552760Y-116240810D01*
X61552760Y-116240810D02*
X61563321Y-116182740D01*
X61563321Y-116182740D02*
X61576352Y-116125138D01*
X61576352Y-116125138D02*
X61591842Y-116068090D01*
X61591842Y-116068090D02*
X61609780Y-116011682D01*
X61609780Y-116011682D02*
X61630157Y-115956000D01*
X61630157Y-115956000D02*
X61652962Y-115901131D01*
X61652962Y-115901131D02*
X61678184Y-115847160D01*
X61678184Y-115847160D02*
X61705812Y-115794174D01*
X61705812Y-115794174D02*
X61735838Y-115742258D01*
X61735838Y-115742258D02*
X61768249Y-115691499D01*
X61768249Y-115691499D02*
X61803035Y-115641982D01*
X61803035Y-115641982D02*
X61840187Y-115593794D01*
X61840187Y-115593794D02*
X61879693Y-115547021D01*
X61879693Y-115547021D02*
X61924471Y-115498747D01*
X61924471Y-115498747D02*
X61970621Y-115453500D01*
X61970621Y-115453500D02*
X62018029Y-115411220D01*
X62018029Y-115411220D02*
X62066579Y-115371846D01*
X62066579Y-115371846D02*
X62116155Y-115335316D01*
X62116155Y-115335316D02*
X62166642Y-115301570D01*
X62166642Y-115301570D02*
X62217925Y-115270548D01*
X62217925Y-115270548D02*
X62269887Y-115242188D01*
X62269887Y-115242188D02*
X62322413Y-115216429D01*
X62322413Y-115216429D02*
X62375388Y-115193210D01*
X62375388Y-115193210D02*
X62428697Y-115172471D01*
X62428697Y-115172471D02*
X62482223Y-115154151D01*
X62482223Y-115154151D02*
X62535852Y-115138190D01*
X62535852Y-115138190D02*
X62589467Y-115124525D01*
X62589467Y-115124525D02*
X62642954Y-115113096D01*
X62642954Y-115113096D02*
X62696197Y-115103843D01*
X62696197Y-115103843D02*
X62749080Y-115096705D01*
X62749080Y-115096705D02*
X62801487Y-115091620D01*
X62801487Y-115091620D02*
X62853304Y-115088529D01*
X62853304Y-115088529D02*
X62904415Y-115087369D01*
X62904415Y-115087369D02*
X62954705Y-115088080D01*
X62954705Y-115088080D02*
X63004057Y-115090602D01*
X63004057Y-115090602D02*
X63052356Y-115094874D01*
X63052356Y-115094874D02*
X63099488Y-115100834D01*
X63099488Y-115100834D02*
X63145335Y-115108421D01*
X63145335Y-115108421D02*
X63189784Y-115117576D01*
X63189784Y-115117576D02*
X63232718Y-115128237D01*
X63232718Y-115128237D02*
X63274022Y-115140343D01*
X63274022Y-115140343D02*
X63313580Y-115153834D01*
X63313580Y-115153834D02*
X63351277Y-115168648D01*
X63351277Y-115168648D02*
X63386997Y-115184725D01*
X63386997Y-115184725D02*
X63420626Y-115202004D01*
X54443843Y-115633804D02*
X54479455Y-115680214D01*
X54479455Y-115680214D02*
X54512867Y-115727723D01*
X54512867Y-115727723D02*
X54544074Y-115776262D01*
X54544074Y-115776262D02*
X54573071Y-115825763D01*
X54573071Y-115825763D02*
X54599852Y-115876159D01*
X54599852Y-115876159D02*
X54624413Y-115927381D01*
X54624413Y-115927381D02*
X54646748Y-115979362D01*
X54646748Y-115979362D02*
X54666853Y-116032035D01*
X54666853Y-116032035D02*
X54684722Y-116085330D01*
X54684722Y-116085330D02*
X54700351Y-116139181D01*
X54700351Y-116139181D02*
X54713734Y-116193520D01*
X54713734Y-116193520D02*
X54724867Y-116248278D01*
X54724867Y-116248278D02*
X54733744Y-116303388D01*
X54733744Y-116303388D02*
X54740360Y-116358782D01*
X54740360Y-116358782D02*
X54744710Y-116414393D01*
X54744710Y-116414393D02*
X54746790Y-116470152D01*
X54746790Y-116470152D02*
X54746594Y-116525991D01*
X54746594Y-116525991D02*
X54744117Y-116581844D01*
X54744117Y-116581844D02*
X54739354Y-116637641D01*
X54739354Y-116637641D02*
X54732300Y-116693315D01*
X54732300Y-116693315D02*
X54722950Y-116748799D01*
X54722950Y-116748799D02*
X54711299Y-116804024D01*
X54711299Y-116804024D02*
X54697342Y-116858923D01*
X54697342Y-116858923D02*
X54681074Y-116913428D01*
X54681074Y-116913428D02*
X54662490Y-116967471D01*
X54662490Y-116967471D02*
X54641584Y-117020984D01*
X54641584Y-117020984D02*
X54618353Y-117073899D01*
X54618353Y-117073899D02*
X54592790Y-117126149D01*
X54592790Y-117126149D02*
X54564891Y-117177666D01*
X54564891Y-117177666D02*
X54534651Y-117228381D01*
X54534651Y-117228381D02*
X54502064Y-117278228D01*
X54502064Y-117278228D02*
X54467126Y-117327138D01*
X64299043Y-116476237D02*
X64299434Y-116482586D01*
X64299434Y-116482586D02*
X64299814Y-116488936D01*
X64299814Y-116488936D02*
X64300188Y-116495285D01*
X64300188Y-116495285D02*
X64300555Y-116501633D01*
X64300555Y-116501633D02*
X64300920Y-116507979D01*
X64300920Y-116507979D02*
X64301284Y-116514323D01*
X64301284Y-116514323D02*
X64301650Y-116520665D01*
X64301650Y-116520665D02*
X64302019Y-116527004D01*
X64302019Y-116527004D02*
X64302394Y-116533340D01*
X64302394Y-116533340D02*
X64302779Y-116539672D01*
X64302779Y-116539672D02*
X64303173Y-116546001D01*
X64303173Y-116546001D02*
X64303582Y-116552325D01*
X64303582Y-116552325D02*
X64304005Y-116558645D01*
X64304005Y-116558645D02*
X64304447Y-116564960D01*
X64304447Y-116564960D02*
X64304908Y-116571269D01*
X64304908Y-116571269D02*
X64305392Y-116577572D01*
X64305392Y-116577572D02*
X64305901Y-116583870D01*
X64305901Y-116583870D02*
X64306437Y-116590160D01*
X64306437Y-116590160D02*
X64307003Y-116596444D01*
X64307003Y-116596444D02*
X64307600Y-116602720D01*
X64307600Y-116602720D02*
X64308231Y-116608989D01*
X64308231Y-116608989D02*
X64308899Y-116615249D01*
X64308899Y-116615249D02*
X64309606Y-116621501D01*
X64309606Y-116621501D02*
X64310353Y-116627744D01*
X64310353Y-116627744D02*
X64311144Y-116633978D01*
X64311144Y-116633978D02*
X64311981Y-116640202D01*
X64311981Y-116640202D02*
X64312866Y-116646416D01*
X64312866Y-116646416D02*
X64313801Y-116652619D01*
X64313801Y-116652619D02*
X64314789Y-116658812D01*
X64314789Y-116658812D02*
X64315832Y-116664993D01*
X64315832Y-116664993D02*
X64316932Y-116671163D01*
X64316932Y-116671163D02*
X64318093Y-116677321D01*
X62863943Y-115921671D02*
X62855293Y-115957185D01*
X62855293Y-115957185D02*
X62847205Y-115992686D01*
X62847205Y-115992686D02*
X62839682Y-116028176D01*
X62839682Y-116028176D02*
X62832730Y-116063652D01*
X62832730Y-116063652D02*
X62826351Y-116099117D01*
X62826351Y-116099117D02*
X62820550Y-116134569D01*
X62820550Y-116134569D02*
X62815330Y-116170009D01*
X62815330Y-116170009D02*
X62810695Y-116205436D01*
X62810695Y-116205436D02*
X62806649Y-116240851D01*
X62806649Y-116240851D02*
X62803197Y-116276253D01*
X62803197Y-116276253D02*
X62800341Y-116311643D01*
X62800341Y-116311643D02*
X62798086Y-116347021D01*
X62798086Y-116347021D02*
X62796436Y-116382386D01*
X62796436Y-116382386D02*
X62795394Y-116417739D01*
X62795394Y-116417739D02*
X62794964Y-116453080D01*
X62794964Y-116453080D02*
X62795151Y-116488408D01*
X62795151Y-116488408D02*
X62795958Y-116523724D01*
X62795958Y-116523724D02*
X62797388Y-116559027D01*
X62797388Y-116559027D02*
X62799447Y-116594318D01*
X62799447Y-116594318D02*
X62802137Y-116629596D01*
X62802137Y-116629596D02*
X62805463Y-116664862D01*
X62805463Y-116664862D02*
X62809429Y-116700116D01*
X62809429Y-116700116D02*
X62814038Y-116735357D01*
X62814038Y-116735357D02*
X62819294Y-116770586D01*
X62819294Y-116770586D02*
X62825201Y-116805803D01*
X62825201Y-116805803D02*
X62831763Y-116841007D01*
X62831763Y-116841007D02*
X62838984Y-116876198D01*
X62838984Y-116876198D02*
X62846868Y-116911378D01*
X62846868Y-116911378D02*
X62855419Y-116946544D01*
X62855419Y-116946544D02*
X62864640Y-116981699D01*
X62864640Y-116981699D02*
X62874535Y-117016841D01*
X62874535Y-117016841D02*
X62885109Y-117051971D01*
X63420626Y-115202004D02*
X63420626Y-115202004D01*
X59333343Y-115104638D02*
X59402868Y-115102505D01*
X59402868Y-115102505D02*
X59472060Y-115103997D01*
X59472060Y-115103997D02*
X59540794Y-115109043D01*
X59540794Y-115109043D02*
X59608947Y-115117573D01*
X59608947Y-115117573D02*
X59676397Y-115129515D01*
X59676397Y-115129515D02*
X59743020Y-115144798D01*
X59743020Y-115144798D02*
X59808692Y-115163351D01*
X59808692Y-115163351D02*
X59873291Y-115185104D01*
X59873291Y-115185104D02*
X59936693Y-115209985D01*
X59936693Y-115209985D02*
X59998775Y-115237924D01*
X59998775Y-115237924D02*
X60059413Y-115268849D01*
X60059413Y-115268849D02*
X60118485Y-115302690D01*
X60118485Y-115302690D02*
X60175867Y-115339376D01*
X60175867Y-115339376D02*
X60231436Y-115378836D01*
X60231436Y-115378836D02*
X60285069Y-115420999D01*
X60285069Y-115420999D02*
X60336642Y-115465794D01*
X60336642Y-115465794D02*
X60386033Y-115513149D01*
X60386033Y-115513149D02*
X60433117Y-115562995D01*
X60433117Y-115562995D02*
X60477772Y-115615261D01*
X60477772Y-115615261D02*
X60519874Y-115669874D01*
X60519874Y-115669874D02*
X60559301Y-115726765D01*
X60559301Y-115726765D02*
X60595929Y-115785862D01*
X60595929Y-115785862D02*
X60629634Y-115847095D01*
X60629634Y-115847095D02*
X60660294Y-115910393D01*
X60660294Y-115910393D02*
X60687785Y-115975684D01*
X60687785Y-115975684D02*
X60711984Y-116042898D01*
X60711984Y-116042898D02*
X60732767Y-116111964D01*
X60732767Y-116111964D02*
X60750012Y-116182810D01*
X60750012Y-116182810D02*
X60763596Y-116255367D01*
X60763596Y-116255367D02*
X60773394Y-116329563D01*
X60773394Y-116329563D02*
X60779284Y-116405327D01*
X60779284Y-116405327D02*
X60781143Y-116482588D01*
X65533059Y-117797038D02*
X65501886Y-117803252D01*
X65501886Y-117803252D02*
X65469544Y-117808008D01*
X65469544Y-117808008D02*
X65436112Y-117811310D01*
X65436112Y-117811310D02*
X65401672Y-117813165D01*
X65401672Y-117813165D02*
X65366308Y-117813575D01*
X65366308Y-117813575D02*
X65330099Y-117812548D01*
X65330099Y-117812548D02*
X65293129Y-117810087D01*
X65293129Y-117810087D02*
X65255478Y-117806199D01*
X65255478Y-117806199D02*
X65217229Y-117800887D01*
X65217229Y-117800887D02*
X65178463Y-117794156D01*
X65178463Y-117794156D02*
X65139262Y-117786013D01*
X65139262Y-117786013D02*
X65099709Y-117776462D01*
X65099709Y-117776462D02*
X65059884Y-117765508D01*
X65059884Y-117765508D02*
X65019869Y-117753155D01*
X65019869Y-117753155D02*
X64979747Y-117739410D01*
X64979747Y-117739410D02*
X64939599Y-117724277D01*
X64939599Y-117724277D02*
X64899506Y-117707761D01*
X64899506Y-117707761D02*
X64859551Y-117689867D01*
X64859551Y-117689867D02*
X64819816Y-117670600D01*
X64819816Y-117670600D02*
X64780381Y-117649966D01*
X64780381Y-117649966D02*
X64741330Y-117627969D01*
X64741330Y-117627969D02*
X64702743Y-117604614D01*
X64702743Y-117604614D02*
X64664703Y-117579907D01*
X64664703Y-117579907D02*
X64627291Y-117553852D01*
X64627291Y-117553852D02*
X64590589Y-117526455D01*
X64590589Y-117526455D02*
X64554679Y-117497719D01*
X64554679Y-117497719D02*
X64519642Y-117467652D01*
X64519642Y-117467652D02*
X64485561Y-117436257D01*
X64485561Y-117436257D02*
X64452517Y-117403540D01*
X64452517Y-117403540D02*
X64420592Y-117369505D01*
X64420592Y-117369505D02*
X64389867Y-117334158D01*
X64389867Y-117334158D02*
X64360426Y-117297504D01*
X63270343Y-115307838D02*
X63251106Y-115322670D01*
X63251106Y-115322670D02*
X63232292Y-115337799D01*
X63232292Y-115337799D02*
X63213899Y-115353223D01*
X63213899Y-115353223D02*
X63195928Y-115368940D01*
X63195928Y-115368940D02*
X63178379Y-115384948D01*
X63178379Y-115384948D02*
X63161251Y-115401246D01*
X63161251Y-115401246D02*
X63144545Y-115417832D01*
X63144545Y-115417832D02*
X63128261Y-115434705D01*
X63128261Y-115434705D02*
X63112398Y-115451863D01*
X63112398Y-115451863D02*
X63096957Y-115469305D01*
X63096957Y-115469305D02*
X63081938Y-115487030D01*
X63081938Y-115487030D02*
X63067341Y-115505034D01*
X63067341Y-115505034D02*
X63053165Y-115523318D01*
X63053165Y-115523318D02*
X63039411Y-115541880D01*
X63039411Y-115541880D02*
X63026078Y-115560717D01*
X63026078Y-115560717D02*
X63013167Y-115579829D01*
X63013167Y-115579829D02*
X63000678Y-115599213D01*
X63000678Y-115599213D02*
X62988611Y-115618869D01*
X62988611Y-115618869D02*
X62976965Y-115638795D01*
X62976965Y-115638795D02*
X62965741Y-115658989D01*
X62965741Y-115658989D02*
X62954938Y-115679449D01*
X62954938Y-115679449D02*
X62944558Y-115700175D01*
X62944558Y-115700175D02*
X62934599Y-115721164D01*
X62934599Y-115721164D02*
X62925061Y-115742415D01*
X62925061Y-115742415D02*
X62915945Y-115763927D01*
X62915945Y-115763927D02*
X62907251Y-115785697D01*
X62907251Y-115785697D02*
X62898979Y-115807725D01*
X62898979Y-115807725D02*
X62891128Y-115830009D01*
X62891128Y-115830009D02*
X62883699Y-115852547D01*
X62883699Y-115852547D02*
X62876692Y-115875337D01*
X62876692Y-115875337D02*
X62870106Y-115898379D01*
X62870106Y-115898379D02*
X62863943Y-115921671D01*
X65533059Y-117797038D02*
X65533059Y-117797038D01*
M02*
