%TF.GenerationSoftware,KiCad,Pcbnew,(5.1.10)-1*%
%TF.CreationDate,2021-12-10T09:46:15-08:00*%
%TF.ProjectId,6col-bottomplate,36636f6c-2d62-46f7-9474-6f6d706c6174,rev?*%
%TF.SameCoordinates,Original*%
%TF.FileFunction,Legend,Top*%
%TF.FilePolarity,Positive*%
%FSLAX46Y46*%
G04 Gerber Fmt 4.6, Leading zero omitted, Abs format (unit mm)*
G04 Created by KiCad (PCBNEW (5.1.10)-1) date 2021-12-10 09:46:15*
%MOMM*%
%LPD*%
G01*
G04 APERTURE LIST*
%ADD10C,0.360000*%
%ADD11C,0.300000*%
%ADD12C,0.150000*%
G04 APERTURE END LIST*
D10*
X113753717Y-77885779D02*
X113670613Y-78364989D01*
X113670613Y-78364989D02*
X113600113Y-78844107D01*
X113600113Y-78844107D02*
X113542543Y-79323039D01*
X113542543Y-79323039D02*
X113498228Y-79801692D01*
X113498228Y-79801692D02*
X113467494Y-80279973D01*
X113467494Y-80279973D02*
X113450665Y-80757788D01*
X113450665Y-80757788D02*
X113448069Y-81235046D01*
X113448069Y-81235046D02*
X113460029Y-81711653D01*
X113460029Y-81711653D02*
X113486873Y-82187515D01*
X113486873Y-82187515D02*
X113528924Y-82662540D01*
X113528924Y-82662540D02*
X113586510Y-83136635D01*
X113586510Y-83136635D02*
X113659955Y-83609707D01*
X113659955Y-83609707D02*
X113749586Y-84081663D01*
X113749586Y-84081663D02*
X113855726Y-84552409D01*
X113855726Y-84552409D02*
X113978704Y-85021854D01*
X113978704Y-85021854D02*
X114118843Y-85489903D01*
X118103468Y-71583403D02*
X117853358Y-71847548D01*
X117853358Y-71847548D02*
X117817718Y-71869153D01*
X77701592Y-81140153D02*
X77701592Y-81140153D01*
X69462467Y-88156903D02*
X69126631Y-88518956D01*
X69126631Y-88518956D02*
X68780500Y-88858305D01*
X68780500Y-88858305D02*
X68424940Y-89175406D01*
X68424940Y-89175406D02*
X68060816Y-89470714D01*
X68060816Y-89470714D02*
X67688994Y-89744686D01*
X67688994Y-89744686D02*
X67310342Y-89997779D01*
X67310342Y-89997779D02*
X66925725Y-90230448D01*
X66925725Y-90230448D02*
X66536009Y-90443151D01*
X66536009Y-90443151D02*
X66142062Y-90636343D01*
X66142062Y-90636343D02*
X65744748Y-90810481D01*
X65744748Y-90810481D02*
X65344934Y-90966022D01*
X65344934Y-90966022D02*
X64943487Y-91103421D01*
X64943487Y-91103421D02*
X64541272Y-91223135D01*
X64541272Y-91223135D02*
X64139156Y-91325620D01*
X64139156Y-91325620D02*
X63738005Y-91411334D01*
X63738005Y-91411334D02*
X63338685Y-91480731D01*
X63338685Y-91480731D02*
X62942063Y-91534269D01*
X62942063Y-91534269D02*
X62549005Y-91572404D01*
X62549005Y-91572404D02*
X62160377Y-91595592D01*
X62160377Y-91595592D02*
X61777044Y-91604290D01*
X61777044Y-91604290D02*
X61399875Y-91598953D01*
X61399875Y-91598953D02*
X61029733Y-91580039D01*
X61029733Y-91580039D02*
X60667487Y-91548004D01*
X60667487Y-91548004D02*
X59970144Y-91446395D01*
X59970144Y-91446395D02*
X59314775Y-91297777D01*
X59314775Y-91297777D02*
X58708311Y-91105801D01*
X58708311Y-91105801D02*
X58157680Y-90874119D01*
X58157680Y-90874119D02*
X57905468Y-90744529D01*
X58810343Y-72615278D02*
X58504353Y-72395233D01*
X58504353Y-72395233D02*
X58185574Y-72175769D01*
X58185574Y-72175769D02*
X57859818Y-71948167D01*
X57859818Y-71948167D02*
X57794342Y-71900903D01*
X61921843Y-76869778D02*
X61752244Y-76383376D01*
X61752244Y-76383376D02*
X61556248Y-75915313D01*
X61556248Y-75915313D02*
X61334249Y-75465510D01*
X61334249Y-75465510D02*
X61086637Y-75033890D01*
X61086637Y-75033890D02*
X60813807Y-74620373D01*
X60813807Y-74620373D02*
X60516149Y-74224881D01*
X60516149Y-74224881D02*
X60194057Y-73847336D01*
X60194057Y-73847336D02*
X59847922Y-73487659D01*
X59847922Y-73487659D02*
X59478138Y-73145771D01*
X59478138Y-73145771D02*
X59085097Y-72821595D01*
X59085097Y-72821595D02*
X58810343Y-72615278D01*
X88560092Y-91474778D02*
X88038649Y-91490772D01*
X88038649Y-91490772D02*
X87519713Y-91479580D01*
X87519713Y-91479580D02*
X87004207Y-91441732D01*
X87004207Y-91441732D02*
X86493055Y-91377760D01*
X86493055Y-91377760D02*
X85987182Y-91288198D01*
X85987182Y-91288198D02*
X85487512Y-91173575D01*
X85487512Y-91173575D02*
X84994969Y-91034425D01*
X84994969Y-91034425D02*
X84510478Y-90871280D01*
X84510478Y-90871280D02*
X84034964Y-90684671D01*
X84034964Y-90684671D02*
X83569350Y-90475130D01*
X83569350Y-90475130D02*
X83114561Y-90243189D01*
X83114561Y-90243189D02*
X82671521Y-89989380D01*
X82671521Y-89989380D02*
X82241155Y-89714236D01*
X82241155Y-89714236D02*
X81824387Y-89418287D01*
X81824387Y-89418287D02*
X81422141Y-89102067D01*
X81422141Y-89102067D02*
X81035342Y-88766106D01*
X81035342Y-88766106D02*
X80664914Y-88410937D01*
X80664914Y-88410937D02*
X80311781Y-88037092D01*
X80311781Y-88037092D02*
X79976869Y-87645103D01*
X79976869Y-87645103D02*
X79661100Y-87235502D01*
X79661100Y-87235502D02*
X79365400Y-86808820D01*
X79365400Y-86808820D02*
X79090693Y-86365590D01*
X79090693Y-86365590D02*
X78837903Y-85906343D01*
X78837903Y-85906343D02*
X78607955Y-85431612D01*
X78607955Y-85431612D02*
X78401773Y-84941928D01*
X78401773Y-84941928D02*
X78220281Y-84437823D01*
X78220281Y-84437823D02*
X78064404Y-83919830D01*
X78064404Y-83919830D02*
X77935066Y-83388480D01*
X77935066Y-83388480D02*
X77833191Y-82844306D01*
X77833191Y-82844306D02*
X77759704Y-82287838D01*
X77759704Y-82287838D02*
X77715530Y-81719610D01*
X77715530Y-81719610D02*
X77701592Y-81140153D01*
X87258343Y-70932529D02*
X87840659Y-70909165D01*
X87840659Y-70909165D02*
X88411598Y-70915839D01*
X88411598Y-70915839D02*
X88970758Y-70951617D01*
X88970758Y-70951617D02*
X89517739Y-71015562D01*
X89517739Y-71015562D02*
X90052140Y-71106737D01*
X90052140Y-71106737D02*
X90573559Y-71224208D01*
X90573559Y-71224208D02*
X91081595Y-71367037D01*
X91081595Y-71367037D02*
X91575846Y-71534290D01*
X91575846Y-71534290D02*
X92055913Y-71725029D01*
X92055913Y-71725029D02*
X92521393Y-71938319D01*
X92521393Y-71938319D02*
X92971886Y-72173224D01*
X92971886Y-72173224D02*
X93406990Y-72428809D01*
X93406990Y-72428809D02*
X93826305Y-72704136D01*
X93826305Y-72704136D02*
X94229429Y-72998270D01*
X94229429Y-72998270D02*
X94615960Y-73310275D01*
X94615960Y-73310275D02*
X94985499Y-73639215D01*
X94985499Y-73639215D02*
X95337643Y-73984154D01*
X95337643Y-73984154D02*
X95671992Y-74344157D01*
X95671992Y-74344157D02*
X95988144Y-74718286D01*
X95988144Y-74718286D02*
X96285698Y-75105606D01*
X96285698Y-75105606D02*
X96564254Y-75505182D01*
X96564254Y-75505182D02*
X96823410Y-75916076D01*
X96823410Y-75916076D02*
X97062764Y-76337354D01*
X97062764Y-76337354D02*
X97281917Y-76768078D01*
X97281917Y-76768078D02*
X97480466Y-77207314D01*
X97480466Y-77207314D02*
X97658010Y-77654125D01*
X97658010Y-77654125D02*
X97814149Y-78107575D01*
X97814149Y-78107575D02*
X97948481Y-78566728D01*
X97948481Y-78566728D02*
X98060605Y-79030649D01*
X98060605Y-79030649D02*
X98150120Y-79498400D01*
X98150120Y-79498400D02*
X98216624Y-79969047D01*
X98216624Y-79969047D02*
X98259718Y-80441653D01*
X62080592Y-85347028D02*
X62206126Y-84814409D01*
X62206126Y-84814409D02*
X62314686Y-84282163D01*
X62314686Y-84282163D02*
X62406037Y-83750288D01*
X62406037Y-83750288D02*
X62479947Y-83218786D01*
X62479947Y-83218786D02*
X62536184Y-82687655D01*
X62536184Y-82687655D02*
X62574515Y-82156897D01*
X62574515Y-82156897D02*
X62594707Y-81626511D01*
X62594707Y-81626511D02*
X62596529Y-81096497D01*
X62596529Y-81096497D02*
X62579747Y-80566854D01*
X62579747Y-80566854D02*
X62544129Y-80037584D01*
X62544129Y-80037584D02*
X62489443Y-79508686D01*
X62489443Y-79508686D02*
X62415455Y-78980160D01*
X62415455Y-78980160D02*
X62321934Y-78452007D01*
X62321934Y-78452007D02*
X62208646Y-77924225D01*
X62208646Y-77924225D02*
X62075360Y-77396815D01*
X62075360Y-77396815D02*
X61921843Y-76869778D01*
X69795842Y-74869528D02*
X70083465Y-75249164D01*
X70083465Y-75249164D02*
X70351075Y-75637550D01*
X70351075Y-75637550D02*
X70598751Y-76034041D01*
X70598751Y-76034041D02*
X70826570Y-76437990D01*
X70826570Y-76437990D02*
X71034611Y-76848753D01*
X71034611Y-76848753D02*
X71222953Y-77265684D01*
X71222953Y-77265684D02*
X71391673Y-77688137D01*
X71391673Y-77688137D02*
X71540852Y-78115469D01*
X71540852Y-78115469D02*
X71670566Y-78547033D01*
X71670566Y-78547033D02*
X71780895Y-78982183D01*
X71780895Y-78982183D02*
X71871917Y-79420276D01*
X71871917Y-79420276D02*
X71943711Y-79860665D01*
X71943711Y-79860665D02*
X71996355Y-80302705D01*
X71996355Y-80302705D02*
X72029927Y-80745750D01*
X72029927Y-80745750D02*
X72044506Y-81189156D01*
X72044506Y-81189156D02*
X72040170Y-81632278D01*
X72040170Y-81632278D02*
X72016999Y-82074469D01*
X72016999Y-82074469D02*
X71975070Y-82515084D01*
X71975070Y-82515084D02*
X71914461Y-82953479D01*
X71914461Y-82953479D02*
X71835253Y-83389007D01*
X71835253Y-83389007D02*
X71737522Y-83821025D01*
X71737522Y-83821025D02*
X71621347Y-84248885D01*
X71621347Y-84248885D02*
X71486807Y-84671944D01*
X71486807Y-84671944D02*
X71333981Y-85089555D01*
X71333981Y-85089555D02*
X71162946Y-85501073D01*
X71162946Y-85501073D02*
X70973782Y-85905854D01*
X70973782Y-85905854D02*
X70766566Y-86303251D01*
X70766566Y-86303251D02*
X70541378Y-86692620D01*
X70541378Y-86692620D02*
X70298295Y-87073315D01*
X70298295Y-87073315D02*
X70037397Y-87444690D01*
X70037397Y-87444690D02*
X69758761Y-87806101D01*
X69758761Y-87806101D02*
X69462467Y-88156903D01*
X57794342Y-71900903D02*
X58413281Y-71626760D01*
X58413281Y-71626760D02*
X59080961Y-71401429D01*
X59080961Y-71401429D02*
X59430986Y-71307904D01*
X59430986Y-71307904D02*
X59790685Y-71227584D01*
X59790685Y-71227584D02*
X60159221Y-71160803D01*
X60159221Y-71160803D02*
X60535756Y-71107897D01*
X60535756Y-71107897D02*
X60919454Y-71069200D01*
X60919454Y-71069200D02*
X61309476Y-71045045D01*
X61309476Y-71045045D02*
X61704987Y-71035767D01*
X61704987Y-71035767D02*
X62105149Y-71041700D01*
X62105149Y-71041700D02*
X62509124Y-71063179D01*
X62509124Y-71063179D02*
X62916076Y-71100537D01*
X62916076Y-71100537D02*
X63325167Y-71154110D01*
X63325167Y-71154110D02*
X63735561Y-71224231D01*
X63735561Y-71224231D02*
X64146420Y-71311235D01*
X64146420Y-71311235D02*
X64556906Y-71415456D01*
X64556906Y-71415456D02*
X64966184Y-71537228D01*
X64966184Y-71537228D02*
X65373414Y-71676886D01*
X65373414Y-71676886D02*
X65777762Y-71834763D01*
X65777762Y-71834763D02*
X66178389Y-72011195D01*
X66178389Y-72011195D02*
X66574457Y-72206515D01*
X66574457Y-72206515D02*
X66965131Y-72421057D01*
X66965131Y-72421057D02*
X67349573Y-72655157D01*
X67349573Y-72655157D02*
X67726945Y-72909148D01*
X67726945Y-72909148D02*
X68096411Y-73183364D01*
X68096411Y-73183364D02*
X68457133Y-73478140D01*
X68457133Y-73478140D02*
X68808274Y-73793810D01*
X68808274Y-73793810D02*
X69148997Y-74130708D01*
X69148997Y-74130708D02*
X69478466Y-74489170D01*
X69478466Y-74489170D02*
X69795842Y-74869528D01*
X77701592Y-81140153D02*
X77711029Y-80642520D01*
X77711029Y-80642520D02*
X77744911Y-80150163D01*
X77744911Y-80150163D02*
X77802657Y-79663707D01*
X77802657Y-79663707D02*
X77883689Y-79183776D01*
X77883689Y-79183776D02*
X77987430Y-78710996D01*
X77987430Y-78710996D02*
X78113299Y-78245992D01*
X78113299Y-78245992D02*
X78260720Y-77789389D01*
X78260720Y-77789389D02*
X78429114Y-77341811D01*
X78429114Y-77341811D02*
X78617901Y-76903884D01*
X78617901Y-76903884D02*
X78826504Y-76476232D01*
X78826504Y-76476232D02*
X79054344Y-76059481D01*
X79054344Y-76059481D02*
X79300843Y-75654256D01*
X79300843Y-75654256D02*
X79565423Y-75261180D01*
X79565423Y-75261180D02*
X79847504Y-74880880D01*
X79847504Y-74880880D02*
X80146509Y-74513981D01*
X80146509Y-74513981D02*
X80461858Y-74161107D01*
X80461858Y-74161107D02*
X80792974Y-73822882D01*
X80792974Y-73822882D02*
X81139278Y-73499934D01*
X81139278Y-73499934D02*
X81500191Y-73192885D01*
X81500191Y-73192885D02*
X81875136Y-72902362D01*
X81875136Y-72902362D02*
X82263533Y-72628988D01*
X82263533Y-72628988D02*
X82664805Y-72373390D01*
X82664805Y-72373390D02*
X83078372Y-72136192D01*
X83078372Y-72136192D02*
X83503657Y-71918019D01*
X83503657Y-71918019D02*
X83940080Y-71719495D01*
X83940080Y-71719495D02*
X84387064Y-71541247D01*
X84387064Y-71541247D02*
X84844030Y-71383899D01*
X84844030Y-71383899D02*
X85310399Y-71248075D01*
X85310399Y-71248075D02*
X85785594Y-71134401D01*
X85785594Y-71134401D02*
X86269035Y-71043502D01*
X86269035Y-71043502D02*
X86760144Y-70976003D01*
X86760144Y-70976003D02*
X87258343Y-70932529D01*
X57905468Y-90744529D02*
X58206596Y-90537905D01*
X58206596Y-90537905D02*
X58527725Y-90317536D01*
X58527725Y-90317536D02*
X58834255Y-90099757D01*
X58834255Y-90099757D02*
X59032592Y-89950778D01*
X59032592Y-89950778D02*
X59317970Y-89726063D01*
X59317970Y-89726063D02*
X59722317Y-89372450D01*
X59722317Y-89372450D02*
X60098201Y-88999270D01*
X60098201Y-88999270D02*
X60445622Y-88606835D01*
X60445622Y-88606835D02*
X60764579Y-88195459D01*
X60764579Y-88195459D02*
X61055073Y-87765456D01*
X61055073Y-87765456D02*
X61317103Y-87317140D01*
X61317103Y-87317140D02*
X61550671Y-86850826D01*
X61550671Y-86850826D02*
X61755774Y-86366826D01*
X61755774Y-86366826D02*
X61932415Y-85865455D01*
X61932415Y-85865455D02*
X62080592Y-85347028D01*
X98259718Y-80441653D02*
X98283796Y-80996216D01*
X98283796Y-80996216D02*
X98279150Y-81543291D01*
X98279150Y-81543291D02*
X98246541Y-82082273D01*
X98246541Y-82082273D02*
X98186730Y-82612559D01*
X98186730Y-82612559D02*
X98100478Y-83133543D01*
X98100478Y-83133543D02*
X97988548Y-83644620D01*
X97988548Y-83644620D02*
X97851701Y-84145186D01*
X97851701Y-84145186D02*
X97690698Y-84634637D01*
X97690698Y-84634637D02*
X97506301Y-85112368D01*
X97506301Y-85112368D02*
X97299272Y-85577773D01*
X97299272Y-85577773D02*
X97070372Y-86030250D01*
X97070372Y-86030250D02*
X96820363Y-86469192D01*
X96820363Y-86469192D02*
X96550007Y-86893995D01*
X96550007Y-86893995D02*
X96260064Y-87304056D01*
X96260064Y-87304056D02*
X95951297Y-87698768D01*
X95951297Y-87698768D02*
X95624467Y-88077528D01*
X95624467Y-88077528D02*
X95280336Y-88439731D01*
X95280336Y-88439731D02*
X94919665Y-88784772D01*
X94919665Y-88784772D02*
X94543216Y-89112046D01*
X94543216Y-89112046D02*
X94151751Y-89420950D01*
X94151751Y-89420950D02*
X93746031Y-89710878D01*
X93746031Y-89710878D02*
X93326817Y-89981226D01*
X93326817Y-89981226D02*
X92894871Y-90231389D01*
X92894871Y-90231389D02*
X92450955Y-90460762D01*
X92450955Y-90460762D02*
X91995831Y-90668742D01*
X91995831Y-90668742D02*
X91530260Y-90854723D01*
X91530260Y-90854723D02*
X91055003Y-91018100D01*
X91055003Y-91018100D02*
X90570822Y-91158270D01*
X90570822Y-91158270D02*
X90078479Y-91274627D01*
X90078479Y-91274627D02*
X89578735Y-91366567D01*
X89578735Y-91366567D02*
X89072352Y-91433486D01*
X89072352Y-91433486D02*
X88560092Y-91474778D01*
X114118843Y-85489903D02*
X114242316Y-85850652D01*
X114242316Y-85850652D02*
X114380346Y-86200774D01*
X114380346Y-86200774D02*
X114532608Y-86540431D01*
X114532608Y-86540431D02*
X114698776Y-86869787D01*
X114698776Y-86869787D02*
X114878525Y-87189004D01*
X114878525Y-87189004D02*
X115071528Y-87498245D01*
X115071528Y-87498245D02*
X115277461Y-87797673D01*
X115277461Y-87797673D02*
X115495998Y-88087450D01*
X115495998Y-88087450D02*
X115726814Y-88367739D01*
X115726814Y-88367739D02*
X115969582Y-88638703D01*
X115969582Y-88638703D02*
X116223977Y-88900505D01*
X116223977Y-88900505D02*
X116489674Y-89153308D01*
X116489674Y-89153308D02*
X116766347Y-89397273D01*
X116766347Y-89397273D02*
X117053670Y-89632565D01*
X117053670Y-89632565D02*
X117351319Y-89859346D01*
X117351319Y-89859346D02*
X117658967Y-90077779D01*
X117817718Y-71869153D02*
X117397972Y-72133454D01*
X117397972Y-72133454D02*
X117001736Y-72414174D01*
X117001736Y-72414174D02*
X116628708Y-72710985D01*
X116628708Y-72710985D02*
X116278586Y-73023563D01*
X116278586Y-73023563D02*
X115951067Y-73351582D01*
X115951067Y-73351582D02*
X115645849Y-73694716D01*
X115645849Y-73694716D02*
X115362630Y-74052640D01*
X115362630Y-74052640D02*
X115101107Y-74425028D01*
X115101107Y-74425028D02*
X114860978Y-74811555D01*
X114860978Y-74811555D02*
X114641941Y-75211895D01*
X114641941Y-75211895D02*
X114443694Y-75625722D01*
X114443694Y-75625722D02*
X114265933Y-76052712D01*
X114265933Y-76052712D02*
X114108358Y-76492538D01*
X114108358Y-76492538D02*
X113970665Y-76944875D01*
X113970665Y-76944875D02*
X113852552Y-77409397D01*
X113852552Y-77409397D02*
X113753717Y-77885779D01*
X51174467Y-79679653D02*
X51091467Y-79285883D01*
X51091467Y-79285883D02*
X50994346Y-78896604D01*
X50994346Y-78896604D02*
X50883214Y-78512214D01*
X50883214Y-78512214D02*
X50758182Y-78133112D01*
X50758182Y-78133112D02*
X50619360Y-77759695D01*
X50619360Y-77759695D02*
X50466859Y-77392362D01*
X50466859Y-77392362D02*
X50300788Y-77031512D01*
X50300788Y-77031512D02*
X50121259Y-76677542D01*
X50121259Y-76677542D02*
X49928383Y-76330850D01*
X49928383Y-76330850D02*
X49722268Y-75991836D01*
X49722268Y-75991836D02*
X49503027Y-75660896D01*
X49503027Y-75660896D02*
X49270769Y-75338430D01*
X49270769Y-75338430D02*
X49025605Y-75024835D01*
X49025605Y-75024835D02*
X48767645Y-74720510D01*
X48767645Y-74720510D02*
X48496999Y-74425853D01*
X48496999Y-74425853D02*
X48213779Y-74141263D01*
X48213779Y-74141263D02*
X47918095Y-73867136D01*
X47918095Y-73867136D02*
X47610056Y-73603873D01*
X47610056Y-73603873D02*
X47289775Y-73351870D01*
X47289775Y-73351870D02*
X46957360Y-73111527D01*
X46957360Y-73111527D02*
X46612923Y-72883241D01*
X46612923Y-72883241D02*
X46256573Y-72667411D01*
X46256573Y-72667411D02*
X45888422Y-72464434D01*
X45888422Y-72464434D02*
X45508580Y-72274710D01*
X45508580Y-72274710D02*
X45117157Y-72098636D01*
X45117157Y-72098636D02*
X44714264Y-71936610D01*
X44714264Y-71936610D02*
X44300012Y-71789031D01*
X44300012Y-71789031D02*
X43874510Y-71656298D01*
X43874510Y-71656298D02*
X43437869Y-71538807D01*
X43437869Y-71538807D02*
X42990199Y-71436958D01*
X42990199Y-71436958D02*
X42531612Y-71351149D01*
X42531612Y-71351149D02*
X42062218Y-71281778D01*
X47713718Y-89236403D02*
X47996243Y-88983147D01*
X47996243Y-88983147D02*
X48271326Y-88722450D01*
X48271326Y-88722450D02*
X48537480Y-88452823D01*
X48537480Y-88452823D02*
X48793217Y-88172779D01*
X43665593Y-91347778D02*
X44025012Y-91235164D01*
X44025012Y-91235164D02*
X44385921Y-91125528D01*
X44385921Y-91125528D02*
X44743852Y-91003985D01*
X44743852Y-91003985D02*
X45094343Y-90855653D01*
X125231342Y-87506029D02*
X124964248Y-87157948D01*
X124964248Y-87157948D02*
X124713656Y-86801633D01*
X124713656Y-86801633D02*
X124479604Y-86437592D01*
X124479604Y-86437592D02*
X124262130Y-86066333D01*
X124262130Y-86066333D02*
X124061270Y-85688366D01*
X124061270Y-85688366D02*
X123877064Y-85304198D01*
X123877064Y-85304198D02*
X123709549Y-84914338D01*
X123709549Y-84914338D02*
X123558762Y-84519296D01*
X123558762Y-84519296D02*
X123424742Y-84119579D01*
X123424742Y-84119579D02*
X123307525Y-83715698D01*
X123307525Y-83715698D02*
X123207151Y-83308159D01*
X123207151Y-83308159D02*
X123123657Y-82897472D01*
X123123657Y-82897472D02*
X123057080Y-82484146D01*
X123057080Y-82484146D02*
X123007459Y-82068689D01*
X123007459Y-82068689D02*
X122974830Y-81651611D01*
X122974830Y-81651611D02*
X122959233Y-81233419D01*
X122959233Y-81233419D02*
X122960704Y-80814622D01*
X122960704Y-80814622D02*
X122979282Y-80395729D01*
X122979282Y-80395729D02*
X123015004Y-79977250D01*
X123015004Y-79977250D02*
X123067909Y-79559691D01*
X123067909Y-79559691D02*
X123138033Y-79143563D01*
X123138033Y-79143563D02*
X123225415Y-78729374D01*
X123225415Y-78729374D02*
X123330092Y-78317632D01*
X123330092Y-78317632D02*
X123452102Y-77908846D01*
X123452102Y-77908846D02*
X123591484Y-77503525D01*
X123591484Y-77503525D02*
X123748274Y-77102178D01*
X123748274Y-77102178D02*
X123922511Y-76705313D01*
X123922511Y-76705313D02*
X124114232Y-76313439D01*
X124114232Y-76313439D02*
X124323476Y-75927065D01*
X124323476Y-75927065D02*
X124550279Y-75546699D01*
X124550279Y-75546699D02*
X124794681Y-75172851D01*
X124794681Y-75172851D02*
X125056718Y-74806028D01*
X133851467Y-70837279D02*
X133851467Y-70837279D01*
X118103468Y-71583403D02*
X118103468Y-71583403D01*
X45094343Y-90855653D02*
X45451034Y-90679043D01*
X45451034Y-90679043D02*
X45804749Y-90502434D01*
X45804749Y-90502434D02*
X46152510Y-90319872D01*
X46152510Y-90319872D02*
X46491343Y-90125404D01*
X125056718Y-74806028D02*
X125292490Y-74499755D01*
X125292490Y-74499755D02*
X125537963Y-74205967D01*
X125537963Y-74205967D02*
X125792418Y-73924591D01*
X125792418Y-73924591D02*
X126055137Y-73655555D01*
X126055137Y-73655555D02*
X126325402Y-73398785D01*
X126325402Y-73398785D02*
X126602495Y-73154210D01*
X126602495Y-73154210D02*
X126885698Y-72921755D01*
X126885698Y-72921755D02*
X127174293Y-72701350D01*
X127174293Y-72701350D02*
X127764788Y-72296394D01*
X127764788Y-72296394D02*
X128368236Y-71938761D01*
X128368236Y-71938761D02*
X128978892Y-71627869D01*
X128978892Y-71627869D02*
X129591014Y-71363137D01*
X129591014Y-71363137D02*
X130198856Y-71143984D01*
X130198856Y-71143984D02*
X130796676Y-70969828D01*
X130796676Y-70969828D02*
X131378730Y-70840088D01*
X131378730Y-70840088D02*
X131939273Y-70754182D01*
X131939273Y-70754182D02*
X132472562Y-70711530D01*
X132472562Y-70711530D02*
X132972853Y-70711549D01*
X132972853Y-70711549D02*
X133434403Y-70753659D01*
X133434403Y-70753659D02*
X133851467Y-70837279D01*
X124755092Y-80282903D02*
X124733880Y-80797274D01*
X124733880Y-80797274D02*
X124735713Y-81304484D01*
X124735713Y-81304484D02*
X124760568Y-81804438D01*
X124760568Y-81804438D02*
X124808422Y-82297043D01*
X124808422Y-82297043D02*
X124879251Y-82782208D01*
X124879251Y-82782208D02*
X124973032Y-83259837D01*
X124973032Y-83259837D02*
X125089742Y-83729840D01*
X125089742Y-83729840D02*
X125229358Y-84192122D01*
X125229358Y-84192122D02*
X125391856Y-84646590D01*
X125391856Y-84646590D02*
X125577213Y-85093152D01*
X125577213Y-85093152D02*
X125785406Y-85531715D01*
X125785406Y-85531715D02*
X126016411Y-85962185D01*
X126016411Y-85962185D02*
X126270205Y-86384469D01*
X126270205Y-86384469D02*
X126546766Y-86798475D01*
X126546766Y-86798475D02*
X126846070Y-87204109D01*
X126846070Y-87204109D02*
X127168093Y-87601279D01*
X50952218Y-84235778D02*
X51050940Y-83852297D01*
X51050940Y-83852297D02*
X51134780Y-83465840D01*
X51134780Y-83465840D02*
X51206713Y-83079383D01*
X51206713Y-83079383D02*
X51269717Y-82695904D01*
X51301468Y-87283778D02*
X51052363Y-87631644D01*
X51052363Y-87631644D02*
X50793188Y-87966744D01*
X50793188Y-87966744D02*
X50523922Y-88288961D01*
X50523922Y-88288961D02*
X50244540Y-88598178D01*
X50244540Y-88598178D02*
X49955018Y-88894280D01*
X49955018Y-88894280D02*
X49655335Y-89177151D01*
X49655335Y-89177151D02*
X49345466Y-89446673D01*
X49345466Y-89446673D02*
X49025389Y-89702731D01*
X49025389Y-89702731D02*
X48695080Y-89945208D01*
X48695080Y-89945208D02*
X48354515Y-90173989D01*
X48354515Y-90173989D02*
X48003672Y-90388956D01*
X48003672Y-90388956D02*
X47642528Y-90589994D01*
X47642528Y-90589994D02*
X47271058Y-90776987D01*
X47271058Y-90776987D02*
X46889240Y-90949817D01*
X46889240Y-90949817D02*
X46497051Y-91108370D01*
X46497051Y-91108370D02*
X46094468Y-91252528D01*
X51269717Y-82695904D02*
X51315110Y-82317384D01*
X51315110Y-82317384D02*
X51335202Y-81941841D01*
X51335202Y-81941841D02*
X51334457Y-81566298D01*
X51334457Y-81566298D02*
X51317342Y-81187779D01*
X46094468Y-91252528D02*
X45745373Y-91363067D01*
X45745373Y-91363067D02*
X45394603Y-91462096D01*
X45394603Y-91462096D02*
X45042160Y-91548986D01*
X45042160Y-91548986D02*
X44688042Y-91623110D01*
X44688042Y-91623110D02*
X44332249Y-91683838D01*
X44332249Y-91683838D02*
X43974783Y-91730545D01*
X43974783Y-91730545D02*
X43615642Y-91762601D01*
X43615642Y-91762601D02*
X43254827Y-91779379D01*
X43254827Y-91779379D02*
X42892337Y-91780252D01*
X42892337Y-91780252D02*
X42528174Y-91764590D01*
X42528174Y-91764590D02*
X42284468Y-91744654D01*
X42062218Y-71281778D02*
X42062218Y-71281778D01*
X49713968Y-86982154D02*
X49919350Y-86666637D01*
X49919350Y-86666637D02*
X50106874Y-86339216D01*
X50106874Y-86339216D02*
X50276538Y-85999888D01*
X50276538Y-85999888D02*
X50428343Y-85648654D01*
X42062218Y-71281778D02*
X42538580Y-71199500D01*
X42538580Y-71199500D02*
X43047614Y-71160824D01*
X43047614Y-71160824D02*
X43584415Y-71165447D01*
X43584415Y-71165447D02*
X44144074Y-71213069D01*
X44144074Y-71213069D02*
X44721686Y-71303385D01*
X44721686Y-71303385D02*
X45312344Y-71436094D01*
X45312344Y-71436094D02*
X45911141Y-71610893D01*
X45911141Y-71610893D02*
X46513170Y-71827481D01*
X46513170Y-71827481D02*
X47113525Y-72085554D01*
X47113525Y-72085554D02*
X47707299Y-72384811D01*
X47707299Y-72384811D02*
X48289585Y-72724949D01*
X48289585Y-72724949D02*
X48855477Y-73105667D01*
X48855477Y-73105667D02*
X49400068Y-73526660D01*
X49400068Y-73526660D02*
X49918451Y-73987629D01*
X49918451Y-73987629D02*
X50405720Y-74488269D01*
X50405720Y-74488269D02*
X50856968Y-75028279D01*
X51317342Y-81187779D02*
X51295018Y-80807026D01*
X51295018Y-80807026D02*
X51269717Y-80427762D01*
X51269717Y-80427762D02*
X51232510Y-80051475D01*
X51232510Y-80051475D02*
X51174467Y-79679653D01*
X42284468Y-91744654D02*
X42609657Y-91575485D01*
X42609657Y-91575485D02*
X43001512Y-91478714D01*
X43001512Y-91478714D02*
X43358130Y-91419842D01*
X43358130Y-91419842D02*
X43665593Y-91347778D01*
X50428343Y-85648654D02*
X50570473Y-85300643D01*
X50570473Y-85300643D02*
X50708139Y-84948168D01*
X50708139Y-84948168D02*
X50836876Y-84592717D01*
X50836876Y-84592717D02*
X50952218Y-84235778D01*
X46491343Y-90125404D02*
X46809587Y-89919524D01*
X46809587Y-89919524D02*
X47120389Y-89704715D01*
X47120389Y-89704715D02*
X47422262Y-89478000D01*
X47422262Y-89478000D02*
X47713718Y-89236403D01*
X50856968Y-75028279D02*
X51130287Y-75395989D01*
X51130287Y-75395989D02*
X51384834Y-75769539D01*
X51384834Y-75769539D02*
X51620813Y-76148444D01*
X51620813Y-76148444D02*
X51838427Y-76532217D01*
X51838427Y-76532217D02*
X52037879Y-76920374D01*
X52037879Y-76920374D02*
X52219373Y-77312429D01*
X52219373Y-77312429D02*
X52383112Y-77707897D01*
X52383112Y-77707897D02*
X52529299Y-78106292D01*
X52529299Y-78106292D02*
X52658139Y-78507128D01*
X52658139Y-78507128D02*
X52769835Y-78909921D01*
X52769835Y-78909921D02*
X52864590Y-79314185D01*
X52864590Y-79314185D02*
X52942607Y-79719434D01*
X52942607Y-79719434D02*
X53004091Y-80125182D01*
X53004091Y-80125182D02*
X53049244Y-80530946D01*
X53049244Y-80530946D02*
X53078271Y-80936239D01*
X53078271Y-80936239D02*
X53091373Y-81340575D01*
X53091373Y-81340575D02*
X53088756Y-81743469D01*
X53088756Y-81743469D02*
X53070623Y-82144437D01*
X53070623Y-82144437D02*
X53037176Y-82542991D01*
X53037176Y-82542991D02*
X52988620Y-82938648D01*
X52988620Y-82938648D02*
X52925158Y-83330921D01*
X52925158Y-83330921D02*
X52846993Y-83719325D01*
X52846993Y-83719325D02*
X52754329Y-84103375D01*
X52754329Y-84103375D02*
X52647369Y-84482585D01*
X52647369Y-84482585D02*
X52526318Y-84856469D01*
X52526318Y-84856469D02*
X52391377Y-85224543D01*
X52391377Y-85224543D02*
X52242752Y-85586321D01*
X52242752Y-85586321D02*
X52080644Y-85941317D01*
X52080644Y-85941317D02*
X51905259Y-86289046D01*
X51905259Y-86289046D02*
X51716799Y-86629023D01*
X51716799Y-86629023D02*
X51515467Y-86960762D01*
X51515467Y-86960762D02*
X51301468Y-87283778D01*
X106260718Y-74583778D02*
X106598363Y-74191209D01*
X106598363Y-74191209D02*
X106946939Y-73822801D01*
X106946939Y-73822801D02*
X107305560Y-73478066D01*
X107305560Y-73478066D02*
X107673344Y-73156516D01*
X107673344Y-73156516D02*
X108049406Y-72857662D01*
X108049406Y-72857662D02*
X108432864Y-72581016D01*
X108432864Y-72581016D02*
X108822832Y-72326090D01*
X108822832Y-72326090D02*
X109218428Y-72092395D01*
X109218428Y-72092395D02*
X109618768Y-71879443D01*
X109618768Y-71879443D02*
X110022968Y-71686745D01*
X110022968Y-71686745D02*
X110430145Y-71513814D01*
X110430145Y-71513814D02*
X110839414Y-71360161D01*
X110839414Y-71360161D02*
X111249893Y-71225297D01*
X111249893Y-71225297D02*
X111660698Y-71108734D01*
X111660698Y-71108734D02*
X112070944Y-71009984D01*
X112070944Y-71009984D02*
X112479748Y-70928559D01*
X112479748Y-70928559D02*
X112886227Y-70863970D01*
X112886227Y-70863970D02*
X113289497Y-70815729D01*
X113289497Y-70815729D02*
X113688675Y-70783347D01*
X113688675Y-70783347D02*
X114082875Y-70766336D01*
X114082875Y-70766336D02*
X114471216Y-70764209D01*
X114471216Y-70764209D02*
X114852813Y-70776475D01*
X114852813Y-70776475D02*
X115226782Y-70802648D01*
X115226782Y-70802648D02*
X115592241Y-70842239D01*
X115592241Y-70842239D02*
X116294089Y-70959720D01*
X116294089Y-70959720D02*
X116951290Y-71125012D01*
X116951290Y-71125012D02*
X117556772Y-71334208D01*
X117556772Y-71334208D02*
X118103468Y-71583403D01*
X117658967Y-90077779D02*
X117980017Y-90271371D01*
X117980017Y-90271371D02*
X118182842Y-90490528D01*
X106467092Y-87760028D02*
X106178460Y-87411708D01*
X106178460Y-87411708D02*
X105907889Y-87051854D01*
X105907889Y-87051854D02*
X105655393Y-86681210D01*
X105655393Y-86681210D02*
X105420985Y-86300520D01*
X105420985Y-86300520D02*
X105204681Y-85910528D01*
X105204681Y-85910528D02*
X105006495Y-85511979D01*
X105006495Y-85511979D02*
X104826442Y-85105616D01*
X104826442Y-85105616D02*
X104664535Y-84692184D01*
X104664535Y-84692184D02*
X104520791Y-84272427D01*
X104520791Y-84272427D02*
X104395223Y-83847088D01*
X104395223Y-83847088D02*
X104287845Y-83416913D01*
X104287845Y-83416913D02*
X104198673Y-82982645D01*
X104198673Y-82982645D02*
X104127720Y-82545028D01*
X104127720Y-82545028D02*
X104075002Y-82104807D01*
X104075002Y-82104807D02*
X104040533Y-81662726D01*
X104040533Y-81662726D02*
X104024327Y-81219528D01*
X104024327Y-81219528D02*
X104026399Y-80775958D01*
X104026399Y-80775958D02*
X104046763Y-80332760D01*
X104046763Y-80332760D02*
X104085435Y-79890679D01*
X104085435Y-79890679D02*
X104142428Y-79450458D01*
X104142428Y-79450458D02*
X104217757Y-79012841D01*
X104217757Y-79012841D02*
X104311437Y-78578573D01*
X104311437Y-78578573D02*
X104423482Y-78148398D01*
X104423482Y-78148398D02*
X104553907Y-77723059D01*
X104553907Y-77723059D02*
X104702726Y-77303302D01*
X104702726Y-77303302D02*
X104869954Y-76889870D01*
X104869954Y-76889870D02*
X105055605Y-76483507D01*
X105055605Y-76483507D02*
X105259693Y-76084957D01*
X105259693Y-76084957D02*
X105482234Y-75694966D01*
X105482234Y-75694966D02*
X105723243Y-75314276D01*
X105723243Y-75314276D02*
X105982732Y-74943632D01*
X105982732Y-74943632D02*
X106260718Y-74583778D01*
X130724093Y-91062028D02*
X130311846Y-90947620D01*
X130311846Y-90947620D02*
X129908576Y-90818725D01*
X129908576Y-90818725D02*
X129514329Y-90675365D01*
X129514329Y-90675365D02*
X129129151Y-90517565D01*
X129129151Y-90517565D02*
X128753089Y-90345346D01*
X128753089Y-90345346D02*
X128386188Y-90158734D01*
X128386188Y-90158734D02*
X128028497Y-89957750D01*
X128028497Y-89957750D02*
X127680061Y-89742418D01*
X127680061Y-89742418D02*
X127340926Y-89512762D01*
X127340926Y-89512762D02*
X127011140Y-89268804D01*
X127011140Y-89268804D02*
X126690749Y-89010568D01*
X126690749Y-89010568D02*
X126379799Y-88738077D01*
X126379799Y-88738077D02*
X126078336Y-88451354D01*
X126078336Y-88451354D02*
X125786408Y-88150423D01*
X125786408Y-88150423D02*
X125504061Y-87835307D01*
X125504061Y-87835307D02*
X125231342Y-87506029D01*
X48793217Y-88172779D02*
X49037543Y-87881819D01*
X49037543Y-87881819D02*
X49271451Y-87583419D01*
X49271451Y-87583419D02*
X49496430Y-87282042D01*
X49496430Y-87282042D02*
X49713968Y-86982154D01*
X133851467Y-70837279D02*
X133279932Y-70936508D01*
X133279932Y-70936508D02*
X132729024Y-71057943D01*
X132729024Y-71057943D02*
X132198533Y-71200627D01*
X132198533Y-71200627D02*
X131688250Y-71363603D01*
X131688250Y-71363603D02*
X131197966Y-71545915D01*
X131197966Y-71545915D02*
X130727472Y-71746606D01*
X130727472Y-71746606D02*
X130276557Y-71964721D01*
X130276557Y-71964721D02*
X129845014Y-72199303D01*
X129845014Y-72199303D02*
X129432632Y-72449396D01*
X129432632Y-72449396D02*
X129039203Y-72714043D01*
X129039203Y-72714043D02*
X128664516Y-72992288D01*
X128664516Y-72992288D02*
X128308363Y-73283175D01*
X128308363Y-73283175D02*
X127970535Y-73585747D01*
X127970535Y-73585747D02*
X127650822Y-73899048D01*
X127650822Y-73899048D02*
X127349015Y-74222122D01*
X127349015Y-74222122D02*
X127064904Y-74554012D01*
X127064904Y-74554012D02*
X126798281Y-74893762D01*
X126798281Y-74893762D02*
X126548936Y-75240416D01*
X126548936Y-75240416D02*
X126316659Y-75593017D01*
X126316659Y-75593017D02*
X126101242Y-75950609D01*
X126101242Y-75950609D02*
X125902475Y-76312236D01*
X125902475Y-76312236D02*
X125720149Y-76676940D01*
X125720149Y-76676940D02*
X125554055Y-77043767D01*
X125554055Y-77043767D02*
X125403982Y-77411760D01*
X125403982Y-77411760D02*
X125269723Y-77779962D01*
X125269723Y-77779962D02*
X125151067Y-78147417D01*
X125151067Y-78147417D02*
X125047806Y-78513168D01*
X125047806Y-78513168D02*
X124959730Y-78876260D01*
X124959730Y-78876260D02*
X124886630Y-79235735D01*
X124886630Y-79235735D02*
X124784520Y-79940013D01*
X124784520Y-79940013D02*
X124755092Y-80282903D01*
X127168093Y-87601279D02*
X127504963Y-87983430D01*
X127504963Y-87983430D02*
X127854624Y-88344210D01*
X127854624Y-88344210D02*
X128216842Y-88683829D01*
X128216842Y-88683829D02*
X128591385Y-89002495D01*
X128591385Y-89002495D02*
X128978021Y-89300419D01*
X128978021Y-89300419D02*
X129376516Y-89577809D01*
X129376516Y-89577809D02*
X129786638Y-89834874D01*
X129786638Y-89834874D02*
X130208155Y-90071825D01*
X130208155Y-90071825D02*
X130640834Y-90288870D01*
X130640834Y-90288870D02*
X131084443Y-90486218D01*
X131084443Y-90486218D02*
X131538748Y-90664079D01*
X131538748Y-90664079D02*
X132003518Y-90822663D01*
X132003518Y-90822663D02*
X132478520Y-90962178D01*
X132478520Y-90962178D02*
X132963522Y-91082833D01*
X132963522Y-91082833D02*
X133458290Y-91184839D01*
X133458290Y-91184839D02*
X133962593Y-91268404D01*
X57905468Y-90744529D02*
X57905468Y-90744529D01*
X118182842Y-90490528D02*
X117654490Y-90738741D01*
X117654490Y-90738741D02*
X117068026Y-90950748D01*
X117068026Y-90950748D02*
X116430077Y-91122338D01*
X116430077Y-91122338D02*
X115747270Y-91249303D01*
X115747270Y-91249303D02*
X115026232Y-91327434D01*
X115026232Y-91327434D02*
X114653449Y-91346872D01*
X114653449Y-91346872D02*
X114273592Y-91352522D01*
X114273592Y-91352522D02*
X113887492Y-91343859D01*
X113887492Y-91343859D02*
X113495977Y-91320357D01*
X113495977Y-91320357D02*
X113099875Y-91281490D01*
X113099875Y-91281490D02*
X112700014Y-91226731D01*
X112700014Y-91226731D02*
X112297223Y-91155555D01*
X112297223Y-91155555D02*
X111892331Y-91067434D01*
X111892331Y-91067434D02*
X111486165Y-90961844D01*
X111486165Y-90961844D02*
X111079555Y-90838258D01*
X111079555Y-90838258D02*
X110673328Y-90696150D01*
X110673328Y-90696150D02*
X110268314Y-90534994D01*
X110268314Y-90534994D02*
X109865340Y-90354263D01*
X109865340Y-90354263D02*
X109465235Y-90153432D01*
X109465235Y-90153432D02*
X109068827Y-89931974D01*
X109068827Y-89931974D02*
X108676945Y-89689363D01*
X108676945Y-89689363D02*
X108290418Y-89425074D01*
X108290418Y-89425074D02*
X107910074Y-89138579D01*
X107910074Y-89138579D02*
X107536740Y-88829353D01*
X107536740Y-88829353D02*
X107171246Y-88496870D01*
X107171246Y-88496870D02*
X106814421Y-88140604D01*
X106814421Y-88140604D02*
X106467092Y-87760028D01*
X133962593Y-91268404D02*
X133548013Y-91338973D01*
X133548013Y-91338973D02*
X133137340Y-91374567D01*
X133137340Y-91374567D02*
X132730016Y-91378908D01*
X132730016Y-91378908D02*
X132325482Y-91355716D01*
X132325482Y-91355716D02*
X131923181Y-91308710D01*
X131923181Y-91308710D02*
X131522555Y-91241614D01*
X131522555Y-91241614D02*
X131123045Y-91158146D01*
X131123045Y-91158146D02*
X130724093Y-91062028D01*
D11*
X33887878Y-117297775D02*
X33745021Y-117226346D01*
X33673593Y-117083489D01*
X33673593Y-115797775D01*
X35102164Y-116297775D02*
X35102164Y-117297775D01*
X34459307Y-116297775D02*
X34459307Y-117083489D01*
X34530735Y-117226346D01*
X34673593Y-117297775D01*
X34887878Y-117297775D01*
X35030735Y-117226346D01*
X35102164Y-117154918D01*
X36459307Y-117297775D02*
X36459307Y-116512061D01*
X36387878Y-116369204D01*
X36245021Y-116297775D01*
X35959307Y-116297775D01*
X35816450Y-116369204D01*
X36459307Y-117226346D02*
X36316450Y-117297775D01*
X35959307Y-117297775D01*
X35816450Y-117226346D01*
X35745021Y-117083489D01*
X35745021Y-116940632D01*
X35816450Y-116797775D01*
X35959307Y-116726346D01*
X36316450Y-116726346D01*
X36459307Y-116654918D01*
X37173593Y-117297775D02*
X37173593Y-115797775D01*
X37316450Y-116726346D02*
X37745021Y-117297775D01*
X37745021Y-116297775D02*
X37173593Y-116869204D01*
X38959307Y-117226346D02*
X38816450Y-117297775D01*
X38530735Y-117297775D01*
X38387878Y-117226346D01*
X38316450Y-117083489D01*
X38316450Y-116512061D01*
X38387878Y-116369204D01*
X38530735Y-116297775D01*
X38816450Y-116297775D01*
X38959307Y-116369204D01*
X39030735Y-116512061D01*
X39030735Y-116654918D01*
X38316450Y-116797775D01*
X40245021Y-117226346D02*
X40102164Y-117297775D01*
X39816450Y-117297775D01*
X39673593Y-117226346D01*
X39602164Y-117083489D01*
X39602164Y-116512061D01*
X39673593Y-116369204D01*
X39816450Y-116297775D01*
X40102164Y-116297775D01*
X40245021Y-116369204D01*
X40316450Y-116512061D01*
X40316450Y-116654918D01*
X39602164Y-116797775D01*
X40959307Y-117297775D02*
X40959307Y-115797775D01*
X40959307Y-116369204D02*
X41102164Y-116297775D01*
X41387878Y-116297775D01*
X41530735Y-116369204D01*
X41602164Y-116440632D01*
X41673593Y-116583489D01*
X41673593Y-117012061D01*
X41602164Y-117154918D01*
X41530735Y-117226346D01*
X41387878Y-117297775D01*
X41102164Y-117297775D01*
X40959307Y-117226346D01*
X43459307Y-117297775D02*
X43459307Y-115797775D01*
X43459307Y-116369204D02*
X43602164Y-116297775D01*
X43887878Y-116297775D01*
X44030735Y-116369204D01*
X44102164Y-116440632D01*
X44173593Y-116583489D01*
X44173593Y-117012061D01*
X44102164Y-117154918D01*
X44030735Y-117226346D01*
X43887878Y-117297775D01*
X43602164Y-117297775D01*
X43459307Y-117226346D01*
X44673593Y-116297775D02*
X45030735Y-117297775D01*
X45387878Y-116297775D02*
X45030735Y-117297775D01*
X44887878Y-117654918D01*
X44816450Y-117726346D01*
X44673593Y-117797775D01*
X47030735Y-117226346D02*
X47173593Y-117297775D01*
X47459307Y-117297775D01*
X47602164Y-117226346D01*
X47673593Y-117083489D01*
X47673593Y-117012061D01*
X47602164Y-116869204D01*
X47459307Y-116797775D01*
X47245021Y-116797775D01*
X47102164Y-116726346D01*
X47030735Y-116583489D01*
X47030735Y-116512061D01*
X47102164Y-116369204D01*
X47245021Y-116297775D01*
X47459307Y-116297775D01*
X47602164Y-116369204D01*
X48959307Y-117297775D02*
X48959307Y-116512061D01*
X48887878Y-116369204D01*
X48745021Y-116297775D01*
X48459307Y-116297775D01*
X48316450Y-116369204D01*
X48959307Y-117226346D02*
X48816450Y-117297775D01*
X48459307Y-117297775D01*
X48316450Y-117226346D01*
X48245021Y-117083489D01*
X48245021Y-116940632D01*
X48316450Y-116797775D01*
X48459307Y-116726346D01*
X48816450Y-116726346D01*
X48959307Y-116654918D01*
X50316450Y-117297775D02*
X50316450Y-115797775D01*
X50316450Y-117226346D02*
X50173593Y-117297775D01*
X49887878Y-117297775D01*
X49745021Y-117226346D01*
X49673592Y-117154918D01*
X49602164Y-117012061D01*
X49602164Y-116583489D01*
X49673592Y-116440632D01*
X49745021Y-116369204D01*
X49887878Y-116297775D01*
X50173593Y-116297775D01*
X50316450Y-116369204D01*
X51602164Y-117226346D02*
X51459307Y-117297775D01*
X51173593Y-117297775D01*
X51030735Y-117226346D01*
X50959307Y-117083489D01*
X50959307Y-116512061D01*
X51030735Y-116369204D01*
X51173593Y-116297775D01*
X51459307Y-116297775D01*
X51602164Y-116369204D01*
X51673593Y-116512061D01*
X51673593Y-116654918D01*
X50959307Y-116797775D01*
X52316450Y-117297775D02*
X52316450Y-115797775D01*
X52459307Y-116726346D02*
X52887878Y-117297775D01*
X52887878Y-116297775D02*
X52316450Y-116869204D01*
X53530735Y-117297775D02*
X53530735Y-115797775D01*
X53530735Y-116369204D02*
X53673593Y-116297775D01*
X53959307Y-116297775D01*
X54102164Y-116369204D01*
X54173593Y-116440632D01*
X54245021Y-116583489D01*
X54245021Y-117012061D01*
X54173593Y-117154918D01*
X54102164Y-117226346D01*
X53959307Y-117297775D01*
X53673593Y-117297775D01*
X53530735Y-117226346D01*
X55530735Y-117297775D02*
X55530735Y-116512061D01*
X55459307Y-116369204D01*
X55316450Y-116297775D01*
X55030735Y-116297775D01*
X54887878Y-116369204D01*
X55530735Y-117226346D02*
X55387878Y-117297775D01*
X55030735Y-117297775D01*
X54887878Y-117226346D01*
X54816450Y-117083489D01*
X54816450Y-116940632D01*
X54887878Y-116797775D01*
X55030735Y-116726346D01*
X55387878Y-116726346D01*
X55530735Y-116654918D01*
X56245021Y-117297775D02*
X56245021Y-116297775D01*
X56245021Y-116583489D02*
X56316450Y-116440632D01*
X56387878Y-116369204D01*
X56530735Y-116297775D01*
X56673593Y-116297775D01*
X57387878Y-117297775D02*
X57245021Y-117226346D01*
X57173593Y-117154918D01*
X57102164Y-117012061D01*
X57102164Y-116583489D01*
X57173593Y-116440632D01*
X57245021Y-116369204D01*
X57387878Y-116297775D01*
X57602164Y-116297775D01*
X57745021Y-116369204D01*
X57816450Y-116440632D01*
X57887878Y-116583489D01*
X57887878Y-117012061D01*
X57816450Y-117154918D01*
X57745021Y-117226346D01*
X57602164Y-117297775D01*
X57387878Y-117297775D01*
X59173593Y-116297775D02*
X59173593Y-117297775D01*
X58530735Y-116297775D02*
X58530735Y-117083489D01*
X58602164Y-117226346D01*
X58745021Y-117297775D01*
X58959307Y-117297775D01*
X59102164Y-117226346D01*
X59173593Y-117154918D01*
X60530735Y-117297775D02*
X60530735Y-115797775D01*
X60530735Y-117226346D02*
X60387878Y-117297775D01*
X60102164Y-117297775D01*
X59959307Y-117226346D01*
X59887878Y-117154918D01*
X59816450Y-117012061D01*
X59816450Y-116583489D01*
X59887878Y-116440632D01*
X59959307Y-116369204D01*
X60102164Y-116297775D01*
X60387878Y-116297775D01*
X60530735Y-116369204D01*
X61245021Y-117297775D02*
X61245021Y-116297775D01*
X61245021Y-115797775D02*
X61173593Y-115869204D01*
X61245021Y-115940632D01*
X61316450Y-115869204D01*
X61245021Y-115797775D01*
X61245021Y-115940632D01*
X62030735Y-117226346D02*
X62030735Y-117297775D01*
X61959307Y-117440632D01*
X61887878Y-117512061D01*
X63673593Y-116297775D02*
X64030735Y-117297775D01*
X64387878Y-116297775D01*
X64887878Y-115940632D02*
X64959307Y-115869204D01*
X65102164Y-115797775D01*
X65459307Y-115797775D01*
X65602164Y-115869204D01*
X65673593Y-115940632D01*
X65745021Y-116083489D01*
X65745021Y-116226346D01*
X65673593Y-116440632D01*
X64816450Y-117297775D01*
X65745021Y-117297775D01*
%TO.C,*%
D12*
%TD*%
M02*
