%TF.GenerationSoftware,KiCad,Pcbnew,(5.1.10)-1*%
%TF.CreationDate,2021-12-15T17:12:06-08:00*%
%TF.ProjectId,luakeeb,6c75616b-6565-4622-9e6b-696361645f70,rev?*%
%TF.SameCoordinates,Original*%
%TF.FileFunction,Legend,Top*%
%TF.FilePolarity,Positive*%
%FSLAX46Y46*%
G04 Gerber Fmt 4.6, Leading zero omitted, Abs format (unit mm)*
G04 Created by KiCad (PCBNEW (5.1.10)-1) date 2021-12-15 17:12:06*
%MOMM*%
%LPD*%
G01*
G04 APERTURE LIST*
%ADD10C,0.300000*%
%ADD11C,0.001920*%
%ADD12C,0.126750*%
%ADD13C,0.150000*%
%ADD14C,0.120000*%
%ADD15C,0.100000*%
%ADD16C,0.381000*%
G04 APERTURE END LIST*
D10*
X109344021Y-107981261D02*
X109129735Y-108052689D01*
X109058307Y-108124118D01*
X108986878Y-108266975D01*
X108986878Y-108481261D01*
X109058307Y-108624118D01*
X109129735Y-108695546D01*
X109272593Y-108766975D01*
X109844021Y-108766975D01*
X109844021Y-107266975D01*
X109344021Y-107266975D01*
X109201164Y-107338404D01*
X109129735Y-107409832D01*
X109058307Y-107552689D01*
X109058307Y-107695546D01*
X109129735Y-107838404D01*
X109201164Y-107909832D01*
X109344021Y-107981261D01*
X109844021Y-107981261D01*
X108344021Y-108195546D02*
X107201164Y-108195546D01*
X107772593Y-108766975D02*
X107772593Y-107624118D01*
X100174021Y-107931261D02*
X99959735Y-108002689D01*
X99888307Y-108074118D01*
X99816878Y-108216975D01*
X99816878Y-108431261D01*
X99888307Y-108574118D01*
X99959735Y-108645546D01*
X100102593Y-108716975D01*
X100674021Y-108716975D01*
X100674021Y-107216975D01*
X100174021Y-107216975D01*
X100031164Y-107288404D01*
X99959735Y-107359832D01*
X99888307Y-107502689D01*
X99888307Y-107645546D01*
X99959735Y-107788404D01*
X100031164Y-107859832D01*
X100174021Y-107931261D01*
X100674021Y-107931261D01*
X99174021Y-108145546D02*
X98031164Y-108145546D01*
X106258307Y-102426975D02*
X106258307Y-100926975D01*
X106258307Y-101498404D02*
X106115450Y-101426975D01*
X105829735Y-101426975D01*
X105686878Y-101498404D01*
X105615450Y-101569832D01*
X105544021Y-101712689D01*
X105544021Y-102141261D01*
X105615450Y-102284118D01*
X105686878Y-102355546D01*
X105829735Y-102426975D01*
X106115450Y-102426975D01*
X106258307Y-102355546D01*
X104686878Y-102426975D02*
X104829735Y-102355546D01*
X104901164Y-102284118D01*
X104972593Y-102141261D01*
X104972593Y-101712689D01*
X104901164Y-101569832D01*
X104829735Y-101498404D01*
X104686878Y-101426975D01*
X104472593Y-101426975D01*
X104329735Y-101498404D01*
X104258307Y-101569832D01*
X104186878Y-101712689D01*
X104186878Y-102141261D01*
X104258307Y-102284118D01*
X104329735Y-102355546D01*
X104472593Y-102426975D01*
X104686878Y-102426975D01*
X103758307Y-101426975D02*
X103186878Y-101426975D01*
X103544021Y-100926975D02*
X103544021Y-102212689D01*
X103472593Y-102355546D01*
X103329735Y-102426975D01*
X103186878Y-102426975D01*
X102901164Y-101426975D02*
X102329735Y-101426975D01*
X102686878Y-100926975D02*
X102686878Y-102212689D01*
X102615450Y-102355546D01*
X102472592Y-102426975D01*
X102329735Y-102426975D01*
X101615450Y-102426975D02*
X101758307Y-102355546D01*
X101829735Y-102284118D01*
X101901164Y-102141261D01*
X101901164Y-101712689D01*
X101829735Y-101569832D01*
X101758307Y-101498404D01*
X101615450Y-101426975D01*
X101401164Y-101426975D01*
X101258307Y-101498404D01*
X101186878Y-101569832D01*
X101115450Y-101712689D01*
X101115450Y-102141261D01*
X101186878Y-102284118D01*
X101258307Y-102355546D01*
X101401164Y-102426975D01*
X101615450Y-102426975D01*
X100472592Y-102426975D02*
X100472592Y-101426975D01*
X100472592Y-101569832D02*
X100401164Y-101498404D01*
X100258307Y-101426975D01*
X100044021Y-101426975D01*
X99901164Y-101498404D01*
X99829735Y-101641261D01*
X99829735Y-102426975D01*
X99829735Y-101641261D02*
X99758307Y-101498404D01*
X99615450Y-101426975D01*
X99401164Y-101426975D01*
X99258307Y-101498404D01*
X99186878Y-101641261D01*
X99186878Y-102426975D01*
X74567878Y-95397775D02*
X74425021Y-95326346D01*
X74353592Y-95183489D01*
X74353592Y-93897775D01*
X75782164Y-94397775D02*
X75782164Y-95397775D01*
X75139307Y-94397775D02*
X75139307Y-95183489D01*
X75210735Y-95326346D01*
X75353592Y-95397775D01*
X75567878Y-95397775D01*
X75710735Y-95326346D01*
X75782164Y-95254918D01*
X77139307Y-95397775D02*
X77139307Y-94612061D01*
X77067878Y-94469204D01*
X76925021Y-94397775D01*
X76639307Y-94397775D01*
X76496450Y-94469204D01*
X77139307Y-95326346D02*
X76996450Y-95397775D01*
X76639307Y-95397775D01*
X76496450Y-95326346D01*
X76425021Y-95183489D01*
X76425021Y-95040632D01*
X76496450Y-94897775D01*
X76639307Y-94826346D01*
X76996450Y-94826346D01*
X77139307Y-94754918D01*
X77853592Y-95397775D02*
X77853592Y-93897775D01*
X77996450Y-94826346D02*
X78425021Y-95397775D01*
X78425021Y-94397775D02*
X77853592Y-94969204D01*
X79639307Y-95326346D02*
X79496450Y-95397775D01*
X79210735Y-95397775D01*
X79067878Y-95326346D01*
X78996450Y-95183489D01*
X78996450Y-94612061D01*
X79067878Y-94469204D01*
X79210735Y-94397775D01*
X79496450Y-94397775D01*
X79639307Y-94469204D01*
X79710735Y-94612061D01*
X79710735Y-94754918D01*
X78996450Y-94897775D01*
X80925021Y-95326346D02*
X80782164Y-95397775D01*
X80496450Y-95397775D01*
X80353592Y-95326346D01*
X80282164Y-95183489D01*
X80282164Y-94612061D01*
X80353592Y-94469204D01*
X80496450Y-94397775D01*
X80782164Y-94397775D01*
X80925021Y-94469204D01*
X80996450Y-94612061D01*
X80996450Y-94754918D01*
X80282164Y-94897775D01*
X81639307Y-95397775D02*
X81639307Y-93897775D01*
X81639307Y-94469204D02*
X81782164Y-94397775D01*
X82067878Y-94397775D01*
X82210735Y-94469204D01*
X82282164Y-94540632D01*
X82353592Y-94683489D01*
X82353592Y-95112061D01*
X82282164Y-95254918D01*
X82210735Y-95326346D01*
X82067878Y-95397775D01*
X81782164Y-95397775D01*
X81639307Y-95326346D01*
X84139307Y-95397775D02*
X84139307Y-93897775D01*
X84139307Y-94469204D02*
X84282164Y-94397775D01*
X84567878Y-94397775D01*
X84710735Y-94469204D01*
X84782164Y-94540632D01*
X84853592Y-94683489D01*
X84853592Y-95112061D01*
X84782164Y-95254918D01*
X84710735Y-95326346D01*
X84567878Y-95397775D01*
X84282164Y-95397775D01*
X84139307Y-95326346D01*
X85353592Y-94397775D02*
X85710735Y-95397775D01*
X86067878Y-94397775D02*
X85710735Y-95397775D01*
X85567878Y-95754918D01*
X85496450Y-95826346D01*
X85353592Y-95897775D01*
X87710735Y-95326346D02*
X87853592Y-95397775D01*
X88139307Y-95397775D01*
X88282164Y-95326346D01*
X88353592Y-95183489D01*
X88353592Y-95112061D01*
X88282164Y-94969204D01*
X88139307Y-94897775D01*
X87925021Y-94897775D01*
X87782164Y-94826346D01*
X87710735Y-94683489D01*
X87710735Y-94612061D01*
X87782164Y-94469204D01*
X87925021Y-94397775D01*
X88139307Y-94397775D01*
X88282164Y-94469204D01*
X89639307Y-95397775D02*
X89639307Y-94612061D01*
X89567878Y-94469204D01*
X89425021Y-94397775D01*
X89139307Y-94397775D01*
X88996450Y-94469204D01*
X89639307Y-95326346D02*
X89496450Y-95397775D01*
X89139307Y-95397775D01*
X88996450Y-95326346D01*
X88925021Y-95183489D01*
X88925021Y-95040632D01*
X88996450Y-94897775D01*
X89139307Y-94826346D01*
X89496450Y-94826346D01*
X89639307Y-94754918D01*
X90996450Y-95397775D02*
X90996450Y-93897775D01*
X90996450Y-95326346D02*
X90853592Y-95397775D01*
X90567878Y-95397775D01*
X90425021Y-95326346D01*
X90353592Y-95254918D01*
X90282164Y-95112061D01*
X90282164Y-94683489D01*
X90353592Y-94540632D01*
X90425021Y-94469204D01*
X90567878Y-94397775D01*
X90853592Y-94397775D01*
X90996450Y-94469204D01*
X92282164Y-95326346D02*
X92139307Y-95397775D01*
X91853592Y-95397775D01*
X91710735Y-95326346D01*
X91639307Y-95183489D01*
X91639307Y-94612061D01*
X91710735Y-94469204D01*
X91853592Y-94397775D01*
X92139307Y-94397775D01*
X92282164Y-94469204D01*
X92353592Y-94612061D01*
X92353592Y-94754918D01*
X91639307Y-94897775D01*
X92996450Y-95397775D02*
X92996450Y-93897775D01*
X93139307Y-94826346D02*
X93567878Y-95397775D01*
X93567878Y-94397775D02*
X92996450Y-94969204D01*
X94210735Y-95397775D02*
X94210735Y-93897775D01*
X94210735Y-94469204D02*
X94353592Y-94397775D01*
X94639307Y-94397775D01*
X94782164Y-94469204D01*
X94853592Y-94540632D01*
X94925021Y-94683489D01*
X94925021Y-95112061D01*
X94853592Y-95254918D01*
X94782164Y-95326346D01*
X94639307Y-95397775D01*
X94353592Y-95397775D01*
X94210735Y-95326346D01*
X96210735Y-95397775D02*
X96210735Y-94612061D01*
X96139307Y-94469204D01*
X95996450Y-94397775D01*
X95710735Y-94397775D01*
X95567878Y-94469204D01*
X96210735Y-95326346D02*
X96067878Y-95397775D01*
X95710735Y-95397775D01*
X95567878Y-95326346D01*
X95496450Y-95183489D01*
X95496450Y-95040632D01*
X95567878Y-94897775D01*
X95710735Y-94826346D01*
X96067878Y-94826346D01*
X96210735Y-94754918D01*
X96925021Y-95397775D02*
X96925021Y-94397775D01*
X96925021Y-94683489D02*
X96996450Y-94540632D01*
X97067878Y-94469204D01*
X97210735Y-94397775D01*
X97353593Y-94397775D01*
X98067878Y-95397775D02*
X97925021Y-95326346D01*
X97853593Y-95254918D01*
X97782164Y-95112061D01*
X97782164Y-94683489D01*
X97853593Y-94540632D01*
X97925021Y-94469204D01*
X98067878Y-94397775D01*
X98282164Y-94397775D01*
X98425021Y-94469204D01*
X98496450Y-94540632D01*
X98567878Y-94683489D01*
X98567878Y-95112061D01*
X98496450Y-95254918D01*
X98425021Y-95326346D01*
X98282164Y-95397775D01*
X98067878Y-95397775D01*
X99853593Y-94397775D02*
X99853593Y-95397775D01*
X99210735Y-94397775D02*
X99210735Y-95183489D01*
X99282164Y-95326346D01*
X99425021Y-95397775D01*
X99639307Y-95397775D01*
X99782164Y-95326346D01*
X99853593Y-95254918D01*
X101210735Y-95397775D02*
X101210735Y-93897775D01*
X101210735Y-95326346D02*
X101067878Y-95397775D01*
X100782164Y-95397775D01*
X100639307Y-95326346D01*
X100567878Y-95254918D01*
X100496450Y-95112061D01*
X100496450Y-94683489D01*
X100567878Y-94540632D01*
X100639307Y-94469204D01*
X100782164Y-94397775D01*
X101067878Y-94397775D01*
X101210735Y-94469204D01*
X101925021Y-95397775D02*
X101925021Y-94397775D01*
X101925021Y-93897775D02*
X101853593Y-93969204D01*
X101925021Y-94040632D01*
X101996450Y-93969204D01*
X101925021Y-93897775D01*
X101925021Y-94040632D01*
X102710735Y-95326346D02*
X102710735Y-95397775D01*
X102639307Y-95540632D01*
X102567878Y-95612061D01*
X104353592Y-94397775D02*
X104710735Y-95397775D01*
X105067878Y-94397775D01*
X105496450Y-93897775D02*
X106425021Y-93897775D01*
X105925021Y-94469204D01*
X106139307Y-94469204D01*
X106282164Y-94540632D01*
X106353592Y-94612061D01*
X106425021Y-94754918D01*
X106425021Y-95112061D01*
X106353592Y-95254918D01*
X106282164Y-95326346D01*
X106139307Y-95397775D01*
X105710735Y-95397775D01*
X105567878Y-95326346D01*
X105496450Y-95254918D01*
D11*
X148814976Y-87560671D02*
X148795908Y-87520276D01*
X148795908Y-87520276D02*
X148778423Y-87478145D01*
X148778423Y-87478145D02*
X148762565Y-87434390D01*
X148762565Y-87434390D02*
X148748379Y-87389121D01*
X148748379Y-87389121D02*
X148735909Y-87342451D01*
X148735909Y-87342451D02*
X148725200Y-87294491D01*
X148725200Y-87294491D02*
X148716296Y-87245353D01*
X148716296Y-87245353D02*
X148709242Y-87195148D01*
X148709242Y-87195148D02*
X148704082Y-87143989D01*
X148704082Y-87143989D02*
X148700861Y-87091986D01*
X148700861Y-87091986D02*
X148699624Y-87039251D01*
X148699624Y-87039251D02*
X148700416Y-86985896D01*
X148700416Y-86985896D02*
X148703279Y-86932033D01*
X148703279Y-86932033D02*
X148708261Y-86877772D01*
X148708261Y-86877772D02*
X148715404Y-86823227D01*
X148715404Y-86823227D02*
X148724753Y-86768508D01*
X148724753Y-86768508D02*
X148736354Y-86713727D01*
X148736354Y-86713727D02*
X148750250Y-86658995D01*
X148750250Y-86658995D02*
X148766486Y-86604425D01*
X148766486Y-86604425D02*
X148785107Y-86550127D01*
X148785107Y-86550127D02*
X148806157Y-86496214D01*
X148806157Y-86496214D02*
X148829682Y-86442797D01*
X148829682Y-86442797D02*
X148855724Y-86389988D01*
X148855724Y-86389988D02*
X148884330Y-86337898D01*
X148884330Y-86337898D02*
X148915543Y-86286640D01*
X148915543Y-86286640D02*
X148949409Y-86236323D01*
X148949409Y-86236323D02*
X148985971Y-86187061D01*
X148985971Y-86187061D02*
X149025274Y-86138965D01*
X149025274Y-86138965D02*
X149067364Y-86092146D01*
X149067364Y-86092146D02*
X149112283Y-86046716D01*
X149112283Y-86046716D02*
X149160078Y-86002787D01*
X149160078Y-86002787D02*
X149210793Y-85960471D01*
X150046876Y-84906371D02*
X149980525Y-84905112D01*
X149980525Y-84905112D02*
X149914877Y-84900595D01*
X149914877Y-84900595D02*
X149850016Y-84892895D01*
X149850016Y-84892895D02*
X149786026Y-84882091D01*
X149786026Y-84882091D02*
X149722988Y-84868259D01*
X149722988Y-84868259D02*
X149660988Y-84851476D01*
X149660988Y-84851476D02*
X149600107Y-84831820D01*
X149600107Y-84831820D02*
X149540430Y-84809367D01*
X149540430Y-84809367D02*
X149482040Y-84784196D01*
X149482040Y-84784196D02*
X149425020Y-84756382D01*
X149425020Y-84756382D02*
X149369453Y-84726003D01*
X149369453Y-84726003D02*
X149315423Y-84693137D01*
X149315423Y-84693137D02*
X149263013Y-84657859D01*
X149263013Y-84657859D02*
X149212306Y-84620249D01*
X149212306Y-84620249D02*
X149163387Y-84580381D01*
X149163387Y-84580381D02*
X149116337Y-84538335D01*
X149116337Y-84538335D02*
X149071240Y-84494186D01*
X149071240Y-84494186D02*
X149028180Y-84448012D01*
X149028180Y-84448012D02*
X148987240Y-84399890D01*
X148987240Y-84399890D02*
X148948504Y-84349898D01*
X148948504Y-84349898D02*
X148912054Y-84298111D01*
X148912054Y-84298111D02*
X148877974Y-84244608D01*
X148877974Y-84244608D02*
X148846348Y-84189466D01*
X148846348Y-84189466D02*
X148817258Y-84132761D01*
X148817258Y-84132761D02*
X148790788Y-84074572D01*
X148790788Y-84074572D02*
X148767022Y-84014974D01*
X148767022Y-84014974D02*
X148746042Y-83954045D01*
X148746042Y-83954045D02*
X148727932Y-83891862D01*
X148727932Y-83891862D02*
X148712776Y-83828503D01*
X148712776Y-83828503D02*
X148700656Y-83764044D01*
X148700656Y-83764044D02*
X148691656Y-83698563D01*
X148691656Y-83698563D02*
X148685860Y-83632137D01*
X149953743Y-82165287D02*
X150027684Y-82162076D01*
X150027684Y-82162076D02*
X150100628Y-82162696D01*
X150100628Y-82162696D02*
X150172492Y-82167043D01*
X150172492Y-82167043D02*
X150243197Y-82175018D01*
X150243197Y-82175018D02*
X150312661Y-82186519D01*
X150312661Y-82186519D02*
X150380805Y-82201443D01*
X150380805Y-82201443D02*
X150447547Y-82219689D01*
X150447547Y-82219689D02*
X150512807Y-82241156D01*
X150512807Y-82241156D02*
X150576505Y-82265742D01*
X150576505Y-82265742D02*
X150638559Y-82293346D01*
X150638559Y-82293346D02*
X150698889Y-82323866D01*
X150698889Y-82323866D02*
X150757414Y-82357201D01*
X150757414Y-82357201D02*
X150814055Y-82393248D01*
X150814055Y-82393248D02*
X150868730Y-82431907D01*
X150868730Y-82431907D02*
X150921358Y-82473076D01*
X150921358Y-82473076D02*
X150971859Y-82516654D01*
X150971859Y-82516654D02*
X151020153Y-82562538D01*
X151020153Y-82562538D02*
X151066158Y-82610627D01*
X151066158Y-82610627D02*
X151109795Y-82660820D01*
X151109795Y-82660820D02*
X151150982Y-82713016D01*
X151150982Y-82713016D02*
X151189639Y-82767112D01*
X151189639Y-82767112D02*
X151225686Y-82823007D01*
X151225686Y-82823007D02*
X151259041Y-82880600D01*
X151259041Y-82880600D02*
X151289624Y-82939789D01*
X151289624Y-82939789D02*
X151317354Y-83000472D01*
X151317354Y-83000472D02*
X151342152Y-83062548D01*
X151342152Y-83062548D02*
X151363935Y-83125916D01*
X151363935Y-83125916D02*
X151382625Y-83190473D01*
X151382625Y-83190473D02*
X151398139Y-83256119D01*
X151398139Y-83256119D02*
X151410398Y-83322751D01*
X151410398Y-83322751D02*
X151419320Y-83390269D01*
X151419320Y-83390269D02*
X151424826Y-83458571D01*
X149172693Y-81098487D02*
X149120350Y-81053467D01*
X149120350Y-81053467D02*
X149071229Y-81006990D01*
X149071229Y-81006990D02*
X149025264Y-80959174D01*
X149025264Y-80959174D02*
X148982391Y-80910136D01*
X148982391Y-80910136D02*
X148942544Y-80859995D01*
X148942544Y-80859995D02*
X148905658Y-80808867D01*
X148905658Y-80808867D02*
X148871668Y-80756871D01*
X148871668Y-80756871D02*
X148840508Y-80704125D01*
X148840508Y-80704125D02*
X148812115Y-80650747D01*
X148812115Y-80650747D02*
X148786422Y-80596853D01*
X148786422Y-80596853D02*
X148763364Y-80542563D01*
X148763364Y-80542563D02*
X148742877Y-80487994D01*
X148742877Y-80487994D02*
X148724895Y-80433263D01*
X148724895Y-80433263D02*
X148709353Y-80378489D01*
X148709353Y-80378489D02*
X148696187Y-80323790D01*
X148696187Y-80323790D02*
X148685330Y-80269283D01*
X148685330Y-80269283D02*
X148676718Y-80215085D01*
X148676718Y-80215085D02*
X148670286Y-80161316D01*
X148670286Y-80161316D02*
X148665968Y-80108092D01*
X148665968Y-80108092D02*
X148663700Y-80055532D01*
X148663700Y-80055532D02*
X148663417Y-80003754D01*
X148663417Y-80003754D02*
X148665052Y-79952874D01*
X148665052Y-79952874D02*
X148668542Y-79903011D01*
X148668542Y-79903011D02*
X148673821Y-79854284D01*
X148673821Y-79854284D02*
X148680823Y-79806808D01*
X148680823Y-79806808D02*
X148689485Y-79760704D01*
X148689485Y-79760704D02*
X148699740Y-79716087D01*
X148699740Y-79716087D02*
X148711524Y-79673077D01*
X148711524Y-79673077D02*
X148724771Y-79631791D01*
X148724771Y-79631791D02*
X148739417Y-79592346D01*
X148739417Y-79592346D02*
X148755395Y-79554861D01*
X148755395Y-79554861D02*
X148772643Y-79519454D01*
X149210793Y-85960471D02*
X149261411Y-85922121D01*
X149261411Y-85922121D02*
X149313196Y-85886439D01*
X149313196Y-85886439D02*
X149366061Y-85853416D01*
X149366061Y-85853416D02*
X149419921Y-85823040D01*
X149419921Y-85823040D02*
X149474689Y-85795301D01*
X149474689Y-85795301D02*
X149530280Y-85770189D01*
X149530280Y-85770189D02*
X149586607Y-85747693D01*
X149586607Y-85747693D02*
X149643585Y-85727802D01*
X149643585Y-85727802D02*
X149701126Y-85710507D01*
X149701126Y-85710507D02*
X149759147Y-85695796D01*
X149759147Y-85695796D02*
X149817559Y-85683660D01*
X149817559Y-85683660D02*
X149876277Y-85674088D01*
X149876277Y-85674088D02*
X149935216Y-85667068D01*
X149935216Y-85667068D02*
X149994289Y-85662592D01*
X149994289Y-85662592D02*
X150053410Y-85660648D01*
X150053410Y-85660648D02*
X150112492Y-85661226D01*
X150112492Y-85661226D02*
X150171451Y-85664316D01*
X150171451Y-85664316D02*
X150230200Y-85669906D01*
X150230200Y-85669906D02*
X150288653Y-85677988D01*
X150288653Y-85677988D02*
X150346723Y-85688549D01*
X150346723Y-85688549D02*
X150404325Y-85701580D01*
X150404325Y-85701580D02*
X150461373Y-85717070D01*
X150461373Y-85717070D02*
X150517781Y-85735008D01*
X150517781Y-85735008D02*
X150573463Y-85755385D01*
X150573463Y-85755385D02*
X150628332Y-85778190D01*
X150628332Y-85778190D02*
X150682303Y-85803412D01*
X150682303Y-85803412D02*
X150735289Y-85831040D01*
X150735289Y-85831040D02*
X150787205Y-85861066D01*
X150787205Y-85861066D02*
X150837964Y-85893477D01*
X150837964Y-85893477D02*
X150887481Y-85928263D01*
X150887481Y-85928263D02*
X150935669Y-85965415D01*
X150935669Y-85965415D02*
X150982443Y-86004921D01*
X148772643Y-79519454D02*
X148774584Y-79519887D01*
X148774584Y-79519887D02*
X148776442Y-79520393D01*
X148776442Y-79520393D02*
X148779923Y-79521611D01*
X148779923Y-79521611D02*
X148783112Y-79523090D01*
X148783112Y-79523090D02*
X148786037Y-79524811D01*
X148786037Y-79524811D02*
X148788727Y-79526755D01*
X148788727Y-79526755D02*
X148791209Y-79528904D01*
X148791209Y-79528904D02*
X148793511Y-79531239D01*
X148793511Y-79531239D02*
X148795662Y-79533741D01*
X148795662Y-79533741D02*
X148797688Y-79536392D01*
X148797688Y-79536392D02*
X148799618Y-79539173D01*
X148799618Y-79539173D02*
X148801480Y-79542066D01*
X148801480Y-79542066D02*
X148803301Y-79545052D01*
X148803301Y-79545052D02*
X148805110Y-79548112D01*
X148805110Y-79548112D02*
X148806935Y-79551228D01*
X148806935Y-79551228D02*
X148808803Y-79554382D01*
X148808803Y-79554382D02*
X148810743Y-79557554D01*
X150982443Y-86004921D02*
X151030716Y-86049699D01*
X151030716Y-86049699D02*
X151075963Y-86095849D01*
X151075963Y-86095849D02*
X151118243Y-86143257D01*
X151118243Y-86143257D02*
X151157617Y-86191807D01*
X151157617Y-86191807D02*
X151194147Y-86241383D01*
X151194147Y-86241383D02*
X151227893Y-86291870D01*
X151227893Y-86291870D02*
X151258915Y-86343153D01*
X151258915Y-86343153D02*
X151287275Y-86395115D01*
X151287275Y-86395115D02*
X151313034Y-86447641D01*
X151313034Y-86447641D02*
X151336253Y-86500616D01*
X151336253Y-86500616D02*
X151356992Y-86553925D01*
X151356992Y-86553925D02*
X151375312Y-86607451D01*
X151375312Y-86607451D02*
X151391273Y-86661080D01*
X151391273Y-86661080D02*
X151404938Y-86714695D01*
X151404938Y-86714695D02*
X151416367Y-86768182D01*
X151416367Y-86768182D02*
X151425620Y-86821425D01*
X151425620Y-86821425D02*
X151432758Y-86874308D01*
X151432758Y-86874308D02*
X151437843Y-86926715D01*
X151437843Y-86926715D02*
X151440934Y-86978532D01*
X151440934Y-86978532D02*
X151442094Y-87029643D01*
X151442094Y-87029643D02*
X151441383Y-87079933D01*
X151441383Y-87079933D02*
X151438861Y-87129285D01*
X151438861Y-87129285D02*
X151434589Y-87177584D01*
X151434589Y-87177584D02*
X151428629Y-87224716D01*
X151428629Y-87224716D02*
X151421042Y-87270563D01*
X151421042Y-87270563D02*
X151411887Y-87315012D01*
X151411887Y-87315012D02*
X151401226Y-87357946D01*
X151401226Y-87357946D02*
X151389120Y-87399250D01*
X151389120Y-87399250D02*
X151375629Y-87438808D01*
X151375629Y-87438808D02*
X151360815Y-87476505D01*
X151360815Y-87476505D02*
X151344738Y-87512225D01*
X151344738Y-87512225D02*
X151327460Y-87545854D01*
X151424826Y-83458571D02*
X151426958Y-83528096D01*
X151426958Y-83528096D02*
X151425466Y-83597288D01*
X151425466Y-83597288D02*
X151420420Y-83666022D01*
X151420420Y-83666022D02*
X151411890Y-83734175D01*
X151411890Y-83734175D02*
X151399948Y-83801625D01*
X151399948Y-83801625D02*
X151384665Y-83868248D01*
X151384665Y-83868248D02*
X151366112Y-83933920D01*
X151366112Y-83933920D02*
X151344359Y-83998519D01*
X151344359Y-83998519D02*
X151319478Y-84061921D01*
X151319478Y-84061921D02*
X151291539Y-84124003D01*
X151291539Y-84124003D02*
X151260614Y-84184641D01*
X151260614Y-84184641D02*
X151226773Y-84243713D01*
X151226773Y-84243713D02*
X151190087Y-84301095D01*
X151190087Y-84301095D02*
X151150627Y-84356664D01*
X151150627Y-84356664D02*
X151108464Y-84410297D01*
X151108464Y-84410297D02*
X151063670Y-84461870D01*
X151063670Y-84461870D02*
X151016314Y-84511261D01*
X151016314Y-84511261D02*
X150966468Y-84558345D01*
X150966468Y-84558345D02*
X150914202Y-84603000D01*
X150914202Y-84603000D02*
X150859589Y-84645102D01*
X150859589Y-84645102D02*
X150802698Y-84684529D01*
X150802698Y-84684529D02*
X150743601Y-84721157D01*
X150743601Y-84721157D02*
X150682368Y-84754862D01*
X150682368Y-84754862D02*
X150619070Y-84785522D01*
X150619070Y-84785522D02*
X150553779Y-84813013D01*
X150553779Y-84813013D02*
X150486565Y-84837212D01*
X150486565Y-84837212D02*
X150417499Y-84857995D01*
X150417499Y-84857995D02*
X150346653Y-84875240D01*
X150346653Y-84875240D02*
X150274096Y-84888824D01*
X150274096Y-84888824D02*
X150199900Y-84898622D01*
X150199900Y-84898622D02*
X150124136Y-84904512D01*
X150124136Y-84904512D02*
X150046876Y-84906371D01*
X148685860Y-83632137D02*
X148682744Y-83554494D01*
X148682744Y-83554494D02*
X148683634Y-83478369D01*
X148683634Y-83478369D02*
X148688405Y-83403814D01*
X148688405Y-83403814D02*
X148696930Y-83330884D01*
X148696930Y-83330884D02*
X148709087Y-83259630D01*
X148709087Y-83259630D02*
X148724750Y-83190108D01*
X148724750Y-83190108D02*
X148743794Y-83122370D01*
X148743794Y-83122370D02*
X148766094Y-83056469D01*
X148766094Y-83056469D02*
X148791526Y-82992461D01*
X148791526Y-82992461D02*
X148819965Y-82930397D01*
X148819965Y-82930397D02*
X148851285Y-82870331D01*
X148851285Y-82870331D02*
X148885363Y-82812317D01*
X148885363Y-82812317D02*
X148922073Y-82756408D01*
X148922073Y-82756408D02*
X148961291Y-82702658D01*
X148961291Y-82702658D02*
X149002892Y-82651121D01*
X149002892Y-82651121D02*
X149046751Y-82601849D01*
X149046751Y-82601849D02*
X149092743Y-82554897D01*
X149092743Y-82554897D02*
X149140743Y-82510317D01*
X149140743Y-82510317D02*
X149190627Y-82468163D01*
X149190627Y-82468163D02*
X149242270Y-82428489D01*
X149242270Y-82428489D02*
X149295546Y-82391348D01*
X149295546Y-82391348D02*
X149350332Y-82356794D01*
X149350332Y-82356794D02*
X149406503Y-82324880D01*
X149406503Y-82324880D02*
X149463933Y-82295660D01*
X149463933Y-82295660D02*
X149522497Y-82269187D01*
X149522497Y-82269187D02*
X149582072Y-82245514D01*
X149582072Y-82245514D02*
X149642532Y-82224696D01*
X149642532Y-82224696D02*
X149703753Y-82206785D01*
X149703753Y-82206785D02*
X149765609Y-82191835D01*
X149765609Y-82191835D02*
X149827975Y-82179900D01*
X149827975Y-82179900D02*
X149890728Y-82171032D01*
X149890728Y-82171032D02*
X149953743Y-82165287D01*
X151221626Y-87395571D02*
X151206793Y-87376334D01*
X151206793Y-87376334D02*
X151191664Y-87357520D01*
X151191664Y-87357520D02*
X151176240Y-87339127D01*
X151176240Y-87339127D02*
X151160523Y-87321156D01*
X151160523Y-87321156D02*
X151144515Y-87303607D01*
X151144515Y-87303607D02*
X151128217Y-87286479D01*
X151128217Y-87286479D02*
X151111631Y-87269773D01*
X151111631Y-87269773D02*
X151094758Y-87253489D01*
X151094758Y-87253489D02*
X151077600Y-87237626D01*
X151077600Y-87237626D02*
X151060158Y-87222185D01*
X151060158Y-87222185D02*
X151042433Y-87207166D01*
X151042433Y-87207166D02*
X151024429Y-87192569D01*
X151024429Y-87192569D02*
X151006145Y-87178393D01*
X151006145Y-87178393D02*
X150987583Y-87164639D01*
X150987583Y-87164639D02*
X150968746Y-87151306D01*
X150968746Y-87151306D02*
X150949634Y-87138395D01*
X150949634Y-87138395D02*
X150930250Y-87125906D01*
X150930250Y-87125906D02*
X150910594Y-87113839D01*
X150910594Y-87113839D02*
X150890668Y-87102193D01*
X150890668Y-87102193D02*
X150870474Y-87090969D01*
X150870474Y-87090969D02*
X150850014Y-87080166D01*
X150850014Y-87080166D02*
X150829288Y-87069786D01*
X150829288Y-87069786D02*
X150808299Y-87059827D01*
X150808299Y-87059827D02*
X150787048Y-87050289D01*
X150787048Y-87050289D02*
X150765536Y-87041173D01*
X150765536Y-87041173D02*
X150743766Y-87032479D01*
X150743766Y-87032479D02*
X150721738Y-87024207D01*
X150721738Y-87024207D02*
X150699454Y-87016356D01*
X150699454Y-87016356D02*
X150676916Y-87008927D01*
X150676916Y-87008927D02*
X150654126Y-87001920D01*
X150654126Y-87001920D02*
X150631084Y-86995334D01*
X150631084Y-86995334D02*
X150607793Y-86989171D01*
X148772643Y-79519454D02*
X148772643Y-79519454D01*
X151327460Y-87545854D02*
X151327460Y-87545854D01*
X150626843Y-80050737D02*
X150651071Y-80042750D01*
X150651071Y-80042750D02*
X150674942Y-80034273D01*
X150674942Y-80034273D02*
X150698460Y-80025311D01*
X150698460Y-80025311D02*
X150721625Y-80015869D01*
X150721625Y-80015869D02*
X150744442Y-80005953D01*
X150744442Y-80005953D02*
X150766913Y-79995568D01*
X150766913Y-79995568D02*
X150789040Y-79984719D01*
X150789040Y-79984719D02*
X150810827Y-79973412D01*
X150810827Y-79973412D02*
X150832276Y-79961653D01*
X150832276Y-79961653D02*
X150853389Y-79949446D01*
X150853389Y-79949446D02*
X150874170Y-79936797D01*
X150874170Y-79936797D02*
X150894622Y-79923712D01*
X150894622Y-79923712D02*
X150914746Y-79910196D01*
X150914746Y-79910196D02*
X150934545Y-79896254D01*
X150934545Y-79896254D02*
X150954023Y-79881892D01*
X150954023Y-79881892D02*
X150973182Y-79867116D01*
X150973182Y-79867116D02*
X150992025Y-79851930D01*
X150992025Y-79851930D02*
X151010554Y-79836341D01*
X151010554Y-79836341D02*
X151028773Y-79820353D01*
X151028773Y-79820353D02*
X151046683Y-79803972D01*
X151046683Y-79803972D02*
X151064288Y-79787203D01*
X151064288Y-79787203D02*
X151081590Y-79770052D01*
X151081590Y-79770052D02*
X151098592Y-79752525D01*
X151098592Y-79752525D02*
X151115297Y-79734626D01*
X151115297Y-79734626D02*
X151131707Y-79716362D01*
X151131707Y-79716362D02*
X151147825Y-79697736D01*
X151147825Y-79697736D02*
X151163655Y-79678756D01*
X151163655Y-79678756D02*
X151179198Y-79659427D01*
X151179198Y-79659427D02*
X151194457Y-79639753D01*
X151194457Y-79639753D02*
X151209435Y-79619740D01*
X151209435Y-79619740D02*
X151224135Y-79599394D01*
X151224135Y-79599394D02*
X151238560Y-79578721D01*
X149477493Y-87010337D02*
X149455602Y-87017480D01*
X149455602Y-87017480D02*
X149433985Y-87025018D01*
X149433985Y-87025018D02*
X149412639Y-87032950D01*
X149412639Y-87032950D02*
X149391565Y-87041272D01*
X149391565Y-87041272D02*
X149370762Y-87049984D01*
X149370762Y-87049984D02*
X149350231Y-87059083D01*
X149350231Y-87059083D02*
X149329969Y-87068567D01*
X149329969Y-87068567D02*
X149309978Y-87078434D01*
X149309978Y-87078434D02*
X149290257Y-87088683D01*
X149290257Y-87088683D02*
X149270805Y-87099311D01*
X149270805Y-87099311D02*
X149251622Y-87110316D01*
X149251622Y-87110316D02*
X149232708Y-87121697D01*
X149232708Y-87121697D02*
X149214061Y-87133452D01*
X149214061Y-87133452D02*
X149195683Y-87145579D01*
X149195683Y-87145579D02*
X149177572Y-87158075D01*
X149177572Y-87158075D02*
X149159728Y-87170939D01*
X149159728Y-87170939D02*
X149142151Y-87184169D01*
X149142151Y-87184169D02*
X149124840Y-87197763D01*
X149124840Y-87197763D02*
X149107795Y-87211718D01*
X149107795Y-87211718D02*
X149091015Y-87226034D01*
X149091015Y-87226034D02*
X149074500Y-87240708D01*
X149074500Y-87240708D02*
X149058250Y-87255738D01*
X149058250Y-87255738D02*
X149042265Y-87271123D01*
X149042265Y-87271123D02*
X149026543Y-87286859D01*
X149026543Y-87286859D02*
X149011085Y-87302946D01*
X149011085Y-87302946D02*
X148995890Y-87319382D01*
X148995890Y-87319382D02*
X148980958Y-87336164D01*
X148980958Y-87336164D02*
X148966288Y-87353290D01*
X148966288Y-87353290D02*
X148951881Y-87370760D01*
X148951881Y-87370760D02*
X148937735Y-87388570D01*
X148937735Y-87388570D02*
X148923850Y-87406718D01*
X148923850Y-87406718D02*
X148910226Y-87425204D01*
X151293593Y-79508871D02*
X151310709Y-79543070D01*
X151310709Y-79543070D02*
X151326688Y-79579317D01*
X151326688Y-79579317D02*
X151341460Y-79617502D01*
X151341460Y-79617502D02*
X151354955Y-79657512D01*
X151354955Y-79657512D02*
X151367103Y-79699240D01*
X151367103Y-79699240D02*
X151377834Y-79742572D01*
X151377834Y-79742572D02*
X151387077Y-79787400D01*
X151387077Y-79787400D02*
X151394763Y-79833613D01*
X151394763Y-79833613D02*
X151400820Y-79881100D01*
X151400820Y-79881100D02*
X151405180Y-79929752D01*
X151405180Y-79929752D02*
X151407772Y-79979456D01*
X151407772Y-79979456D02*
X151408525Y-80030103D01*
X151408525Y-80030103D02*
X151407370Y-80081583D01*
X151407370Y-80081583D02*
X151404237Y-80133785D01*
X151404237Y-80133785D02*
X151399054Y-80186599D01*
X151399054Y-80186599D02*
X151391753Y-80239914D01*
X151391753Y-80239914D02*
X151382263Y-80293619D01*
X151382263Y-80293619D02*
X151370513Y-80347605D01*
X151370513Y-80347605D02*
X151356435Y-80401760D01*
X151356435Y-80401760D02*
X151339957Y-80455975D01*
X151339957Y-80455975D02*
X151321009Y-80510139D01*
X151321009Y-80510139D02*
X151299521Y-80564141D01*
X151299521Y-80564141D02*
X151275424Y-80617870D01*
X151275424Y-80617870D02*
X151248646Y-80671218D01*
X151248646Y-80671218D02*
X151219118Y-80724072D01*
X151219118Y-80724072D02*
X151186770Y-80776323D01*
X151186770Y-80776323D02*
X151151532Y-80827860D01*
X151151532Y-80827860D02*
X151113332Y-80878573D01*
X151113332Y-80878573D02*
X151072102Y-80928351D01*
X151072102Y-80928351D02*
X151027771Y-80977083D01*
X151027771Y-80977083D02*
X150980269Y-81024660D01*
X150980269Y-81024660D02*
X150929526Y-81070971D01*
X148910226Y-87425204D02*
X148907255Y-87429184D01*
X148907255Y-87429184D02*
X148904296Y-87433190D01*
X148904296Y-87433190D02*
X148901346Y-87437218D01*
X148901346Y-87437218D02*
X148898406Y-87441269D01*
X148898406Y-87441269D02*
X148895474Y-87445341D01*
X148895474Y-87445341D02*
X148892548Y-87449434D01*
X148892548Y-87449434D02*
X148889627Y-87453548D01*
X148889627Y-87453548D02*
X148886711Y-87457681D01*
X148886711Y-87457681D02*
X148883798Y-87461833D01*
X148883798Y-87461833D02*
X148880886Y-87466002D01*
X148880886Y-87466002D02*
X148877976Y-87470188D01*
X148877976Y-87470188D02*
X148875065Y-87474391D01*
X148875065Y-87474391D02*
X148872153Y-87478609D01*
X148872153Y-87478609D02*
X148869237Y-87482842D01*
X148869237Y-87482842D02*
X148866318Y-87487089D01*
X148866318Y-87487089D02*
X148863394Y-87491349D01*
X148863394Y-87491349D02*
X148860464Y-87495622D01*
X148860464Y-87495622D02*
X148857527Y-87499906D01*
X148857527Y-87499906D02*
X148854580Y-87504201D01*
X148854580Y-87504201D02*
X148851625Y-87508506D01*
X148851625Y-87508506D02*
X148848658Y-87512820D01*
X148848658Y-87512820D02*
X148845679Y-87517143D01*
X148845679Y-87517143D02*
X148842687Y-87521474D01*
X148842687Y-87521474D02*
X148839681Y-87525811D01*
X148839681Y-87525811D02*
X148836659Y-87530155D01*
X148836659Y-87530155D02*
X148833621Y-87534504D01*
X148833621Y-87534504D02*
X148830565Y-87538858D01*
X148830565Y-87538858D02*
X148827490Y-87543216D01*
X148827490Y-87543216D02*
X148824394Y-87547577D01*
X148824394Y-87547577D02*
X148821277Y-87551940D01*
X148821277Y-87551940D02*
X148818138Y-87556305D01*
X148818138Y-87556305D02*
X148814976Y-87560671D01*
X150607793Y-86989171D02*
X150572278Y-86980521D01*
X150572278Y-86980521D02*
X150536777Y-86972433D01*
X150536777Y-86972433D02*
X150501287Y-86964910D01*
X150501287Y-86964910D02*
X150465811Y-86957958D01*
X150465811Y-86957958D02*
X150430346Y-86951579D01*
X150430346Y-86951579D02*
X150394894Y-86945778D01*
X150394894Y-86945778D02*
X150359454Y-86940558D01*
X150359454Y-86940558D02*
X150324027Y-86935923D01*
X150324027Y-86935923D02*
X150288612Y-86931877D01*
X150288612Y-86931877D02*
X150253210Y-86928425D01*
X150253210Y-86928425D02*
X150217820Y-86925569D01*
X150217820Y-86925569D02*
X150182442Y-86923314D01*
X150182442Y-86923314D02*
X150147077Y-86921664D01*
X150147077Y-86921664D02*
X150111724Y-86920622D01*
X150111724Y-86920622D02*
X150076383Y-86920192D01*
X150076383Y-86920192D02*
X150041055Y-86920379D01*
X150041055Y-86920379D02*
X150005739Y-86921186D01*
X150005739Y-86921186D02*
X149970436Y-86922616D01*
X149970436Y-86922616D02*
X149935145Y-86924675D01*
X149935145Y-86924675D02*
X149899867Y-86927365D01*
X149899867Y-86927365D02*
X149864601Y-86930691D01*
X149864601Y-86930691D02*
X149829347Y-86934657D01*
X149829347Y-86934657D02*
X149794106Y-86939266D01*
X149794106Y-86939266D02*
X149758877Y-86944522D01*
X149758877Y-86944522D02*
X149723660Y-86950429D01*
X149723660Y-86950429D02*
X149688456Y-86956991D01*
X149688456Y-86956991D02*
X149653265Y-86964212D01*
X149653265Y-86964212D02*
X149618085Y-86972096D01*
X149618085Y-86972096D02*
X149582919Y-86980647D01*
X149582919Y-86980647D02*
X149547764Y-86989868D01*
X149547764Y-86989868D02*
X149512622Y-86999763D01*
X149512622Y-86999763D02*
X149477493Y-87010337D01*
X149612960Y-80099421D02*
X149644908Y-80105168D01*
X149644908Y-80105168D02*
X149676854Y-80110501D01*
X149676854Y-80110501D02*
X149708798Y-80115414D01*
X149708798Y-80115414D02*
X149740737Y-80119901D01*
X149740737Y-80119901D02*
X149772669Y-80123957D01*
X149772669Y-80123957D02*
X149804594Y-80127577D01*
X149804594Y-80127577D02*
X149836510Y-80130755D01*
X149836510Y-80130755D02*
X149868414Y-80133486D01*
X149868414Y-80133486D02*
X149900307Y-80135764D01*
X149900307Y-80135764D02*
X149932185Y-80137584D01*
X149932185Y-80137584D02*
X149964048Y-80138940D01*
X149964048Y-80138940D02*
X149995894Y-80139827D01*
X149995894Y-80139827D02*
X150027721Y-80140240D01*
X150027721Y-80140240D02*
X150059528Y-80140174D01*
X150059528Y-80140174D02*
X150091314Y-80139621D01*
X150091314Y-80139621D02*
X150123076Y-80138579D01*
X150123076Y-80138579D02*
X150154813Y-80137040D01*
X150154813Y-80137040D02*
X150186524Y-80135000D01*
X150186524Y-80135000D02*
X150218207Y-80132452D01*
X150218207Y-80132452D02*
X150249861Y-80129393D01*
X150249861Y-80129393D02*
X150281483Y-80125815D01*
X150281483Y-80125815D02*
X150313073Y-80121715D01*
X150313073Y-80121715D02*
X150344629Y-80117085D01*
X150344629Y-80117085D02*
X150376150Y-80111922D01*
X150376150Y-80111922D02*
X150407633Y-80106219D01*
X150407633Y-80106219D02*
X150439077Y-80099971D01*
X150439077Y-80099971D02*
X150470481Y-80093173D01*
X150470481Y-80093173D02*
X150501843Y-80085819D01*
X150501843Y-80085819D02*
X150533162Y-80077904D01*
X150533162Y-80077904D02*
X150564436Y-80069422D01*
X150564436Y-80069422D02*
X150595663Y-80060368D01*
X150595663Y-80060368D02*
X150626843Y-80050737D01*
X150046876Y-84906371D02*
X150046876Y-84906371D01*
X151327460Y-87545854D02*
X151323906Y-87540713D01*
X151323906Y-87540713D02*
X151320388Y-87535608D01*
X151320388Y-87535608D02*
X151316903Y-87530539D01*
X151316903Y-87530539D02*
X151313449Y-87525505D01*
X151313449Y-87525505D02*
X151310025Y-87520506D01*
X151310025Y-87520506D02*
X151306628Y-87515539D01*
X151306628Y-87515539D02*
X151303257Y-87510605D01*
X151303257Y-87510605D02*
X151299910Y-87505703D01*
X151299910Y-87505703D02*
X151296584Y-87500832D01*
X151296584Y-87500832D02*
X151293278Y-87495991D01*
X151293278Y-87495991D02*
X151289990Y-87491180D01*
X151289990Y-87491180D02*
X151286718Y-87486397D01*
X151286718Y-87486397D02*
X151283459Y-87481642D01*
X151283459Y-87481642D02*
X151280213Y-87476914D01*
X151280213Y-87476914D02*
X151276977Y-87472213D01*
X151276977Y-87472213D02*
X151273749Y-87467537D01*
X151273749Y-87467537D02*
X151270527Y-87462886D01*
X151270527Y-87462886D02*
X151267310Y-87458259D01*
X151267310Y-87458259D02*
X151264094Y-87453655D01*
X151264094Y-87453655D02*
X151260879Y-87449074D01*
X151260879Y-87449074D02*
X151257663Y-87444514D01*
X151257663Y-87444514D02*
X151254443Y-87439976D01*
X151254443Y-87439976D02*
X151251218Y-87435457D01*
X151251218Y-87435457D02*
X151247985Y-87430958D01*
X151247985Y-87430958D02*
X151244743Y-87426478D01*
X151244743Y-87426478D02*
X151241490Y-87422015D01*
X151241490Y-87422015D02*
X151238223Y-87417570D01*
X151238223Y-87417570D02*
X151234942Y-87413140D01*
X151234942Y-87413140D02*
X151231643Y-87408727D01*
X151231643Y-87408727D02*
X151228325Y-87404327D01*
X151228325Y-87404327D02*
X151224987Y-87399942D01*
X151224987Y-87399942D02*
X151221626Y-87395571D01*
X150929526Y-81070971D02*
X150883083Y-81109455D01*
X150883083Y-81109455D02*
X150835102Y-81145531D01*
X150835102Y-81145531D02*
X150785683Y-81179197D01*
X150785683Y-81179197D02*
X150734925Y-81210451D01*
X150734925Y-81210451D02*
X150682926Y-81239292D01*
X150682926Y-81239292D02*
X150629786Y-81265717D01*
X150629786Y-81265717D02*
X150575604Y-81289724D01*
X150575604Y-81289724D02*
X150520480Y-81311311D01*
X150520480Y-81311311D02*
X150464512Y-81330477D01*
X150464512Y-81330477D02*
X150407801Y-81347220D01*
X150407801Y-81347220D02*
X150350444Y-81361537D01*
X150350444Y-81361537D02*
X150292541Y-81373426D01*
X150292541Y-81373426D02*
X150234193Y-81382887D01*
X150234193Y-81382887D02*
X150175496Y-81389916D01*
X150175496Y-81389916D02*
X150116552Y-81394511D01*
X150116552Y-81394511D02*
X150057459Y-81396672D01*
X150057459Y-81396672D02*
X149998317Y-81396396D01*
X149998317Y-81396396D02*
X149939224Y-81393681D01*
X149939224Y-81393681D02*
X149880279Y-81388524D01*
X149880279Y-81388524D02*
X149821583Y-81380925D01*
X149821583Y-81380925D02*
X149763234Y-81370881D01*
X149763234Y-81370881D02*
X149705332Y-81358391D01*
X149705332Y-81358391D02*
X149647975Y-81343451D01*
X149647975Y-81343451D02*
X149591263Y-81326061D01*
X149591263Y-81326061D02*
X149535296Y-81306219D01*
X149535296Y-81306219D02*
X149480172Y-81283922D01*
X149480172Y-81283922D02*
X149425990Y-81259168D01*
X149425990Y-81259168D02*
X149372850Y-81231957D01*
X149372850Y-81231957D02*
X149320851Y-81202284D01*
X149320851Y-81202284D02*
X149270092Y-81170150D01*
X149270092Y-81170150D02*
X149220673Y-81135551D01*
X149220673Y-81135551D02*
X149172693Y-81098487D01*
X148752426Y-85268287D02*
X148752426Y-85268287D01*
X151238560Y-79578721D02*
X151240123Y-79576514D01*
X151240123Y-79576514D02*
X151241642Y-79574262D01*
X151241642Y-79574262D02*
X151243123Y-79571970D01*
X151243123Y-79571970D02*
X151244570Y-79569642D01*
X151244570Y-79569642D02*
X151245990Y-79567283D01*
X151245990Y-79567283D02*
X151247387Y-79564898D01*
X151247387Y-79564898D02*
X151248767Y-79562491D01*
X151248767Y-79562491D02*
X151250135Y-79560067D01*
X151250135Y-79560067D02*
X151251497Y-79557631D01*
X151251497Y-79557631D02*
X151252858Y-79555187D01*
X151252858Y-79555187D02*
X151254224Y-79552739D01*
X151254224Y-79552739D02*
X151255600Y-79550294D01*
X151255600Y-79550294D02*
X151256992Y-79547854D01*
X151256992Y-79547854D02*
X151258404Y-79545426D01*
X151258404Y-79545426D02*
X151259843Y-79543013D01*
X151259843Y-79543013D02*
X151261314Y-79540620D01*
X151261314Y-79540620D02*
X151262821Y-79538252D01*
X151262821Y-79538252D02*
X151264372Y-79535913D01*
X151264372Y-79535913D02*
X151265970Y-79533609D01*
X151265970Y-79533609D02*
X151267622Y-79531343D01*
X151267622Y-79531343D02*
X151269333Y-79529121D01*
X151269333Y-79529121D02*
X151271108Y-79526946D01*
X151271108Y-79526946D02*
X151272953Y-79524825D01*
X151272953Y-79524825D02*
X151274873Y-79522761D01*
X151274873Y-79522761D02*
X151276874Y-79520759D01*
X151276874Y-79520759D02*
X151278961Y-79518823D01*
X151278961Y-79518823D02*
X151281139Y-79516959D01*
X151281139Y-79516959D02*
X151283414Y-79515171D01*
X151283414Y-79515171D02*
X151285792Y-79513463D01*
X151285792Y-79513463D02*
X151288277Y-79511841D01*
X151288277Y-79511841D02*
X151290876Y-79510308D01*
X151290876Y-79510308D02*
X151293593Y-79508871D01*
X148810743Y-79557554D02*
X148828086Y-79585931D01*
X148828086Y-79585931D02*
X148845983Y-79613520D01*
X148845983Y-79613520D02*
X148864426Y-79640325D01*
X148864426Y-79640325D02*
X148883412Y-79666351D01*
X148883412Y-79666351D02*
X148902934Y-79691604D01*
X148902934Y-79691604D02*
X148922987Y-79716088D01*
X148922987Y-79716088D02*
X148943565Y-79739809D01*
X148943565Y-79739809D02*
X148964664Y-79762771D01*
X148964664Y-79762771D02*
X148986277Y-79784980D01*
X148986277Y-79784980D02*
X149008400Y-79806440D01*
X149008400Y-79806440D02*
X149031026Y-79827157D01*
X149031026Y-79827157D02*
X149054151Y-79847136D01*
X149054151Y-79847136D02*
X149077769Y-79866381D01*
X149077769Y-79866381D02*
X149101874Y-79884899D01*
X149101874Y-79884899D02*
X149126462Y-79902693D01*
X149126462Y-79902693D02*
X149151526Y-79919768D01*
X149151526Y-79919768D02*
X149177061Y-79936131D01*
X149177061Y-79936131D02*
X149203063Y-79951786D01*
X149203063Y-79951786D02*
X149229525Y-79966737D01*
X149229525Y-79966737D02*
X149256442Y-79980991D01*
X149256442Y-79980991D02*
X149283808Y-79994551D01*
X149283808Y-79994551D02*
X149311619Y-80007424D01*
X149311619Y-80007424D02*
X149339868Y-80019613D01*
X149339868Y-80019613D02*
X149368551Y-80031125D01*
X149368551Y-80031125D02*
X149397661Y-80041964D01*
X149397661Y-80041964D02*
X149427194Y-80052135D01*
X149427194Y-80052135D02*
X149457144Y-80061643D01*
X149457144Y-80061643D02*
X149487506Y-80070494D01*
X149487506Y-80070494D02*
X149518273Y-80078692D01*
X149518273Y-80078692D02*
X149549442Y-80086242D01*
X149549442Y-80086242D02*
X149581006Y-80093150D01*
X149581006Y-80093150D02*
X149612960Y-80099421D01*
D12*
X69394888Y-85001852D02*
X69031066Y-85394077D01*
X69031066Y-85394077D02*
X68656091Y-85761705D01*
X68656091Y-85761705D02*
X68270900Y-86105230D01*
X68270900Y-86105230D02*
X67876432Y-86425147D01*
X67876432Y-86425147D02*
X67473626Y-86721950D01*
X67473626Y-86721950D02*
X67063419Y-86996134D01*
X67063419Y-86996134D02*
X66646751Y-87248192D01*
X66646751Y-87248192D02*
X66224559Y-87478620D01*
X66224559Y-87478620D02*
X65797782Y-87687912D01*
X65797782Y-87687912D02*
X65367359Y-87876561D01*
X65367359Y-87876561D02*
X64934227Y-88045063D01*
X64934227Y-88045063D02*
X64499326Y-88193912D01*
X64499326Y-88193912D02*
X64063593Y-88323603D01*
X64063593Y-88323603D02*
X63627967Y-88434629D01*
X63627967Y-88434629D02*
X63193387Y-88527485D01*
X63193387Y-88527485D02*
X62760791Y-88602665D01*
X62760791Y-88602665D02*
X62331117Y-88660665D01*
X62331117Y-88660665D02*
X61905304Y-88701978D01*
X61905304Y-88701978D02*
X61484290Y-88727098D01*
X61484290Y-88727098D02*
X61069013Y-88736520D01*
X61069013Y-88736520D02*
X60660413Y-88730739D01*
X60660413Y-88730739D02*
X60259426Y-88710249D01*
X60259426Y-88710249D02*
X59866993Y-88675544D01*
X59866993Y-88675544D02*
X59484051Y-88627119D01*
X59484051Y-88627119D02*
X59111538Y-88565468D01*
X59111538Y-88565468D02*
X58750393Y-88491085D01*
X58750393Y-88491085D02*
X58401555Y-88404465D01*
X58401555Y-88404465D02*
X58065962Y-88306102D01*
X58065962Y-88306102D02*
X57744551Y-88196491D01*
X57744551Y-88196491D02*
X57438263Y-88076127D01*
X57438263Y-88076127D02*
X57148034Y-87945502D01*
X57148034Y-87945502D02*
X56874805Y-87805113D01*
X100591909Y-76643664D02*
X100617994Y-77244440D01*
X100617994Y-77244440D02*
X100612961Y-77837105D01*
X100612961Y-77837105D02*
X100577634Y-78421003D01*
X100577634Y-78421003D02*
X100512838Y-78995479D01*
X100512838Y-78995479D02*
X100419399Y-79559878D01*
X100419399Y-79559878D02*
X100298142Y-80113545D01*
X100298142Y-80113545D02*
X100149890Y-80655825D01*
X100149890Y-80655825D02*
X99975471Y-81186063D01*
X99975471Y-81186063D02*
X99775708Y-81703605D01*
X99775708Y-81703605D02*
X99551426Y-82207794D01*
X99551426Y-82207794D02*
X99303451Y-82697977D01*
X99303451Y-82697977D02*
X99032608Y-83173498D01*
X99032608Y-83173498D02*
X98739722Y-83633702D01*
X98739722Y-83633702D02*
X98425618Y-84077933D01*
X98425618Y-84077933D02*
X98091120Y-84505538D01*
X98091120Y-84505538D02*
X97737054Y-84915862D01*
X97737054Y-84915862D02*
X97364246Y-85308248D01*
X97364246Y-85308248D02*
X96973519Y-85682042D01*
X96973519Y-85682042D02*
X96565699Y-86036590D01*
X96565699Y-86036590D02*
X96141612Y-86371235D01*
X96141612Y-86371235D02*
X95702081Y-86685324D01*
X95702081Y-86685324D02*
X95247933Y-86978201D01*
X95247933Y-86978201D02*
X94779992Y-87249211D01*
X94779992Y-87249211D02*
X94299083Y-87497699D01*
X94299083Y-87497699D02*
X93806032Y-87723010D01*
X93806032Y-87723010D02*
X93301663Y-87924489D01*
X93301663Y-87924489D02*
X92786801Y-88101482D01*
X92786801Y-88101482D02*
X92262272Y-88253332D01*
X92262272Y-88253332D02*
X91728901Y-88379386D01*
X91728901Y-88379386D02*
X91187512Y-88478988D01*
X91187512Y-88478988D02*
X90638930Y-88551482D01*
X90638930Y-88551482D02*
X90083982Y-88596216D01*
X78320607Y-77400373D02*
X78320607Y-77400373D01*
X122089305Y-67047227D02*
X122089305Y-67047227D01*
X47003200Y-85019050D02*
X47103882Y-84902099D01*
X47103882Y-84902099D02*
X47202836Y-84783590D01*
X47202836Y-84783590D02*
X47300146Y-84663777D01*
X47300146Y-84663777D02*
X47395897Y-84542916D01*
X47395897Y-84542916D02*
X47490175Y-84421261D01*
X47490175Y-84421261D02*
X47583063Y-84299067D01*
X47583063Y-84299067D02*
X47674648Y-84176590D01*
X47674648Y-84176590D02*
X47765014Y-84054085D01*
X47765014Y-84054085D02*
X47854247Y-83931806D01*
X47854247Y-83931806D02*
X47942431Y-83810010D01*
X47942431Y-83810010D02*
X48000680Y-83729206D01*
X117772628Y-82112602D02*
X117837515Y-82309457D01*
X117837515Y-82309457D02*
X117906390Y-82503413D01*
X117906390Y-82503413D02*
X117979207Y-82694491D01*
X117979207Y-82694491D02*
X118055923Y-82882712D01*
X118055923Y-82882712D02*
X118136493Y-83068099D01*
X118136493Y-83068099D02*
X118220873Y-83250674D01*
X118220873Y-83250674D02*
X118309020Y-83430459D01*
X118309020Y-83430459D02*
X118400889Y-83607476D01*
X118400889Y-83607476D02*
X118496436Y-83781747D01*
X118496436Y-83781747D02*
X118595617Y-83953295D01*
X118595617Y-83953295D02*
X118698388Y-84122140D01*
X118698388Y-84122140D02*
X118804704Y-84288306D01*
X118804704Y-84288306D02*
X118914522Y-84451813D01*
X118914522Y-84451813D02*
X119027798Y-84612685D01*
X119027798Y-84612685D02*
X119144488Y-84770944D01*
X119144488Y-84770944D02*
X119264547Y-84926610D01*
X119264547Y-84926610D02*
X119387931Y-85079707D01*
X119387931Y-85079707D02*
X119514597Y-85230257D01*
X119514597Y-85230257D02*
X119644500Y-85378281D01*
X119644500Y-85378281D02*
X119777595Y-85523801D01*
X119777595Y-85523801D02*
X119913840Y-85666840D01*
X119913840Y-85666840D02*
X120053190Y-85807420D01*
X120053190Y-85807420D02*
X120195601Y-85945562D01*
X120195601Y-85945562D02*
X120341029Y-86081289D01*
X120341029Y-86081289D02*
X120489429Y-86214623D01*
X120489429Y-86214623D02*
X120640758Y-86345586D01*
X120640758Y-86345586D02*
X120794971Y-86474199D01*
X120794971Y-86474199D02*
X120952025Y-86600485D01*
X120952025Y-86600485D02*
X121111875Y-86724466D01*
X121111875Y-86724466D02*
X121274477Y-86846164D01*
X121274477Y-86846164D02*
X121439788Y-86965601D01*
X121439788Y-86965601D02*
X121607763Y-87082800D01*
X122175294Y-87529945D02*
X121897421Y-87669012D01*
X121897421Y-87669012D02*
X121602913Y-87798843D01*
X121602913Y-87798843D02*
X121292666Y-87918867D01*
X121292666Y-87918867D02*
X120967577Y-88028516D01*
X120967577Y-88028516D02*
X120628544Y-88127219D01*
X120628544Y-88127219D02*
X120276465Y-88214406D01*
X120276465Y-88214406D02*
X119912237Y-88289507D01*
X119912237Y-88289507D02*
X119536757Y-88351951D01*
X119536757Y-88351951D02*
X119150924Y-88401170D01*
X119150924Y-88401170D02*
X118755634Y-88436593D01*
X118755634Y-88436593D02*
X118351784Y-88457650D01*
X118351784Y-88457650D02*
X117940274Y-88463772D01*
X117940274Y-88463772D02*
X117521999Y-88454387D01*
X117521999Y-88454387D02*
X117097857Y-88428927D01*
X117097857Y-88428927D02*
X116668746Y-88386820D01*
X116668746Y-88386820D02*
X116235564Y-88327498D01*
X116235564Y-88327498D02*
X115799207Y-88250391D01*
X115799207Y-88250391D02*
X115360574Y-88154927D01*
X115360574Y-88154927D02*
X114920561Y-88040538D01*
X114920561Y-88040538D02*
X114480066Y-87906653D01*
X114480066Y-87906653D02*
X114039987Y-87752703D01*
X114039987Y-87752703D02*
X113601222Y-87578117D01*
X113601222Y-87578117D02*
X113164666Y-87382325D01*
X113164666Y-87382325D02*
X112731219Y-87164758D01*
X112731219Y-87164758D02*
X112301778Y-86924845D01*
X112301778Y-86924845D02*
X111877240Y-86662017D01*
X111877240Y-86662017D02*
X111458502Y-86375703D01*
X111458502Y-86375703D02*
X111046462Y-86065334D01*
X111046462Y-86065334D02*
X110642017Y-85730340D01*
X110642017Y-85730340D02*
X110246066Y-85370150D01*
X110246066Y-85370150D02*
X109859505Y-84984194D01*
X109859505Y-84984194D02*
X109483232Y-84571904D01*
X121607763Y-87082800D02*
X121720070Y-87154522D01*
X121720070Y-87154522D02*
X121838725Y-87221256D01*
X121838725Y-87221256D02*
X121955567Y-87292525D01*
X121955567Y-87292525D02*
X122062432Y-87377851D01*
X122062432Y-87377851D02*
X122151159Y-87486757D01*
X122151159Y-87486757D02*
X122175294Y-87529945D01*
X78320607Y-77400373D02*
X78330831Y-76861270D01*
X78330831Y-76861270D02*
X78367535Y-76327883D01*
X78367535Y-76327883D02*
X78430094Y-75800889D01*
X78430094Y-75800889D02*
X78517879Y-75280964D01*
X78517879Y-75280964D02*
X78630264Y-74768786D01*
X78630264Y-74768786D02*
X78766623Y-74265032D01*
X78766623Y-74265032D02*
X78926329Y-73770378D01*
X78926329Y-73770378D02*
X79108755Y-73285502D01*
X79108755Y-73285502D02*
X79313274Y-72811081D01*
X79313274Y-72811081D02*
X79539261Y-72347792D01*
X79539261Y-72347792D02*
X79786088Y-71896311D01*
X79786088Y-71896311D02*
X80053129Y-71457317D01*
X80053129Y-71457317D02*
X80339756Y-71031485D01*
X80339756Y-71031485D02*
X80645344Y-70619494D01*
X80645344Y-70619494D02*
X80969266Y-70222019D01*
X80969266Y-70222019D02*
X81310894Y-69839739D01*
X81310894Y-69839739D02*
X81669603Y-69473329D01*
X81669603Y-69473329D02*
X82044766Y-69123468D01*
X82044766Y-69123468D02*
X82435755Y-68790832D01*
X82435755Y-68790832D02*
X82841946Y-68476098D01*
X82841946Y-68476098D02*
X83262709Y-68179944D01*
X83262709Y-68179944D02*
X83697420Y-67903046D01*
X83697420Y-67903046D02*
X84145451Y-67646081D01*
X84145451Y-67646081D02*
X84606176Y-67409727D01*
X84606176Y-67409727D02*
X85078968Y-67194660D01*
X85078968Y-67194660D02*
X85563201Y-67001558D01*
X85563201Y-67001558D02*
X86058247Y-66831097D01*
X86058247Y-66831097D02*
X86563481Y-66683955D01*
X86563481Y-66683955D02*
X87078275Y-66560808D01*
X87078275Y-66560808D02*
X87602002Y-66462334D01*
X87602002Y-66462334D02*
X88134037Y-66389210D01*
X88134037Y-66389210D02*
X88673753Y-66342113D01*
X122089305Y-67047227D02*
X122038092Y-67167209D01*
X122038092Y-67167209D02*
X121940503Y-67258641D01*
X121940503Y-67258641D02*
X121831134Y-67325853D01*
X121831134Y-67325853D02*
X121779743Y-67356789D01*
X58095857Y-86945216D02*
X58252149Y-86824698D01*
X58252149Y-86824698D02*
X58405016Y-86701774D01*
X58405016Y-86701774D02*
X58554456Y-86576457D01*
X58554456Y-86576457D02*
X58700471Y-86448760D01*
X58700471Y-86448760D02*
X58843059Y-86318694D01*
X58843059Y-86318694D02*
X58982221Y-86186273D01*
X58982221Y-86186273D02*
X59117957Y-86051510D01*
X59117957Y-86051510D02*
X59250267Y-85914415D01*
X59250267Y-85914415D02*
X59379150Y-85775004D01*
X59379150Y-85775004D02*
X59504608Y-85633287D01*
X59504608Y-85633287D02*
X59626639Y-85489277D01*
X59626639Y-85489277D02*
X59745244Y-85342988D01*
X59745244Y-85342988D02*
X59860423Y-85194431D01*
X59860423Y-85194431D02*
X59972176Y-85043620D01*
X59972176Y-85043620D02*
X60080503Y-84890566D01*
X60080503Y-84890566D02*
X60185403Y-84735283D01*
X60185403Y-84735283D02*
X60286878Y-84577783D01*
X60286878Y-84577783D02*
X60384926Y-84418079D01*
X60384926Y-84418079D02*
X60479548Y-84256183D01*
X60479548Y-84256183D02*
X60570744Y-84092108D01*
X60570744Y-84092108D02*
X60658514Y-83925867D01*
X60658514Y-83925867D02*
X60742858Y-83757471D01*
X60742858Y-83757471D02*
X60823775Y-83586934D01*
X60823775Y-83586934D02*
X60901266Y-83414268D01*
X60901266Y-83414268D02*
X60975332Y-83239487D01*
X60975332Y-83239487D02*
X61045971Y-83062601D01*
X61045971Y-83062601D02*
X61113184Y-82883625D01*
X61113184Y-82883625D02*
X61176971Y-82702570D01*
X61176971Y-82702570D02*
X61237331Y-82519450D01*
X61237331Y-82519450D02*
X61294266Y-82334276D01*
X61294266Y-82334276D02*
X61347774Y-82147062D01*
X61347774Y-82147062D02*
X61397857Y-81957820D01*
X49720472Y-84055966D02*
X49586902Y-84246114D01*
X49586902Y-84246114D02*
X49450608Y-84432821D01*
X49450608Y-84432821D02*
X49311587Y-84616070D01*
X49311587Y-84616070D02*
X49169836Y-84795846D01*
X49169836Y-84795846D02*
X49025351Y-84972132D01*
X49025351Y-84972132D02*
X48878130Y-85144914D01*
X48878130Y-85144914D02*
X48728170Y-85314175D01*
X48728170Y-85314175D02*
X48575466Y-85479900D01*
X48575466Y-85479900D02*
X48420017Y-85642072D01*
X48420017Y-85642072D02*
X48261818Y-85800677D01*
X48261818Y-85800677D02*
X48100868Y-85955698D01*
X48100868Y-85955698D02*
X47937162Y-86107120D01*
X47937162Y-86107120D02*
X47770697Y-86254926D01*
X47770697Y-86254926D02*
X47601470Y-86399102D01*
X47601470Y-86399102D02*
X47429479Y-86539631D01*
X47429479Y-86539631D02*
X47254720Y-86676498D01*
X47254720Y-86676498D02*
X47077189Y-86809687D01*
X47077189Y-86809687D02*
X46896885Y-86939182D01*
X46896885Y-86939182D02*
X46713803Y-87064968D01*
X46713803Y-87064968D02*
X46527940Y-87187028D01*
X46527940Y-87187028D02*
X46339293Y-87305347D01*
X46339293Y-87305347D02*
X46147860Y-87419909D01*
X46147860Y-87419909D02*
X45953637Y-87530699D01*
X45953637Y-87530699D02*
X45756620Y-87637700D01*
X45756620Y-87637700D02*
X45556807Y-87740898D01*
X45556807Y-87740898D02*
X45354195Y-87840276D01*
X45354195Y-87840276D02*
X45148779Y-87935818D01*
X45148779Y-87935818D02*
X44940559Y-88027509D01*
X44940559Y-88027509D02*
X44729529Y-88115332D01*
X44729529Y-88115332D02*
X44515687Y-88199274D01*
X44515687Y-88199274D02*
X44299030Y-88279316D01*
X44299030Y-88279316D02*
X44079555Y-88355445D01*
X109259659Y-70297633D02*
X109625442Y-69872349D01*
X109625442Y-69872349D02*
X110003065Y-69473241D01*
X110003065Y-69473241D02*
X110391572Y-69099778D01*
X110391572Y-69099778D02*
X110790004Y-68751432D01*
X110790004Y-68751432D02*
X111197405Y-68427674D01*
X111197405Y-68427674D02*
X111612817Y-68127974D01*
X111612817Y-68127974D02*
X112035283Y-67851804D01*
X112035283Y-67851804D02*
X112463845Y-67598635D01*
X112463845Y-67598635D02*
X112897547Y-67367936D01*
X112897547Y-67367936D02*
X113335430Y-67159181D01*
X113335430Y-67159181D02*
X113776538Y-66971839D01*
X113776538Y-66971839D02*
X114219914Y-66805381D01*
X114219914Y-66805381D02*
X114664599Y-66659278D01*
X114664599Y-66659278D02*
X115109637Y-66533002D01*
X115109637Y-66533002D02*
X115554071Y-66426023D01*
X115554071Y-66426023D02*
X115996942Y-66337812D01*
X115996942Y-66337812D02*
X116437294Y-66267841D01*
X116437294Y-66267841D02*
X116874170Y-66215579D01*
X116874170Y-66215579D02*
X117306612Y-66180499D01*
X117306612Y-66180499D02*
X117733663Y-66162071D01*
X117733663Y-66162071D02*
X118154365Y-66159766D01*
X118154365Y-66159766D02*
X118567762Y-66173055D01*
X118567762Y-66173055D02*
X118972896Y-66201409D01*
X118972896Y-66201409D02*
X119368809Y-66244299D01*
X119368809Y-66244299D02*
X119754544Y-66301195D01*
X119754544Y-66301195D02*
X120129145Y-66371570D01*
X120129145Y-66371570D02*
X120491653Y-66454893D01*
X120491653Y-66454893D02*
X120841112Y-66550637D01*
X120841112Y-66550637D02*
X121176564Y-66658270D01*
X121176564Y-66658270D02*
X121497051Y-66777266D01*
X121497051Y-66777266D02*
X121801617Y-66907095D01*
X121801617Y-66907095D02*
X122089305Y-67047227D01*
X117377075Y-73874800D02*
X117330375Y-74134378D01*
X117330375Y-74134378D02*
X117287046Y-74393945D01*
X117287046Y-74393945D02*
X117247130Y-74653486D01*
X117247130Y-74653486D02*
X117210671Y-74912989D01*
X117210671Y-74912989D02*
X117177715Y-75172442D01*
X117177715Y-75172442D02*
X117148304Y-75431832D01*
X117148304Y-75431832D02*
X117122483Y-75691147D01*
X117122483Y-75691147D02*
X117100296Y-75950373D01*
X117100296Y-75950373D02*
X117081787Y-76209498D01*
X117081787Y-76209498D02*
X117067000Y-76468510D01*
X117067000Y-76468510D02*
X117055980Y-76727397D01*
X117055980Y-76727397D02*
X117048769Y-76986144D01*
X117048769Y-76986144D02*
X117045414Y-77244741D01*
X117045414Y-77244741D02*
X117045956Y-77503173D01*
X117045956Y-77503173D02*
X117050442Y-77761430D01*
X117050442Y-77761430D02*
X117058914Y-78019497D01*
X117058914Y-78019497D02*
X117071416Y-78277363D01*
X117071416Y-78277363D02*
X117087994Y-78535015D01*
X117087994Y-78535015D02*
X117108690Y-78792440D01*
X117108690Y-78792440D02*
X117133550Y-79049626D01*
X117133550Y-79049626D02*
X117162617Y-79306559D01*
X117162617Y-79306559D02*
X117195934Y-79563229D01*
X117195934Y-79563229D02*
X117233548Y-79819621D01*
X117233548Y-79819621D02*
X117275500Y-80075723D01*
X117275500Y-80075723D02*
X117321836Y-80331523D01*
X117321836Y-80331523D02*
X117372599Y-80587009D01*
X117372599Y-80587009D02*
X117427835Y-80842166D01*
X117427835Y-80842166D02*
X117487585Y-81096984D01*
X117487585Y-81096984D02*
X117551896Y-81351449D01*
X117551896Y-81351449D02*
X117620811Y-81605548D01*
X117620811Y-81605548D02*
X117694373Y-81859270D01*
X117694373Y-81859270D02*
X117772628Y-82112602D01*
X88673753Y-66342113D02*
X89304595Y-66316802D01*
X89304595Y-66316802D02*
X89923112Y-66324033D01*
X89923112Y-66324033D02*
X90528870Y-66362792D01*
X90528870Y-66362792D02*
X91121433Y-66432065D01*
X91121433Y-66432065D02*
X91700366Y-66530839D01*
X91700366Y-66530839D02*
X92265237Y-66658099D01*
X92265237Y-66658099D02*
X92815609Y-66812830D01*
X92815609Y-66812830D02*
X93351048Y-66994020D01*
X93351048Y-66994020D02*
X93871121Y-67200655D01*
X93871121Y-67200655D02*
X94375391Y-67431719D01*
X94375391Y-67431719D02*
X94863425Y-67686200D01*
X94863425Y-67686200D02*
X95334788Y-67963083D01*
X95334788Y-67963083D02*
X95789045Y-68261354D01*
X95789045Y-68261354D02*
X96225762Y-68579999D01*
X96225762Y-68579999D02*
X96644505Y-68918005D01*
X96644505Y-68918005D02*
X97044838Y-69274357D01*
X97044838Y-69274357D02*
X97426328Y-69648041D01*
X97426328Y-69648041D02*
X97788539Y-70038043D01*
X97788539Y-70038043D02*
X98131037Y-70443350D01*
X98131037Y-70443350D02*
X98453388Y-70862947D01*
X98453388Y-70862947D02*
X98755157Y-71295820D01*
X98755157Y-71295820D02*
X99035909Y-71740956D01*
X99035909Y-71740956D02*
X99295209Y-72197340D01*
X99295209Y-72197340D02*
X99532624Y-72663958D01*
X99532624Y-72663958D02*
X99747719Y-73139797D01*
X99747719Y-73139797D02*
X99940059Y-73623842D01*
X99940059Y-73623842D02*
X100109209Y-74115080D01*
X100109209Y-74115080D02*
X100254735Y-74612496D01*
X100254735Y-74612496D02*
X100376203Y-75115076D01*
X100376203Y-75115076D02*
X100473177Y-75621807D01*
X100473177Y-75621807D02*
X100545224Y-76131674D01*
X100545224Y-76131674D02*
X100591909Y-76643664D01*
X57855086Y-68165091D02*
X57724556Y-68069058D01*
X57724556Y-68069058D02*
X57591205Y-67974033D01*
X57591205Y-67974033D02*
X57455436Y-67879411D01*
X57455436Y-67879411D02*
X57317651Y-67784587D01*
X57317651Y-67784587D02*
X57178254Y-67688957D01*
X57178254Y-67688957D02*
X57072890Y-67616342D01*
X57072890Y-67616342D02*
X56967016Y-67542678D01*
X56967016Y-67542678D02*
X56860802Y-67467711D01*
X56860802Y-67467711D02*
X56754419Y-67391185D01*
X42996086Y-87925498D02*
X43141165Y-87853340D01*
X43141165Y-87853340D02*
X43286074Y-87781750D01*
X43286074Y-87781750D02*
X43430643Y-87710387D01*
X43430643Y-87710387D02*
X43574702Y-87638910D01*
X43574702Y-87638910D02*
X43718080Y-87566980D01*
X43718080Y-87566980D02*
X43860609Y-87494256D01*
X43860609Y-87494256D02*
X44002117Y-87420399D01*
X44002117Y-87420399D02*
X44142434Y-87345068D01*
X44142434Y-87345068D02*
X44281392Y-87267923D01*
X44281392Y-87267923D02*
X44418819Y-87188624D01*
X44418819Y-87188624D02*
X44509503Y-87134394D01*
X39711284Y-66720466D02*
X39964557Y-66669973D01*
X39964557Y-66669973D02*
X40227343Y-66631331D01*
X40227343Y-66631331D02*
X40498978Y-66604498D01*
X40498978Y-66604498D02*
X40778797Y-66589432D01*
X40778797Y-66589432D02*
X41066136Y-66586094D01*
X41066136Y-66586094D02*
X41360331Y-66594441D01*
X41360331Y-66594441D02*
X41660717Y-66614434D01*
X41660717Y-66614434D02*
X41966629Y-66646031D01*
X41966629Y-66646031D02*
X42277403Y-66689191D01*
X42277403Y-66689191D02*
X42592375Y-66743873D01*
X42592375Y-66743873D02*
X42910881Y-66810037D01*
X42910881Y-66810037D02*
X43232255Y-66887641D01*
X43232255Y-66887641D02*
X43555833Y-66976645D01*
X43555833Y-66976645D02*
X43880951Y-67077007D01*
X43880951Y-67077007D02*
X44206945Y-67188687D01*
X44206945Y-67188687D02*
X44533149Y-67311644D01*
X44533149Y-67311644D02*
X44858901Y-67445836D01*
X44858901Y-67445836D02*
X45183534Y-67591224D01*
X45183534Y-67591224D02*
X45506385Y-67747765D01*
X45506385Y-67747765D02*
X45826789Y-67915419D01*
X45826789Y-67915419D02*
X46144082Y-68094145D01*
X46144082Y-68094145D02*
X46457599Y-68283902D01*
X46457599Y-68283902D02*
X46766676Y-68484649D01*
X46766676Y-68484649D02*
X47070648Y-68696345D01*
X47070648Y-68696345D02*
X47368852Y-68918950D01*
X47368852Y-68918950D02*
X47660622Y-69152422D01*
X47660622Y-69152422D02*
X47945294Y-69396720D01*
X47945294Y-69396720D02*
X48222203Y-69651804D01*
X48222203Y-69651804D02*
X48490686Y-69917632D01*
X48490686Y-69917632D02*
X48750078Y-70194164D01*
X48750078Y-70194164D02*
X48999714Y-70481358D01*
X48999714Y-70481358D02*
X49238930Y-70779175D01*
X39711284Y-66720466D02*
X39711284Y-66720466D01*
X44079555Y-88355445D02*
X43953694Y-88396705D01*
X43953694Y-88396705D02*
X43827632Y-88436631D01*
X43827632Y-88436631D02*
X43701368Y-88475196D01*
X43701368Y-88475196D02*
X43574903Y-88512376D01*
X43574903Y-88512376D02*
X43448237Y-88548144D01*
X43448237Y-88548144D02*
X43321368Y-88582477D01*
X43321368Y-88582477D02*
X43194299Y-88615349D01*
X43194299Y-88615349D02*
X43067027Y-88646734D01*
X43067027Y-88646734D02*
X42939555Y-88676608D01*
X42939555Y-88676608D02*
X42811880Y-88704945D01*
X42811880Y-88704945D02*
X42684004Y-88731720D01*
X42684004Y-88731720D02*
X42555927Y-88756909D01*
X42555927Y-88756909D02*
X42427648Y-88780484D01*
X42427648Y-88780484D02*
X42299167Y-88802423D01*
X42299167Y-88802423D02*
X42170485Y-88822698D01*
X42170485Y-88822698D02*
X42041602Y-88841286D01*
X42041602Y-88841286D02*
X41912516Y-88858161D01*
X41912516Y-88858161D02*
X41783230Y-88873297D01*
X41783230Y-88873297D02*
X41653741Y-88886670D01*
X41653741Y-88886670D02*
X41524052Y-88898254D01*
X41524052Y-88898254D02*
X41394160Y-88908024D01*
X41394160Y-88908024D02*
X41264067Y-88915956D01*
X41264067Y-88915956D02*
X41133773Y-88922023D01*
X41133773Y-88922023D02*
X41003277Y-88926201D01*
X41003277Y-88926201D02*
X40872580Y-88928464D01*
X40872580Y-88928464D02*
X40741681Y-88928787D01*
X40741681Y-88928787D02*
X40610580Y-88927146D01*
X40610580Y-88927146D02*
X40479278Y-88923514D01*
X40479278Y-88923514D02*
X40347775Y-88917866D01*
X40347775Y-88917866D02*
X40216069Y-88910179D01*
X40216069Y-88910179D02*
X40084163Y-88900425D01*
X40084163Y-88900425D02*
X39952055Y-88888581D01*
X135761649Y-88149070D02*
X135537136Y-88089062D01*
X135537136Y-88089062D02*
X135315048Y-88025128D01*
X135315048Y-88025128D02*
X135095392Y-87957270D01*
X135095392Y-87957270D02*
X134878173Y-87885491D01*
X134878173Y-87885491D02*
X134663397Y-87809795D01*
X134663397Y-87809795D02*
X134451071Y-87730185D01*
X134451071Y-87730185D02*
X134241202Y-87646664D01*
X134241202Y-87646664D02*
X134033795Y-87559235D01*
X134033795Y-87559235D02*
X133828857Y-87467901D01*
X133828857Y-87467901D02*
X133626394Y-87372665D01*
X133626394Y-87372665D02*
X133426413Y-87273531D01*
X133426413Y-87273531D02*
X133228919Y-87170502D01*
X133228919Y-87170502D02*
X133033919Y-87063580D01*
X133033919Y-87063580D02*
X132841420Y-86952769D01*
X132841420Y-86952769D02*
X132651427Y-86838073D01*
X132651427Y-86838073D02*
X132463948Y-86719493D01*
X132463948Y-86719493D02*
X132278987Y-86597034D01*
X132278987Y-86597034D02*
X132096552Y-86470699D01*
X132096552Y-86470699D02*
X131916649Y-86340490D01*
X131916649Y-86340490D02*
X131739284Y-86206411D01*
X131739284Y-86206411D02*
X131564463Y-86068465D01*
X131564463Y-86068465D02*
X131392193Y-85926655D01*
X131392193Y-85926655D02*
X131222480Y-85780985D01*
X131222480Y-85780985D02*
X131055331Y-85631457D01*
X131055331Y-85631457D02*
X130890751Y-85478074D01*
X130890751Y-85478074D02*
X130728746Y-85320840D01*
X130728746Y-85320840D02*
X130569325Y-85159758D01*
X130569325Y-85159758D02*
X130412491Y-84994832D01*
X130412491Y-84994832D02*
X130258253Y-84826063D01*
X130258253Y-84826063D02*
X130106615Y-84653456D01*
X130106615Y-84653456D02*
X129957585Y-84477013D01*
X129957585Y-84477013D02*
X129811169Y-84296738D01*
X49686075Y-79085769D02*
X49708034Y-78931412D01*
X49708034Y-78931412D02*
X49725715Y-78777793D01*
X49725715Y-78777793D02*
X49739371Y-78624740D01*
X49739371Y-78624740D02*
X49749257Y-78472085D01*
X49749257Y-78472085D02*
X49755629Y-78319656D01*
X49755629Y-78319656D02*
X49758742Y-78167284D01*
X49758742Y-78167284D02*
X49758851Y-78014798D01*
X49758851Y-78014798D02*
X49756210Y-77862029D01*
X49756210Y-77862029D02*
X49751076Y-77708807D01*
X49751076Y-77708807D02*
X49743702Y-77554961D01*
X49743702Y-77554961D02*
X49737669Y-77451967D01*
X109483232Y-84571904D02*
X109170548Y-84194557D01*
X109170548Y-84194557D02*
X108877429Y-83804715D01*
X108877429Y-83804715D02*
X108603891Y-83403184D01*
X108603891Y-83403184D02*
X108349949Y-82990770D01*
X108349949Y-82990770D02*
X108115620Y-82568279D01*
X108115620Y-82568279D02*
X107900918Y-82136517D01*
X107900918Y-82136517D02*
X107705860Y-81696291D01*
X107705860Y-81696291D02*
X107530462Y-81248406D01*
X107530462Y-81248406D02*
X107374739Y-80793669D01*
X107374739Y-80793669D02*
X107238706Y-80332886D01*
X107238706Y-80332886D02*
X107122380Y-79866863D01*
X107122380Y-79866863D02*
X107025777Y-79396406D01*
X107025777Y-79396406D02*
X106948912Y-78922321D01*
X106948912Y-78922321D02*
X106891800Y-78445415D01*
X106891800Y-78445415D02*
X106854459Y-77966493D01*
X106854459Y-77966493D02*
X106836902Y-77486362D01*
X106836902Y-77486362D02*
X106839147Y-77005828D01*
X106839147Y-77005828D02*
X106861208Y-76525697D01*
X106861208Y-76525697D02*
X106903103Y-76046775D01*
X106903103Y-76046775D02*
X106964845Y-75569869D01*
X106964845Y-75569869D02*
X107046452Y-75095784D01*
X107046452Y-75095784D02*
X107147938Y-74625327D01*
X107147938Y-74625327D02*
X107269320Y-74159304D01*
X107269320Y-74159304D02*
X107410614Y-73698521D01*
X107410614Y-73698521D02*
X107571834Y-73243784D01*
X107571834Y-73243784D02*
X107752998Y-72795899D01*
X107752998Y-72795899D02*
X107954119Y-72355673D01*
X107954119Y-72355673D02*
X108175216Y-71923911D01*
X108175216Y-71923911D02*
X108416302Y-71501420D01*
X108416302Y-71501420D02*
X108677394Y-71089006D01*
X108677394Y-71089006D02*
X108958508Y-70687474D01*
X108958508Y-70687474D02*
X109259659Y-70297633D01*
X41448274Y-88458633D02*
X41593792Y-88411482D01*
X41593792Y-88411482D02*
X41739962Y-88366202D01*
X41739962Y-88366202D02*
X41886529Y-88321943D01*
X41886529Y-88321943D02*
X42033238Y-88277853D01*
X42033238Y-88277853D02*
X42179833Y-88233083D01*
X42179833Y-88233083D02*
X42326060Y-88186783D01*
X42326060Y-88186783D02*
X42471663Y-88138102D01*
X42471663Y-88138102D02*
X42616388Y-88086191D01*
X42616388Y-88086191D02*
X42759979Y-88030198D01*
X42759979Y-88030198D02*
X42902181Y-87969273D01*
X42902181Y-87969273D02*
X42996086Y-87925498D01*
X49238930Y-70779175D02*
X49535026Y-71177528D01*
X49535026Y-71177528D02*
X49810785Y-71582207D01*
X49810785Y-71582207D02*
X50066429Y-71992687D01*
X50066429Y-71992687D02*
X50302177Y-72408442D01*
X50302177Y-72408442D02*
X50518250Y-72828945D01*
X50518250Y-72828945D02*
X50714868Y-73253672D01*
X50714868Y-73253672D02*
X50892252Y-73682095D01*
X50892252Y-73682095D02*
X51050622Y-74113689D01*
X51050622Y-74113689D02*
X51190199Y-74547929D01*
X51190199Y-74547929D02*
X51311203Y-74984287D01*
X51311203Y-74984287D02*
X51413854Y-75422240D01*
X51413854Y-75422240D02*
X51498373Y-75861259D01*
X51498373Y-75861259D02*
X51564980Y-76300821D01*
X51564980Y-76300821D02*
X51613896Y-76740398D01*
X51613896Y-76740398D02*
X51645341Y-77179465D01*
X51645341Y-77179465D02*
X51659536Y-77617496D01*
X51659536Y-77617496D02*
X51656701Y-78053965D01*
X51656701Y-78053965D02*
X51637056Y-78488346D01*
X51637056Y-78488346D02*
X51600822Y-78920114D01*
X51600822Y-78920114D02*
X51548220Y-79348742D01*
X51548220Y-79348742D02*
X51479469Y-79773704D01*
X51479469Y-79773704D02*
X51394791Y-80194475D01*
X51394791Y-80194475D02*
X51294405Y-80610529D01*
X51294405Y-80610529D02*
X51178532Y-81021340D01*
X51178532Y-81021340D02*
X51047393Y-81426382D01*
X51047393Y-81426382D02*
X50901207Y-81825128D01*
X50901207Y-81825128D02*
X50740196Y-82217054D01*
X50740196Y-82217054D02*
X50564580Y-82601633D01*
X50564580Y-82601633D02*
X50374579Y-82978340D01*
X50374579Y-82978340D02*
X50170414Y-83346648D01*
X50170414Y-83346648D02*
X49952304Y-83706032D01*
X49952304Y-83706032D02*
X49720472Y-84055966D01*
X129811169Y-84296738D02*
X129521817Y-83919651D01*
X129521817Y-83919651D02*
X129250343Y-83533643D01*
X129250343Y-83533643D02*
X128996786Y-83139265D01*
X128996786Y-83139265D02*
X128761189Y-82737068D01*
X128761189Y-82737068D02*
X128543591Y-82327603D01*
X128543591Y-82327603D02*
X128344035Y-81911421D01*
X128344035Y-81911421D02*
X128162559Y-81489073D01*
X128162559Y-81489073D02*
X127999207Y-81061110D01*
X127999207Y-81061110D02*
X127854018Y-80628084D01*
X127854018Y-80628084D02*
X127727034Y-80190546D01*
X127727034Y-80190546D02*
X127618296Y-79749045D01*
X127618296Y-79749045D02*
X127527843Y-79304135D01*
X127527843Y-79304135D02*
X127455718Y-78856365D01*
X127455718Y-78856365D02*
X127401962Y-78406287D01*
X127401962Y-78406287D02*
X127366615Y-77954451D01*
X127366615Y-77954451D02*
X127349717Y-77501410D01*
X127349717Y-77501410D02*
X127351311Y-77047714D01*
X127351311Y-77047714D02*
X127371437Y-76593913D01*
X127371437Y-76593913D02*
X127410136Y-76140560D01*
X127410136Y-76140560D02*
X127467449Y-75688205D01*
X127467449Y-75688205D02*
X127543417Y-75237400D01*
X127543417Y-75237400D02*
X127638081Y-74788695D01*
X127638081Y-74788695D02*
X127751481Y-74342641D01*
X127751481Y-74342641D02*
X127883659Y-73899790D01*
X127883659Y-73899790D02*
X128034656Y-73460692D01*
X128034656Y-73460692D02*
X128204512Y-73025900D01*
X128204512Y-73025900D02*
X128393269Y-72595963D01*
X128393269Y-72595963D02*
X128600967Y-72171433D01*
X128600967Y-72171433D02*
X128827647Y-71752861D01*
X128827647Y-71752861D02*
X129073351Y-71340798D01*
X129073351Y-71340798D02*
X129338119Y-70935795D01*
X129338119Y-70935795D02*
X129621993Y-70538404D01*
X129295232Y-76471685D02*
X129280619Y-76751266D01*
X129280619Y-76751266D02*
X129272252Y-77028921D01*
X129272252Y-77028921D02*
X129270126Y-77304635D01*
X129270126Y-77304635D02*
X129274238Y-77578397D01*
X129274238Y-77578397D02*
X129284585Y-77850195D01*
X129284585Y-77850195D02*
X129301164Y-78120014D01*
X129301164Y-78120014D02*
X129323972Y-78387844D01*
X129323972Y-78387844D02*
X129353006Y-78653670D01*
X129353006Y-78653670D02*
X129388262Y-78917482D01*
X129388262Y-78917482D02*
X129429737Y-79179265D01*
X129429737Y-79179265D02*
X129477429Y-79439008D01*
X129477429Y-79439008D02*
X129531333Y-79696697D01*
X129531333Y-79696697D02*
X129591448Y-79952321D01*
X129591448Y-79952321D02*
X129657769Y-80205867D01*
X129657769Y-80205867D02*
X129730294Y-80457321D01*
X129730294Y-80457321D02*
X129809019Y-80706672D01*
X129809019Y-80706672D02*
X129893942Y-80953907D01*
X129893942Y-80953907D02*
X129985059Y-81199013D01*
X129985059Y-81199013D02*
X130082366Y-81441977D01*
X130082366Y-81441977D02*
X130185862Y-81682788D01*
X130185862Y-81682788D02*
X130295542Y-81921432D01*
X130295542Y-81921432D02*
X130411404Y-82157897D01*
X130411404Y-82157897D02*
X130533444Y-82392171D01*
X130533444Y-82392171D02*
X130661660Y-82624240D01*
X130661660Y-82624240D02*
X130796047Y-82854092D01*
X130796047Y-82854092D02*
X130936604Y-83081714D01*
X130936604Y-83081714D02*
X131083326Y-83307095D01*
X131083326Y-83307095D02*
X131236211Y-83530220D01*
X131236211Y-83530220D02*
X131395256Y-83751079D01*
X131395256Y-83751079D02*
X131560456Y-83969657D01*
X131560456Y-83969657D02*
X131731810Y-84185944D01*
X131731810Y-84185944D02*
X131909315Y-84399925D01*
X90083982Y-88596216D02*
X89519086Y-88613543D01*
X89519086Y-88613543D02*
X88956905Y-88601418D01*
X88956905Y-88601418D02*
X88398440Y-88560416D01*
X88398440Y-88560416D02*
X87844692Y-88491114D01*
X87844692Y-88491114D02*
X87296662Y-88394087D01*
X87296662Y-88394087D02*
X86755353Y-88269913D01*
X86755353Y-88269913D02*
X86221765Y-88119167D01*
X86221765Y-88119167D02*
X85696900Y-87942426D01*
X85696900Y-87942426D02*
X85181760Y-87740266D01*
X85181760Y-87740266D02*
X84677344Y-87513264D01*
X84677344Y-87513264D02*
X84184656Y-87261994D01*
X84184656Y-87261994D02*
X83704696Y-86987035D01*
X83704696Y-86987035D02*
X83238466Y-86688962D01*
X83238466Y-86688962D02*
X82786967Y-86368351D01*
X82786967Y-86368351D02*
X82351201Y-86025779D01*
X82351201Y-86025779D02*
X81932169Y-85661822D01*
X81932169Y-85661822D02*
X81530872Y-85277055D01*
X81530872Y-85277055D02*
X81148312Y-84872057D01*
X81148312Y-84872057D02*
X80785490Y-84447402D01*
X80785490Y-84447402D02*
X80443407Y-84003667D01*
X80443407Y-84003667D02*
X80123065Y-83541428D01*
X80123065Y-83541428D02*
X79825466Y-83061262D01*
X79825466Y-83061262D02*
X79551610Y-82563745D01*
X79551610Y-82563745D02*
X79302500Y-82049453D01*
X79302500Y-82049453D02*
X79079136Y-81518962D01*
X79079136Y-81518962D02*
X78882520Y-80972849D01*
X78882520Y-80972849D02*
X78713653Y-80411690D01*
X78713653Y-80411690D02*
X78573537Y-79836061D01*
X78573537Y-79836061D02*
X78463173Y-79246538D01*
X78463173Y-79246538D02*
X78383562Y-78643699D01*
X78383562Y-78643699D02*
X78335706Y-78028118D01*
X78335706Y-78028118D02*
X78320607Y-77400373D01*
X49737669Y-77451967D02*
X49728363Y-77297199D01*
X49728363Y-77297199D02*
X49719455Y-77142517D01*
X49719455Y-77142517D02*
X49710433Y-76988005D01*
X49710433Y-76988005D02*
X49700787Y-76833748D01*
X49700787Y-76833748D02*
X49690008Y-76679831D01*
X49690008Y-76679831D02*
X49677585Y-76526339D01*
X49677585Y-76526339D02*
X49663008Y-76373358D01*
X49663008Y-76373358D02*
X49645767Y-76220971D01*
X49645767Y-76220971D02*
X49625352Y-76069265D01*
X49625352Y-76069265D02*
X49601253Y-75918324D01*
X49601253Y-75918324D02*
X49582888Y-75818164D01*
X48000680Y-83729206D02*
X48086384Y-83602539D01*
X48086384Y-83602539D02*
X48169367Y-83474058D01*
X48169367Y-83474058D02*
X48249630Y-83343764D01*
X48249630Y-83343764D02*
X48327171Y-83211656D01*
X48327171Y-83211656D02*
X48401992Y-83077734D01*
X48401992Y-83077734D02*
X48474092Y-82941998D01*
X48474092Y-82941998D02*
X48543472Y-82804448D01*
X48543472Y-82804448D02*
X48610131Y-82665085D01*
X48610131Y-82665085D02*
X48674068Y-82523907D01*
X48674068Y-82523907D02*
X48735286Y-82380916D01*
X48735286Y-82380916D02*
X48774586Y-82284581D01*
X61397857Y-81957820D02*
X61468138Y-81669267D01*
X61468138Y-81669267D02*
X61533853Y-81380816D01*
X61533853Y-81380816D02*
X61594970Y-81092466D01*
X61594970Y-81092466D02*
X61651459Y-80804216D01*
X61651459Y-80804216D02*
X61703286Y-80516067D01*
X61703286Y-80516067D02*
X61750422Y-80228019D01*
X61750422Y-80228019D02*
X61792834Y-79940071D01*
X61792834Y-79940071D02*
X61830491Y-79652224D01*
X61830491Y-79652224D02*
X61863362Y-79364478D01*
X61863362Y-79364478D02*
X61891415Y-79076833D01*
X61891415Y-79076833D02*
X61914618Y-78789289D01*
X61914618Y-78789289D02*
X61932940Y-78501845D01*
X61932940Y-78501845D02*
X61946350Y-78214502D01*
X61946350Y-78214502D02*
X61954815Y-77927260D01*
X61954815Y-77927260D02*
X61958305Y-77640119D01*
X61958305Y-77640119D02*
X61956789Y-77353078D01*
X61956789Y-77353078D02*
X61950233Y-77066138D01*
X61950233Y-77066138D02*
X61938608Y-76779299D01*
X61938608Y-76779299D02*
X61921882Y-76492561D01*
X61921882Y-76492561D02*
X61900022Y-76205923D01*
X61900022Y-76205923D02*
X61872998Y-75919386D01*
X61872998Y-75919386D02*
X61840778Y-75632950D01*
X61840778Y-75632950D02*
X61803331Y-75346615D01*
X61803331Y-75346615D02*
X61760625Y-75060381D01*
X61760625Y-75060381D02*
X61712629Y-74774247D01*
X61712629Y-74774247D02*
X61659310Y-74488214D01*
X61659310Y-74488214D02*
X61600638Y-74202282D01*
X61600638Y-74202282D02*
X61536582Y-73916450D01*
X61536582Y-73916450D02*
X61467109Y-73630720D01*
X61467109Y-73630720D02*
X61392188Y-73345090D01*
X61392188Y-73345090D02*
X61311788Y-73059561D01*
X61311788Y-73059561D02*
X61225878Y-72774133D01*
X69756044Y-70607195D02*
X70067636Y-71018468D01*
X70067636Y-71018468D02*
X70357547Y-71439219D01*
X70357547Y-71439219D02*
X70625862Y-71868751D01*
X70625862Y-71868751D02*
X70872665Y-72306362D01*
X70872665Y-72306362D02*
X71098043Y-72751355D01*
X71098043Y-72751355D02*
X71302080Y-73203030D01*
X71302080Y-73203030D02*
X71484861Y-73660689D01*
X71484861Y-73660689D02*
X71646471Y-74123631D01*
X71646471Y-74123631D02*
X71786995Y-74591159D01*
X71786995Y-74591159D02*
X71906518Y-75062572D01*
X71906518Y-75062572D02*
X72005125Y-75537172D01*
X72005125Y-75537172D02*
X72082902Y-76014260D01*
X72082902Y-76014260D02*
X72139932Y-76493137D01*
X72139932Y-76493137D02*
X72176302Y-76973103D01*
X72176302Y-76973103D02*
X72192096Y-77453459D01*
X72192096Y-77453459D02*
X72187399Y-77933507D01*
X72187399Y-77933507D02*
X72162297Y-78412548D01*
X72162297Y-78412548D02*
X72116874Y-78889881D01*
X72116874Y-78889881D02*
X72051215Y-79364809D01*
X72051215Y-79364809D02*
X71965405Y-79836632D01*
X71965405Y-79836632D02*
X71859530Y-80304650D01*
X71859530Y-80304650D02*
X71733674Y-80768166D01*
X71733674Y-80768166D02*
X71587923Y-81226479D01*
X71587923Y-81226479D02*
X71422361Y-81678891D01*
X71422361Y-81678891D02*
X71237073Y-82124703D01*
X71237073Y-82124703D02*
X71032145Y-82563215D01*
X71032145Y-82563215D02*
X70807662Y-82993729D01*
X70807662Y-82993729D02*
X70563708Y-83415545D01*
X70563708Y-83415545D02*
X70300368Y-83827964D01*
X70300368Y-83827964D02*
X70017728Y-84230288D01*
X70017728Y-84230288D02*
X69715873Y-84621817D01*
X69715873Y-84621817D02*
X69394888Y-85001852D01*
X139149638Y-66238925D02*
X139149638Y-66238925D01*
X44509503Y-87134394D02*
X44639632Y-87051684D01*
X44639632Y-87051684D02*
X44768769Y-86967898D01*
X44768769Y-86967898D02*
X44896829Y-86882864D01*
X44896829Y-86882864D02*
X45023727Y-86796414D01*
X45023727Y-86796414D02*
X45149378Y-86708376D01*
X45149378Y-86708376D02*
X45273697Y-86618581D01*
X45273697Y-86618581D02*
X45396600Y-86526859D01*
X45396600Y-86526859D02*
X45517999Y-86433040D01*
X45517999Y-86433040D02*
X45637812Y-86336954D01*
X45637812Y-86336954D02*
X45755953Y-86238430D01*
X45755953Y-86238430D02*
X45833743Y-86171310D01*
X139270024Y-88372644D02*
X139044893Y-88415857D01*
X139044893Y-88415857D02*
X138820896Y-88449094D01*
X138820896Y-88449094D02*
X138597957Y-88472858D01*
X138597957Y-88472858D02*
X138376000Y-88487655D01*
X138376000Y-88487655D02*
X138154951Y-88493986D01*
X138154951Y-88493986D02*
X137934732Y-88492357D01*
X137934732Y-88492357D02*
X137715270Y-88483271D01*
X137715270Y-88483271D02*
X137496488Y-88467232D01*
X137496488Y-88467232D02*
X137278310Y-88444743D01*
X137278310Y-88444743D02*
X137060662Y-88416310D01*
X137060662Y-88416310D02*
X136843467Y-88382434D01*
X136843467Y-88382434D02*
X136626650Y-88343621D01*
X136626650Y-88343621D02*
X136410135Y-88300374D01*
X136410135Y-88300374D02*
X136193847Y-88253198D01*
X136193847Y-88253198D02*
X135977710Y-88202595D01*
X135977710Y-88202595D02*
X135761649Y-88149070D01*
X49342118Y-80753966D02*
X49384318Y-80598759D01*
X49384318Y-80598759D02*
X49423967Y-80442816D01*
X49423967Y-80442816D02*
X49461236Y-80286306D01*
X49461236Y-80286306D02*
X49496294Y-80129399D01*
X49496294Y-80129399D02*
X49529311Y-79972266D01*
X49529311Y-79972266D02*
X49560458Y-79815076D01*
X49560458Y-79815076D02*
X49589905Y-79657999D01*
X49589905Y-79657999D02*
X49617821Y-79501205D01*
X49617821Y-79501205D02*
X49644376Y-79344866D01*
X49644376Y-79344866D02*
X49669742Y-79189149D01*
X49669742Y-79189149D02*
X49686075Y-79085769D01*
X121779743Y-67356789D02*
X121549176Y-67497707D01*
X121549176Y-67497707D02*
X121325018Y-67643115D01*
X121325018Y-67643115D02*
X121107227Y-67792971D01*
X121107227Y-67792971D02*
X120895763Y-67947228D01*
X120895763Y-67947228D02*
X120690584Y-68105844D01*
X120690584Y-68105844D02*
X120491649Y-68268774D01*
X120491649Y-68268774D02*
X120298918Y-68435974D01*
X120298918Y-68435974D02*
X120112350Y-68607400D01*
X120112350Y-68607400D02*
X119931904Y-68783008D01*
X119931904Y-68783008D02*
X119757538Y-68962753D01*
X119757538Y-68962753D02*
X119589212Y-69146593D01*
X119589212Y-69146593D02*
X119426885Y-69334482D01*
X119426885Y-69334482D02*
X119270516Y-69526377D01*
X119270516Y-69526377D02*
X119120065Y-69722233D01*
X119120065Y-69722233D02*
X118975489Y-69922007D01*
X118975489Y-69922007D02*
X118836748Y-70125654D01*
X118836748Y-70125654D02*
X118703802Y-70333130D01*
X118703802Y-70333130D02*
X118576609Y-70544391D01*
X118576609Y-70544391D02*
X118455128Y-70759393D01*
X118455128Y-70759393D02*
X118339318Y-70978093D01*
X118339318Y-70978093D02*
X118229140Y-71200445D01*
X118229140Y-71200445D02*
X118124550Y-71426406D01*
X118124550Y-71426406D02*
X118025509Y-71655931D01*
X118025509Y-71655931D02*
X117931976Y-71888978D01*
X117931976Y-71888978D02*
X117843910Y-72125500D01*
X117843910Y-72125500D02*
X117761269Y-72365456D01*
X117761269Y-72365456D02*
X117684014Y-72608799D01*
X117684014Y-72608799D02*
X117612102Y-72855487D01*
X117612102Y-72855487D02*
X117545493Y-73105475D01*
X117545493Y-73105475D02*
X117484146Y-73358719D01*
X117484146Y-73358719D02*
X117428020Y-73615175D01*
X117428020Y-73615175D02*
X117377075Y-73874800D01*
X39952055Y-88888581D02*
X40080407Y-88806173D01*
X40080407Y-88806173D02*
X40213436Y-88740828D01*
X40213436Y-88740828D02*
X40350377Y-88689653D01*
X40350377Y-88689653D02*
X40490463Y-88649758D01*
X40490463Y-88649758D02*
X40632930Y-88618251D01*
X40632930Y-88618251D02*
X40777013Y-88592244D01*
X40777013Y-88592244D02*
X40921945Y-88568843D01*
X40921945Y-88568843D02*
X41066963Y-88545159D01*
X41066963Y-88545159D02*
X41211301Y-88518301D01*
X41211301Y-88518301D02*
X41354193Y-88485378D01*
X41354193Y-88485378D02*
X41448274Y-88458633D01*
X61225878Y-72774133D02*
X61167837Y-72596275D01*
X61167837Y-72596275D02*
X61106588Y-72420630D01*
X61106588Y-72420630D02*
X61042145Y-72247197D01*
X61042145Y-72247197D02*
X60974526Y-72075971D01*
X60974526Y-72075971D02*
X60903744Y-71906949D01*
X60903744Y-71906949D02*
X60829817Y-71740129D01*
X60829817Y-71740129D02*
X60752760Y-71575506D01*
X60752760Y-71575506D02*
X60672588Y-71413079D01*
X60672588Y-71413079D02*
X60589317Y-71252843D01*
X60589317Y-71252843D02*
X60502964Y-71094795D01*
X60502964Y-71094795D02*
X60413544Y-70938933D01*
X60413544Y-70938933D02*
X60321072Y-70785254D01*
X60321072Y-70785254D02*
X60225564Y-70633753D01*
X60225564Y-70633753D02*
X60127037Y-70484429D01*
X60127037Y-70484429D02*
X60025505Y-70337277D01*
X60025505Y-70337277D02*
X59920985Y-70192295D01*
X59920985Y-70192295D02*
X59813492Y-70049480D01*
X59813492Y-70049480D02*
X59703043Y-69908828D01*
X59703043Y-69908828D02*
X59589652Y-69770336D01*
X59589652Y-69770336D02*
X59473335Y-69634001D01*
X59473335Y-69634001D02*
X59354109Y-69499820D01*
X59354109Y-69499820D02*
X59231989Y-69367790D01*
X59231989Y-69367790D02*
X59106991Y-69237908D01*
X59106991Y-69237908D02*
X58979130Y-69110170D01*
X58979130Y-69110170D02*
X58848423Y-68984574D01*
X58848423Y-68984574D02*
X58714885Y-68861115D01*
X58714885Y-68861115D02*
X58578531Y-68739792D01*
X58578531Y-68739792D02*
X58439378Y-68620600D01*
X58439378Y-68620600D02*
X58297441Y-68503538D01*
X58297441Y-68503538D02*
X58152736Y-68388601D01*
X58152736Y-68388601D02*
X58005279Y-68275786D01*
X58005279Y-68275786D02*
X57855086Y-68165091D01*
X131909315Y-84399925D02*
X132090039Y-84609831D01*
X132090039Y-84609831D02*
X132274258Y-84813922D01*
X132274258Y-84813922D02*
X132461941Y-85012224D01*
X132461941Y-85012224D02*
X132653057Y-85204767D01*
X132653057Y-85204767D02*
X132847574Y-85391578D01*
X132847574Y-85391578D02*
X133045460Y-85572687D01*
X133045460Y-85572687D02*
X133246685Y-85748121D01*
X133246685Y-85748121D02*
X133451215Y-85917909D01*
X133451215Y-85917909D02*
X133659021Y-86082079D01*
X133659021Y-86082079D02*
X133870070Y-86240660D01*
X133870070Y-86240660D02*
X134084332Y-86393679D01*
X134084332Y-86393679D02*
X134301773Y-86541166D01*
X134301773Y-86541166D02*
X134522364Y-86683148D01*
X134522364Y-86683148D02*
X134746073Y-86819653D01*
X134746073Y-86819653D02*
X134972867Y-86950711D01*
X134972867Y-86950711D02*
X135202716Y-87076350D01*
X135202716Y-87076350D02*
X135435588Y-87196597D01*
X135435588Y-87196597D02*
X135671452Y-87311482D01*
X135671452Y-87311482D02*
X135910275Y-87421032D01*
X135910275Y-87421032D02*
X136152028Y-87525276D01*
X136152028Y-87525276D02*
X136396677Y-87624242D01*
X136396677Y-87624242D02*
X136644192Y-87717959D01*
X136644192Y-87717959D02*
X136894541Y-87806455D01*
X136894541Y-87806455D02*
X137147693Y-87889758D01*
X137147693Y-87889758D02*
X137403616Y-87967896D01*
X137403616Y-87967896D02*
X137662278Y-88040899D01*
X137662278Y-88040899D02*
X137923649Y-88108794D01*
X137923649Y-88108794D02*
X138187697Y-88171609D01*
X138187697Y-88171609D02*
X138454389Y-88229373D01*
X138454389Y-88229373D02*
X138723696Y-88282115D01*
X138723696Y-88282115D02*
X138995584Y-88329862D01*
X138995584Y-88329862D02*
X139270024Y-88372644D01*
X139149638Y-66238925D02*
X138530475Y-66346424D01*
X138530475Y-66346424D02*
X137933658Y-66477978D01*
X137933658Y-66477978D02*
X137358959Y-66632552D01*
X137358959Y-66632552D02*
X136806153Y-66809109D01*
X136806153Y-66809109D02*
X136275012Y-67006614D01*
X136275012Y-67006614D02*
X135765309Y-67224030D01*
X135765309Y-67224030D02*
X135276819Y-67460321D01*
X135276819Y-67460321D02*
X134809313Y-67714452D01*
X134809313Y-67714452D02*
X134362566Y-67985386D01*
X134362566Y-67985386D02*
X133936351Y-68272087D01*
X133936351Y-68272087D02*
X133530441Y-68573519D01*
X133530441Y-68573519D02*
X133144609Y-68888646D01*
X133144609Y-68888646D02*
X132778628Y-69216433D01*
X132778628Y-69216433D02*
X132432272Y-69555842D01*
X132432272Y-69555842D02*
X132105315Y-69905839D01*
X132105315Y-69905839D02*
X131797528Y-70265387D01*
X131797528Y-70265387D02*
X131508686Y-70633449D01*
X131508686Y-70633449D02*
X131238562Y-71008991D01*
X131238562Y-71008991D02*
X130986929Y-71390975D01*
X130986929Y-71390975D02*
X130753561Y-71778366D01*
X130753561Y-71778366D02*
X130538230Y-72170129D01*
X130538230Y-72170129D02*
X130340710Y-72565226D01*
X130340710Y-72565226D02*
X130160774Y-72962622D01*
X130160774Y-72962622D02*
X129998196Y-73361280D01*
X129998196Y-73361280D02*
X129852749Y-73760165D01*
X129852749Y-73760165D02*
X129724205Y-74158241D01*
X129724205Y-74158241D02*
X129612339Y-74554472D01*
X129612339Y-74554472D02*
X129516923Y-74947821D01*
X129516923Y-74947821D02*
X129437731Y-75337253D01*
X129437731Y-75337253D02*
X129374537Y-75721732D01*
X129374537Y-75721732D02*
X129327112Y-76100221D01*
X129327112Y-76100221D02*
X129295232Y-76471685D01*
X48774586Y-82284581D02*
X48832586Y-82143871D01*
X48832586Y-82143871D02*
X48890331Y-82002339D01*
X48890331Y-82002339D02*
X48947567Y-81860070D01*
X48947567Y-81860070D02*
X49004037Y-81717150D01*
X49004037Y-81717150D02*
X49059486Y-81573663D01*
X49059486Y-81573663D02*
X49113661Y-81429694D01*
X49113661Y-81429694D02*
X49166305Y-81285328D01*
X49166305Y-81285328D02*
X49217163Y-81140650D01*
X49217163Y-81140650D02*
X49265981Y-80995746D01*
X49265981Y-80995746D02*
X49312504Y-80850700D01*
X49312504Y-80850700D02*
X49342118Y-80753966D01*
X56754419Y-67391185D02*
X57082623Y-67236262D01*
X57082623Y-67236262D02*
X57424936Y-67094197D01*
X57424936Y-67094197D02*
X57780449Y-66965352D01*
X57780449Y-66965352D02*
X58148256Y-66850089D01*
X58148256Y-66850089D02*
X58527450Y-66748769D01*
X58527450Y-66748769D02*
X58917124Y-66661755D01*
X58917124Y-66661755D02*
X59316371Y-66589410D01*
X59316371Y-66589410D02*
X59724284Y-66532095D01*
X59724284Y-66532095D02*
X60139956Y-66490173D01*
X60139956Y-66490173D02*
X60562481Y-66464005D01*
X60562481Y-66464005D02*
X60990951Y-66453954D01*
X60990951Y-66453954D02*
X61424459Y-66460381D01*
X61424459Y-66460381D02*
X61862099Y-66483650D01*
X61862099Y-66483650D02*
X62302964Y-66524122D01*
X62302964Y-66524122D02*
X62746146Y-66582159D01*
X62746146Y-66582159D02*
X63190739Y-66658124D01*
X63190739Y-66658124D02*
X63635836Y-66752378D01*
X63635836Y-66752378D02*
X64080530Y-66865284D01*
X64080530Y-66865284D02*
X64523914Y-66997204D01*
X64523914Y-66997204D02*
X64965081Y-67148499D01*
X64965081Y-67148499D02*
X65403124Y-67319533D01*
X65403124Y-67319533D02*
X65837136Y-67510667D01*
X65837136Y-67510667D02*
X66266210Y-67722264D01*
X66266210Y-67722264D02*
X66689440Y-67954685D01*
X66689440Y-67954685D02*
X67105919Y-68208293D01*
X67105919Y-68208293D02*
X67514739Y-68483450D01*
X67514739Y-68483450D02*
X67914993Y-68780517D01*
X67914993Y-68780517D02*
X68305776Y-69099858D01*
X68305776Y-69099858D02*
X68686179Y-69441834D01*
X68686179Y-69441834D02*
X69055296Y-69806807D01*
X69055296Y-69806807D02*
X69412220Y-70195140D01*
X69412220Y-70195140D02*
X69756044Y-70607195D01*
X56874805Y-87805113D02*
X56999232Y-87719337D01*
X56999232Y-87719337D02*
X57121109Y-87635858D01*
X57121109Y-87635858D02*
X57240605Y-87554249D01*
X57240605Y-87554249D02*
X57357891Y-87474086D01*
X57357891Y-87474086D02*
X57473136Y-87394943D01*
X57473136Y-87394943D02*
X57586511Y-87316395D01*
X57586511Y-87316395D02*
X57698185Y-87238017D01*
X57698185Y-87238017D02*
X57808329Y-87159384D01*
X57808329Y-87159384D02*
X57917112Y-87080070D01*
X57917112Y-87080070D02*
X58024705Y-86999652D01*
X58024705Y-86999652D02*
X58095857Y-86945216D01*
X56874805Y-87805113D02*
X56874805Y-87805113D01*
X49582888Y-75818164D02*
X49492971Y-75391579D01*
X49492971Y-75391579D02*
X49387757Y-74969860D01*
X49387757Y-74969860D02*
X49267364Y-74553438D01*
X49267364Y-74553438D02*
X49131912Y-74142744D01*
X49131912Y-74142744D02*
X48981522Y-73738209D01*
X48981522Y-73738209D02*
X48816312Y-73340266D01*
X48816312Y-73340266D02*
X48636403Y-72949344D01*
X48636403Y-72949344D02*
X48441913Y-72565877D01*
X48441913Y-72565877D02*
X48232963Y-72190294D01*
X48232963Y-72190294D02*
X48009673Y-71823028D01*
X48009673Y-71823028D02*
X47772161Y-71464510D01*
X47772161Y-71464510D02*
X47520548Y-71115172D01*
X47520548Y-71115172D02*
X47254953Y-70775444D01*
X47254953Y-70775444D02*
X46975497Y-70445759D01*
X46975497Y-70445759D02*
X46682298Y-70126547D01*
X46682298Y-70126547D02*
X46375476Y-69818241D01*
X46375476Y-69818241D02*
X46055151Y-69521271D01*
X46055151Y-69521271D02*
X45721443Y-69236069D01*
X45721443Y-69236069D02*
X45374471Y-68963066D01*
X45374471Y-68963066D02*
X45014355Y-68702694D01*
X45014355Y-68702694D02*
X44641214Y-68455384D01*
X44641214Y-68455384D02*
X44255169Y-68221568D01*
X44255169Y-68221568D02*
X43856339Y-68001677D01*
X43856339Y-68001677D02*
X43444843Y-67796142D01*
X43444843Y-67796142D02*
X43020802Y-67605395D01*
X43020802Y-67605395D02*
X42584335Y-67429867D01*
X42584335Y-67429867D02*
X42135561Y-67269990D01*
X42135561Y-67269990D02*
X41674600Y-67126195D01*
X41674600Y-67126195D02*
X41201573Y-66998914D01*
X41201573Y-66998914D02*
X40716597Y-66888578D01*
X40716597Y-66888578D02*
X40219794Y-66795618D01*
X40219794Y-66795618D02*
X39711284Y-66720466D01*
X45833743Y-86171310D02*
X45949361Y-86069267D01*
X45949361Y-86069267D02*
X46063987Y-85966232D01*
X46063987Y-85966232D02*
X46177536Y-85862120D01*
X46177536Y-85862120D02*
X46289924Y-85756847D01*
X46289924Y-85756847D02*
X46401064Y-85650326D01*
X46401064Y-85650326D02*
X46510872Y-85542473D01*
X46510872Y-85542473D02*
X46619263Y-85433203D01*
X46619263Y-85433203D02*
X46726152Y-85322431D01*
X46726152Y-85322431D02*
X46831454Y-85210072D01*
X46831454Y-85210072D02*
X46935084Y-85096041D01*
X46935084Y-85096041D02*
X47003200Y-85019050D01*
X129621993Y-70538404D02*
X129877413Y-70206608D01*
X129877413Y-70206608D02*
X130143342Y-69888338D01*
X130143342Y-69888338D02*
X130419001Y-69583514D01*
X130419001Y-69583514D02*
X130703613Y-69292058D01*
X130703613Y-69292058D02*
X130996400Y-69013891D01*
X130996400Y-69013891D02*
X131296585Y-68748934D01*
X131296585Y-68748934D02*
X131603388Y-68497109D01*
X131603388Y-68497109D02*
X131916033Y-68258336D01*
X131916033Y-68258336D02*
X132233741Y-68032537D01*
X132233741Y-68032537D02*
X132555736Y-67819634D01*
X132555736Y-67819634D02*
X132881238Y-67619547D01*
X132881238Y-67619547D02*
X133209470Y-67432198D01*
X133209470Y-67432198D02*
X133539655Y-67257508D01*
X133539655Y-67257508D02*
X133871015Y-67095398D01*
X133871015Y-67095398D02*
X134202771Y-66945790D01*
X134202771Y-66945790D02*
X134534147Y-66808605D01*
X134534147Y-66808605D02*
X134864363Y-66683764D01*
X134864363Y-66683764D02*
X135192643Y-66571189D01*
X135192643Y-66571189D02*
X135518208Y-66470801D01*
X135518208Y-66470801D02*
X135840281Y-66382520D01*
X135840281Y-66382520D02*
X136158084Y-66306269D01*
X136158084Y-66306269D02*
X136470839Y-66241968D01*
X136470839Y-66241968D02*
X136777769Y-66189540D01*
X136777769Y-66189540D02*
X137078095Y-66148904D01*
X137078095Y-66148904D02*
X137371039Y-66119983D01*
X137371039Y-66119983D02*
X137655825Y-66102697D01*
X137655825Y-66102697D02*
X137931673Y-66096969D01*
X137931673Y-66096969D02*
X138197807Y-66102718D01*
X138197807Y-66102718D02*
X138453448Y-66119867D01*
X138453448Y-66119867D02*
X138697818Y-66148337D01*
X138697818Y-66148337D02*
X138930141Y-66188049D01*
X138930141Y-66188049D02*
X139149638Y-66238925D01*
D10*
X76191764Y-107462775D02*
X76191764Y-105962775D01*
X76834621Y-107462775D02*
X76834621Y-106677061D01*
X76763193Y-106534204D01*
X76620335Y-106462775D01*
X76406050Y-106462775D01*
X76263193Y-106534204D01*
X76191764Y-106605632D01*
X78120335Y-107391346D02*
X77977478Y-107462775D01*
X77691764Y-107462775D01*
X77548907Y-107391346D01*
X77477478Y-107248489D01*
X77477478Y-106677061D01*
X77548907Y-106534204D01*
X77691764Y-106462775D01*
X77977478Y-106462775D01*
X78120335Y-106534204D01*
X78191764Y-106677061D01*
X78191764Y-106819918D01*
X77477478Y-106962775D01*
X78834621Y-107462775D02*
X78834621Y-106462775D01*
X78834621Y-106748489D02*
X78906050Y-106605632D01*
X78977478Y-106534204D01*
X79120335Y-106462775D01*
X79263193Y-106462775D01*
X80334621Y-107391346D02*
X80191764Y-107462775D01*
X79906050Y-107462775D01*
X79763193Y-107391346D01*
X79691764Y-107248489D01*
X79691764Y-106677061D01*
X79763193Y-106534204D01*
X79906050Y-106462775D01*
X80191764Y-106462775D01*
X80334621Y-106534204D01*
X80406050Y-106677061D01*
X80406050Y-106819918D01*
X79691764Y-106962775D01*
X147947478Y-62739675D02*
X147233193Y-62739675D01*
X147161764Y-63453961D01*
X147233193Y-63382532D01*
X147376050Y-63311104D01*
X147733193Y-63311104D01*
X147876050Y-63382532D01*
X147947478Y-63453961D01*
X148018907Y-63596818D01*
X148018907Y-63953961D01*
X147947478Y-64096818D01*
X147876050Y-64168246D01*
X147733193Y-64239675D01*
X147376050Y-64239675D01*
X147233193Y-64168246D01*
X147161764Y-64096818D01*
X148447478Y-62739675D02*
X148947478Y-64239675D01*
X149447478Y-62739675D01*
X146554621Y-66718246D02*
X146697478Y-66789675D01*
X146983193Y-66789675D01*
X147126050Y-66718246D01*
X147197478Y-66575389D01*
X147197478Y-66503961D01*
X147126050Y-66361104D01*
X146983193Y-66289675D01*
X146768907Y-66289675D01*
X146626050Y-66218246D01*
X146554621Y-66075389D01*
X146554621Y-66003961D01*
X146626050Y-65861104D01*
X146768907Y-65789675D01*
X146983193Y-65789675D01*
X147126050Y-65861104D01*
X148483193Y-66789675D02*
X148483193Y-65289675D01*
X148483193Y-66718246D02*
X148340335Y-66789675D01*
X148054621Y-66789675D01*
X147911764Y-66718246D01*
X147840335Y-66646818D01*
X147768907Y-66503961D01*
X147768907Y-66075389D01*
X147840335Y-65932532D01*
X147911764Y-65861104D01*
X148054621Y-65789675D01*
X148340335Y-65789675D01*
X148483193Y-65861104D01*
X149840335Y-66789675D02*
X149840335Y-66003961D01*
X149768907Y-65861104D01*
X149626050Y-65789675D01*
X149340335Y-65789675D01*
X149197478Y-65861104D01*
X149840335Y-66718246D02*
X149697478Y-66789675D01*
X149340335Y-66789675D01*
X149197478Y-66718246D01*
X149126050Y-66575389D01*
X149126050Y-66432532D01*
X149197478Y-66289675D01*
X149340335Y-66218246D01*
X149697478Y-66218246D01*
X149840335Y-66146818D01*
X146876050Y-69268246D02*
X147018907Y-69339675D01*
X147304621Y-69339675D01*
X147447478Y-69268246D01*
X147518907Y-69125389D01*
X147518907Y-69053961D01*
X147447478Y-68911104D01*
X147304621Y-68839675D01*
X147090335Y-68839675D01*
X146947478Y-68768246D01*
X146876050Y-68625389D01*
X146876050Y-68553961D01*
X146947478Y-68411104D01*
X147090335Y-68339675D01*
X147304621Y-68339675D01*
X147447478Y-68411104D01*
X148804621Y-69268246D02*
X148661764Y-69339675D01*
X148376050Y-69339675D01*
X148233193Y-69268246D01*
X148161764Y-69196818D01*
X148090335Y-69053961D01*
X148090335Y-68625389D01*
X148161764Y-68482532D01*
X148233193Y-68411104D01*
X148376050Y-68339675D01*
X148661764Y-68339675D01*
X148804621Y-68411104D01*
X149661764Y-69339675D02*
X149518907Y-69268246D01*
X149447478Y-69125389D01*
X149447478Y-67839675D01*
X147733193Y-70389675D02*
X148733193Y-71889675D01*
X148733193Y-70389675D02*
X147733193Y-71889675D01*
X147197478Y-73439675D02*
X147197478Y-74653961D01*
X147126050Y-74796818D01*
X147054621Y-74868246D01*
X146911764Y-74939675D01*
X146697478Y-74939675D01*
X146554621Y-74868246D01*
X147197478Y-74368246D02*
X147054621Y-74439675D01*
X146768907Y-74439675D01*
X146626050Y-74368246D01*
X146554621Y-74296818D01*
X146483193Y-74153961D01*
X146483193Y-73725389D01*
X146554621Y-73582532D01*
X146626050Y-73511104D01*
X146768907Y-73439675D01*
X147054621Y-73439675D01*
X147197478Y-73511104D01*
X147911764Y-73439675D02*
X147911764Y-74439675D01*
X147911764Y-73582532D02*
X147983193Y-73511104D01*
X148126050Y-73439675D01*
X148340335Y-73439675D01*
X148483193Y-73511104D01*
X148554621Y-73653961D01*
X148554621Y-74439675D01*
X149911764Y-74439675D02*
X149911764Y-72939675D01*
X149911764Y-74368246D02*
X149768907Y-74439675D01*
X149483193Y-74439675D01*
X149340335Y-74368246D01*
X149268907Y-74296818D01*
X149197478Y-74153961D01*
X149197478Y-73725389D01*
X149268907Y-73582532D01*
X149340335Y-73511104D01*
X149483193Y-73439675D01*
X149768907Y-73439675D01*
X149911764Y-73511104D01*
D13*
%TO.C,SW17*%
X153152593Y-80058404D02*
X153152593Y-77758404D01*
X153152593Y-86358404D02*
X153152593Y-84158404D01*
X148552593Y-86358404D02*
X148552593Y-77758404D01*
D14*
%TO.C,J4*%
X105732593Y-109678404D02*
X105732593Y-110893404D01*
X105672593Y-105718404D02*
X105672593Y-103458404D01*
X105172593Y-105718404D02*
X105172593Y-103458404D01*
X102572593Y-107318404D02*
X101572593Y-107318404D01*
X102572593Y-105718404D02*
X102572593Y-107318404D01*
X101572593Y-105718404D02*
X102572593Y-105718404D01*
X101572593Y-107318404D02*
X101572593Y-105718404D01*
X105172593Y-107318404D02*
X106172593Y-107318404D01*
X105172593Y-105718404D02*
X105172593Y-107318404D01*
X106172593Y-105718404D02*
X105172593Y-105718404D01*
X106172593Y-107318404D02*
X106172593Y-105718404D01*
X100812593Y-109678404D02*
X101732593Y-109678404D01*
X106932593Y-109678404D02*
X106012593Y-109678404D01*
X103372593Y-107818404D02*
X103372593Y-103458404D01*
X104372593Y-107818404D02*
X103372593Y-107818404D01*
X104372593Y-103458404D02*
X104372593Y-107818404D01*
X101732593Y-109678404D02*
X102012593Y-109678404D01*
X101732593Y-111278404D02*
X101732593Y-109678404D01*
X100812593Y-111278404D02*
X101732593Y-111278404D01*
X100812593Y-103458404D02*
X100812593Y-111278404D01*
X106932593Y-103458404D02*
X100812593Y-103458404D01*
X106932593Y-111278404D02*
X106932593Y-103458404D01*
X106012593Y-111278404D02*
X106932593Y-111278404D01*
X106012593Y-109678404D02*
X106012593Y-111278404D01*
X105732593Y-109678404D02*
X106012593Y-109678404D01*
%TO.C,J3*%
X150552593Y-53988404D02*
X149402593Y-53988404D01*
X149402593Y-53988404D02*
X149402593Y-55038404D01*
X149402593Y-55038404D02*
X148412593Y-55038404D01*
X150552593Y-60208404D02*
X149402593Y-60208404D01*
X149402593Y-60208404D02*
X149402593Y-59158404D01*
X152522593Y-55158404D02*
X152522593Y-59038404D01*
D13*
%TO.C,SW16*%
X47997588Y-96026485D02*
X47997588Y-97026485D01*
X34997588Y-110026485D02*
X33997588Y-110026485D01*
X33997588Y-110026485D02*
X33997588Y-109026485D01*
X33997588Y-96026485D02*
X34997588Y-96026485D01*
X33997588Y-97026485D02*
X33997588Y-96026485D01*
X46997588Y-96026485D02*
X47997588Y-96026485D01*
X47997588Y-110026485D02*
X46997588Y-110026485D01*
X47997588Y-109026485D02*
X47997588Y-110026485D01*
%TO.C,SW10*%
X47997589Y-77026486D02*
X47997589Y-78026486D01*
X34997589Y-91026486D02*
X33997589Y-91026486D01*
X33997589Y-91026486D02*
X33997589Y-90026486D01*
X33997589Y-77026486D02*
X34997589Y-77026486D01*
X33997589Y-78026486D02*
X33997589Y-77026486D01*
X46997589Y-77026486D02*
X47997589Y-77026486D01*
X47997589Y-91026486D02*
X46997589Y-91026486D01*
X47997589Y-90026486D02*
X47997589Y-91026486D01*
%TO.C,SW9*%
X47997589Y-58026487D02*
X47997589Y-59026487D01*
X34997589Y-72026487D02*
X33997589Y-72026487D01*
X33997589Y-72026487D02*
X33997589Y-71026487D01*
X33997589Y-58026487D02*
X34997589Y-58026487D01*
X33997589Y-59026487D02*
X33997589Y-58026487D01*
X46997589Y-58026487D02*
X47997589Y-58026487D01*
X47997589Y-72026487D02*
X46997589Y-72026487D01*
X47997589Y-71026487D02*
X47997589Y-72026487D01*
%TO.C,SW35*%
X168174105Y-110608249D02*
X167832085Y-111547941D01*
X151169819Y-119317683D02*
X150230127Y-118975663D01*
X150230127Y-118975663D02*
X150572147Y-118035971D01*
X155018409Y-105819967D02*
X155958101Y-106161987D01*
X154676389Y-106759659D02*
X155018409Y-105819967D01*
X167234413Y-110266229D02*
X168174105Y-110608249D01*
X163385823Y-123763945D02*
X162446131Y-123421925D01*
X163727843Y-122824253D02*
X163385823Y-123763945D01*
%TO.C,SW34*%
X147026866Y-103678640D02*
X146853217Y-104663448D01*
X131793290Y-115208522D02*
X130808482Y-115034874D01*
X130808482Y-115034874D02*
X130982131Y-114050066D01*
X133239557Y-101247565D02*
X134224365Y-101421214D01*
X133065909Y-102232373D02*
X133239557Y-101247565D01*
X146042058Y-103504992D02*
X147026866Y-103678640D01*
X144595791Y-117465949D02*
X143610983Y-117292300D01*
X144769439Y-116481141D02*
X144595791Y-117465949D01*
%TO.C,SW25*%
X143997585Y-79026487D02*
X143997585Y-80026487D01*
X130997585Y-93026487D02*
X129997585Y-93026487D01*
X129997585Y-93026487D02*
X129997585Y-92026487D01*
X129997585Y-79026487D02*
X130997585Y-79026487D01*
X129997585Y-80026487D02*
X129997585Y-79026487D01*
X142997585Y-79026487D02*
X143997585Y-79026487D01*
X143997585Y-93026487D02*
X142997585Y-93026487D01*
X143997585Y-92026487D02*
X143997585Y-93026487D01*
%TO.C,SW24*%
X124997586Y-76526487D02*
X124997586Y-77526487D01*
X111997586Y-90526487D02*
X110997586Y-90526487D01*
X110997586Y-90526487D02*
X110997586Y-89526487D01*
X110997586Y-76526487D02*
X111997586Y-76526487D01*
X110997586Y-77526487D02*
X110997586Y-76526487D01*
X123997586Y-76526487D02*
X124997586Y-76526487D01*
X124997586Y-90526487D02*
X123997586Y-90526487D01*
X124997586Y-89526487D02*
X124997586Y-90526487D01*
%TO.C,SW23*%
X105997586Y-71526487D02*
X105997586Y-72526487D01*
X92997586Y-85526487D02*
X91997586Y-85526487D01*
X91997586Y-85526487D02*
X91997586Y-84526487D01*
X91997586Y-71526487D02*
X92997586Y-71526487D01*
X91997586Y-72526487D02*
X91997586Y-71526487D01*
X104997586Y-71526487D02*
X105997586Y-71526487D01*
X105997586Y-85526487D02*
X104997586Y-85526487D01*
X105997586Y-84526487D02*
X105997586Y-85526487D01*
%TO.C,SW22*%
X86997587Y-76526486D02*
X86997587Y-77526486D01*
X73997587Y-90526486D02*
X72997587Y-90526486D01*
X72997587Y-90526486D02*
X72997587Y-89526486D01*
X72997587Y-76526486D02*
X73997587Y-76526486D01*
X72997587Y-77526486D02*
X72997587Y-76526486D01*
X85997587Y-76526486D02*
X86997587Y-76526486D01*
X86997587Y-90526486D02*
X85997587Y-90526486D01*
X86997587Y-89526486D02*
X86997587Y-90526486D01*
%TO.C,SW21*%
X67997588Y-89026485D02*
X67997588Y-90026485D01*
X54997588Y-103026485D02*
X53997588Y-103026485D01*
X53997588Y-103026485D02*
X53997588Y-102026485D01*
X53997588Y-89026485D02*
X54997588Y-89026485D01*
X53997588Y-90026485D02*
X53997588Y-89026485D01*
X66997588Y-89026485D02*
X67997588Y-89026485D01*
X67997588Y-103026485D02*
X66997588Y-103026485D01*
X67997588Y-102026485D02*
X67997588Y-103026485D01*
%TO.C,SW15*%
X143997585Y-60026488D02*
X143997585Y-61026488D01*
X130997585Y-74026488D02*
X129997585Y-74026488D01*
X129997585Y-74026488D02*
X129997585Y-73026488D01*
X129997585Y-60026488D02*
X130997585Y-60026488D01*
X129997585Y-61026488D02*
X129997585Y-60026488D01*
X142997585Y-60026488D02*
X143997585Y-60026488D01*
X143997585Y-74026488D02*
X142997585Y-74026488D01*
X143997585Y-73026488D02*
X143997585Y-74026488D01*
%TO.C,SW14*%
X124997586Y-57526487D02*
X124997586Y-58526487D01*
X111997586Y-71526487D02*
X110997586Y-71526487D01*
X110997586Y-71526487D02*
X110997586Y-70526487D01*
X110997586Y-57526487D02*
X111997586Y-57526487D01*
X110997586Y-58526487D02*
X110997586Y-57526487D01*
X123997586Y-57526487D02*
X124997586Y-57526487D01*
X124997586Y-71526487D02*
X123997586Y-71526487D01*
X124997586Y-70526487D02*
X124997586Y-71526487D01*
%TO.C,SW13*%
X105997587Y-52526487D02*
X105997587Y-53526487D01*
X92997587Y-66526487D02*
X91997587Y-66526487D01*
X91997587Y-66526487D02*
X91997587Y-65526487D01*
X91997587Y-52526487D02*
X92997587Y-52526487D01*
X91997587Y-53526487D02*
X91997587Y-52526487D01*
X104997587Y-52526487D02*
X105997587Y-52526487D01*
X105997587Y-66526487D02*
X104997587Y-66526487D01*
X105997587Y-65526487D02*
X105997587Y-66526487D01*
%TO.C,SW12*%
X86997588Y-57526487D02*
X86997588Y-58526487D01*
X73997588Y-71526487D02*
X72997588Y-71526487D01*
X72997588Y-71526487D02*
X72997588Y-70526487D01*
X72997588Y-57526487D02*
X73997588Y-57526487D01*
X72997588Y-58526487D02*
X72997588Y-57526487D01*
X85997588Y-57526487D02*
X86997588Y-57526487D01*
X86997588Y-71526487D02*
X85997588Y-71526487D01*
X86997588Y-70526487D02*
X86997588Y-71526487D01*
%TO.C,SW11*%
X67997589Y-70026486D02*
X67997589Y-71026486D01*
X54997589Y-84026486D02*
X53997589Y-84026486D01*
X53997589Y-84026486D02*
X53997589Y-83026486D01*
X53997589Y-70026486D02*
X54997589Y-70026486D01*
X53997589Y-71026486D02*
X53997589Y-70026486D01*
X66997589Y-70026486D02*
X67997589Y-70026486D01*
X67997589Y-84026486D02*
X66997589Y-84026486D01*
X67997589Y-83026486D02*
X67997589Y-84026486D01*
%TO.C,SW6*%
X124997586Y-100526487D02*
X124997586Y-101526487D01*
X111997586Y-114526487D02*
X110997586Y-114526487D01*
X110997586Y-114526487D02*
X110997586Y-113526487D01*
X110997586Y-100526487D02*
X111997586Y-100526487D01*
X110997586Y-101526487D02*
X110997586Y-100526487D01*
X123997586Y-100526487D02*
X124997586Y-100526487D01*
X124997586Y-114526487D02*
X123997586Y-114526487D01*
X124997586Y-113526487D02*
X124997586Y-114526487D01*
%TO.C,SW5*%
X143997585Y-41026489D02*
X143997585Y-42026489D01*
X130997585Y-55026489D02*
X129997585Y-55026489D01*
X129997585Y-55026489D02*
X129997585Y-54026489D01*
X129997585Y-41026489D02*
X130997585Y-41026489D01*
X129997585Y-42026489D02*
X129997585Y-41026489D01*
X142997585Y-41026489D02*
X143997585Y-41026489D01*
X143997585Y-55026489D02*
X142997585Y-55026489D01*
X143997585Y-54026489D02*
X143997585Y-55026489D01*
%TO.C,SW4*%
X124997586Y-38526488D02*
X124997586Y-39526488D01*
X111997586Y-52526488D02*
X110997586Y-52526488D01*
X110997586Y-52526488D02*
X110997586Y-51526488D01*
X110997586Y-38526488D02*
X111997586Y-38526488D01*
X110997586Y-39526488D02*
X110997586Y-38526488D01*
X123997586Y-38526488D02*
X124997586Y-38526488D01*
X124997586Y-52526488D02*
X123997586Y-52526488D01*
X124997586Y-51526488D02*
X124997586Y-52526488D01*
%TO.C,SW3*%
X105997587Y-33526488D02*
X105997587Y-34526488D01*
X92997587Y-47526488D02*
X91997587Y-47526488D01*
X91997587Y-47526488D02*
X91997587Y-46526488D01*
X91997587Y-33526488D02*
X92997587Y-33526488D01*
X91997587Y-34526488D02*
X91997587Y-33526488D01*
X104997587Y-33526488D02*
X105997587Y-33526488D01*
X105997587Y-47526488D02*
X104997587Y-47526488D01*
X105997587Y-46526488D02*
X105997587Y-47526488D01*
%TO.C,SW2*%
X86997588Y-38526488D02*
X86997588Y-39526488D01*
X73997588Y-52526488D02*
X72997588Y-52526488D01*
X72997588Y-52526488D02*
X72997588Y-51526488D01*
X72997588Y-38526488D02*
X73997588Y-38526488D01*
X72997588Y-39526488D02*
X72997588Y-38526488D01*
X85997588Y-38526488D02*
X86997588Y-38526488D01*
X86997588Y-52526488D02*
X85997588Y-52526488D01*
X86997588Y-51526488D02*
X86997588Y-52526488D01*
%TO.C,SW1*%
X67997589Y-51026487D02*
X67997589Y-52026487D01*
X54997589Y-65026487D02*
X53997589Y-65026487D01*
X53997589Y-65026487D02*
X53997589Y-64026487D01*
X53997589Y-51026487D02*
X54997589Y-51026487D01*
X53997589Y-52026487D02*
X53997589Y-51026487D01*
X66997589Y-51026487D02*
X67997589Y-51026487D01*
X67997589Y-65026487D02*
X66997589Y-65026487D01*
X67997589Y-64026487D02*
X67997589Y-65026487D01*
D14*
%TO.C,SW42*%
X90011926Y-107029268D02*
X89011926Y-107029268D01*
X89511926Y-107529268D02*
X89511926Y-106529268D01*
X83411926Y-103529268D02*
X83411926Y-101129268D01*
X83411926Y-108329268D02*
X83411926Y-105729268D01*
X83411926Y-112929268D02*
X83411926Y-110529268D01*
X96711926Y-111129268D02*
X97011926Y-110829268D01*
X97311926Y-111129268D02*
X96711926Y-111129268D01*
X97011926Y-110829268D02*
X97311926Y-111129268D01*
X95611926Y-112929268D02*
X95611926Y-101129268D01*
X91511926Y-112929268D02*
X95611926Y-112929268D01*
X91511926Y-101129268D02*
X95611926Y-101129268D01*
X83411926Y-101129268D02*
X87511926Y-101129268D01*
X87511926Y-112929268D02*
X83411926Y-112929268D01*
X92511926Y-107029268D02*
G75*
G03*
X92511926Y-107029268I-3000000J0D01*
G01*
%TO.C,JP2*%
X53145893Y-107623904D02*
X53145893Y-106223904D01*
X53845893Y-105523904D02*
X54445893Y-105523904D01*
X55145893Y-106223904D02*
X55145893Y-107623904D01*
X54445893Y-108323904D02*
X53845893Y-108323904D01*
X53845893Y-108323904D02*
G75*
G02*
X53145893Y-107623904I0J700000D01*
G01*
X55145893Y-107623904D02*
G75*
G02*
X54445893Y-108323904I-700000J0D01*
G01*
X54445893Y-105523904D02*
G75*
G02*
X55145893Y-106223904I0J-700000D01*
G01*
X53145893Y-106223904D02*
G75*
G02*
X53845893Y-105523904I700000J0D01*
G01*
%TO.C,D85*%
X47442393Y-112673704D02*
X43542393Y-112673704D01*
X47442393Y-110673704D02*
X43542393Y-110673704D01*
X47442393Y-112673704D02*
X47442393Y-110673704D01*
%TO.C,D84*%
X47442393Y-93572904D02*
X47442393Y-91572904D01*
X47442393Y-91572904D02*
X43542393Y-91572904D01*
X47442393Y-93572904D02*
X43542393Y-93572904D01*
%TO.C,D80*%
X47480493Y-74700704D02*
X43580493Y-74700704D01*
X47480493Y-72700704D02*
X43580493Y-72700704D01*
X47480493Y-74700704D02*
X47480493Y-72700704D01*
D15*
%TO.C,D78*%
G36*
X45197589Y-58946488D02*
G01*
X44297589Y-58046488D01*
X45197589Y-58046488D01*
X45197589Y-58946488D01*
G37*
X45197589Y-58946488D02*
X44297589Y-58046488D01*
X45197589Y-58046488D01*
X45197589Y-58946488D01*
%TO.C,D76*%
G36*
X45197589Y-77946487D02*
G01*
X44297589Y-77046487D01*
X45197589Y-77046487D01*
X45197589Y-77946487D01*
G37*
X45197589Y-77946487D02*
X44297589Y-77046487D01*
X45197589Y-77046487D01*
X45197589Y-77946487D01*
%TO.C,D74*%
G36*
X45197588Y-96946486D02*
G01*
X44297588Y-96046486D01*
X45197588Y-96046486D01*
X45197588Y-96946486D01*
G37*
X45197588Y-96946486D02*
X44297588Y-96046486D01*
X45197588Y-96046486D01*
X45197588Y-96946486D01*
%TO.C,D73*%
G36*
X165228307Y-110515110D02*
G01*
X164690402Y-109361569D01*
X165536125Y-109669387D01*
X165228307Y-110515110D01*
G37*
X165228307Y-110515110D02*
X164690402Y-109361569D01*
X165536125Y-109669387D01*
X165228307Y-110515110D01*
%TO.C,D72*%
G36*
X103197586Y-72446488D02*
G01*
X102297586Y-71546488D01*
X103197586Y-71546488D01*
X103197586Y-72446488D01*
G37*
X103197586Y-72446488D02*
X102297586Y-71546488D01*
X103197586Y-71546488D01*
X103197586Y-72446488D01*
%TO.C,D71*%
G36*
X144109647Y-104098449D02*
G01*
X143379604Y-103055839D01*
X144265931Y-103212122D01*
X144109647Y-104098449D01*
G37*
X144109647Y-104098449D02*
X143379604Y-103055839D01*
X144265931Y-103212122D01*
X144109647Y-104098449D01*
%TO.C,D70*%
G36*
X103197587Y-53446488D02*
G01*
X102297587Y-52546488D01*
X103197587Y-52546488D01*
X103197587Y-53446488D01*
G37*
X103197587Y-53446488D02*
X102297587Y-52546488D01*
X103197587Y-52546488D01*
X103197587Y-53446488D01*
%TO.C,D69*%
G36*
X103197587Y-34446489D02*
G01*
X102297587Y-33546489D01*
X103197587Y-33546489D01*
X103197587Y-34446489D01*
G37*
X103197587Y-34446489D02*
X102297587Y-33546489D01*
X103197587Y-33546489D01*
X103197587Y-34446489D01*
%TO.C,D68*%
G36*
X122197586Y-101446488D02*
G01*
X121297586Y-100546488D01*
X122197586Y-100546488D01*
X122197586Y-101446488D01*
G37*
X122197586Y-101446488D02*
X121297586Y-100546488D01*
X122197586Y-100546488D01*
X122197586Y-101446488D01*
%TO.C,D67*%
G36*
X84197588Y-39446489D02*
G01*
X83297588Y-38546489D01*
X84197588Y-38546489D01*
X84197588Y-39446489D01*
G37*
X84197588Y-39446489D02*
X83297588Y-38546489D01*
X84197588Y-38546489D01*
X84197588Y-39446489D01*
%TO.C,D66*%
G36*
X141197585Y-79946488D02*
G01*
X140297585Y-79046488D01*
X141197585Y-79046488D01*
X141197585Y-79946488D01*
G37*
X141197585Y-79946488D02*
X140297585Y-79046488D01*
X141197585Y-79046488D01*
X141197585Y-79946488D01*
%TO.C,D65*%
G36*
X84197588Y-58446488D02*
G01*
X83297588Y-57546488D01*
X84197588Y-57546488D01*
X84197588Y-58446488D01*
G37*
X84197588Y-58446488D02*
X83297588Y-57546488D01*
X84197588Y-57546488D01*
X84197588Y-58446488D01*
%TO.C,D64*%
G36*
X141197585Y-60946489D02*
G01*
X140297585Y-60046489D01*
X141197585Y-60046489D01*
X141197585Y-60946489D01*
G37*
X141197585Y-60946489D02*
X140297585Y-60046489D01*
X141197585Y-60046489D01*
X141197585Y-60946489D01*
%TO.C,D63*%
G36*
X84197587Y-77446487D02*
G01*
X83297587Y-76546487D01*
X84197587Y-76546487D01*
X84197587Y-77446487D01*
G37*
X84197587Y-77446487D02*
X83297587Y-76546487D01*
X84197587Y-76546487D01*
X84197587Y-77446487D01*
%TO.C,D62*%
G36*
X141197585Y-41946490D02*
G01*
X140297585Y-41046490D01*
X141197585Y-41046490D01*
X141197585Y-41946490D01*
G37*
X141197585Y-41946490D02*
X140297585Y-41046490D01*
X141197585Y-41046490D01*
X141197585Y-41946490D01*
%TO.C,D61*%
G36*
X122197586Y-39446489D02*
G01*
X121297586Y-38546489D01*
X122197586Y-38546489D01*
X122197586Y-39446489D01*
G37*
X122197586Y-39446489D02*
X121297586Y-38546489D01*
X122197586Y-38546489D01*
X122197586Y-39446489D01*
%TO.C,D58*%
G36*
X65197588Y-89946486D02*
G01*
X64297588Y-89046486D01*
X65197588Y-89046486D01*
X65197588Y-89946486D01*
G37*
X65197588Y-89946486D02*
X64297588Y-89046486D01*
X65197588Y-89046486D01*
X65197588Y-89946486D01*
%TO.C,D44*%
G36*
X122197586Y-58446488D02*
G01*
X121297586Y-57546488D01*
X122197586Y-57546488D01*
X122197586Y-58446488D01*
G37*
X122197586Y-58446488D02*
X121297586Y-57546488D01*
X122197586Y-57546488D01*
X122197586Y-58446488D01*
%TO.C,D40*%
G36*
X65197589Y-70946487D02*
G01*
X64297589Y-70046487D01*
X65197589Y-70046487D01*
X65197589Y-70946487D01*
G37*
X65197589Y-70946487D02*
X64297589Y-70046487D01*
X65197589Y-70046487D01*
X65197589Y-70946487D01*
%TO.C,D39*%
G36*
X122197586Y-77446488D02*
G01*
X121297586Y-76546488D01*
X122197586Y-76546488D01*
X122197586Y-77446488D01*
G37*
X122197586Y-77446488D02*
X121297586Y-76546488D01*
X122197586Y-76546488D01*
X122197586Y-77446488D01*
%TO.C,D38*%
G36*
X65197589Y-51946488D02*
G01*
X64297589Y-51046488D01*
X65197589Y-51046488D01*
X65197589Y-51946488D01*
G37*
X65197589Y-51946488D02*
X64297589Y-51046488D01*
X65197589Y-51046488D01*
X65197589Y-51946488D01*
D14*
%TO.C,D37*%
X80322593Y-96968404D02*
X78322593Y-96968404D01*
X78322593Y-96968404D02*
X78322593Y-100868404D01*
X80322593Y-96968404D02*
X80322593Y-100868404D01*
%TO.C,D36*%
X154926105Y-120480066D02*
X154242064Y-122359451D01*
X154242064Y-122359451D02*
X157906866Y-123693330D01*
X154926105Y-120480066D02*
X158590906Y-121813945D01*
%TO.C,D33*%
X135157093Y-93693804D02*
X135157093Y-95693804D01*
X135157093Y-95693804D02*
X139057093Y-95693804D01*
X135157093Y-93693804D02*
X139057093Y-93693804D01*
%TO.C,D32*%
X134877693Y-74694604D02*
X134877693Y-76694604D01*
X134877693Y-76694604D02*
X138777693Y-76694604D01*
X134877693Y-74694604D02*
X138777693Y-74694604D01*
%TO.C,D31*%
X134852293Y-55733504D02*
X134852293Y-57733504D01*
X134852293Y-57733504D02*
X138752293Y-57733504D01*
X134852293Y-55733504D02*
X138752293Y-55733504D01*
%TO.C,D30*%
X144908877Y-116446373D02*
X146878492Y-116793670D01*
X146878492Y-116793670D02*
X147555720Y-112952919D01*
X144908877Y-116446373D02*
X145586105Y-112605623D01*
%TO.C,D29*%
X125739093Y-89996904D02*
X127739093Y-89996904D01*
X127739093Y-89996904D02*
X127739093Y-86096904D01*
X125739093Y-89996904D02*
X125739093Y-86096904D01*
%TO.C,D28*%
X125802593Y-71048504D02*
X127802593Y-71048504D01*
X127802593Y-71048504D02*
X127802593Y-67148504D01*
X125802593Y-71048504D02*
X125802593Y-67148504D01*
%TO.C,D27*%
X125726393Y-52760504D02*
X127726393Y-52760504D01*
X127726393Y-52760504D02*
X127726393Y-48860504D01*
X125726393Y-52760504D02*
X125726393Y-48860504D01*
%TO.C,D26*%
X125726393Y-113961804D02*
X127726393Y-113961804D01*
X127726393Y-113961804D02*
X127726393Y-110061804D01*
X125726393Y-113961804D02*
X125726393Y-110061804D01*
%TO.C,D20*%
X106752593Y-84967704D02*
X108752593Y-84967704D01*
X108752593Y-84967704D02*
X108752593Y-81067704D01*
X106752593Y-84967704D02*
X106752593Y-81067704D01*
%TO.C,D19*%
X97031693Y-67201604D02*
X97031693Y-69201604D01*
X97031693Y-69201604D02*
X100931693Y-69201604D01*
X97031693Y-67201604D02*
X100931693Y-67201604D01*
%TO.C,D18*%
X96726893Y-48100804D02*
X96726893Y-50100804D01*
X96726893Y-50100804D02*
X100626893Y-50100804D01*
X96726893Y-48100804D02*
X100626893Y-48100804D01*
%TO.C,D17*%
X87613693Y-89971504D02*
X89613693Y-89971504D01*
X89613693Y-89971504D02*
X89613693Y-86071504D01*
X87613693Y-89971504D02*
X87613693Y-86071504D01*
%TO.C,D16*%
X87677193Y-70959604D02*
X89677193Y-70959604D01*
X89677193Y-70959604D02*
X89677193Y-67059604D01*
X87677193Y-70959604D02*
X87677193Y-67059604D01*
%TO.C,D10*%
X86418693Y-55168104D02*
X86418693Y-53168104D01*
X86418693Y-53168104D02*
X82518693Y-53168104D01*
X86418693Y-55168104D02*
X82518693Y-55168104D01*
%TO.C,D9*%
X68779593Y-102519104D02*
X70779593Y-102519104D01*
X70779593Y-102519104D02*
X70779593Y-98619104D01*
X68779593Y-102519104D02*
X68779593Y-98619104D01*
%TO.C,D8*%
X68677993Y-83469104D02*
X70677993Y-83469104D01*
X70677993Y-83469104D02*
X70677993Y-79569104D01*
X68677993Y-83469104D02*
X68677993Y-79569104D01*
%TO.C,D7*%
X68665293Y-64457204D02*
X70665293Y-64457204D01*
X70665293Y-64457204D02*
X70665293Y-60557204D01*
X68665293Y-64457204D02*
X68665293Y-60557204D01*
%TO.C,J1*%
X150303593Y-62421404D02*
X152803593Y-62421404D01*
X152803593Y-62421404D02*
X152803593Y-62621404D01*
X150303593Y-74521404D02*
X150303593Y-62421404D01*
X152803593Y-62621404D02*
X152803593Y-74521404D01*
X152803593Y-74521404D02*
X150303593Y-74521404D01*
D13*
%TO.C,U3*%
X152843593Y-38439404D02*
X147243593Y-38439404D01*
X147243593Y-40439404D02*
X147243593Y-38439404D01*
X152843593Y-40439404D02*
X152843593Y-38439404D01*
X146993593Y-40439404D02*
X146993593Y-52539404D01*
X153093593Y-40439404D02*
X153093593Y-52539404D01*
X153093593Y-52539404D02*
X146993593Y-52539404D01*
X153093593Y-40439404D02*
X146993593Y-40439404D01*
D16*
%TO.C,U1*%
X92639593Y-33708404D02*
X90099593Y-33708404D01*
X90099593Y-31168404D02*
X90099593Y-33708404D01*
X107879593Y-31168404D02*
X90099593Y-31168404D01*
X107879593Y-33708404D02*
X107879593Y-31168404D01*
D13*
G36*
X103921161Y-40187764D02*
G01*
X103921161Y-40387764D01*
X103821161Y-40387764D01*
X103821161Y-40187764D01*
X103921161Y-40187764D01*
G37*
X103921161Y-40187764D02*
X103921161Y-40387764D01*
X103821161Y-40387764D01*
X103821161Y-40187764D01*
X103921161Y-40187764D01*
G36*
X103521161Y-39587764D02*
G01*
X103521161Y-40387764D01*
X103421161Y-40387764D01*
X103421161Y-39587764D01*
X103521161Y-39587764D01*
G37*
X103521161Y-39587764D02*
X103521161Y-40387764D01*
X103421161Y-40387764D01*
X103421161Y-39587764D01*
X103521161Y-39587764D01*
G36*
X103921161Y-39587764D02*
G01*
X103921161Y-39687764D01*
X103421161Y-39687764D01*
X103421161Y-39587764D01*
X103921161Y-39587764D01*
G37*
X103921161Y-39587764D02*
X103921161Y-39687764D01*
X103421161Y-39687764D01*
X103421161Y-39587764D01*
X103921161Y-39587764D01*
G36*
X103721161Y-39987764D02*
G01*
X103721161Y-40087764D01*
X103621161Y-40087764D01*
X103621161Y-39987764D01*
X103721161Y-39987764D01*
G37*
X103721161Y-39987764D02*
X103721161Y-40087764D01*
X103621161Y-40087764D01*
X103621161Y-39987764D01*
X103721161Y-39987764D01*
G36*
X103921161Y-39587764D02*
G01*
X103921161Y-39887764D01*
X103821161Y-39887764D01*
X103821161Y-39587764D01*
X103921161Y-39587764D01*
G37*
X103921161Y-39587764D02*
X103921161Y-39887764D01*
X103821161Y-39887764D01*
X103821161Y-39587764D01*
X103921161Y-39587764D01*
D16*
X92639593Y-36248404D02*
X90099593Y-36248404D01*
X92639593Y-33708404D02*
X92639593Y-36248404D01*
X107879593Y-64188404D02*
X107879593Y-33708404D01*
X90099593Y-64188404D02*
X107879593Y-64188404D01*
X90099593Y-33708404D02*
X90099593Y-64188404D01*
D13*
%TO.C,SW41*%
X152643593Y-90749404D02*
X152643593Y-95949404D01*
X152643593Y-95949404D02*
X147443593Y-95949404D01*
X147443593Y-95949404D02*
X147443593Y-90749404D01*
X147443593Y-90749404D02*
X152643593Y-90749404D01*
X151043593Y-93349404D02*
G75*
G03*
X151043593Y-93349404I-1000000J0D01*
G01*
%TO.C,SW17*%
X147657354Y-84467927D02*
X147704973Y-84325070D01*
X147704973Y-84086975D01*
X147657354Y-83991737D01*
X147609735Y-83944118D01*
X147514497Y-83896499D01*
X147419259Y-83896499D01*
X147324021Y-83944118D01*
X147276402Y-83991737D01*
X147228783Y-84086975D01*
X147181164Y-84277451D01*
X147133545Y-84372689D01*
X147085926Y-84420308D01*
X146990688Y-84467927D01*
X146895450Y-84467927D01*
X146800212Y-84420308D01*
X146752593Y-84372689D01*
X146704973Y-84277451D01*
X146704973Y-84039356D01*
X146752593Y-83896499D01*
X146704973Y-83563165D02*
X147704973Y-83325070D01*
X146990688Y-83134594D01*
X147704973Y-82944118D01*
X146704973Y-82706023D01*
X147704973Y-81801261D02*
X147704973Y-82372689D01*
X147704973Y-82086975D02*
X146704973Y-82086975D01*
X146847831Y-82182213D01*
X146943069Y-82277451D01*
X146990688Y-82372689D01*
X146704973Y-81467927D02*
X146704973Y-80801261D01*
X147704973Y-81229832D01*
%TO.C,J4*%
X103539259Y-111820784D02*
X103539259Y-112535070D01*
X103491640Y-112677927D01*
X103396402Y-112773165D01*
X103253545Y-112820784D01*
X103158307Y-112820784D01*
X104444021Y-112154118D02*
X104444021Y-112820784D01*
X104205926Y-111773165D02*
X103967831Y-112487451D01*
X104586878Y-112487451D01*
%TO.C,J3*%
X153264973Y-57431737D02*
X153979259Y-57431737D01*
X154122116Y-57479356D01*
X154217354Y-57574594D01*
X154264973Y-57717451D01*
X154264973Y-57812689D01*
X153264973Y-57050784D02*
X153264973Y-56431737D01*
X153645926Y-56765070D01*
X153645926Y-56622213D01*
X153693545Y-56526975D01*
X153741164Y-56479356D01*
X153836402Y-56431737D01*
X154074497Y-56431737D01*
X154169735Y-56479356D01*
X154217354Y-56526975D01*
X154264973Y-56622213D01*
X154264973Y-56907927D01*
X154217354Y-57003165D01*
X154169735Y-57050784D01*
%TO.C,SW16*%
X39188064Y-106431246D02*
X39330921Y-106478865D01*
X39569016Y-106478865D01*
X39664254Y-106431246D01*
X39711873Y-106383627D01*
X39759492Y-106288389D01*
X39759492Y-106193151D01*
X39711873Y-106097913D01*
X39664254Y-106050294D01*
X39569016Y-106002675D01*
X39378540Y-105955056D01*
X39283302Y-105907437D01*
X39235683Y-105859818D01*
X39188064Y-105764580D01*
X39188064Y-105669342D01*
X39235683Y-105574104D01*
X39283302Y-105526485D01*
X39378540Y-105478865D01*
X39616635Y-105478865D01*
X39759492Y-105526485D01*
X40092826Y-105478865D02*
X40330921Y-106478865D01*
X40521397Y-105764580D01*
X40711873Y-106478865D01*
X40949968Y-105478865D01*
X41854730Y-106478865D02*
X41283302Y-106478865D01*
X41569016Y-106478865D02*
X41569016Y-105478865D01*
X41473778Y-105621723D01*
X41378540Y-105716961D01*
X41283302Y-105764580D01*
X42711873Y-105478865D02*
X42521397Y-105478865D01*
X42426159Y-105526485D01*
X42378540Y-105574104D01*
X42283302Y-105716961D01*
X42235683Y-105907437D01*
X42235683Y-106288389D01*
X42283302Y-106383627D01*
X42330921Y-106431246D01*
X42426159Y-106478865D01*
X42616635Y-106478865D01*
X42711873Y-106431246D01*
X42759492Y-106383627D01*
X42807111Y-106288389D01*
X42807111Y-106050294D01*
X42759492Y-105955056D01*
X42711873Y-105907437D01*
X42616635Y-105859818D01*
X42426159Y-105859818D01*
X42330921Y-105907437D01*
X42283302Y-105955056D01*
X42235683Y-106050294D01*
%TO.C,SW10*%
X39188065Y-87431247D02*
X39330922Y-87478866D01*
X39569017Y-87478866D01*
X39664255Y-87431247D01*
X39711874Y-87383628D01*
X39759493Y-87288390D01*
X39759493Y-87193152D01*
X39711874Y-87097914D01*
X39664255Y-87050295D01*
X39569017Y-87002676D01*
X39378541Y-86955057D01*
X39283303Y-86907438D01*
X39235684Y-86859819D01*
X39188065Y-86764581D01*
X39188065Y-86669343D01*
X39235684Y-86574105D01*
X39283303Y-86526486D01*
X39378541Y-86478866D01*
X39616636Y-86478866D01*
X39759493Y-86526486D01*
X40092827Y-86478866D02*
X40330922Y-87478866D01*
X40521398Y-86764581D01*
X40711874Y-87478866D01*
X40949969Y-86478866D01*
X41854731Y-87478866D02*
X41283303Y-87478866D01*
X41569017Y-87478866D02*
X41569017Y-86478866D01*
X41473779Y-86621724D01*
X41378541Y-86716962D01*
X41283303Y-86764581D01*
X42473779Y-86478866D02*
X42569017Y-86478866D01*
X42664255Y-86526486D01*
X42711874Y-86574105D01*
X42759493Y-86669343D01*
X42807112Y-86859819D01*
X42807112Y-87097914D01*
X42759493Y-87288390D01*
X42711874Y-87383628D01*
X42664255Y-87431247D01*
X42569017Y-87478866D01*
X42473779Y-87478866D01*
X42378541Y-87431247D01*
X42330922Y-87383628D01*
X42283303Y-87288390D01*
X42235684Y-87097914D01*
X42235684Y-86859819D01*
X42283303Y-86669343D01*
X42330922Y-86574105D01*
X42378541Y-86526486D01*
X42473779Y-86478866D01*
%TO.C,SW9*%
X39664255Y-68431248D02*
X39807112Y-68478867D01*
X40045208Y-68478867D01*
X40140446Y-68431248D01*
X40188065Y-68383629D01*
X40235684Y-68288391D01*
X40235684Y-68193153D01*
X40188065Y-68097915D01*
X40140446Y-68050296D01*
X40045208Y-68002677D01*
X39854731Y-67955058D01*
X39759493Y-67907439D01*
X39711874Y-67859820D01*
X39664255Y-67764582D01*
X39664255Y-67669344D01*
X39711874Y-67574106D01*
X39759493Y-67526487D01*
X39854731Y-67478867D01*
X40092827Y-67478867D01*
X40235684Y-67526487D01*
X40569017Y-67478867D02*
X40807112Y-68478867D01*
X40997589Y-67764582D01*
X41188065Y-68478867D01*
X41426160Y-67478867D01*
X41854731Y-68478867D02*
X42045208Y-68478867D01*
X42140446Y-68431248D01*
X42188065Y-68383629D01*
X42283303Y-68240772D01*
X42330922Y-68050296D01*
X42330922Y-67669344D01*
X42283303Y-67574106D01*
X42235684Y-67526487D01*
X42140446Y-67478867D01*
X41949969Y-67478867D01*
X41854731Y-67526487D01*
X41807112Y-67574106D01*
X41759493Y-67669344D01*
X41759493Y-67907439D01*
X41807112Y-68002677D01*
X41854731Y-68050296D01*
X41949969Y-68097915D01*
X42140446Y-68097915D01*
X42235684Y-68050296D01*
X42283303Y-68002677D01*
X42330922Y-67907439D01*
%TO.C,SW35*%
X156337223Y-117372492D02*
X156455178Y-117466099D01*
X156678914Y-117547532D01*
X156784695Y-117535358D01*
X156845729Y-117506898D01*
X156923050Y-117433690D01*
X156955623Y-117344195D01*
X156943449Y-117238414D01*
X156914989Y-117177380D01*
X156841781Y-117100060D01*
X156679078Y-116990166D01*
X156605871Y-116912845D01*
X156577410Y-116851811D01*
X156565236Y-116746030D01*
X156597809Y-116656535D01*
X156675130Y-116583328D01*
X156736164Y-116554867D01*
X156841945Y-116542693D01*
X157065681Y-116624126D01*
X157183637Y-116717734D01*
X157513154Y-116786993D02*
X157394870Y-117808119D01*
X157818160Y-117202057D01*
X157752848Y-117938413D01*
X158318605Y-117080153D01*
X158587089Y-117177873D02*
X159168803Y-117389600D01*
X158725279Y-117633571D01*
X158859521Y-117682431D01*
X158932728Y-117759752D01*
X158961189Y-117820786D01*
X158973363Y-117926567D01*
X158891930Y-118150304D01*
X158814609Y-118223511D01*
X158753575Y-118251972D01*
X158647794Y-118264146D01*
X158379310Y-118166426D01*
X158306102Y-118089105D01*
X158277642Y-118028071D01*
X160019001Y-117699047D02*
X159571528Y-117536180D01*
X159363914Y-117967366D01*
X159424948Y-117938906D01*
X159530730Y-117926732D01*
X159754466Y-118008165D01*
X159827674Y-118085486D01*
X159856134Y-118146520D01*
X159868308Y-118252301D01*
X159786875Y-118476037D01*
X159709554Y-118549245D01*
X159648520Y-118577706D01*
X159542739Y-118589879D01*
X159319003Y-118508446D01*
X159245795Y-118431125D01*
X159217334Y-118370092D01*
%TO.C,SW34*%
X136544408Y-112395572D02*
X136676826Y-112467274D01*
X136911304Y-112508619D01*
X137013364Y-112478261D01*
X137068529Y-112439635D01*
X137131962Y-112354112D01*
X137148500Y-112260321D01*
X137118143Y-112158261D01*
X137079516Y-112103096D01*
X136993994Y-112039663D01*
X136814680Y-111959691D01*
X136729158Y-111896258D01*
X136690531Y-111841093D01*
X136660174Y-111739033D01*
X136676712Y-111645242D01*
X136740145Y-111559720D01*
X136795310Y-111521093D01*
X136897370Y-111490735D01*
X137131848Y-111532080D01*
X137264266Y-111603783D01*
X137600804Y-111614770D02*
X137661634Y-112640922D01*
X137973251Y-111970564D01*
X138036799Y-112707074D01*
X138444925Y-111763611D01*
X138726299Y-111813225D02*
X139335941Y-111920721D01*
X138941521Y-112238003D01*
X139082207Y-112262810D01*
X139167730Y-112326244D01*
X139206356Y-112381408D01*
X139236714Y-112483469D01*
X139195369Y-112717947D01*
X139131936Y-112803469D01*
X139076771Y-112842096D01*
X138974711Y-112872453D01*
X138693337Y-112822839D01*
X138607815Y-112759406D01*
X138569188Y-112704241D01*
X140122180Y-112397832D02*
X140006414Y-113054370D01*
X139953853Y-111981322D02*
X139595341Y-112643412D01*
X140204984Y-112750908D01*
%TO.C,SW25*%
X135188061Y-89431248D02*
X135330918Y-89478867D01*
X135569013Y-89478867D01*
X135664251Y-89431248D01*
X135711870Y-89383629D01*
X135759489Y-89288391D01*
X135759489Y-89193153D01*
X135711870Y-89097915D01*
X135664251Y-89050296D01*
X135569013Y-89002677D01*
X135378537Y-88955058D01*
X135283299Y-88907439D01*
X135235680Y-88859820D01*
X135188061Y-88764582D01*
X135188061Y-88669344D01*
X135235680Y-88574106D01*
X135283299Y-88526487D01*
X135378537Y-88478867D01*
X135616632Y-88478867D01*
X135759489Y-88526487D01*
X136092823Y-88478867D02*
X136330918Y-89478867D01*
X136521394Y-88764582D01*
X136711870Y-89478867D01*
X136949965Y-88478867D01*
X137283299Y-88574106D02*
X137330918Y-88526487D01*
X137426156Y-88478867D01*
X137664251Y-88478867D01*
X137759489Y-88526487D01*
X137807108Y-88574106D01*
X137854727Y-88669344D01*
X137854727Y-88764582D01*
X137807108Y-88907439D01*
X137235680Y-89478867D01*
X137854727Y-89478867D01*
X138759489Y-88478867D02*
X138283299Y-88478867D01*
X138235680Y-88955058D01*
X138283299Y-88907439D01*
X138378537Y-88859820D01*
X138616632Y-88859820D01*
X138711870Y-88907439D01*
X138759489Y-88955058D01*
X138807108Y-89050296D01*
X138807108Y-89288391D01*
X138759489Y-89383629D01*
X138711870Y-89431248D01*
X138616632Y-89478867D01*
X138378537Y-89478867D01*
X138283299Y-89431248D01*
X138235680Y-89383629D01*
%TO.C,SW24*%
X116188062Y-86931248D02*
X116330919Y-86978867D01*
X116569014Y-86978867D01*
X116664252Y-86931248D01*
X116711871Y-86883629D01*
X116759490Y-86788391D01*
X116759490Y-86693153D01*
X116711871Y-86597915D01*
X116664252Y-86550296D01*
X116569014Y-86502677D01*
X116378538Y-86455058D01*
X116283300Y-86407439D01*
X116235681Y-86359820D01*
X116188062Y-86264582D01*
X116188062Y-86169344D01*
X116235681Y-86074106D01*
X116283300Y-86026487D01*
X116378538Y-85978867D01*
X116616633Y-85978867D01*
X116759490Y-86026487D01*
X117092824Y-85978867D02*
X117330919Y-86978867D01*
X117521395Y-86264582D01*
X117711871Y-86978867D01*
X117949966Y-85978867D01*
X118283300Y-86074106D02*
X118330919Y-86026487D01*
X118426157Y-85978867D01*
X118664252Y-85978867D01*
X118759490Y-86026487D01*
X118807109Y-86074106D01*
X118854728Y-86169344D01*
X118854728Y-86264582D01*
X118807109Y-86407439D01*
X118235681Y-86978867D01*
X118854728Y-86978867D01*
X119711871Y-86312201D02*
X119711871Y-86978867D01*
X119473776Y-85931248D02*
X119235681Y-86645534D01*
X119854728Y-86645534D01*
%TO.C,SW23*%
X97188062Y-81931248D02*
X97330919Y-81978867D01*
X97569014Y-81978867D01*
X97664252Y-81931248D01*
X97711871Y-81883629D01*
X97759490Y-81788391D01*
X97759490Y-81693153D01*
X97711871Y-81597915D01*
X97664252Y-81550296D01*
X97569014Y-81502677D01*
X97378538Y-81455058D01*
X97283300Y-81407439D01*
X97235681Y-81359820D01*
X97188062Y-81264582D01*
X97188062Y-81169344D01*
X97235681Y-81074106D01*
X97283300Y-81026487D01*
X97378538Y-80978867D01*
X97616633Y-80978867D01*
X97759490Y-81026487D01*
X98092824Y-80978867D02*
X98330919Y-81978867D01*
X98521395Y-81264582D01*
X98711871Y-81978867D01*
X98949966Y-80978867D01*
X99283300Y-81074106D02*
X99330919Y-81026487D01*
X99426157Y-80978867D01*
X99664252Y-80978867D01*
X99759490Y-81026487D01*
X99807109Y-81074106D01*
X99854728Y-81169344D01*
X99854728Y-81264582D01*
X99807109Y-81407439D01*
X99235681Y-81978867D01*
X99854728Y-81978867D01*
X100188062Y-80978867D02*
X100807109Y-80978867D01*
X100473776Y-81359820D01*
X100616633Y-81359820D01*
X100711871Y-81407439D01*
X100759490Y-81455058D01*
X100807109Y-81550296D01*
X100807109Y-81788391D01*
X100759490Y-81883629D01*
X100711871Y-81931248D01*
X100616633Y-81978867D01*
X100330919Y-81978867D01*
X100235681Y-81931248D01*
X100188062Y-81883629D01*
%TO.C,SW22*%
X78188063Y-86931247D02*
X78330920Y-86978866D01*
X78569015Y-86978866D01*
X78664253Y-86931247D01*
X78711872Y-86883628D01*
X78759491Y-86788390D01*
X78759491Y-86693152D01*
X78711872Y-86597914D01*
X78664253Y-86550295D01*
X78569015Y-86502676D01*
X78378539Y-86455057D01*
X78283301Y-86407438D01*
X78235682Y-86359819D01*
X78188063Y-86264581D01*
X78188063Y-86169343D01*
X78235682Y-86074105D01*
X78283301Y-86026486D01*
X78378539Y-85978866D01*
X78616634Y-85978866D01*
X78759491Y-86026486D01*
X79092825Y-85978866D02*
X79330920Y-86978866D01*
X79521396Y-86264581D01*
X79711872Y-86978866D01*
X79949967Y-85978866D01*
X80283301Y-86074105D02*
X80330920Y-86026486D01*
X80426158Y-85978866D01*
X80664253Y-85978866D01*
X80759491Y-86026486D01*
X80807110Y-86074105D01*
X80854729Y-86169343D01*
X80854729Y-86264581D01*
X80807110Y-86407438D01*
X80235682Y-86978866D01*
X80854729Y-86978866D01*
X81235682Y-86074105D02*
X81283301Y-86026486D01*
X81378539Y-85978866D01*
X81616634Y-85978866D01*
X81711872Y-86026486D01*
X81759491Y-86074105D01*
X81807110Y-86169343D01*
X81807110Y-86264581D01*
X81759491Y-86407438D01*
X81188063Y-86978866D01*
X81807110Y-86978866D01*
%TO.C,SW21*%
X59188064Y-99431246D02*
X59330921Y-99478865D01*
X59569016Y-99478865D01*
X59664254Y-99431246D01*
X59711873Y-99383627D01*
X59759492Y-99288389D01*
X59759492Y-99193151D01*
X59711873Y-99097913D01*
X59664254Y-99050294D01*
X59569016Y-99002675D01*
X59378540Y-98955056D01*
X59283302Y-98907437D01*
X59235683Y-98859818D01*
X59188064Y-98764580D01*
X59188064Y-98669342D01*
X59235683Y-98574104D01*
X59283302Y-98526485D01*
X59378540Y-98478865D01*
X59616635Y-98478865D01*
X59759492Y-98526485D01*
X60092826Y-98478865D02*
X60330921Y-99478865D01*
X60521397Y-98764580D01*
X60711873Y-99478865D01*
X60949968Y-98478865D01*
X61283302Y-98574104D02*
X61330921Y-98526485D01*
X61426159Y-98478865D01*
X61664254Y-98478865D01*
X61759492Y-98526485D01*
X61807111Y-98574104D01*
X61854730Y-98669342D01*
X61854730Y-98764580D01*
X61807111Y-98907437D01*
X61235683Y-99478865D01*
X61854730Y-99478865D01*
X62807111Y-99478865D02*
X62235683Y-99478865D01*
X62521397Y-99478865D02*
X62521397Y-98478865D01*
X62426159Y-98621723D01*
X62330921Y-98716961D01*
X62235683Y-98764580D01*
%TO.C,SW15*%
X135188061Y-70431249D02*
X135330918Y-70478868D01*
X135569013Y-70478868D01*
X135664251Y-70431249D01*
X135711870Y-70383630D01*
X135759489Y-70288392D01*
X135759489Y-70193154D01*
X135711870Y-70097916D01*
X135664251Y-70050297D01*
X135569013Y-70002678D01*
X135378537Y-69955059D01*
X135283299Y-69907440D01*
X135235680Y-69859821D01*
X135188061Y-69764583D01*
X135188061Y-69669345D01*
X135235680Y-69574107D01*
X135283299Y-69526488D01*
X135378537Y-69478868D01*
X135616632Y-69478868D01*
X135759489Y-69526488D01*
X136092823Y-69478868D02*
X136330918Y-70478868D01*
X136521394Y-69764583D01*
X136711870Y-70478868D01*
X136949965Y-69478868D01*
X137854727Y-70478868D02*
X137283299Y-70478868D01*
X137569013Y-70478868D02*
X137569013Y-69478868D01*
X137473775Y-69621726D01*
X137378537Y-69716964D01*
X137283299Y-69764583D01*
X138759489Y-69478868D02*
X138283299Y-69478868D01*
X138235680Y-69955059D01*
X138283299Y-69907440D01*
X138378537Y-69859821D01*
X138616632Y-69859821D01*
X138711870Y-69907440D01*
X138759489Y-69955059D01*
X138807108Y-70050297D01*
X138807108Y-70288392D01*
X138759489Y-70383630D01*
X138711870Y-70431249D01*
X138616632Y-70478868D01*
X138378537Y-70478868D01*
X138283299Y-70431249D01*
X138235680Y-70383630D01*
%TO.C,SW14*%
X116188062Y-67931248D02*
X116330919Y-67978867D01*
X116569014Y-67978867D01*
X116664252Y-67931248D01*
X116711871Y-67883629D01*
X116759490Y-67788391D01*
X116759490Y-67693153D01*
X116711871Y-67597915D01*
X116664252Y-67550296D01*
X116569014Y-67502677D01*
X116378538Y-67455058D01*
X116283300Y-67407439D01*
X116235681Y-67359820D01*
X116188062Y-67264582D01*
X116188062Y-67169344D01*
X116235681Y-67074106D01*
X116283300Y-67026487D01*
X116378538Y-66978867D01*
X116616633Y-66978867D01*
X116759490Y-67026487D01*
X117092824Y-66978867D02*
X117330919Y-67978867D01*
X117521395Y-67264582D01*
X117711871Y-67978867D01*
X117949966Y-66978867D01*
X118854728Y-67978867D02*
X118283300Y-67978867D01*
X118569014Y-67978867D02*
X118569014Y-66978867D01*
X118473776Y-67121725D01*
X118378538Y-67216963D01*
X118283300Y-67264582D01*
X119711871Y-67312201D02*
X119711871Y-67978867D01*
X119473776Y-66931248D02*
X119235681Y-67645534D01*
X119854728Y-67645534D01*
%TO.C,SW13*%
X97188063Y-62931248D02*
X97330920Y-62978867D01*
X97569015Y-62978867D01*
X97664253Y-62931248D01*
X97711872Y-62883629D01*
X97759491Y-62788391D01*
X97759491Y-62693153D01*
X97711872Y-62597915D01*
X97664253Y-62550296D01*
X97569015Y-62502677D01*
X97378539Y-62455058D01*
X97283301Y-62407439D01*
X97235682Y-62359820D01*
X97188063Y-62264582D01*
X97188063Y-62169344D01*
X97235682Y-62074106D01*
X97283301Y-62026487D01*
X97378539Y-61978867D01*
X97616634Y-61978867D01*
X97759491Y-62026487D01*
X98092825Y-61978867D02*
X98330920Y-62978867D01*
X98521396Y-62264582D01*
X98711872Y-62978867D01*
X98949967Y-61978867D01*
X99854729Y-62978867D02*
X99283301Y-62978867D01*
X99569015Y-62978867D02*
X99569015Y-61978867D01*
X99473777Y-62121725D01*
X99378539Y-62216963D01*
X99283301Y-62264582D01*
X100188063Y-61978867D02*
X100807110Y-61978867D01*
X100473777Y-62359820D01*
X100616634Y-62359820D01*
X100711872Y-62407439D01*
X100759491Y-62455058D01*
X100807110Y-62550296D01*
X100807110Y-62788391D01*
X100759491Y-62883629D01*
X100711872Y-62931248D01*
X100616634Y-62978867D01*
X100330920Y-62978867D01*
X100235682Y-62931248D01*
X100188063Y-62883629D01*
%TO.C,SW12*%
X78188064Y-67931248D02*
X78330921Y-67978867D01*
X78569016Y-67978867D01*
X78664254Y-67931248D01*
X78711873Y-67883629D01*
X78759492Y-67788391D01*
X78759492Y-67693153D01*
X78711873Y-67597915D01*
X78664254Y-67550296D01*
X78569016Y-67502677D01*
X78378540Y-67455058D01*
X78283302Y-67407439D01*
X78235683Y-67359820D01*
X78188064Y-67264582D01*
X78188064Y-67169344D01*
X78235683Y-67074106D01*
X78283302Y-67026487D01*
X78378540Y-66978867D01*
X78616635Y-66978867D01*
X78759492Y-67026487D01*
X79092826Y-66978867D02*
X79330921Y-67978867D01*
X79521397Y-67264582D01*
X79711873Y-67978867D01*
X79949968Y-66978867D01*
X80854730Y-67978867D02*
X80283302Y-67978867D01*
X80569016Y-67978867D02*
X80569016Y-66978867D01*
X80473778Y-67121725D01*
X80378540Y-67216963D01*
X80283302Y-67264582D01*
X81235683Y-67074106D02*
X81283302Y-67026487D01*
X81378540Y-66978867D01*
X81616635Y-66978867D01*
X81711873Y-67026487D01*
X81759492Y-67074106D01*
X81807111Y-67169344D01*
X81807111Y-67264582D01*
X81759492Y-67407439D01*
X81188064Y-67978867D01*
X81807111Y-67978867D01*
%TO.C,SW11*%
X59188065Y-80431247D02*
X59330922Y-80478866D01*
X59569017Y-80478866D01*
X59664255Y-80431247D01*
X59711874Y-80383628D01*
X59759493Y-80288390D01*
X59759493Y-80193152D01*
X59711874Y-80097914D01*
X59664255Y-80050295D01*
X59569017Y-80002676D01*
X59378541Y-79955057D01*
X59283303Y-79907438D01*
X59235684Y-79859819D01*
X59188065Y-79764581D01*
X59188065Y-79669343D01*
X59235684Y-79574105D01*
X59283303Y-79526486D01*
X59378541Y-79478866D01*
X59616636Y-79478866D01*
X59759493Y-79526486D01*
X60092827Y-79478866D02*
X60330922Y-80478866D01*
X60521398Y-79764581D01*
X60711874Y-80478866D01*
X60949969Y-79478866D01*
X61854731Y-80478866D02*
X61283303Y-80478866D01*
X61569017Y-80478866D02*
X61569017Y-79478866D01*
X61473779Y-79621724D01*
X61378541Y-79716962D01*
X61283303Y-79764581D01*
X62807112Y-80478866D02*
X62235684Y-80478866D01*
X62521398Y-80478866D02*
X62521398Y-79478866D01*
X62426160Y-79621724D01*
X62330922Y-79716962D01*
X62235684Y-79764581D01*
%TO.C,SW6*%
X116664252Y-110931248D02*
X116807109Y-110978867D01*
X117045205Y-110978867D01*
X117140443Y-110931248D01*
X117188062Y-110883629D01*
X117235681Y-110788391D01*
X117235681Y-110693153D01*
X117188062Y-110597915D01*
X117140443Y-110550296D01*
X117045205Y-110502677D01*
X116854728Y-110455058D01*
X116759490Y-110407439D01*
X116711871Y-110359820D01*
X116664252Y-110264582D01*
X116664252Y-110169344D01*
X116711871Y-110074106D01*
X116759490Y-110026487D01*
X116854728Y-109978867D01*
X117092824Y-109978867D01*
X117235681Y-110026487D01*
X117569014Y-109978867D02*
X117807109Y-110978867D01*
X117997586Y-110264582D01*
X118188062Y-110978867D01*
X118426157Y-109978867D01*
X119235681Y-109978867D02*
X119045205Y-109978867D01*
X118949966Y-110026487D01*
X118902347Y-110074106D01*
X118807109Y-110216963D01*
X118759490Y-110407439D01*
X118759490Y-110788391D01*
X118807109Y-110883629D01*
X118854728Y-110931248D01*
X118949966Y-110978867D01*
X119140443Y-110978867D01*
X119235681Y-110931248D01*
X119283300Y-110883629D01*
X119330919Y-110788391D01*
X119330919Y-110550296D01*
X119283300Y-110455058D01*
X119235681Y-110407439D01*
X119140443Y-110359820D01*
X118949966Y-110359820D01*
X118854728Y-110407439D01*
X118807109Y-110455058D01*
X118759490Y-110550296D01*
%TO.C,SW5*%
X135664251Y-51431250D02*
X135807108Y-51478869D01*
X136045204Y-51478869D01*
X136140442Y-51431250D01*
X136188061Y-51383631D01*
X136235680Y-51288393D01*
X136235680Y-51193155D01*
X136188061Y-51097917D01*
X136140442Y-51050298D01*
X136045204Y-51002679D01*
X135854727Y-50955060D01*
X135759489Y-50907441D01*
X135711870Y-50859822D01*
X135664251Y-50764584D01*
X135664251Y-50669346D01*
X135711870Y-50574108D01*
X135759489Y-50526489D01*
X135854727Y-50478869D01*
X136092823Y-50478869D01*
X136235680Y-50526489D01*
X136569013Y-50478869D02*
X136807108Y-51478869D01*
X136997585Y-50764584D01*
X137188061Y-51478869D01*
X137426156Y-50478869D01*
X138283299Y-50478869D02*
X137807108Y-50478869D01*
X137759489Y-50955060D01*
X137807108Y-50907441D01*
X137902346Y-50859822D01*
X138140442Y-50859822D01*
X138235680Y-50907441D01*
X138283299Y-50955060D01*
X138330918Y-51050298D01*
X138330918Y-51288393D01*
X138283299Y-51383631D01*
X138235680Y-51431250D01*
X138140442Y-51478869D01*
X137902346Y-51478869D01*
X137807108Y-51431250D01*
X137759489Y-51383631D01*
%TO.C,SW4*%
X116664252Y-48931249D02*
X116807109Y-48978868D01*
X117045205Y-48978868D01*
X117140443Y-48931249D01*
X117188062Y-48883630D01*
X117235681Y-48788392D01*
X117235681Y-48693154D01*
X117188062Y-48597916D01*
X117140443Y-48550297D01*
X117045205Y-48502678D01*
X116854728Y-48455059D01*
X116759490Y-48407440D01*
X116711871Y-48359821D01*
X116664252Y-48264583D01*
X116664252Y-48169345D01*
X116711871Y-48074107D01*
X116759490Y-48026488D01*
X116854728Y-47978868D01*
X117092824Y-47978868D01*
X117235681Y-48026488D01*
X117569014Y-47978868D02*
X117807109Y-48978868D01*
X117997586Y-48264583D01*
X118188062Y-48978868D01*
X118426157Y-47978868D01*
X119235681Y-48312202D02*
X119235681Y-48978868D01*
X118997586Y-47931249D02*
X118759490Y-48645535D01*
X119378538Y-48645535D01*
%TO.C,SW3*%
X97664253Y-43931249D02*
X97807110Y-43978868D01*
X98045206Y-43978868D01*
X98140444Y-43931249D01*
X98188063Y-43883630D01*
X98235682Y-43788392D01*
X98235682Y-43693154D01*
X98188063Y-43597916D01*
X98140444Y-43550297D01*
X98045206Y-43502678D01*
X97854729Y-43455059D01*
X97759491Y-43407440D01*
X97711872Y-43359821D01*
X97664253Y-43264583D01*
X97664253Y-43169345D01*
X97711872Y-43074107D01*
X97759491Y-43026488D01*
X97854729Y-42978868D01*
X98092825Y-42978868D01*
X98235682Y-43026488D01*
X98569015Y-42978868D02*
X98807110Y-43978868D01*
X98997587Y-43264583D01*
X99188063Y-43978868D01*
X99426158Y-42978868D01*
X99711872Y-42978868D02*
X100330920Y-42978868D01*
X99997587Y-43359821D01*
X100140444Y-43359821D01*
X100235682Y-43407440D01*
X100283301Y-43455059D01*
X100330920Y-43550297D01*
X100330920Y-43788392D01*
X100283301Y-43883630D01*
X100235682Y-43931249D01*
X100140444Y-43978868D01*
X99854729Y-43978868D01*
X99759491Y-43931249D01*
X99711872Y-43883630D01*
%TO.C,SW2*%
X78664254Y-48931249D02*
X78807111Y-48978868D01*
X79045207Y-48978868D01*
X79140445Y-48931249D01*
X79188064Y-48883630D01*
X79235683Y-48788392D01*
X79235683Y-48693154D01*
X79188064Y-48597916D01*
X79140445Y-48550297D01*
X79045207Y-48502678D01*
X78854730Y-48455059D01*
X78759492Y-48407440D01*
X78711873Y-48359821D01*
X78664254Y-48264583D01*
X78664254Y-48169345D01*
X78711873Y-48074107D01*
X78759492Y-48026488D01*
X78854730Y-47978868D01*
X79092826Y-47978868D01*
X79235683Y-48026488D01*
X79569016Y-47978868D02*
X79807111Y-48978868D01*
X79997588Y-48264583D01*
X80188064Y-48978868D01*
X80426159Y-47978868D01*
X80759492Y-48074107D02*
X80807111Y-48026488D01*
X80902349Y-47978868D01*
X81140445Y-47978868D01*
X81235683Y-48026488D01*
X81283302Y-48074107D01*
X81330921Y-48169345D01*
X81330921Y-48264583D01*
X81283302Y-48407440D01*
X80711873Y-48978868D01*
X81330921Y-48978868D01*
%TO.C,SW1*%
X59664255Y-61431248D02*
X59807112Y-61478867D01*
X60045208Y-61478867D01*
X60140446Y-61431248D01*
X60188065Y-61383629D01*
X60235684Y-61288391D01*
X60235684Y-61193153D01*
X60188065Y-61097915D01*
X60140446Y-61050296D01*
X60045208Y-61002677D01*
X59854731Y-60955058D01*
X59759493Y-60907439D01*
X59711874Y-60859820D01*
X59664255Y-60764582D01*
X59664255Y-60669344D01*
X59711874Y-60574106D01*
X59759493Y-60526487D01*
X59854731Y-60478867D01*
X60092827Y-60478867D01*
X60235684Y-60526487D01*
X60569017Y-60478867D02*
X60807112Y-61478867D01*
X60997589Y-60764582D01*
X61188065Y-61478867D01*
X61426160Y-60478867D01*
X62330922Y-61478867D02*
X61759493Y-61478867D01*
X62045208Y-61478867D02*
X62045208Y-60478867D01*
X61949969Y-60621725D01*
X61854731Y-60716963D01*
X61759493Y-60764582D01*
%TO.C,JP2*%
X51798273Y-107757237D02*
X52512559Y-107757237D01*
X52655416Y-107804856D01*
X52750654Y-107900094D01*
X52798273Y-108042951D01*
X52798273Y-108138189D01*
X52798273Y-107281046D02*
X51798273Y-107281046D01*
X51798273Y-106900094D01*
X51845893Y-106804856D01*
X51893512Y-106757237D01*
X51988750Y-106709618D01*
X52131607Y-106709618D01*
X52226845Y-106757237D01*
X52274464Y-106804856D01*
X52322083Y-106900094D01*
X52322083Y-107281046D01*
X51893512Y-106328665D02*
X51845893Y-106281046D01*
X51798273Y-106185808D01*
X51798273Y-105947713D01*
X51845893Y-105852475D01*
X51893512Y-105804856D01*
X51988750Y-105757237D01*
X52083988Y-105757237D01*
X52226845Y-105804856D01*
X52798273Y-106376284D01*
X52798273Y-105757237D01*
%TO.C,D85*%
X43978107Y-114126084D02*
X43978107Y-113126084D01*
X44216202Y-113126084D01*
X44359059Y-113173704D01*
X44454297Y-113268942D01*
X44501916Y-113364180D01*
X44549535Y-113554656D01*
X44549535Y-113697513D01*
X44501916Y-113887989D01*
X44454297Y-113983227D01*
X44359059Y-114078465D01*
X44216202Y-114126084D01*
X43978107Y-114126084D01*
X45120964Y-113554656D02*
X45025726Y-113507037D01*
X44978107Y-113459418D01*
X44930488Y-113364180D01*
X44930488Y-113316561D01*
X44978107Y-113221323D01*
X45025726Y-113173704D01*
X45120964Y-113126084D01*
X45311440Y-113126084D01*
X45406678Y-113173704D01*
X45454297Y-113221323D01*
X45501916Y-113316561D01*
X45501916Y-113364180D01*
X45454297Y-113459418D01*
X45406678Y-113507037D01*
X45311440Y-113554656D01*
X45120964Y-113554656D01*
X45025726Y-113602275D01*
X44978107Y-113649894D01*
X44930488Y-113745132D01*
X44930488Y-113935608D01*
X44978107Y-114030846D01*
X45025726Y-114078465D01*
X45120964Y-114126084D01*
X45311440Y-114126084D01*
X45406678Y-114078465D01*
X45454297Y-114030846D01*
X45501916Y-113935608D01*
X45501916Y-113745132D01*
X45454297Y-113649894D01*
X45406678Y-113602275D01*
X45311440Y-113554656D01*
X46406678Y-113126084D02*
X45930488Y-113126084D01*
X45882869Y-113602275D01*
X45930488Y-113554656D01*
X46025726Y-113507037D01*
X46263821Y-113507037D01*
X46359059Y-113554656D01*
X46406678Y-113602275D01*
X46454297Y-113697513D01*
X46454297Y-113935608D01*
X46406678Y-114030846D01*
X46359059Y-114078465D01*
X46263821Y-114126084D01*
X46025726Y-114126084D01*
X45930488Y-114078465D01*
X45882869Y-114030846D01*
%TO.C,D84*%
X43978107Y-95025284D02*
X43978107Y-94025284D01*
X44216202Y-94025284D01*
X44359059Y-94072904D01*
X44454297Y-94168142D01*
X44501916Y-94263380D01*
X44549535Y-94453856D01*
X44549535Y-94596713D01*
X44501916Y-94787189D01*
X44454297Y-94882427D01*
X44359059Y-94977665D01*
X44216202Y-95025284D01*
X43978107Y-95025284D01*
X45120964Y-94453856D02*
X45025726Y-94406237D01*
X44978107Y-94358618D01*
X44930488Y-94263380D01*
X44930488Y-94215761D01*
X44978107Y-94120523D01*
X45025726Y-94072904D01*
X45120964Y-94025284D01*
X45311440Y-94025284D01*
X45406678Y-94072904D01*
X45454297Y-94120523D01*
X45501916Y-94215761D01*
X45501916Y-94263380D01*
X45454297Y-94358618D01*
X45406678Y-94406237D01*
X45311440Y-94453856D01*
X45120964Y-94453856D01*
X45025726Y-94501475D01*
X44978107Y-94549094D01*
X44930488Y-94644332D01*
X44930488Y-94834808D01*
X44978107Y-94930046D01*
X45025726Y-94977665D01*
X45120964Y-95025284D01*
X45311440Y-95025284D01*
X45406678Y-94977665D01*
X45454297Y-94930046D01*
X45501916Y-94834808D01*
X45501916Y-94644332D01*
X45454297Y-94549094D01*
X45406678Y-94501475D01*
X45311440Y-94453856D01*
X46359059Y-94358618D02*
X46359059Y-95025284D01*
X46120964Y-93977665D02*
X45882869Y-94691951D01*
X46501916Y-94691951D01*
%TO.C,D80*%
X44016207Y-76153084D02*
X44016207Y-75153084D01*
X44254302Y-75153084D01*
X44397159Y-75200704D01*
X44492397Y-75295942D01*
X44540016Y-75391180D01*
X44587635Y-75581656D01*
X44587635Y-75724513D01*
X44540016Y-75914989D01*
X44492397Y-76010227D01*
X44397159Y-76105465D01*
X44254302Y-76153084D01*
X44016207Y-76153084D01*
X45159064Y-75581656D02*
X45063826Y-75534037D01*
X45016207Y-75486418D01*
X44968588Y-75391180D01*
X44968588Y-75343561D01*
X45016207Y-75248323D01*
X45063826Y-75200704D01*
X45159064Y-75153084D01*
X45349540Y-75153084D01*
X45444778Y-75200704D01*
X45492397Y-75248323D01*
X45540016Y-75343561D01*
X45540016Y-75391180D01*
X45492397Y-75486418D01*
X45444778Y-75534037D01*
X45349540Y-75581656D01*
X45159064Y-75581656D01*
X45063826Y-75629275D01*
X45016207Y-75676894D01*
X44968588Y-75772132D01*
X44968588Y-75962608D01*
X45016207Y-76057846D01*
X45063826Y-76105465D01*
X45159064Y-76153084D01*
X45349540Y-76153084D01*
X45444778Y-76105465D01*
X45492397Y-76057846D01*
X45540016Y-75962608D01*
X45540016Y-75772132D01*
X45492397Y-75676894D01*
X45444778Y-75629275D01*
X45349540Y-75581656D01*
X46159064Y-75153084D02*
X46254302Y-75153084D01*
X46349540Y-75200704D01*
X46397159Y-75248323D01*
X46444778Y-75343561D01*
X46492397Y-75534037D01*
X46492397Y-75772132D01*
X46444778Y-75962608D01*
X46397159Y-76057846D01*
X46349540Y-76105465D01*
X46254302Y-76153084D01*
X46159064Y-76153084D01*
X46063826Y-76105465D01*
X46016207Y-76057846D01*
X45968588Y-75962608D01*
X45920969Y-75772132D01*
X45920969Y-75534037D01*
X45968588Y-75343561D01*
X46016207Y-75248323D01*
X46063826Y-75200704D01*
X46159064Y-75153084D01*
%TO.C,*%
%TO.C,D37*%
X81774973Y-100432689D02*
X80774973Y-100432689D01*
X80774973Y-100194594D01*
X80822593Y-100051737D01*
X80917831Y-99956499D01*
X81013069Y-99908880D01*
X81203545Y-99861261D01*
X81346402Y-99861261D01*
X81536878Y-99908880D01*
X81632116Y-99956499D01*
X81727354Y-100051737D01*
X81774973Y-100194594D01*
X81774973Y-100432689D01*
X80774973Y-99527927D02*
X80774973Y-98908880D01*
X81155926Y-99242213D01*
X81155926Y-99099356D01*
X81203545Y-99004118D01*
X81251164Y-98956499D01*
X81346402Y-98908880D01*
X81584497Y-98908880D01*
X81679735Y-98956499D01*
X81727354Y-99004118D01*
X81774973Y-99099356D01*
X81774973Y-99385070D01*
X81727354Y-99480308D01*
X81679735Y-99527927D01*
X80774973Y-98575546D02*
X80774973Y-97908880D01*
X81774973Y-98337451D01*
%TO.C,D36*%
X156086654Y-120319707D02*
X156428674Y-119380015D01*
X156652410Y-119461448D01*
X156770365Y-119555055D01*
X156827287Y-119677123D01*
X156839460Y-119782904D01*
X156819061Y-119978180D01*
X156770201Y-120112422D01*
X156660307Y-120275124D01*
X156582986Y-120348332D01*
X156460919Y-120405253D01*
X156310390Y-120401141D01*
X156086654Y-120319707D01*
X157278872Y-119689462D02*
X157860586Y-119901188D01*
X157417062Y-120145160D01*
X157551304Y-120194020D01*
X157624512Y-120271340D01*
X157652972Y-120332374D01*
X157665146Y-120438156D01*
X157583713Y-120661892D01*
X157506392Y-120735100D01*
X157445358Y-120763560D01*
X157339577Y-120775734D01*
X157071094Y-120678014D01*
X156997886Y-120600694D01*
X156969425Y-120539660D01*
X158666037Y-120194348D02*
X158487048Y-120129202D01*
X158381267Y-120141376D01*
X158320233Y-120169836D01*
X158181879Y-120271505D01*
X158071985Y-120434207D01*
X157941691Y-120792185D01*
X157953865Y-120897966D01*
X157982326Y-120959000D01*
X158055534Y-121036321D01*
X158234523Y-121101468D01*
X158340304Y-121089294D01*
X158401338Y-121060833D01*
X158478658Y-120987625D01*
X158560092Y-120763889D01*
X158547918Y-120658108D01*
X158519457Y-120597074D01*
X158446249Y-120519753D01*
X158267260Y-120454607D01*
X158161479Y-120466780D01*
X158100445Y-120495241D01*
X158023125Y-120568449D01*
%TO.C,D33*%
X136192807Y-93146184D02*
X136192807Y-92146184D01*
X136430902Y-92146184D01*
X136573759Y-92193804D01*
X136668997Y-92289042D01*
X136716616Y-92384280D01*
X136764235Y-92574756D01*
X136764235Y-92717613D01*
X136716616Y-92908089D01*
X136668997Y-93003327D01*
X136573759Y-93098565D01*
X136430902Y-93146184D01*
X136192807Y-93146184D01*
X137097569Y-92146184D02*
X137716616Y-92146184D01*
X137383283Y-92527137D01*
X137526140Y-92527137D01*
X137621378Y-92574756D01*
X137668997Y-92622375D01*
X137716616Y-92717613D01*
X137716616Y-92955708D01*
X137668997Y-93050946D01*
X137621378Y-93098565D01*
X137526140Y-93146184D01*
X137240426Y-93146184D01*
X137145188Y-93098565D01*
X137097569Y-93050946D01*
X138049950Y-92146184D02*
X138668997Y-92146184D01*
X138335664Y-92527137D01*
X138478521Y-92527137D01*
X138573759Y-92574756D01*
X138621378Y-92622375D01*
X138668997Y-92717613D01*
X138668997Y-92955708D01*
X138621378Y-93050946D01*
X138573759Y-93098565D01*
X138478521Y-93146184D01*
X138192807Y-93146184D01*
X138097569Y-93098565D01*
X138049950Y-93050946D01*
%TO.C,D32*%
X135913407Y-74146984D02*
X135913407Y-73146984D01*
X136151502Y-73146984D01*
X136294359Y-73194604D01*
X136389597Y-73289842D01*
X136437216Y-73385080D01*
X136484835Y-73575556D01*
X136484835Y-73718413D01*
X136437216Y-73908889D01*
X136389597Y-74004127D01*
X136294359Y-74099365D01*
X136151502Y-74146984D01*
X135913407Y-74146984D01*
X136818169Y-73146984D02*
X137437216Y-73146984D01*
X137103883Y-73527937D01*
X137246740Y-73527937D01*
X137341978Y-73575556D01*
X137389597Y-73623175D01*
X137437216Y-73718413D01*
X137437216Y-73956508D01*
X137389597Y-74051746D01*
X137341978Y-74099365D01*
X137246740Y-74146984D01*
X136961026Y-74146984D01*
X136865788Y-74099365D01*
X136818169Y-74051746D01*
X137818169Y-73242223D02*
X137865788Y-73194604D01*
X137961026Y-73146984D01*
X138199121Y-73146984D01*
X138294359Y-73194604D01*
X138341978Y-73242223D01*
X138389597Y-73337461D01*
X138389597Y-73432699D01*
X138341978Y-73575556D01*
X137770550Y-74146984D01*
X138389597Y-74146984D01*
%TO.C,D31*%
X135888007Y-55185884D02*
X135888007Y-54185884D01*
X136126102Y-54185884D01*
X136268959Y-54233504D01*
X136364197Y-54328742D01*
X136411816Y-54423980D01*
X136459435Y-54614456D01*
X136459435Y-54757313D01*
X136411816Y-54947789D01*
X136364197Y-55043027D01*
X136268959Y-55138265D01*
X136126102Y-55185884D01*
X135888007Y-55185884D01*
X136792769Y-54185884D02*
X137411816Y-54185884D01*
X137078483Y-54566837D01*
X137221340Y-54566837D01*
X137316578Y-54614456D01*
X137364197Y-54662075D01*
X137411816Y-54757313D01*
X137411816Y-54995408D01*
X137364197Y-55090646D01*
X137316578Y-55138265D01*
X137221340Y-55185884D01*
X136935626Y-55185884D01*
X136840388Y-55138265D01*
X136792769Y-55090646D01*
X138364197Y-55185884D02*
X137792769Y-55185884D01*
X138078483Y-55185884D02*
X138078483Y-54185884D01*
X137983245Y-54328742D01*
X137888007Y-54423980D01*
X137792769Y-54471599D01*
%TO.C,D30*%
X144549426Y-115331301D02*
X143564619Y-115157652D01*
X143605963Y-114923174D01*
X143677666Y-114790757D01*
X143787995Y-114713503D01*
X143890055Y-114683146D01*
X144085907Y-114669326D01*
X144226593Y-114694133D01*
X144405907Y-114774104D01*
X144491429Y-114837538D01*
X144568682Y-114947867D01*
X144590771Y-115096823D01*
X144549426Y-115331301D01*
X143721729Y-114266636D02*
X143829225Y-113656993D01*
X144146507Y-114051414D01*
X144171314Y-113910727D01*
X144234748Y-113825205D01*
X144289912Y-113786578D01*
X144391973Y-113756221D01*
X144626451Y-113797565D01*
X144711973Y-113860999D01*
X144750599Y-113916163D01*
X144780957Y-114018224D01*
X144731343Y-114299597D01*
X144667910Y-114385120D01*
X144612745Y-114423746D01*
X143936722Y-113047350D02*
X143953260Y-112953559D01*
X144016693Y-112868037D01*
X144071858Y-112829410D01*
X144173918Y-112799052D01*
X144369769Y-112785233D01*
X144604247Y-112826577D01*
X144783561Y-112906549D01*
X144869083Y-112969982D01*
X144907710Y-113025147D01*
X144938067Y-113127207D01*
X144921530Y-113220998D01*
X144858096Y-113306521D01*
X144802931Y-113345147D01*
X144700871Y-113375505D01*
X144505020Y-113389325D01*
X144270542Y-113347980D01*
X144091228Y-113268008D01*
X144005706Y-113204575D01*
X143967079Y-113149410D01*
X143936722Y-113047350D01*
%TO.C,D29*%
X125191473Y-88961189D02*
X124191473Y-88961189D01*
X124191473Y-88723094D01*
X124239093Y-88580237D01*
X124334331Y-88484999D01*
X124429569Y-88437380D01*
X124620045Y-88389761D01*
X124762902Y-88389761D01*
X124953378Y-88437380D01*
X125048616Y-88484999D01*
X125143854Y-88580237D01*
X125191473Y-88723094D01*
X125191473Y-88961189D01*
X124286712Y-88008808D02*
X124239093Y-87961189D01*
X124191473Y-87865951D01*
X124191473Y-87627856D01*
X124239093Y-87532618D01*
X124286712Y-87484999D01*
X124381950Y-87437380D01*
X124477188Y-87437380D01*
X124620045Y-87484999D01*
X125191473Y-88056427D01*
X125191473Y-87437380D01*
X125191473Y-86961189D02*
X125191473Y-86770713D01*
X125143854Y-86675475D01*
X125096235Y-86627856D01*
X124953378Y-86532618D01*
X124762902Y-86484999D01*
X124381950Y-86484999D01*
X124286712Y-86532618D01*
X124239093Y-86580237D01*
X124191473Y-86675475D01*
X124191473Y-86865951D01*
X124239093Y-86961189D01*
X124286712Y-87008808D01*
X124381950Y-87056427D01*
X124620045Y-87056427D01*
X124715283Y-87008808D01*
X124762902Y-86961189D01*
X124810521Y-86865951D01*
X124810521Y-86675475D01*
X124762902Y-86580237D01*
X124715283Y-86532618D01*
X124620045Y-86484999D01*
%TO.C,D28*%
X125254973Y-70012789D02*
X124254973Y-70012789D01*
X124254973Y-69774694D01*
X124302593Y-69631837D01*
X124397831Y-69536599D01*
X124493069Y-69488980D01*
X124683545Y-69441361D01*
X124826402Y-69441361D01*
X125016878Y-69488980D01*
X125112116Y-69536599D01*
X125207354Y-69631837D01*
X125254973Y-69774694D01*
X125254973Y-70012789D01*
X124350212Y-69060408D02*
X124302593Y-69012789D01*
X124254973Y-68917551D01*
X124254973Y-68679456D01*
X124302593Y-68584218D01*
X124350212Y-68536599D01*
X124445450Y-68488980D01*
X124540688Y-68488980D01*
X124683545Y-68536599D01*
X125254973Y-69108027D01*
X125254973Y-68488980D01*
X124683545Y-67917551D02*
X124635926Y-68012789D01*
X124588307Y-68060408D01*
X124493069Y-68108027D01*
X124445450Y-68108027D01*
X124350212Y-68060408D01*
X124302593Y-68012789D01*
X124254973Y-67917551D01*
X124254973Y-67727075D01*
X124302593Y-67631837D01*
X124350212Y-67584218D01*
X124445450Y-67536599D01*
X124493069Y-67536599D01*
X124588307Y-67584218D01*
X124635926Y-67631837D01*
X124683545Y-67727075D01*
X124683545Y-67917551D01*
X124731164Y-68012789D01*
X124778783Y-68060408D01*
X124874021Y-68108027D01*
X125064497Y-68108027D01*
X125159735Y-68060408D01*
X125207354Y-68012789D01*
X125254973Y-67917551D01*
X125254973Y-67727075D01*
X125207354Y-67631837D01*
X125159735Y-67584218D01*
X125064497Y-67536599D01*
X124874021Y-67536599D01*
X124778783Y-67584218D01*
X124731164Y-67631837D01*
X124683545Y-67727075D01*
%TO.C,D27*%
X125178773Y-51724789D02*
X124178773Y-51724789D01*
X124178773Y-51486694D01*
X124226393Y-51343837D01*
X124321631Y-51248599D01*
X124416869Y-51200980D01*
X124607345Y-51153361D01*
X124750202Y-51153361D01*
X124940678Y-51200980D01*
X125035916Y-51248599D01*
X125131154Y-51343837D01*
X125178773Y-51486694D01*
X125178773Y-51724789D01*
X124274012Y-50772408D02*
X124226393Y-50724789D01*
X124178773Y-50629551D01*
X124178773Y-50391456D01*
X124226393Y-50296218D01*
X124274012Y-50248599D01*
X124369250Y-50200980D01*
X124464488Y-50200980D01*
X124607345Y-50248599D01*
X125178773Y-50820027D01*
X125178773Y-50200980D01*
X124178773Y-49867646D02*
X124178773Y-49200980D01*
X125178773Y-49629551D01*
%TO.C,D26*%
X125178773Y-112926089D02*
X124178773Y-112926089D01*
X124178773Y-112687994D01*
X124226393Y-112545137D01*
X124321631Y-112449899D01*
X124416869Y-112402280D01*
X124607345Y-112354661D01*
X124750202Y-112354661D01*
X124940678Y-112402280D01*
X125035916Y-112449899D01*
X125131154Y-112545137D01*
X125178773Y-112687994D01*
X125178773Y-112926089D01*
X124274012Y-111973708D02*
X124226393Y-111926089D01*
X124178773Y-111830851D01*
X124178773Y-111592756D01*
X124226393Y-111497518D01*
X124274012Y-111449899D01*
X124369250Y-111402280D01*
X124464488Y-111402280D01*
X124607345Y-111449899D01*
X125178773Y-112021327D01*
X125178773Y-111402280D01*
X124178773Y-110545137D02*
X124178773Y-110735613D01*
X124226393Y-110830851D01*
X124274012Y-110878470D01*
X124416869Y-110973708D01*
X124607345Y-111021327D01*
X124988297Y-111021327D01*
X125083535Y-110973708D01*
X125131154Y-110926089D01*
X125178773Y-110830851D01*
X125178773Y-110640375D01*
X125131154Y-110545137D01*
X125083535Y-110497518D01*
X124988297Y-110449899D01*
X124750202Y-110449899D01*
X124654964Y-110497518D01*
X124607345Y-110545137D01*
X124559726Y-110640375D01*
X124559726Y-110830851D01*
X124607345Y-110926089D01*
X124654964Y-110973708D01*
X124750202Y-111021327D01*
%TO.C,D20*%
X106204973Y-83931989D02*
X105204973Y-83931989D01*
X105204973Y-83693894D01*
X105252593Y-83551037D01*
X105347831Y-83455799D01*
X105443069Y-83408180D01*
X105633545Y-83360561D01*
X105776402Y-83360561D01*
X105966878Y-83408180D01*
X106062116Y-83455799D01*
X106157354Y-83551037D01*
X106204973Y-83693894D01*
X106204973Y-83931989D01*
X105300212Y-82979608D02*
X105252593Y-82931989D01*
X105204973Y-82836751D01*
X105204973Y-82598656D01*
X105252593Y-82503418D01*
X105300212Y-82455799D01*
X105395450Y-82408180D01*
X105490688Y-82408180D01*
X105633545Y-82455799D01*
X106204973Y-83027227D01*
X106204973Y-82408180D01*
X105204973Y-81789132D02*
X105204973Y-81693894D01*
X105252593Y-81598656D01*
X105300212Y-81551037D01*
X105395450Y-81503418D01*
X105585926Y-81455799D01*
X105824021Y-81455799D01*
X106014497Y-81503418D01*
X106109735Y-81551037D01*
X106157354Y-81598656D01*
X106204973Y-81693894D01*
X106204973Y-81789132D01*
X106157354Y-81884370D01*
X106109735Y-81931989D01*
X106014497Y-81979608D01*
X105824021Y-82027227D01*
X105585926Y-82027227D01*
X105395450Y-81979608D01*
X105300212Y-81931989D01*
X105252593Y-81884370D01*
X105204973Y-81789132D01*
%TO.C,D19*%
X98067407Y-66653984D02*
X98067407Y-65653984D01*
X98305502Y-65653984D01*
X98448359Y-65701604D01*
X98543597Y-65796842D01*
X98591216Y-65892080D01*
X98638835Y-66082556D01*
X98638835Y-66225413D01*
X98591216Y-66415889D01*
X98543597Y-66511127D01*
X98448359Y-66606365D01*
X98305502Y-66653984D01*
X98067407Y-66653984D01*
X99591216Y-66653984D02*
X99019788Y-66653984D01*
X99305502Y-66653984D02*
X99305502Y-65653984D01*
X99210264Y-65796842D01*
X99115026Y-65892080D01*
X99019788Y-65939699D01*
X100067407Y-66653984D02*
X100257883Y-66653984D01*
X100353121Y-66606365D01*
X100400740Y-66558746D01*
X100495978Y-66415889D01*
X100543597Y-66225413D01*
X100543597Y-65844461D01*
X100495978Y-65749223D01*
X100448359Y-65701604D01*
X100353121Y-65653984D01*
X100162645Y-65653984D01*
X100067407Y-65701604D01*
X100019788Y-65749223D01*
X99972169Y-65844461D01*
X99972169Y-66082556D01*
X100019788Y-66177794D01*
X100067407Y-66225413D01*
X100162645Y-66273032D01*
X100353121Y-66273032D01*
X100448359Y-66225413D01*
X100495978Y-66177794D01*
X100543597Y-66082556D01*
%TO.C,D18*%
X97762607Y-47553184D02*
X97762607Y-46553184D01*
X98000702Y-46553184D01*
X98143559Y-46600804D01*
X98238797Y-46696042D01*
X98286416Y-46791280D01*
X98334035Y-46981756D01*
X98334035Y-47124613D01*
X98286416Y-47315089D01*
X98238797Y-47410327D01*
X98143559Y-47505565D01*
X98000702Y-47553184D01*
X97762607Y-47553184D01*
X99286416Y-47553184D02*
X98714988Y-47553184D01*
X99000702Y-47553184D02*
X99000702Y-46553184D01*
X98905464Y-46696042D01*
X98810226Y-46791280D01*
X98714988Y-46838899D01*
X99857845Y-46981756D02*
X99762607Y-46934137D01*
X99714988Y-46886518D01*
X99667369Y-46791280D01*
X99667369Y-46743661D01*
X99714988Y-46648423D01*
X99762607Y-46600804D01*
X99857845Y-46553184D01*
X100048321Y-46553184D01*
X100143559Y-46600804D01*
X100191178Y-46648423D01*
X100238797Y-46743661D01*
X100238797Y-46791280D01*
X100191178Y-46886518D01*
X100143559Y-46934137D01*
X100048321Y-46981756D01*
X99857845Y-46981756D01*
X99762607Y-47029375D01*
X99714988Y-47076994D01*
X99667369Y-47172232D01*
X99667369Y-47362708D01*
X99714988Y-47457946D01*
X99762607Y-47505565D01*
X99857845Y-47553184D01*
X100048321Y-47553184D01*
X100143559Y-47505565D01*
X100191178Y-47457946D01*
X100238797Y-47362708D01*
X100238797Y-47172232D01*
X100191178Y-47076994D01*
X100143559Y-47029375D01*
X100048321Y-46981756D01*
%TO.C,D17*%
X87066073Y-88935789D02*
X86066073Y-88935789D01*
X86066073Y-88697694D01*
X86113693Y-88554837D01*
X86208931Y-88459599D01*
X86304169Y-88411980D01*
X86494645Y-88364361D01*
X86637502Y-88364361D01*
X86827978Y-88411980D01*
X86923216Y-88459599D01*
X87018454Y-88554837D01*
X87066073Y-88697694D01*
X87066073Y-88935789D01*
X87066073Y-87411980D02*
X87066073Y-87983408D01*
X87066073Y-87697694D02*
X86066073Y-87697694D01*
X86208931Y-87792932D01*
X86304169Y-87888170D01*
X86351788Y-87983408D01*
X86066073Y-87078646D02*
X86066073Y-86411980D01*
X87066073Y-86840551D01*
%TO.C,D16*%
X87129573Y-69923889D02*
X86129573Y-69923889D01*
X86129573Y-69685794D01*
X86177193Y-69542937D01*
X86272431Y-69447699D01*
X86367669Y-69400080D01*
X86558145Y-69352461D01*
X86701002Y-69352461D01*
X86891478Y-69400080D01*
X86986716Y-69447699D01*
X87081954Y-69542937D01*
X87129573Y-69685794D01*
X87129573Y-69923889D01*
X87129573Y-68400080D02*
X87129573Y-68971508D01*
X87129573Y-68685794D02*
X86129573Y-68685794D01*
X86272431Y-68781032D01*
X86367669Y-68876270D01*
X86415288Y-68971508D01*
X86129573Y-67542937D02*
X86129573Y-67733413D01*
X86177193Y-67828651D01*
X86224812Y-67876270D01*
X86367669Y-67971508D01*
X86558145Y-68019127D01*
X86939097Y-68019127D01*
X87034335Y-67971508D01*
X87081954Y-67923889D01*
X87129573Y-67828651D01*
X87129573Y-67638175D01*
X87081954Y-67542937D01*
X87034335Y-67495318D01*
X86939097Y-67447699D01*
X86701002Y-67447699D01*
X86605764Y-67495318D01*
X86558145Y-67542937D01*
X86510526Y-67638175D01*
X86510526Y-67828651D01*
X86558145Y-67923889D01*
X86605764Y-67971508D01*
X86701002Y-68019127D01*
%TO.C,D10*%
X82954407Y-56620484D02*
X82954407Y-55620484D01*
X83192502Y-55620484D01*
X83335359Y-55668104D01*
X83430597Y-55763342D01*
X83478216Y-55858580D01*
X83525835Y-56049056D01*
X83525835Y-56191913D01*
X83478216Y-56382389D01*
X83430597Y-56477627D01*
X83335359Y-56572865D01*
X83192502Y-56620484D01*
X82954407Y-56620484D01*
X84478216Y-56620484D02*
X83906788Y-56620484D01*
X84192502Y-56620484D02*
X84192502Y-55620484D01*
X84097264Y-55763342D01*
X84002026Y-55858580D01*
X83906788Y-55906199D01*
X85097264Y-55620484D02*
X85192502Y-55620484D01*
X85287740Y-55668104D01*
X85335359Y-55715723D01*
X85382978Y-55810961D01*
X85430597Y-56001437D01*
X85430597Y-56239532D01*
X85382978Y-56430008D01*
X85335359Y-56525246D01*
X85287740Y-56572865D01*
X85192502Y-56620484D01*
X85097264Y-56620484D01*
X85002026Y-56572865D01*
X84954407Y-56525246D01*
X84906788Y-56430008D01*
X84859169Y-56239532D01*
X84859169Y-56001437D01*
X84906788Y-55810961D01*
X84954407Y-55715723D01*
X85002026Y-55668104D01*
X85097264Y-55620484D01*
%TO.C,D9*%
X68231973Y-101007199D02*
X67231973Y-101007199D01*
X67231973Y-100769104D01*
X67279593Y-100626246D01*
X67374831Y-100531008D01*
X67470069Y-100483389D01*
X67660545Y-100435770D01*
X67803402Y-100435770D01*
X67993878Y-100483389D01*
X68089116Y-100531008D01*
X68184354Y-100626246D01*
X68231973Y-100769104D01*
X68231973Y-101007199D01*
X68231973Y-99959580D02*
X68231973Y-99769104D01*
X68184354Y-99673865D01*
X68136735Y-99626246D01*
X67993878Y-99531008D01*
X67803402Y-99483389D01*
X67422450Y-99483389D01*
X67327212Y-99531008D01*
X67279593Y-99578627D01*
X67231973Y-99673865D01*
X67231973Y-99864342D01*
X67279593Y-99959580D01*
X67327212Y-100007199D01*
X67422450Y-100054818D01*
X67660545Y-100054818D01*
X67755783Y-100007199D01*
X67803402Y-99959580D01*
X67851021Y-99864342D01*
X67851021Y-99673865D01*
X67803402Y-99578627D01*
X67755783Y-99531008D01*
X67660545Y-99483389D01*
%TO.C,D8*%
X68130373Y-81957199D02*
X67130373Y-81957199D01*
X67130373Y-81719104D01*
X67177993Y-81576246D01*
X67273231Y-81481008D01*
X67368469Y-81433389D01*
X67558945Y-81385770D01*
X67701802Y-81385770D01*
X67892278Y-81433389D01*
X67987516Y-81481008D01*
X68082754Y-81576246D01*
X68130373Y-81719104D01*
X68130373Y-81957199D01*
X67558945Y-80814342D02*
X67511326Y-80909580D01*
X67463707Y-80957199D01*
X67368469Y-81004818D01*
X67320850Y-81004818D01*
X67225612Y-80957199D01*
X67177993Y-80909580D01*
X67130373Y-80814342D01*
X67130373Y-80623865D01*
X67177993Y-80528627D01*
X67225612Y-80481008D01*
X67320850Y-80433389D01*
X67368469Y-80433389D01*
X67463707Y-80481008D01*
X67511326Y-80528627D01*
X67558945Y-80623865D01*
X67558945Y-80814342D01*
X67606564Y-80909580D01*
X67654183Y-80957199D01*
X67749421Y-81004818D01*
X67939897Y-81004818D01*
X68035135Y-80957199D01*
X68082754Y-80909580D01*
X68130373Y-80814342D01*
X68130373Y-80623865D01*
X68082754Y-80528627D01*
X68035135Y-80481008D01*
X67939897Y-80433389D01*
X67749421Y-80433389D01*
X67654183Y-80481008D01*
X67606564Y-80528627D01*
X67558945Y-80623865D01*
%TO.C,D7*%
X68117673Y-62945299D02*
X67117673Y-62945299D01*
X67117673Y-62707204D01*
X67165293Y-62564346D01*
X67260531Y-62469108D01*
X67355769Y-62421489D01*
X67546245Y-62373870D01*
X67689102Y-62373870D01*
X67879578Y-62421489D01*
X67974816Y-62469108D01*
X68070054Y-62564346D01*
X68117673Y-62707204D01*
X68117673Y-62945299D01*
X67117673Y-62040537D02*
X67117673Y-61373870D01*
X68117673Y-61802442D01*
%TO.C,U1*%
X104126783Y-60321261D02*
X104241069Y-60359356D01*
X104279164Y-60397451D01*
X104317259Y-60473642D01*
X104317259Y-60587927D01*
X104279164Y-60664118D01*
X104241069Y-60702213D01*
X104164878Y-60740308D01*
X103860116Y-60740308D01*
X103860116Y-59940308D01*
X104126783Y-59940308D01*
X104202973Y-59978404D01*
X104241069Y-60016499D01*
X104279164Y-60092689D01*
X104279164Y-60168880D01*
X104241069Y-60245070D01*
X104202973Y-60283165D01*
X104126783Y-60321261D01*
X103860116Y-60321261D01*
X104622021Y-60016499D02*
X104660116Y-59978404D01*
X104736307Y-59940308D01*
X104926783Y-59940308D01*
X105002973Y-59978404D01*
X105041069Y-60016499D01*
X105079164Y-60092689D01*
X105079164Y-60168880D01*
X105041069Y-60283165D01*
X104583926Y-60740308D01*
X105079164Y-60740308D01*
X104183926Y-52701261D02*
X103917259Y-52701261D01*
X103917259Y-53120308D02*
X103917259Y-52320308D01*
X104298212Y-52320308D01*
X104526783Y-52320308D02*
X105060116Y-52320308D01*
X104717259Y-53120308D01*
X104183926Y-50161261D02*
X103917259Y-50161261D01*
X103917259Y-50580308D02*
X103917259Y-49780308D01*
X104298212Y-49780308D01*
X104945831Y-49780308D02*
X104793450Y-49780308D01*
X104717259Y-49818404D01*
X104679164Y-49856499D01*
X104602973Y-49970784D01*
X104564878Y-50123165D01*
X104564878Y-50427927D01*
X104602973Y-50504118D01*
X104641069Y-50542213D01*
X104717259Y-50580308D01*
X104869640Y-50580308D01*
X104945831Y-50542213D01*
X104983926Y-50504118D01*
X105022021Y-50427927D01*
X105022021Y-50237451D01*
X104983926Y-50161261D01*
X104945831Y-50123165D01*
X104869640Y-50085070D01*
X104717259Y-50085070D01*
X104641069Y-50123165D01*
X104602973Y-50161261D01*
X104564878Y-50237451D01*
X104183926Y-47621261D02*
X103917259Y-47621261D01*
X103917259Y-48040308D02*
X103917259Y-47240308D01*
X104298212Y-47240308D01*
X104983926Y-47240308D02*
X104602973Y-47240308D01*
X104564878Y-47621261D01*
X104602973Y-47583165D01*
X104679164Y-47545070D01*
X104869640Y-47545070D01*
X104945831Y-47583165D01*
X104983926Y-47621261D01*
X105022021Y-47697451D01*
X105022021Y-47887927D01*
X104983926Y-47964118D01*
X104945831Y-48002213D01*
X104869640Y-48040308D01*
X104679164Y-48040308D01*
X104602973Y-48002213D01*
X104564878Y-47964118D01*
X103898212Y-35340308D02*
X103631545Y-34959356D01*
X103441069Y-35340308D02*
X103441069Y-34540308D01*
X103745831Y-34540308D01*
X103822021Y-34578404D01*
X103860116Y-34616499D01*
X103898212Y-34692689D01*
X103898212Y-34806975D01*
X103860116Y-34883165D01*
X103822021Y-34921261D01*
X103745831Y-34959356D01*
X103441069Y-34959356D01*
X104202973Y-35111737D02*
X104583926Y-35111737D01*
X104126783Y-35340308D02*
X104393450Y-34540308D01*
X104660116Y-35340308D01*
X104850593Y-34540308D02*
X105041069Y-35340308D01*
X105193450Y-34768880D01*
X105345831Y-35340308D01*
X105536307Y-34540308D01*
X103841069Y-37118404D02*
X103764878Y-37080308D01*
X103650593Y-37080308D01*
X103536307Y-37118404D01*
X103460116Y-37194594D01*
X103422021Y-37270784D01*
X103383926Y-37423165D01*
X103383926Y-37537451D01*
X103422021Y-37689832D01*
X103460116Y-37766023D01*
X103536307Y-37842213D01*
X103650593Y-37880308D01*
X103726783Y-37880308D01*
X103841069Y-37842213D01*
X103879164Y-37804118D01*
X103879164Y-37537451D01*
X103726783Y-37537451D01*
X104222021Y-37880308D02*
X104222021Y-37080308D01*
X104679164Y-37880308D01*
X104679164Y-37080308D01*
X105060116Y-37880308D02*
X105060116Y-37080308D01*
X105250593Y-37080308D01*
X105364878Y-37118404D01*
X105441069Y-37194594D01*
X105479164Y-37270784D01*
X105517259Y-37423165D01*
X105517259Y-37537451D01*
X105479164Y-37689832D01*
X105441069Y-37766023D01*
X105364878Y-37842213D01*
X105250593Y-37880308D01*
X105060116Y-37880308D01*
X104189379Y-40352213D02*
X104303665Y-40390308D01*
X104494141Y-40390308D01*
X104570332Y-40352213D01*
X104608427Y-40314118D01*
X104646522Y-40237927D01*
X104646522Y-40161737D01*
X104608427Y-40085546D01*
X104570332Y-40047451D01*
X104494141Y-40009356D01*
X104341760Y-39971261D01*
X104265570Y-39933165D01*
X104227474Y-39895070D01*
X104189379Y-39818880D01*
X104189379Y-39742689D01*
X104227474Y-39666499D01*
X104265570Y-39628404D01*
X104341760Y-39590308D01*
X104532236Y-39590308D01*
X104646522Y-39628404D01*
X104875093Y-39590308D02*
X105332236Y-39590308D01*
X105103665Y-40390308D02*
X105103665Y-39590308D01*
X103383926Y-42160308D02*
X103650593Y-42960308D01*
X103917259Y-42160308D01*
X104641069Y-42884118D02*
X104602973Y-42922213D01*
X104488688Y-42960308D01*
X104412497Y-42960308D01*
X104298212Y-42922213D01*
X104222021Y-42846023D01*
X104183926Y-42769832D01*
X104145831Y-42617451D01*
X104145831Y-42503165D01*
X104183926Y-42350784D01*
X104222021Y-42274594D01*
X104298212Y-42198404D01*
X104412497Y-42160308D01*
X104488688Y-42160308D01*
X104602973Y-42198404D01*
X104641069Y-42236499D01*
X105441069Y-42884118D02*
X105402973Y-42922213D01*
X105288688Y-42960308D01*
X105212497Y-42960308D01*
X105098212Y-42922213D01*
X105022021Y-42846023D01*
X104983926Y-42769832D01*
X104945831Y-42617451D01*
X104945831Y-42503165D01*
X104983926Y-42350784D01*
X105022021Y-42274594D01*
X105098212Y-42198404D01*
X105212497Y-42160308D01*
X105288688Y-42160308D01*
X105402973Y-42198404D01*
X105441069Y-42236499D01*
X104183926Y-45081261D02*
X103917259Y-45081261D01*
X103917259Y-45500308D02*
X103917259Y-44700308D01*
X104298212Y-44700308D01*
X104945831Y-44966975D02*
X104945831Y-45500308D01*
X104755354Y-44662213D02*
X104564878Y-45233642D01*
X105060116Y-45233642D01*
X104126783Y-55241261D02*
X104241069Y-55279356D01*
X104279164Y-55317451D01*
X104317259Y-55393642D01*
X104317259Y-55507927D01*
X104279164Y-55584118D01*
X104241069Y-55622213D01*
X104164878Y-55660308D01*
X103860116Y-55660308D01*
X103860116Y-54860308D01*
X104126783Y-54860308D01*
X104202973Y-54898404D01*
X104241069Y-54936499D01*
X104279164Y-55012689D01*
X104279164Y-55088880D01*
X104241069Y-55165070D01*
X104202973Y-55203165D01*
X104126783Y-55241261D01*
X103860116Y-55241261D01*
X105079164Y-55660308D02*
X104622021Y-55660308D01*
X104850593Y-55660308D02*
X104850593Y-54860308D01*
X104774402Y-54974594D01*
X104698212Y-55050784D01*
X104622021Y-55088880D01*
X104126783Y-57781261D02*
X104241069Y-57819356D01*
X104279164Y-57857451D01*
X104317259Y-57933642D01*
X104317259Y-58047927D01*
X104279164Y-58124118D01*
X104241069Y-58162213D01*
X104164878Y-58200308D01*
X103860116Y-58200308D01*
X103860116Y-57400308D01*
X104126783Y-57400308D01*
X104202973Y-57438404D01*
X104241069Y-57476499D01*
X104279164Y-57552689D01*
X104279164Y-57628880D01*
X104241069Y-57705070D01*
X104202973Y-57743165D01*
X104126783Y-57781261D01*
X103860116Y-57781261D01*
X104583926Y-57400308D02*
X105079164Y-57400308D01*
X104812497Y-57705070D01*
X104926783Y-57705070D01*
X105002973Y-57743165D01*
X105041069Y-57781261D01*
X105079164Y-57857451D01*
X105079164Y-58047927D01*
X105041069Y-58124118D01*
X105002973Y-58162213D01*
X104926783Y-58200308D01*
X104698212Y-58200308D01*
X104622021Y-58162213D01*
X104583926Y-58124118D01*
X104126783Y-62861261D02*
X104241069Y-62899356D01*
X104279164Y-62937451D01*
X104317259Y-63013642D01*
X104317259Y-63127927D01*
X104279164Y-63204118D01*
X104241069Y-63242213D01*
X104164878Y-63280308D01*
X103860116Y-63280308D01*
X103860116Y-62480308D01*
X104126783Y-62480308D01*
X104202973Y-62518404D01*
X104241069Y-62556499D01*
X104279164Y-62632689D01*
X104279164Y-62708880D01*
X104241069Y-62785070D01*
X104202973Y-62823165D01*
X104126783Y-62861261D01*
X103860116Y-62861261D01*
X105002973Y-62480308D02*
X104850593Y-62480308D01*
X104774402Y-62518404D01*
X104736307Y-62556499D01*
X104660116Y-62670784D01*
X104622021Y-62823165D01*
X104622021Y-63127927D01*
X104660116Y-63204118D01*
X104698212Y-63242213D01*
X104774402Y-63280308D01*
X104926783Y-63280308D01*
X105002973Y-63242213D01*
X105041069Y-63204118D01*
X105079164Y-63127927D01*
X105079164Y-62937451D01*
X105041069Y-62861261D01*
X105002973Y-62823165D01*
X104926783Y-62785070D01*
X104774402Y-62785070D01*
X104698212Y-62823165D01*
X104660116Y-62861261D01*
X104622021Y-62937451D01*
X93204783Y-62861261D02*
X93319069Y-62899356D01*
X93357164Y-62937451D01*
X93395259Y-63013642D01*
X93395259Y-63127927D01*
X93357164Y-63204118D01*
X93319069Y-63242213D01*
X93242878Y-63280308D01*
X92938116Y-63280308D01*
X92938116Y-62480308D01*
X93204783Y-62480308D01*
X93280973Y-62518404D01*
X93319069Y-62556499D01*
X93357164Y-62632689D01*
X93357164Y-62708880D01*
X93319069Y-62785070D01*
X93280973Y-62823165D01*
X93204783Y-62861261D01*
X92938116Y-62861261D01*
X94119069Y-62480308D02*
X93738116Y-62480308D01*
X93700021Y-62861261D01*
X93738116Y-62823165D01*
X93814307Y-62785070D01*
X94004783Y-62785070D01*
X94080973Y-62823165D01*
X94119069Y-62861261D01*
X94157164Y-62937451D01*
X94157164Y-63127927D01*
X94119069Y-63204118D01*
X94080973Y-63242213D01*
X94004783Y-63280308D01*
X93814307Y-63280308D01*
X93738116Y-63242213D01*
X93700021Y-63204118D01*
X93204783Y-60321261D02*
X93319069Y-60359356D01*
X93357164Y-60397451D01*
X93395259Y-60473642D01*
X93395259Y-60587927D01*
X93357164Y-60664118D01*
X93319069Y-60702213D01*
X93242878Y-60740308D01*
X92938116Y-60740308D01*
X92938116Y-59940308D01*
X93204783Y-59940308D01*
X93280973Y-59978404D01*
X93319069Y-60016499D01*
X93357164Y-60092689D01*
X93357164Y-60168880D01*
X93319069Y-60245070D01*
X93280973Y-60283165D01*
X93204783Y-60321261D01*
X92938116Y-60321261D01*
X94080973Y-60206975D02*
X94080973Y-60740308D01*
X93890497Y-59902213D02*
X93700021Y-60473642D01*
X94195259Y-60473642D01*
X92976212Y-57781261D02*
X93242878Y-57781261D01*
X93357164Y-58200308D02*
X92976212Y-58200308D01*
X92976212Y-57400308D01*
X93357164Y-57400308D01*
X94042878Y-57400308D02*
X93890497Y-57400308D01*
X93814307Y-57438404D01*
X93776212Y-57476499D01*
X93700021Y-57590784D01*
X93661926Y-57743165D01*
X93661926Y-58047927D01*
X93700021Y-58124118D01*
X93738116Y-58162213D01*
X93814307Y-58200308D01*
X93966688Y-58200308D01*
X94042878Y-58162213D01*
X94080973Y-58124118D01*
X94119069Y-58047927D01*
X94119069Y-57857451D01*
X94080973Y-57781261D01*
X94042878Y-57743165D01*
X93966688Y-57705070D01*
X93814307Y-57705070D01*
X93738116Y-57743165D01*
X93700021Y-57781261D01*
X93661926Y-57857451D01*
X92938116Y-55660308D02*
X92938116Y-54860308D01*
X93128593Y-54860308D01*
X93242878Y-54898404D01*
X93319069Y-54974594D01*
X93357164Y-55050784D01*
X93395259Y-55203165D01*
X93395259Y-55317451D01*
X93357164Y-55469832D01*
X93319069Y-55546023D01*
X93242878Y-55622213D01*
X93128593Y-55660308D01*
X92938116Y-55660308D01*
X93661926Y-54860308D02*
X94195259Y-54860308D01*
X93852402Y-55660308D01*
X93395259Y-53044118D02*
X93357164Y-53082213D01*
X93242878Y-53120308D01*
X93166688Y-53120308D01*
X93052402Y-53082213D01*
X92976212Y-53006023D01*
X92938116Y-52929832D01*
X92900021Y-52777451D01*
X92900021Y-52663165D01*
X92938116Y-52510784D01*
X92976212Y-52434594D01*
X93052402Y-52358404D01*
X93166688Y-52320308D01*
X93242878Y-52320308D01*
X93357164Y-52358404D01*
X93395259Y-52396499D01*
X94080973Y-52320308D02*
X93928593Y-52320308D01*
X93852402Y-52358404D01*
X93814307Y-52396499D01*
X93738116Y-52510784D01*
X93700021Y-52663165D01*
X93700021Y-52967927D01*
X93738116Y-53044118D01*
X93776212Y-53082213D01*
X93852402Y-53120308D01*
X94004783Y-53120308D01*
X94080973Y-53082213D01*
X94119069Y-53044118D01*
X94157164Y-52967927D01*
X94157164Y-52777451D01*
X94119069Y-52701261D01*
X94080973Y-52663165D01*
X94004783Y-52625070D01*
X93852402Y-52625070D01*
X93776212Y-52663165D01*
X93738116Y-52701261D01*
X93700021Y-52777451D01*
X92938116Y-50580308D02*
X92938116Y-49780308D01*
X93128593Y-49780308D01*
X93242878Y-49818404D01*
X93319069Y-49894594D01*
X93357164Y-49970784D01*
X93395259Y-50123165D01*
X93395259Y-50237451D01*
X93357164Y-50389832D01*
X93319069Y-50466023D01*
X93242878Y-50542213D01*
X93128593Y-50580308D01*
X92938116Y-50580308D01*
X94080973Y-50046975D02*
X94080973Y-50580308D01*
X93890497Y-49742213D02*
X93700021Y-50313642D01*
X94195259Y-50313642D01*
X92919069Y-39658404D02*
X92842878Y-39620308D01*
X92728593Y-39620308D01*
X92614307Y-39658404D01*
X92538116Y-39734594D01*
X92500021Y-39810784D01*
X92461926Y-39963165D01*
X92461926Y-40077451D01*
X92500021Y-40229832D01*
X92538116Y-40306023D01*
X92614307Y-40382213D01*
X92728593Y-40420308D01*
X92804783Y-40420308D01*
X92919069Y-40382213D01*
X92957164Y-40344118D01*
X92957164Y-40077451D01*
X92804783Y-40077451D01*
X93300021Y-40420308D02*
X93300021Y-39620308D01*
X93757164Y-40420308D01*
X93757164Y-39620308D01*
X94138116Y-40420308D02*
X94138116Y-39620308D01*
X94328593Y-39620308D01*
X94442878Y-39658404D01*
X94519069Y-39734594D01*
X94557164Y-39810784D01*
X94595259Y-39963165D01*
X94595259Y-40077451D01*
X94557164Y-40229832D01*
X94519069Y-40306023D01*
X94442878Y-40382213D01*
X94328593Y-40420308D01*
X94138116Y-40420308D01*
X92919069Y-42198404D02*
X92842878Y-42160308D01*
X92728593Y-42160308D01*
X92614307Y-42198404D01*
X92538116Y-42274594D01*
X92500021Y-42350784D01*
X92461926Y-42503165D01*
X92461926Y-42617451D01*
X92500021Y-42769832D01*
X92538116Y-42846023D01*
X92614307Y-42922213D01*
X92728593Y-42960308D01*
X92804783Y-42960308D01*
X92919069Y-42922213D01*
X92957164Y-42884118D01*
X92957164Y-42617451D01*
X92804783Y-42617451D01*
X93300021Y-42960308D02*
X93300021Y-42160308D01*
X93757164Y-42960308D01*
X93757164Y-42160308D01*
X94138116Y-42960308D02*
X94138116Y-42160308D01*
X94328593Y-42160308D01*
X94442878Y-42198404D01*
X94519069Y-42274594D01*
X94557164Y-42350784D01*
X94595259Y-42503165D01*
X94595259Y-42617451D01*
X94557164Y-42769832D01*
X94519069Y-42846023D01*
X94442878Y-42922213D01*
X94328593Y-42960308D01*
X94138116Y-42960308D01*
X92938116Y-45500308D02*
X92938116Y-44700308D01*
X93128593Y-44700308D01*
X93242878Y-44738404D01*
X93319069Y-44814594D01*
X93357164Y-44890784D01*
X93395259Y-45043165D01*
X93395259Y-45157451D01*
X93357164Y-45309832D01*
X93319069Y-45386023D01*
X93242878Y-45462213D01*
X93128593Y-45500308D01*
X92938116Y-45500308D01*
X94157164Y-45500308D02*
X93700021Y-45500308D01*
X93928593Y-45500308D02*
X93928593Y-44700308D01*
X93852402Y-44814594D01*
X93776212Y-44890784D01*
X93700021Y-44928880D01*
X92938116Y-48040308D02*
X92938116Y-47240308D01*
X93128593Y-47240308D01*
X93242878Y-47278404D01*
X93319069Y-47354594D01*
X93357164Y-47430784D01*
X93395259Y-47583165D01*
X93395259Y-47697451D01*
X93357164Y-47849832D01*
X93319069Y-47926023D01*
X93242878Y-48002213D01*
X93128593Y-48040308D01*
X92938116Y-48040308D01*
X93890497Y-47240308D02*
X93966688Y-47240308D01*
X94042878Y-47278404D01*
X94080973Y-47316499D01*
X94119069Y-47392689D01*
X94157164Y-47545070D01*
X94157164Y-47735546D01*
X94119069Y-47887927D01*
X94080973Y-47964118D01*
X94042878Y-48002213D01*
X93966688Y-48040308D01*
X93890497Y-48040308D01*
X93814307Y-48002213D01*
X93776212Y-47964118D01*
X93738116Y-47887927D01*
X93700021Y-47735546D01*
X93700021Y-47545070D01*
X93738116Y-47392689D01*
X93776212Y-47316499D01*
X93814307Y-47278404D01*
X93890497Y-47240308D01*
X92938116Y-37880308D02*
X92938116Y-37080308D01*
X93128593Y-37080308D01*
X93242878Y-37118404D01*
X93319069Y-37194594D01*
X93357164Y-37270784D01*
X93395259Y-37423165D01*
X93395259Y-37537451D01*
X93357164Y-37689832D01*
X93319069Y-37766023D01*
X93242878Y-37842213D01*
X93128593Y-37880308D01*
X92938116Y-37880308D01*
X93700021Y-37156499D02*
X93738116Y-37118404D01*
X93814307Y-37080308D01*
X94004783Y-37080308D01*
X94080973Y-37118404D01*
X94119069Y-37156499D01*
X94157164Y-37232689D01*
X94157164Y-37308880D01*
X94119069Y-37423165D01*
X93661926Y-37880308D01*
X94157164Y-37880308D01*
X93227244Y-34540308D02*
X93684387Y-34540308D01*
X93455816Y-35340308D02*
X93455816Y-34540308D01*
X93874863Y-34540308D02*
X94408197Y-35340308D01*
X94408197Y-34540308D02*
X93874863Y-35340308D01*
X94865340Y-34540308D02*
X94941530Y-34540308D01*
X95017721Y-34578404D01*
X95055816Y-34616499D01*
X95093911Y-34692689D01*
X95132006Y-34845070D01*
X95132006Y-35035546D01*
X95093911Y-35187927D01*
X95055816Y-35264118D01*
X95017721Y-35302213D01*
X94941530Y-35340308D01*
X94865340Y-35340308D01*
X94789149Y-35302213D01*
X94751054Y-35264118D01*
X94712959Y-35187927D01*
X94674863Y-35035546D01*
X94674863Y-34845070D01*
X94712959Y-34692689D01*
X94751054Y-34616499D01*
X94789149Y-34578404D01*
X94865340Y-34540308D01*
X96046292Y-34502213D02*
X95360578Y-35530784D01*
X96312959Y-35340308D02*
X96312959Y-34540308D01*
X96503435Y-34540308D01*
X96617721Y-34578404D01*
X96693911Y-34654594D01*
X96732006Y-34730784D01*
X96770101Y-34883165D01*
X96770101Y-34997451D01*
X96732006Y-35149832D01*
X96693911Y-35226023D01*
X96617721Y-35302213D01*
X96503435Y-35340308D01*
X96312959Y-35340308D01*
X97036768Y-34540308D02*
X97532006Y-34540308D01*
X97265340Y-34845070D01*
X97379625Y-34845070D01*
X97455816Y-34883165D01*
X97493911Y-34921261D01*
X97532006Y-34997451D01*
X97532006Y-35187927D01*
X97493911Y-35264118D01*
X97455816Y-35302213D01*
X97379625Y-35340308D01*
X97151054Y-35340308D01*
X97074863Y-35302213D01*
X97036768Y-35264118D01*
%TO.C,SW41*%
X146384354Y-95158927D02*
X146431973Y-95016070D01*
X146431973Y-94777975D01*
X146384354Y-94682737D01*
X146336735Y-94635118D01*
X146241497Y-94587499D01*
X146146259Y-94587499D01*
X146051021Y-94635118D01*
X146003402Y-94682737D01*
X145955783Y-94777975D01*
X145908164Y-94968451D01*
X145860545Y-95063689D01*
X145812926Y-95111308D01*
X145717688Y-95158927D01*
X145622450Y-95158927D01*
X145527212Y-95111308D01*
X145479593Y-95063689D01*
X145431973Y-94968451D01*
X145431973Y-94730356D01*
X145479593Y-94587499D01*
X145431973Y-94254165D02*
X146431973Y-94016070D01*
X145717688Y-93825594D01*
X146431973Y-93635118D01*
X145431973Y-93397023D01*
X145765307Y-92587499D02*
X146431973Y-92587499D01*
X145384354Y-92825594D02*
X146098640Y-93063689D01*
X146098640Y-92444642D01*
X146431973Y-91539880D02*
X146431973Y-92111308D01*
X146431973Y-91825594D02*
X145431973Y-91825594D01*
X145574831Y-91920832D01*
X145670069Y-92016070D01*
X145717688Y-92111308D01*
%TD*%
M02*
