%TF.GenerationSoftware,KiCad,Pcbnew,(5.1.10)-1*%
%TF.CreationDate,2021-12-13T12:41:32-08:00*%
%TF.ProjectId,luakeeb,6c75616b-6565-4622-9e6b-696361645f70,rev?*%
%TF.SameCoordinates,Original*%
%TF.FileFunction,Copper,L1,Top*%
%TF.FilePolarity,Positive*%
%FSLAX46Y46*%
G04 Gerber Fmt 4.6, Leading zero omitted, Abs format (unit mm)*
G04 Created by KiCad (PCBNEW (5.1.10)-1) date 2021-12-13 12:41:32*
%MOMM*%
%LPD*%
G01*
G04 APERTURE LIST*
%TA.AperFunction,ComponentPad*%
%ADD10C,2.286000*%
%TD*%
%TA.AperFunction,ComponentPad*%
%ADD11R,2.000000X2.000000*%
%TD*%
%TA.AperFunction,ComponentPad*%
%ADD12C,2.000000*%
%TD*%
%TA.AperFunction,SMDPad,CuDef*%
%ADD13C,0.100000*%
%TD*%
%TA.AperFunction,SMDPad,CuDef*%
%ADD14R,0.900000X1.200000*%
%TD*%
%TA.AperFunction,SMDPad,CuDef*%
%ADD15R,1.200000X0.900000*%
%TD*%
%TA.AperFunction,ComponentPad*%
%ADD16O,1.600000X2.000000*%
%TD*%
%TA.AperFunction,ComponentPad*%
%ADD17R,1.752600X1.752600*%
%TD*%
%TA.AperFunction,ComponentPad*%
%ADD18C,1.752600*%
%TD*%
%TA.AperFunction,SMDPad,CuDef*%
%ADD19R,1.100000X1.800000*%
%TD*%
%TA.AperFunction,ViaPad*%
%ADD20C,0.800000*%
%TD*%
%TA.AperFunction,Conductor*%
%ADD21C,0.381000*%
%TD*%
%TA.AperFunction,Conductor*%
%ADD22C,0.254000*%
%TD*%
G04 APERTURE END LIST*
%TO.P,J3,MP*%
%TO.N,N/C*%
%TA.AperFunction,SMDPad,CuDef*%
G36*
G01*
X151062592Y-63438404D02*
X152362594Y-63438404D01*
G75*
G02*
X152612593Y-63688403I0J-249999D01*
G01*
X152612593Y-64388405D01*
G75*
G02*
X152362594Y-64638404I-249999J0D01*
G01*
X151062592Y-64638404D01*
G75*
G02*
X150812593Y-64388405I0J249999D01*
G01*
X150812593Y-63688403D01*
G75*
G02*
X151062592Y-63438404I249999J0D01*
G01*
G37*
%TD.AperFunction*%
%TA.AperFunction,SMDPad,CuDef*%
G36*
G01*
X151062592Y-57838404D02*
X152362594Y-57838404D01*
G75*
G02*
X152612593Y-58088403I0J-249999D01*
G01*
X152612593Y-58788405D01*
G75*
G02*
X152362594Y-59038404I-249999J0D01*
G01*
X151062592Y-59038404D01*
G75*
G02*
X150812593Y-58788405I0J249999D01*
G01*
X150812593Y-58088403D01*
G75*
G02*
X151062592Y-57838404I249999J0D01*
G01*
G37*
%TD.AperFunction*%
%TO.P,J3,4*%
%TO.N,scl*%
%TA.AperFunction,SMDPad,CuDef*%
G36*
G01*
X148562593Y-62438404D02*
X149812593Y-62438404D01*
G75*
G02*
X149962593Y-62588404I0J-150000D01*
G01*
X149962593Y-62888404D01*
G75*
G02*
X149812593Y-63038404I-150000J0D01*
G01*
X148562593Y-63038404D01*
G75*
G02*
X148412593Y-62888404I0J150000D01*
G01*
X148412593Y-62588404D01*
G75*
G02*
X148562593Y-62438404I150000J0D01*
G01*
G37*
%TD.AperFunction*%
%TO.P,J3,3*%
%TO.N,sda*%
%TA.AperFunction,SMDPad,CuDef*%
G36*
G01*
X148562593Y-61438404D02*
X149812593Y-61438404D01*
G75*
G02*
X149962593Y-61588404I0J-150000D01*
G01*
X149962593Y-61888404D01*
G75*
G02*
X149812593Y-62038404I-150000J0D01*
G01*
X148562593Y-62038404D01*
G75*
G02*
X148412593Y-61888404I0J150000D01*
G01*
X148412593Y-61588404D01*
G75*
G02*
X148562593Y-61438404I150000J0D01*
G01*
G37*
%TD.AperFunction*%
%TO.P,J3,2*%
%TO.N,+5V*%
%TA.AperFunction,SMDPad,CuDef*%
G36*
G01*
X148562593Y-60438404D02*
X149812593Y-60438404D01*
G75*
G02*
X149962593Y-60588404I0J-150000D01*
G01*
X149962593Y-60888404D01*
G75*
G02*
X149812593Y-61038404I-150000J0D01*
G01*
X148562593Y-61038404D01*
G75*
G02*
X148412593Y-60888404I0J150000D01*
G01*
X148412593Y-60588404D01*
G75*
G02*
X148562593Y-60438404I150000J0D01*
G01*
G37*
%TD.AperFunction*%
%TO.P,J3,1*%
%TO.N,GND*%
%TA.AperFunction,SMDPad,CuDef*%
G36*
G01*
X148562593Y-59438404D02*
X149812593Y-59438404D01*
G75*
G02*
X149962593Y-59588404I0J-150000D01*
G01*
X149962593Y-59888404D01*
G75*
G02*
X149812593Y-60038404I-150000J0D01*
G01*
X148562593Y-60038404D01*
G75*
G02*
X148412593Y-59888404I0J150000D01*
G01*
X148412593Y-59588404D01*
G75*
G02*
X148562593Y-59438404I150000J0D01*
G01*
G37*
%TD.AperFunction*%
%TD*%
D10*
%TO.P,SW16,2*%
%TO.N,col0*%
X44807588Y-105566485D03*
%TO.P,SW16,1*%
%TO.N,Net-(D85-Pad2)*%
X38457588Y-108106485D03*
X43537588Y-108106485D03*
%TO.P,SW16,2*%
%TO.N,col0*%
X37187588Y-105566485D03*
%TD*%
%TO.P,SW10,2*%
%TO.N,col0*%
X44807589Y-86566486D03*
%TO.P,SW10,1*%
%TO.N,Net-(D83-Pad2)*%
X38457589Y-89106486D03*
X43537589Y-89106486D03*
%TO.P,SW10,2*%
%TO.N,col0*%
X37187589Y-86566486D03*
%TD*%
%TO.P,SW9,2*%
%TO.N,col0*%
X44807589Y-67566487D03*
%TO.P,SW9,1*%
%TO.N,Net-(D80-Pad2)*%
X38457589Y-70106487D03*
X43537589Y-70106487D03*
%TO.P,SW9,2*%
%TO.N,col0*%
X37187589Y-67566487D03*
%TD*%
%TO.P,SW35,2*%
%TO.N,col5*%
X161913614Y-118481872D03*
%TO.P,SW35,1*%
%TO.N,Net-(D35-Pad2)*%
X155077834Y-118696863D03*
X159851473Y-120434326D03*
%TO.P,SW35,2*%
%TO.N,col5*%
X154753156Y-115875679D03*
%TD*%
%TO.P,SW34,2*%
%TO.N,col4*%
X142228725Y-112519768D03*
%TO.P,SW34,1*%
%TO.N,Net-(D30-Pad2)*%
X135534130Y-113918514D03*
X140536953Y-114800647D03*
%TO.P,SW34,2*%
%TO.N,col4*%
X134724490Y-111196569D03*
%TD*%
%TO.P,SW25,2*%
%TO.N,col5*%
X140807585Y-88566487D03*
%TO.P,SW25,1*%
%TO.N,Net-(D25-Pad2)*%
X134457585Y-91106487D03*
X139537585Y-91106487D03*
%TO.P,SW25,2*%
%TO.N,col5*%
X133187585Y-88566487D03*
%TD*%
%TO.P,SW24,2*%
%TO.N,col4*%
X121807586Y-86066487D03*
%TO.P,SW24,1*%
%TO.N,Net-(D24-Pad2)*%
X115457586Y-88606487D03*
X120537586Y-88606487D03*
%TO.P,SW24,2*%
%TO.N,col4*%
X114187586Y-86066487D03*
%TD*%
%TO.P,SW23,2*%
%TO.N,col3*%
X102807586Y-81066487D03*
%TO.P,SW23,1*%
%TO.N,Net-(D20-Pad2)*%
X96457586Y-83606487D03*
X101537586Y-83606487D03*
%TO.P,SW23,2*%
%TO.N,col3*%
X95187586Y-81066487D03*
%TD*%
%TO.P,SW22,2*%
%TO.N,col2*%
X83807587Y-86066486D03*
%TO.P,SW22,1*%
%TO.N,Net-(D17-Pad2)*%
X77457587Y-88606486D03*
X82537587Y-88606486D03*
%TO.P,SW22,2*%
%TO.N,col2*%
X76187587Y-86066486D03*
%TD*%
%TO.P,SW21,2*%
%TO.N,col1*%
X64807588Y-98566485D03*
%TO.P,SW21,1*%
%TO.N,Net-(D21-Pad2)*%
X58457588Y-101106485D03*
X63537588Y-101106485D03*
%TO.P,SW21,2*%
%TO.N,col1*%
X57187588Y-98566485D03*
%TD*%
%TO.P,SW15,2*%
%TO.N,col5*%
X140807585Y-69566488D03*
%TO.P,SW15,1*%
%TO.N,Net-(D15-Pad2)*%
X134457585Y-72106488D03*
X139537585Y-72106488D03*
%TO.P,SW15,2*%
%TO.N,col5*%
X133187585Y-69566488D03*
%TD*%
%TO.P,SW14,2*%
%TO.N,col4*%
X121807586Y-67066487D03*
%TO.P,SW14,1*%
%TO.N,Net-(D14-Pad2)*%
X115457586Y-69606487D03*
X120537586Y-69606487D03*
%TO.P,SW14,2*%
%TO.N,col4*%
X114187586Y-67066487D03*
%TD*%
%TO.P,SW13,2*%
%TO.N,col3*%
X102807587Y-62066487D03*
%TO.P,SW13,1*%
%TO.N,Net-(D13-Pad2)*%
X96457587Y-64606487D03*
X101537587Y-64606487D03*
%TO.P,SW13,2*%
%TO.N,col3*%
X95187587Y-62066487D03*
%TD*%
%TO.P,SW12,2*%
%TO.N,col2*%
X83807588Y-67066487D03*
%TO.P,SW12,1*%
%TO.N,Net-(D12-Pad2)*%
X77457588Y-69606487D03*
X82537588Y-69606487D03*
%TO.P,SW12,2*%
%TO.N,col2*%
X76187588Y-67066487D03*
%TD*%
%TO.P,SW11,2*%
%TO.N,col1*%
X64807589Y-79566486D03*
%TO.P,SW11,1*%
%TO.N,Net-(D11-Pad2)*%
X58457589Y-82106486D03*
X63537589Y-82106486D03*
%TO.P,SW11,2*%
%TO.N,col1*%
X57187589Y-79566486D03*
%TD*%
%TO.P,SW6,2*%
%TO.N,col3*%
X121807586Y-110066487D03*
%TO.P,SW6,1*%
%TO.N,Net-(D26-Pad2)*%
X115457586Y-112606487D03*
X120537586Y-112606487D03*
%TO.P,SW6,2*%
%TO.N,col3*%
X114187586Y-110066487D03*
%TD*%
%TO.P,SW5,2*%
%TO.N,col5*%
X140807585Y-50566489D03*
%TO.P,SW5,1*%
%TO.N,Net-(D31-Pad2)*%
X134457585Y-53106489D03*
X139537585Y-53106489D03*
%TO.P,SW5,2*%
%TO.N,col5*%
X133187585Y-50566489D03*
%TD*%
%TO.P,SW4,2*%
%TO.N,col4*%
X121807586Y-48066488D03*
%TO.P,SW4,1*%
%TO.N,Net-(D27-Pad2)*%
X115457586Y-50606488D03*
X120537586Y-50606488D03*
%TO.P,SW4,2*%
%TO.N,col4*%
X114187586Y-48066488D03*
%TD*%
%TO.P,SW3,2*%
%TO.N,col3*%
X102807587Y-43066488D03*
%TO.P,SW3,1*%
%TO.N,Net-(D18-Pad2)*%
X96457587Y-45606488D03*
X101537587Y-45606488D03*
%TO.P,SW3,2*%
%TO.N,col3*%
X95187587Y-43066488D03*
%TD*%
%TO.P,SW2,2*%
%TO.N,col2*%
X83807588Y-48066488D03*
%TO.P,SW2,1*%
%TO.N,Net-(D10-Pad2)*%
X77457588Y-50606488D03*
X82537588Y-50606488D03*
%TO.P,SW2,2*%
%TO.N,col2*%
X76187588Y-48066488D03*
%TD*%
%TO.P,SW1,2*%
%TO.N,col1*%
X64807589Y-60566487D03*
%TO.P,SW1,1*%
%TO.N,Net-(D1-Pad2)*%
X58457589Y-63106487D03*
X63537589Y-63106487D03*
%TO.P,SW1,2*%
%TO.N,col1*%
X57187589Y-60566487D03*
%TD*%
D11*
%TO.P,SW42,A*%
%TO.N,ENC1A*%
X97011926Y-109529268D03*
D12*
%TO.P,SW42,C*%
%TO.N,GND*%
X97011926Y-107029268D03*
%TO.P,SW42,B*%
%TO.N,ENC1B*%
X97011926Y-104529268D03*
%TO.P,SW42,S2*%
%TO.N,Net-(D37-Pad2)*%
X82511926Y-109529268D03*
%TO.P,SW42,S1*%
%TO.N,col2*%
X82511926Y-104529268D03*
%TD*%
%TA.AperFunction,SMDPad,CuDef*%
D13*
%TO.P,JP2,2*%
%TO.N,Net-(D38-Pad4)*%
G36*
X53396495Y-106273904D02*
G01*
X53396495Y-106249370D01*
X53401305Y-106200539D01*
X53410877Y-106152414D01*
X53425121Y-106105459D01*
X53443898Y-106060126D01*
X53467029Y-106016853D01*
X53494289Y-105976054D01*
X53525417Y-105938125D01*
X53560114Y-105903428D01*
X53598043Y-105872300D01*
X53638842Y-105845040D01*
X53682115Y-105821909D01*
X53727448Y-105803132D01*
X53774403Y-105788888D01*
X53822528Y-105779316D01*
X53871359Y-105774506D01*
X53895893Y-105774506D01*
X53895893Y-105773904D01*
X54395893Y-105773904D01*
X54395893Y-105774506D01*
X54420427Y-105774506D01*
X54469258Y-105779316D01*
X54517383Y-105788888D01*
X54564338Y-105803132D01*
X54609671Y-105821909D01*
X54652944Y-105845040D01*
X54693743Y-105872300D01*
X54731672Y-105903428D01*
X54766369Y-105938125D01*
X54797497Y-105976054D01*
X54824757Y-106016853D01*
X54847888Y-106060126D01*
X54866665Y-106105459D01*
X54880909Y-106152414D01*
X54890481Y-106200539D01*
X54895291Y-106249370D01*
X54895291Y-106273904D01*
X54895893Y-106273904D01*
X54895893Y-106773904D01*
X53395893Y-106773904D01*
X53395893Y-106273904D01*
X53396495Y-106273904D01*
G37*
%TD.AperFunction*%
%TA.AperFunction,SMDPad,CuDef*%
%TO.P,JP2,1*%
%TO.N,led*%
G36*
X54895893Y-107073904D02*
G01*
X54895893Y-107573904D01*
X54895291Y-107573904D01*
X54895291Y-107598438D01*
X54890481Y-107647269D01*
X54880909Y-107695394D01*
X54866665Y-107742349D01*
X54847888Y-107787682D01*
X54824757Y-107830955D01*
X54797497Y-107871754D01*
X54766369Y-107909683D01*
X54731672Y-107944380D01*
X54693743Y-107975508D01*
X54652944Y-108002768D01*
X54609671Y-108025899D01*
X54564338Y-108044676D01*
X54517383Y-108058920D01*
X54469258Y-108068492D01*
X54420427Y-108073302D01*
X54395893Y-108073302D01*
X54395893Y-108073904D01*
X53895893Y-108073904D01*
X53895893Y-108073302D01*
X53871359Y-108073302D01*
X53822528Y-108068492D01*
X53774403Y-108058920D01*
X53727448Y-108044676D01*
X53682115Y-108025899D01*
X53638842Y-108002768D01*
X53598043Y-107975508D01*
X53560114Y-107944380D01*
X53525417Y-107909683D01*
X53494289Y-107871754D01*
X53467029Y-107830955D01*
X53443898Y-107787682D01*
X53425121Y-107742349D01*
X53410877Y-107695394D01*
X53401305Y-107647269D01*
X53396495Y-107598438D01*
X53396495Y-107573904D01*
X53395893Y-107573904D01*
X53395893Y-107073904D01*
X54895893Y-107073904D01*
G37*
%TD.AperFunction*%
%TD*%
D14*
%TO.P,D85,2*%
%TO.N,Net-(D85-Pad2)*%
X43542393Y-111673704D03*
%TO.P,D85,1*%
%TO.N,row2*%
X46842393Y-111673704D03*
%TD*%
%TO.P,D84,1*%
%TO.N,row1*%
X46842393Y-92572904D03*
%TO.P,D84,2*%
%TO.N,Net-(D83-Pad2)*%
X43542393Y-92572904D03*
%TD*%
%TO.P,D80,2*%
%TO.N,Net-(D80-Pad2)*%
X43580493Y-73700704D03*
%TO.P,D80,1*%
%TO.N,row0*%
X46880493Y-73700704D03*
%TD*%
%TO.P,D78,3*%
%TO.N,GND*%
%TA.AperFunction,SMDPad,CuDef*%
G36*
G01*
X44315589Y-59606488D02*
X42879589Y-59606488D01*
G75*
G02*
X42797589Y-59524488I0J82000D01*
G01*
X42797589Y-58868488D01*
G75*
G02*
X42879589Y-58786488I82000J0D01*
G01*
X44315589Y-58786488D01*
G75*
G02*
X44397589Y-58868488I0J-82000D01*
G01*
X44397589Y-59524488D01*
G75*
G02*
X44315589Y-59606488I-82000J0D01*
G01*
G37*
%TD.AperFunction*%
%TO.P,D78,4*%
%TO.N,Net-(D76-Pad2)*%
%TA.AperFunction,SMDPad,CuDef*%
G36*
G01*
X44315589Y-61106488D02*
X42879589Y-61106488D01*
G75*
G02*
X42797589Y-61024488I0J82000D01*
G01*
X42797589Y-60368488D01*
G75*
G02*
X42879589Y-60286488I82000J0D01*
G01*
X44315589Y-60286488D01*
G75*
G02*
X44397589Y-60368488I0J-82000D01*
G01*
X44397589Y-61024488D01*
G75*
G02*
X44315589Y-61106488I-82000J0D01*
G01*
G37*
%TD.AperFunction*%
%TO.P,D78,2*%
%TO.N,Net-(D38-Pad4)*%
%TA.AperFunction,SMDPad,CuDef*%
G36*
G01*
X39115589Y-59606488D02*
X37679589Y-59606488D01*
G75*
G02*
X37597589Y-59524488I0J82000D01*
G01*
X37597589Y-58868488D01*
G75*
G02*
X37679589Y-58786488I82000J0D01*
G01*
X39115589Y-58786488D01*
G75*
G02*
X39197589Y-58868488I0J-82000D01*
G01*
X39197589Y-59524488D01*
G75*
G02*
X39115589Y-59606488I-82000J0D01*
G01*
G37*
%TD.AperFunction*%
%TO.P,D78,1*%
%TO.N,+5V*%
%TA.AperFunction,SMDPad,CuDef*%
G36*
G01*
X39115589Y-61106488D02*
X37679589Y-61106488D01*
G75*
G02*
X37597589Y-61024488I0J82000D01*
G01*
X37597589Y-60368488D01*
G75*
G02*
X37679589Y-60286488I82000J0D01*
G01*
X39115589Y-60286488D01*
G75*
G02*
X39197589Y-60368488I0J-82000D01*
G01*
X39197589Y-61024488D01*
G75*
G02*
X39115589Y-61106488I-82000J0D01*
G01*
G37*
%TD.AperFunction*%
%TD*%
%TO.P,D76,3*%
%TO.N,GND*%
%TA.AperFunction,SMDPad,CuDef*%
G36*
G01*
X44315589Y-78606487D02*
X42879589Y-78606487D01*
G75*
G02*
X42797589Y-78524487I0J82000D01*
G01*
X42797589Y-77868487D01*
G75*
G02*
X42879589Y-77786487I82000J0D01*
G01*
X44315589Y-77786487D01*
G75*
G02*
X44397589Y-77868487I0J-82000D01*
G01*
X44397589Y-78524487D01*
G75*
G02*
X44315589Y-78606487I-82000J0D01*
G01*
G37*
%TD.AperFunction*%
%TO.P,D76,4*%
%TO.N,Net-(D74-Pad2)*%
%TA.AperFunction,SMDPad,CuDef*%
G36*
G01*
X44315589Y-80106487D02*
X42879589Y-80106487D01*
G75*
G02*
X42797589Y-80024487I0J82000D01*
G01*
X42797589Y-79368487D01*
G75*
G02*
X42879589Y-79286487I82000J0D01*
G01*
X44315589Y-79286487D01*
G75*
G02*
X44397589Y-79368487I0J-82000D01*
G01*
X44397589Y-80024487D01*
G75*
G02*
X44315589Y-80106487I-82000J0D01*
G01*
G37*
%TD.AperFunction*%
%TO.P,D76,2*%
%TO.N,Net-(D76-Pad2)*%
%TA.AperFunction,SMDPad,CuDef*%
G36*
G01*
X39115589Y-78606487D02*
X37679589Y-78606487D01*
G75*
G02*
X37597589Y-78524487I0J82000D01*
G01*
X37597589Y-77868487D01*
G75*
G02*
X37679589Y-77786487I82000J0D01*
G01*
X39115589Y-77786487D01*
G75*
G02*
X39197589Y-77868487I0J-82000D01*
G01*
X39197589Y-78524487D01*
G75*
G02*
X39115589Y-78606487I-82000J0D01*
G01*
G37*
%TD.AperFunction*%
%TO.P,D76,1*%
%TO.N,+5V*%
%TA.AperFunction,SMDPad,CuDef*%
G36*
G01*
X39115589Y-80106487D02*
X37679589Y-80106487D01*
G75*
G02*
X37597589Y-80024487I0J82000D01*
G01*
X37597589Y-79368487D01*
G75*
G02*
X37679589Y-79286487I82000J0D01*
G01*
X39115589Y-79286487D01*
G75*
G02*
X39197589Y-79368487I0J-82000D01*
G01*
X39197589Y-80024487D01*
G75*
G02*
X39115589Y-80106487I-82000J0D01*
G01*
G37*
%TD.AperFunction*%
%TD*%
%TO.P,D74,3*%
%TO.N,GND*%
%TA.AperFunction,SMDPad,CuDef*%
G36*
G01*
X44315588Y-97606486D02*
X42879588Y-97606486D01*
G75*
G02*
X42797588Y-97524486I0J82000D01*
G01*
X42797588Y-96868486D01*
G75*
G02*
X42879588Y-96786486I82000J0D01*
G01*
X44315588Y-96786486D01*
G75*
G02*
X44397588Y-96868486I0J-82000D01*
G01*
X44397588Y-97524486D01*
G75*
G02*
X44315588Y-97606486I-82000J0D01*
G01*
G37*
%TD.AperFunction*%
%TO.P,D74,4*%
%TO.N,led*%
%TA.AperFunction,SMDPad,CuDef*%
G36*
G01*
X44315588Y-99106486D02*
X42879588Y-99106486D01*
G75*
G02*
X42797588Y-99024486I0J82000D01*
G01*
X42797588Y-98368486D01*
G75*
G02*
X42879588Y-98286486I82000J0D01*
G01*
X44315588Y-98286486D01*
G75*
G02*
X44397588Y-98368486I0J-82000D01*
G01*
X44397588Y-99024486D01*
G75*
G02*
X44315588Y-99106486I-82000J0D01*
G01*
G37*
%TD.AperFunction*%
%TO.P,D74,2*%
%TO.N,Net-(D74-Pad2)*%
%TA.AperFunction,SMDPad,CuDef*%
G36*
G01*
X39115588Y-97606486D02*
X37679588Y-97606486D01*
G75*
G02*
X37597588Y-97524486I0J82000D01*
G01*
X37597588Y-96868486D01*
G75*
G02*
X37679588Y-96786486I82000J0D01*
G01*
X39115588Y-96786486D01*
G75*
G02*
X39197588Y-96868486I0J-82000D01*
G01*
X39197588Y-97524486D01*
G75*
G02*
X39115588Y-97606486I-82000J0D01*
G01*
G37*
%TD.AperFunction*%
%TO.P,D74,1*%
%TO.N,+5V*%
%TA.AperFunction,SMDPad,CuDef*%
G36*
G01*
X39115588Y-99106486D02*
X37679588Y-99106486D01*
G75*
G02*
X37597588Y-99024486I0J82000D01*
G01*
X37597588Y-98368486D01*
G75*
G02*
X37679588Y-98286486I82000J0D01*
G01*
X39115588Y-98286486D01*
G75*
G02*
X39197588Y-98368486I0J-82000D01*
G01*
X39197588Y-99024486D01*
G75*
G02*
X39115588Y-99106486I-82000J0D01*
G01*
G37*
%TD.AperFunction*%
%TD*%
D11*
%TO.P,SW7,A*%
%TO.N,ENC1A*%
X92011926Y-114529268D03*
D12*
%TO.P,SW7,C*%
%TO.N,GND*%
X89511926Y-114529268D03*
%TO.P,SW7,B*%
%TO.N,ENC1B*%
X87011926Y-114529268D03*
%TO.P,SW7,S2*%
%TO.N,Net-(D37-Pad2)*%
X92011926Y-100029268D03*
%TO.P,SW7,S1*%
%TO.N,col2*%
X87011926Y-100029268D03*
%TD*%
%TO.P,D73,3*%
%TO.N,GND*%
%TA.AperFunction,SMDPad,CuDef*%
G36*
G01*
X164173765Y-110833646D02*
X162824366Y-110342505D01*
G75*
G02*
X162775357Y-110237404I28046J77055D01*
G01*
X162999722Y-109620965D01*
G75*
G02*
X163104823Y-109571956I77055J-28046D01*
G01*
X164454222Y-110063097D01*
G75*
G02*
X164503231Y-110168198I-28046J-77055D01*
G01*
X164278866Y-110784637D01*
G75*
G02*
X164173765Y-110833646I-77055J28046D01*
G01*
G37*
%TD.AperFunction*%
%TO.P,D73,4*%
%TO.N,Net-(D71-Pad2)*%
%TA.AperFunction,SMDPad,CuDef*%
G36*
G01*
X163660735Y-112243185D02*
X162311336Y-111752044D01*
G75*
G02*
X162262327Y-111646943I28046J77055D01*
G01*
X162486692Y-111030504D01*
G75*
G02*
X162591793Y-110981495I77055J-28046D01*
G01*
X163941192Y-111472636D01*
G75*
G02*
X163990201Y-111577737I-28046J-77055D01*
G01*
X163765836Y-112194176D01*
G75*
G02*
X163660735Y-112243185I-77055J28046D01*
G01*
G37*
%TD.AperFunction*%
%TO.P,D73,2*%
%TO.N,Net-(D73-Pad2)*%
%TA.AperFunction,SMDPad,CuDef*%
G36*
G01*
X159287363Y-109055142D02*
X157937964Y-108564001D01*
G75*
G02*
X157888955Y-108458900I28046J77055D01*
G01*
X158113320Y-107842461D01*
G75*
G02*
X158218421Y-107793452I77055J-28046D01*
G01*
X159567820Y-108284593D01*
G75*
G02*
X159616829Y-108389694I-28046J-77055D01*
G01*
X159392464Y-109006133D01*
G75*
G02*
X159287363Y-109055142I-77055J28046D01*
G01*
G37*
%TD.AperFunction*%
%TO.P,D73,1*%
%TO.N,+5V*%
%TA.AperFunction,SMDPad,CuDef*%
G36*
G01*
X158774333Y-110464681D02*
X157424934Y-109973540D01*
G75*
G02*
X157375925Y-109868439I28046J77055D01*
G01*
X157600290Y-109252000D01*
G75*
G02*
X157705391Y-109202991I77055J-28046D01*
G01*
X159054790Y-109694132D01*
G75*
G02*
X159103799Y-109799233I-28046J-77055D01*
G01*
X158879434Y-110415672D01*
G75*
G02*
X158774333Y-110464681I-77055J28046D01*
G01*
G37*
%TD.AperFunction*%
%TD*%
%TO.P,D72,3*%
%TO.N,GND*%
%TA.AperFunction,SMDPad,CuDef*%
G36*
G01*
X102315586Y-73106488D02*
X100879586Y-73106488D01*
G75*
G02*
X100797586Y-73024488I0J82000D01*
G01*
X100797586Y-72368488D01*
G75*
G02*
X100879586Y-72286488I82000J0D01*
G01*
X102315586Y-72286488D01*
G75*
G02*
X102397586Y-72368488I0J-82000D01*
G01*
X102397586Y-73024488D01*
G75*
G02*
X102315586Y-73106488I-82000J0D01*
G01*
G37*
%TD.AperFunction*%
%TO.P,D72,4*%
%TO.N,Net-(D70-Pad2)*%
%TA.AperFunction,SMDPad,CuDef*%
G36*
G01*
X102315586Y-74606488D02*
X100879586Y-74606488D01*
G75*
G02*
X100797586Y-74524488I0J82000D01*
G01*
X100797586Y-73868488D01*
G75*
G02*
X100879586Y-73786488I82000J0D01*
G01*
X102315586Y-73786488D01*
G75*
G02*
X102397586Y-73868488I0J-82000D01*
G01*
X102397586Y-74524488D01*
G75*
G02*
X102315586Y-74606488I-82000J0D01*
G01*
G37*
%TD.AperFunction*%
%TO.P,D72,2*%
%TO.N,Net-(D39-Pad4)*%
%TA.AperFunction,SMDPad,CuDef*%
G36*
G01*
X97115586Y-73106488D02*
X95679586Y-73106488D01*
G75*
G02*
X95597586Y-73024488I0J82000D01*
G01*
X95597586Y-72368488D01*
G75*
G02*
X95679586Y-72286488I82000J0D01*
G01*
X97115586Y-72286488D01*
G75*
G02*
X97197586Y-72368488I0J-82000D01*
G01*
X97197586Y-73024488D01*
G75*
G02*
X97115586Y-73106488I-82000J0D01*
G01*
G37*
%TD.AperFunction*%
%TO.P,D72,1*%
%TO.N,+5V*%
%TA.AperFunction,SMDPad,CuDef*%
G36*
G01*
X97115586Y-74606488D02*
X95679586Y-74606488D01*
G75*
G02*
X95597586Y-74524488I0J82000D01*
G01*
X95597586Y-73868488D01*
G75*
G02*
X95679586Y-73786488I82000J0D01*
G01*
X97115586Y-73786488D01*
G75*
G02*
X97197586Y-73868488I0J-82000D01*
G01*
X97197586Y-74524488D01*
G75*
G02*
X97115586Y-74606488I-82000J0D01*
G01*
G37*
%TD.AperFunction*%
%TD*%
%TO.P,D71,3*%
%TO.N,GND*%
%TA.AperFunction,SMDPad,CuDef*%
G36*
G01*
X143126439Y-104595264D02*
X141712255Y-104345906D01*
G75*
G02*
X141645740Y-104250913I14239J80754D01*
G01*
X141759654Y-103604879D01*
G75*
G02*
X141854647Y-103538364I80754J-14239D01*
G01*
X143268831Y-103787722D01*
G75*
G02*
X143335346Y-103882715I-14239J-80754D01*
G01*
X143221432Y-104528749D01*
G75*
G02*
X143126439Y-104595264I-80754J14239D01*
G01*
G37*
%TD.AperFunction*%
%TO.P,D71,4*%
%TO.N,Net-(D68-Pad2)*%
%TA.AperFunction,SMDPad,CuDef*%
G36*
G01*
X142865967Y-106072476D02*
X141451783Y-105823118D01*
G75*
G02*
X141385268Y-105728125I14239J80754D01*
G01*
X141499182Y-105082091D01*
G75*
G02*
X141594175Y-105015576I80754J-14239D01*
G01*
X143008359Y-105264934D01*
G75*
G02*
X143074874Y-105359927I-14239J-80754D01*
G01*
X142960960Y-106005961D01*
G75*
G02*
X142865967Y-106072476I-80754J14239D01*
G01*
G37*
%TD.AperFunction*%
%TO.P,D71,2*%
%TO.N,Net-(D71-Pad2)*%
%TA.AperFunction,SMDPad,CuDef*%
G36*
G01*
X138005439Y-103692294D02*
X136591255Y-103442936D01*
G75*
G02*
X136524740Y-103347943I14239J80754D01*
G01*
X136638654Y-102701909D01*
G75*
G02*
X136733647Y-102635394I80754J-14239D01*
G01*
X138147831Y-102884752D01*
G75*
G02*
X138214346Y-102979745I-14239J-80754D01*
G01*
X138100432Y-103625779D01*
G75*
G02*
X138005439Y-103692294I-80754J14239D01*
G01*
G37*
%TD.AperFunction*%
%TO.P,D71,1*%
%TO.N,+5V*%
%TA.AperFunction,SMDPad,CuDef*%
G36*
G01*
X137744966Y-105169505D02*
X136330782Y-104920147D01*
G75*
G02*
X136264267Y-104825154I14239J80754D01*
G01*
X136378181Y-104179120D01*
G75*
G02*
X136473174Y-104112605I80754J-14239D01*
G01*
X137887358Y-104361963D01*
G75*
G02*
X137953873Y-104456956I-14239J-80754D01*
G01*
X137839959Y-105102990D01*
G75*
G02*
X137744966Y-105169505I-80754J14239D01*
G01*
G37*
%TD.AperFunction*%
%TD*%
%TO.P,D70,3*%
%TO.N,GND*%
%TA.AperFunction,SMDPad,CuDef*%
G36*
G01*
X102315587Y-54106488D02*
X100879587Y-54106488D01*
G75*
G02*
X100797587Y-54024488I0J82000D01*
G01*
X100797587Y-53368488D01*
G75*
G02*
X100879587Y-53286488I82000J0D01*
G01*
X102315587Y-53286488D01*
G75*
G02*
X102397587Y-53368488I0J-82000D01*
G01*
X102397587Y-54024488D01*
G75*
G02*
X102315587Y-54106488I-82000J0D01*
G01*
G37*
%TD.AperFunction*%
%TO.P,D70,4*%
%TO.N,Net-(D69-Pad2)*%
%TA.AperFunction,SMDPad,CuDef*%
G36*
G01*
X102315587Y-55606488D02*
X100879587Y-55606488D01*
G75*
G02*
X100797587Y-55524488I0J82000D01*
G01*
X100797587Y-54868488D01*
G75*
G02*
X100879587Y-54786488I82000J0D01*
G01*
X102315587Y-54786488D01*
G75*
G02*
X102397587Y-54868488I0J-82000D01*
G01*
X102397587Y-55524488D01*
G75*
G02*
X102315587Y-55606488I-82000J0D01*
G01*
G37*
%TD.AperFunction*%
%TO.P,D70,2*%
%TO.N,Net-(D70-Pad2)*%
%TA.AperFunction,SMDPad,CuDef*%
G36*
G01*
X97115587Y-54106488D02*
X95679587Y-54106488D01*
G75*
G02*
X95597587Y-54024488I0J82000D01*
G01*
X95597587Y-53368488D01*
G75*
G02*
X95679587Y-53286488I82000J0D01*
G01*
X97115587Y-53286488D01*
G75*
G02*
X97197587Y-53368488I0J-82000D01*
G01*
X97197587Y-54024488D01*
G75*
G02*
X97115587Y-54106488I-82000J0D01*
G01*
G37*
%TD.AperFunction*%
%TO.P,D70,1*%
%TO.N,+5V*%
%TA.AperFunction,SMDPad,CuDef*%
G36*
G01*
X97115587Y-55606488D02*
X95679587Y-55606488D01*
G75*
G02*
X95597587Y-55524488I0J82000D01*
G01*
X95597587Y-54868488D01*
G75*
G02*
X95679587Y-54786488I82000J0D01*
G01*
X97115587Y-54786488D01*
G75*
G02*
X97197587Y-54868488I0J-82000D01*
G01*
X97197587Y-55524488D01*
G75*
G02*
X97115587Y-55606488I-82000J0D01*
G01*
G37*
%TD.AperFunction*%
%TD*%
%TO.P,D69,3*%
%TO.N,GND*%
%TA.AperFunction,SMDPad,CuDef*%
G36*
G01*
X102315587Y-35106489D02*
X100879587Y-35106489D01*
G75*
G02*
X100797587Y-35024489I0J82000D01*
G01*
X100797587Y-34368489D01*
G75*
G02*
X100879587Y-34286489I82000J0D01*
G01*
X102315587Y-34286489D01*
G75*
G02*
X102397587Y-34368489I0J-82000D01*
G01*
X102397587Y-35024489D01*
G75*
G02*
X102315587Y-35106489I-82000J0D01*
G01*
G37*
%TD.AperFunction*%
%TO.P,D69,4*%
%TO.N,Net-(D67-Pad2)*%
%TA.AperFunction,SMDPad,CuDef*%
G36*
G01*
X102315587Y-36606489D02*
X100879587Y-36606489D01*
G75*
G02*
X100797587Y-36524489I0J82000D01*
G01*
X100797587Y-35868489D01*
G75*
G02*
X100879587Y-35786489I82000J0D01*
G01*
X102315587Y-35786489D01*
G75*
G02*
X102397587Y-35868489I0J-82000D01*
G01*
X102397587Y-36524489D01*
G75*
G02*
X102315587Y-36606489I-82000J0D01*
G01*
G37*
%TD.AperFunction*%
%TO.P,D69,2*%
%TO.N,Net-(D69-Pad2)*%
%TA.AperFunction,SMDPad,CuDef*%
G36*
G01*
X97115587Y-35106489D02*
X95679587Y-35106489D01*
G75*
G02*
X95597587Y-35024489I0J82000D01*
G01*
X95597587Y-34368489D01*
G75*
G02*
X95679587Y-34286489I82000J0D01*
G01*
X97115587Y-34286489D01*
G75*
G02*
X97197587Y-34368489I0J-82000D01*
G01*
X97197587Y-35024489D01*
G75*
G02*
X97115587Y-35106489I-82000J0D01*
G01*
G37*
%TD.AperFunction*%
%TO.P,D69,1*%
%TO.N,+5V*%
%TA.AperFunction,SMDPad,CuDef*%
G36*
G01*
X97115587Y-36606489D02*
X95679587Y-36606489D01*
G75*
G02*
X95597587Y-36524489I0J82000D01*
G01*
X95597587Y-35868489D01*
G75*
G02*
X95679587Y-35786489I82000J0D01*
G01*
X97115587Y-35786489D01*
G75*
G02*
X97197587Y-35868489I0J-82000D01*
G01*
X97197587Y-36524489D01*
G75*
G02*
X97115587Y-36606489I-82000J0D01*
G01*
G37*
%TD.AperFunction*%
%TD*%
%TO.P,D68,3*%
%TO.N,GND*%
%TA.AperFunction,SMDPad,CuDef*%
G36*
G01*
X121315586Y-102106488D02*
X119879586Y-102106488D01*
G75*
G02*
X119797586Y-102024488I0J82000D01*
G01*
X119797586Y-101368488D01*
G75*
G02*
X119879586Y-101286488I82000J0D01*
G01*
X121315586Y-101286488D01*
G75*
G02*
X121397586Y-101368488I0J-82000D01*
G01*
X121397586Y-102024488D01*
G75*
G02*
X121315586Y-102106488I-82000J0D01*
G01*
G37*
%TD.AperFunction*%
%TO.P,D68,4*%
%TO.N,Net-(D66-Pad2)*%
%TA.AperFunction,SMDPad,CuDef*%
G36*
G01*
X121315586Y-103606488D02*
X119879586Y-103606488D01*
G75*
G02*
X119797586Y-103524488I0J82000D01*
G01*
X119797586Y-102868488D01*
G75*
G02*
X119879586Y-102786488I82000J0D01*
G01*
X121315586Y-102786488D01*
G75*
G02*
X121397586Y-102868488I0J-82000D01*
G01*
X121397586Y-103524488D01*
G75*
G02*
X121315586Y-103606488I-82000J0D01*
G01*
G37*
%TD.AperFunction*%
%TO.P,D68,2*%
%TO.N,Net-(D68-Pad2)*%
%TA.AperFunction,SMDPad,CuDef*%
G36*
G01*
X116115586Y-102106488D02*
X114679586Y-102106488D01*
G75*
G02*
X114597586Y-102024488I0J82000D01*
G01*
X114597586Y-101368488D01*
G75*
G02*
X114679586Y-101286488I82000J0D01*
G01*
X116115586Y-101286488D01*
G75*
G02*
X116197586Y-101368488I0J-82000D01*
G01*
X116197586Y-102024488D01*
G75*
G02*
X116115586Y-102106488I-82000J0D01*
G01*
G37*
%TD.AperFunction*%
%TO.P,D68,1*%
%TO.N,+5V*%
%TA.AperFunction,SMDPad,CuDef*%
G36*
G01*
X116115586Y-103606488D02*
X114679586Y-103606488D01*
G75*
G02*
X114597586Y-103524488I0J82000D01*
G01*
X114597586Y-102868488D01*
G75*
G02*
X114679586Y-102786488I82000J0D01*
G01*
X116115586Y-102786488D01*
G75*
G02*
X116197586Y-102868488I0J-82000D01*
G01*
X116197586Y-103524488D01*
G75*
G02*
X116115586Y-103606488I-82000J0D01*
G01*
G37*
%TD.AperFunction*%
%TD*%
%TO.P,D67,3*%
%TO.N,GND*%
%TA.AperFunction,SMDPad,CuDef*%
G36*
G01*
X83315588Y-40106489D02*
X81879588Y-40106489D01*
G75*
G02*
X81797588Y-40024489I0J82000D01*
G01*
X81797588Y-39368489D01*
G75*
G02*
X81879588Y-39286489I82000J0D01*
G01*
X83315588Y-39286489D01*
G75*
G02*
X83397588Y-39368489I0J-82000D01*
G01*
X83397588Y-40024489D01*
G75*
G02*
X83315588Y-40106489I-82000J0D01*
G01*
G37*
%TD.AperFunction*%
%TO.P,D67,4*%
%TO.N,Net-(D65-Pad2)*%
%TA.AperFunction,SMDPad,CuDef*%
G36*
G01*
X83315588Y-41606489D02*
X81879588Y-41606489D01*
G75*
G02*
X81797588Y-41524489I0J82000D01*
G01*
X81797588Y-40868489D01*
G75*
G02*
X81879588Y-40786489I82000J0D01*
G01*
X83315588Y-40786489D01*
G75*
G02*
X83397588Y-40868489I0J-82000D01*
G01*
X83397588Y-41524489D01*
G75*
G02*
X83315588Y-41606489I-82000J0D01*
G01*
G37*
%TD.AperFunction*%
%TO.P,D67,2*%
%TO.N,Net-(D67-Pad2)*%
%TA.AperFunction,SMDPad,CuDef*%
G36*
G01*
X78115588Y-40106489D02*
X76679588Y-40106489D01*
G75*
G02*
X76597588Y-40024489I0J82000D01*
G01*
X76597588Y-39368489D01*
G75*
G02*
X76679588Y-39286489I82000J0D01*
G01*
X78115588Y-39286489D01*
G75*
G02*
X78197588Y-39368489I0J-82000D01*
G01*
X78197588Y-40024489D01*
G75*
G02*
X78115588Y-40106489I-82000J0D01*
G01*
G37*
%TD.AperFunction*%
%TO.P,D67,1*%
%TO.N,+5V*%
%TA.AperFunction,SMDPad,CuDef*%
G36*
G01*
X78115588Y-41606489D02*
X76679588Y-41606489D01*
G75*
G02*
X76597588Y-41524489I0J82000D01*
G01*
X76597588Y-40868489D01*
G75*
G02*
X76679588Y-40786489I82000J0D01*
G01*
X78115588Y-40786489D01*
G75*
G02*
X78197588Y-40868489I0J-82000D01*
G01*
X78197588Y-41524489D01*
G75*
G02*
X78115588Y-41606489I-82000J0D01*
G01*
G37*
%TD.AperFunction*%
%TD*%
%TO.P,D66,3*%
%TO.N,GND*%
%TA.AperFunction,SMDPad,CuDef*%
G36*
G01*
X140315585Y-80606488D02*
X138879585Y-80606488D01*
G75*
G02*
X138797585Y-80524488I0J82000D01*
G01*
X138797585Y-79868488D01*
G75*
G02*
X138879585Y-79786488I82000J0D01*
G01*
X140315585Y-79786488D01*
G75*
G02*
X140397585Y-79868488I0J-82000D01*
G01*
X140397585Y-80524488D01*
G75*
G02*
X140315585Y-80606488I-82000J0D01*
G01*
G37*
%TD.AperFunction*%
%TO.P,D66,4*%
%TO.N,Net-(D64-Pad2)*%
%TA.AperFunction,SMDPad,CuDef*%
G36*
G01*
X140315585Y-82106488D02*
X138879585Y-82106488D01*
G75*
G02*
X138797585Y-82024488I0J82000D01*
G01*
X138797585Y-81368488D01*
G75*
G02*
X138879585Y-81286488I82000J0D01*
G01*
X140315585Y-81286488D01*
G75*
G02*
X140397585Y-81368488I0J-82000D01*
G01*
X140397585Y-82024488D01*
G75*
G02*
X140315585Y-82106488I-82000J0D01*
G01*
G37*
%TD.AperFunction*%
%TO.P,D66,2*%
%TO.N,Net-(D66-Pad2)*%
%TA.AperFunction,SMDPad,CuDef*%
G36*
G01*
X135115585Y-80606488D02*
X133679585Y-80606488D01*
G75*
G02*
X133597585Y-80524488I0J82000D01*
G01*
X133597585Y-79868488D01*
G75*
G02*
X133679585Y-79786488I82000J0D01*
G01*
X135115585Y-79786488D01*
G75*
G02*
X135197585Y-79868488I0J-82000D01*
G01*
X135197585Y-80524488D01*
G75*
G02*
X135115585Y-80606488I-82000J0D01*
G01*
G37*
%TD.AperFunction*%
%TO.P,D66,1*%
%TO.N,+5V*%
%TA.AperFunction,SMDPad,CuDef*%
G36*
G01*
X135115585Y-82106488D02*
X133679585Y-82106488D01*
G75*
G02*
X133597585Y-82024488I0J82000D01*
G01*
X133597585Y-81368488D01*
G75*
G02*
X133679585Y-81286488I82000J0D01*
G01*
X135115585Y-81286488D01*
G75*
G02*
X135197585Y-81368488I0J-82000D01*
G01*
X135197585Y-82024488D01*
G75*
G02*
X135115585Y-82106488I-82000J0D01*
G01*
G37*
%TD.AperFunction*%
%TD*%
%TO.P,D65,3*%
%TO.N,GND*%
%TA.AperFunction,SMDPad,CuDef*%
G36*
G01*
X83315588Y-59106488D02*
X81879588Y-59106488D01*
G75*
G02*
X81797588Y-59024488I0J82000D01*
G01*
X81797588Y-58368488D01*
G75*
G02*
X81879588Y-58286488I82000J0D01*
G01*
X83315588Y-58286488D01*
G75*
G02*
X83397588Y-58368488I0J-82000D01*
G01*
X83397588Y-59024488D01*
G75*
G02*
X83315588Y-59106488I-82000J0D01*
G01*
G37*
%TD.AperFunction*%
%TO.P,D65,4*%
%TO.N,Net-(D63-Pad2)*%
%TA.AperFunction,SMDPad,CuDef*%
G36*
G01*
X83315588Y-60606488D02*
X81879588Y-60606488D01*
G75*
G02*
X81797588Y-60524488I0J82000D01*
G01*
X81797588Y-59868488D01*
G75*
G02*
X81879588Y-59786488I82000J0D01*
G01*
X83315588Y-59786488D01*
G75*
G02*
X83397588Y-59868488I0J-82000D01*
G01*
X83397588Y-60524488D01*
G75*
G02*
X83315588Y-60606488I-82000J0D01*
G01*
G37*
%TD.AperFunction*%
%TO.P,D65,2*%
%TO.N,Net-(D65-Pad2)*%
%TA.AperFunction,SMDPad,CuDef*%
G36*
G01*
X78115588Y-59106488D02*
X76679588Y-59106488D01*
G75*
G02*
X76597588Y-59024488I0J82000D01*
G01*
X76597588Y-58368488D01*
G75*
G02*
X76679588Y-58286488I82000J0D01*
G01*
X78115588Y-58286488D01*
G75*
G02*
X78197588Y-58368488I0J-82000D01*
G01*
X78197588Y-59024488D01*
G75*
G02*
X78115588Y-59106488I-82000J0D01*
G01*
G37*
%TD.AperFunction*%
%TO.P,D65,1*%
%TO.N,+5V*%
%TA.AperFunction,SMDPad,CuDef*%
G36*
G01*
X78115588Y-60606488D02*
X76679588Y-60606488D01*
G75*
G02*
X76597588Y-60524488I0J82000D01*
G01*
X76597588Y-59868488D01*
G75*
G02*
X76679588Y-59786488I82000J0D01*
G01*
X78115588Y-59786488D01*
G75*
G02*
X78197588Y-59868488I0J-82000D01*
G01*
X78197588Y-60524488D01*
G75*
G02*
X78115588Y-60606488I-82000J0D01*
G01*
G37*
%TD.AperFunction*%
%TD*%
%TO.P,D64,3*%
%TO.N,GND*%
%TA.AperFunction,SMDPad,CuDef*%
G36*
G01*
X140315585Y-61606489D02*
X138879585Y-61606489D01*
G75*
G02*
X138797585Y-61524489I0J82000D01*
G01*
X138797585Y-60868489D01*
G75*
G02*
X138879585Y-60786489I82000J0D01*
G01*
X140315585Y-60786489D01*
G75*
G02*
X140397585Y-60868489I0J-82000D01*
G01*
X140397585Y-61524489D01*
G75*
G02*
X140315585Y-61606489I-82000J0D01*
G01*
G37*
%TD.AperFunction*%
%TO.P,D64,4*%
%TO.N,Net-(D62-Pad2)*%
%TA.AperFunction,SMDPad,CuDef*%
G36*
G01*
X140315585Y-63106489D02*
X138879585Y-63106489D01*
G75*
G02*
X138797585Y-63024489I0J82000D01*
G01*
X138797585Y-62368489D01*
G75*
G02*
X138879585Y-62286489I82000J0D01*
G01*
X140315585Y-62286489D01*
G75*
G02*
X140397585Y-62368489I0J-82000D01*
G01*
X140397585Y-63024489D01*
G75*
G02*
X140315585Y-63106489I-82000J0D01*
G01*
G37*
%TD.AperFunction*%
%TO.P,D64,2*%
%TO.N,Net-(D64-Pad2)*%
%TA.AperFunction,SMDPad,CuDef*%
G36*
G01*
X135115585Y-61606489D02*
X133679585Y-61606489D01*
G75*
G02*
X133597585Y-61524489I0J82000D01*
G01*
X133597585Y-60868489D01*
G75*
G02*
X133679585Y-60786489I82000J0D01*
G01*
X135115585Y-60786489D01*
G75*
G02*
X135197585Y-60868489I0J-82000D01*
G01*
X135197585Y-61524489D01*
G75*
G02*
X135115585Y-61606489I-82000J0D01*
G01*
G37*
%TD.AperFunction*%
%TO.P,D64,1*%
%TO.N,+5V*%
%TA.AperFunction,SMDPad,CuDef*%
G36*
G01*
X135115585Y-63106489D02*
X133679585Y-63106489D01*
G75*
G02*
X133597585Y-63024489I0J82000D01*
G01*
X133597585Y-62368489D01*
G75*
G02*
X133679585Y-62286489I82000J0D01*
G01*
X135115585Y-62286489D01*
G75*
G02*
X135197585Y-62368489I0J-82000D01*
G01*
X135197585Y-63024489D01*
G75*
G02*
X135115585Y-63106489I-82000J0D01*
G01*
G37*
%TD.AperFunction*%
%TD*%
%TO.P,D63,3*%
%TO.N,GND*%
%TA.AperFunction,SMDPad,CuDef*%
G36*
G01*
X83315587Y-78106487D02*
X81879587Y-78106487D01*
G75*
G02*
X81797587Y-78024487I0J82000D01*
G01*
X81797587Y-77368487D01*
G75*
G02*
X81879587Y-77286487I82000J0D01*
G01*
X83315587Y-77286487D01*
G75*
G02*
X83397587Y-77368487I0J-82000D01*
G01*
X83397587Y-78024487D01*
G75*
G02*
X83315587Y-78106487I-82000J0D01*
G01*
G37*
%TD.AperFunction*%
%TO.P,D63,4*%
%TO.N,Net-(D58-Pad2)*%
%TA.AperFunction,SMDPad,CuDef*%
G36*
G01*
X83315587Y-79606487D02*
X81879587Y-79606487D01*
G75*
G02*
X81797587Y-79524487I0J82000D01*
G01*
X81797587Y-78868487D01*
G75*
G02*
X81879587Y-78786487I82000J0D01*
G01*
X83315587Y-78786487D01*
G75*
G02*
X83397587Y-78868487I0J-82000D01*
G01*
X83397587Y-79524487D01*
G75*
G02*
X83315587Y-79606487I-82000J0D01*
G01*
G37*
%TD.AperFunction*%
%TO.P,D63,2*%
%TO.N,Net-(D63-Pad2)*%
%TA.AperFunction,SMDPad,CuDef*%
G36*
G01*
X78115587Y-78106487D02*
X76679587Y-78106487D01*
G75*
G02*
X76597587Y-78024487I0J82000D01*
G01*
X76597587Y-77368487D01*
G75*
G02*
X76679587Y-77286487I82000J0D01*
G01*
X78115587Y-77286487D01*
G75*
G02*
X78197587Y-77368487I0J-82000D01*
G01*
X78197587Y-78024487D01*
G75*
G02*
X78115587Y-78106487I-82000J0D01*
G01*
G37*
%TD.AperFunction*%
%TO.P,D63,1*%
%TO.N,+5V*%
%TA.AperFunction,SMDPad,CuDef*%
G36*
G01*
X78115587Y-79606487D02*
X76679587Y-79606487D01*
G75*
G02*
X76597587Y-79524487I0J82000D01*
G01*
X76597587Y-78868487D01*
G75*
G02*
X76679587Y-78786487I82000J0D01*
G01*
X78115587Y-78786487D01*
G75*
G02*
X78197587Y-78868487I0J-82000D01*
G01*
X78197587Y-79524487D01*
G75*
G02*
X78115587Y-79606487I-82000J0D01*
G01*
G37*
%TD.AperFunction*%
%TD*%
%TO.P,D62,3*%
%TO.N,GND*%
%TA.AperFunction,SMDPad,CuDef*%
G36*
G01*
X140315585Y-42606490D02*
X138879585Y-42606490D01*
G75*
G02*
X138797585Y-42524490I0J82000D01*
G01*
X138797585Y-41868490D01*
G75*
G02*
X138879585Y-41786490I82000J0D01*
G01*
X140315585Y-41786490D01*
G75*
G02*
X140397585Y-41868490I0J-82000D01*
G01*
X140397585Y-42524490D01*
G75*
G02*
X140315585Y-42606490I-82000J0D01*
G01*
G37*
%TD.AperFunction*%
%TO.P,D62,4*%
%TO.N,Net-(D61-Pad2)*%
%TA.AperFunction,SMDPad,CuDef*%
G36*
G01*
X140315585Y-44106490D02*
X138879585Y-44106490D01*
G75*
G02*
X138797585Y-44024490I0J82000D01*
G01*
X138797585Y-43368490D01*
G75*
G02*
X138879585Y-43286490I82000J0D01*
G01*
X140315585Y-43286490D01*
G75*
G02*
X140397585Y-43368490I0J-82000D01*
G01*
X140397585Y-44024490D01*
G75*
G02*
X140315585Y-44106490I-82000J0D01*
G01*
G37*
%TD.AperFunction*%
%TO.P,D62,2*%
%TO.N,Net-(D62-Pad2)*%
%TA.AperFunction,SMDPad,CuDef*%
G36*
G01*
X135115585Y-42606490D02*
X133679585Y-42606490D01*
G75*
G02*
X133597585Y-42524490I0J82000D01*
G01*
X133597585Y-41868490D01*
G75*
G02*
X133679585Y-41786490I82000J0D01*
G01*
X135115585Y-41786490D01*
G75*
G02*
X135197585Y-41868490I0J-82000D01*
G01*
X135197585Y-42524490D01*
G75*
G02*
X135115585Y-42606490I-82000J0D01*
G01*
G37*
%TD.AperFunction*%
%TO.P,D62,1*%
%TO.N,+5V*%
%TA.AperFunction,SMDPad,CuDef*%
G36*
G01*
X135115585Y-44106490D02*
X133679585Y-44106490D01*
G75*
G02*
X133597585Y-44024490I0J82000D01*
G01*
X133597585Y-43368490D01*
G75*
G02*
X133679585Y-43286490I82000J0D01*
G01*
X135115585Y-43286490D01*
G75*
G02*
X135197585Y-43368490I0J-82000D01*
G01*
X135197585Y-44024490D01*
G75*
G02*
X135115585Y-44106490I-82000J0D01*
G01*
G37*
%TD.AperFunction*%
%TD*%
%TO.P,D61,3*%
%TO.N,GND*%
%TA.AperFunction,SMDPad,CuDef*%
G36*
G01*
X121315586Y-40106489D02*
X119879586Y-40106489D01*
G75*
G02*
X119797586Y-40024489I0J82000D01*
G01*
X119797586Y-39368489D01*
G75*
G02*
X119879586Y-39286489I82000J0D01*
G01*
X121315586Y-39286489D01*
G75*
G02*
X121397586Y-39368489I0J-82000D01*
G01*
X121397586Y-40024489D01*
G75*
G02*
X121315586Y-40106489I-82000J0D01*
G01*
G37*
%TD.AperFunction*%
%TO.P,D61,4*%
%TO.N,Net-(D44-Pad2)*%
%TA.AperFunction,SMDPad,CuDef*%
G36*
G01*
X121315586Y-41606489D02*
X119879586Y-41606489D01*
G75*
G02*
X119797586Y-41524489I0J82000D01*
G01*
X119797586Y-40868489D01*
G75*
G02*
X119879586Y-40786489I82000J0D01*
G01*
X121315586Y-40786489D01*
G75*
G02*
X121397586Y-40868489I0J-82000D01*
G01*
X121397586Y-41524489D01*
G75*
G02*
X121315586Y-41606489I-82000J0D01*
G01*
G37*
%TD.AperFunction*%
%TO.P,D61,2*%
%TO.N,Net-(D61-Pad2)*%
%TA.AperFunction,SMDPad,CuDef*%
G36*
G01*
X116115586Y-40106489D02*
X114679586Y-40106489D01*
G75*
G02*
X114597586Y-40024489I0J82000D01*
G01*
X114597586Y-39368489D01*
G75*
G02*
X114679586Y-39286489I82000J0D01*
G01*
X116115586Y-39286489D01*
G75*
G02*
X116197586Y-39368489I0J-82000D01*
G01*
X116197586Y-40024489D01*
G75*
G02*
X116115586Y-40106489I-82000J0D01*
G01*
G37*
%TD.AperFunction*%
%TO.P,D61,1*%
%TO.N,+5V*%
%TA.AperFunction,SMDPad,CuDef*%
G36*
G01*
X116115586Y-41606489D02*
X114679586Y-41606489D01*
G75*
G02*
X114597586Y-41524489I0J82000D01*
G01*
X114597586Y-40868489D01*
G75*
G02*
X114679586Y-40786489I82000J0D01*
G01*
X116115586Y-40786489D01*
G75*
G02*
X116197586Y-40868489I0J-82000D01*
G01*
X116197586Y-41524489D01*
G75*
G02*
X116115586Y-41606489I-82000J0D01*
G01*
G37*
%TD.AperFunction*%
%TD*%
%TO.P,D58,3*%
%TO.N,GND*%
%TA.AperFunction,SMDPad,CuDef*%
G36*
G01*
X64315588Y-90606486D02*
X62879588Y-90606486D01*
G75*
G02*
X62797588Y-90524486I0J82000D01*
G01*
X62797588Y-89868486D01*
G75*
G02*
X62879588Y-89786486I82000J0D01*
G01*
X64315588Y-89786486D01*
G75*
G02*
X64397588Y-89868486I0J-82000D01*
G01*
X64397588Y-90524486D01*
G75*
G02*
X64315588Y-90606486I-82000J0D01*
G01*
G37*
%TD.AperFunction*%
%TO.P,D58,4*%
%TO.N,Net-(D40-Pad2)*%
%TA.AperFunction,SMDPad,CuDef*%
G36*
G01*
X64315588Y-92106486D02*
X62879588Y-92106486D01*
G75*
G02*
X62797588Y-92024486I0J82000D01*
G01*
X62797588Y-91368486D01*
G75*
G02*
X62879588Y-91286486I82000J0D01*
G01*
X64315588Y-91286486D01*
G75*
G02*
X64397588Y-91368486I0J-82000D01*
G01*
X64397588Y-92024486D01*
G75*
G02*
X64315588Y-92106486I-82000J0D01*
G01*
G37*
%TD.AperFunction*%
%TO.P,D58,2*%
%TO.N,Net-(D58-Pad2)*%
%TA.AperFunction,SMDPad,CuDef*%
G36*
G01*
X59115588Y-90606486D02*
X57679588Y-90606486D01*
G75*
G02*
X57597588Y-90524486I0J82000D01*
G01*
X57597588Y-89868486D01*
G75*
G02*
X57679588Y-89786486I82000J0D01*
G01*
X59115588Y-89786486D01*
G75*
G02*
X59197588Y-89868486I0J-82000D01*
G01*
X59197588Y-90524486D01*
G75*
G02*
X59115588Y-90606486I-82000J0D01*
G01*
G37*
%TD.AperFunction*%
%TO.P,D58,1*%
%TO.N,+5V*%
%TA.AperFunction,SMDPad,CuDef*%
G36*
G01*
X59115588Y-92106486D02*
X57679588Y-92106486D01*
G75*
G02*
X57597588Y-92024486I0J82000D01*
G01*
X57597588Y-91368486D01*
G75*
G02*
X57679588Y-91286486I82000J0D01*
G01*
X59115588Y-91286486D01*
G75*
G02*
X59197588Y-91368486I0J-82000D01*
G01*
X59197588Y-92024486D01*
G75*
G02*
X59115588Y-92106486I-82000J0D01*
G01*
G37*
%TD.AperFunction*%
%TD*%
%TO.P,D44,3*%
%TO.N,GND*%
%TA.AperFunction,SMDPad,CuDef*%
G36*
G01*
X121315586Y-59106488D02*
X119879586Y-59106488D01*
G75*
G02*
X119797586Y-59024488I0J82000D01*
G01*
X119797586Y-58368488D01*
G75*
G02*
X119879586Y-58286488I82000J0D01*
G01*
X121315586Y-58286488D01*
G75*
G02*
X121397586Y-58368488I0J-82000D01*
G01*
X121397586Y-59024488D01*
G75*
G02*
X121315586Y-59106488I-82000J0D01*
G01*
G37*
%TD.AperFunction*%
%TO.P,D44,4*%
%TO.N,Net-(D39-Pad2)*%
%TA.AperFunction,SMDPad,CuDef*%
G36*
G01*
X121315586Y-60606488D02*
X119879586Y-60606488D01*
G75*
G02*
X119797586Y-60524488I0J82000D01*
G01*
X119797586Y-59868488D01*
G75*
G02*
X119879586Y-59786488I82000J0D01*
G01*
X121315586Y-59786488D01*
G75*
G02*
X121397586Y-59868488I0J-82000D01*
G01*
X121397586Y-60524488D01*
G75*
G02*
X121315586Y-60606488I-82000J0D01*
G01*
G37*
%TD.AperFunction*%
%TO.P,D44,2*%
%TO.N,Net-(D44-Pad2)*%
%TA.AperFunction,SMDPad,CuDef*%
G36*
G01*
X116115586Y-59106488D02*
X114679586Y-59106488D01*
G75*
G02*
X114597586Y-59024488I0J82000D01*
G01*
X114597586Y-58368488D01*
G75*
G02*
X114679586Y-58286488I82000J0D01*
G01*
X116115586Y-58286488D01*
G75*
G02*
X116197586Y-58368488I0J-82000D01*
G01*
X116197586Y-59024488D01*
G75*
G02*
X116115586Y-59106488I-82000J0D01*
G01*
G37*
%TD.AperFunction*%
%TO.P,D44,1*%
%TO.N,+5V*%
%TA.AperFunction,SMDPad,CuDef*%
G36*
G01*
X116115586Y-60606488D02*
X114679586Y-60606488D01*
G75*
G02*
X114597586Y-60524488I0J82000D01*
G01*
X114597586Y-59868488D01*
G75*
G02*
X114679586Y-59786488I82000J0D01*
G01*
X116115586Y-59786488D01*
G75*
G02*
X116197586Y-59868488I0J-82000D01*
G01*
X116197586Y-60524488D01*
G75*
G02*
X116115586Y-60606488I-82000J0D01*
G01*
G37*
%TD.AperFunction*%
%TD*%
%TO.P,D40,3*%
%TO.N,GND*%
%TA.AperFunction,SMDPad,CuDef*%
G36*
G01*
X64315589Y-71606487D02*
X62879589Y-71606487D01*
G75*
G02*
X62797589Y-71524487I0J82000D01*
G01*
X62797589Y-70868487D01*
G75*
G02*
X62879589Y-70786487I82000J0D01*
G01*
X64315589Y-70786487D01*
G75*
G02*
X64397589Y-70868487I0J-82000D01*
G01*
X64397589Y-71524487D01*
G75*
G02*
X64315589Y-71606487I-82000J0D01*
G01*
G37*
%TD.AperFunction*%
%TO.P,D40,4*%
%TO.N,Net-(D38-Pad2)*%
%TA.AperFunction,SMDPad,CuDef*%
G36*
G01*
X64315589Y-73106487D02*
X62879589Y-73106487D01*
G75*
G02*
X62797589Y-73024487I0J82000D01*
G01*
X62797589Y-72368487D01*
G75*
G02*
X62879589Y-72286487I82000J0D01*
G01*
X64315589Y-72286487D01*
G75*
G02*
X64397589Y-72368487I0J-82000D01*
G01*
X64397589Y-73024487D01*
G75*
G02*
X64315589Y-73106487I-82000J0D01*
G01*
G37*
%TD.AperFunction*%
%TO.P,D40,2*%
%TO.N,Net-(D40-Pad2)*%
%TA.AperFunction,SMDPad,CuDef*%
G36*
G01*
X59115589Y-71606487D02*
X57679589Y-71606487D01*
G75*
G02*
X57597589Y-71524487I0J82000D01*
G01*
X57597589Y-70868487D01*
G75*
G02*
X57679589Y-70786487I82000J0D01*
G01*
X59115589Y-70786487D01*
G75*
G02*
X59197589Y-70868487I0J-82000D01*
G01*
X59197589Y-71524487D01*
G75*
G02*
X59115589Y-71606487I-82000J0D01*
G01*
G37*
%TD.AperFunction*%
%TO.P,D40,1*%
%TO.N,+5V*%
%TA.AperFunction,SMDPad,CuDef*%
G36*
G01*
X59115589Y-73106487D02*
X57679589Y-73106487D01*
G75*
G02*
X57597589Y-73024487I0J82000D01*
G01*
X57597589Y-72368487D01*
G75*
G02*
X57679589Y-72286487I82000J0D01*
G01*
X59115589Y-72286487D01*
G75*
G02*
X59197589Y-72368487I0J-82000D01*
G01*
X59197589Y-73024487D01*
G75*
G02*
X59115589Y-73106487I-82000J0D01*
G01*
G37*
%TD.AperFunction*%
%TD*%
%TO.P,D39,3*%
%TO.N,GND*%
%TA.AperFunction,SMDPad,CuDef*%
G36*
G01*
X121315586Y-78106488D02*
X119879586Y-78106488D01*
G75*
G02*
X119797586Y-78024488I0J82000D01*
G01*
X119797586Y-77368488D01*
G75*
G02*
X119879586Y-77286488I82000J0D01*
G01*
X121315586Y-77286488D01*
G75*
G02*
X121397586Y-77368488I0J-82000D01*
G01*
X121397586Y-78024488D01*
G75*
G02*
X121315586Y-78106488I-82000J0D01*
G01*
G37*
%TD.AperFunction*%
%TO.P,D39,4*%
%TO.N,Net-(D39-Pad4)*%
%TA.AperFunction,SMDPad,CuDef*%
G36*
G01*
X121315586Y-79606488D02*
X119879586Y-79606488D01*
G75*
G02*
X119797586Y-79524488I0J82000D01*
G01*
X119797586Y-78868488D01*
G75*
G02*
X119879586Y-78786488I82000J0D01*
G01*
X121315586Y-78786488D01*
G75*
G02*
X121397586Y-78868488I0J-82000D01*
G01*
X121397586Y-79524488D01*
G75*
G02*
X121315586Y-79606488I-82000J0D01*
G01*
G37*
%TD.AperFunction*%
%TO.P,D39,2*%
%TO.N,Net-(D39-Pad2)*%
%TA.AperFunction,SMDPad,CuDef*%
G36*
G01*
X116115586Y-78106488D02*
X114679586Y-78106488D01*
G75*
G02*
X114597586Y-78024488I0J82000D01*
G01*
X114597586Y-77368488D01*
G75*
G02*
X114679586Y-77286488I82000J0D01*
G01*
X116115586Y-77286488D01*
G75*
G02*
X116197586Y-77368488I0J-82000D01*
G01*
X116197586Y-78024488D01*
G75*
G02*
X116115586Y-78106488I-82000J0D01*
G01*
G37*
%TD.AperFunction*%
%TO.P,D39,1*%
%TO.N,+5V*%
%TA.AperFunction,SMDPad,CuDef*%
G36*
G01*
X116115586Y-79606488D02*
X114679586Y-79606488D01*
G75*
G02*
X114597586Y-79524488I0J82000D01*
G01*
X114597586Y-78868488D01*
G75*
G02*
X114679586Y-78786488I82000J0D01*
G01*
X116115586Y-78786488D01*
G75*
G02*
X116197586Y-78868488I0J-82000D01*
G01*
X116197586Y-79524488D01*
G75*
G02*
X116115586Y-79606488I-82000J0D01*
G01*
G37*
%TD.AperFunction*%
%TD*%
%TO.P,D38,3*%
%TO.N,GND*%
%TA.AperFunction,SMDPad,CuDef*%
G36*
G01*
X64315589Y-52606488D02*
X62879589Y-52606488D01*
G75*
G02*
X62797589Y-52524488I0J82000D01*
G01*
X62797589Y-51868488D01*
G75*
G02*
X62879589Y-51786488I82000J0D01*
G01*
X64315589Y-51786488D01*
G75*
G02*
X64397589Y-51868488I0J-82000D01*
G01*
X64397589Y-52524488D01*
G75*
G02*
X64315589Y-52606488I-82000J0D01*
G01*
G37*
%TD.AperFunction*%
%TO.P,D38,4*%
%TO.N,Net-(D38-Pad4)*%
%TA.AperFunction,SMDPad,CuDef*%
G36*
G01*
X64315589Y-54106488D02*
X62879589Y-54106488D01*
G75*
G02*
X62797589Y-54024488I0J82000D01*
G01*
X62797589Y-53368488D01*
G75*
G02*
X62879589Y-53286488I82000J0D01*
G01*
X64315589Y-53286488D01*
G75*
G02*
X64397589Y-53368488I0J-82000D01*
G01*
X64397589Y-54024488D01*
G75*
G02*
X64315589Y-54106488I-82000J0D01*
G01*
G37*
%TD.AperFunction*%
%TO.P,D38,2*%
%TO.N,Net-(D38-Pad2)*%
%TA.AperFunction,SMDPad,CuDef*%
G36*
G01*
X59115589Y-52606488D02*
X57679589Y-52606488D01*
G75*
G02*
X57597589Y-52524488I0J82000D01*
G01*
X57597589Y-51868488D01*
G75*
G02*
X57679589Y-51786488I82000J0D01*
G01*
X59115589Y-51786488D01*
G75*
G02*
X59197589Y-51868488I0J-82000D01*
G01*
X59197589Y-52524488D01*
G75*
G02*
X59115589Y-52606488I-82000J0D01*
G01*
G37*
%TD.AperFunction*%
%TO.P,D38,1*%
%TO.N,+5V*%
%TA.AperFunction,SMDPad,CuDef*%
G36*
G01*
X59115589Y-54106488D02*
X57679589Y-54106488D01*
G75*
G02*
X57597589Y-54024488I0J82000D01*
G01*
X57597589Y-53368488D01*
G75*
G02*
X57679589Y-53286488I82000J0D01*
G01*
X59115589Y-53286488D01*
G75*
G02*
X59197589Y-53368488I0J-82000D01*
G01*
X59197589Y-54024488D01*
G75*
G02*
X59115589Y-54106488I-82000J0D01*
G01*
G37*
%TD.AperFunction*%
%TD*%
D15*
%TO.P,D37,2*%
%TO.N,Net-(D37-Pad2)*%
X72192593Y-111258404D03*
%TO.P,D37,1*%
%TO.N,row3*%
X72192593Y-114558404D03*
%TD*%
%TA.AperFunction,SMDPad,CuDef*%
D13*
%TO.P,D36,2*%
%TO.N,Net-(D35-Pad2)*%
G36*
X157620812Y-123163544D02*
G01*
X158031236Y-122035912D01*
X158876960Y-122343730D01*
X158466536Y-123471362D01*
X157620812Y-123163544D01*
G37*
%TD.AperFunction*%
%TA.AperFunction,SMDPad,CuDef*%
%TO.P,D36,1*%
%TO.N,row3*%
G36*
X154519826Y-122034878D02*
G01*
X154930250Y-120907246D01*
X155775974Y-121215064D01*
X155365550Y-122342696D01*
X154519826Y-122034878D01*
G37*
%TD.AperFunction*%
%TD*%
D14*
%TO.P,D33,2*%
%TO.N,Net-(D25-Pad2)*%
X139057093Y-94693804D03*
%TO.P,D33,1*%
%TO.N,row2*%
X135757093Y-94693804D03*
%TD*%
%TO.P,D32,2*%
%TO.N,Net-(D15-Pad2)*%
X138777693Y-75694604D03*
%TO.P,D32,1*%
%TO.N,row1*%
X135477693Y-75694604D03*
%TD*%
%TO.P,D31,2*%
%TO.N,Net-(D31-Pad2)*%
X138752293Y-56733504D03*
%TO.P,D31,1*%
%TO.N,row0*%
X135452293Y-56733504D03*
%TD*%
%TA.AperFunction,SMDPad,CuDef*%
D13*
%TO.P,D30,2*%
%TO.N,Net-(D30-Pad2)*%
G36*
X147083655Y-113326623D02*
G01*
X145901886Y-113118246D01*
X146058169Y-112231919D01*
X147239938Y-112440296D01*
X147083655Y-113326623D01*
G37*
%TD.AperFunction*%
%TA.AperFunction,SMDPad,CuDef*%
%TO.P,D30,1*%
%TO.N,row3*%
G36*
X146510617Y-116576489D02*
G01*
X145328848Y-116368112D01*
X145485131Y-115481785D01*
X146666900Y-115690162D01*
X146510617Y-116576489D01*
G37*
%TD.AperFunction*%
%TD*%
D15*
%TO.P,D29,2*%
%TO.N,Net-(D24-Pad2)*%
X126739093Y-86096904D03*
%TO.P,D29,1*%
%TO.N,row2*%
X126739093Y-89396904D03*
%TD*%
%TO.P,D28,2*%
%TO.N,Net-(D14-Pad2)*%
X126802593Y-67148504D03*
%TO.P,D28,1*%
%TO.N,row1*%
X126802593Y-70448504D03*
%TD*%
%TO.P,D27,2*%
%TO.N,Net-(D27-Pad2)*%
X126726393Y-48860504D03*
%TO.P,D27,1*%
%TO.N,row0*%
X126726393Y-52160504D03*
%TD*%
%TO.P,D26,2*%
%TO.N,Net-(D26-Pad2)*%
X126726393Y-110061804D03*
%TO.P,D26,1*%
%TO.N,row3*%
X126726393Y-113361804D03*
%TD*%
%TO.P,D20,2*%
%TO.N,Net-(D20-Pad2)*%
X107752593Y-81067704D03*
%TO.P,D20,1*%
%TO.N,row2*%
X107752593Y-84367704D03*
%TD*%
D14*
%TO.P,D19,2*%
%TO.N,Net-(D13-Pad2)*%
X100931693Y-68201604D03*
%TO.P,D19,1*%
%TO.N,row1*%
X97631693Y-68201604D03*
%TD*%
%TO.P,D18,2*%
%TO.N,Net-(D18-Pad2)*%
X100626893Y-49100804D03*
%TO.P,D18,1*%
%TO.N,row0*%
X97326893Y-49100804D03*
%TD*%
D15*
%TO.P,D17,2*%
%TO.N,Net-(D17-Pad2)*%
X88613693Y-86071504D03*
%TO.P,D17,1*%
%TO.N,row2*%
X88613693Y-89371504D03*
%TD*%
%TO.P,D16,2*%
%TO.N,Net-(D12-Pad2)*%
X88677193Y-67059604D03*
%TO.P,D16,1*%
%TO.N,row1*%
X88677193Y-70359604D03*
%TD*%
D14*
%TO.P,D10,2*%
%TO.N,Net-(D10-Pad2)*%
X82518693Y-54168104D03*
%TO.P,D10,1*%
%TO.N,row0*%
X85818693Y-54168104D03*
%TD*%
D15*
%TO.P,D9,2*%
%TO.N,Net-(D21-Pad2)*%
X69779593Y-98619104D03*
%TO.P,D9,1*%
%TO.N,row2*%
X69779593Y-101919104D03*
%TD*%
%TO.P,D8,2*%
%TO.N,Net-(D11-Pad2)*%
X69677993Y-79569104D03*
%TO.P,D8,1*%
%TO.N,row1*%
X69677993Y-82869104D03*
%TD*%
%TO.P,D7,2*%
%TO.N,Net-(D1-Pad2)*%
X69665293Y-60557204D03*
%TO.P,D7,1*%
%TO.N,row0*%
X69665293Y-63857204D03*
%TD*%
%TO.P,J1,1*%
%TO.N,+5V*%
%TA.AperFunction,ComponentPad*%
G36*
G01*
X151599593Y-70186404D02*
X151599593Y-71036404D01*
G75*
G02*
X151174593Y-71461404I-425000J0D01*
G01*
X149824593Y-71461404D01*
G75*
G02*
X149399593Y-71036404I0J425000D01*
G01*
X149399593Y-70186404D01*
G75*
G02*
X149824593Y-69761404I425000J0D01*
G01*
X151174593Y-69761404D01*
G75*
G02*
X151599593Y-70186404I0J-425000D01*
G01*
G37*
%TD.AperFunction*%
%TO.P,J1,2*%
%TO.N,sda*%
%TA.AperFunction,ComponentPad*%
G36*
G01*
X151174593Y-74001404D02*
X149824593Y-74001404D01*
G75*
G02*
X149399593Y-73576404I0J425000D01*
G01*
X149399593Y-72726404D01*
G75*
G02*
X149824593Y-72301404I425000J0D01*
G01*
X151174593Y-72301404D01*
G75*
G02*
X151599593Y-72726404I0J-425000D01*
G01*
X151599593Y-73576404D01*
G75*
G02*
X151174593Y-74001404I-425000J0D01*
G01*
G37*
%TD.AperFunction*%
%TO.P,J1,3*%
%TO.N,scl*%
%TA.AperFunction,ComponentPad*%
G36*
G01*
X151174593Y-76541404D02*
X149824593Y-76541404D01*
G75*
G02*
X149399593Y-76116404I0J425000D01*
G01*
X149399593Y-75266404D01*
G75*
G02*
X149824593Y-74841404I425000J0D01*
G01*
X151174593Y-74841404D01*
G75*
G02*
X151599593Y-75266404I0J-425000D01*
G01*
X151599593Y-76116404D01*
G75*
G02*
X151174593Y-76541404I-425000J0D01*
G01*
G37*
%TD.AperFunction*%
%TO.P,J1,4*%
%TO.N,Net-(J1-Pad4)*%
%TA.AperFunction,ComponentPad*%
G36*
G01*
X151174593Y-79081404D02*
X149824593Y-79081404D01*
G75*
G02*
X149399593Y-78656404I0J425000D01*
G01*
X149399593Y-77806404D01*
G75*
G02*
X149824593Y-77381404I425000J0D01*
G01*
X151174593Y-77381404D01*
G75*
G02*
X151599593Y-77806404I0J-425000D01*
G01*
X151599593Y-78656404D01*
G75*
G02*
X151174593Y-79081404I-425000J0D01*
G01*
G37*
%TD.AperFunction*%
%TO.P,J1,5*%
%TO.N,GND*%
%TA.AperFunction,ComponentPad*%
G36*
G01*
X151174593Y-81621404D02*
X149824593Y-81621404D01*
G75*
G02*
X149399593Y-81196404I0J425000D01*
G01*
X149399593Y-80346404D01*
G75*
G02*
X149824593Y-79921404I425000J0D01*
G01*
X151174593Y-79921404D01*
G75*
G02*
X151599593Y-80346404I0J-425000D01*
G01*
X151599593Y-81196404D01*
G75*
G02*
X151174593Y-81621404I-425000J0D01*
G01*
G37*
%TD.AperFunction*%
%TD*%
D16*
%TO.P,U4,1*%
%TO.N,GND*%
X152343593Y-51739404D03*
%TO.P,U4,2*%
X147743593Y-50639404D03*
%TO.P,U4,4*%
%TO.N,+5V*%
X147743593Y-43639404D03*
%TO.P,U4,3*%
%TO.N,data*%
X147743593Y-46639404D03*
%TD*%
%TO.P,U3,1*%
%TO.N,GND*%
X147743593Y-51739404D03*
%TO.P,U3,2*%
X152343593Y-50639404D03*
%TO.P,U3,4*%
%TO.N,+5V*%
X152343593Y-43639404D03*
%TO.P,U3,3*%
%TO.N,data*%
X152343593Y-46639404D03*
%TD*%
D17*
%TO.P,U1,1*%
%TO.N,led*%
X91369593Y-34978404D03*
D18*
%TO.P,U1,2*%
%TO.N,data*%
X91369593Y-37518404D03*
%TO.P,U1,3*%
%TO.N,GND*%
X91369593Y-40058404D03*
%TO.P,U1,4*%
X91369593Y-42598404D03*
%TO.P,U1,5*%
%TO.N,sda*%
X91369593Y-45138404D03*
%TO.P,U1,6*%
%TO.N,scl*%
X91369593Y-47678404D03*
%TO.P,U1,7*%
%TO.N,col2*%
X91369593Y-50218404D03*
%TO.P,U1,8*%
%TO.N,Net-(U1-Pad8)*%
X91369593Y-52758404D03*
%TO.P,U1,9*%
%TO.N,row1*%
X91369593Y-55298404D03*
%TO.P,U1,10*%
%TO.N,row3*%
X91369593Y-57838404D03*
%TO.P,U1,11*%
%TO.N,ENC1A*%
X91369593Y-60378404D03*
%TO.P,U1,13*%
%TO.N,Net-(U1-Pad13)*%
X106609593Y-62918404D03*
%TO.P,U1,14*%
%TO.N,col5*%
X106609593Y-60378404D03*
%TO.P,U1,15*%
%TO.N,row2*%
X106609593Y-57838404D03*
%TO.P,U1,16*%
%TO.N,col4*%
X106609593Y-55298404D03*
%TO.P,U1,17*%
%TO.N,col0*%
X106609593Y-52758404D03*
%TO.P,U1,18*%
%TO.N,row0*%
X106609593Y-50218404D03*
%TO.P,U1,19*%
%TO.N,col3*%
X106609593Y-47678404D03*
%TO.P,U1,20*%
%TO.N,col1*%
X106609593Y-45138404D03*
%TO.P,U1,21*%
%TO.N,+5V*%
X106609593Y-42598404D03*
%TO.P,U1,22*%
%TO.N,RESET*%
X106609593Y-40058404D03*
%TO.P,U1,23*%
%TO.N,GND*%
X106609593Y-37518404D03*
%TO.P,U1,12*%
%TO.N,ENC1B*%
X91369593Y-62918404D03*
%TO.P,U1,24*%
%TO.N,Net-(U1-Pad24)*%
X106609593Y-34978404D03*
%TD*%
D19*
%TO.P,SW41,1*%
%TO.N,GND*%
X148193593Y-95609404D03*
%TO.P,SW41,2*%
%TO.N,RESET*%
X151893593Y-89409404D03*
%TO.P,SW41,3*%
%TO.N,N/C*%
X151893593Y-95609404D03*
%TO.P,SW41,4*%
X148193593Y-89409404D03*
%TD*%
%TO.P,R4,2*%
%TO.N,RESET*%
%TA.AperFunction,SMDPad,CuDef*%
G36*
G01*
X150443593Y-86990406D02*
X150443593Y-86090402D01*
G75*
G02*
X150693591Y-85840404I249998J0D01*
G01*
X151218595Y-85840404D01*
G75*
G02*
X151468593Y-86090402I0J-249998D01*
G01*
X151468593Y-86990406D01*
G75*
G02*
X151218595Y-87240404I-249998J0D01*
G01*
X150693591Y-87240404D01*
G75*
G02*
X150443593Y-86990406I0J249998D01*
G01*
G37*
%TD.AperFunction*%
%TO.P,R4,1*%
%TO.N,+5V*%
%TA.AperFunction,SMDPad,CuDef*%
G36*
G01*
X148618593Y-86990406D02*
X148618593Y-86090402D01*
G75*
G02*
X148868591Y-85840404I249998J0D01*
G01*
X149393595Y-85840404D01*
G75*
G02*
X149643593Y-86090402I0J-249998D01*
G01*
X149643593Y-86990406D01*
G75*
G02*
X149393595Y-87240404I-249998J0D01*
G01*
X148868591Y-87240404D01*
G75*
G02*
X148618593Y-86990406I0J249998D01*
G01*
G37*
%TD.AperFunction*%
%TD*%
D20*
%TO.N,GND*%
X150145193Y-94262004D03*
X75558093Y-36685956D03*
X74542093Y-39702804D03*
X82619293Y-36731004D03*
X63645476Y-49179894D03*
X93680993Y-40007604D03*
X93706393Y-31828804D03*
X101529593Y-31866904D03*
X105009393Y-31981204D03*
X113277093Y-36743704D03*
X111981693Y-39829804D03*
X120566893Y-36756404D03*
X131831793Y-39296404D03*
X130803093Y-42369804D03*
X139540693Y-39334504D03*
X145750993Y-39461504D03*
X93680993Y-36108704D03*
X74272293Y-62016704D03*
X74224593Y-55717504D03*
X139134293Y-59057604D03*
X132025393Y-61165804D03*
X132025393Y-59057604D03*
X120630393Y-56009604D03*
X113483393Y-58740104D03*
X113483393Y-56009604D03*
X103790193Y-52339304D03*
X82631993Y-55717504D03*
X75726293Y-58689304D03*
X75726293Y-55717504D03*
X63594693Y-68455604D03*
X74272293Y-80952404D03*
X74272293Y-74513504D03*
X139642293Y-77739304D03*
X120744693Y-74894504D03*
X113356393Y-77675804D03*
X113378693Y-74894504D03*
X101707393Y-70233604D03*
X94687393Y-72621204D03*
X94874793Y-70233604D03*
X82809793Y-74513504D03*
X75726293Y-77713904D03*
X75726293Y-74513504D03*
X63823293Y-87353204D03*
X93134893Y-94909704D03*
X151250093Y-100358004D03*
X143909493Y-100358004D03*
X134244793Y-77726604D03*
X144138093Y-77739304D03*
X144620693Y-50675604D03*
X32759093Y-57101804D03*
X32378093Y-95074804D03*
X43693793Y-95074804D03*
X32339993Y-75796204D03*
X43960493Y-56416004D03*
X43554093Y-75542204D03*
X113111993Y-101564504D03*
X113353293Y-94909704D03*
X120833593Y-94909704D03*
X135336993Y-102618604D03*
X136556193Y-100358004D03*
X151275493Y-102910704D03*
X164331093Y-108727304D03*
X89921793Y-107343004D03*
%TO.N,+5V*%
X133736793Y-45252704D03*
X115220193Y-42738104D03*
X96322593Y-37772404D03*
X77259893Y-42788904D03*
X57955893Y-74272204D03*
X77297993Y-61813504D03*
X96360693Y-56733504D03*
X115321793Y-61750004D03*
X134333693Y-64201104D03*
X149131093Y-86540404D03*
X58400393Y-93246004D03*
X76447093Y-81371504D03*
X86740443Y-59203654D03*
X86852087Y-80466110D03*
X87407193Y-41366504D03*
X96322593Y-75859704D03*
X114851893Y-80876204D03*
X133774893Y-83251104D03*
X33267093Y-62321504D03*
X33228993Y-81181004D03*
X38118493Y-81181004D03*
X33101993Y-100319904D03*
X38181993Y-100319904D03*
X58171793Y-57000204D03*
X38207393Y-62308804D03*
X136137093Y-106568304D03*
X157384193Y-111965804D03*
X115245593Y-104777604D03*
X147282593Y-61648404D03*
X143732593Y-61288404D03*
X144089293Y-64201104D03*
%TO.N,Net-(D1-Pad2)*%
X69665293Y-60557204D03*
%TO.N,row0*%
X46881493Y-73688004D03*
X69665293Y-63870904D03*
X85818693Y-54168104D03*
X97326893Y-49100804D03*
X126726393Y-52160504D03*
X135452293Y-56733504D03*
X72979993Y-52885404D03*
X48849993Y-65547304D03*
%TO.N,Net-(D10-Pad2)*%
X82518693Y-54168104D03*
%TO.N,Net-(D11-Pad2)*%
X69677993Y-79569104D03*
%TO.N,row1*%
X46843393Y-92560204D03*
X69677993Y-82882804D03*
X71151193Y-72252904D03*
X88677193Y-70359604D03*
X97631693Y-68201604D03*
X126802593Y-70448504D03*
X135477693Y-75694604D03*
X91988793Y-68201604D03*
X48418193Y-85245004D03*
%TO.N,Net-(D12-Pad2)*%
X88677193Y-67059604D03*
%TO.N,Net-(D13-Pad2)*%
X100931693Y-68201604D03*
%TO.N,Net-(D14-Pad2)*%
X126802593Y-67148504D03*
%TO.N,Net-(D15-Pad2)*%
X138777693Y-75694604D03*
%TO.N,Net-(D17-Pad2)*%
X88613693Y-86071504D03*
%TO.N,Net-(D18-Pad2)*%
X100626893Y-49100804D03*
%TO.N,Net-(D20-Pad2)*%
X107752593Y-81067704D03*
%TO.N,Net-(D21-Pad2)*%
X69779593Y-98619104D03*
%TO.N,row2*%
X46856093Y-111673704D03*
X69779593Y-101932804D03*
X71062293Y-90693304D03*
X88613693Y-89371504D03*
X107752593Y-84367704D03*
X108197093Y-90464704D03*
X126739093Y-89396904D03*
X135757093Y-94693804D03*
X110646475Y-59488022D03*
X48240393Y-103317104D03*
X69779593Y-104015604D03*
%TO.N,Net-(D24-Pad2)*%
X126739093Y-86096904D03*
%TO.N,Net-(D25-Pad2)*%
X139057093Y-94693804D03*
%TO.N,Net-(D26-Pad2)*%
X126726393Y-110060804D03*
%TO.N,Net-(D27-Pad2)*%
X126726393Y-48860504D03*
%TO.N,Net-(D30-Pad2)*%
X146563793Y-112778604D03*
%TO.N,Net-(D31-Pad2)*%
X138752293Y-56733504D03*
%TO.N,row3*%
X126739093Y-113362804D03*
X145992293Y-116029804D03*
X155148993Y-121617804D03*
X72192593Y-114558404D03*
X73373693Y-66372804D03*
%TO.N,Net-(D35-Pad2)*%
X158247793Y-122773504D03*
%TO.N,Net-(D37-Pad2)*%
X72192593Y-111258404D03*
X73757593Y-109693404D03*
X84651293Y-102364604D03*
X91801393Y-102364604D03*
%TO.N,Net-(D38-Pad2)*%
X57113050Y-65479161D03*
X56914493Y-67655504D03*
X65410793Y-67665104D03*
X55403193Y-63680404D03*
%TO.N,Net-(D39-Pad2)*%
X117683993Y-69446204D03*
X118712693Y-68265104D03*
%TO.N,Net-(D40-Pad2)*%
X59175093Y-69408104D03*
X67303093Y-69471604D03*
%TO.N,led*%
X85044993Y-37521504D03*
X71976693Y-43906504D03*
X72725993Y-45633704D03*
X35641993Y-101310504D03*
X35667393Y-99011804D03*
X48265793Y-102148704D03*
X43693793Y-101755004D03*
X65131393Y-56352504D03*
X66718893Y-107406504D03*
X56063593Y-107724004D03*
%TO.N,Net-(D41-Pad2)*%
X62680293Y-50154904D03*
X56241393Y-51399504D03*
X56266793Y-53660104D03*
X56879493Y-72646604D03*
%TO.N,Net-(D42-Pad2)*%
X66299793Y-70970204D03*
X57244693Y-93080904D03*
%TO.N,Net-(D45-Pad2)*%
X81171493Y-75478704D03*
X80765093Y-70868604D03*
X79787193Y-69344604D03*
X75748593Y-61369004D03*
%TO.N,Net-(D46-Pad2)*%
X81450893Y-56619204D03*
X75418393Y-41696704D03*
X79507793Y-49913604D03*
X80447593Y-51488404D03*
%TO.N,Net-(D47-Pad2)*%
X84638593Y-39956804D03*
X85375193Y-43296904D03*
X95636793Y-39410704D03*
X94773193Y-37645404D03*
%TO.N,Net-(D48-Pad2)*%
X103320293Y-36502404D03*
X94950993Y-55943004D03*
%TO.N,Net-(D49-Pad2)*%
X104310893Y-55031704D03*
X93465093Y-74196004D03*
%TO.N,Net-(D50-Pad2)*%
X109657593Y-74348404D03*
X109924293Y-76291504D03*
%TO.N,Net-(D51-Pad2)*%
X119601693Y-75796204D03*
X113658093Y-59946604D03*
%TO.N,Net-(D52-Pad2)*%
X119436593Y-56800104D03*
X118712693Y-51742404D03*
X117693593Y-50307304D03*
X113480293Y-41150604D03*
%TO.N,Net-(D54-Pad2)*%
X141648893Y-44198604D03*
X132187393Y-63324804D03*
%TO.N,Net-(D55-Pad2)*%
X141953693Y-61724604D03*
X132101593Y-81536604D03*
%TO.N,Net-(D56-Pad2)*%
X143071293Y-80584104D03*
X143045893Y-93284104D03*
X132129960Y-93278037D03*
X129990293Y-93334904D03*
X111676893Y-103126604D03*
X111892793Y-92699904D03*
%TO.N,Net-(D58-Pad2)*%
X60330793Y-86413404D03*
X67988893Y-86108604D03*
X68509593Y-90604404D03*
X77501193Y-81676304D03*
%TO.N,Net-(D61-Pad2)*%
X115766293Y-37534204D03*
X142080693Y-40134604D03*
%TO.N,Net-(D62-Pad2)*%
X142931593Y-43157204D03*
X132771593Y-40998204D03*
%TO.N,Net-(D64-Pad2)*%
X136606993Y-72570404D03*
X137318193Y-74805604D03*
%TO.N,Net-(D66-Pad2)*%
X132647693Y-80177704D03*
X130647593Y-80355504D03*
X129063193Y-81231804D03*
X124224493Y-81231804D03*
%TO.N,Net-(D67-Pad2)*%
X77932993Y-37930466D03*
X86213393Y-37683504D03*
X86213393Y-44185904D03*
X96933102Y-38564415D03*
%TO.N,Net-(D68-Pad2)*%
X115499593Y-95900304D03*
X145331893Y-101869304D03*
X133000193Y-99926204D03*
X132631893Y-98326004D03*
%TO.N,Net-(D69-Pad2)*%
X96386093Y-32619304D03*
X104069593Y-32717804D03*
%TO.N,Net-(D70-Pad2)*%
X100665993Y-50713704D03*
X111397493Y-49075404D03*
X111054425Y-74958172D03*
X103536193Y-74323004D03*
%TO.N,Net-(D71-Pad2)*%
X138092893Y-101148504D03*
X167544193Y-108930504D03*
%TO.N,RESET*%
X150068993Y-90439304D03*
X110470393Y-44058904D03*
X145700193Y-48592804D03*
X150956093Y-86540404D03*
%TO.N,col0*%
X105288793Y-51539204D03*
X104628393Y-91950604D03*
X72865693Y-91544204D03*
X72992693Y-104752204D03*
%TO.N,col1*%
X103739393Y-47856204D03*
X103764793Y-45138404D03*
%TO.N,col2*%
X76241593Y-99431404D03*
X82364793Y-99431404D03*
%TO.N,col3*%
X107041393Y-93728604D03*
X96576593Y-93728604D03*
X99573793Y-46637004D03*
%TO.N,col4*%
X112756393Y-53307681D03*
X110203693Y-52987004D03*
X125659593Y-108168504D03*
X125659593Y-93931804D03*
X120643093Y-93791994D03*
%TO.N,sda*%
X85768893Y-45506704D03*
X86137193Y-81295304D03*
X145065193Y-83759104D03*
X145065193Y-68221004D03*
X145092593Y-60748404D03*
X150782593Y-61278404D03*
%TO.N,scl*%
X88197693Y-47640304D03*
X88283493Y-65775904D03*
X151692593Y-60178404D03*
X147302593Y-62738404D03*
X142962593Y-62738404D03*
X142627593Y-68293404D03*
%TO.N,ENC1B*%
X87305593Y-104828404D03*
X93922293Y-83721004D03*
X91407693Y-83225704D03*
%TO.N,ENC1A*%
X92131593Y-109921104D03*
X97719593Y-89334404D03*
X94341393Y-89194704D03*
%TO.N,data*%
X112146793Y-45481304D03*
X112235693Y-50713704D03*
X143515793Y-54993604D03*
X144493693Y-46433804D03*
X95903493Y-41150604D03*
%TO.N,Net-(D39-Pad4)*%
X96424193Y-71024104D03*
X107930393Y-71846504D03*
X109105311Y-70773186D03*
X122738593Y-74104004D03*
%TO.N,Net-(D38-Pad4)*%
X59898993Y-65864804D03*
X47770493Y-66372804D03*
X46995793Y-57343104D03*
X39655193Y-57279604D03*
X53409293Y-66830004D03*
%TO.N,Net-(D41-Pad4)*%
X53320393Y-54765004D03*
X48202293Y-59248104D03*
X56152493Y-106187304D03*
%TO.N,Net-(D75-Pad2)*%
X36391293Y-79784004D03*
X40417193Y-87670704D03*
X41420493Y-89423304D03*
X42207893Y-94211204D03*
%TO.N,Net-(D76-Pad2)*%
X40633093Y-70436804D03*
X41610993Y-68709604D03*
%TO.N,Net-(D77-Pad2)*%
X36454793Y-61267404D03*
X42461893Y-76418504D03*
%TO.N,Net-(D80-Pad2)*%
X43579493Y-73700704D03*
%TO.N,Net-(D83-Pad2)*%
X43541393Y-92572904D03*
%TO.N,Net-(D85-Pad2)*%
X43541393Y-111673704D03*
%TO.N,col5*%
X109919475Y-60975304D03*
X109919475Y-70109704D03*
X131571726Y-74202071D03*
X134498793Y-97805304D03*
X150221393Y-99481704D03*
X150208693Y-115293204D03*
%TD*%
D21*
%TO.N,GND*%
X150145193Y-94262004D02*
X148773593Y-95633604D01*
X148749393Y-95609404D02*
X148193593Y-95609404D01*
X148773593Y-95633604D02*
X148749393Y-95609404D01*
X75558093Y-38686804D02*
X74542093Y-39702804D01*
X75558093Y-36685956D02*
X75558093Y-38686804D01*
X82619293Y-39674784D02*
X82597588Y-39696489D01*
X82619293Y-36731004D02*
X82619293Y-39674784D01*
X63597589Y-49227781D02*
X63645476Y-49179894D01*
X63597589Y-52196488D02*
X63597589Y-49227781D01*
X93680993Y-31854204D02*
X93706393Y-31828804D01*
X101529593Y-34628495D02*
X101597587Y-34696489D01*
X101529593Y-31866904D02*
X101529593Y-34628495D01*
X105009393Y-31981204D02*
X105009393Y-37277104D01*
X105250693Y-37518404D02*
X106609593Y-37518404D01*
X105009393Y-37277104D02*
X105250693Y-37518404D01*
X113277093Y-38534404D02*
X111981693Y-39829804D01*
X113277093Y-36743704D02*
X113277093Y-38534404D01*
X120566893Y-39665796D02*
X120597586Y-39696489D01*
X120566893Y-36756404D02*
X120566893Y-39665796D01*
X131831793Y-41341104D02*
X130803093Y-42369804D01*
X131831793Y-39296404D02*
X131831793Y-41341104D01*
X139540693Y-42139598D02*
X139597585Y-42196490D01*
X139540693Y-39334504D02*
X139540693Y-42139598D01*
X145750993Y-39461504D02*
X145750993Y-46370304D01*
X93680993Y-40007604D02*
X93680993Y-36108704D01*
X91369593Y-40058404D02*
X91369593Y-42598404D01*
X74272293Y-55765204D02*
X74224593Y-55717504D01*
X74272293Y-62016704D02*
X74272293Y-55765204D01*
X139597585Y-59520896D02*
X139597585Y-61196489D01*
X139134293Y-59057604D02*
X139597585Y-59520896D01*
X132025393Y-61165804D02*
X132025393Y-59057604D01*
X120597586Y-56042411D02*
X120630393Y-56009604D01*
X120597586Y-58696488D02*
X120597586Y-56042411D01*
X113483393Y-58740104D02*
X113483393Y-56009604D01*
X102433009Y-53696488D02*
X103790193Y-52339304D01*
X101597587Y-53696488D02*
X102433009Y-53696488D01*
X82597588Y-55751909D02*
X82631993Y-55717504D01*
X82597588Y-58696488D02*
X82597588Y-55751909D01*
X75726293Y-58689304D02*
X75726293Y-55717504D01*
X63597589Y-68458500D02*
X63594693Y-68455604D01*
X63597589Y-71196487D02*
X63597589Y-68458500D01*
X74272293Y-80952404D02*
X74272293Y-74513504D01*
X139642293Y-80151780D02*
X139597585Y-80196488D01*
X139642293Y-77739304D02*
X139642293Y-80151780D01*
X120597586Y-75041611D02*
X120744693Y-74894504D01*
X120597586Y-77696488D02*
X120597586Y-75041611D01*
X113356393Y-74916804D02*
X113378693Y-74894504D01*
X113356393Y-77675804D02*
X113356393Y-74916804D01*
X101597586Y-70343411D02*
X101707393Y-70233604D01*
X101597586Y-72696488D02*
X101597586Y-70343411D01*
X94687393Y-70421004D02*
X94874793Y-70233604D01*
X94687393Y-72621204D02*
X94687393Y-70421004D01*
X82597587Y-74725710D02*
X82809793Y-74513504D01*
X82597587Y-77696487D02*
X82597587Y-74725710D01*
X75726293Y-77713904D02*
X75726293Y-74513504D01*
X63597588Y-87578909D02*
X63823293Y-87353204D01*
X63597588Y-90196486D02*
X63597588Y-87578909D01*
X151288193Y-100396104D02*
X151250093Y-100358004D01*
X143972993Y-100421504D02*
X143909493Y-100358004D01*
X93680993Y-36108704D02*
X93680993Y-31854204D01*
X143909493Y-100358004D02*
X143909493Y-77967904D01*
X143909493Y-77967904D02*
X144138093Y-77739304D01*
X74272293Y-74513504D02*
X74272293Y-62016704D01*
X74224593Y-40020304D02*
X74542093Y-39702804D01*
X74224593Y-55717504D02*
X74224593Y-40020304D01*
X145750993Y-46370304D02*
X145750993Y-46611604D01*
X144620693Y-47741904D02*
X144620693Y-50675604D01*
X145750993Y-46611604D02*
X144620693Y-47741904D01*
X93134893Y-97909704D02*
X93134893Y-94909704D01*
X32759093Y-57101804D02*
X32339993Y-57520904D01*
X32339993Y-95036704D02*
X32378093Y-95074804D01*
X43693793Y-97100281D02*
X43597588Y-97196486D01*
X43693793Y-95074804D02*
X43693793Y-97100281D01*
X32339993Y-75796204D02*
X32339993Y-95036704D01*
X32339993Y-57520904D02*
X32339993Y-75796204D01*
X43597589Y-59196488D02*
X43597589Y-56778908D01*
X43597589Y-56778908D02*
X43960493Y-56416004D01*
X43554093Y-78152991D02*
X43597589Y-78196487D01*
X43554093Y-75542204D02*
X43554093Y-78152991D01*
X113111993Y-95151004D02*
X113353293Y-94909704D01*
X113111993Y-101564504D02*
X113111993Y-95151004D01*
X120597586Y-95145711D02*
X120833593Y-94909704D01*
X120597586Y-101696488D02*
X120597586Y-95145711D01*
X135336993Y-101577204D02*
X136556193Y-100358004D01*
X135336993Y-102618604D02*
X135336993Y-101577204D01*
X142490543Y-104066814D02*
X142490543Y-103504154D01*
X143909493Y-102085204D02*
X143909493Y-100358004D01*
X142490543Y-103504154D02*
X143909493Y-102085204D01*
X151275493Y-100383404D02*
X151250093Y-100358004D01*
X151275493Y-102910704D02*
X151275493Y-100383404D01*
X164331093Y-109511002D02*
X163639294Y-110202801D01*
X164331093Y-108727304D02*
X164331093Y-109511002D01*
X89511926Y-107752871D02*
X89921793Y-107343004D01*
X89511926Y-114529268D02*
X89511926Y-107752871D01*
X97011926Y-107029268D02*
X96173957Y-107029268D01*
X96173957Y-107029268D02*
X95103393Y-105958704D01*
X95103393Y-99878204D02*
X93134893Y-97909704D01*
X95103393Y-105958704D02*
X95103393Y-99878204D01*
X149187593Y-53183404D02*
X147743593Y-51739404D01*
X149187593Y-59738404D02*
X149187593Y-53183404D01*
%TO.N,+5V*%
X134397585Y-44591912D02*
X133736793Y-45252704D01*
X134397585Y-43696490D02*
X134397585Y-44591912D01*
X115397586Y-42560711D02*
X115220193Y-42738104D01*
X115397586Y-41196489D02*
X115397586Y-42560711D01*
X96397587Y-37697410D02*
X96322593Y-37772404D01*
X96397587Y-36196489D02*
X96397587Y-37697410D01*
X77397588Y-42651209D02*
X77259893Y-42788904D01*
X77397588Y-41196489D02*
X77397588Y-42651209D01*
X58397589Y-72696487D02*
X57930493Y-73163583D01*
X57930493Y-74246804D02*
X57955893Y-74272204D01*
X57930493Y-73163583D02*
X57930493Y-74246804D01*
X77397588Y-61713909D02*
X77297993Y-61813504D01*
X77397588Y-60196488D02*
X77397588Y-61713909D01*
X96397587Y-56696610D02*
X96360693Y-56733504D01*
X96397587Y-55196488D02*
X96397587Y-56696610D01*
X115397586Y-61674211D02*
X115321793Y-61750004D01*
X115397586Y-60196488D02*
X115397586Y-61674211D01*
X134397585Y-64137212D02*
X134333693Y-64201104D01*
X134397585Y-62696489D02*
X134397585Y-64137212D01*
X58397588Y-93243199D02*
X58400393Y-93246004D01*
X58397588Y-91696486D02*
X58397588Y-93243199D01*
X77397587Y-80421010D02*
X76447093Y-81371504D01*
X77397587Y-79196487D02*
X77397587Y-80421010D01*
X86740443Y-80354466D02*
X86852087Y-80466110D01*
X86740443Y-59203654D02*
X86740443Y-80354466D01*
X86740443Y-59203654D02*
X86740443Y-55914354D01*
X87407193Y-55247604D02*
X87407193Y-41366504D01*
X86740443Y-55914354D02*
X87407193Y-55247604D01*
X96397586Y-75784711D02*
X96322593Y-75859704D01*
X96397586Y-74196488D02*
X96397586Y-75784711D01*
X115397586Y-80330511D02*
X114851893Y-80876204D01*
X115397586Y-79196488D02*
X115397586Y-80330511D01*
X134397585Y-82628412D02*
X133774893Y-83251104D01*
X134397585Y-81696488D02*
X134397585Y-82628412D01*
X33267093Y-62321504D02*
X33267093Y-74780204D01*
X33267093Y-74780204D02*
X33470293Y-74983404D01*
X33470293Y-74983404D02*
X33470293Y-76443904D01*
X33228993Y-76685204D02*
X33228993Y-81181004D01*
X33470293Y-76443904D02*
X33228993Y-76685204D01*
X38397589Y-80901908D02*
X38118493Y-81181004D01*
X38397589Y-79696487D02*
X38397589Y-80901908D01*
X33228993Y-81181004D02*
X33228993Y-94058804D01*
X33228993Y-94058804D02*
X33482993Y-94312804D01*
X33482993Y-94312804D02*
X33482993Y-95722504D01*
X33101993Y-96103504D02*
X33101993Y-100319904D01*
X33482993Y-95722504D02*
X33101993Y-96103504D01*
X38397588Y-100104309D02*
X38181993Y-100319904D01*
X38397588Y-98696486D02*
X38397588Y-100104309D01*
X58397589Y-56774408D02*
X58171793Y-57000204D01*
X58397589Y-53696488D02*
X58397589Y-56774408D01*
X38397589Y-62118608D02*
X38207393Y-62308804D01*
X38397589Y-60696488D02*
X38397589Y-62118608D01*
X137109070Y-105596327D02*
X136137093Y-106568304D01*
X137109070Y-104641055D02*
X137109070Y-105596327D01*
X158239862Y-109833836D02*
X157409593Y-110664105D01*
X157409593Y-111940404D02*
X157384193Y-111965804D01*
X157409593Y-110664105D02*
X157409593Y-111940404D01*
X115397586Y-104625611D02*
X115245593Y-104777604D01*
X115397586Y-103196488D02*
X115397586Y-104625611D01*
X148192593Y-60738404D02*
X147282593Y-61648404D01*
X149187593Y-60738404D02*
X148192593Y-60738404D01*
X143732593Y-61288404D02*
X144152593Y-61708404D01*
X144152593Y-64137804D02*
X144089293Y-64201104D01*
X144152593Y-61708404D02*
X144152593Y-64137804D01*
D22*
%TO.N,row0*%
X72954593Y-52910804D02*
X72979993Y-52885404D01*
X71189293Y-60111704D02*
X72954593Y-58346404D01*
X70352093Y-63857204D02*
X71189293Y-63020004D01*
X71189293Y-63020004D02*
X71189293Y-60111704D01*
X69665293Y-63857204D02*
X70352093Y-63857204D01*
X72954593Y-58346404D02*
X72954593Y-52910804D01*
X46880493Y-73700704D02*
X46880493Y-73638204D01*
X48849993Y-71668704D02*
X48849993Y-65547304D01*
X46880493Y-73638204D02*
X48849993Y-71668704D01*
%TO.N,Net-(D10-Pad2)*%
X82537588Y-54149209D02*
X82518693Y-54168104D01*
X82537588Y-50606488D02*
X82537588Y-54149209D01*
%TO.N,row1*%
X69677993Y-82882804D02*
X70351093Y-82882804D01*
X71151193Y-82082704D02*
X71151193Y-72252904D01*
X70351093Y-82882804D02*
X71151193Y-82082704D01*
X91369593Y-55298404D02*
X92690393Y-55298404D01*
X92690393Y-55298404D02*
X93236493Y-55844504D01*
X93236493Y-55844504D02*
X93236493Y-65496504D01*
X91988793Y-66744204D02*
X91988793Y-68201604D01*
X93236493Y-65496504D02*
X91988793Y-66744204D01*
X46843393Y-92560204D02*
X48405493Y-90998104D01*
X48405493Y-85257704D02*
X48418193Y-85245004D01*
X48405493Y-90998104D02*
X48405493Y-85257704D01*
%TO.N,Net-(D13-Pad2)*%
X101537587Y-67595710D02*
X100931693Y-68201604D01*
X101537587Y-64606487D02*
X101537587Y-67595710D01*
%TO.N,Net-(D15-Pad2)*%
X139537585Y-74934712D02*
X138777693Y-75694604D01*
X139537585Y-72106488D02*
X139537585Y-74934712D01*
X134006369Y-72557704D02*
X134457585Y-72106488D01*
%TO.N,Net-(D17-Pad2)*%
X77457587Y-88909398D02*
X77457587Y-88606486D01*
%TO.N,Net-(D18-Pad2)*%
X101537587Y-48190110D02*
X100626893Y-49100804D01*
X101537587Y-45606488D02*
X101537587Y-48190110D01*
%TO.N,row2*%
X69779593Y-101932804D02*
X70706693Y-101932804D01*
X70706693Y-101932804D02*
X71062293Y-101577204D01*
X107752593Y-90020204D02*
X108197093Y-90464704D01*
X107752593Y-84367704D02*
X107752593Y-90020204D01*
X110646475Y-59488022D02*
X110646475Y-71235186D01*
X110646475Y-71235186D02*
X110648193Y-71236904D01*
X110648193Y-71236904D02*
X110648193Y-72189404D01*
X110648193Y-72189404D02*
X108832093Y-74005504D01*
X108832093Y-74005504D02*
X108832093Y-77498004D01*
X108832093Y-77498004D02*
X109454393Y-78120304D01*
X109454393Y-82665904D02*
X107752593Y-84367704D01*
X109454393Y-78120304D02*
X109454393Y-82665904D01*
X71062293Y-101577204D02*
X71062293Y-97348104D01*
X71062293Y-97348104D02*
X69398593Y-95684404D01*
X69398593Y-92357004D02*
X71062293Y-90693304D01*
X69398593Y-95684404D02*
X69398593Y-92357004D01*
X46856093Y-111673704D02*
X48227693Y-110302104D01*
X48227693Y-103329804D02*
X48240393Y-103317104D01*
X48227693Y-110302104D02*
X48227693Y-103329804D01*
X69779593Y-104015604D02*
X69779593Y-101919104D01*
%TO.N,Net-(D25-Pad2)*%
X139537585Y-94213312D02*
X139057093Y-94693804D01*
X139537585Y-91106487D02*
X139537585Y-94213312D01*
%TO.N,Net-(D31-Pad2)*%
X139537585Y-55948212D02*
X138752293Y-56733504D01*
X139537585Y-53106489D02*
X139537585Y-55948212D01*
%TO.N,row3*%
X72027493Y-67719004D02*
X73373693Y-66372804D01*
X70414593Y-92890404D02*
X72027493Y-91277504D01*
X70414593Y-95684404D02*
X70414593Y-92890404D01*
X72027493Y-91277504D02*
X72027493Y-67719004D01*
X72027493Y-97297304D02*
X70414593Y-95684404D01*
X72027493Y-107193404D02*
X72027493Y-97297304D01*
X70008193Y-109212704D02*
X72027493Y-107193404D01*
X70008193Y-112374004D02*
X70008193Y-109212704D01*
X72192593Y-114558404D02*
X70008193Y-112374004D01*
%TO.N,Net-(D35-Pad2)*%
X158248886Y-122036913D02*
X158248886Y-122753637D01*
X159851473Y-120434326D02*
X158248886Y-122036913D01*
%TO.N,Net-(D37-Pad2)*%
X73757593Y-109693404D02*
X72192593Y-111258404D01*
X82511926Y-109529268D02*
X83531829Y-109529268D01*
X84651293Y-108409804D02*
X84651293Y-102364604D01*
X83531829Y-109529268D02*
X84651293Y-108409804D01*
X91801393Y-100239801D02*
X92011926Y-100029268D01*
X91801393Y-102364604D02*
X91801393Y-100239801D01*
%TO.N,Net-(D38-Pad2)*%
X58397589Y-52196488D02*
X56485809Y-52196488D01*
X55479393Y-53202904D02*
X55479393Y-61387638D01*
X56485809Y-52196488D02*
X55479393Y-53202904D01*
X57113050Y-65479161D02*
X56736693Y-65855518D01*
X56736693Y-67477704D02*
X56914493Y-67655504D01*
X56736693Y-65855518D02*
X56736693Y-67477704D01*
X65410793Y-67665104D02*
X65410793Y-72189404D01*
X64903710Y-72696487D02*
X63597589Y-72696487D01*
X65410793Y-72189404D02*
X64903710Y-72696487D01*
X55403193Y-61463838D02*
X55479393Y-61387638D01*
X55403193Y-63680404D02*
X55403193Y-61463838D01*
%TO.N,Net-(D39-Pad2)*%
X115397586Y-77696488D02*
X115397586Y-72532711D01*
X117683993Y-70246304D02*
X117683993Y-69446204D01*
X115397586Y-72532711D02*
X117683993Y-70246304D01*
X118712693Y-68265104D02*
X118712693Y-67617404D01*
X118712693Y-67617404D02*
X122116293Y-64213804D01*
X122116293Y-64213804D02*
X122116293Y-60568904D01*
X121743877Y-60196488D02*
X120597586Y-60196488D01*
X122116293Y-60568904D02*
X121743877Y-60196488D01*
%TO.N,Net-(D40-Pad2)*%
X58397589Y-70185608D02*
X59175093Y-69408104D01*
X58397589Y-71196487D02*
X58397589Y-70185608D01*
X67303093Y-69471604D02*
X67303093Y-75516804D01*
X67303093Y-75516804D02*
X66655393Y-76164504D01*
X66655393Y-76164504D02*
X66655393Y-80927004D01*
X66655393Y-80927004D02*
X65385393Y-82197004D01*
X65385393Y-82197004D02*
X65385393Y-90845704D01*
X64534611Y-91696486D02*
X63597588Y-91696486D01*
X65385393Y-90845704D02*
X64534611Y-91696486D01*
%TO.N,led*%
X91369593Y-34978404D02*
X91369593Y-35016504D01*
X91369593Y-35016504D02*
X89655093Y-36731004D01*
X85835493Y-36731004D02*
X85044993Y-37521504D01*
X89655093Y-36731004D02*
X85835493Y-36731004D01*
X71976693Y-44884404D02*
X72725993Y-45633704D01*
X71976693Y-43906504D02*
X71976693Y-44884404D01*
X35641993Y-99037204D02*
X35667393Y-99011804D01*
X35641993Y-101310504D02*
X35641993Y-99037204D01*
X54145893Y-107573904D02*
X52801993Y-107573904D01*
X52801993Y-107573904D02*
X52329793Y-107101704D01*
X52329793Y-107101704D02*
X52329793Y-105768204D01*
X52329793Y-105768204D02*
X51847193Y-105285604D01*
X51847193Y-105285604D02*
X49789793Y-105285604D01*
X49789793Y-105285604D02*
X49205593Y-104701404D01*
X49205593Y-103088504D02*
X48265793Y-102148704D01*
X49205593Y-104701404D02*
X49205593Y-103088504D01*
X43693793Y-98792691D02*
X43597588Y-98696486D01*
X43693793Y-101755004D02*
X43693793Y-98792691D01*
X65131393Y-56352504D02*
X67950793Y-59171904D01*
X67950793Y-59171904D02*
X67950793Y-67553904D01*
X67950793Y-67553904D02*
X68331793Y-67934904D01*
X68331793Y-67934904D02*
X68331793Y-75593004D01*
X68331793Y-75593004D02*
X67455493Y-76469304D01*
X67455493Y-76469304D02*
X67455493Y-81435004D01*
X67455493Y-81435004D02*
X66058493Y-82832004D01*
X66058493Y-82832004D02*
X66058493Y-96382904D01*
X66058493Y-96382904D02*
X66782393Y-97106804D01*
X66782393Y-107343004D02*
X66718893Y-107406504D01*
X66782393Y-97106804D02*
X66782393Y-107343004D01*
X54295993Y-107724004D02*
X54145893Y-107573904D01*
X56063593Y-107724004D02*
X54295993Y-107724004D01*
%TO.N,Net-(D41-Pad2)*%
X62680293Y-50154904D02*
X56749393Y-50154904D01*
X56241393Y-50662904D02*
X56241393Y-51399504D01*
X56749393Y-50154904D02*
X56241393Y-50662904D01*
X56266793Y-53660104D02*
X56266793Y-56898604D01*
X56266793Y-56898604D02*
X56266793Y-57266904D01*
X56266793Y-57266904D02*
X58032093Y-59032204D01*
X58032093Y-59032204D02*
X58260693Y-59032204D01*
X58260693Y-59032204D02*
X58997293Y-59768804D01*
X58997293Y-59768804D02*
X58997293Y-60441904D01*
X58997293Y-60441904D02*
X60343493Y-61788104D01*
X60343493Y-61788104D02*
X60343493Y-64124904D01*
X60343493Y-64124904D02*
X57765393Y-66703004D01*
X57765393Y-66703004D02*
X57765393Y-67846004D01*
X56879493Y-68731904D02*
X56879493Y-72646604D01*
X57765393Y-67846004D02*
X56879493Y-68731904D01*
%TO.N,Net-(D42-Pad2)*%
X66299793Y-70970204D02*
X66299793Y-73942004D01*
X66299793Y-73942004D02*
X63569293Y-76672504D01*
X63569293Y-76672504D02*
X63569293Y-78361604D01*
X63569293Y-78361604D02*
X60508593Y-81422304D01*
X60508593Y-81422304D02*
X60508593Y-83124104D01*
X60508593Y-83124104D02*
X56939893Y-86692804D01*
X56939893Y-92776104D02*
X57244693Y-93080904D01*
X56939893Y-86692804D02*
X56939893Y-92776104D01*
%TO.N,Net-(D44-Pad2)*%
X121163793Y-41762696D02*
X120597586Y-41196489D01*
X120185893Y-47411704D02*
X120185893Y-47170404D01*
X121163793Y-46192504D02*
X121163793Y-41762696D01*
X120185893Y-47170404D02*
X121163793Y-46192504D01*
X118420593Y-49177004D02*
X120185893Y-47411704D01*
X118420593Y-50904204D02*
X118420593Y-49177004D01*
X115397586Y-53927211D02*
X118420593Y-50904204D01*
X115397586Y-58696488D02*
X115397586Y-53927211D01*
%TO.N,Net-(D45-Pad2)*%
X80765093Y-75072304D02*
X80765093Y-70868604D01*
X81171493Y-75478704D02*
X80765093Y-75072304D01*
X79787193Y-69344604D02*
X79787193Y-67998404D01*
X79787193Y-67998404D02*
X79723693Y-67998404D01*
X75748593Y-64023304D02*
X75748593Y-61369004D01*
X79723693Y-67998404D02*
X75748593Y-64023304D01*
%TO.N,Net-(D46-Pad2)*%
X81450893Y-56619204D02*
X80345993Y-55514304D01*
X78542593Y-47919704D02*
X77336093Y-46713204D01*
X77336093Y-46713204D02*
X77336093Y-44998704D01*
X75418393Y-43081004D02*
X75418393Y-41696704D01*
X77336093Y-44998704D02*
X75418393Y-43081004D01*
X80345993Y-55514304D02*
X80345993Y-52250404D01*
X78542593Y-47919704D02*
X78542593Y-48719804D01*
X78542593Y-48948404D02*
X79507793Y-49913604D01*
X78542593Y-48719804D02*
X78542593Y-48948404D01*
X80447593Y-52148804D02*
X80345993Y-52250404D01*
X80447593Y-51488404D02*
X80447593Y-52148804D01*
%TO.N,Net-(D47-Pad2)*%
X85375193Y-40693404D02*
X85375193Y-43296904D01*
X84638593Y-39956804D02*
X85375193Y-40693404D01*
X95636793Y-38509004D02*
X94773193Y-37645404D01*
X95636793Y-39410704D02*
X95636793Y-38509004D01*
%TO.N,Net-(D48-Pad2)*%
X103320293Y-36502404D02*
X103320293Y-38343904D01*
X103320293Y-38343904D02*
X101580393Y-40083804D01*
X101580393Y-41378616D02*
X98887993Y-44071016D01*
X101580393Y-40083804D02*
X101580393Y-41378616D01*
X98887993Y-44071016D02*
X98887993Y-44071604D01*
X98887993Y-44071604D02*
X98392693Y-44566904D01*
X98392693Y-44566904D02*
X98392693Y-49659604D01*
X98392693Y-49659604D02*
X94938293Y-53114004D01*
X94938293Y-55930304D02*
X94950993Y-55943004D01*
X94938293Y-53114004D02*
X94938293Y-55930304D01*
%TO.N,Net-(D49-Pad2)*%
X104310893Y-55031704D02*
X101935993Y-57406604D01*
X101935993Y-57406604D02*
X101935993Y-60556204D01*
X101935993Y-60556204D02*
X98278393Y-64213804D01*
X98278393Y-64213804D02*
X98278393Y-65293304D01*
X98278393Y-65293304D02*
X97287793Y-66283904D01*
X97287793Y-66283904D02*
X97262393Y-66309304D01*
X97262393Y-66309304D02*
X94747793Y-66309304D01*
X93465093Y-67592004D02*
X93465093Y-74196004D01*
X94747793Y-66309304D02*
X93465093Y-67592004D01*
%TO.N,Net-(D50-Pad2)*%
X109657593Y-76024804D02*
X109924293Y-76291504D01*
X109657593Y-74348404D02*
X109657593Y-76024804D01*
%TO.N,Net-(D51-Pad2)*%
X119601693Y-75796204D02*
X118623793Y-74818304D01*
X118623793Y-74818304D02*
X118623793Y-69281104D01*
X118623793Y-69281104D02*
X115626593Y-66283904D01*
X115626593Y-66283904D02*
X115626593Y-64836104D01*
X113658093Y-62867604D02*
X113658093Y-59946604D01*
X115626593Y-64836104D02*
X113658093Y-62867604D01*
%TO.N,Net-(D52-Pad2)*%
X118712693Y-56076204D02*
X118712693Y-51742404D01*
X119436593Y-56800104D02*
X118712693Y-56076204D01*
X117693593Y-50307304D02*
X117163293Y-49777004D01*
X117163293Y-49777004D02*
X117163293Y-48516604D01*
X113480293Y-44833604D02*
X113480293Y-41150604D01*
X117163293Y-48516604D02*
X113480293Y-44833604D01*
%TO.N,Net-(D54-Pad2)*%
X141648893Y-44198604D02*
X141648893Y-46954504D01*
X141648893Y-46954504D02*
X138905693Y-49697704D01*
X138905693Y-49697704D02*
X138905693Y-50205704D01*
X138905693Y-50205704D02*
X136708593Y-52402804D01*
X136708593Y-52402804D02*
X136708593Y-57660604D01*
X136708593Y-57660604D02*
X135298893Y-59070304D01*
X135298893Y-59070304D02*
X134320993Y-59070304D01*
X134320993Y-59070304D02*
X132835093Y-60556204D01*
X132835093Y-61432066D02*
X132174255Y-62092904D01*
X132835093Y-60556204D02*
X132835093Y-61432066D01*
X132174255Y-63311666D02*
X132187393Y-63324804D01*
X132174255Y-62092904D02*
X132174255Y-63311666D01*
%TO.N,Net-(D55-Pad2)*%
X138943793Y-70030404D02*
X138943793Y-68798504D01*
X137749993Y-72875204D02*
X137749993Y-71224204D01*
X137749993Y-71224204D02*
X138943793Y-70030404D01*
X136835593Y-73789604D02*
X137749993Y-72875204D01*
X133470093Y-73789604D02*
X136835593Y-73789604D01*
X131920693Y-75339004D02*
X133470093Y-73789604D01*
X138943793Y-68798504D02*
X141953693Y-65788604D01*
X131920693Y-81355704D02*
X131920693Y-75339004D01*
X141953693Y-65788604D02*
X141953693Y-61724604D01*
X132101593Y-81536604D02*
X131920693Y-81355704D01*
%TO.N,Net-(D56-Pad2)*%
X143071293Y-93258704D02*
X143045893Y-93284104D01*
X143071293Y-80584104D02*
X143071293Y-93258704D01*
X130047160Y-93278037D02*
X129990293Y-93334904D01*
X132129960Y-93278037D02*
X130047160Y-93278037D01*
X111676893Y-92915804D02*
X111892793Y-92699904D01*
X111676893Y-103126604D02*
X111676893Y-92915804D01*
%TO.N,Net-(D58-Pad2)*%
X58397588Y-88346609D02*
X60330793Y-86413404D01*
X58397588Y-90196486D02*
X58397588Y-88346609D01*
X68509593Y-86629304D02*
X68509593Y-90604404D01*
X67988893Y-86108604D02*
X68509593Y-86629304D01*
X77501193Y-81676304D02*
X78377493Y-80800004D01*
X78377493Y-80800004D02*
X81717593Y-80800004D01*
X82597587Y-79920010D02*
X82597587Y-79196487D01*
X81717593Y-80800004D02*
X82597587Y-79920010D01*
%TO.N,Net-(D61-Pad2)*%
X115397586Y-37902911D02*
X115766293Y-37534204D01*
X115397586Y-39696489D02*
X115397586Y-37902911D01*
X142080693Y-40134604D02*
X142080693Y-42128504D01*
X140512707Y-43696490D02*
X139597585Y-43696490D01*
X142080693Y-42128504D02*
X140512707Y-43696490D01*
%TO.N,Net-(D62-Pad2)*%
X140397585Y-62696489D02*
X139597585Y-62696489D01*
X141039293Y-62054781D02*
X140397585Y-62696489D01*
X141039293Y-59886642D02*
X141039293Y-62054781D01*
X141039293Y-59886642D02*
X141039293Y-54930104D01*
X141039293Y-54930104D02*
X141039293Y-53583904D01*
X141039293Y-53583904D02*
X142728393Y-51894804D01*
X142728393Y-43360404D02*
X142931593Y-43157204D01*
X142728393Y-51894804D02*
X142728393Y-43360404D01*
X133199299Y-40998204D02*
X134397585Y-42196490D01*
X132771593Y-40998204D02*
X133199299Y-40998204D01*
%TO.N,Net-(D63-Pad2)*%
X77397587Y-77696487D02*
X77397587Y-72940710D01*
X77397587Y-72940710D02*
X80625393Y-69712904D01*
X80625393Y-69712904D02*
X80625393Y-67744404D01*
X80625393Y-67744404D02*
X82822493Y-65547304D01*
X82822493Y-60421393D02*
X82597588Y-60196488D01*
X82822493Y-65547304D02*
X82822493Y-60421393D01*
%TO.N,Net-(D64-Pad2)*%
X134273155Y-61196489D02*
X133859340Y-61610304D01*
X134397585Y-61196489D02*
X134273155Y-61196489D01*
X133859340Y-61610304D02*
X133406593Y-61610304D01*
X132796993Y-62858442D02*
X133089093Y-63150542D01*
X132796993Y-62219904D02*
X132796993Y-62858442D01*
X133406593Y-61610304D02*
X132796993Y-62219904D01*
X133089093Y-63150542D02*
X133089093Y-66931604D01*
X133089093Y-66931604D02*
X136594293Y-70436804D01*
X136594293Y-72557704D02*
X136606993Y-72570404D01*
X136594293Y-70436804D02*
X136594293Y-72557704D01*
X141064693Y-81029380D02*
X140397585Y-81696488D01*
X141064693Y-78085742D02*
X141064693Y-81029380D01*
X139991254Y-77012303D02*
X141064693Y-78085742D01*
X140397585Y-81696488D02*
X139597585Y-81696488D01*
X138070592Y-77012303D02*
X139991254Y-77012303D01*
X137318193Y-76259904D02*
X138070592Y-77012303D01*
X137318193Y-74805604D02*
X137318193Y-76259904D01*
%TO.N,Net-(D65-Pad2)*%
X77397588Y-58696488D02*
X77397588Y-53382709D01*
X80472993Y-50307304D02*
X80472993Y-49151604D01*
X80472993Y-49151604D02*
X82187493Y-47437104D01*
X82187493Y-47437104D02*
X82187493Y-47005304D01*
X82187493Y-47005304D02*
X82860593Y-46332204D01*
X82860593Y-46332204D02*
X82873293Y-46332204D01*
X82873293Y-46332204D02*
X84257593Y-44947904D01*
X84257593Y-42856494D02*
X82597588Y-41196489D01*
X84257593Y-44947904D02*
X84257593Y-42856494D01*
X77397588Y-53382709D02*
X77397588Y-53370009D01*
X80472993Y-50307304D02*
X77397588Y-53382709D01*
%TO.N,Net-(D66-Pad2)*%
X132666477Y-80196488D02*
X132647693Y-80177704D01*
X134397585Y-80196488D02*
X132666477Y-80196488D01*
X129939493Y-80355504D02*
X129063193Y-81231804D01*
X130647593Y-80355504D02*
X129939493Y-80355504D01*
X124224493Y-93893704D02*
X124033993Y-94084204D01*
X124224493Y-81231804D02*
X124224493Y-93893704D01*
X120597586Y-103196488D02*
X122275009Y-103196488D01*
X122275009Y-103196488D02*
X123322793Y-102148704D01*
X123322793Y-94795404D02*
X124033993Y-94084204D01*
X123322793Y-102148704D02*
X123322793Y-94795404D01*
%TO.N,Net-(D67-Pad2)*%
X77397588Y-38465871D02*
X77932993Y-37930466D01*
X77397588Y-39696489D02*
X77397588Y-38465871D01*
X86213393Y-37683504D02*
X86213393Y-44185904D01*
X101597587Y-36891610D02*
X101597587Y-36196489D01*
X100767593Y-37721604D02*
X101597587Y-36891610D01*
X97775913Y-37721604D02*
X100767593Y-37721604D01*
X96933102Y-38564415D02*
X97775913Y-37721604D01*
%TO.N,Net-(D68-Pad2)*%
X115397586Y-96002311D02*
X115499593Y-95900304D01*
X115397586Y-101696488D02*
X115397586Y-96002311D01*
X142230071Y-105544026D02*
X144184471Y-105544026D01*
X145331893Y-104396604D02*
X145331893Y-101869304D01*
X144184471Y-105544026D02*
X145331893Y-104396604D01*
X133000193Y-98694304D02*
X132631893Y-98326004D01*
X133000193Y-99926204D02*
X133000193Y-98694304D01*
%TO.N,Net-(D69-Pad2)*%
X96397587Y-32630798D02*
X96386093Y-32619304D01*
X96397587Y-34696489D02*
X96397587Y-32630798D01*
X102761809Y-55196488D02*
X101597587Y-55196488D01*
X104517194Y-53441103D02*
X102761809Y-55196488D01*
X104517194Y-42106205D02*
X104517194Y-53441103D01*
X104069593Y-41658604D02*
X104517194Y-42106205D01*
X104069593Y-32717804D02*
X104069593Y-41658604D01*
%TO.N,Net-(D70-Pad2)*%
X96397587Y-53696488D02*
X96397587Y-53026310D01*
X96397587Y-53026310D02*
X96397587Y-52556410D01*
X98240293Y-50713704D02*
X100665993Y-50713704D01*
X96397587Y-52556410D02*
X98240293Y-50713704D01*
X111397493Y-74615104D02*
X111054425Y-74958172D01*
X111397493Y-49075404D02*
X111397493Y-74615104D01*
X101724102Y-74323004D02*
X101597586Y-74196488D01*
X103536193Y-74323004D02*
X101724102Y-74323004D01*
%TO.N,Net-(D71-Pad2)*%
X137369543Y-101871854D02*
X138092893Y-101148504D01*
X137369543Y-103163844D02*
X137369543Y-101871854D01*
X163126264Y-111612340D02*
X163228329Y-111612340D01*
X163228329Y-111612340D02*
X164051693Y-112435704D01*
X164051693Y-112435704D02*
X165766193Y-112435704D01*
X167544193Y-110657704D02*
X167544193Y-108930504D01*
X165766193Y-112435704D02*
X167544193Y-110657704D01*
%TO.N,RESET*%
X151098893Y-89409404D02*
X150068993Y-90439304D01*
X151893593Y-89409404D02*
X151098893Y-89409404D01*
X150068993Y-90439304D02*
X150068993Y-88369204D01*
X150956093Y-87482104D02*
X150956093Y-86540404D01*
X150068993Y-88369204D02*
X150956093Y-87482104D01*
X106609593Y-40058404D02*
X108692393Y-40058404D01*
X110470393Y-41836404D02*
X110470393Y-44058904D01*
X108692393Y-40058404D02*
X110470393Y-41836404D01*
X145700193Y-59629104D02*
X145700193Y-48592804D01*
X146012593Y-59941504D02*
X145700193Y-59629104D01*
X146012593Y-65048404D02*
X146012593Y-59941504D01*
X147122593Y-66158404D02*
X146012593Y-65048404D01*
X147122593Y-82258404D02*
X147122593Y-66158404D01*
X150956093Y-86091904D02*
X147122593Y-82258404D01*
X150956093Y-86540404D02*
X150956093Y-86091904D01*
%TO.N,col0*%
X105288793Y-51539204D02*
X105085593Y-51742404D01*
X105085593Y-55332966D02*
X104818893Y-55599666D01*
X105085593Y-51742404D02*
X105085593Y-55332966D01*
X104818893Y-91760104D02*
X104628393Y-91950604D01*
X104818893Y-55599666D02*
X104818893Y-91760104D01*
X72865693Y-91544204D02*
X71214693Y-93195204D01*
X71214693Y-93195204D02*
X71214693Y-95201804D01*
X72992693Y-96979804D02*
X72992693Y-104752204D01*
X71214693Y-95201804D02*
X72992693Y-96979804D01*
X35743710Y-67566487D02*
X37187589Y-67566487D01*
X34803793Y-68506404D02*
X35743710Y-67566487D01*
X34803793Y-84182690D02*
X34803793Y-68506404D01*
X37187589Y-86566486D02*
X34803793Y-84182690D01*
X34791093Y-88962982D02*
X37187589Y-86566486D01*
X34791093Y-103169990D02*
X34791093Y-88962982D01*
X37187588Y-105566485D02*
X34791093Y-103169990D01*
%TO.N,col1*%
X56355693Y-80398382D02*
X57187589Y-79566486D01*
X56355693Y-97734590D02*
X56355693Y-80398382D01*
X57187588Y-98566485D02*
X56355693Y-97734590D01*
X103764793Y-47830804D02*
X103739393Y-47856204D01*
X103764793Y-45138404D02*
X103764793Y-47830804D01*
X56419193Y-61334883D02*
X57187589Y-60566487D01*
X56419193Y-63959804D02*
X56419193Y-61334883D01*
X56152493Y-64226504D02*
X56419193Y-63959804D01*
X56152493Y-78531390D02*
X56152493Y-64226504D01*
X57187589Y-79566486D02*
X56152493Y-78531390D01*
%TO.N,col2*%
X76241593Y-96431404D02*
X76241593Y-99431404D01*
X82511926Y-99578537D02*
X82364793Y-99431404D01*
X82511926Y-104529268D02*
X82511926Y-99578537D01*
X76187587Y-86066486D02*
X76187587Y-86355410D01*
X76187587Y-86355410D02*
X75469193Y-87073804D01*
X75469193Y-89389804D02*
X76241593Y-90162204D01*
X75469193Y-87073804D02*
X75469193Y-89389804D01*
X76241593Y-96431404D02*
X76241593Y-90162204D01*
X74999293Y-49254783D02*
X76187588Y-48066488D01*
X74999293Y-65878192D02*
X74999293Y-49254783D01*
X76187588Y-67066487D02*
X74999293Y-65878192D01*
X74999293Y-68254782D02*
X76187588Y-67066487D01*
X74999293Y-84878192D02*
X74999293Y-68254782D01*
X76187587Y-86066486D02*
X74999293Y-84878192D01*
%TO.N,col3*%
X114187586Y-110066487D02*
X107041393Y-102920294D01*
X107041393Y-102920294D02*
X107041393Y-93728604D01*
X93858793Y-63395281D02*
X95187587Y-62066487D01*
X93858793Y-65661604D02*
X93858793Y-63395281D01*
X92715793Y-66804604D02*
X93858793Y-65661604D01*
X92715793Y-78594694D02*
X92715793Y-66804604D01*
X95187586Y-81066487D02*
X92715793Y-78594694D01*
X94176293Y-44077782D02*
X95187587Y-43066488D01*
X95187587Y-59700598D02*
X94176293Y-58689304D01*
X94176293Y-58689304D02*
X94176293Y-44077782D01*
X95187587Y-62066487D02*
X95187587Y-59700598D01*
X99573793Y-46637004D02*
X99573793Y-44630404D01*
X101137709Y-43066488D02*
X102807587Y-43066488D01*
X99573793Y-44630404D02*
X101137709Y-43066488D01*
X94722393Y-81531680D02*
X95187586Y-81066487D01*
X94722393Y-84381404D02*
X94722393Y-81531680D01*
X96576593Y-86235604D02*
X94722393Y-84381404D01*
X96576593Y-93728604D02*
X96576593Y-86235604D01*
%TO.N,col4*%
X112756393Y-65635294D02*
X114187586Y-67066487D01*
X112756393Y-53307681D02*
X112756393Y-65635294D01*
X107892293Y-55298404D02*
X110203693Y-52987004D01*
X106609593Y-55298404D02*
X107892293Y-55298404D01*
X125659593Y-108168504D02*
X125659593Y-93931804D01*
X114187586Y-48066488D02*
X114120909Y-48066488D01*
X114120909Y-48066488D02*
X113137393Y-49050004D01*
X113137393Y-52926681D02*
X112756393Y-53307681D01*
X113137393Y-49050004D02*
X113137393Y-52926681D01*
X112629393Y-84508294D02*
X114187586Y-86066487D01*
X112629393Y-68624680D02*
X112629393Y-84508294D01*
X114187586Y-67066487D02*
X112629393Y-68624680D01*
X120643093Y-93791994D02*
X120643093Y-92064904D01*
X120643093Y-92064904D02*
X122382993Y-90325004D01*
X122382993Y-86641894D02*
X121807586Y-86066487D01*
X122382993Y-90325004D02*
X122382993Y-86641894D01*
%TO.N,sda*%
X85768893Y-45506704D02*
X85768893Y-50408904D01*
X85768893Y-50408904D02*
X84346493Y-51831304D01*
X84346493Y-61838904D02*
X86073693Y-63566104D01*
X84346493Y-51831304D02*
X84346493Y-61838904D01*
X86073693Y-81231804D02*
X86137193Y-81295304D01*
X86073693Y-63566104D02*
X86073693Y-81231804D01*
X145065193Y-83759104D02*
X145065193Y-68221004D01*
X145092593Y-68193604D02*
X145065193Y-68221004D01*
X145092593Y-60748404D02*
X145092593Y-68193604D01*
X150322593Y-61738404D02*
X150782593Y-61278404D01*
X149187593Y-61738404D02*
X150322593Y-61738404D01*
%TO.N,scl*%
X88197693Y-65690104D02*
X88283493Y-65775904D01*
X88197693Y-47640304D02*
X88197693Y-65690104D01*
X151692593Y-60178404D02*
X151692593Y-62158404D01*
X151112593Y-62738404D02*
X149187593Y-62738404D01*
X151692593Y-62158404D02*
X151112593Y-62738404D01*
X149187593Y-62738404D02*
X147302593Y-62738404D01*
X142962593Y-67958404D02*
X142627593Y-68293404D01*
X142962593Y-62738404D02*
X142962593Y-67958404D01*
%TO.N,ENC1B*%
X91064793Y-63223204D02*
X91369593Y-62918404D01*
X87011926Y-105122071D02*
X87305593Y-104828404D01*
X87011926Y-114529268D02*
X87011926Y-105122071D01*
X97011926Y-104529268D02*
X97011926Y-95738737D01*
X97011926Y-95738737D02*
X95535193Y-94262004D01*
X95535193Y-94262004D02*
X95535193Y-85994304D01*
X93922293Y-84381404D02*
X93922293Y-83721004D01*
X95535193Y-85994304D02*
X93922293Y-84381404D01*
X91064793Y-82882804D02*
X91064793Y-82654204D01*
X91407693Y-83225704D02*
X91064793Y-82882804D01*
X91064793Y-82654204D02*
X91064793Y-63223204D01*
%TO.N,ENC1A*%
X89693193Y-60378404D02*
X91369593Y-60378404D01*
X88867693Y-61203904D02*
X89693193Y-60378404D01*
X90328193Y-65826704D02*
X88867693Y-64366204D01*
X88867693Y-64366204D02*
X88867693Y-61203904D01*
X90328193Y-85181504D02*
X90328193Y-65826704D01*
X94341393Y-89194704D02*
X90328193Y-85181504D01*
X92011926Y-110040771D02*
X92131593Y-109921104D01*
X92011926Y-114529268D02*
X92011926Y-110040771D01*
X97011926Y-109529268D02*
X98327329Y-109529268D01*
X98327329Y-109529268D02*
X99154693Y-108701904D01*
X99154693Y-90769504D02*
X97719593Y-89334404D01*
X99154693Y-108701904D02*
X99154693Y-90769504D01*
%TO.N,data*%
X112146793Y-50624804D02*
X112235693Y-50713704D01*
X112146793Y-45481304D02*
X112146793Y-50624804D01*
X143515793Y-47411704D02*
X144493693Y-46433804D01*
X143515793Y-54993604D02*
X143515793Y-47411704D01*
X95903493Y-41150604D02*
X93566693Y-41150604D01*
X93566693Y-41150604D02*
X92855493Y-40439404D01*
X92855493Y-39004304D02*
X91369593Y-37518404D01*
X92855493Y-40439404D02*
X92855493Y-39004304D01*
%TO.N,Net-(D39-Pad4)*%
X96397586Y-71050711D02*
X96424193Y-71024104D01*
X96397586Y-72696488D02*
X96397586Y-71050711D01*
X108031993Y-71846504D02*
X109105311Y-70773186D01*
X107930393Y-71846504D02*
X108031993Y-71846504D01*
X122738593Y-74104004D02*
X122738593Y-77855481D01*
X121397586Y-79196488D02*
X120597586Y-79196488D01*
X122738593Y-77855481D02*
X121397586Y-79196488D01*
%TO.N,Net-(D38-Pad4)*%
X63597589Y-53696488D02*
X63597589Y-55593400D01*
X63597589Y-55593400D02*
X63759793Y-55755604D01*
X63759793Y-55755604D02*
X63759793Y-59070304D01*
X63759793Y-59070304D02*
X61054693Y-61775404D01*
X61054693Y-64709104D02*
X59898993Y-65864804D01*
X61054693Y-61775404D02*
X61054693Y-64709104D01*
X46995793Y-65598104D02*
X46995793Y-57343104D01*
X47770493Y-66372804D02*
X46995793Y-65598104D01*
X39655193Y-57279604D02*
X38969393Y-57279604D01*
X38397589Y-57851408D02*
X38397589Y-59196488D01*
X38969393Y-57279604D02*
X38397589Y-57851408D01*
X54145893Y-106273904D02*
X54145893Y-96662304D01*
X53409293Y-95925704D02*
X53409293Y-66830004D01*
X54145893Y-96662304D02*
X53409293Y-95925704D01*
%TO.N,Net-(D41-Pad4)*%
X53320393Y-54765004D02*
X52405993Y-55679404D01*
X52405993Y-55679404D02*
X52405993Y-62524704D01*
X52405993Y-62524704D02*
X51796393Y-63134304D01*
X51796393Y-63134304D02*
X50043793Y-63134304D01*
X50043793Y-63134304D02*
X49408793Y-62499304D01*
X49408793Y-60454604D02*
X48202293Y-59248104D01*
X49408793Y-62499304D02*
X49408793Y-60454604D01*
X56152493Y-106187304D02*
X54755493Y-104790304D01*
X54755493Y-104790304D02*
X54755493Y-96268604D01*
X54755493Y-96268604D02*
X54171293Y-95684404D01*
X54171293Y-95684404D02*
X54171293Y-67388804D01*
X54171293Y-67388804D02*
X54412593Y-67147504D01*
X54412593Y-55857204D02*
X53320393Y-54765004D01*
X54412593Y-67147504D02*
X54412593Y-55857204D01*
%TO.N,Net-(D74-Pad2)*%
X43597589Y-79696487D02*
X43597589Y-81783300D01*
X43597589Y-81783300D02*
X43909693Y-82095404D01*
X43909693Y-82095404D02*
X43909693Y-84838604D01*
X43909693Y-84838604D02*
X42817493Y-85930804D01*
X42817493Y-85930804D02*
X42817493Y-86642004D01*
X42817493Y-86642004D02*
X40544193Y-88915304D01*
X40544193Y-88915304D02*
X40544193Y-91277504D01*
X38397588Y-93424109D02*
X38397588Y-97196486D01*
X40544193Y-91277504D02*
X38397588Y-93424109D01*
%TO.N,Net-(D75-Pad2)*%
X36391293Y-79784004D02*
X36391293Y-82552604D01*
X36391293Y-82552604D02*
X38347093Y-84508404D01*
X38347093Y-84508404D02*
X38347093Y-85118004D01*
X38347093Y-85118004D02*
X39337693Y-86108604D01*
X39337693Y-86591204D02*
X40417193Y-87670704D01*
X39337693Y-86108604D02*
X39337693Y-86591204D01*
X41420493Y-89423304D02*
X41420493Y-93220604D01*
X42207893Y-94008004D02*
X42207893Y-94211204D01*
X41420493Y-93220604D02*
X42207893Y-94008004D01*
%TO.N,Net-(D76-Pad2)*%
X38397589Y-78196487D02*
X38397589Y-73777208D01*
X40633093Y-71541704D02*
X40633093Y-70436804D01*
X38397589Y-73777208D02*
X40633093Y-71541704D01*
X41610993Y-68709604D02*
X43033393Y-67287204D01*
X43033393Y-67287204D02*
X43033393Y-66690304D01*
X43033393Y-66690304D02*
X44366893Y-65356804D01*
X44366893Y-61465792D02*
X43597589Y-60696488D01*
X44366893Y-65356804D02*
X44366893Y-61465792D01*
%TO.N,Net-(D77-Pad2)*%
X36454793Y-61267404D02*
X36454793Y-64264604D01*
X36454793Y-64264604D02*
X39159893Y-66969704D01*
X39159893Y-66969704D02*
X39159893Y-67579304D01*
X39159893Y-67579304D02*
X41585593Y-70005004D01*
X41585593Y-70005004D02*
X41585593Y-74361104D01*
X41585593Y-75542204D02*
X42461893Y-76418504D01*
X41585593Y-74361104D02*
X41585593Y-75542204D01*
%TO.N,Net-(D80-Pad2)*%
X43580493Y-70149391D02*
X43537589Y-70106487D01*
X43580493Y-73700704D02*
X43580493Y-70149391D01*
%TO.N,Net-(D83-Pad2)*%
X43542393Y-89111290D02*
X43537589Y-89106486D01*
X43542393Y-92572904D02*
X43542393Y-89111290D01*
%TO.N,Net-(D85-Pad2)*%
X43542393Y-108111290D02*
X43537588Y-108106485D01*
X43542393Y-111673704D02*
X43542393Y-108111290D01*
%TO.N,col5*%
X161803927Y-118481872D02*
X161913614Y-118481872D01*
X109919475Y-60975304D02*
X109919475Y-70109704D01*
X131374593Y-74399204D02*
X131571726Y-74202071D01*
X131374593Y-86753495D02*
X131374593Y-74399204D01*
X133187585Y-88566487D02*
X131374593Y-86753495D01*
X155077834Y-116200357D02*
X154753156Y-115875679D01*
X150221393Y-115280504D02*
X150208693Y-115293204D01*
X150221393Y-99481704D02*
X150221393Y-115280504D01*
X132695393Y-89058679D02*
X133187585Y-88566487D01*
X132695393Y-91925204D02*
X132695393Y-89058679D01*
X134457585Y-97764096D02*
X134457585Y-93687396D01*
X134457585Y-93687396D02*
X132695393Y-91925204D01*
X134498793Y-97805304D02*
X134457585Y-97764096D01*
X131298393Y-52455681D02*
X133187585Y-50566489D01*
X131298393Y-67677296D02*
X131298393Y-52455681D01*
X133187585Y-69566488D02*
X131298393Y-67677296D01*
X131571726Y-71182347D02*
X131571726Y-74202071D01*
X133187585Y-69566488D02*
X131571726Y-71182347D01*
%TD*%
M02*
