%TF.GenerationSoftware,KiCad,Pcbnew,(5.1.10)-1*%
%TF.CreationDate,2021-12-15T17:12:06-08:00*%
%TF.ProjectId,luakeeb,6c75616b-6565-4622-9e6b-696361645f70,rev?*%
%TF.SameCoordinates,Original*%
%TF.FileFunction,Profile,NP*%
%FSLAX46Y46*%
G04 Gerber Fmt 4.6, Leading zero omitted, Abs format (unit mm)*
G04 Created by KiCad (PCBNEW (5.1.10)-1) date 2021-12-15 17:12:06*
%MOMM*%
%LPD*%
G01*
G04 APERTURE LIST*
%TA.AperFunction,Profile*%
%ADD10C,0.250000*%
%TD*%
%TA.AperFunction,Profile*%
%ADD11C,0.100000*%
%TD*%
G04 APERTURE END LIST*
D10*
X51470332Y-81936556D02*
X50456060Y-81936550D01*
X51477962Y-66734715D02*
X50470400Y-66734715D01*
X50456060Y-81936550D02*
X50470403Y-66734713D01*
X51495095Y-100856709D02*
X50479233Y-100856712D01*
X51456826Y-86978062D02*
X50462843Y-86978062D01*
X127462596Y-38525458D02*
X151453293Y-38521704D01*
X51470332Y-81936556D02*
X51477962Y-66734708D01*
X51495095Y-100856709D02*
X51456826Y-86978068D01*
X52107378Y-116442147D02*
X51928159Y-116239278D01*
X51928159Y-116239278D02*
X51776485Y-116017769D01*
X51776485Y-116017769D02*
X51653517Y-115780428D01*
X51653517Y-115780428D02*
X51560417Y-115530061D01*
X51560417Y-115530061D02*
X51498348Y-115269476D01*
X51498348Y-115269476D02*
X51468471Y-115001478D01*
X51468471Y-115001478D02*
X51465795Y-114892833D01*
X50472677Y-114895276D02*
X50455792Y-115168088D01*
X50455792Y-115168088D02*
X50405924Y-115434541D01*
X50405924Y-115434541D02*
X50324249Y-115691799D01*
X50324249Y-115691799D02*
X50211941Y-115937027D01*
X50211941Y-115937027D02*
X50070175Y-116167389D01*
X50070175Y-116167389D02*
X49900127Y-116380050D01*
X49900127Y-116380050D02*
X49824453Y-116459524D01*
X51466467Y-105979233D02*
X50473247Y-105979229D01*
X50479233Y-100856712D02*
X50462843Y-86978062D01*
X33976667Y-117098131D02*
X33715033Y-117084763D01*
X33715033Y-117084763D02*
X33460967Y-117045843D01*
X33460967Y-117045843D02*
X33215753Y-116982657D01*
X33215753Y-116982657D02*
X32980678Y-116896489D01*
X32980678Y-116896489D02*
X32649884Y-116726961D01*
X32649884Y-116726961D02*
X32349129Y-116512958D01*
X32349129Y-116512958D02*
X32082750Y-116258821D01*
X32082750Y-116258821D02*
X31855083Y-115968889D01*
X31855083Y-115968889D02*
X31670466Y-115647502D01*
X31670466Y-115647502D02*
X31533235Y-115299000D01*
X31533235Y-115299000D02*
X31470216Y-115053744D01*
X31470216Y-115053744D02*
X31431469Y-114799652D01*
X31431469Y-114799652D02*
X31418282Y-114538009D01*
X162413393Y-126126304D02*
X146983414Y-120510248D01*
X50472754Y-105979625D02*
X50472677Y-114895276D01*
X146983414Y-120510248D02*
X127511468Y-117076352D01*
X31418282Y-114538009D02*
X31422229Y-57997936D01*
X127511468Y-117076352D02*
X53656647Y-117083807D01*
X51465795Y-114892833D02*
X51467217Y-105981382D01*
X48184527Y-55454835D02*
X48466240Y-55471661D01*
X48466240Y-55471661D02*
X48741451Y-55522589D01*
X48741451Y-55522589D02*
X49007225Y-55606409D01*
X49007225Y-55606409D02*
X49260626Y-55721909D01*
X49260626Y-55721909D02*
X49498718Y-55867879D01*
X49498718Y-55867879D02*
X49718566Y-56043108D01*
X49718566Y-56043108D02*
X49800740Y-56121122D01*
X49824453Y-116459524D02*
X49619553Y-116640430D01*
X49619553Y-116640430D02*
X49395836Y-116793511D01*
X49395836Y-116793511D02*
X49156138Y-116917596D01*
X49156138Y-116917596D02*
X48903295Y-117011509D01*
X48903295Y-117011509D02*
X48640142Y-117074078D01*
X48640142Y-117074078D02*
X48369516Y-117104130D01*
X48369516Y-117104130D02*
X48259809Y-117106784D01*
X48259809Y-117106784D02*
X33976667Y-117098131D01*
X31422229Y-57997936D02*
X31435175Y-57741511D01*
X31435175Y-57741511D02*
X31473142Y-57492473D01*
X31473142Y-57492473D02*
X31574259Y-57135518D01*
X31574259Y-57135518D02*
X31724609Y-56802261D01*
X31724609Y-56802261D02*
X31919952Y-56496949D01*
X31919952Y-56496949D02*
X32156051Y-56223829D01*
X32156051Y-56223829D02*
X32428668Y-55987148D01*
X32428668Y-55987148D02*
X32733563Y-55791155D01*
X32733563Y-55791155D02*
X33066499Y-55640096D01*
X33066499Y-55640096D02*
X33423237Y-55538219D01*
X33423237Y-55538219D02*
X33672193Y-55499721D01*
X33672193Y-55499721D02*
X33928589Y-55486229D01*
X53656647Y-117083807D02*
X53386471Y-117067120D01*
X53386471Y-117067120D02*
X53122587Y-117017775D01*
X53122587Y-117017775D02*
X52867801Y-116936934D01*
X52867801Y-116936934D02*
X52624921Y-116825761D01*
X52624921Y-116825761D02*
X52396752Y-116685418D01*
X52396752Y-116685418D02*
X52186103Y-116517068D01*
X52186103Y-116517068D02*
X52107378Y-116442147D01*
X89511871Y-36027018D02*
X89484135Y-33331526D01*
X70511889Y-48525643D02*
X70471881Y-38284649D01*
X106005278Y-31025537D02*
X106313215Y-31044701D01*
X106313215Y-31044701D02*
X106613888Y-31101315D01*
X106613888Y-31101315D02*
X106904061Y-31194028D01*
X106904061Y-31194028D02*
X107180498Y-31321490D01*
X107180498Y-31321490D02*
X107439962Y-31482351D01*
X107439962Y-31482351D02*
X107679218Y-31675260D01*
X107679218Y-31675260D02*
X107768538Y-31761096D01*
X51459396Y-62408348D02*
X51460425Y-50682975D01*
X126761564Y-36762361D02*
X126962212Y-36994499D01*
X126962212Y-36994499D02*
X127130979Y-37247640D01*
X127130979Y-37247640D02*
X127266564Y-37518502D01*
X127266564Y-37518502D02*
X127367664Y-37803801D01*
X127367664Y-37803801D02*
X127432977Y-38100256D01*
X127432977Y-38100256D02*
X127461201Y-38404585D01*
X127461201Y-38404585D02*
X127461814Y-38527787D01*
X72720645Y-36027071D02*
X89511871Y-36027018D01*
X71127405Y-36688835D02*
X71335810Y-36504045D01*
X71335810Y-36504045D02*
X71563483Y-36347632D01*
X71563483Y-36347632D02*
X71807524Y-36220801D01*
X71807524Y-36220801D02*
X72065032Y-36124756D01*
X72065032Y-36124756D02*
X72333107Y-36060703D01*
X72333107Y-36060703D02*
X72608850Y-36029848D01*
X72608850Y-36029848D02*
X72720645Y-36027071D01*
X49800740Y-56121122D02*
X49987817Y-56332420D01*
X49987817Y-56332420D02*
X50146163Y-56563202D01*
X50146163Y-56563202D02*
X50274562Y-56810536D01*
X50274562Y-56810536D02*
X50371797Y-57071489D01*
X50371797Y-57071489D02*
X50436650Y-57343129D01*
X50436650Y-57343129D02*
X50467905Y-57622525D01*
X50467905Y-57622525D02*
X50470727Y-57735798D01*
X50471157Y-62410182D02*
X51459396Y-62408348D01*
X91765892Y-31026073D02*
X106005278Y-31025537D01*
X51460425Y-50682975D02*
X51485301Y-50354530D01*
X51485301Y-50354530D02*
X51557434Y-50041640D01*
X51557434Y-50041640D02*
X51673165Y-49747961D01*
X51673165Y-49747961D02*
X51828835Y-49477152D01*
X51828835Y-49477152D02*
X52020786Y-49232871D01*
X52020786Y-49232871D02*
X52245360Y-49018776D01*
X52245360Y-49018776D02*
X52498898Y-48838525D01*
X52498898Y-48838525D02*
X52777742Y-48695775D01*
X52777742Y-48695775D02*
X53078234Y-48594186D01*
X53078234Y-48594186D02*
X53396715Y-48537414D01*
X53396715Y-48537414D02*
X53617224Y-48526272D01*
X33928589Y-55486229D02*
X48184527Y-55454835D01*
X50470727Y-57735798D02*
X50471157Y-62410182D01*
X108486229Y-33531712D02*
X108460889Y-36027407D01*
X125010556Y-36026790D02*
X125316792Y-36045966D01*
X125316792Y-36045966D02*
X125615713Y-36102614D01*
X125615713Y-36102614D02*
X125904065Y-36195366D01*
X125904065Y-36195366D02*
X126178591Y-36322853D01*
X126178591Y-36322853D02*
X126436035Y-36483708D01*
X126436035Y-36483708D02*
X126673144Y-36676564D01*
X126673144Y-36676564D02*
X126761564Y-36762361D01*
X107768538Y-31761096D02*
X107971552Y-31993428D01*
X107971552Y-31993428D02*
X108142841Y-32246945D01*
X108142841Y-32246945D02*
X108281087Y-32518395D01*
X108281087Y-32518395D02*
X108384974Y-32804530D01*
X108384974Y-32804530D02*
X108453183Y-33102097D01*
X108453183Y-33102097D02*
X108484397Y-33407848D01*
X108484397Y-33407848D02*
X108486229Y-33531712D01*
X90144071Y-31702802D02*
X90355854Y-31513892D01*
X90355854Y-31513892D02*
X90587422Y-31353964D01*
X90587422Y-31353964D02*
X90835796Y-31224261D01*
X90835796Y-31224261D02*
X91097999Y-31126024D01*
X91097999Y-31126024D02*
X91371053Y-31060496D01*
X91371053Y-31060496D02*
X91651982Y-31028919D01*
X91651982Y-31028919D02*
X91765892Y-31026073D01*
X70471881Y-38284649D02*
X70488034Y-38006588D01*
X70488034Y-38006588D02*
X70537891Y-37734902D01*
X70537891Y-37734902D02*
X70620257Y-37472494D01*
X70620257Y-37472494D02*
X70733940Y-37222271D01*
X70733940Y-37222271D02*
X70877745Y-36987138D01*
X70877745Y-36987138D02*
X71050478Y-36770000D01*
X71050478Y-36770000D02*
X71127405Y-36688835D01*
X108460889Y-36027407D02*
X125010556Y-36026790D01*
X89484135Y-33331526D02*
X89498856Y-33048112D01*
X89498856Y-33048112D02*
X89548092Y-32771026D01*
X89548092Y-32771026D02*
X89630632Y-32503259D01*
X89630632Y-32503259D02*
X89745264Y-32247799D01*
X89745264Y-32247799D02*
X89890778Y-32007637D01*
X89890778Y-32007637D02*
X90065961Y-31785762D01*
X90065961Y-31785762D02*
X90144071Y-31702802D01*
X53617224Y-48526272D02*
X70511889Y-48525643D01*
X169055493Y-107939904D02*
X153472593Y-102263004D01*
X164836161Y-124992600D02*
X170189197Y-110362672D01*
X169055493Y-107939904D02*
X169318602Y-108058808D01*
X169318602Y-108058808D02*
X169554800Y-108211934D01*
X169554800Y-108211934D02*
X169762171Y-108395186D01*
X169762171Y-108395186D02*
X169938798Y-108604470D01*
X169938798Y-108604470D02*
X170082766Y-108835692D01*
X170082766Y-108835692D02*
X170192159Y-109084757D01*
X170192159Y-109084757D02*
X170265060Y-109347570D01*
X170265060Y-109347570D02*
X170299554Y-109620037D01*
X170299554Y-109620037D02*
X170293724Y-109898063D01*
X170293724Y-109898063D02*
X170245655Y-110177553D01*
X170245655Y-110177553D02*
X170189197Y-110362672D01*
X164836161Y-124992600D02*
X164717256Y-125255709D01*
X164717256Y-125255709D02*
X164564130Y-125491907D01*
X164564130Y-125491907D02*
X164380878Y-125699278D01*
X164380878Y-125699278D02*
X164171594Y-125875905D01*
X164171594Y-125875905D02*
X163940372Y-126019873D01*
X163940372Y-126019873D02*
X163691307Y-126129266D01*
X163691307Y-126129266D02*
X163428494Y-126202167D01*
X163428494Y-126202167D02*
X163156027Y-126236661D01*
X163156027Y-126236661D02*
X162878001Y-126230831D01*
X162878001Y-126230831D02*
X162598511Y-126182762D01*
X162598511Y-126182762D02*
X162413393Y-126126304D01*
X151453293Y-38521704D02*
X151763220Y-38545166D01*
X151763220Y-38545166D02*
X152058410Y-38613304D01*
X152058410Y-38613304D02*
X152335346Y-38722745D01*
X152335346Y-38722745D02*
X152590512Y-38870118D01*
X152590512Y-38870118D02*
X152820391Y-39052050D01*
X152820391Y-39052050D02*
X153021468Y-39265169D01*
X153021468Y-39265169D02*
X153190225Y-39506102D01*
X153190225Y-39506102D02*
X153323147Y-39771477D01*
X153323147Y-39771477D02*
X153416718Y-40057922D01*
X153416718Y-40057922D02*
X153467421Y-40362064D01*
X153467421Y-40362064D02*
X153475672Y-40572992D01*
X153475672Y-40572992D02*
X153472593Y-102263004D01*
D11*
%TO.C,D79*%
X42697588Y-59243646D02*
X42697588Y-60649330D01*
X41792041Y-61446487D02*
X40203136Y-61446487D01*
X39297590Y-60649330D02*
X39297590Y-59243646D01*
X40203137Y-58446488D02*
X41792041Y-58446488D01*
X42044299Y-58378189D02*
G75*
G02*
X41792041Y-58446488I-252258J431701D01*
G01*
X40203137Y-58446488D02*
G75*
G02*
X39950878Y-58378189I0J500000D01*
G01*
X39248105Y-59026769D02*
G75*
G02*
X39950878Y-58378189I450515J216879D01*
G01*
X39248105Y-59026768D02*
G75*
G02*
X39297590Y-59243646I-450515J-216878D01*
G01*
X39297590Y-60649331D02*
G75*
G02*
X39248105Y-60866208I-500000J1D01*
G01*
X39950878Y-61514785D02*
G75*
G02*
X39248105Y-60866208I-252258J431700D01*
G01*
X39950878Y-61514786D02*
G75*
G02*
X40203136Y-61446487I252258J-431701D01*
G01*
X41792042Y-61446488D02*
G75*
G02*
X42044300Y-61514787I-1J-499999D01*
G01*
X42747073Y-60866208D02*
G75*
G02*
X42044300Y-61514787I-450515J-216878D01*
G01*
X42747073Y-60866208D02*
G75*
G02*
X42697588Y-60649330I450515J216878D01*
G01*
X42697588Y-59243645D02*
G75*
G02*
X42747073Y-59026768I500000J-1D01*
G01*
X42044300Y-58378191D02*
G75*
G02*
X42747073Y-59026768I252258J-431700D01*
G01*
%TO.C,D78*%
X39297590Y-59243646D02*
X39297590Y-60649330D01*
X40203137Y-61446487D02*
X41792042Y-61446487D01*
X42697588Y-60649330D02*
X42697588Y-59243646D01*
X41792041Y-58446488D02*
X40203137Y-58446488D01*
X39950879Y-58378189D02*
G75*
G03*
X40203137Y-58446488I252258J431701D01*
G01*
X41792041Y-58446488D02*
G75*
G03*
X42044300Y-58378189I0J500000D01*
G01*
X42747073Y-59026769D02*
G75*
G03*
X42044300Y-58378189I-450515J216879D01*
G01*
X42747073Y-59026768D02*
G75*
G03*
X42697588Y-59243646I450515J-216878D01*
G01*
X42697588Y-60649331D02*
G75*
G03*
X42747073Y-60866208I500000J1D01*
G01*
X42044300Y-61514785D02*
G75*
G03*
X42747073Y-60866208I252258J431700D01*
G01*
X42044300Y-61514786D02*
G75*
G03*
X41792042Y-61446487I-252258J-431701D01*
G01*
X40203136Y-61446488D02*
G75*
G03*
X39950878Y-61514787I1J-499999D01*
G01*
X39248105Y-60866208D02*
G75*
G03*
X39950878Y-61514787I450515J-216878D01*
G01*
X39248105Y-60866208D02*
G75*
G03*
X39297590Y-60649330I-450515J216878D01*
G01*
X39297590Y-59243645D02*
G75*
G03*
X39248105Y-59026768I-500000J-1D01*
G01*
X39950878Y-58378191D02*
G75*
G03*
X39248105Y-59026768I-252258J-431700D01*
G01*
%TO.C,D77*%
X42697588Y-78243645D02*
X42697588Y-79649329D01*
X41792041Y-80446486D02*
X40203136Y-80446486D01*
X39297590Y-79649329D02*
X39297590Y-78243645D01*
X40203137Y-77446487D02*
X41792041Y-77446487D01*
X42044299Y-77378188D02*
G75*
G02*
X41792041Y-77446487I-252258J431701D01*
G01*
X40203137Y-77446487D02*
G75*
G02*
X39950878Y-77378188I0J500000D01*
G01*
X39248105Y-78026768D02*
G75*
G02*
X39950878Y-77378188I450515J216879D01*
G01*
X39248105Y-78026767D02*
G75*
G02*
X39297590Y-78243645I-450515J-216878D01*
G01*
X39297590Y-79649330D02*
G75*
G02*
X39248105Y-79866207I-500000J1D01*
G01*
X39950878Y-80514784D02*
G75*
G02*
X39248105Y-79866207I-252258J431700D01*
G01*
X39950878Y-80514785D02*
G75*
G02*
X40203136Y-80446486I252258J-431701D01*
G01*
X41792042Y-80446487D02*
G75*
G02*
X42044300Y-80514786I-1J-499999D01*
G01*
X42747073Y-79866207D02*
G75*
G02*
X42044300Y-80514786I-450515J-216878D01*
G01*
X42747073Y-79866207D02*
G75*
G02*
X42697588Y-79649329I450515J216878D01*
G01*
X42697588Y-78243644D02*
G75*
G02*
X42747073Y-78026767I500000J-1D01*
G01*
X42044300Y-77378190D02*
G75*
G02*
X42747073Y-78026767I252258J-431700D01*
G01*
%TO.C,D76*%
X39297590Y-78243645D02*
X39297590Y-79649329D01*
X40203137Y-80446486D02*
X41792042Y-80446486D01*
X42697588Y-79649329D02*
X42697588Y-78243645D01*
X41792041Y-77446487D02*
X40203137Y-77446487D01*
X39950879Y-77378188D02*
G75*
G03*
X40203137Y-77446487I252258J431701D01*
G01*
X41792041Y-77446487D02*
G75*
G03*
X42044300Y-77378188I0J500000D01*
G01*
X42747073Y-78026768D02*
G75*
G03*
X42044300Y-77378188I-450515J216879D01*
G01*
X42747073Y-78026767D02*
G75*
G03*
X42697588Y-78243645I450515J-216878D01*
G01*
X42697588Y-79649330D02*
G75*
G03*
X42747073Y-79866207I500000J1D01*
G01*
X42044300Y-80514784D02*
G75*
G03*
X42747073Y-79866207I252258J431700D01*
G01*
X42044300Y-80514785D02*
G75*
G03*
X41792042Y-80446486I-252258J-431701D01*
G01*
X40203136Y-80446487D02*
G75*
G03*
X39950878Y-80514786I1J-499999D01*
G01*
X39248105Y-79866207D02*
G75*
G03*
X39950878Y-80514786I450515J-216878D01*
G01*
X39248105Y-79866207D02*
G75*
G03*
X39297590Y-79649329I-450515J216878D01*
G01*
X39297590Y-78243644D02*
G75*
G03*
X39248105Y-78026767I-500000J-1D01*
G01*
X39950878Y-77378190D02*
G75*
G03*
X39248105Y-78026767I-252258J-431700D01*
G01*
%TO.C,D75*%
X42697587Y-97243644D02*
X42697587Y-98649328D01*
X41792040Y-99446485D02*
X40203135Y-99446485D01*
X39297589Y-98649328D02*
X39297589Y-97243644D01*
X40203136Y-96446486D02*
X41792040Y-96446486D01*
X42044298Y-96378187D02*
G75*
G02*
X41792040Y-96446486I-252258J431701D01*
G01*
X40203136Y-96446486D02*
G75*
G02*
X39950877Y-96378187I0J500000D01*
G01*
X39248104Y-97026767D02*
G75*
G02*
X39950877Y-96378187I450515J216879D01*
G01*
X39248104Y-97026766D02*
G75*
G02*
X39297589Y-97243644I-450515J-216878D01*
G01*
X39297589Y-98649329D02*
G75*
G02*
X39248104Y-98866206I-500000J1D01*
G01*
X39950877Y-99514783D02*
G75*
G02*
X39248104Y-98866206I-252258J431700D01*
G01*
X39950877Y-99514784D02*
G75*
G02*
X40203135Y-99446485I252258J-431701D01*
G01*
X41792041Y-99446486D02*
G75*
G02*
X42044299Y-99514785I-1J-499999D01*
G01*
X42747072Y-98866206D02*
G75*
G02*
X42044299Y-99514785I-450515J-216878D01*
G01*
X42747072Y-98866206D02*
G75*
G02*
X42697587Y-98649328I450515J216878D01*
G01*
X42697587Y-97243643D02*
G75*
G02*
X42747072Y-97026766I500000J-1D01*
G01*
X42044299Y-96378189D02*
G75*
G02*
X42747072Y-97026766I252258J-431700D01*
G01*
%TO.C,D74*%
X39297589Y-97243644D02*
X39297589Y-98649328D01*
X40203136Y-99446485D02*
X41792041Y-99446485D01*
X42697587Y-98649328D02*
X42697587Y-97243644D01*
X41792040Y-96446486D02*
X40203136Y-96446486D01*
X39950878Y-96378187D02*
G75*
G03*
X40203136Y-96446486I252258J431701D01*
G01*
X41792040Y-96446486D02*
G75*
G03*
X42044299Y-96378187I0J500000D01*
G01*
X42747072Y-97026767D02*
G75*
G03*
X42044299Y-96378187I-450515J216879D01*
G01*
X42747072Y-97026766D02*
G75*
G03*
X42697587Y-97243644I450515J-216878D01*
G01*
X42697587Y-98649329D02*
G75*
G03*
X42747072Y-98866206I500000J1D01*
G01*
X42044299Y-99514783D02*
G75*
G03*
X42747072Y-98866206I252258J431700D01*
G01*
X42044299Y-99514784D02*
G75*
G03*
X41792041Y-99446485I-252258J-431701D01*
G01*
X40203135Y-99446486D02*
G75*
G03*
X39950877Y-99514785I1J-499999D01*
G01*
X39248104Y-98866206D02*
G75*
G03*
X39950877Y-99514785I450515J-216878D01*
G01*
X39248104Y-98866206D02*
G75*
G03*
X39297589Y-98649328I-450515J216878D01*
G01*
X39297589Y-97243643D02*
G75*
G03*
X39248104Y-97026766I-500000J-1D01*
G01*
X39950877Y-96378189D02*
G75*
G03*
X39248104Y-97026766I-252258J-431700D01*
G01*
%TO.C,D73*%
X162199149Y-108880498D02*
X160706068Y-108337061D01*
X162296668Y-111260208D02*
X162777441Y-109939297D01*
X159680007Y-111156138D02*
X161173090Y-111699575D01*
X159582488Y-108776429D02*
X159101715Y-110097340D01*
X160492382Y-108186604D02*
G75*
G03*
X160706068Y-108337061I384696J319389D01*
G01*
X162199148Y-108880498D02*
G75*
G03*
X162459554Y-108902596I171011J469846D01*
G01*
X162898117Y-109752423D02*
G75*
G03*
X162459554Y-108902596I-349168J357884D01*
G01*
X162898118Y-109752423D02*
G75*
G03*
X162777441Y-109939297I349169J-357884D01*
G01*
X162296668Y-111260208D02*
G75*
G03*
X162268992Y-111480931I469847J-171010D01*
G01*
X161386777Y-111850033D02*
G75*
G03*
X162268992Y-111480931I384694J319389D01*
G01*
X161386776Y-111850032D02*
G75*
G03*
X161173090Y-111699575I-384696J-319390D01*
G01*
X159680007Y-111156139D02*
G75*
G03*
X159419602Y-111134041I-171010J-469845D01*
G01*
X158981038Y-110284215D02*
G75*
G03*
X159419602Y-111134041I349169J-357883D01*
G01*
X158981038Y-110284214D02*
G75*
G03*
X159101715Y-110097340I-349169J357884D01*
G01*
X159582488Y-108776429D02*
G75*
G03*
X159610164Y-108555706I-469847J171010D01*
G01*
X160492380Y-108186605D02*
G75*
G03*
X159610164Y-108555706I-384695J-319388D01*
G01*
%TO.C,D72*%
X99792038Y-71946488D02*
X98203134Y-71946488D01*
X100697585Y-74149330D02*
X100697585Y-72743646D01*
X98203134Y-74946487D02*
X99792039Y-74946487D01*
X97297587Y-72743646D02*
X97297587Y-74149330D01*
X97950876Y-71878189D02*
G75*
G03*
X98203134Y-71946488I252258J431701D01*
G01*
X99792038Y-71946488D02*
G75*
G03*
X100044297Y-71878189I0J500000D01*
G01*
X100747070Y-72526769D02*
G75*
G03*
X100044297Y-71878189I-450515J216879D01*
G01*
X100747070Y-72526768D02*
G75*
G03*
X100697585Y-72743646I450515J-216878D01*
G01*
X100697585Y-74149331D02*
G75*
G03*
X100747070Y-74366208I500000J1D01*
G01*
X100044297Y-75014785D02*
G75*
G03*
X100747070Y-74366208I252258J431700D01*
G01*
X100044297Y-75014786D02*
G75*
G03*
X99792039Y-74946487I-252258J-431701D01*
G01*
X98203133Y-74946488D02*
G75*
G03*
X97950875Y-75014787I1J-499999D01*
G01*
X97248102Y-74366208D02*
G75*
G03*
X97950875Y-75014787I450515J-216878D01*
G01*
X97248102Y-74366208D02*
G75*
G03*
X97297587Y-74149330I-450515J216878D01*
G01*
X97297587Y-72743645D02*
G75*
G03*
X97248102Y-72526768I-500000J-1D01*
G01*
X97950875Y-71878191D02*
G75*
G03*
X97248102Y-72526768I-252258J-431700D01*
G01*
%TO.C,D71*%
X140842661Y-103014678D02*
X139277896Y-102738768D01*
X141351932Y-105341301D02*
X141596026Y-103956972D01*
X138756952Y-105693190D02*
X140321718Y-105969101D01*
X138247682Y-103366569D02*
X138003587Y-104750897D01*
X139041330Y-102627702D02*
G75*
G03*
X139277896Y-102738768I323390J381338D01*
G01*
X140842661Y-103014679D02*
G75*
G03*
X141102948Y-102991221I86824J492405D01*
G01*
X141682418Y-103751984D02*
G75*
G03*
X141102948Y-102991221I-406009J291816D01*
G01*
X141682420Y-103751982D02*
G75*
G03*
X141596026Y-103956972I406010J-291814D01*
G01*
X141351931Y-105341302D02*
G75*
G03*
X141363004Y-105563477I492404J-86823D01*
G01*
X140558284Y-106080166D02*
G75*
G03*
X141363004Y-105563477I323389J381338D01*
G01*
X140558283Y-106080166D02*
G75*
G03*
X140321718Y-105969101I-323389J-381338D01*
G01*
X138756951Y-105693190D02*
G75*
G03*
X138496665Y-105716648I-86823J-492404D01*
G01*
X137917195Y-104955888D02*
G75*
G03*
X138496665Y-105716648I406009J-291814D01*
G01*
X137917194Y-104955887D02*
G75*
G03*
X138003587Y-104750897I-406011J291814D01*
G01*
X138247682Y-103366569D02*
G75*
G03*
X138236609Y-103144393I-492404J86824D01*
G01*
X139041330Y-102627702D02*
G75*
G03*
X138236609Y-103144393I-323390J-381339D01*
G01*
%TO.C,D70*%
X99792039Y-52946488D02*
X98203135Y-52946488D01*
X100697586Y-55149330D02*
X100697586Y-53743646D01*
X98203135Y-55946487D02*
X99792040Y-55946487D01*
X97297588Y-53743646D02*
X97297588Y-55149330D01*
X97950877Y-52878189D02*
G75*
G03*
X98203135Y-52946488I252258J431701D01*
G01*
X99792039Y-52946488D02*
G75*
G03*
X100044298Y-52878189I0J500000D01*
G01*
X100747071Y-53526769D02*
G75*
G03*
X100044298Y-52878189I-450515J216879D01*
G01*
X100747071Y-53526768D02*
G75*
G03*
X100697586Y-53743646I450515J-216878D01*
G01*
X100697586Y-55149331D02*
G75*
G03*
X100747071Y-55366208I500000J1D01*
G01*
X100044298Y-56014785D02*
G75*
G03*
X100747071Y-55366208I252258J431700D01*
G01*
X100044298Y-56014786D02*
G75*
G03*
X99792040Y-55946487I-252258J-431701D01*
G01*
X98203134Y-55946488D02*
G75*
G03*
X97950876Y-56014787I1J-499999D01*
G01*
X97248103Y-55366208D02*
G75*
G03*
X97950876Y-56014787I450515J-216878D01*
G01*
X97248103Y-55366208D02*
G75*
G03*
X97297588Y-55149330I-450515J216878D01*
G01*
X97297588Y-53743645D02*
G75*
G03*
X97248103Y-53526768I-500000J-1D01*
G01*
X97950876Y-52878191D02*
G75*
G03*
X97248103Y-53526768I-252258J-431700D01*
G01*
%TO.C,D69*%
X99792039Y-33946489D02*
X98203135Y-33946489D01*
X100697586Y-36149331D02*
X100697586Y-34743647D01*
X98203135Y-36946488D02*
X99792040Y-36946488D01*
X97297588Y-34743647D02*
X97297588Y-36149331D01*
X97950877Y-33878190D02*
G75*
G03*
X98203135Y-33946489I252258J431701D01*
G01*
X99792039Y-33946489D02*
G75*
G03*
X100044298Y-33878190I0J500000D01*
G01*
X100747071Y-34526770D02*
G75*
G03*
X100044298Y-33878190I-450515J216879D01*
G01*
X100747071Y-34526769D02*
G75*
G03*
X100697586Y-34743647I450515J-216878D01*
G01*
X100697586Y-36149332D02*
G75*
G03*
X100747071Y-36366209I500000J1D01*
G01*
X100044298Y-37014786D02*
G75*
G03*
X100747071Y-36366209I252258J431700D01*
G01*
X100044298Y-37014787D02*
G75*
G03*
X99792040Y-36946488I-252258J-431701D01*
G01*
X98203134Y-36946489D02*
G75*
G03*
X97950876Y-37014788I1J-499999D01*
G01*
X97248103Y-36366209D02*
G75*
G03*
X97950876Y-37014788I450515J-216878D01*
G01*
X97248103Y-36366209D02*
G75*
G03*
X97297588Y-36149331I-450515J216878D01*
G01*
X97297588Y-34743646D02*
G75*
G03*
X97248103Y-34526769I-500000J-1D01*
G01*
X97950876Y-33878192D02*
G75*
G03*
X97248103Y-34526769I-252258J-431700D01*
G01*
%TO.C,D68*%
X118792038Y-100946488D02*
X117203134Y-100946488D01*
X119697585Y-103149330D02*
X119697585Y-101743646D01*
X117203134Y-103946487D02*
X118792039Y-103946487D01*
X116297587Y-101743646D02*
X116297587Y-103149330D01*
X116950876Y-100878189D02*
G75*
G03*
X117203134Y-100946488I252258J431701D01*
G01*
X118792038Y-100946488D02*
G75*
G03*
X119044297Y-100878189I0J500000D01*
G01*
X119747070Y-101526769D02*
G75*
G03*
X119044297Y-100878189I-450515J216879D01*
G01*
X119747070Y-101526768D02*
G75*
G03*
X119697585Y-101743646I450515J-216878D01*
G01*
X119697585Y-103149331D02*
G75*
G03*
X119747070Y-103366208I500000J1D01*
G01*
X119044297Y-104014785D02*
G75*
G03*
X119747070Y-103366208I252258J431700D01*
G01*
X119044297Y-104014786D02*
G75*
G03*
X118792039Y-103946487I-252258J-431701D01*
G01*
X117203133Y-103946488D02*
G75*
G03*
X116950875Y-104014787I1J-499999D01*
G01*
X116248102Y-103366208D02*
G75*
G03*
X116950875Y-104014787I450515J-216878D01*
G01*
X116248102Y-103366208D02*
G75*
G03*
X116297587Y-103149330I-450515J216878D01*
G01*
X116297587Y-101743645D02*
G75*
G03*
X116248102Y-101526768I-500000J-1D01*
G01*
X116950875Y-100878191D02*
G75*
G03*
X116248102Y-101526768I-252258J-431700D01*
G01*
%TO.C,D67*%
X80792040Y-38946489D02*
X79203136Y-38946489D01*
X81697587Y-41149331D02*
X81697587Y-39743647D01*
X79203136Y-41946488D02*
X80792041Y-41946488D01*
X78297589Y-39743647D02*
X78297589Y-41149331D01*
X78950878Y-38878190D02*
G75*
G03*
X79203136Y-38946489I252258J431701D01*
G01*
X80792040Y-38946489D02*
G75*
G03*
X81044299Y-38878190I0J500000D01*
G01*
X81747072Y-39526770D02*
G75*
G03*
X81044299Y-38878190I-450515J216879D01*
G01*
X81747072Y-39526769D02*
G75*
G03*
X81697587Y-39743647I450515J-216878D01*
G01*
X81697587Y-41149332D02*
G75*
G03*
X81747072Y-41366209I500000J1D01*
G01*
X81044299Y-42014786D02*
G75*
G03*
X81747072Y-41366209I252258J431700D01*
G01*
X81044299Y-42014787D02*
G75*
G03*
X80792041Y-41946488I-252258J-431701D01*
G01*
X79203135Y-41946489D02*
G75*
G03*
X78950877Y-42014788I1J-499999D01*
G01*
X78248104Y-41366209D02*
G75*
G03*
X78950877Y-42014788I450515J-216878D01*
G01*
X78248104Y-41366209D02*
G75*
G03*
X78297589Y-41149331I-450515J216878D01*
G01*
X78297589Y-39743646D02*
G75*
G03*
X78248104Y-39526769I-500000J-1D01*
G01*
X78950877Y-38878192D02*
G75*
G03*
X78248104Y-39526769I-252258J-431700D01*
G01*
%TO.C,D66*%
X137792037Y-79446488D02*
X136203133Y-79446488D01*
X138697584Y-81649330D02*
X138697584Y-80243646D01*
X136203133Y-82446487D02*
X137792038Y-82446487D01*
X135297586Y-80243646D02*
X135297586Y-81649330D01*
X135950875Y-79378189D02*
G75*
G03*
X136203133Y-79446488I252258J431701D01*
G01*
X137792037Y-79446488D02*
G75*
G03*
X138044296Y-79378189I0J500000D01*
G01*
X138747069Y-80026769D02*
G75*
G03*
X138044296Y-79378189I-450515J216879D01*
G01*
X138747069Y-80026768D02*
G75*
G03*
X138697584Y-80243646I450515J-216878D01*
G01*
X138697584Y-81649331D02*
G75*
G03*
X138747069Y-81866208I500000J1D01*
G01*
X138044296Y-82514785D02*
G75*
G03*
X138747069Y-81866208I252258J431700D01*
G01*
X138044296Y-82514786D02*
G75*
G03*
X137792038Y-82446487I-252258J-431701D01*
G01*
X136203132Y-82446488D02*
G75*
G03*
X135950874Y-82514787I1J-499999D01*
G01*
X135248101Y-81866208D02*
G75*
G03*
X135950874Y-82514787I450515J-216878D01*
G01*
X135248101Y-81866208D02*
G75*
G03*
X135297586Y-81649330I-450515J216878D01*
G01*
X135297586Y-80243645D02*
G75*
G03*
X135248101Y-80026768I-500000J-1D01*
G01*
X135950874Y-79378191D02*
G75*
G03*
X135248101Y-80026768I-252258J-431700D01*
G01*
%TO.C,D65*%
X80792040Y-57946488D02*
X79203136Y-57946488D01*
X81697587Y-60149330D02*
X81697587Y-58743646D01*
X79203136Y-60946487D02*
X80792041Y-60946487D01*
X78297589Y-58743646D02*
X78297589Y-60149330D01*
X78950878Y-57878189D02*
G75*
G03*
X79203136Y-57946488I252258J431701D01*
G01*
X80792040Y-57946488D02*
G75*
G03*
X81044299Y-57878189I0J500000D01*
G01*
X81747072Y-58526769D02*
G75*
G03*
X81044299Y-57878189I-450515J216879D01*
G01*
X81747072Y-58526768D02*
G75*
G03*
X81697587Y-58743646I450515J-216878D01*
G01*
X81697587Y-60149331D02*
G75*
G03*
X81747072Y-60366208I500000J1D01*
G01*
X81044299Y-61014785D02*
G75*
G03*
X81747072Y-60366208I252258J431700D01*
G01*
X81044299Y-61014786D02*
G75*
G03*
X80792041Y-60946487I-252258J-431701D01*
G01*
X79203135Y-60946488D02*
G75*
G03*
X78950877Y-61014787I1J-499999D01*
G01*
X78248104Y-60366208D02*
G75*
G03*
X78950877Y-61014787I450515J-216878D01*
G01*
X78248104Y-60366208D02*
G75*
G03*
X78297589Y-60149330I-450515J216878D01*
G01*
X78297589Y-58743645D02*
G75*
G03*
X78248104Y-58526768I-500000J-1D01*
G01*
X78950877Y-57878191D02*
G75*
G03*
X78248104Y-58526768I-252258J-431700D01*
G01*
%TO.C,D64*%
X137792037Y-60446489D02*
X136203133Y-60446489D01*
X138697584Y-62649331D02*
X138697584Y-61243647D01*
X136203133Y-63446488D02*
X137792038Y-63446488D01*
X135297586Y-61243647D02*
X135297586Y-62649331D01*
X135950875Y-60378190D02*
G75*
G03*
X136203133Y-60446489I252258J431701D01*
G01*
X137792037Y-60446489D02*
G75*
G03*
X138044296Y-60378190I0J500000D01*
G01*
X138747069Y-61026770D02*
G75*
G03*
X138044296Y-60378190I-450515J216879D01*
G01*
X138747069Y-61026769D02*
G75*
G03*
X138697584Y-61243647I450515J-216878D01*
G01*
X138697584Y-62649332D02*
G75*
G03*
X138747069Y-62866209I500000J1D01*
G01*
X138044296Y-63514786D02*
G75*
G03*
X138747069Y-62866209I252258J431700D01*
G01*
X138044296Y-63514787D02*
G75*
G03*
X137792038Y-63446488I-252258J-431701D01*
G01*
X136203132Y-63446489D02*
G75*
G03*
X135950874Y-63514788I1J-499999D01*
G01*
X135248101Y-62866209D02*
G75*
G03*
X135950874Y-63514788I450515J-216878D01*
G01*
X135248101Y-62866209D02*
G75*
G03*
X135297586Y-62649331I-450515J216878D01*
G01*
X135297586Y-61243646D02*
G75*
G03*
X135248101Y-61026769I-500000J-1D01*
G01*
X135950874Y-60378192D02*
G75*
G03*
X135248101Y-61026769I-252258J-431700D01*
G01*
%TO.C,D63*%
X80792039Y-76946487D02*
X79203135Y-76946487D01*
X81697586Y-79149329D02*
X81697586Y-77743645D01*
X79203135Y-79946486D02*
X80792040Y-79946486D01*
X78297588Y-77743645D02*
X78297588Y-79149329D01*
X78950877Y-76878188D02*
G75*
G03*
X79203135Y-76946487I252258J431701D01*
G01*
X80792039Y-76946487D02*
G75*
G03*
X81044298Y-76878188I0J500000D01*
G01*
X81747071Y-77526768D02*
G75*
G03*
X81044298Y-76878188I-450515J216879D01*
G01*
X81747071Y-77526767D02*
G75*
G03*
X81697586Y-77743645I450515J-216878D01*
G01*
X81697586Y-79149330D02*
G75*
G03*
X81747071Y-79366207I500000J1D01*
G01*
X81044298Y-80014784D02*
G75*
G03*
X81747071Y-79366207I252258J431700D01*
G01*
X81044298Y-80014785D02*
G75*
G03*
X80792040Y-79946486I-252258J-431701D01*
G01*
X79203134Y-79946487D02*
G75*
G03*
X78950876Y-80014786I1J-499999D01*
G01*
X78248103Y-79366207D02*
G75*
G03*
X78950876Y-80014786I450515J-216878D01*
G01*
X78248103Y-79366207D02*
G75*
G03*
X78297588Y-79149329I-450515J216878D01*
G01*
X78297588Y-77743644D02*
G75*
G03*
X78248103Y-77526767I-500000J-1D01*
G01*
X78950876Y-76878190D02*
G75*
G03*
X78248103Y-77526767I-252258J-431700D01*
G01*
%TO.C,D62*%
X137792037Y-41446490D02*
X136203133Y-41446490D01*
X138697584Y-43649332D02*
X138697584Y-42243648D01*
X136203133Y-44446489D02*
X137792038Y-44446489D01*
X135297586Y-42243648D02*
X135297586Y-43649332D01*
X135950875Y-41378191D02*
G75*
G03*
X136203133Y-41446490I252258J431701D01*
G01*
X137792037Y-41446490D02*
G75*
G03*
X138044296Y-41378191I0J500000D01*
G01*
X138747069Y-42026771D02*
G75*
G03*
X138044296Y-41378191I-450515J216879D01*
G01*
X138747069Y-42026770D02*
G75*
G03*
X138697584Y-42243648I450515J-216878D01*
G01*
X138697584Y-43649333D02*
G75*
G03*
X138747069Y-43866210I500000J1D01*
G01*
X138044296Y-44514787D02*
G75*
G03*
X138747069Y-43866210I252258J431700D01*
G01*
X138044296Y-44514788D02*
G75*
G03*
X137792038Y-44446489I-252258J-431701D01*
G01*
X136203132Y-44446490D02*
G75*
G03*
X135950874Y-44514789I1J-499999D01*
G01*
X135248101Y-43866210D02*
G75*
G03*
X135950874Y-44514789I450515J-216878D01*
G01*
X135248101Y-43866210D02*
G75*
G03*
X135297586Y-43649332I-450515J216878D01*
G01*
X135297586Y-42243647D02*
G75*
G03*
X135248101Y-42026770I-500000J-1D01*
G01*
X135950874Y-41378193D02*
G75*
G03*
X135248101Y-42026770I-252258J-431700D01*
G01*
%TO.C,D61*%
X118792038Y-38946489D02*
X117203134Y-38946489D01*
X119697585Y-41149331D02*
X119697585Y-39743647D01*
X117203134Y-41946488D02*
X118792039Y-41946488D01*
X116297587Y-39743647D02*
X116297587Y-41149331D01*
X116950876Y-38878190D02*
G75*
G03*
X117203134Y-38946489I252258J431701D01*
G01*
X118792038Y-38946489D02*
G75*
G03*
X119044297Y-38878190I0J500000D01*
G01*
X119747070Y-39526770D02*
G75*
G03*
X119044297Y-38878190I-450515J216879D01*
G01*
X119747070Y-39526769D02*
G75*
G03*
X119697585Y-39743647I450515J-216878D01*
G01*
X119697585Y-41149332D02*
G75*
G03*
X119747070Y-41366209I500000J1D01*
G01*
X119044297Y-42014786D02*
G75*
G03*
X119747070Y-41366209I252258J431700D01*
G01*
X119044297Y-42014787D02*
G75*
G03*
X118792039Y-41946488I-252258J-431701D01*
G01*
X117203133Y-41946489D02*
G75*
G03*
X116950875Y-42014788I1J-499999D01*
G01*
X116248102Y-41366209D02*
G75*
G03*
X116950875Y-42014788I450515J-216878D01*
G01*
X116248102Y-41366209D02*
G75*
G03*
X116297587Y-41149331I-450515J216878D01*
G01*
X116297587Y-39743646D02*
G75*
G03*
X116248102Y-39526769I-500000J-1D01*
G01*
X116950875Y-38878192D02*
G75*
G03*
X116248102Y-39526769I-252258J-431700D01*
G01*
%TO.C,D58*%
X61792040Y-89446486D02*
X60203136Y-89446486D01*
X62697587Y-91649328D02*
X62697587Y-90243644D01*
X60203136Y-92446485D02*
X61792041Y-92446485D01*
X59297589Y-90243644D02*
X59297589Y-91649328D01*
X59950878Y-89378187D02*
G75*
G03*
X60203136Y-89446486I252258J431701D01*
G01*
X61792040Y-89446486D02*
G75*
G03*
X62044299Y-89378187I0J500000D01*
G01*
X62747072Y-90026767D02*
G75*
G03*
X62044299Y-89378187I-450515J216879D01*
G01*
X62747072Y-90026766D02*
G75*
G03*
X62697587Y-90243644I450515J-216878D01*
G01*
X62697587Y-91649329D02*
G75*
G03*
X62747072Y-91866206I500000J1D01*
G01*
X62044299Y-92514783D02*
G75*
G03*
X62747072Y-91866206I252258J431700D01*
G01*
X62044299Y-92514784D02*
G75*
G03*
X61792041Y-92446485I-252258J-431701D01*
G01*
X60203135Y-92446486D02*
G75*
G03*
X59950877Y-92514785I1J-499999D01*
G01*
X59248104Y-91866206D02*
G75*
G03*
X59950877Y-92514785I450515J-216878D01*
G01*
X59248104Y-91866206D02*
G75*
G03*
X59297589Y-91649328I-450515J216878D01*
G01*
X59297589Y-90243643D02*
G75*
G03*
X59248104Y-90026766I-500000J-1D01*
G01*
X59950877Y-89378189D02*
G75*
G03*
X59248104Y-90026766I-252258J-431700D01*
G01*
%TO.C,D44*%
X118792038Y-57946488D02*
X117203134Y-57946488D01*
X119697585Y-60149330D02*
X119697585Y-58743646D01*
X117203134Y-60946487D02*
X118792039Y-60946487D01*
X116297587Y-58743646D02*
X116297587Y-60149330D01*
X116950876Y-57878189D02*
G75*
G03*
X117203134Y-57946488I252258J431701D01*
G01*
X118792038Y-57946488D02*
G75*
G03*
X119044297Y-57878189I0J500000D01*
G01*
X119747070Y-58526769D02*
G75*
G03*
X119044297Y-57878189I-450515J216879D01*
G01*
X119747070Y-58526768D02*
G75*
G03*
X119697585Y-58743646I450515J-216878D01*
G01*
X119697585Y-60149331D02*
G75*
G03*
X119747070Y-60366208I500000J1D01*
G01*
X119044297Y-61014785D02*
G75*
G03*
X119747070Y-60366208I252258J431700D01*
G01*
X119044297Y-61014786D02*
G75*
G03*
X118792039Y-60946487I-252258J-431701D01*
G01*
X117203133Y-60946488D02*
G75*
G03*
X116950875Y-61014787I1J-499999D01*
G01*
X116248102Y-60366208D02*
G75*
G03*
X116950875Y-61014787I450515J-216878D01*
G01*
X116248102Y-60366208D02*
G75*
G03*
X116297587Y-60149330I-450515J216878D01*
G01*
X116297587Y-58743645D02*
G75*
G03*
X116248102Y-58526768I-500000J-1D01*
G01*
X116950875Y-57878191D02*
G75*
G03*
X116248102Y-58526768I-252258J-431700D01*
G01*
%TO.C,D40*%
X61792041Y-70446487D02*
X60203137Y-70446487D01*
X62697588Y-72649329D02*
X62697588Y-71243645D01*
X60203137Y-73446486D02*
X61792042Y-73446486D01*
X59297590Y-71243645D02*
X59297590Y-72649329D01*
X59950879Y-70378188D02*
G75*
G03*
X60203137Y-70446487I252258J431701D01*
G01*
X61792041Y-70446487D02*
G75*
G03*
X62044300Y-70378188I0J500000D01*
G01*
X62747073Y-71026768D02*
G75*
G03*
X62044300Y-70378188I-450515J216879D01*
G01*
X62747073Y-71026767D02*
G75*
G03*
X62697588Y-71243645I450515J-216878D01*
G01*
X62697588Y-72649330D02*
G75*
G03*
X62747073Y-72866207I500000J1D01*
G01*
X62044300Y-73514784D02*
G75*
G03*
X62747073Y-72866207I252258J431700D01*
G01*
X62044300Y-73514785D02*
G75*
G03*
X61792042Y-73446486I-252258J-431701D01*
G01*
X60203136Y-73446487D02*
G75*
G03*
X59950878Y-73514786I1J-499999D01*
G01*
X59248105Y-72866207D02*
G75*
G03*
X59950878Y-73514786I450515J-216878D01*
G01*
X59248105Y-72866207D02*
G75*
G03*
X59297590Y-72649329I-450515J216878D01*
G01*
X59297590Y-71243644D02*
G75*
G03*
X59248105Y-71026767I-500000J-1D01*
G01*
X59950878Y-70378190D02*
G75*
G03*
X59248105Y-71026767I-252258J-431700D01*
G01*
%TO.C,D39*%
X118792038Y-76946488D02*
X117203134Y-76946488D01*
X119697585Y-79149330D02*
X119697585Y-77743646D01*
X117203134Y-79946487D02*
X118792039Y-79946487D01*
X116297587Y-77743646D02*
X116297587Y-79149330D01*
X116950876Y-76878189D02*
G75*
G03*
X117203134Y-76946488I252258J431701D01*
G01*
X118792038Y-76946488D02*
G75*
G03*
X119044297Y-76878189I0J500000D01*
G01*
X119747070Y-77526769D02*
G75*
G03*
X119044297Y-76878189I-450515J216879D01*
G01*
X119747070Y-77526768D02*
G75*
G03*
X119697585Y-77743646I450515J-216878D01*
G01*
X119697585Y-79149331D02*
G75*
G03*
X119747070Y-79366208I500000J1D01*
G01*
X119044297Y-80014785D02*
G75*
G03*
X119747070Y-79366208I252258J431700D01*
G01*
X119044297Y-80014786D02*
G75*
G03*
X118792039Y-79946487I-252258J-431701D01*
G01*
X117203133Y-79946488D02*
G75*
G03*
X116950875Y-80014787I1J-499999D01*
G01*
X116248102Y-79366208D02*
G75*
G03*
X116950875Y-80014787I450515J-216878D01*
G01*
X116248102Y-79366208D02*
G75*
G03*
X116297587Y-79149330I-450515J216878D01*
G01*
X116297587Y-77743645D02*
G75*
G03*
X116248102Y-77526768I-500000J-1D01*
G01*
X116950875Y-76878191D02*
G75*
G03*
X116248102Y-77526768I-252258J-431700D01*
G01*
%TO.C,D38*%
X61792041Y-51446488D02*
X60203137Y-51446488D01*
X62697588Y-53649330D02*
X62697588Y-52243646D01*
X60203137Y-54446487D02*
X61792042Y-54446487D01*
X59297590Y-52243646D02*
X59297590Y-53649330D01*
X59950879Y-51378189D02*
G75*
G03*
X60203137Y-51446488I252258J431701D01*
G01*
X61792041Y-51446488D02*
G75*
G03*
X62044300Y-51378189I0J500000D01*
G01*
X62747073Y-52026769D02*
G75*
G03*
X62044300Y-51378189I-450515J216879D01*
G01*
X62747073Y-52026768D02*
G75*
G03*
X62697588Y-52243646I450515J-216878D01*
G01*
X62697588Y-53649331D02*
G75*
G03*
X62747073Y-53866208I500000J1D01*
G01*
X62044300Y-54514785D02*
G75*
G03*
X62747073Y-53866208I252258J431700D01*
G01*
X62044300Y-54514786D02*
G75*
G03*
X61792042Y-54446487I-252258J-431701D01*
G01*
X60203136Y-54446488D02*
G75*
G03*
X59950878Y-54514787I1J-499999D01*
G01*
X59248105Y-53866208D02*
G75*
G03*
X59950878Y-54514787I450515J-216878D01*
G01*
X59248105Y-53866208D02*
G75*
G03*
X59297590Y-53649330I-450515J216878D01*
G01*
X59297590Y-52243645D02*
G75*
G03*
X59248105Y-52026768I-500000J-1D01*
G01*
X59950878Y-51378191D02*
G75*
G03*
X59248105Y-52026768I-252258J-431700D01*
G01*
%TO.C,D48*%
X98203135Y-33946489D02*
X99792039Y-33946489D01*
X97297588Y-36149331D02*
X97297588Y-34743647D01*
X99792039Y-36946488D02*
X98203134Y-36946488D01*
X100697586Y-34743647D02*
X100697586Y-36149331D01*
X100044297Y-33878190D02*
G75*
G02*
X99792039Y-33946489I-252258J431701D01*
G01*
X98203135Y-33946489D02*
G75*
G02*
X97950876Y-33878190I0J500000D01*
G01*
X97248103Y-34526770D02*
G75*
G02*
X97950876Y-33878190I450515J216879D01*
G01*
X97248103Y-34526769D02*
G75*
G02*
X97297588Y-34743647I-450515J-216878D01*
G01*
X97297588Y-36149332D02*
G75*
G02*
X97248103Y-36366209I-500000J1D01*
G01*
X97950876Y-37014786D02*
G75*
G02*
X97248103Y-36366209I-252258J431700D01*
G01*
X97950876Y-37014787D02*
G75*
G02*
X98203134Y-36946488I252258J-431701D01*
G01*
X99792040Y-36946489D02*
G75*
G02*
X100044298Y-37014788I-1J-499999D01*
G01*
X100747071Y-36366209D02*
G75*
G02*
X100044298Y-37014788I-450515J-216878D01*
G01*
X100747071Y-36366209D02*
G75*
G02*
X100697586Y-36149331I450515J216878D01*
G01*
X100697586Y-34743646D02*
G75*
G02*
X100747071Y-34526769I500000J-1D01*
G01*
X100044298Y-33878192D02*
G75*
G02*
X100747071Y-34526769I252258J-431700D01*
G01*
%TO.C,D51*%
X117203134Y-76946488D02*
X118792038Y-76946488D01*
X116297587Y-79149330D02*
X116297587Y-77743646D01*
X118792038Y-79946487D02*
X117203133Y-79946487D01*
X119697585Y-77743646D02*
X119697585Y-79149330D01*
X119044296Y-76878189D02*
G75*
G02*
X118792038Y-76946488I-252258J431701D01*
G01*
X117203134Y-76946488D02*
G75*
G02*
X116950875Y-76878189I0J500000D01*
G01*
X116248102Y-77526769D02*
G75*
G02*
X116950875Y-76878189I450515J216879D01*
G01*
X116248102Y-77526768D02*
G75*
G02*
X116297587Y-77743646I-450515J-216878D01*
G01*
X116297587Y-79149331D02*
G75*
G02*
X116248102Y-79366208I-500000J1D01*
G01*
X116950875Y-80014785D02*
G75*
G02*
X116248102Y-79366208I-252258J431700D01*
G01*
X116950875Y-80014786D02*
G75*
G02*
X117203133Y-79946487I252258J-431701D01*
G01*
X118792039Y-79946488D02*
G75*
G02*
X119044297Y-80014787I-1J-499999D01*
G01*
X119747070Y-79366208D02*
G75*
G02*
X119044297Y-80014787I-450515J-216878D01*
G01*
X119747070Y-79366208D02*
G75*
G02*
X119697585Y-79149330I450515J216878D01*
G01*
X119697585Y-77743645D02*
G75*
G02*
X119747070Y-77526768I500000J-1D01*
G01*
X119044297Y-76878191D02*
G75*
G02*
X119747070Y-77526768I252258J-431700D01*
G01*
%TO.C,D59*%
X139277896Y-102738768D02*
X140842661Y-103014678D01*
X138003587Y-104750897D02*
X138247682Y-103366569D01*
X140321717Y-105969100D02*
X138756951Y-105693190D01*
X141596026Y-103956972D02*
X141351932Y-105341301D01*
X141102947Y-102991221D02*
G75*
G02*
X140842661Y-103014678I-173462J468947D01*
G01*
X139277896Y-102738768D02*
G75*
G02*
X139041330Y-102627702I86824J492404D01*
G01*
X138236609Y-103144393D02*
G75*
G02*
X139041330Y-102627702I481331J135353D01*
G01*
X138236609Y-103144393D02*
G75*
G02*
X138247682Y-103366569I-481331J-135352D01*
G01*
X138003587Y-104750898D02*
G75*
G02*
X137917193Y-104955887I-492404J86825D01*
G01*
X138496665Y-105716648D02*
G75*
G02*
X137917193Y-104955887I-173461J468947D01*
G01*
X138496665Y-105716647D02*
G75*
G02*
X138756951Y-105693190I173462J-468947D01*
G01*
X140321718Y-105969101D02*
G75*
G02*
X140558283Y-106080167I-86825J-492403D01*
G01*
X141363004Y-105563477D02*
G75*
G02*
X140558283Y-106080167I-481331J-135352D01*
G01*
X141363005Y-105563476D02*
G75*
G02*
X141351932Y-105341301I481330J135351D01*
G01*
X141596026Y-103956971D02*
G75*
G02*
X141682420Y-103751982I492404J-86825D01*
G01*
X141102946Y-102991223D02*
G75*
G02*
X141682420Y-103751982I173463J-468946D01*
G01*
%TO.C,D57*%
X117203134Y-100946488D02*
X118792038Y-100946488D01*
X116297587Y-103149330D02*
X116297587Y-101743646D01*
X118792038Y-103946487D02*
X117203133Y-103946487D01*
X119697585Y-101743646D02*
X119697585Y-103149330D01*
X119044296Y-100878189D02*
G75*
G02*
X118792038Y-100946488I-252258J431701D01*
G01*
X117203134Y-100946488D02*
G75*
G02*
X116950875Y-100878189I0J500000D01*
G01*
X116248102Y-101526769D02*
G75*
G02*
X116950875Y-100878189I450515J216879D01*
G01*
X116248102Y-101526768D02*
G75*
G02*
X116297587Y-101743646I-450515J-216878D01*
G01*
X116297587Y-103149331D02*
G75*
G02*
X116248102Y-103366208I-500000J1D01*
G01*
X116950875Y-104014785D02*
G75*
G02*
X116248102Y-103366208I-252258J431700D01*
G01*
X116950875Y-104014786D02*
G75*
G02*
X117203133Y-103946487I252258J-431701D01*
G01*
X118792039Y-103946488D02*
G75*
G02*
X119044297Y-104014787I-1J-499999D01*
G01*
X119747070Y-103366208D02*
G75*
G02*
X119044297Y-104014787I-450515J-216878D01*
G01*
X119747070Y-103366208D02*
G75*
G02*
X119697585Y-103149330I450515J216878D01*
G01*
X119697585Y-101743645D02*
G75*
G02*
X119747070Y-101526768I500000J-1D01*
G01*
X119044297Y-100878191D02*
G75*
G02*
X119747070Y-101526768I252258J-431700D01*
G01*
%TO.C,D60*%
X160706068Y-108337061D02*
X162199149Y-108880498D01*
X159101715Y-110097340D02*
X159582488Y-108776429D01*
X161173089Y-111699575D02*
X159680006Y-111156137D01*
X162777441Y-109939297D02*
X162296668Y-111260208D01*
X162459554Y-108902596D02*
G75*
G02*
X162199149Y-108880498I-89395J491944D01*
G01*
X160706067Y-108337061D02*
G75*
G02*
X160492381Y-108186603I171011J469846D01*
G01*
X159610164Y-108555707D02*
G75*
G02*
X160492381Y-108186603I497522J49715D01*
G01*
X159610164Y-108555705D02*
G75*
G02*
X159582488Y-108776429I-497523J-49714D01*
G01*
X159101715Y-110097341D02*
G75*
G02*
X158981038Y-110284214I-469846J171011D01*
G01*
X159419601Y-111134040D02*
G75*
G02*
X158981038Y-110284214I-89394J491943D01*
G01*
X159419601Y-111134039D02*
G75*
G02*
X159680006Y-111156137I89395J-491945D01*
G01*
X161173090Y-111699576D02*
G75*
G02*
X161386775Y-111850034I-171011J-469845D01*
G01*
X162268992Y-111480931D02*
G75*
G02*
X161386775Y-111850034I-497522J-49714D01*
G01*
X162268992Y-111480931D02*
G75*
G02*
X162296668Y-111260208I497523J49713D01*
G01*
X162777441Y-109939296D02*
G75*
G02*
X162898118Y-109752423I469846J-171011D01*
G01*
X162459554Y-108902597D02*
G75*
G02*
X162898118Y-109752423I89395J-491943D01*
G01*
%TO.C,D56*%
X136203133Y-79446488D02*
X137792037Y-79446488D01*
X135297586Y-81649330D02*
X135297586Y-80243646D01*
X137792037Y-82446487D02*
X136203132Y-82446487D01*
X138697584Y-80243646D02*
X138697584Y-81649330D01*
X138044295Y-79378189D02*
G75*
G02*
X137792037Y-79446488I-252258J431701D01*
G01*
X136203133Y-79446488D02*
G75*
G02*
X135950874Y-79378189I0J500000D01*
G01*
X135248101Y-80026769D02*
G75*
G02*
X135950874Y-79378189I450515J216879D01*
G01*
X135248101Y-80026768D02*
G75*
G02*
X135297586Y-80243646I-450515J-216878D01*
G01*
X135297586Y-81649331D02*
G75*
G02*
X135248101Y-81866208I-500000J1D01*
G01*
X135950874Y-82514785D02*
G75*
G02*
X135248101Y-81866208I-252258J431700D01*
G01*
X135950874Y-82514786D02*
G75*
G02*
X136203132Y-82446487I252258J-431701D01*
G01*
X137792038Y-82446488D02*
G75*
G02*
X138044296Y-82514787I-1J-499999D01*
G01*
X138747069Y-81866208D02*
G75*
G02*
X138044296Y-82514787I-450515J-216878D01*
G01*
X138747069Y-81866208D02*
G75*
G02*
X138697584Y-81649330I450515J216878D01*
G01*
X138697584Y-80243645D02*
G75*
G02*
X138747069Y-80026768I500000J-1D01*
G01*
X138044296Y-79378191D02*
G75*
G02*
X138747069Y-80026768I252258J-431700D01*
G01*
%TO.C,D45*%
X79203135Y-76946487D02*
X80792039Y-76946487D01*
X78297588Y-79149329D02*
X78297588Y-77743645D01*
X80792039Y-79946486D02*
X79203134Y-79946486D01*
X81697586Y-77743645D02*
X81697586Y-79149329D01*
X81044297Y-76878188D02*
G75*
G02*
X80792039Y-76946487I-252258J431701D01*
G01*
X79203135Y-76946487D02*
G75*
G02*
X78950876Y-76878188I0J500000D01*
G01*
X78248103Y-77526768D02*
G75*
G02*
X78950876Y-76878188I450515J216879D01*
G01*
X78248103Y-77526767D02*
G75*
G02*
X78297588Y-77743645I-450515J-216878D01*
G01*
X78297588Y-79149330D02*
G75*
G02*
X78248103Y-79366207I-500000J1D01*
G01*
X78950876Y-80014784D02*
G75*
G02*
X78248103Y-79366207I-252258J431700D01*
G01*
X78950876Y-80014785D02*
G75*
G02*
X79203134Y-79946486I252258J-431701D01*
G01*
X80792040Y-79946487D02*
G75*
G02*
X81044298Y-80014786I-1J-499999D01*
G01*
X81747071Y-79366207D02*
G75*
G02*
X81044298Y-80014786I-450515J-216878D01*
G01*
X81747071Y-79366207D02*
G75*
G02*
X81697586Y-79149329I450515J216878D01*
G01*
X81697586Y-77743644D02*
G75*
G02*
X81747071Y-77526767I500000J-1D01*
G01*
X81044298Y-76878190D02*
G75*
G02*
X81747071Y-77526767I252258J-431700D01*
G01*
%TO.C,D53*%
X117203134Y-38946489D02*
X118792038Y-38946489D01*
X116297587Y-41149331D02*
X116297587Y-39743647D01*
X118792038Y-41946488D02*
X117203133Y-41946488D01*
X119697585Y-39743647D02*
X119697585Y-41149331D01*
X119044296Y-38878190D02*
G75*
G02*
X118792038Y-38946489I-252258J431701D01*
G01*
X117203134Y-38946489D02*
G75*
G02*
X116950875Y-38878190I0J500000D01*
G01*
X116248102Y-39526770D02*
G75*
G02*
X116950875Y-38878190I450515J216879D01*
G01*
X116248102Y-39526769D02*
G75*
G02*
X116297587Y-39743647I-450515J-216878D01*
G01*
X116297587Y-41149332D02*
G75*
G02*
X116248102Y-41366209I-500000J1D01*
G01*
X116950875Y-42014786D02*
G75*
G02*
X116248102Y-41366209I-252258J431700D01*
G01*
X116950875Y-42014787D02*
G75*
G02*
X117203133Y-41946488I252258J-431701D01*
G01*
X118792039Y-41946489D02*
G75*
G02*
X119044297Y-42014788I-1J-499999D01*
G01*
X119747070Y-41366209D02*
G75*
G02*
X119044297Y-42014788I-450515J-216878D01*
G01*
X119747070Y-41366209D02*
G75*
G02*
X119697585Y-41149331I450515J216878D01*
G01*
X119697585Y-39743646D02*
G75*
G02*
X119747070Y-39526769I500000J-1D01*
G01*
X119044297Y-38878192D02*
G75*
G02*
X119747070Y-39526769I252258J-431700D01*
G01*
%TO.C,D52*%
X117203134Y-57946488D02*
X118792038Y-57946488D01*
X116297587Y-60149330D02*
X116297587Y-58743646D01*
X118792038Y-60946487D02*
X117203133Y-60946487D01*
X119697585Y-58743646D02*
X119697585Y-60149330D01*
X119044296Y-57878189D02*
G75*
G02*
X118792038Y-57946488I-252258J431701D01*
G01*
X117203134Y-57946488D02*
G75*
G02*
X116950875Y-57878189I0J500000D01*
G01*
X116248102Y-58526769D02*
G75*
G02*
X116950875Y-57878189I450515J216879D01*
G01*
X116248102Y-58526768D02*
G75*
G02*
X116297587Y-58743646I-450515J-216878D01*
G01*
X116297587Y-60149331D02*
G75*
G02*
X116248102Y-60366208I-500000J1D01*
G01*
X116950875Y-61014785D02*
G75*
G02*
X116248102Y-60366208I-252258J431700D01*
G01*
X116950875Y-61014786D02*
G75*
G02*
X117203133Y-60946487I252258J-431701D01*
G01*
X118792039Y-60946488D02*
G75*
G02*
X119044297Y-61014787I-1J-499999D01*
G01*
X119747070Y-60366208D02*
G75*
G02*
X119044297Y-61014787I-450515J-216878D01*
G01*
X119747070Y-60366208D02*
G75*
G02*
X119697585Y-60149330I450515J216878D01*
G01*
X119697585Y-58743645D02*
G75*
G02*
X119747070Y-58526768I500000J-1D01*
G01*
X119044297Y-57878191D02*
G75*
G02*
X119747070Y-58526768I252258J-431700D01*
G01*
%TO.C,D54*%
X136203133Y-41446490D02*
X137792037Y-41446490D01*
X135297586Y-43649332D02*
X135297586Y-42243648D01*
X137792037Y-44446489D02*
X136203132Y-44446489D01*
X138697584Y-42243648D02*
X138697584Y-43649332D01*
X138044295Y-41378191D02*
G75*
G02*
X137792037Y-41446490I-252258J431701D01*
G01*
X136203133Y-41446490D02*
G75*
G02*
X135950874Y-41378191I0J500000D01*
G01*
X135248101Y-42026771D02*
G75*
G02*
X135950874Y-41378191I450515J216879D01*
G01*
X135248101Y-42026770D02*
G75*
G02*
X135297586Y-42243648I-450515J-216878D01*
G01*
X135297586Y-43649333D02*
G75*
G02*
X135248101Y-43866210I-500000J1D01*
G01*
X135950874Y-44514787D02*
G75*
G02*
X135248101Y-43866210I-252258J431700D01*
G01*
X135950874Y-44514788D02*
G75*
G02*
X136203132Y-44446489I252258J-431701D01*
G01*
X137792038Y-44446490D02*
G75*
G02*
X138044296Y-44514789I-1J-499999D01*
G01*
X138747069Y-43866210D02*
G75*
G02*
X138044296Y-44514789I-450515J-216878D01*
G01*
X138747069Y-43866210D02*
G75*
G02*
X138697584Y-43649332I450515J216878D01*
G01*
X138697584Y-42243647D02*
G75*
G02*
X138747069Y-42026770I500000J-1D01*
G01*
X138044296Y-41378193D02*
G75*
G02*
X138747069Y-42026770I252258J-431700D01*
G01*
%TO.C,D50*%
X98203134Y-71946488D02*
X99792038Y-71946488D01*
X97297587Y-74149330D02*
X97297587Y-72743646D01*
X99792038Y-74946487D02*
X98203133Y-74946487D01*
X100697585Y-72743646D02*
X100697585Y-74149330D01*
X100044296Y-71878189D02*
G75*
G02*
X99792038Y-71946488I-252258J431701D01*
G01*
X98203134Y-71946488D02*
G75*
G02*
X97950875Y-71878189I0J500000D01*
G01*
X97248102Y-72526769D02*
G75*
G02*
X97950875Y-71878189I450515J216879D01*
G01*
X97248102Y-72526768D02*
G75*
G02*
X97297587Y-72743646I-450515J-216878D01*
G01*
X97297587Y-74149331D02*
G75*
G02*
X97248102Y-74366208I-500000J1D01*
G01*
X97950875Y-75014785D02*
G75*
G02*
X97248102Y-74366208I-252258J431700D01*
G01*
X97950875Y-75014786D02*
G75*
G02*
X98203133Y-74946487I252258J-431701D01*
G01*
X99792039Y-74946488D02*
G75*
G02*
X100044297Y-75014787I-1J-499999D01*
G01*
X100747070Y-74366208D02*
G75*
G02*
X100044297Y-75014787I-450515J-216878D01*
G01*
X100747070Y-74366208D02*
G75*
G02*
X100697585Y-74149330I450515J216878D01*
G01*
X100697585Y-72743645D02*
G75*
G02*
X100747070Y-72526768I500000J-1D01*
G01*
X100044297Y-71878191D02*
G75*
G02*
X100747070Y-72526768I252258J-431700D01*
G01*
%TO.C,D43*%
X60203136Y-89446486D02*
X61792040Y-89446486D01*
X59297589Y-91649328D02*
X59297589Y-90243644D01*
X61792040Y-92446485D02*
X60203135Y-92446485D01*
X62697587Y-90243644D02*
X62697587Y-91649328D01*
X62044298Y-89378187D02*
G75*
G02*
X61792040Y-89446486I-252258J431701D01*
G01*
X60203136Y-89446486D02*
G75*
G02*
X59950877Y-89378187I0J500000D01*
G01*
X59248104Y-90026767D02*
G75*
G02*
X59950877Y-89378187I450515J216879D01*
G01*
X59248104Y-90026766D02*
G75*
G02*
X59297589Y-90243644I-450515J-216878D01*
G01*
X59297589Y-91649329D02*
G75*
G02*
X59248104Y-91866206I-500000J1D01*
G01*
X59950877Y-92514783D02*
G75*
G02*
X59248104Y-91866206I-252258J431700D01*
G01*
X59950877Y-92514784D02*
G75*
G02*
X60203135Y-92446485I252258J-431701D01*
G01*
X61792041Y-92446486D02*
G75*
G02*
X62044299Y-92514785I-1J-499999D01*
G01*
X62747072Y-91866206D02*
G75*
G02*
X62044299Y-92514785I-450515J-216878D01*
G01*
X62747072Y-91866206D02*
G75*
G02*
X62697587Y-91649328I450515J216878D01*
G01*
X62697587Y-90243643D02*
G75*
G02*
X62747072Y-90026766I500000J-1D01*
G01*
X62044299Y-89378189D02*
G75*
G02*
X62747072Y-90026766I252258J-431700D01*
G01*
%TO.C,D49*%
X98203135Y-52946488D02*
X99792039Y-52946488D01*
X97297588Y-55149330D02*
X97297588Y-53743646D01*
X99792039Y-55946487D02*
X98203134Y-55946487D01*
X100697586Y-53743646D02*
X100697586Y-55149330D01*
X100044297Y-52878189D02*
G75*
G02*
X99792039Y-52946488I-252258J431701D01*
G01*
X98203135Y-52946488D02*
G75*
G02*
X97950876Y-52878189I0J500000D01*
G01*
X97248103Y-53526769D02*
G75*
G02*
X97950876Y-52878189I450515J216879D01*
G01*
X97248103Y-53526768D02*
G75*
G02*
X97297588Y-53743646I-450515J-216878D01*
G01*
X97297588Y-55149331D02*
G75*
G02*
X97248103Y-55366208I-500000J1D01*
G01*
X97950876Y-56014785D02*
G75*
G02*
X97248103Y-55366208I-252258J431700D01*
G01*
X97950876Y-56014786D02*
G75*
G02*
X98203134Y-55946487I252258J-431701D01*
G01*
X99792040Y-55946488D02*
G75*
G02*
X100044298Y-56014787I-1J-499999D01*
G01*
X100747071Y-55366208D02*
G75*
G02*
X100044298Y-56014787I-450515J-216878D01*
G01*
X100747071Y-55366208D02*
G75*
G02*
X100697586Y-55149330I450515J216878D01*
G01*
X100697586Y-53743645D02*
G75*
G02*
X100747071Y-53526768I500000J-1D01*
G01*
X100044298Y-52878191D02*
G75*
G02*
X100747071Y-53526768I252258J-431700D01*
G01*
%TO.C,D46*%
X79203136Y-57946488D02*
X80792040Y-57946488D01*
X78297589Y-60149330D02*
X78297589Y-58743646D01*
X80792040Y-60946487D02*
X79203135Y-60946487D01*
X81697587Y-58743646D02*
X81697587Y-60149330D01*
X81044298Y-57878189D02*
G75*
G02*
X80792040Y-57946488I-252258J431701D01*
G01*
X79203136Y-57946488D02*
G75*
G02*
X78950877Y-57878189I0J500000D01*
G01*
X78248104Y-58526769D02*
G75*
G02*
X78950877Y-57878189I450515J216879D01*
G01*
X78248104Y-58526768D02*
G75*
G02*
X78297589Y-58743646I-450515J-216878D01*
G01*
X78297589Y-60149331D02*
G75*
G02*
X78248104Y-60366208I-500000J1D01*
G01*
X78950877Y-61014785D02*
G75*
G02*
X78248104Y-60366208I-252258J431700D01*
G01*
X78950877Y-61014786D02*
G75*
G02*
X79203135Y-60946487I252258J-431701D01*
G01*
X80792041Y-60946488D02*
G75*
G02*
X81044299Y-61014787I-1J-499999D01*
G01*
X81747072Y-60366208D02*
G75*
G02*
X81044299Y-61014787I-450515J-216878D01*
G01*
X81747072Y-60366208D02*
G75*
G02*
X81697587Y-60149330I450515J216878D01*
G01*
X81697587Y-58743645D02*
G75*
G02*
X81747072Y-58526768I500000J-1D01*
G01*
X81044299Y-57878191D02*
G75*
G02*
X81747072Y-58526768I252258J-431700D01*
G01*
%TO.C,D42*%
X60203137Y-70446487D02*
X61792041Y-70446487D01*
X59297590Y-72649329D02*
X59297590Y-71243645D01*
X61792041Y-73446486D02*
X60203136Y-73446486D01*
X62697588Y-71243645D02*
X62697588Y-72649329D01*
X62044299Y-70378188D02*
G75*
G02*
X61792041Y-70446487I-252258J431701D01*
G01*
X60203137Y-70446487D02*
G75*
G02*
X59950878Y-70378188I0J500000D01*
G01*
X59248105Y-71026768D02*
G75*
G02*
X59950878Y-70378188I450515J216879D01*
G01*
X59248105Y-71026767D02*
G75*
G02*
X59297590Y-71243645I-450515J-216878D01*
G01*
X59297590Y-72649330D02*
G75*
G02*
X59248105Y-72866207I-500000J1D01*
G01*
X59950878Y-73514784D02*
G75*
G02*
X59248105Y-72866207I-252258J431700D01*
G01*
X59950878Y-73514785D02*
G75*
G02*
X60203136Y-73446486I252258J-431701D01*
G01*
X61792042Y-73446487D02*
G75*
G02*
X62044300Y-73514786I-1J-499999D01*
G01*
X62747073Y-72866207D02*
G75*
G02*
X62044300Y-73514786I-450515J-216878D01*
G01*
X62747073Y-72866207D02*
G75*
G02*
X62697588Y-72649329I450515J216878D01*
G01*
X62697588Y-71243644D02*
G75*
G02*
X62747073Y-71026767I500000J-1D01*
G01*
X62044300Y-70378190D02*
G75*
G02*
X62747073Y-71026767I252258J-431700D01*
G01*
%TO.C,D55*%
X136203133Y-60446489D02*
X137792037Y-60446489D01*
X135297586Y-62649331D02*
X135297586Y-61243647D01*
X137792037Y-63446488D02*
X136203132Y-63446488D01*
X138697584Y-61243647D02*
X138697584Y-62649331D01*
X138044295Y-60378190D02*
G75*
G02*
X137792037Y-60446489I-252258J431701D01*
G01*
X136203133Y-60446489D02*
G75*
G02*
X135950874Y-60378190I0J500000D01*
G01*
X135248101Y-61026770D02*
G75*
G02*
X135950874Y-60378190I450515J216879D01*
G01*
X135248101Y-61026769D02*
G75*
G02*
X135297586Y-61243647I-450515J-216878D01*
G01*
X135297586Y-62649332D02*
G75*
G02*
X135248101Y-62866209I-500000J1D01*
G01*
X135950874Y-63514786D02*
G75*
G02*
X135248101Y-62866209I-252258J431700D01*
G01*
X135950874Y-63514787D02*
G75*
G02*
X136203132Y-63446488I252258J-431701D01*
G01*
X137792038Y-63446489D02*
G75*
G02*
X138044296Y-63514788I-1J-499999D01*
G01*
X138747069Y-62866209D02*
G75*
G02*
X138044296Y-63514788I-450515J-216878D01*
G01*
X138747069Y-62866209D02*
G75*
G02*
X138697584Y-62649331I450515J216878D01*
G01*
X138697584Y-61243646D02*
G75*
G02*
X138747069Y-61026769I500000J-1D01*
G01*
X138044296Y-60378192D02*
G75*
G02*
X138747069Y-61026769I252258J-431700D01*
G01*
%TO.C,D47*%
X79203136Y-38946489D02*
X80792040Y-38946489D01*
X78297589Y-41149331D02*
X78297589Y-39743647D01*
X80792040Y-41946488D02*
X79203135Y-41946488D01*
X81697587Y-39743647D02*
X81697587Y-41149331D01*
X81044298Y-38878190D02*
G75*
G02*
X80792040Y-38946489I-252258J431701D01*
G01*
X79203136Y-38946489D02*
G75*
G02*
X78950877Y-38878190I0J500000D01*
G01*
X78248104Y-39526770D02*
G75*
G02*
X78950877Y-38878190I450515J216879D01*
G01*
X78248104Y-39526769D02*
G75*
G02*
X78297589Y-39743647I-450515J-216878D01*
G01*
X78297589Y-41149332D02*
G75*
G02*
X78248104Y-41366209I-500000J1D01*
G01*
X78950877Y-42014786D02*
G75*
G02*
X78248104Y-41366209I-252258J431700D01*
G01*
X78950877Y-42014787D02*
G75*
G02*
X79203135Y-41946488I252258J-431701D01*
G01*
X80792041Y-41946489D02*
G75*
G02*
X81044299Y-42014788I-1J-499999D01*
G01*
X81747072Y-41366209D02*
G75*
G02*
X81044299Y-42014788I-450515J-216878D01*
G01*
X81747072Y-41366209D02*
G75*
G02*
X81697587Y-41149331I450515J216878D01*
G01*
X81697587Y-39743646D02*
G75*
G02*
X81747072Y-39526769I500000J-1D01*
G01*
X81044299Y-38878192D02*
G75*
G02*
X81747072Y-39526769I252258J-431700D01*
G01*
%TO.C,D41*%
X60203137Y-51446488D02*
X61792041Y-51446488D01*
X59297590Y-53649330D02*
X59297590Y-52243646D01*
X61792041Y-54446487D02*
X60203136Y-54446487D01*
X62697588Y-52243646D02*
X62697588Y-53649330D01*
X62044299Y-51378189D02*
G75*
G02*
X61792041Y-51446488I-252258J431701D01*
G01*
X60203137Y-51446488D02*
G75*
G02*
X59950878Y-51378189I0J500000D01*
G01*
X59248105Y-52026769D02*
G75*
G02*
X59950878Y-51378189I450515J216879D01*
G01*
X59248105Y-52026768D02*
G75*
G02*
X59297590Y-52243646I-450515J-216878D01*
G01*
X59297590Y-53649331D02*
G75*
G02*
X59248105Y-53866208I-500000J1D01*
G01*
X59950878Y-54514785D02*
G75*
G02*
X59248105Y-53866208I-252258J431700D01*
G01*
X59950878Y-54514786D02*
G75*
G02*
X60203136Y-54446487I252258J-431701D01*
G01*
X61792042Y-54446488D02*
G75*
G02*
X62044300Y-54514787I-1J-499999D01*
G01*
X62747073Y-53866208D02*
G75*
G02*
X62044300Y-54514787I-450515J-216878D01*
G01*
X62747073Y-53866208D02*
G75*
G02*
X62697588Y-53649330I450515J216878D01*
G01*
X62697588Y-52243645D02*
G75*
G02*
X62747073Y-52026768I500000J-1D01*
G01*
X62044300Y-51378191D02*
G75*
G02*
X62747073Y-52026768I252258J-431700D01*
G01*
%TD*%
M02*
