%TF.GenerationSoftware,KiCad,Pcbnew,(5.1.10)-1*%
%TF.CreationDate,2021-12-15T17:12:06-08:00*%
%TF.ProjectId,luakeeb,6c75616b-6565-4622-9e6b-696361645f70,rev?*%
%TF.SameCoordinates,Original*%
%TF.FileFunction,Copper,L2,Bot*%
%TF.FilePolarity,Positive*%
%FSLAX46Y46*%
G04 Gerber Fmt 4.6, Leading zero omitted, Abs format (unit mm)*
G04 Created by KiCad (PCBNEW (5.1.10)-1) date 2021-12-15 17:12:06*
%MOMM*%
%LPD*%
G01*
G04 APERTURE LIST*
%TA.AperFunction,ComponentPad*%
%ADD10O,3.500000X2.200000*%
%TD*%
%TA.AperFunction,ComponentPad*%
%ADD11O,2.500000X1.500000*%
%TD*%
%TA.AperFunction,ComponentPad*%
%ADD12R,2.500000X1.500000*%
%TD*%
%TA.AperFunction,ComponentPad*%
%ADD13O,1.200000X1.750000*%
%TD*%
%TA.AperFunction,ComponentPad*%
%ADD14C,2.286000*%
%TD*%
%TA.AperFunction,ComponentPad*%
%ADD15R,2.000000X2.000000*%
%TD*%
%TA.AperFunction,ComponentPad*%
%ADD16C,2.000000*%
%TD*%
%TA.AperFunction,SMDPad,CuDef*%
%ADD17C,0.100000*%
%TD*%
%TA.AperFunction,SMDPad,CuDef*%
%ADD18R,0.900000X1.200000*%
%TD*%
%TA.AperFunction,SMDPad,CuDef*%
%ADD19R,1.100000X1.800000*%
%TD*%
%TA.AperFunction,ComponentPad*%
%ADD20O,1.600000X2.000000*%
%TD*%
%TA.AperFunction,SMDPad,CuDef*%
%ADD21R,1.200000X0.900000*%
%TD*%
%TA.AperFunction,ComponentPad*%
%ADD22R,1.752600X1.752600*%
%TD*%
%TA.AperFunction,ComponentPad*%
%ADD23C,1.752600*%
%TD*%
%TA.AperFunction,ViaPad*%
%ADD24C,0.800000*%
%TD*%
%TA.AperFunction,Conductor*%
%ADD25C,0.381000*%
%TD*%
%TA.AperFunction,Conductor*%
%ADD26C,0.254000*%
%TD*%
G04 APERTURE END LIST*
D10*
%TO.P,SW17,*%
%TO.N,*%
X150852593Y-77958404D03*
X150852593Y-86158404D03*
D11*
%TO.P,SW17,3*%
%TO.N,Net-(J4-Pad1)*%
X150852593Y-80058404D03*
%TO.P,SW17,2*%
%TO.N,B+*%
X150852593Y-82058404D03*
D12*
%TO.P,SW17,1*%
%TO.N,Net-(J5-Pad1)*%
X150852593Y-84058404D03*
%TD*%
D13*
%TO.P,J5,2*%
%TO.N,B-*%
X104882593Y-112298404D03*
%TO.P,J5,1*%
%TO.N,Net-(J5-Pad1)*%
%TA.AperFunction,ComponentPad*%
G36*
G01*
X102282593Y-112923405D02*
X102282593Y-111673403D01*
G75*
G02*
X102532592Y-111423404I249999J0D01*
G01*
X103232594Y-111423404D01*
G75*
G02*
X103482593Y-111673403I0J-249999D01*
G01*
X103482593Y-112923405D01*
G75*
G02*
X103232594Y-113173404I-249999J0D01*
G01*
X102532592Y-113173404D01*
G75*
G02*
X102282593Y-112923405I0J249999D01*
G01*
G37*
%TD.AperFunction*%
%TD*%
%TO.P,J4,2*%
%TO.N,B-*%
X102872593Y-109818404D03*
%TO.P,J4,1*%
%TO.N,Net-(J4-Pad1)*%
%TA.AperFunction,ComponentPad*%
G36*
G01*
X105472593Y-109193403D02*
X105472593Y-110443405D01*
G75*
G02*
X105222594Y-110693404I-249999J0D01*
G01*
X104522592Y-110693404D01*
G75*
G02*
X104272593Y-110443405I0J249999D01*
G01*
X104272593Y-109193403D01*
G75*
G02*
X104522592Y-108943404I249999J0D01*
G01*
X105222594Y-108943404D01*
G75*
G02*
X105472593Y-109193403I0J-249999D01*
G01*
G37*
%TD.AperFunction*%
%TD*%
%TO.P,J2,MP*%
%TO.N,N/C*%
%TA.AperFunction,SMDPad,CuDef*%
G36*
G01*
X152362594Y-54898404D02*
X151062592Y-54898404D01*
G75*
G02*
X150812593Y-54648405I0J249999D01*
G01*
X150812593Y-53948403D01*
G75*
G02*
X151062592Y-53698404I249999J0D01*
G01*
X152362594Y-53698404D01*
G75*
G02*
X152612593Y-53948403I0J-249999D01*
G01*
X152612593Y-54648405D01*
G75*
G02*
X152362594Y-54898404I-249999J0D01*
G01*
G37*
%TD.AperFunction*%
%TA.AperFunction,SMDPad,CuDef*%
G36*
G01*
X152362594Y-60498404D02*
X151062592Y-60498404D01*
G75*
G02*
X150812593Y-60248405I0J249999D01*
G01*
X150812593Y-59548403D01*
G75*
G02*
X151062592Y-59298404I249999J0D01*
G01*
X152362594Y-59298404D01*
G75*
G02*
X152612593Y-59548403I0J-249999D01*
G01*
X152612593Y-60248405D01*
G75*
G02*
X152362594Y-60498404I-249999J0D01*
G01*
G37*
%TD.AperFunction*%
%TO.P,J2,4*%
%TO.N,scl*%
%TA.AperFunction,SMDPad,CuDef*%
G36*
G01*
X149812593Y-55898404D02*
X148562593Y-55898404D01*
G75*
G02*
X148412593Y-55748404I0J150000D01*
G01*
X148412593Y-55448404D01*
G75*
G02*
X148562593Y-55298404I150000J0D01*
G01*
X149812593Y-55298404D01*
G75*
G02*
X149962593Y-55448404I0J-150000D01*
G01*
X149962593Y-55748404D01*
G75*
G02*
X149812593Y-55898404I-150000J0D01*
G01*
G37*
%TD.AperFunction*%
%TO.P,J2,3*%
%TO.N,sda*%
%TA.AperFunction,SMDPad,CuDef*%
G36*
G01*
X149812593Y-56898404D02*
X148562593Y-56898404D01*
G75*
G02*
X148412593Y-56748404I0J150000D01*
G01*
X148412593Y-56448404D01*
G75*
G02*
X148562593Y-56298404I150000J0D01*
G01*
X149812593Y-56298404D01*
G75*
G02*
X149962593Y-56448404I0J-150000D01*
G01*
X149962593Y-56748404D01*
G75*
G02*
X149812593Y-56898404I-150000J0D01*
G01*
G37*
%TD.AperFunction*%
%TO.P,J2,2*%
%TO.N,+5V*%
%TA.AperFunction,SMDPad,CuDef*%
G36*
G01*
X149812593Y-57898404D02*
X148562593Y-57898404D01*
G75*
G02*
X148412593Y-57748404I0J150000D01*
G01*
X148412593Y-57448404D01*
G75*
G02*
X148562593Y-57298404I150000J0D01*
G01*
X149812593Y-57298404D01*
G75*
G02*
X149962593Y-57448404I0J-150000D01*
G01*
X149962593Y-57748404D01*
G75*
G02*
X149812593Y-57898404I-150000J0D01*
G01*
G37*
%TD.AperFunction*%
%TO.P,J2,1*%
%TO.N,GND*%
%TA.AperFunction,SMDPad,CuDef*%
G36*
G01*
X149812593Y-58898404D02*
X148562593Y-58898404D01*
G75*
G02*
X148412593Y-58748404I0J150000D01*
G01*
X148412593Y-58448404D01*
G75*
G02*
X148562593Y-58298404I150000J0D01*
G01*
X149812593Y-58298404D01*
G75*
G02*
X149962593Y-58448404I0J-150000D01*
G01*
X149962593Y-58748404D01*
G75*
G02*
X149812593Y-58898404I-150000J0D01*
G01*
G37*
%TD.AperFunction*%
%TD*%
D14*
%TO.P,SW16,2*%
%TO.N,col0*%
X44807588Y-105566485D03*
%TO.P,SW16,1*%
%TO.N,Net-(D85-Pad2)*%
X38457588Y-108106485D03*
X43537588Y-108106485D03*
%TO.P,SW16,2*%
%TO.N,col0*%
X37187588Y-105566485D03*
%TD*%
%TO.P,SW10,2*%
%TO.N,col0*%
X44807589Y-86566486D03*
%TO.P,SW10,1*%
%TO.N,Net-(D83-Pad2)*%
X38457589Y-89106486D03*
X43537589Y-89106486D03*
%TO.P,SW10,2*%
%TO.N,col0*%
X37187589Y-86566486D03*
%TD*%
%TO.P,SW9,2*%
%TO.N,col0*%
X44807589Y-67566487D03*
%TO.P,SW9,1*%
%TO.N,Net-(D80-Pad2)*%
X38457589Y-70106487D03*
X43537589Y-70106487D03*
%TO.P,SW9,2*%
%TO.N,col0*%
X37187589Y-67566487D03*
%TD*%
%TO.P,SW35,2*%
%TO.N,col5*%
X161913614Y-118481872D03*
%TO.P,SW35,1*%
%TO.N,Net-(D35-Pad2)*%
X155077834Y-118696863D03*
X159851473Y-120434326D03*
%TO.P,SW35,2*%
%TO.N,col5*%
X154753156Y-115875679D03*
%TD*%
%TO.P,SW34,2*%
%TO.N,col4*%
X142228725Y-112519768D03*
%TO.P,SW34,1*%
%TO.N,Net-(D30-Pad2)*%
X135534130Y-113918514D03*
X140536953Y-114800647D03*
%TO.P,SW34,2*%
%TO.N,col4*%
X134724490Y-111196569D03*
%TD*%
%TO.P,SW25,2*%
%TO.N,col5*%
X140807585Y-88566487D03*
%TO.P,SW25,1*%
%TO.N,Net-(D25-Pad2)*%
X134457585Y-91106487D03*
X139537585Y-91106487D03*
%TO.P,SW25,2*%
%TO.N,col5*%
X133187585Y-88566487D03*
%TD*%
%TO.P,SW24,2*%
%TO.N,col4*%
X121807586Y-86066487D03*
%TO.P,SW24,1*%
%TO.N,Net-(D24-Pad2)*%
X115457586Y-88606487D03*
X120537586Y-88606487D03*
%TO.P,SW24,2*%
%TO.N,col4*%
X114187586Y-86066487D03*
%TD*%
%TO.P,SW23,2*%
%TO.N,col3*%
X102807586Y-81066487D03*
%TO.P,SW23,1*%
%TO.N,Net-(D20-Pad2)*%
X96457586Y-83606487D03*
X101537586Y-83606487D03*
%TO.P,SW23,2*%
%TO.N,col3*%
X95187586Y-81066487D03*
%TD*%
%TO.P,SW22,2*%
%TO.N,col2*%
X83807587Y-86066486D03*
%TO.P,SW22,1*%
%TO.N,Net-(D17-Pad2)*%
X77457587Y-88606486D03*
X82537587Y-88606486D03*
%TO.P,SW22,2*%
%TO.N,col2*%
X76187587Y-86066486D03*
%TD*%
%TO.P,SW21,2*%
%TO.N,col1*%
X64807588Y-98566485D03*
%TO.P,SW21,1*%
%TO.N,Net-(D21-Pad2)*%
X58457588Y-101106485D03*
X63537588Y-101106485D03*
%TO.P,SW21,2*%
%TO.N,col1*%
X57187588Y-98566485D03*
%TD*%
%TO.P,SW15,2*%
%TO.N,col5*%
X140807585Y-69566488D03*
%TO.P,SW15,1*%
%TO.N,Net-(D15-Pad2)*%
X134457585Y-72106488D03*
X139537585Y-72106488D03*
%TO.P,SW15,2*%
%TO.N,col5*%
X133187585Y-69566488D03*
%TD*%
%TO.P,SW14,2*%
%TO.N,col4*%
X121807586Y-67066487D03*
%TO.P,SW14,1*%
%TO.N,Net-(D14-Pad2)*%
X115457586Y-69606487D03*
X120537586Y-69606487D03*
%TO.P,SW14,2*%
%TO.N,col4*%
X114187586Y-67066487D03*
%TD*%
%TO.P,SW13,2*%
%TO.N,col3*%
X102807587Y-62066487D03*
%TO.P,SW13,1*%
%TO.N,Net-(D13-Pad2)*%
X96457587Y-64606487D03*
X101537587Y-64606487D03*
%TO.P,SW13,2*%
%TO.N,col3*%
X95187587Y-62066487D03*
%TD*%
%TO.P,SW12,2*%
%TO.N,col2*%
X83807588Y-67066487D03*
%TO.P,SW12,1*%
%TO.N,Net-(D12-Pad2)*%
X77457588Y-69606487D03*
X82537588Y-69606487D03*
%TO.P,SW12,2*%
%TO.N,col2*%
X76187588Y-67066487D03*
%TD*%
%TO.P,SW11,2*%
%TO.N,col1*%
X64807589Y-79566486D03*
%TO.P,SW11,1*%
%TO.N,Net-(D11-Pad2)*%
X58457589Y-82106486D03*
X63537589Y-82106486D03*
%TO.P,SW11,2*%
%TO.N,col1*%
X57187589Y-79566486D03*
%TD*%
%TO.P,SW6,2*%
%TO.N,col3*%
X121807586Y-110066487D03*
%TO.P,SW6,1*%
%TO.N,Net-(D26-Pad2)*%
X115457586Y-112606487D03*
X120537586Y-112606487D03*
%TO.P,SW6,2*%
%TO.N,col3*%
X114187586Y-110066487D03*
%TD*%
%TO.P,SW5,2*%
%TO.N,col5*%
X140807585Y-50566489D03*
%TO.P,SW5,1*%
%TO.N,Net-(D31-Pad2)*%
X134457585Y-53106489D03*
X139537585Y-53106489D03*
%TO.P,SW5,2*%
%TO.N,col5*%
X133187585Y-50566489D03*
%TD*%
%TO.P,SW4,2*%
%TO.N,col4*%
X121807586Y-48066488D03*
%TO.P,SW4,1*%
%TO.N,Net-(D27-Pad2)*%
X115457586Y-50606488D03*
X120537586Y-50606488D03*
%TO.P,SW4,2*%
%TO.N,col4*%
X114187586Y-48066488D03*
%TD*%
%TO.P,SW3,2*%
%TO.N,col3*%
X102807587Y-43066488D03*
%TO.P,SW3,1*%
%TO.N,Net-(D18-Pad2)*%
X96457587Y-45606488D03*
X101537587Y-45606488D03*
%TO.P,SW3,2*%
%TO.N,col3*%
X95187587Y-43066488D03*
%TD*%
%TO.P,SW2,2*%
%TO.N,col2*%
X83807588Y-48066488D03*
%TO.P,SW2,1*%
%TO.N,Net-(D10-Pad2)*%
X77457588Y-50606488D03*
X82537588Y-50606488D03*
%TO.P,SW2,2*%
%TO.N,col2*%
X76187588Y-48066488D03*
%TD*%
%TO.P,SW1,2*%
%TO.N,col1*%
X64807589Y-60566487D03*
%TO.P,SW1,1*%
%TO.N,Net-(D1-Pad2)*%
X58457589Y-63106487D03*
X63537589Y-63106487D03*
%TO.P,SW1,2*%
%TO.N,col1*%
X57187589Y-60566487D03*
%TD*%
D15*
%TO.P,SW42,A*%
%TO.N,ENC1A*%
X97011926Y-109529268D03*
D16*
%TO.P,SW42,C*%
%TO.N,GND*%
X97011926Y-107029268D03*
%TO.P,SW42,B*%
%TO.N,ENC1B*%
X97011926Y-104529268D03*
%TO.P,SW42,S2*%
%TO.N,Net-(D37-Pad2)*%
X82511926Y-109529268D03*
%TO.P,SW42,S1*%
%TO.N,col2*%
X82511926Y-104529268D03*
%TD*%
%TA.AperFunction,SMDPad,CuDef*%
D17*
%TO.P,JP1,2*%
%TO.N,Net-(D41-Pad4)*%
G36*
X53391494Y-106272505D02*
G01*
X53391494Y-106247971D01*
X53396304Y-106199140D01*
X53405876Y-106151015D01*
X53420120Y-106104060D01*
X53438897Y-106058727D01*
X53462028Y-106015454D01*
X53489288Y-105974655D01*
X53520416Y-105936726D01*
X53555113Y-105902029D01*
X53593042Y-105870901D01*
X53633841Y-105843641D01*
X53677114Y-105820510D01*
X53722447Y-105801733D01*
X53769402Y-105787489D01*
X53817527Y-105777917D01*
X53866358Y-105773107D01*
X53890892Y-105773107D01*
X53890892Y-105772505D01*
X54390892Y-105772505D01*
X54390892Y-105773107D01*
X54415426Y-105773107D01*
X54464257Y-105777917D01*
X54512382Y-105787489D01*
X54559337Y-105801733D01*
X54604670Y-105820510D01*
X54647943Y-105843641D01*
X54688742Y-105870901D01*
X54726671Y-105902029D01*
X54761368Y-105936726D01*
X54792496Y-105974655D01*
X54819756Y-106015454D01*
X54842887Y-106058727D01*
X54861664Y-106104060D01*
X54875908Y-106151015D01*
X54885480Y-106199140D01*
X54890290Y-106247971D01*
X54890290Y-106272505D01*
X54890892Y-106272505D01*
X54890892Y-106772505D01*
X53390892Y-106772505D01*
X53390892Y-106272505D01*
X53391494Y-106272505D01*
G37*
%TD.AperFunction*%
%TA.AperFunction,SMDPad,CuDef*%
%TO.P,JP1,1*%
%TO.N,led*%
G36*
X54890892Y-107072505D02*
G01*
X54890892Y-107572505D01*
X54890290Y-107572505D01*
X54890290Y-107597039D01*
X54885480Y-107645870D01*
X54875908Y-107693995D01*
X54861664Y-107740950D01*
X54842887Y-107786283D01*
X54819756Y-107829556D01*
X54792496Y-107870355D01*
X54761368Y-107908284D01*
X54726671Y-107942981D01*
X54688742Y-107974109D01*
X54647943Y-108001369D01*
X54604670Y-108024500D01*
X54559337Y-108043277D01*
X54512382Y-108057521D01*
X54464257Y-108067093D01*
X54415426Y-108071903D01*
X54390892Y-108071903D01*
X54390892Y-108072505D01*
X53890892Y-108072505D01*
X53890892Y-108071903D01*
X53866358Y-108071903D01*
X53817527Y-108067093D01*
X53769402Y-108057521D01*
X53722447Y-108043277D01*
X53677114Y-108024500D01*
X53633841Y-108001369D01*
X53593042Y-107974109D01*
X53555113Y-107942981D01*
X53520416Y-107908284D01*
X53489288Y-107870355D01*
X53462028Y-107829556D01*
X53438897Y-107786283D01*
X53420120Y-107740950D01*
X53405876Y-107693995D01*
X53396304Y-107645870D01*
X53391494Y-107597039D01*
X53391494Y-107572505D01*
X53390892Y-107572505D01*
X53390892Y-107072505D01*
X54890892Y-107072505D01*
G37*
%TD.AperFunction*%
%TD*%
D18*
%TO.P,D86,2*%
%TO.N,Net-(D85-Pad2)*%
X43542393Y-111673704D03*
%TO.P,D86,1*%
%TO.N,row2*%
X46842393Y-111673704D03*
%TD*%
%TO.P,D83,1*%
%TO.N,row1*%
X46842393Y-92572904D03*
%TO.P,D83,2*%
%TO.N,Net-(D83-Pad2)*%
X43542393Y-92572904D03*
%TD*%
%TO.P,D82,2*%
%TO.N,Net-(D80-Pad2)*%
X43580493Y-73700704D03*
%TO.P,D82,1*%
%TO.N,row0*%
X46880493Y-73700704D03*
%TD*%
%TO.P,D79,3*%
%TO.N,GND*%
%TA.AperFunction,SMDPad,CuDef*%
G36*
G01*
X39115589Y-59606488D02*
X37679589Y-59606488D01*
G75*
G02*
X37597589Y-59524488I0J82000D01*
G01*
X37597589Y-58868488D01*
G75*
G02*
X37679589Y-58786488I82000J0D01*
G01*
X39115589Y-58786488D01*
G75*
G02*
X39197589Y-58868488I0J-82000D01*
G01*
X39197589Y-59524488D01*
G75*
G02*
X39115589Y-59606488I-82000J0D01*
G01*
G37*
%TD.AperFunction*%
%TO.P,D79,4*%
%TO.N,Net-(D77-Pad2)*%
%TA.AperFunction,SMDPad,CuDef*%
G36*
G01*
X39115589Y-61106488D02*
X37679589Y-61106488D01*
G75*
G02*
X37597589Y-61024488I0J82000D01*
G01*
X37597589Y-60368488D01*
G75*
G02*
X37679589Y-60286488I82000J0D01*
G01*
X39115589Y-60286488D01*
G75*
G02*
X39197589Y-60368488I0J-82000D01*
G01*
X39197589Y-61024488D01*
G75*
G02*
X39115589Y-61106488I-82000J0D01*
G01*
G37*
%TD.AperFunction*%
%TO.P,D79,2*%
%TO.N,Net-(D41-Pad4)*%
%TA.AperFunction,SMDPad,CuDef*%
G36*
G01*
X44315589Y-59606488D02*
X42879589Y-59606488D01*
G75*
G02*
X42797589Y-59524488I0J82000D01*
G01*
X42797589Y-58868488D01*
G75*
G02*
X42879589Y-58786488I82000J0D01*
G01*
X44315589Y-58786488D01*
G75*
G02*
X44397589Y-58868488I0J-82000D01*
G01*
X44397589Y-59524488D01*
G75*
G02*
X44315589Y-59606488I-82000J0D01*
G01*
G37*
%TD.AperFunction*%
%TO.P,D79,1*%
%TO.N,+5V*%
%TA.AperFunction,SMDPad,CuDef*%
G36*
G01*
X44315589Y-61106488D02*
X42879589Y-61106488D01*
G75*
G02*
X42797589Y-61024488I0J82000D01*
G01*
X42797589Y-60368488D01*
G75*
G02*
X42879589Y-60286488I82000J0D01*
G01*
X44315589Y-60286488D01*
G75*
G02*
X44397589Y-60368488I0J-82000D01*
G01*
X44397589Y-61024488D01*
G75*
G02*
X44315589Y-61106488I-82000J0D01*
G01*
G37*
%TD.AperFunction*%
%TD*%
%TO.P,D77,3*%
%TO.N,GND*%
%TA.AperFunction,SMDPad,CuDef*%
G36*
G01*
X39115589Y-78606487D02*
X37679589Y-78606487D01*
G75*
G02*
X37597589Y-78524487I0J82000D01*
G01*
X37597589Y-77868487D01*
G75*
G02*
X37679589Y-77786487I82000J0D01*
G01*
X39115589Y-77786487D01*
G75*
G02*
X39197589Y-77868487I0J-82000D01*
G01*
X39197589Y-78524487D01*
G75*
G02*
X39115589Y-78606487I-82000J0D01*
G01*
G37*
%TD.AperFunction*%
%TO.P,D77,4*%
%TO.N,Net-(D75-Pad2)*%
%TA.AperFunction,SMDPad,CuDef*%
G36*
G01*
X39115589Y-80106487D02*
X37679589Y-80106487D01*
G75*
G02*
X37597589Y-80024487I0J82000D01*
G01*
X37597589Y-79368487D01*
G75*
G02*
X37679589Y-79286487I82000J0D01*
G01*
X39115589Y-79286487D01*
G75*
G02*
X39197589Y-79368487I0J-82000D01*
G01*
X39197589Y-80024487D01*
G75*
G02*
X39115589Y-80106487I-82000J0D01*
G01*
G37*
%TD.AperFunction*%
%TO.P,D77,2*%
%TO.N,Net-(D77-Pad2)*%
%TA.AperFunction,SMDPad,CuDef*%
G36*
G01*
X44315589Y-78606487D02*
X42879589Y-78606487D01*
G75*
G02*
X42797589Y-78524487I0J82000D01*
G01*
X42797589Y-77868487D01*
G75*
G02*
X42879589Y-77786487I82000J0D01*
G01*
X44315589Y-77786487D01*
G75*
G02*
X44397589Y-77868487I0J-82000D01*
G01*
X44397589Y-78524487D01*
G75*
G02*
X44315589Y-78606487I-82000J0D01*
G01*
G37*
%TD.AperFunction*%
%TO.P,D77,1*%
%TO.N,+5V*%
%TA.AperFunction,SMDPad,CuDef*%
G36*
G01*
X44315589Y-80106487D02*
X42879589Y-80106487D01*
G75*
G02*
X42797589Y-80024487I0J82000D01*
G01*
X42797589Y-79368487D01*
G75*
G02*
X42879589Y-79286487I82000J0D01*
G01*
X44315589Y-79286487D01*
G75*
G02*
X44397589Y-79368487I0J-82000D01*
G01*
X44397589Y-80024487D01*
G75*
G02*
X44315589Y-80106487I-82000J0D01*
G01*
G37*
%TD.AperFunction*%
%TD*%
%TO.P,D75,3*%
%TO.N,GND*%
%TA.AperFunction,SMDPad,CuDef*%
G36*
G01*
X39115588Y-97606486D02*
X37679588Y-97606486D01*
G75*
G02*
X37597588Y-97524486I0J82000D01*
G01*
X37597588Y-96868486D01*
G75*
G02*
X37679588Y-96786486I82000J0D01*
G01*
X39115588Y-96786486D01*
G75*
G02*
X39197588Y-96868486I0J-82000D01*
G01*
X39197588Y-97524486D01*
G75*
G02*
X39115588Y-97606486I-82000J0D01*
G01*
G37*
%TD.AperFunction*%
%TO.P,D75,4*%
%TO.N,led*%
%TA.AperFunction,SMDPad,CuDef*%
G36*
G01*
X39115588Y-99106486D02*
X37679588Y-99106486D01*
G75*
G02*
X37597588Y-99024486I0J82000D01*
G01*
X37597588Y-98368486D01*
G75*
G02*
X37679588Y-98286486I82000J0D01*
G01*
X39115588Y-98286486D01*
G75*
G02*
X39197588Y-98368486I0J-82000D01*
G01*
X39197588Y-99024486D01*
G75*
G02*
X39115588Y-99106486I-82000J0D01*
G01*
G37*
%TD.AperFunction*%
%TO.P,D75,2*%
%TO.N,Net-(D75-Pad2)*%
%TA.AperFunction,SMDPad,CuDef*%
G36*
G01*
X44315588Y-97606486D02*
X42879588Y-97606486D01*
G75*
G02*
X42797588Y-97524486I0J82000D01*
G01*
X42797588Y-96868486D01*
G75*
G02*
X42879588Y-96786486I82000J0D01*
G01*
X44315588Y-96786486D01*
G75*
G02*
X44397588Y-96868486I0J-82000D01*
G01*
X44397588Y-97524486D01*
G75*
G02*
X44315588Y-97606486I-82000J0D01*
G01*
G37*
%TD.AperFunction*%
%TO.P,D75,1*%
%TO.N,+5V*%
%TA.AperFunction,SMDPad,CuDef*%
G36*
G01*
X44315588Y-99106486D02*
X42879588Y-99106486D01*
G75*
G02*
X42797588Y-99024486I0J82000D01*
G01*
X42797588Y-98368486D01*
G75*
G02*
X42879588Y-98286486I82000J0D01*
G01*
X44315588Y-98286486D01*
G75*
G02*
X44397588Y-98368486I0J-82000D01*
G01*
X44397588Y-99024486D01*
G75*
G02*
X44315588Y-99106486I-82000J0D01*
G01*
G37*
%TD.AperFunction*%
%TD*%
D15*
%TO.P,SW7,A*%
%TO.N,ENC1A*%
X92011926Y-114529268D03*
D16*
%TO.P,SW7,C*%
%TO.N,GND*%
X89511926Y-114529268D03*
%TO.P,SW7,B*%
%TO.N,ENC1B*%
X87011926Y-114529268D03*
%TO.P,SW7,S2*%
%TO.N,Net-(D37-Pad2)*%
X92011926Y-100029268D03*
%TO.P,SW7,S1*%
%TO.N,col2*%
X87011926Y-100029268D03*
%TD*%
D19*
%TO.P,SW8,1*%
%TO.N,GND*%
X151893593Y-96474804D03*
%TO.P,SW8,2*%
%TO.N,RESET*%
X148193593Y-90274804D03*
%TO.P,SW8,3*%
%TO.N,N/C*%
X148193593Y-96474804D03*
%TO.P,SW8,4*%
X151893593Y-90274804D03*
%TD*%
%TO.P,D48,3*%
%TO.N,GND*%
%TA.AperFunction,SMDPad,CuDef*%
G36*
G01*
X97115587Y-35106489D02*
X95679587Y-35106489D01*
G75*
G02*
X95597587Y-35024489I0J82000D01*
G01*
X95597587Y-34368489D01*
G75*
G02*
X95679587Y-34286489I82000J0D01*
G01*
X97115587Y-34286489D01*
G75*
G02*
X97197587Y-34368489I0J-82000D01*
G01*
X97197587Y-35024489D01*
G75*
G02*
X97115587Y-35106489I-82000J0D01*
G01*
G37*
%TD.AperFunction*%
%TO.P,D48,4*%
%TO.N,Net-(D47-Pad2)*%
%TA.AperFunction,SMDPad,CuDef*%
G36*
G01*
X97115587Y-36606489D02*
X95679587Y-36606489D01*
G75*
G02*
X95597587Y-36524489I0J82000D01*
G01*
X95597587Y-35868489D01*
G75*
G02*
X95679587Y-35786489I82000J0D01*
G01*
X97115587Y-35786489D01*
G75*
G02*
X97197587Y-35868489I0J-82000D01*
G01*
X97197587Y-36524489D01*
G75*
G02*
X97115587Y-36606489I-82000J0D01*
G01*
G37*
%TD.AperFunction*%
%TO.P,D48,2*%
%TO.N,Net-(D48-Pad2)*%
%TA.AperFunction,SMDPad,CuDef*%
G36*
G01*
X102315587Y-35106489D02*
X100879587Y-35106489D01*
G75*
G02*
X100797587Y-35024489I0J82000D01*
G01*
X100797587Y-34368489D01*
G75*
G02*
X100879587Y-34286489I82000J0D01*
G01*
X102315587Y-34286489D01*
G75*
G02*
X102397587Y-34368489I0J-82000D01*
G01*
X102397587Y-35024489D01*
G75*
G02*
X102315587Y-35106489I-82000J0D01*
G01*
G37*
%TD.AperFunction*%
%TO.P,D48,1*%
%TO.N,+5V*%
%TA.AperFunction,SMDPad,CuDef*%
G36*
G01*
X102315587Y-36606489D02*
X100879587Y-36606489D01*
G75*
G02*
X100797587Y-36524489I0J82000D01*
G01*
X100797587Y-35868489D01*
G75*
G02*
X100879587Y-35786489I82000J0D01*
G01*
X102315587Y-35786489D01*
G75*
G02*
X102397587Y-35868489I0J-82000D01*
G01*
X102397587Y-36524489D01*
G75*
G02*
X102315587Y-36606489I-82000J0D01*
G01*
G37*
%TD.AperFunction*%
%TD*%
%TO.P,J1,1*%
%TO.N,+5V*%
%TA.AperFunction,ComponentPad*%
G36*
G01*
X152679593Y-63016404D02*
X152679593Y-63866404D01*
G75*
G02*
X152254593Y-64291404I-425000J0D01*
G01*
X150904593Y-64291404D01*
G75*
G02*
X150479593Y-63866404I0J425000D01*
G01*
X150479593Y-63016404D01*
G75*
G02*
X150904593Y-62591404I425000J0D01*
G01*
X152254593Y-62591404D01*
G75*
G02*
X152679593Y-63016404I0J-425000D01*
G01*
G37*
%TD.AperFunction*%
%TO.P,J1,2*%
%TO.N,sda*%
%TA.AperFunction,ComponentPad*%
G36*
G01*
X152254593Y-66831404D02*
X150904593Y-66831404D01*
G75*
G02*
X150479593Y-66406404I0J425000D01*
G01*
X150479593Y-65556404D01*
G75*
G02*
X150904593Y-65131404I425000J0D01*
G01*
X152254593Y-65131404D01*
G75*
G02*
X152679593Y-65556404I0J-425000D01*
G01*
X152679593Y-66406404D01*
G75*
G02*
X152254593Y-66831404I-425000J0D01*
G01*
G37*
%TD.AperFunction*%
%TO.P,J1,3*%
%TO.N,scl*%
%TA.AperFunction,ComponentPad*%
G36*
G01*
X152254593Y-69371404D02*
X150904593Y-69371404D01*
G75*
G02*
X150479593Y-68946404I0J425000D01*
G01*
X150479593Y-68096404D01*
G75*
G02*
X150904593Y-67671404I425000J0D01*
G01*
X152254593Y-67671404D01*
G75*
G02*
X152679593Y-68096404I0J-425000D01*
G01*
X152679593Y-68946404D01*
G75*
G02*
X152254593Y-69371404I-425000J0D01*
G01*
G37*
%TD.AperFunction*%
%TO.P,J1,4*%
%TO.N,Net-(J1-Pad4)*%
%TA.AperFunction,ComponentPad*%
G36*
G01*
X152254593Y-71911404D02*
X150904593Y-71911404D01*
G75*
G02*
X150479593Y-71486404I0J425000D01*
G01*
X150479593Y-70636404D01*
G75*
G02*
X150904593Y-70211404I425000J0D01*
G01*
X152254593Y-70211404D01*
G75*
G02*
X152679593Y-70636404I0J-425000D01*
G01*
X152679593Y-71486404D01*
G75*
G02*
X152254593Y-71911404I-425000J0D01*
G01*
G37*
%TD.AperFunction*%
%TO.P,J1,5*%
%TO.N,GND*%
%TA.AperFunction,ComponentPad*%
G36*
G01*
X152254593Y-74451404D02*
X150904593Y-74451404D01*
G75*
G02*
X150479593Y-74026404I0J425000D01*
G01*
X150479593Y-73176404D01*
G75*
G02*
X150904593Y-72751404I425000J0D01*
G01*
X152254593Y-72751404D01*
G75*
G02*
X152679593Y-73176404I0J-425000D01*
G01*
X152679593Y-74026404D01*
G75*
G02*
X152254593Y-74451404I-425000J0D01*
G01*
G37*
%TD.AperFunction*%
%TD*%
D20*
%TO.P,U4,1*%
%TO.N,GND*%
X152343593Y-51739404D03*
%TO.P,U4,2*%
X147743593Y-50639404D03*
%TO.P,U4,4*%
%TO.N,+5V*%
X147743593Y-43639404D03*
%TO.P,U4,3*%
%TO.N,data*%
X147743593Y-46639404D03*
%TD*%
%TO.P,U3,1*%
%TO.N,GND*%
X147743593Y-51739404D03*
%TO.P,U3,2*%
X152343593Y-50639404D03*
%TO.P,U3,4*%
%TO.N,+5V*%
X152343593Y-43639404D03*
%TO.P,U3,3*%
%TO.N,data*%
X152343593Y-46639404D03*
%TD*%
%TO.P,D51,3*%
%TO.N,GND*%
%TA.AperFunction,SMDPad,CuDef*%
G36*
G01*
X116115586Y-78106488D02*
X114679586Y-78106488D01*
G75*
G02*
X114597586Y-78024488I0J82000D01*
G01*
X114597586Y-77368488D01*
G75*
G02*
X114679586Y-77286488I82000J0D01*
G01*
X116115586Y-77286488D01*
G75*
G02*
X116197586Y-77368488I0J-82000D01*
G01*
X116197586Y-78024488D01*
G75*
G02*
X116115586Y-78106488I-82000J0D01*
G01*
G37*
%TD.AperFunction*%
%TO.P,D51,4*%
%TO.N,Net-(D50-Pad2)*%
%TA.AperFunction,SMDPad,CuDef*%
G36*
G01*
X116115586Y-79606488D02*
X114679586Y-79606488D01*
G75*
G02*
X114597586Y-79524488I0J82000D01*
G01*
X114597586Y-78868488D01*
G75*
G02*
X114679586Y-78786488I82000J0D01*
G01*
X116115586Y-78786488D01*
G75*
G02*
X116197586Y-78868488I0J-82000D01*
G01*
X116197586Y-79524488D01*
G75*
G02*
X116115586Y-79606488I-82000J0D01*
G01*
G37*
%TD.AperFunction*%
%TO.P,D51,2*%
%TO.N,Net-(D51-Pad2)*%
%TA.AperFunction,SMDPad,CuDef*%
G36*
G01*
X121315586Y-78106488D02*
X119879586Y-78106488D01*
G75*
G02*
X119797586Y-78024488I0J82000D01*
G01*
X119797586Y-77368488D01*
G75*
G02*
X119879586Y-77286488I82000J0D01*
G01*
X121315586Y-77286488D01*
G75*
G02*
X121397586Y-77368488I0J-82000D01*
G01*
X121397586Y-78024488D01*
G75*
G02*
X121315586Y-78106488I-82000J0D01*
G01*
G37*
%TD.AperFunction*%
%TO.P,D51,1*%
%TO.N,+5V*%
%TA.AperFunction,SMDPad,CuDef*%
G36*
G01*
X121315586Y-79606488D02*
X119879586Y-79606488D01*
G75*
G02*
X119797586Y-79524488I0J82000D01*
G01*
X119797586Y-78868488D01*
G75*
G02*
X119879586Y-78786488I82000J0D01*
G01*
X121315586Y-78786488D01*
G75*
G02*
X121397586Y-78868488I0J-82000D01*
G01*
X121397586Y-79524488D01*
G75*
G02*
X121315586Y-79606488I-82000J0D01*
G01*
G37*
%TD.AperFunction*%
%TD*%
D21*
%TO.P,D6,2*%
%TO.N,Net-(D26-Pad2)*%
X126726393Y-110061804D03*
%TO.P,D6,1*%
%TO.N,row3*%
X126726393Y-113361804D03*
%TD*%
D22*
%TO.P,U1,1*%
%TO.N,led*%
X91369593Y-34978404D03*
D23*
%TO.P,U1,2*%
%TO.N,data*%
X91369593Y-37518404D03*
%TO.P,U1,3*%
%TO.N,GND*%
X91369593Y-40058404D03*
%TO.P,U1,4*%
X91369593Y-42598404D03*
%TO.P,U1,5*%
%TO.N,sda*%
X91369593Y-45138404D03*
%TO.P,U1,6*%
%TO.N,scl*%
X91369593Y-47678404D03*
%TO.P,U1,7*%
%TO.N,col2*%
X91369593Y-50218404D03*
%TO.P,U1,8*%
%TO.N,Net-(U1-Pad8)*%
X91369593Y-52758404D03*
%TO.P,U1,9*%
%TO.N,row1*%
X91369593Y-55298404D03*
%TO.P,U1,10*%
%TO.N,row3*%
X91369593Y-57838404D03*
%TO.P,U1,11*%
%TO.N,ENC1A*%
X91369593Y-60378404D03*
%TO.P,U1,13*%
%TO.N,Net-(U1-Pad13)*%
X106609593Y-62918404D03*
%TO.P,U1,14*%
%TO.N,col5*%
X106609593Y-60378404D03*
%TO.P,U1,15*%
%TO.N,row2*%
X106609593Y-57838404D03*
%TO.P,U1,16*%
%TO.N,col4*%
X106609593Y-55298404D03*
%TO.P,U1,17*%
%TO.N,col0*%
X106609593Y-52758404D03*
%TO.P,U1,18*%
%TO.N,row0*%
X106609593Y-50218404D03*
%TO.P,U1,19*%
%TO.N,col3*%
X106609593Y-47678404D03*
%TO.P,U1,20*%
%TO.N,col1*%
X106609593Y-45138404D03*
%TO.P,U1,21*%
%TO.N,+5V*%
X106609593Y-42598404D03*
%TO.P,U1,22*%
%TO.N,RESET*%
X106609593Y-40058404D03*
%TO.P,U1,23*%
%TO.N,B-*%
X106609593Y-37518404D03*
%TO.P,U1,12*%
%TO.N,ENC1B*%
X91369593Y-62918404D03*
%TO.P,U1,24*%
%TO.N,B+*%
X106609593Y-34978404D03*
%TD*%
%TO.P,D59,3*%
%TO.N,GND*%
%TA.AperFunction,SMDPad,CuDef*%
G36*
G01*
X138005439Y-103692294D02*
X136591255Y-103442936D01*
G75*
G02*
X136524740Y-103347943I14239J80754D01*
G01*
X136638654Y-102701909D01*
G75*
G02*
X136733647Y-102635394I80754J-14239D01*
G01*
X138147831Y-102884752D01*
G75*
G02*
X138214346Y-102979745I-14239J-80754D01*
G01*
X138100432Y-103625779D01*
G75*
G02*
X138005439Y-103692294I-80754J14239D01*
G01*
G37*
%TD.AperFunction*%
%TO.P,D59,4*%
%TO.N,Net-(D57-Pad2)*%
%TA.AperFunction,SMDPad,CuDef*%
G36*
G01*
X137744966Y-105169505D02*
X136330782Y-104920147D01*
G75*
G02*
X136264267Y-104825154I14239J80754D01*
G01*
X136378181Y-104179120D01*
G75*
G02*
X136473174Y-104112605I80754J-14239D01*
G01*
X137887358Y-104361963D01*
G75*
G02*
X137953873Y-104456956I-14239J-80754D01*
G01*
X137839959Y-105102990D01*
G75*
G02*
X137744966Y-105169505I-80754J14239D01*
G01*
G37*
%TD.AperFunction*%
%TO.P,D59,2*%
%TO.N,Net-(D59-Pad2)*%
%TA.AperFunction,SMDPad,CuDef*%
G36*
G01*
X143126439Y-104595264D02*
X141712255Y-104345906D01*
G75*
G02*
X141645740Y-104250913I14239J80754D01*
G01*
X141759654Y-103604879D01*
G75*
G02*
X141854647Y-103538364I80754J-14239D01*
G01*
X143268831Y-103787722D01*
G75*
G02*
X143335346Y-103882715I-14239J-80754D01*
G01*
X143221432Y-104528749D01*
G75*
G02*
X143126439Y-104595264I-80754J14239D01*
G01*
G37*
%TD.AperFunction*%
%TO.P,D59,1*%
%TO.N,+5V*%
%TA.AperFunction,SMDPad,CuDef*%
G36*
G01*
X142865967Y-106072476D02*
X141451783Y-105823118D01*
G75*
G02*
X141385268Y-105728125I14239J80754D01*
G01*
X141499182Y-105082091D01*
G75*
G02*
X141594175Y-105015576I80754J-14239D01*
G01*
X143008359Y-105264934D01*
G75*
G02*
X143074874Y-105359927I-14239J-80754D01*
G01*
X142960960Y-106005961D01*
G75*
G02*
X142865967Y-106072476I-80754J14239D01*
G01*
G37*
%TD.AperFunction*%
%TD*%
%TO.P,D57,3*%
%TO.N,GND*%
%TA.AperFunction,SMDPad,CuDef*%
G36*
G01*
X116115586Y-102106488D02*
X114679586Y-102106488D01*
G75*
G02*
X114597586Y-102024488I0J82000D01*
G01*
X114597586Y-101368488D01*
G75*
G02*
X114679586Y-101286488I82000J0D01*
G01*
X116115586Y-101286488D01*
G75*
G02*
X116197586Y-101368488I0J-82000D01*
G01*
X116197586Y-102024488D01*
G75*
G02*
X116115586Y-102106488I-82000J0D01*
G01*
G37*
%TD.AperFunction*%
%TO.P,D57,4*%
%TO.N,Net-(D56-Pad2)*%
%TA.AperFunction,SMDPad,CuDef*%
G36*
G01*
X116115586Y-103606488D02*
X114679586Y-103606488D01*
G75*
G02*
X114597586Y-103524488I0J82000D01*
G01*
X114597586Y-102868488D01*
G75*
G02*
X114679586Y-102786488I82000J0D01*
G01*
X116115586Y-102786488D01*
G75*
G02*
X116197586Y-102868488I0J-82000D01*
G01*
X116197586Y-103524488D01*
G75*
G02*
X116115586Y-103606488I-82000J0D01*
G01*
G37*
%TD.AperFunction*%
%TO.P,D57,2*%
%TO.N,Net-(D57-Pad2)*%
%TA.AperFunction,SMDPad,CuDef*%
G36*
G01*
X121315586Y-102106488D02*
X119879586Y-102106488D01*
G75*
G02*
X119797586Y-102024488I0J82000D01*
G01*
X119797586Y-101368488D01*
G75*
G02*
X119879586Y-101286488I82000J0D01*
G01*
X121315586Y-101286488D01*
G75*
G02*
X121397586Y-101368488I0J-82000D01*
G01*
X121397586Y-102024488D01*
G75*
G02*
X121315586Y-102106488I-82000J0D01*
G01*
G37*
%TD.AperFunction*%
%TO.P,D57,1*%
%TO.N,+5V*%
%TA.AperFunction,SMDPad,CuDef*%
G36*
G01*
X121315586Y-103606488D02*
X119879586Y-103606488D01*
G75*
G02*
X119797586Y-103524488I0J82000D01*
G01*
X119797586Y-102868488D01*
G75*
G02*
X119879586Y-102786488I82000J0D01*
G01*
X121315586Y-102786488D01*
G75*
G02*
X121397586Y-102868488I0J-82000D01*
G01*
X121397586Y-103524488D01*
G75*
G02*
X121315586Y-103606488I-82000J0D01*
G01*
G37*
%TD.AperFunction*%
%TD*%
%TO.P,D60,3*%
%TO.N,GND*%
%TA.AperFunction,SMDPad,CuDef*%
G36*
G01*
X159287363Y-109055142D02*
X157937964Y-108564001D01*
G75*
G02*
X157888955Y-108458900I28046J77055D01*
G01*
X158113320Y-107842461D01*
G75*
G02*
X158218421Y-107793452I77055J-28046D01*
G01*
X159567820Y-108284593D01*
G75*
G02*
X159616829Y-108389694I-28046J-77055D01*
G01*
X159392464Y-109006133D01*
G75*
G02*
X159287363Y-109055142I-77055J28046D01*
G01*
G37*
%TD.AperFunction*%
%TO.P,D60,4*%
%TO.N,Net-(D59-Pad2)*%
%TA.AperFunction,SMDPad,CuDef*%
G36*
G01*
X158774333Y-110464681D02*
X157424934Y-109973540D01*
G75*
G02*
X157375925Y-109868439I28046J77055D01*
G01*
X157600290Y-109252000D01*
G75*
G02*
X157705391Y-109202991I77055J-28046D01*
G01*
X159054790Y-109694132D01*
G75*
G02*
X159103799Y-109799233I-28046J-77055D01*
G01*
X158879434Y-110415672D01*
G75*
G02*
X158774333Y-110464681I-77055J28046D01*
G01*
G37*
%TD.AperFunction*%
%TO.P,D60,2*%
%TO.N,Net-(D60-Pad2)*%
%TA.AperFunction,SMDPad,CuDef*%
G36*
G01*
X164173765Y-110833646D02*
X162824366Y-110342505D01*
G75*
G02*
X162775357Y-110237404I28046J77055D01*
G01*
X162999722Y-109620965D01*
G75*
G02*
X163104823Y-109571956I77055J-28046D01*
G01*
X164454222Y-110063097D01*
G75*
G02*
X164503231Y-110168198I-28046J-77055D01*
G01*
X164278866Y-110784637D01*
G75*
G02*
X164173765Y-110833646I-77055J28046D01*
G01*
G37*
%TD.AperFunction*%
%TO.P,D60,1*%
%TO.N,+5V*%
%TA.AperFunction,SMDPad,CuDef*%
G36*
G01*
X163660735Y-112243185D02*
X162311336Y-111752044D01*
G75*
G02*
X162262327Y-111646943I28046J77055D01*
G01*
X162486692Y-111030504D01*
G75*
G02*
X162591793Y-110981495I77055J-28046D01*
G01*
X163941192Y-111472636D01*
G75*
G02*
X163990201Y-111577737I-28046J-77055D01*
G01*
X163765836Y-112194176D01*
G75*
G02*
X163660735Y-112243185I-77055J28046D01*
G01*
G37*
%TD.AperFunction*%
%TD*%
%TO.P,D56,3*%
%TO.N,GND*%
%TA.AperFunction,SMDPad,CuDef*%
G36*
G01*
X135115585Y-80606488D02*
X133679585Y-80606488D01*
G75*
G02*
X133597585Y-80524488I0J82000D01*
G01*
X133597585Y-79868488D01*
G75*
G02*
X133679585Y-79786488I82000J0D01*
G01*
X135115585Y-79786488D01*
G75*
G02*
X135197585Y-79868488I0J-82000D01*
G01*
X135197585Y-80524488D01*
G75*
G02*
X135115585Y-80606488I-82000J0D01*
G01*
G37*
%TD.AperFunction*%
%TO.P,D56,4*%
%TO.N,Net-(D55-Pad2)*%
%TA.AperFunction,SMDPad,CuDef*%
G36*
G01*
X135115585Y-82106488D02*
X133679585Y-82106488D01*
G75*
G02*
X133597585Y-82024488I0J82000D01*
G01*
X133597585Y-81368488D01*
G75*
G02*
X133679585Y-81286488I82000J0D01*
G01*
X135115585Y-81286488D01*
G75*
G02*
X135197585Y-81368488I0J-82000D01*
G01*
X135197585Y-82024488D01*
G75*
G02*
X135115585Y-82106488I-82000J0D01*
G01*
G37*
%TD.AperFunction*%
%TO.P,D56,2*%
%TO.N,Net-(D56-Pad2)*%
%TA.AperFunction,SMDPad,CuDef*%
G36*
G01*
X140315585Y-80606488D02*
X138879585Y-80606488D01*
G75*
G02*
X138797585Y-80524488I0J82000D01*
G01*
X138797585Y-79868488D01*
G75*
G02*
X138879585Y-79786488I82000J0D01*
G01*
X140315585Y-79786488D01*
G75*
G02*
X140397585Y-79868488I0J-82000D01*
G01*
X140397585Y-80524488D01*
G75*
G02*
X140315585Y-80606488I-82000J0D01*
G01*
G37*
%TD.AperFunction*%
%TO.P,D56,1*%
%TO.N,+5V*%
%TA.AperFunction,SMDPad,CuDef*%
G36*
G01*
X140315585Y-82106488D02*
X138879585Y-82106488D01*
G75*
G02*
X138797585Y-82024488I0J82000D01*
G01*
X138797585Y-81368488D01*
G75*
G02*
X138879585Y-81286488I82000J0D01*
G01*
X140315585Y-81286488D01*
G75*
G02*
X140397585Y-81368488I0J-82000D01*
G01*
X140397585Y-82024488D01*
G75*
G02*
X140315585Y-82106488I-82000J0D01*
G01*
G37*
%TD.AperFunction*%
%TD*%
D21*
%TO.P,D81,2*%
%TO.N,Net-(D37-Pad2)*%
X79322593Y-100868404D03*
%TO.P,D81,1*%
%TO.N,row3*%
X79322593Y-97568404D03*
%TD*%
%TO.P,D45,3*%
%TO.N,GND*%
%TA.AperFunction,SMDPad,CuDef*%
G36*
G01*
X78115587Y-78106487D02*
X76679587Y-78106487D01*
G75*
G02*
X76597587Y-78024487I0J82000D01*
G01*
X76597587Y-77368487D01*
G75*
G02*
X76679587Y-77286487I82000J0D01*
G01*
X78115587Y-77286487D01*
G75*
G02*
X78197587Y-77368487I0J-82000D01*
G01*
X78197587Y-78024487D01*
G75*
G02*
X78115587Y-78106487I-82000J0D01*
G01*
G37*
%TD.AperFunction*%
%TO.P,D45,4*%
%TO.N,Net-(D43-Pad2)*%
%TA.AperFunction,SMDPad,CuDef*%
G36*
G01*
X78115587Y-79606487D02*
X76679587Y-79606487D01*
G75*
G02*
X76597587Y-79524487I0J82000D01*
G01*
X76597587Y-78868487D01*
G75*
G02*
X76679587Y-78786487I82000J0D01*
G01*
X78115587Y-78786487D01*
G75*
G02*
X78197587Y-78868487I0J-82000D01*
G01*
X78197587Y-79524487D01*
G75*
G02*
X78115587Y-79606487I-82000J0D01*
G01*
G37*
%TD.AperFunction*%
%TO.P,D45,2*%
%TO.N,Net-(D45-Pad2)*%
%TA.AperFunction,SMDPad,CuDef*%
G36*
G01*
X83315587Y-78106487D02*
X81879587Y-78106487D01*
G75*
G02*
X81797587Y-78024487I0J82000D01*
G01*
X81797587Y-77368487D01*
G75*
G02*
X81879587Y-77286487I82000J0D01*
G01*
X83315587Y-77286487D01*
G75*
G02*
X83397587Y-77368487I0J-82000D01*
G01*
X83397587Y-78024487D01*
G75*
G02*
X83315587Y-78106487I-82000J0D01*
G01*
G37*
%TD.AperFunction*%
%TO.P,D45,1*%
%TO.N,+5V*%
%TA.AperFunction,SMDPad,CuDef*%
G36*
G01*
X83315587Y-79606487D02*
X81879587Y-79606487D01*
G75*
G02*
X81797587Y-79524487I0J82000D01*
G01*
X81797587Y-78868487D01*
G75*
G02*
X81879587Y-78786487I82000J0D01*
G01*
X83315587Y-78786487D01*
G75*
G02*
X83397587Y-78868487I0J-82000D01*
G01*
X83397587Y-79524487D01*
G75*
G02*
X83315587Y-79606487I-82000J0D01*
G01*
G37*
%TD.AperFunction*%
%TD*%
%TO.P,D53,3*%
%TO.N,GND*%
%TA.AperFunction,SMDPad,CuDef*%
G36*
G01*
X116115586Y-40106489D02*
X114679586Y-40106489D01*
G75*
G02*
X114597586Y-40024489I0J82000D01*
G01*
X114597586Y-39368489D01*
G75*
G02*
X114679586Y-39286489I82000J0D01*
G01*
X116115586Y-39286489D01*
G75*
G02*
X116197586Y-39368489I0J-82000D01*
G01*
X116197586Y-40024489D01*
G75*
G02*
X116115586Y-40106489I-82000J0D01*
G01*
G37*
%TD.AperFunction*%
%TO.P,D53,4*%
%TO.N,Net-(D52-Pad2)*%
%TA.AperFunction,SMDPad,CuDef*%
G36*
G01*
X116115586Y-41606489D02*
X114679586Y-41606489D01*
G75*
G02*
X114597586Y-41524489I0J82000D01*
G01*
X114597586Y-40868489D01*
G75*
G02*
X114679586Y-40786489I82000J0D01*
G01*
X116115586Y-40786489D01*
G75*
G02*
X116197586Y-40868489I0J-82000D01*
G01*
X116197586Y-41524489D01*
G75*
G02*
X116115586Y-41606489I-82000J0D01*
G01*
G37*
%TD.AperFunction*%
%TO.P,D53,2*%
%TO.N,Net-(D53-Pad2)*%
%TA.AperFunction,SMDPad,CuDef*%
G36*
G01*
X121315586Y-40106489D02*
X119879586Y-40106489D01*
G75*
G02*
X119797586Y-40024489I0J82000D01*
G01*
X119797586Y-39368489D01*
G75*
G02*
X119879586Y-39286489I82000J0D01*
G01*
X121315586Y-39286489D01*
G75*
G02*
X121397586Y-39368489I0J-82000D01*
G01*
X121397586Y-40024489D01*
G75*
G02*
X121315586Y-40106489I-82000J0D01*
G01*
G37*
%TD.AperFunction*%
%TO.P,D53,1*%
%TO.N,+5V*%
%TA.AperFunction,SMDPad,CuDef*%
G36*
G01*
X121315586Y-41606489D02*
X119879586Y-41606489D01*
G75*
G02*
X119797586Y-41524489I0J82000D01*
G01*
X119797586Y-40868489D01*
G75*
G02*
X119879586Y-40786489I82000J0D01*
G01*
X121315586Y-40786489D01*
G75*
G02*
X121397586Y-40868489I0J-82000D01*
G01*
X121397586Y-41524489D01*
G75*
G02*
X121315586Y-41606489I-82000J0D01*
G01*
G37*
%TD.AperFunction*%
%TD*%
%TO.P,D52,3*%
%TO.N,GND*%
%TA.AperFunction,SMDPad,CuDef*%
G36*
G01*
X116115586Y-59106488D02*
X114679586Y-59106488D01*
G75*
G02*
X114597586Y-59024488I0J82000D01*
G01*
X114597586Y-58368488D01*
G75*
G02*
X114679586Y-58286488I82000J0D01*
G01*
X116115586Y-58286488D01*
G75*
G02*
X116197586Y-58368488I0J-82000D01*
G01*
X116197586Y-59024488D01*
G75*
G02*
X116115586Y-59106488I-82000J0D01*
G01*
G37*
%TD.AperFunction*%
%TO.P,D52,4*%
%TO.N,Net-(D51-Pad2)*%
%TA.AperFunction,SMDPad,CuDef*%
G36*
G01*
X116115586Y-60606488D02*
X114679586Y-60606488D01*
G75*
G02*
X114597586Y-60524488I0J82000D01*
G01*
X114597586Y-59868488D01*
G75*
G02*
X114679586Y-59786488I82000J0D01*
G01*
X116115586Y-59786488D01*
G75*
G02*
X116197586Y-59868488I0J-82000D01*
G01*
X116197586Y-60524488D01*
G75*
G02*
X116115586Y-60606488I-82000J0D01*
G01*
G37*
%TD.AperFunction*%
%TO.P,D52,2*%
%TO.N,Net-(D52-Pad2)*%
%TA.AperFunction,SMDPad,CuDef*%
G36*
G01*
X121315586Y-59106488D02*
X119879586Y-59106488D01*
G75*
G02*
X119797586Y-59024488I0J82000D01*
G01*
X119797586Y-58368488D01*
G75*
G02*
X119879586Y-58286488I82000J0D01*
G01*
X121315586Y-58286488D01*
G75*
G02*
X121397586Y-58368488I0J-82000D01*
G01*
X121397586Y-59024488D01*
G75*
G02*
X121315586Y-59106488I-82000J0D01*
G01*
G37*
%TD.AperFunction*%
%TO.P,D52,1*%
%TO.N,+5V*%
%TA.AperFunction,SMDPad,CuDef*%
G36*
G01*
X121315586Y-60606488D02*
X119879586Y-60606488D01*
G75*
G02*
X119797586Y-60524488I0J82000D01*
G01*
X119797586Y-59868488D01*
G75*
G02*
X119879586Y-59786488I82000J0D01*
G01*
X121315586Y-59786488D01*
G75*
G02*
X121397586Y-59868488I0J-82000D01*
G01*
X121397586Y-60524488D01*
G75*
G02*
X121315586Y-60606488I-82000J0D01*
G01*
G37*
%TD.AperFunction*%
%TD*%
%TO.P,D54,3*%
%TO.N,GND*%
%TA.AperFunction,SMDPad,CuDef*%
G36*
G01*
X135115585Y-42606490D02*
X133679585Y-42606490D01*
G75*
G02*
X133597585Y-42524490I0J82000D01*
G01*
X133597585Y-41868490D01*
G75*
G02*
X133679585Y-41786490I82000J0D01*
G01*
X135115585Y-41786490D01*
G75*
G02*
X135197585Y-41868490I0J-82000D01*
G01*
X135197585Y-42524490D01*
G75*
G02*
X135115585Y-42606490I-82000J0D01*
G01*
G37*
%TD.AperFunction*%
%TO.P,D54,4*%
%TO.N,Net-(D53-Pad2)*%
%TA.AperFunction,SMDPad,CuDef*%
G36*
G01*
X135115585Y-44106490D02*
X133679585Y-44106490D01*
G75*
G02*
X133597585Y-44024490I0J82000D01*
G01*
X133597585Y-43368490D01*
G75*
G02*
X133679585Y-43286490I82000J0D01*
G01*
X135115585Y-43286490D01*
G75*
G02*
X135197585Y-43368490I0J-82000D01*
G01*
X135197585Y-44024490D01*
G75*
G02*
X135115585Y-44106490I-82000J0D01*
G01*
G37*
%TD.AperFunction*%
%TO.P,D54,2*%
%TO.N,Net-(D54-Pad2)*%
%TA.AperFunction,SMDPad,CuDef*%
G36*
G01*
X140315585Y-42606490D02*
X138879585Y-42606490D01*
G75*
G02*
X138797585Y-42524490I0J82000D01*
G01*
X138797585Y-41868490D01*
G75*
G02*
X138879585Y-41786490I82000J0D01*
G01*
X140315585Y-41786490D01*
G75*
G02*
X140397585Y-41868490I0J-82000D01*
G01*
X140397585Y-42524490D01*
G75*
G02*
X140315585Y-42606490I-82000J0D01*
G01*
G37*
%TD.AperFunction*%
%TO.P,D54,1*%
%TO.N,+5V*%
%TA.AperFunction,SMDPad,CuDef*%
G36*
G01*
X140315585Y-44106490D02*
X138879585Y-44106490D01*
G75*
G02*
X138797585Y-44024490I0J82000D01*
G01*
X138797585Y-43368490D01*
G75*
G02*
X138879585Y-43286490I82000J0D01*
G01*
X140315585Y-43286490D01*
G75*
G02*
X140397585Y-43368490I0J-82000D01*
G01*
X140397585Y-44024490D01*
G75*
G02*
X140315585Y-44106490I-82000J0D01*
G01*
G37*
%TD.AperFunction*%
%TD*%
%TO.P,D50,3*%
%TO.N,GND*%
%TA.AperFunction,SMDPad,CuDef*%
G36*
G01*
X97115586Y-73106488D02*
X95679586Y-73106488D01*
G75*
G02*
X95597586Y-73024488I0J82000D01*
G01*
X95597586Y-72368488D01*
G75*
G02*
X95679586Y-72286488I82000J0D01*
G01*
X97115586Y-72286488D01*
G75*
G02*
X97197586Y-72368488I0J-82000D01*
G01*
X97197586Y-73024488D01*
G75*
G02*
X97115586Y-73106488I-82000J0D01*
G01*
G37*
%TD.AperFunction*%
%TO.P,D50,4*%
%TO.N,Net-(D49-Pad2)*%
%TA.AperFunction,SMDPad,CuDef*%
G36*
G01*
X97115586Y-74606488D02*
X95679586Y-74606488D01*
G75*
G02*
X95597586Y-74524488I0J82000D01*
G01*
X95597586Y-73868488D01*
G75*
G02*
X95679586Y-73786488I82000J0D01*
G01*
X97115586Y-73786488D01*
G75*
G02*
X97197586Y-73868488I0J-82000D01*
G01*
X97197586Y-74524488D01*
G75*
G02*
X97115586Y-74606488I-82000J0D01*
G01*
G37*
%TD.AperFunction*%
%TO.P,D50,2*%
%TO.N,Net-(D50-Pad2)*%
%TA.AperFunction,SMDPad,CuDef*%
G36*
G01*
X102315586Y-73106488D02*
X100879586Y-73106488D01*
G75*
G02*
X100797586Y-73024488I0J82000D01*
G01*
X100797586Y-72368488D01*
G75*
G02*
X100879586Y-72286488I82000J0D01*
G01*
X102315586Y-72286488D01*
G75*
G02*
X102397586Y-72368488I0J-82000D01*
G01*
X102397586Y-73024488D01*
G75*
G02*
X102315586Y-73106488I-82000J0D01*
G01*
G37*
%TD.AperFunction*%
%TO.P,D50,1*%
%TO.N,+5V*%
%TA.AperFunction,SMDPad,CuDef*%
G36*
G01*
X102315586Y-74606488D02*
X100879586Y-74606488D01*
G75*
G02*
X100797586Y-74524488I0J82000D01*
G01*
X100797586Y-73868488D01*
G75*
G02*
X100879586Y-73786488I82000J0D01*
G01*
X102315586Y-73786488D01*
G75*
G02*
X102397586Y-73868488I0J-82000D01*
G01*
X102397586Y-74524488D01*
G75*
G02*
X102315586Y-74606488I-82000J0D01*
G01*
G37*
%TD.AperFunction*%
%TD*%
%TO.P,D43,3*%
%TO.N,GND*%
%TA.AperFunction,SMDPad,CuDef*%
G36*
G01*
X59115588Y-90606486D02*
X57679588Y-90606486D01*
G75*
G02*
X57597588Y-90524486I0J82000D01*
G01*
X57597588Y-89868486D01*
G75*
G02*
X57679588Y-89786486I82000J0D01*
G01*
X59115588Y-89786486D01*
G75*
G02*
X59197588Y-89868486I0J-82000D01*
G01*
X59197588Y-90524486D01*
G75*
G02*
X59115588Y-90606486I-82000J0D01*
G01*
G37*
%TD.AperFunction*%
%TO.P,D43,4*%
%TO.N,Net-(D42-Pad2)*%
%TA.AperFunction,SMDPad,CuDef*%
G36*
G01*
X59115588Y-92106486D02*
X57679588Y-92106486D01*
G75*
G02*
X57597588Y-92024486I0J82000D01*
G01*
X57597588Y-91368486D01*
G75*
G02*
X57679588Y-91286486I82000J0D01*
G01*
X59115588Y-91286486D01*
G75*
G02*
X59197588Y-91368486I0J-82000D01*
G01*
X59197588Y-92024486D01*
G75*
G02*
X59115588Y-92106486I-82000J0D01*
G01*
G37*
%TD.AperFunction*%
%TO.P,D43,2*%
%TO.N,Net-(D43-Pad2)*%
%TA.AperFunction,SMDPad,CuDef*%
G36*
G01*
X64315588Y-90606486D02*
X62879588Y-90606486D01*
G75*
G02*
X62797588Y-90524486I0J82000D01*
G01*
X62797588Y-89868486D01*
G75*
G02*
X62879588Y-89786486I82000J0D01*
G01*
X64315588Y-89786486D01*
G75*
G02*
X64397588Y-89868486I0J-82000D01*
G01*
X64397588Y-90524486D01*
G75*
G02*
X64315588Y-90606486I-82000J0D01*
G01*
G37*
%TD.AperFunction*%
%TO.P,D43,1*%
%TO.N,+5V*%
%TA.AperFunction,SMDPad,CuDef*%
G36*
G01*
X64315588Y-92106486D02*
X62879588Y-92106486D01*
G75*
G02*
X62797588Y-92024486I0J82000D01*
G01*
X62797588Y-91368486D01*
G75*
G02*
X62879588Y-91286486I82000J0D01*
G01*
X64315588Y-91286486D01*
G75*
G02*
X64397588Y-91368486I0J-82000D01*
G01*
X64397588Y-92024486D01*
G75*
G02*
X64315588Y-92106486I-82000J0D01*
G01*
G37*
%TD.AperFunction*%
%TD*%
%TO.P,D49,3*%
%TO.N,GND*%
%TA.AperFunction,SMDPad,CuDef*%
G36*
G01*
X97115587Y-54106488D02*
X95679587Y-54106488D01*
G75*
G02*
X95597587Y-54024488I0J82000D01*
G01*
X95597587Y-53368488D01*
G75*
G02*
X95679587Y-53286488I82000J0D01*
G01*
X97115587Y-53286488D01*
G75*
G02*
X97197587Y-53368488I0J-82000D01*
G01*
X97197587Y-54024488D01*
G75*
G02*
X97115587Y-54106488I-82000J0D01*
G01*
G37*
%TD.AperFunction*%
%TO.P,D49,4*%
%TO.N,Net-(D48-Pad2)*%
%TA.AperFunction,SMDPad,CuDef*%
G36*
G01*
X97115587Y-55606488D02*
X95679587Y-55606488D01*
G75*
G02*
X95597587Y-55524488I0J82000D01*
G01*
X95597587Y-54868488D01*
G75*
G02*
X95679587Y-54786488I82000J0D01*
G01*
X97115587Y-54786488D01*
G75*
G02*
X97197587Y-54868488I0J-82000D01*
G01*
X97197587Y-55524488D01*
G75*
G02*
X97115587Y-55606488I-82000J0D01*
G01*
G37*
%TD.AperFunction*%
%TO.P,D49,2*%
%TO.N,Net-(D49-Pad2)*%
%TA.AperFunction,SMDPad,CuDef*%
G36*
G01*
X102315587Y-54106488D02*
X100879587Y-54106488D01*
G75*
G02*
X100797587Y-54024488I0J82000D01*
G01*
X100797587Y-53368488D01*
G75*
G02*
X100879587Y-53286488I82000J0D01*
G01*
X102315587Y-53286488D01*
G75*
G02*
X102397587Y-53368488I0J-82000D01*
G01*
X102397587Y-54024488D01*
G75*
G02*
X102315587Y-54106488I-82000J0D01*
G01*
G37*
%TD.AperFunction*%
%TO.P,D49,1*%
%TO.N,+5V*%
%TA.AperFunction,SMDPad,CuDef*%
G36*
G01*
X102315587Y-55606488D02*
X100879587Y-55606488D01*
G75*
G02*
X100797587Y-55524488I0J82000D01*
G01*
X100797587Y-54868488D01*
G75*
G02*
X100879587Y-54786488I82000J0D01*
G01*
X102315587Y-54786488D01*
G75*
G02*
X102397587Y-54868488I0J-82000D01*
G01*
X102397587Y-55524488D01*
G75*
G02*
X102315587Y-55606488I-82000J0D01*
G01*
G37*
%TD.AperFunction*%
%TD*%
%TO.P,D46,3*%
%TO.N,GND*%
%TA.AperFunction,SMDPad,CuDef*%
G36*
G01*
X78115588Y-59106488D02*
X76679588Y-59106488D01*
G75*
G02*
X76597588Y-59024488I0J82000D01*
G01*
X76597588Y-58368488D01*
G75*
G02*
X76679588Y-58286488I82000J0D01*
G01*
X78115588Y-58286488D01*
G75*
G02*
X78197588Y-58368488I0J-82000D01*
G01*
X78197588Y-59024488D01*
G75*
G02*
X78115588Y-59106488I-82000J0D01*
G01*
G37*
%TD.AperFunction*%
%TO.P,D46,4*%
%TO.N,Net-(D45-Pad2)*%
%TA.AperFunction,SMDPad,CuDef*%
G36*
G01*
X78115588Y-60606488D02*
X76679588Y-60606488D01*
G75*
G02*
X76597588Y-60524488I0J82000D01*
G01*
X76597588Y-59868488D01*
G75*
G02*
X76679588Y-59786488I82000J0D01*
G01*
X78115588Y-59786488D01*
G75*
G02*
X78197588Y-59868488I0J-82000D01*
G01*
X78197588Y-60524488D01*
G75*
G02*
X78115588Y-60606488I-82000J0D01*
G01*
G37*
%TD.AperFunction*%
%TO.P,D46,2*%
%TO.N,Net-(D46-Pad2)*%
%TA.AperFunction,SMDPad,CuDef*%
G36*
G01*
X83315588Y-59106488D02*
X81879588Y-59106488D01*
G75*
G02*
X81797588Y-59024488I0J82000D01*
G01*
X81797588Y-58368488D01*
G75*
G02*
X81879588Y-58286488I82000J0D01*
G01*
X83315588Y-58286488D01*
G75*
G02*
X83397588Y-58368488I0J-82000D01*
G01*
X83397588Y-59024488D01*
G75*
G02*
X83315588Y-59106488I-82000J0D01*
G01*
G37*
%TD.AperFunction*%
%TO.P,D46,1*%
%TO.N,+5V*%
%TA.AperFunction,SMDPad,CuDef*%
G36*
G01*
X83315588Y-60606488D02*
X81879588Y-60606488D01*
G75*
G02*
X81797588Y-60524488I0J82000D01*
G01*
X81797588Y-59868488D01*
G75*
G02*
X81879588Y-59786488I82000J0D01*
G01*
X83315588Y-59786488D01*
G75*
G02*
X83397588Y-59868488I0J-82000D01*
G01*
X83397588Y-60524488D01*
G75*
G02*
X83315588Y-60606488I-82000J0D01*
G01*
G37*
%TD.AperFunction*%
%TD*%
%TO.P,D42,3*%
%TO.N,GND*%
%TA.AperFunction,SMDPad,CuDef*%
G36*
G01*
X59115589Y-71606487D02*
X57679589Y-71606487D01*
G75*
G02*
X57597589Y-71524487I0J82000D01*
G01*
X57597589Y-70868487D01*
G75*
G02*
X57679589Y-70786487I82000J0D01*
G01*
X59115589Y-70786487D01*
G75*
G02*
X59197589Y-70868487I0J-82000D01*
G01*
X59197589Y-71524487D01*
G75*
G02*
X59115589Y-71606487I-82000J0D01*
G01*
G37*
%TD.AperFunction*%
%TO.P,D42,4*%
%TO.N,Net-(D41-Pad2)*%
%TA.AperFunction,SMDPad,CuDef*%
G36*
G01*
X59115589Y-73106487D02*
X57679589Y-73106487D01*
G75*
G02*
X57597589Y-73024487I0J82000D01*
G01*
X57597589Y-72368487D01*
G75*
G02*
X57679589Y-72286487I82000J0D01*
G01*
X59115589Y-72286487D01*
G75*
G02*
X59197589Y-72368487I0J-82000D01*
G01*
X59197589Y-73024487D01*
G75*
G02*
X59115589Y-73106487I-82000J0D01*
G01*
G37*
%TD.AperFunction*%
%TO.P,D42,2*%
%TO.N,Net-(D42-Pad2)*%
%TA.AperFunction,SMDPad,CuDef*%
G36*
G01*
X64315589Y-71606487D02*
X62879589Y-71606487D01*
G75*
G02*
X62797589Y-71524487I0J82000D01*
G01*
X62797589Y-70868487D01*
G75*
G02*
X62879589Y-70786487I82000J0D01*
G01*
X64315589Y-70786487D01*
G75*
G02*
X64397589Y-70868487I0J-82000D01*
G01*
X64397589Y-71524487D01*
G75*
G02*
X64315589Y-71606487I-82000J0D01*
G01*
G37*
%TD.AperFunction*%
%TO.P,D42,1*%
%TO.N,+5V*%
%TA.AperFunction,SMDPad,CuDef*%
G36*
G01*
X64315589Y-73106487D02*
X62879589Y-73106487D01*
G75*
G02*
X62797589Y-73024487I0J82000D01*
G01*
X62797589Y-72368487D01*
G75*
G02*
X62879589Y-72286487I82000J0D01*
G01*
X64315589Y-72286487D01*
G75*
G02*
X64397589Y-72368487I0J-82000D01*
G01*
X64397589Y-73024487D01*
G75*
G02*
X64315589Y-73106487I-82000J0D01*
G01*
G37*
%TD.AperFunction*%
%TD*%
%TO.P,D55,3*%
%TO.N,GND*%
%TA.AperFunction,SMDPad,CuDef*%
G36*
G01*
X135115585Y-61606489D02*
X133679585Y-61606489D01*
G75*
G02*
X133597585Y-61524489I0J82000D01*
G01*
X133597585Y-60868489D01*
G75*
G02*
X133679585Y-60786489I82000J0D01*
G01*
X135115585Y-60786489D01*
G75*
G02*
X135197585Y-60868489I0J-82000D01*
G01*
X135197585Y-61524489D01*
G75*
G02*
X135115585Y-61606489I-82000J0D01*
G01*
G37*
%TD.AperFunction*%
%TO.P,D55,4*%
%TO.N,Net-(D54-Pad2)*%
%TA.AperFunction,SMDPad,CuDef*%
G36*
G01*
X135115585Y-63106489D02*
X133679585Y-63106489D01*
G75*
G02*
X133597585Y-63024489I0J82000D01*
G01*
X133597585Y-62368489D01*
G75*
G02*
X133679585Y-62286489I82000J0D01*
G01*
X135115585Y-62286489D01*
G75*
G02*
X135197585Y-62368489I0J-82000D01*
G01*
X135197585Y-63024489D01*
G75*
G02*
X135115585Y-63106489I-82000J0D01*
G01*
G37*
%TD.AperFunction*%
%TO.P,D55,2*%
%TO.N,Net-(D55-Pad2)*%
%TA.AperFunction,SMDPad,CuDef*%
G36*
G01*
X140315585Y-61606489D02*
X138879585Y-61606489D01*
G75*
G02*
X138797585Y-61524489I0J82000D01*
G01*
X138797585Y-60868489D01*
G75*
G02*
X138879585Y-60786489I82000J0D01*
G01*
X140315585Y-60786489D01*
G75*
G02*
X140397585Y-60868489I0J-82000D01*
G01*
X140397585Y-61524489D01*
G75*
G02*
X140315585Y-61606489I-82000J0D01*
G01*
G37*
%TD.AperFunction*%
%TO.P,D55,1*%
%TO.N,+5V*%
%TA.AperFunction,SMDPad,CuDef*%
G36*
G01*
X140315585Y-63106489D02*
X138879585Y-63106489D01*
G75*
G02*
X138797585Y-63024489I0J82000D01*
G01*
X138797585Y-62368489D01*
G75*
G02*
X138879585Y-62286489I82000J0D01*
G01*
X140315585Y-62286489D01*
G75*
G02*
X140397585Y-62368489I0J-82000D01*
G01*
X140397585Y-63024489D01*
G75*
G02*
X140315585Y-63106489I-82000J0D01*
G01*
G37*
%TD.AperFunction*%
%TD*%
%TO.P,D47,3*%
%TO.N,GND*%
%TA.AperFunction,SMDPad,CuDef*%
G36*
G01*
X78115588Y-40106489D02*
X76679588Y-40106489D01*
G75*
G02*
X76597588Y-40024489I0J82000D01*
G01*
X76597588Y-39368489D01*
G75*
G02*
X76679588Y-39286489I82000J0D01*
G01*
X78115588Y-39286489D01*
G75*
G02*
X78197588Y-39368489I0J-82000D01*
G01*
X78197588Y-40024489D01*
G75*
G02*
X78115588Y-40106489I-82000J0D01*
G01*
G37*
%TD.AperFunction*%
%TO.P,D47,4*%
%TO.N,Net-(D46-Pad2)*%
%TA.AperFunction,SMDPad,CuDef*%
G36*
G01*
X78115588Y-41606489D02*
X76679588Y-41606489D01*
G75*
G02*
X76597588Y-41524489I0J82000D01*
G01*
X76597588Y-40868489D01*
G75*
G02*
X76679588Y-40786489I82000J0D01*
G01*
X78115588Y-40786489D01*
G75*
G02*
X78197588Y-40868489I0J-82000D01*
G01*
X78197588Y-41524489D01*
G75*
G02*
X78115588Y-41606489I-82000J0D01*
G01*
G37*
%TD.AperFunction*%
%TO.P,D47,2*%
%TO.N,Net-(D47-Pad2)*%
%TA.AperFunction,SMDPad,CuDef*%
G36*
G01*
X83315588Y-40106489D02*
X81879588Y-40106489D01*
G75*
G02*
X81797588Y-40024489I0J82000D01*
G01*
X81797588Y-39368489D01*
G75*
G02*
X81879588Y-39286489I82000J0D01*
G01*
X83315588Y-39286489D01*
G75*
G02*
X83397588Y-39368489I0J-82000D01*
G01*
X83397588Y-40024489D01*
G75*
G02*
X83315588Y-40106489I-82000J0D01*
G01*
G37*
%TD.AperFunction*%
%TO.P,D47,1*%
%TO.N,+5V*%
%TA.AperFunction,SMDPad,CuDef*%
G36*
G01*
X83315588Y-41606489D02*
X81879588Y-41606489D01*
G75*
G02*
X81797588Y-41524489I0J82000D01*
G01*
X81797588Y-40868489D01*
G75*
G02*
X81879588Y-40786489I82000J0D01*
G01*
X83315588Y-40786489D01*
G75*
G02*
X83397588Y-40868489I0J-82000D01*
G01*
X83397588Y-41524489D01*
G75*
G02*
X83315588Y-41606489I-82000J0D01*
G01*
G37*
%TD.AperFunction*%
%TD*%
%TO.P,D41,3*%
%TO.N,GND*%
%TA.AperFunction,SMDPad,CuDef*%
G36*
G01*
X59115589Y-52606488D02*
X57679589Y-52606488D01*
G75*
G02*
X57597589Y-52524488I0J82000D01*
G01*
X57597589Y-51868488D01*
G75*
G02*
X57679589Y-51786488I82000J0D01*
G01*
X59115589Y-51786488D01*
G75*
G02*
X59197589Y-51868488I0J-82000D01*
G01*
X59197589Y-52524488D01*
G75*
G02*
X59115589Y-52606488I-82000J0D01*
G01*
G37*
%TD.AperFunction*%
%TO.P,D41,4*%
%TO.N,Net-(D41-Pad4)*%
%TA.AperFunction,SMDPad,CuDef*%
G36*
G01*
X59115589Y-54106488D02*
X57679589Y-54106488D01*
G75*
G02*
X57597589Y-54024488I0J82000D01*
G01*
X57597589Y-53368488D01*
G75*
G02*
X57679589Y-53286488I82000J0D01*
G01*
X59115589Y-53286488D01*
G75*
G02*
X59197589Y-53368488I0J-82000D01*
G01*
X59197589Y-54024488D01*
G75*
G02*
X59115589Y-54106488I-82000J0D01*
G01*
G37*
%TD.AperFunction*%
%TO.P,D41,2*%
%TO.N,Net-(D41-Pad2)*%
%TA.AperFunction,SMDPad,CuDef*%
G36*
G01*
X64315589Y-52606488D02*
X62879589Y-52606488D01*
G75*
G02*
X62797589Y-52524488I0J82000D01*
G01*
X62797589Y-51868488D01*
G75*
G02*
X62879589Y-51786488I82000J0D01*
G01*
X64315589Y-51786488D01*
G75*
G02*
X64397589Y-51868488I0J-82000D01*
G01*
X64397589Y-52524488D01*
G75*
G02*
X64315589Y-52606488I-82000J0D01*
G01*
G37*
%TD.AperFunction*%
%TO.P,D41,1*%
%TO.N,+5V*%
%TA.AperFunction,SMDPad,CuDef*%
G36*
G01*
X64315589Y-54106488D02*
X62879589Y-54106488D01*
G75*
G02*
X62797589Y-54024488I0J82000D01*
G01*
X62797589Y-53368488D01*
G75*
G02*
X62879589Y-53286488I82000J0D01*
G01*
X64315589Y-53286488D01*
G75*
G02*
X64397589Y-53368488I0J-82000D01*
G01*
X64397589Y-54024488D01*
G75*
G02*
X64315589Y-54106488I-82000J0D01*
G01*
G37*
%TD.AperFunction*%
%TD*%
%TA.AperFunction,SMDPad,CuDef*%
D17*
%TO.P,D35,2*%
%TO.N,Net-(D35-Pad2)*%
G36*
X157620812Y-123163544D02*
G01*
X158031236Y-122035912D01*
X158876960Y-122343730D01*
X158466536Y-123471362D01*
X157620812Y-123163544D01*
G37*
%TD.AperFunction*%
%TA.AperFunction,SMDPad,CuDef*%
%TO.P,D35,1*%
%TO.N,row3*%
G36*
X154519826Y-122034878D02*
G01*
X154930250Y-120907246D01*
X155775974Y-121215064D01*
X155365550Y-122342696D01*
X154519826Y-122034878D01*
G37*
%TD.AperFunction*%
%TD*%
%TA.AperFunction,SMDPad,CuDef*%
%TO.P,D34,2*%
%TO.N,Net-(D30-Pad2)*%
G36*
X147083655Y-113326623D02*
G01*
X145901886Y-113118246D01*
X146058169Y-112231919D01*
X147239938Y-112440296D01*
X147083655Y-113326623D01*
G37*
%TD.AperFunction*%
%TA.AperFunction,SMDPad,CuDef*%
%TO.P,D34,1*%
%TO.N,row3*%
G36*
X146510617Y-116576489D02*
G01*
X145328848Y-116368112D01*
X145485131Y-115481785D01*
X146666900Y-115690162D01*
X146510617Y-116576489D01*
G37*
%TD.AperFunction*%
%TD*%
D18*
%TO.P,D25,2*%
%TO.N,Net-(D25-Pad2)*%
X139057093Y-94693804D03*
%TO.P,D25,1*%
%TO.N,row2*%
X135757093Y-94693804D03*
%TD*%
D21*
%TO.P,D24,2*%
%TO.N,Net-(D24-Pad2)*%
X126739093Y-86096904D03*
%TO.P,D24,1*%
%TO.N,row2*%
X126739093Y-89396904D03*
%TD*%
%TO.P,D23,2*%
%TO.N,Net-(D20-Pad2)*%
X107752593Y-81067704D03*
%TO.P,D23,1*%
%TO.N,row2*%
X107752593Y-84367704D03*
%TD*%
%TO.P,D22,2*%
%TO.N,Net-(D17-Pad2)*%
X88613693Y-86071504D03*
%TO.P,D22,1*%
%TO.N,row2*%
X88613693Y-89371504D03*
%TD*%
%TO.P,D21,2*%
%TO.N,Net-(D21-Pad2)*%
X69779593Y-98619104D03*
%TO.P,D21,1*%
%TO.N,row2*%
X69779593Y-101919104D03*
%TD*%
D18*
%TO.P,D15,2*%
%TO.N,Net-(D15-Pad2)*%
X138777693Y-75694604D03*
%TO.P,D15,1*%
%TO.N,row1*%
X135477693Y-75694604D03*
%TD*%
D21*
%TO.P,D14,2*%
%TO.N,Net-(D14-Pad2)*%
X126802593Y-67148504D03*
%TO.P,D14,1*%
%TO.N,row1*%
X126802593Y-70448504D03*
%TD*%
D18*
%TO.P,D13,2*%
%TO.N,Net-(D13-Pad2)*%
X100931693Y-68201604D03*
%TO.P,D13,1*%
%TO.N,row1*%
X97631693Y-68201604D03*
%TD*%
D21*
%TO.P,D12,2*%
%TO.N,Net-(D12-Pad2)*%
X88677193Y-67059604D03*
%TO.P,D12,1*%
%TO.N,row1*%
X88677193Y-70359604D03*
%TD*%
%TO.P,D11,2*%
%TO.N,Net-(D11-Pad2)*%
X69677993Y-79569104D03*
%TO.P,D11,1*%
%TO.N,row1*%
X69677993Y-82869104D03*
%TD*%
D18*
%TO.P,D5,2*%
%TO.N,Net-(D31-Pad2)*%
X138752293Y-56733504D03*
%TO.P,D5,1*%
%TO.N,row0*%
X135452293Y-56733504D03*
%TD*%
D21*
%TO.P,D4,2*%
%TO.N,Net-(D27-Pad2)*%
X126726393Y-48860504D03*
%TO.P,D4,1*%
%TO.N,row0*%
X126726393Y-52160504D03*
%TD*%
D18*
%TO.P,D3,2*%
%TO.N,Net-(D18-Pad2)*%
X100626893Y-49100804D03*
%TO.P,D3,1*%
%TO.N,row0*%
X97326893Y-49100804D03*
%TD*%
%TO.P,D2,2*%
%TO.N,Net-(D10-Pad2)*%
X82518693Y-54168104D03*
%TO.P,D2,1*%
%TO.N,row0*%
X85818693Y-54168104D03*
%TD*%
D21*
%TO.P,D1,2*%
%TO.N,Net-(D1-Pad2)*%
X69665293Y-60557204D03*
%TO.P,D1,1*%
%TO.N,row0*%
X69665293Y-63857204D03*
%TD*%
D24*
%TO.N,GND*%
X150145193Y-95102004D03*
X75558093Y-36685956D03*
X74542093Y-39702804D03*
X82619293Y-36731004D03*
X63645476Y-49179894D03*
X93680993Y-40007604D03*
X93706393Y-31828804D03*
X101529593Y-31866904D03*
X105009393Y-31981204D03*
X113277093Y-36743704D03*
X111981693Y-39829804D03*
X120566893Y-36756404D03*
X131831793Y-39296404D03*
X130803093Y-42369804D03*
X139540693Y-39334504D03*
X145750993Y-39461504D03*
X93680993Y-36108704D03*
X74272293Y-62016704D03*
X74224593Y-55717504D03*
X139134293Y-59057604D03*
X132025393Y-61165804D03*
X132025393Y-59057604D03*
X120630393Y-56009604D03*
X113483393Y-58740104D03*
X113483393Y-56009604D03*
X103790193Y-52339304D03*
X82631993Y-55717504D03*
X75726293Y-58689304D03*
X75726293Y-55717504D03*
X63594693Y-68455604D03*
X74272293Y-80952404D03*
X74272293Y-74513504D03*
X139642293Y-77739304D03*
X120744693Y-74894504D03*
X113356393Y-77675804D03*
X113378693Y-74894504D03*
X101707393Y-70233604D03*
X94687393Y-72621204D03*
X94874793Y-70233604D03*
X82809793Y-74513504D03*
X75726293Y-77713904D03*
X75726293Y-74513504D03*
X63823293Y-87353204D03*
X93134893Y-94909704D03*
X151250093Y-100358004D03*
X143909493Y-100358004D03*
X134244793Y-77726604D03*
X144620693Y-50675604D03*
X32759093Y-57101804D03*
X32378093Y-95074804D03*
X43693793Y-95074804D03*
X32339993Y-75796204D03*
X43960493Y-56416004D03*
X43554093Y-75542204D03*
X113111993Y-101564504D03*
X113353293Y-94909704D03*
X120833593Y-94909704D03*
X135336993Y-102618604D03*
X136556193Y-100358004D03*
X151275493Y-102910704D03*
X164331093Y-108727304D03*
X89921793Y-107343004D03*
X143909493Y-77967904D03*
X104932593Y-38358404D03*
X142742593Y-73588404D03*
%TO.N,+5V*%
X133736793Y-45252704D03*
X115220193Y-42738104D03*
X96322593Y-37772404D03*
X77259893Y-42788904D03*
X57955893Y-74272204D03*
X77297993Y-61813504D03*
X96360693Y-56733504D03*
X115321793Y-61750004D03*
X134333693Y-64201104D03*
X58400393Y-93246004D03*
X76447093Y-81371504D03*
X86740443Y-59203654D03*
X86852087Y-80466110D03*
X87407193Y-41366504D03*
X96322593Y-75859704D03*
X114851893Y-80876204D03*
X133774893Y-83251104D03*
X33267093Y-62321504D03*
X33228993Y-81181004D03*
X38118493Y-81181004D03*
X33101993Y-100319904D03*
X38181993Y-100319904D03*
X58171793Y-57000204D03*
X38207393Y-62308804D03*
X136137093Y-106568304D03*
X157384193Y-111965804D03*
X115245593Y-104777604D03*
X147282593Y-57688404D03*
X146852593Y-64218404D03*
%TO.N,Net-(D1-Pad2)*%
X69665293Y-60557204D03*
%TO.N,row0*%
X46881493Y-73688004D03*
X69665293Y-63870904D03*
X85818693Y-54168104D03*
X97326893Y-49100804D03*
X126726393Y-52160504D03*
X135452293Y-56733504D03*
X72979993Y-52885404D03*
X48849993Y-65547304D03*
%TO.N,Net-(D10-Pad2)*%
X82518693Y-54168104D03*
%TO.N,Net-(D11-Pad2)*%
X69677993Y-79569104D03*
%TO.N,row1*%
X46843393Y-92560204D03*
X69677993Y-82882804D03*
X71151193Y-72252904D03*
X88677193Y-70359604D03*
X97631693Y-68201604D03*
X126802593Y-70448504D03*
X135477693Y-75694604D03*
X91988793Y-68201604D03*
X48418193Y-85245004D03*
%TO.N,Net-(D12-Pad2)*%
X88677193Y-67059604D03*
%TO.N,Net-(D13-Pad2)*%
X100931693Y-68201604D03*
%TO.N,Net-(D14-Pad2)*%
X126802593Y-67148504D03*
%TO.N,Net-(D15-Pad2)*%
X138777693Y-75694604D03*
%TO.N,Net-(D17-Pad2)*%
X88613693Y-86071504D03*
%TO.N,Net-(D18-Pad2)*%
X100626893Y-49100804D03*
%TO.N,Net-(D20-Pad2)*%
X107752593Y-81067704D03*
%TO.N,Net-(D21-Pad2)*%
X69779593Y-98619104D03*
%TO.N,row2*%
X46856093Y-111673704D03*
X69779593Y-101932804D03*
X71062293Y-90693304D03*
X88613693Y-89371504D03*
X107752593Y-84367704D03*
X108197093Y-90464704D03*
X126739093Y-89396904D03*
X135757093Y-94693804D03*
X110646475Y-59488022D03*
X48240393Y-103317104D03*
X69779593Y-104015604D03*
X131292593Y-89408404D03*
X133687193Y-94693804D03*
%TO.N,Net-(D24-Pad2)*%
X126739093Y-86096904D03*
%TO.N,Net-(D25-Pad2)*%
X139057093Y-94693804D03*
%TO.N,Net-(D26-Pad2)*%
X126726393Y-110060804D03*
%TO.N,Net-(D27-Pad2)*%
X126726393Y-48860504D03*
%TO.N,Net-(D30-Pad2)*%
X146563793Y-112778604D03*
%TO.N,Net-(D31-Pad2)*%
X138752293Y-56733504D03*
%TO.N,row3*%
X126739093Y-113362804D03*
X145992293Y-116029804D03*
X155148993Y-121617804D03*
X79322593Y-97568404D03*
X73373693Y-66372804D03*
X72062593Y-97578404D03*
X77982593Y-115808404D03*
%TO.N,Net-(D35-Pad2)*%
X158247793Y-122773504D03*
%TO.N,Net-(D37-Pad2)*%
X79322593Y-100868404D03*
X84651293Y-102364604D03*
X91801393Y-102364604D03*
%TO.N,Net-(D38-Pad2)*%
X57113050Y-65479161D03*
X56914493Y-67655504D03*
X65410793Y-67665104D03*
X55403193Y-63680404D03*
%TO.N,Net-(D39-Pad2)*%
X117683993Y-69446204D03*
X118712693Y-68265104D03*
%TO.N,Net-(D40-Pad2)*%
X59175093Y-69408104D03*
X67303093Y-69471604D03*
%TO.N,led*%
X85044993Y-37521504D03*
X71976693Y-43906504D03*
X72725993Y-45633704D03*
X35641993Y-101310504D03*
X35667393Y-99011804D03*
X48265793Y-102148704D03*
X43693793Y-101755004D03*
X65131393Y-56352504D03*
X66718893Y-107406504D03*
X56063593Y-107724004D03*
%TO.N,Net-(D41-Pad2)*%
X62680293Y-50154904D03*
X56241393Y-51399504D03*
X56266793Y-53660104D03*
X56879493Y-72646604D03*
%TO.N,Net-(D42-Pad2)*%
X66299793Y-70970204D03*
X57244693Y-93080904D03*
%TO.N,Net-(D45-Pad2)*%
X81171493Y-75478704D03*
X80765093Y-70868604D03*
X79787193Y-69344604D03*
X75748593Y-61369004D03*
%TO.N,Net-(D46-Pad2)*%
X81450893Y-56619204D03*
X75418393Y-41696704D03*
X79507793Y-49913604D03*
X80447593Y-51488404D03*
%TO.N,Net-(D47-Pad2)*%
X84638593Y-39956804D03*
X85375193Y-43296904D03*
X95636793Y-39410704D03*
X94773193Y-37645404D03*
%TO.N,Net-(D48-Pad2)*%
X103320293Y-36502404D03*
X94950993Y-55943004D03*
%TO.N,Net-(D49-Pad2)*%
X104310893Y-55031704D03*
X93465093Y-74196004D03*
%TO.N,Net-(D50-Pad2)*%
X109657593Y-74348404D03*
X109924293Y-76291504D03*
%TO.N,Net-(D51-Pad2)*%
X119601693Y-75796204D03*
X113658093Y-59946604D03*
%TO.N,Net-(D52-Pad2)*%
X119436593Y-56800104D03*
X118712693Y-51742404D03*
X117693593Y-50307304D03*
X113480293Y-41150604D03*
%TO.N,Net-(D54-Pad2)*%
X141648893Y-44198604D03*
X132187393Y-63324804D03*
%TO.N,Net-(D55-Pad2)*%
X141953693Y-61724604D03*
X132101593Y-81536604D03*
%TO.N,Net-(D56-Pad2)*%
X143071293Y-80584104D03*
X111676893Y-103126604D03*
X111852593Y-93088404D03*
X143032593Y-96658404D03*
%TO.N,Net-(D58-Pad2)*%
X60330793Y-86413404D03*
X67988893Y-86108604D03*
X68509593Y-90604404D03*
X77501193Y-81676304D03*
%TO.N,Net-(D61-Pad2)*%
X115766293Y-37534204D03*
X142080693Y-40134604D03*
%TO.N,Net-(D62-Pad2)*%
X142931593Y-43157204D03*
X132771593Y-40998204D03*
%TO.N,Net-(D64-Pad2)*%
X136606993Y-72570404D03*
X137318193Y-74805604D03*
%TO.N,Net-(D66-Pad2)*%
X132647693Y-80177704D03*
X130647593Y-80355504D03*
X129063193Y-81231804D03*
X124224493Y-81231804D03*
%TO.N,Net-(D67-Pad2)*%
X77932993Y-37930466D03*
X86213393Y-37683504D03*
X86213393Y-44185904D03*
X96933102Y-38564415D03*
%TO.N,Net-(D68-Pad2)*%
X115499593Y-95900304D03*
X145331893Y-101869304D03*
X133000193Y-99926204D03*
X132631893Y-98326004D03*
%TO.N,Net-(D69-Pad2)*%
X96386093Y-32619304D03*
X104069593Y-32717804D03*
%TO.N,Net-(D70-Pad2)*%
X100665993Y-50713704D03*
X111397493Y-49075404D03*
X111054425Y-74958172D03*
X103536193Y-74323004D03*
%TO.N,Net-(D71-Pad2)*%
X138092893Y-101148504D03*
X167544193Y-108930504D03*
%TO.N,RESET*%
X150068993Y-91279304D03*
X110470393Y-44058904D03*
X145700193Y-48592804D03*
%TO.N,col0*%
X105288793Y-51539204D03*
X104628393Y-91950604D03*
X72865693Y-91544204D03*
X72992693Y-104752204D03*
%TO.N,col1*%
X103739393Y-47856204D03*
X103764793Y-45138404D03*
%TO.N,col2*%
X76241593Y-99431404D03*
X82364793Y-99431404D03*
%TO.N,col3*%
X107041393Y-93728604D03*
X96576593Y-93728604D03*
X99573793Y-46637004D03*
X107012593Y-101118404D03*
X114042593Y-105818404D03*
%TO.N,col4*%
X112756393Y-53307681D03*
X125659593Y-108168504D03*
X125659593Y-93931804D03*
X120643093Y-93791994D03*
X108852593Y-52288404D03*
%TO.N,sda*%
X85768893Y-45506704D03*
X86137193Y-81295304D03*
X145065193Y-83759104D03*
X150782593Y-57138404D03*
X144932593Y-56598404D03*
X145092593Y-65948404D03*
%TO.N,scl*%
X88197693Y-47640304D03*
X88283493Y-65775904D03*
X151692593Y-56038404D03*
X142627593Y-68293404D03*
X144942593Y-55548404D03*
%TO.N,ENC1B*%
X87305593Y-104828404D03*
X93922293Y-83721004D03*
X91407693Y-83225704D03*
%TO.N,ENC1A*%
X92131593Y-109921104D03*
X97719593Y-89334404D03*
X94341393Y-89194704D03*
%TO.N,data*%
X112146793Y-45481304D03*
X112235693Y-50713704D03*
X143515793Y-54993604D03*
X144493693Y-46433804D03*
X95903493Y-41150604D03*
%TO.N,Net-(D39-Pad4)*%
X96424193Y-71024104D03*
X107930393Y-71846504D03*
X109105311Y-70773186D03*
X122738593Y-74104004D03*
%TO.N,Net-(D38-Pad4)*%
X59898993Y-65864804D03*
X47770493Y-66372804D03*
X46995793Y-57343104D03*
X39655193Y-57279604D03*
X53409293Y-66830004D03*
%TO.N,Net-(D41-Pad4)*%
X53320393Y-54765004D03*
X48202293Y-59248104D03*
X56152493Y-106187304D03*
%TO.N,Net-(D75-Pad2)*%
X36391293Y-79784004D03*
X40417193Y-87670704D03*
X41420493Y-89423304D03*
X42207893Y-94211204D03*
%TO.N,Net-(D76-Pad2)*%
X40633093Y-70436804D03*
X41610993Y-68709604D03*
%TO.N,Net-(D77-Pad2)*%
X36454793Y-61267404D03*
X42461893Y-76418504D03*
%TO.N,Net-(D80-Pad2)*%
X43579493Y-73700704D03*
%TO.N,Net-(D83-Pad2)*%
X43541393Y-92572904D03*
%TO.N,Net-(D85-Pad2)*%
X43541393Y-111673704D03*
%TO.N,col5*%
X109919475Y-60975304D03*
X109919475Y-70109704D03*
X131571726Y-74202071D03*
X134498793Y-97805304D03*
X150221393Y-99481704D03*
X150208693Y-115293204D03*
%TO.N,B-*%
X102852593Y-98178404D03*
X106102593Y-98178404D03*
%TO.N,Net-(J4-Pad1)*%
X108022593Y-109808404D03*
X109222593Y-91258404D03*
X144872593Y-92268404D03*
X145902593Y-79568404D03*
%TO.N,B+*%
X126702593Y-75158404D03*
X124002593Y-54358404D03*
X110602593Y-53148404D03*
%TO.N,Net-(J5-Pad1)*%
X108822593Y-114148404D03*
X109312593Y-92448404D03*
X145832593Y-93098404D03*
X146972593Y-84058404D03*
%TD*%
D25*
%TO.N,GND*%
X151517993Y-96474804D02*
X150145193Y-95102004D01*
X151893593Y-96474804D02*
X151517993Y-96474804D01*
X58397589Y-52196488D02*
X58397589Y-49865608D01*
X58397589Y-49865608D02*
X59098893Y-49164304D01*
X59098893Y-49164304D02*
X70782893Y-49164304D01*
X70782893Y-49164304D02*
X71138493Y-48808704D01*
X71138493Y-48808704D02*
X71138493Y-38089904D01*
X72542441Y-36685956D02*
X75558093Y-36685956D01*
X71138493Y-38089904D02*
X72542441Y-36685956D01*
X77391273Y-39702804D02*
X77397588Y-39696489D01*
X74542093Y-39702804D02*
X77391273Y-39702804D01*
X82574245Y-36685956D02*
X82619293Y-36731004D01*
X75558093Y-36685956D02*
X82574245Y-36685956D01*
X93630193Y-40058404D02*
X93680993Y-40007604D01*
X101491493Y-31828804D02*
X101529593Y-31866904D01*
X93706393Y-31828804D02*
X101491493Y-31828804D01*
X104895093Y-31866904D02*
X105009393Y-31981204D01*
X101529593Y-31866904D02*
X104895093Y-31866904D01*
X115264271Y-39829804D02*
X115397586Y-39696489D01*
X111981693Y-39829804D02*
X115264271Y-39829804D01*
X120554193Y-36743704D02*
X120566893Y-36756404D01*
X113277093Y-36743704D02*
X120554193Y-36743704D01*
X120566893Y-36756404D02*
X125608793Y-36756404D01*
X125608793Y-36756404D02*
X126789893Y-37937504D01*
X126789893Y-37937504D02*
X126789893Y-38686804D01*
X127399493Y-39296404D02*
X131831793Y-39296404D01*
X126789893Y-38686804D02*
X127399493Y-39296404D01*
X130803093Y-42369804D02*
X132796993Y-42369804D01*
X132970307Y-42196490D02*
X134397585Y-42196490D01*
X132796993Y-42369804D02*
X132970307Y-42196490D01*
X139502593Y-39296404D02*
X139540693Y-39334504D01*
X131831793Y-39296404D02*
X139502593Y-39296404D01*
X145623993Y-39334504D02*
X145750993Y-39461504D01*
X139540693Y-39334504D02*
X145623993Y-39334504D01*
X93538094Y-36251603D02*
X93680993Y-36108704D01*
X90413894Y-36251603D02*
X93538094Y-36251603D01*
X89934493Y-36731004D02*
X90413894Y-36251603D01*
X82619293Y-36731004D02*
X89934493Y-36731004D01*
X91420393Y-40007604D02*
X91369593Y-40058404D01*
X93680993Y-40007604D02*
X91420393Y-40007604D01*
X58397589Y-71196487D02*
X58397589Y-70649900D01*
X58397589Y-70649900D02*
X58146393Y-70398704D01*
X58146393Y-70398704D02*
X58146393Y-69039804D01*
X58146393Y-69039804D02*
X58730593Y-68455604D01*
X74272293Y-62134104D02*
X74272293Y-62016704D01*
X67950793Y-68455604D02*
X74272293Y-62134104D01*
X89607492Y-54025205D02*
X92414192Y-54025205D01*
X87915193Y-55717504D02*
X89607492Y-54025205D01*
X92414192Y-54025205D02*
X94354093Y-52085304D01*
X100894593Y-52085304D02*
X103536193Y-52085304D01*
X105476094Y-54025205D02*
X107616092Y-54025205D01*
X107616092Y-54025205D02*
X107619291Y-54028404D01*
X107619291Y-54028404D02*
X110063993Y-54028404D01*
X110063993Y-54028404D02*
X112045193Y-56009604D01*
X132056078Y-61196489D02*
X132025393Y-61165804D01*
X134397585Y-61196489D02*
X132056078Y-61196489D01*
X112045193Y-56009604D02*
X120630393Y-56009604D01*
X113527009Y-58696488D02*
X113483393Y-58740104D01*
X115397586Y-58696488D02*
X113527009Y-58696488D01*
X103790193Y-52339304D02*
X105476094Y-54025205D01*
X103536193Y-52085304D02*
X103790193Y-52339304D01*
X96397587Y-52442110D02*
X96754393Y-52085304D01*
X96397587Y-53696488D02*
X96397587Y-52442110D01*
X96754393Y-52085304D02*
X100894593Y-52085304D01*
X94354093Y-52085304D02*
X96754393Y-52085304D01*
X82631993Y-55717504D02*
X87915193Y-55717504D01*
X74224593Y-55717504D02*
X82631993Y-55717504D01*
X75733477Y-58696488D02*
X75726293Y-58689304D01*
X77397588Y-58696488D02*
X75733477Y-58696488D01*
X63594693Y-68455604D02*
X67950793Y-68455604D01*
X58730593Y-68455604D02*
X63594693Y-68455604D01*
X58397588Y-90196486D02*
X58397588Y-89814199D01*
X58397588Y-89814199D02*
X57930493Y-89347104D01*
X57930493Y-89347104D02*
X57930493Y-88191404D01*
X57930493Y-88191404D02*
X58768693Y-87353204D01*
X74272293Y-81120604D02*
X74272293Y-80952404D01*
X68039693Y-87353204D02*
X74272293Y-81120604D01*
X89959893Y-74513504D02*
X94239793Y-70233604D01*
X107447793Y-70233604D02*
X112108693Y-74894504D01*
X124846793Y-74894504D02*
X127678893Y-77726604D01*
X139629593Y-77726604D02*
X139642293Y-77739304D01*
X120744693Y-74894504D02*
X124846793Y-74894504D01*
X113377077Y-77696488D02*
X113356393Y-77675804D01*
X115397586Y-77696488D02*
X113377077Y-77696488D01*
X113378693Y-74894504D02*
X120744693Y-74894504D01*
X112108693Y-74894504D02*
X113378693Y-74894504D01*
X101707393Y-70233604D02*
X107447793Y-70233604D01*
X94762677Y-72696488D02*
X94687393Y-72621204D01*
X96397586Y-72696488D02*
X94762677Y-72696488D01*
X94874793Y-70233604D02*
X101707393Y-70233604D01*
X94239793Y-70233604D02*
X94874793Y-70233604D01*
X82809793Y-74513504D02*
X89959893Y-74513504D01*
X74272293Y-74513504D02*
X82809793Y-74513504D01*
X75743710Y-77696487D02*
X75726293Y-77713904D01*
X77397587Y-77696487D02*
X75743710Y-77696487D01*
X63823293Y-87353204D02*
X68039693Y-87353204D01*
X58768693Y-87353204D02*
X63823293Y-87353204D01*
X131615893Y-96179704D02*
X135794193Y-100358004D01*
X151758093Y-100358004D02*
X152253393Y-99862704D01*
X124465793Y-94909704D02*
X125735793Y-96179704D01*
X151250093Y-100358004D02*
X151758093Y-100358004D01*
X143909493Y-100358004D02*
X151250093Y-100358004D01*
X130561793Y-96179704D02*
X131615893Y-96179704D01*
X125735793Y-96179704D02*
X130561793Y-96179704D01*
X93134893Y-94909704D02*
X107752593Y-94909704D01*
X95093208Y-34696489D02*
X93680993Y-36108704D01*
X96397587Y-34696489D02*
X95093208Y-34696489D01*
X134397585Y-77879396D02*
X134244793Y-77726604D01*
X134397585Y-80196488D02*
X134397585Y-77879396D01*
X134244793Y-77726604D02*
X139629593Y-77726604D01*
X127678893Y-77726604D02*
X134244793Y-77726604D01*
D26*
X147276771Y-50412394D02*
X147743593Y-50412394D01*
D25*
X147743593Y-50639404D02*
X152343593Y-50639404D01*
X147707393Y-50675604D02*
X147743593Y-50639404D01*
X144620693Y-50675604D02*
X147707393Y-50675604D01*
X124211793Y-56009604D02*
X120630393Y-56009604D01*
X127259793Y-59057604D02*
X124211793Y-56009604D01*
X139134293Y-59057604D02*
X127259793Y-59057604D01*
X147743593Y-50639404D02*
X147743593Y-51739404D01*
X152343593Y-50639404D02*
X152343593Y-51739404D01*
X59098893Y-49164304D02*
X53866493Y-49164304D01*
X53866493Y-49164304D02*
X52405993Y-50624804D01*
X52405993Y-50624804D02*
X52405993Y-62588204D01*
X52405993Y-62588204D02*
X51770993Y-63223204D01*
X51770993Y-63223204D02*
X50119993Y-63223204D01*
X50119993Y-63223204D02*
X49434193Y-62537404D01*
X49434193Y-62537404D02*
X49434193Y-57178004D01*
X49434193Y-57178004D02*
X48672193Y-56416004D01*
X38397589Y-57114808D02*
X38397589Y-59196488D01*
X39096393Y-56416004D02*
X38397589Y-57114808D01*
X39096393Y-56416004D02*
X33444893Y-56416004D01*
X33444893Y-56416004D02*
X32759093Y-57101804D01*
X32454293Y-75910504D02*
X32339993Y-75796204D01*
X38397589Y-78196487D02*
X38397589Y-76456908D01*
X38943993Y-75910504D02*
X32454293Y-75910504D01*
X38397589Y-76456908D02*
X38943993Y-75910504D01*
X38397588Y-95418009D02*
X38740793Y-95074804D01*
X38397588Y-97196486D02*
X38397588Y-95418009D01*
X38740793Y-95074804D02*
X43693793Y-95074804D01*
X32378093Y-95074804D02*
X38740793Y-95074804D01*
X43960493Y-56416004D02*
X39096393Y-56416004D01*
X48672193Y-56416004D02*
X43960493Y-56416004D01*
X38943993Y-75910504D02*
X39363093Y-75910504D01*
X39363093Y-75910504D02*
X40036193Y-75910504D01*
X40404493Y-75542204D02*
X43554093Y-75542204D01*
X40036193Y-75910504D02*
X40404493Y-75542204D01*
X113243977Y-101696488D02*
X113111993Y-101564504D01*
X115397586Y-101696488D02*
X113243977Y-101696488D01*
X107752593Y-94909704D02*
X113353293Y-94909704D01*
X120833593Y-94909704D02*
X124465793Y-94909704D01*
X113353293Y-94909704D02*
X120833593Y-94909704D01*
X135882233Y-103163844D02*
X135336993Y-102618604D01*
X137369543Y-103163844D02*
X135882233Y-103163844D01*
X136556193Y-100358004D02*
X143909493Y-100358004D01*
X135794193Y-100358004D02*
X136556193Y-100358004D01*
X158752892Y-108424297D02*
X158478186Y-108424297D01*
X152520093Y-104155304D02*
X151275493Y-102910704D01*
X154209193Y-104155304D02*
X152520093Y-104155304D01*
X156990493Y-106936604D02*
X160609993Y-106936604D01*
X158478186Y-108424297D02*
X156990493Y-106936604D01*
X156990493Y-106936604D02*
X154209193Y-104155304D01*
X160609993Y-106936604D02*
X161168793Y-107495404D01*
X161168793Y-107495404D02*
X162883293Y-107495404D01*
X164115193Y-108727304D02*
X164331093Y-108727304D01*
X162883293Y-107495404D02*
X164115193Y-108727304D01*
X96698190Y-107343004D02*
X97011926Y-107029268D01*
X89921793Y-107343004D02*
X96698190Y-107343004D01*
X143680893Y-77739304D02*
X143909493Y-77967904D01*
X139642293Y-77739304D02*
X143680893Y-77739304D01*
X111981693Y-39829804D02*
X108703993Y-39829804D01*
X108703993Y-39829804D02*
X107665792Y-38791603D01*
X105365792Y-38791603D02*
X104932593Y-38358404D01*
X107665792Y-38791603D02*
X105365792Y-38791603D01*
X139593493Y-58598404D02*
X139134293Y-59057604D01*
X149187593Y-58598404D02*
X139593493Y-58598404D01*
X142755593Y-73601404D02*
X142742593Y-73588404D01*
X151579593Y-73601404D02*
X142755593Y-73601404D01*
X152253393Y-96834604D02*
X151893593Y-96474804D01*
X152253393Y-99862704D02*
X152253393Y-96834604D01*
%TO.N,+5V*%
X63597589Y-55079608D02*
X63597589Y-53696488D01*
X63226393Y-55450804D02*
X63597589Y-55079608D01*
X63597589Y-55079608D02*
X65896289Y-55079608D01*
X65896289Y-55079608D02*
X71875093Y-49100804D01*
X71875093Y-49100804D02*
X71875093Y-45240004D01*
X71875093Y-45240004D02*
X74326193Y-42788904D01*
X82597588Y-42264509D02*
X82597588Y-41196489D01*
X82073193Y-42788904D02*
X82597588Y-42264509D01*
X82597588Y-42264509D02*
X86509188Y-42264509D01*
X89988492Y-38785205D02*
X91977658Y-38785205D01*
X91977658Y-38785205D02*
X91980857Y-38788404D01*
X91980857Y-38788404D02*
X94925593Y-38788404D01*
X94925593Y-38788404D02*
X95941593Y-37772404D01*
X101597587Y-37145610D02*
X101597587Y-36196489D01*
X100970793Y-37772404D02*
X101597587Y-37145610D01*
X100970793Y-37772404D02*
X101300993Y-37772404D01*
X106609593Y-42598404D02*
X113734293Y-42598404D01*
X113734293Y-42598404D02*
X113873993Y-42738104D01*
X120597586Y-42199411D02*
X120597586Y-41196489D01*
X120058893Y-42738104D02*
X120597586Y-42199411D01*
X120058893Y-42738104D02*
X127869393Y-42738104D01*
X127869393Y-42738104D02*
X130383993Y-45252704D01*
X139597585Y-44713212D02*
X139597585Y-43696490D01*
X139058093Y-45252704D02*
X139597585Y-44713212D01*
X139058093Y-45252704D02*
X142982393Y-45252704D01*
X144595693Y-43639404D02*
X147743593Y-43639404D01*
X142982393Y-45252704D02*
X144595693Y-43639404D01*
X133736793Y-45252704D02*
X139058093Y-45252704D01*
X130383993Y-45252704D02*
X133736793Y-45252704D01*
X115220193Y-42738104D02*
X120058893Y-42738104D01*
X113873993Y-42738104D02*
X115220193Y-42738104D01*
X96322593Y-37772404D02*
X100970793Y-37772404D01*
X95941593Y-37772404D02*
X96322593Y-37772404D01*
X77259893Y-42788904D02*
X82073193Y-42788904D01*
X74326193Y-42788904D02*
X77259893Y-42788904D01*
X57955893Y-74272204D02*
X62959693Y-74272204D01*
X63597589Y-73634308D02*
X63597589Y-72696487D01*
X62959693Y-74272204D02*
X63597589Y-73634308D01*
X63597589Y-73634308D02*
X64969189Y-73634308D01*
X64969189Y-73634308D02*
X76789993Y-61813504D01*
X82597588Y-61289109D02*
X82597588Y-60196488D01*
X82073193Y-61813504D02*
X82597588Y-61289109D01*
X82597588Y-61289109D02*
X84654988Y-61289109D01*
X89372494Y-56571603D02*
X92287192Y-56571603D01*
X84654988Y-61289109D02*
X86740443Y-59203654D01*
X92287192Y-56571603D02*
X92290391Y-56568404D01*
X92290391Y-56568404D02*
X94354093Y-56568404D01*
X94354093Y-56568404D02*
X94519193Y-56733504D01*
X101597587Y-56094010D02*
X101597587Y-55196488D01*
X100958093Y-56733504D02*
X101597587Y-56094010D01*
X101597587Y-56094010D02*
X104560399Y-56094010D01*
X105031594Y-56565205D02*
X107628792Y-56565205D01*
X104560399Y-56094010D02*
X105031594Y-56565205D01*
X107628792Y-56565205D02*
X107631991Y-56568404D01*
X107631991Y-56568404D02*
X108844793Y-56568404D01*
X108844793Y-56568404D02*
X114026393Y-61750004D01*
X120597586Y-61236711D02*
X120597586Y-60196488D01*
X120084293Y-61750004D02*
X120597586Y-61236711D01*
X139597585Y-63483812D02*
X139597585Y-62696489D01*
X138880293Y-64201104D02*
X139597585Y-63483812D01*
X77297993Y-61813504D02*
X82073193Y-61813504D01*
X76789993Y-61813504D02*
X77297993Y-61813504D01*
X96360693Y-56733504D02*
X100958093Y-56733504D01*
X94519193Y-56733504D02*
X96360693Y-56733504D01*
X115321793Y-61750004D02*
X120084293Y-61750004D01*
X114026393Y-61750004D02*
X115321793Y-61750004D01*
X134333693Y-64201104D02*
X138880293Y-64201104D01*
X82597587Y-80466110D02*
X82597587Y-79196487D01*
X82289093Y-80774604D02*
X82597587Y-80466110D01*
X88249087Y-80466110D02*
X92855493Y-75859704D01*
X101597586Y-75563111D02*
X101597586Y-74196488D01*
X101300993Y-75859704D02*
X101597586Y-75563111D01*
X101597586Y-75563111D02*
X107862400Y-75563111D01*
X107862400Y-75563111D02*
X113175493Y-80876204D01*
X120597586Y-80388311D02*
X120597586Y-79196488D01*
X120109693Y-80876204D02*
X120597586Y-80388311D01*
X120597586Y-80388311D02*
X129553200Y-80388311D01*
X129553200Y-80388311D02*
X132415993Y-83251104D01*
X139597585Y-82775112D02*
X139597585Y-81696488D01*
X139121593Y-83251104D02*
X139597585Y-82775112D01*
X58400393Y-93246004D02*
X63099393Y-93246004D01*
X63597588Y-92747809D02*
X63597588Y-91696486D01*
X63099393Y-93246004D02*
X63597588Y-92747809D01*
X63597588Y-92747809D02*
X65070788Y-92747809D01*
X77043993Y-80774604D02*
X82289093Y-80774604D01*
X76447093Y-81371504D02*
X77043993Y-80774604D01*
X66337893Y-91480704D02*
X76447093Y-81371504D01*
X86740443Y-59203654D02*
X89372494Y-56571603D01*
X86852087Y-80466110D02*
X88249087Y-80466110D01*
X82597587Y-80466110D02*
X86852087Y-80466110D01*
X87407193Y-41366504D02*
X89988492Y-38785205D01*
X86509188Y-42264509D02*
X87407193Y-41366504D01*
X96322593Y-75859704D02*
X101300993Y-75859704D01*
X92855493Y-75859704D02*
X96322593Y-75859704D01*
X114851893Y-80876204D02*
X120109693Y-80876204D01*
X113175493Y-80876204D02*
X114851893Y-80876204D01*
X147743593Y-43639404D02*
X152343593Y-43639404D01*
X106609593Y-42598404D02*
X106419093Y-42598404D01*
X101593093Y-37772404D02*
X101300993Y-37772404D01*
X106419093Y-42598404D02*
X101593093Y-37772404D01*
X133774893Y-83251104D02*
X139121593Y-83251104D01*
X132415993Y-83251104D02*
X133774893Y-83251104D01*
X123203200Y-61236711D02*
X120597586Y-61236711D01*
X126167593Y-64201104D02*
X123203200Y-61236711D01*
X134333693Y-64201104D02*
X126167593Y-64201104D01*
X65070788Y-92747809D02*
X65385393Y-92433204D01*
X65385393Y-92433204D02*
X66337893Y-91480704D01*
X63226393Y-55450804D02*
X59721193Y-55450804D01*
X59721193Y-55450804D02*
X58171793Y-57000204D01*
X58171793Y-57000204D02*
X53637893Y-57000204D01*
X53637893Y-57000204D02*
X53066393Y-57571704D01*
X53066393Y-57571704D02*
X53066393Y-63083504D01*
X53066393Y-63083504D02*
X52113893Y-64036004D01*
X52113893Y-64036004D02*
X49523093Y-64036004D01*
X49523093Y-64036004D02*
X47795893Y-62308804D01*
X33279793Y-62308804D02*
X33267093Y-62321504D01*
X43597589Y-80680308D02*
X43597589Y-79696487D01*
X43096893Y-81181004D02*
X43597589Y-80680308D01*
X38118493Y-81181004D02*
X43096893Y-81181004D01*
X33228993Y-81181004D02*
X38118493Y-81181004D01*
X43597588Y-99920809D02*
X43597588Y-98696486D01*
X43198493Y-100319904D02*
X43597588Y-99920809D01*
X38181993Y-100319904D02*
X43198493Y-100319904D01*
X33101993Y-100319904D02*
X38181993Y-100319904D01*
X43597589Y-60696488D02*
X44163693Y-61262592D01*
X44163693Y-62169104D02*
X44023993Y-62308804D01*
X44163693Y-61262592D02*
X44163693Y-62169104D01*
X47795893Y-62308804D02*
X44023993Y-62308804D01*
X38207393Y-62308804D02*
X33279793Y-62308804D01*
X44023993Y-62308804D02*
X38207393Y-62308804D01*
X120597586Y-104238911D02*
X120597586Y-103196488D01*
X92550693Y-95532004D02*
X92587251Y-95532004D01*
X120058893Y-104777604D02*
X120597586Y-104238911D01*
X89451893Y-92433204D02*
X92550693Y-95532004D01*
X65385393Y-92433204D02*
X89451893Y-92433204D01*
X120597586Y-104238911D02*
X133185400Y-104238911D01*
X133185400Y-104238911D02*
X135514793Y-106568304D01*
X140328093Y-106568304D02*
X140988493Y-107228704D01*
X144506393Y-107228704D02*
X146525693Y-109248004D01*
X146525693Y-109248004D02*
X153155093Y-109248004D01*
X153155093Y-109248004D02*
X155872893Y-111965804D01*
X160190893Y-111965804D02*
X160902093Y-112677004D01*
X160902093Y-112677004D02*
X162680093Y-112677004D01*
X163126264Y-112230833D02*
X163126264Y-111612340D01*
X162680093Y-112677004D02*
X163126264Y-112230833D01*
X142230071Y-106698326D02*
X141699693Y-107228704D01*
X142230071Y-105544026D02*
X142230071Y-106698326D01*
X141699693Y-107228704D02*
X144506393Y-107228704D01*
X140988493Y-107228704D02*
X141699693Y-107228704D01*
X136137093Y-106568304D02*
X140328093Y-106568304D01*
X135514793Y-106568304D02*
X136137093Y-106568304D01*
X157384193Y-111965804D02*
X160190893Y-111965804D01*
X155872893Y-111965804D02*
X157384193Y-111965804D01*
X115245593Y-104777604D02*
X120058893Y-104777604D01*
X138880293Y-64201104D02*
X144089293Y-64201104D01*
X96333122Y-99277875D02*
X106512064Y-99277875D01*
X92587251Y-95532004D02*
X96333122Y-99277875D01*
X106512064Y-99277875D02*
X110322593Y-103088404D01*
X110322593Y-103088404D02*
X110322593Y-103458404D01*
X111641793Y-104777604D02*
X115245593Y-104777604D01*
X110322593Y-103458404D02*
X111641793Y-104777604D01*
X149187593Y-57598404D02*
X147372593Y-57598404D01*
X147372593Y-57598404D02*
X147282593Y-57688404D01*
X146835293Y-64201104D02*
X146852593Y-64218404D01*
X144089293Y-64201104D02*
X146835293Y-64201104D01*
X146852593Y-64218404D02*
X148302593Y-64218404D01*
X149079593Y-63441404D02*
X151579593Y-63441404D01*
X148302593Y-64218404D02*
X149079593Y-63441404D01*
D26*
%TO.N,Net-(D1-Pad2)*%
X69656010Y-60566487D02*
X69665293Y-60557204D01*
X58457589Y-63106487D02*
X63537589Y-63106487D01*
X63537589Y-63106487D02*
X65121110Y-63106487D01*
X67670393Y-60557204D02*
X69665293Y-60557204D01*
X65121110Y-63106487D02*
X67670393Y-60557204D01*
%TO.N,row0*%
X84535993Y-52885404D02*
X85818693Y-54168104D01*
X85818693Y-54168104D02*
X86619793Y-54168104D01*
X86619793Y-54168104D02*
X89299493Y-51488404D01*
X94939293Y-51488404D02*
X97326893Y-49100804D01*
X89299493Y-51488404D02*
X94939293Y-51488404D01*
X126726393Y-52160504D02*
X128681193Y-52160504D01*
X133254193Y-56733504D02*
X135452293Y-56733504D01*
X128681193Y-52160504D02*
X133254193Y-56733504D01*
X126064993Y-52821904D02*
X126726393Y-52160504D01*
X112540493Y-51501104D02*
X114559793Y-53520404D01*
X125366493Y-53520404D02*
X126064993Y-52821904D01*
X97541793Y-49100804D02*
X99942093Y-51501104D01*
X114559793Y-53520404D02*
X125366493Y-53520404D01*
X97326893Y-49100804D02*
X97541793Y-49100804D01*
X99942093Y-51501104D02*
X102939293Y-51501104D01*
X104221993Y-50218404D02*
X106609593Y-50218404D01*
X102939293Y-51501104D02*
X104221993Y-50218404D01*
X106609593Y-50218404D02*
X109721093Y-50218404D01*
X111003793Y-51501104D02*
X112540493Y-51501104D01*
X109721093Y-50218404D02*
X111003793Y-51501104D01*
X72979993Y-52885404D02*
X84535993Y-52885404D01*
X48849993Y-65547304D02*
X53904593Y-65547304D01*
X54563451Y-66206162D02*
X58363835Y-66206162D01*
X53904593Y-65547304D02*
X54563451Y-66206162D01*
X58363835Y-66206162D02*
X59517993Y-65052004D01*
X68470493Y-65052004D02*
X69665293Y-63857204D01*
X59517993Y-65052004D02*
X68470493Y-65052004D01*
%TO.N,Net-(D10-Pad2)*%
X77457588Y-50606488D02*
X77457588Y-50185809D01*
X77457588Y-50185809D02*
X78618793Y-49024604D01*
X78618793Y-49024604D02*
X81539793Y-49024604D01*
X82537588Y-50022399D02*
X82537588Y-50606488D01*
X81539793Y-49024604D02*
X82537588Y-50022399D01*
%TO.N,Net-(D11-Pad2)*%
X69675375Y-79566486D02*
X69677993Y-79569104D01*
X58457589Y-82106486D02*
X63537589Y-82106486D01*
X63537589Y-82106486D02*
X65247311Y-82106486D01*
X67784693Y-79569104D02*
X69677993Y-79569104D01*
X65247311Y-82106486D02*
X67784693Y-79569104D01*
%TO.N,row1*%
X86783893Y-72252904D02*
X88677193Y-70359604D01*
X88677193Y-70359604D02*
X89275093Y-70359604D01*
X91433093Y-68201604D02*
X97631693Y-68201604D01*
X89275093Y-70359604D02*
X91433093Y-68201604D01*
X97631693Y-68201604D02*
X97935493Y-68201604D01*
X97935493Y-68201604D02*
X99116593Y-69382704D01*
X99116593Y-69382704D02*
X111321293Y-69382704D01*
X111321293Y-69382704D02*
X113619993Y-71681404D01*
X125569693Y-71681404D02*
X126802593Y-70448504D01*
X113619993Y-71681404D02*
X125569693Y-71681404D01*
X126802593Y-70448504D02*
X128846293Y-70448504D01*
X134092393Y-75694604D02*
X135477693Y-75694604D01*
X128846293Y-70448504D02*
X134092393Y-75694604D01*
X71151193Y-72252904D02*
X86783893Y-72252904D01*
X48418193Y-85245004D02*
X66718893Y-85245004D01*
X69081093Y-82882804D02*
X69677993Y-82882804D01*
X66718893Y-85245004D02*
X69081093Y-82882804D01*
%TO.N,Net-(D12-Pad2)*%
X88670310Y-67066487D02*
X88677193Y-67059604D01*
X77457588Y-69606487D02*
X77747310Y-69606487D01*
X77747310Y-69606487D02*
X78898193Y-68455604D01*
X81386705Y-68455604D02*
X82537588Y-69606487D01*
X78898193Y-68455604D02*
X81386705Y-68455604D01*
X82537588Y-69606487D02*
X84173510Y-69606487D01*
X86720393Y-67059604D02*
X88677193Y-67059604D01*
X84173510Y-69606487D02*
X86720393Y-67059604D01*
%TO.N,Net-(D13-Pad2)*%
X96457587Y-64606487D02*
X101537587Y-64606487D01*
%TO.N,Net-(D14-Pad2)*%
X126720576Y-67066487D02*
X126802593Y-67148504D01*
X120537586Y-69606487D02*
X122806910Y-69606487D01*
X125264893Y-67148504D02*
X126802593Y-67148504D01*
X122806910Y-69606487D02*
X125264893Y-67148504D01*
X115457586Y-69606487D02*
X115457586Y-69759797D01*
X115457586Y-69606487D02*
X116167876Y-69606487D01*
X116167876Y-69606487D02*
X116921993Y-70360604D01*
X116921993Y-70360604D02*
X118445993Y-70360604D01*
X119200110Y-69606487D02*
X120537586Y-69606487D01*
X118445993Y-70360604D02*
X119200110Y-69606487D01*
%TO.N,Net-(D15-Pad2)*%
X134457585Y-72106488D02*
X135191309Y-72106488D01*
X135191309Y-72106488D02*
X135692593Y-71605204D01*
X139036301Y-71605204D02*
X139537585Y-72106488D01*
X135692593Y-71605204D02*
X139036301Y-71605204D01*
%TO.N,Net-(D17-Pad2)*%
X88608675Y-86066486D02*
X88613693Y-86071504D01*
X77457587Y-88606486D02*
X82537587Y-88606486D01*
X82537587Y-88606486D02*
X84248911Y-88606486D01*
X86783893Y-86071504D02*
X88613693Y-86071504D01*
X84248911Y-88606486D02*
X86783893Y-86071504D01*
%TO.N,Net-(D18-Pad2)*%
X96457587Y-45606488D02*
X101537587Y-45606488D01*
%TO.N,Net-(D20-Pad2)*%
X107751376Y-81066487D02*
X107752593Y-81067704D01*
X96457586Y-83606487D02*
X101537586Y-83606487D01*
X101537586Y-83606487D02*
X103015710Y-83606487D01*
X105554493Y-81067704D02*
X107752593Y-81067704D01*
X103015710Y-83606487D02*
X105554493Y-81067704D01*
%TO.N,Net-(D21-Pad2)*%
X69726974Y-98566485D02*
X69779593Y-98619104D01*
X58457588Y-101106485D02*
X63537588Y-101106485D01*
X63537588Y-101106485D02*
X65424312Y-101106485D01*
X67911693Y-98619104D02*
X69779593Y-98619104D01*
X65424312Y-101106485D02*
X67911693Y-98619104D01*
%TO.N,row2*%
X87291893Y-90693304D02*
X88613693Y-89371504D01*
X71062293Y-90693304D02*
X87291893Y-90693304D01*
X88613693Y-89371504D02*
X88703593Y-89371504D01*
X106100593Y-86019704D02*
X107752593Y-84367704D01*
X92055393Y-86019704D02*
X106100593Y-86019704D01*
X125671293Y-90464704D02*
X126739093Y-89396904D01*
X108197093Y-90464704D02*
X125671293Y-90464704D01*
X88703593Y-89371504D02*
X92055393Y-86019704D01*
X108996857Y-57838404D02*
X110646475Y-59488022D01*
X106609593Y-57838404D02*
X108996857Y-57838404D01*
X48240393Y-103317104D02*
X53460093Y-103317104D01*
X53460093Y-103317104D02*
X54183993Y-104041004D01*
X69754193Y-104041004D02*
X69779593Y-104015604D01*
X54183993Y-104041004D02*
X69754193Y-104041004D01*
X131281093Y-89396904D02*
X131292593Y-89408404D01*
X126739093Y-89396904D02*
X131281093Y-89396904D01*
X133687193Y-94693804D02*
X135757093Y-94693804D01*
%TO.N,Net-(D24-Pad2)*%
X126708676Y-86066487D02*
X126739093Y-86096904D01*
X115457586Y-88606487D02*
X120537586Y-88606487D01*
X120537586Y-88606487D02*
X122425110Y-88606487D01*
X124934693Y-86096904D02*
X126739093Y-86096904D01*
X122425110Y-88606487D02*
X124934693Y-86096904D01*
%TO.N,Net-(D25-Pad2)*%
X134457585Y-91106487D02*
X139537585Y-91106487D01*
%TO.N,Net-(D26-Pad2)*%
X126721710Y-110066487D02*
X126726393Y-110061804D01*
X115457586Y-112606487D02*
X120537586Y-112606487D01*
X120537586Y-112606487D02*
X122250310Y-112606487D01*
X124794993Y-110061804D02*
X126726393Y-110061804D01*
X122250310Y-112606487D02*
X124794993Y-110061804D01*
%TO.N,Net-(D27-Pad2)*%
X115457586Y-50606488D02*
X117320503Y-52469405D01*
X117320503Y-52469405D02*
X119268392Y-52469405D01*
X120537586Y-51200211D02*
X120537586Y-50606488D01*
X119268392Y-52469405D02*
X120537586Y-51200211D01*
X120537586Y-50606488D02*
X122706109Y-50606488D01*
X124452093Y-48860504D02*
X126726393Y-48860504D01*
X122706109Y-50606488D02*
X124452093Y-48860504D01*
%TO.N,Net-(D30-Pad2)*%
X135534130Y-113918514D02*
X137416703Y-113918514D01*
X138298836Y-114800647D02*
X140536953Y-114800647D01*
X137416703Y-113918514D02*
X138298836Y-114800647D01*
X140536953Y-114800647D02*
X142865350Y-114800647D01*
X144886726Y-112779271D02*
X146570912Y-112779271D01*
X142865350Y-114800647D02*
X144886726Y-112779271D01*
%TO.N,Net-(D31-Pad2)*%
X134457585Y-53106489D02*
X139537585Y-53106489D01*
%TO.N,row3*%
X91369593Y-57838404D02*
X89477293Y-57838404D01*
X89477293Y-57838404D02*
X82746293Y-64569404D01*
X82746293Y-64569404D02*
X82746293Y-65560004D01*
X82746293Y-65560004D02*
X81107993Y-67198304D01*
X81107993Y-67198304D02*
X78987093Y-67198304D01*
X78987093Y-67198304D02*
X76548693Y-64759904D01*
X74986593Y-64759904D02*
X73373693Y-66372804D01*
X76548693Y-64759904D02*
X74986593Y-64759904D01*
X124983693Y-115118204D02*
X126739093Y-113362804D01*
X145070107Y-116956904D02*
X145997874Y-116029137D01*
X133812993Y-116956904D02*
X145070107Y-116956904D01*
X131974293Y-115118204D02*
X133812993Y-116956904D01*
X124983693Y-115118204D02*
X131974293Y-115118204D01*
X145070107Y-116956904D02*
X145141393Y-116956904D01*
X145141393Y-116956904D02*
X147884593Y-119700104D01*
X147884593Y-119700104D02*
X151123093Y-119700104D01*
X153040793Y-121617804D02*
X155148993Y-121617804D01*
X151123093Y-119700104D02*
X153040793Y-121617804D01*
X93699293Y-116321904D02*
X94902993Y-115118204D01*
X94902993Y-115118204D02*
X124983693Y-115118204D01*
X79312593Y-97578404D02*
X79322593Y-97568404D01*
X72062593Y-97578404D02*
X79312593Y-97578404D01*
X78496093Y-116321904D02*
X77982593Y-115808404D01*
X93699293Y-116321904D02*
X78496093Y-116321904D01*
%TO.N,Net-(D35-Pad2)*%
X155077834Y-118696863D02*
X156977852Y-118696863D01*
X158715315Y-120434326D02*
X159851473Y-120434326D01*
X156977852Y-118696863D02*
X158715315Y-120434326D01*
%TO.N,Net-(D37-Pad2)*%
X84651293Y-102364604D02*
X91801393Y-102364604D01*
X79322593Y-100868404D02*
X80002593Y-100868404D01*
X81498793Y-102364604D02*
X84651293Y-102364604D01*
X80002593Y-100868404D02*
X81498793Y-102364604D01*
%TO.N,Net-(D38-Pad2)*%
X65401193Y-67655504D02*
X65410793Y-67665104D01*
X56914493Y-67655504D02*
X65401193Y-67655504D01*
X57113050Y-65390261D02*
X55403193Y-63680404D01*
X57113050Y-65479161D02*
X57113050Y-65390261D01*
%TO.N,Net-(D39-Pad2)*%
X117683993Y-69293804D02*
X118712693Y-68265104D01*
X117683993Y-69446204D02*
X117683993Y-69293804D01*
%TO.N,Net-(D40-Pad2)*%
X67239593Y-69408104D02*
X67303093Y-69471604D01*
X59175093Y-69408104D02*
X67239593Y-69408104D01*
%TO.N,led*%
X85044993Y-37521504D02*
X82203293Y-37521504D01*
X82203293Y-37521504D02*
X81885255Y-37203466D01*
X75907054Y-37412957D02*
X75135146Y-37412957D01*
X76116545Y-37203466D02*
X75907054Y-37412957D01*
X75135146Y-37412957D02*
X74925655Y-37203466D01*
X81885255Y-37203466D02*
X76116545Y-37203466D01*
X72756799Y-37203466D02*
X71656003Y-38304262D01*
X74925655Y-37203466D02*
X72756799Y-37203466D01*
X71656003Y-43585814D02*
X71976693Y-43906504D01*
X71656003Y-38304262D02*
X71656003Y-43585814D01*
X72725993Y-45633704D02*
X72725993Y-49126204D01*
X72725993Y-49126204D02*
X65944193Y-55908004D01*
X54140892Y-107572505D02*
X52800594Y-107572505D01*
X52800594Y-107572505D02*
X52329793Y-107101704D01*
X52329793Y-107101704D02*
X52329793Y-105755504D01*
X52329793Y-105755504D02*
X51847193Y-105272904D01*
X51847193Y-105272904D02*
X50107293Y-105272904D01*
X50107293Y-105272904D02*
X50069193Y-105272904D01*
X50069193Y-105272904D02*
X49586593Y-105755504D01*
X49586593Y-105755504D02*
X49586593Y-112969104D01*
X49586593Y-112969104D02*
X48672193Y-113883504D01*
X48672193Y-113883504D02*
X35921393Y-113883504D01*
X35921393Y-113883504D02*
X34168793Y-112130904D01*
X34168793Y-112130904D02*
X34168793Y-104599804D01*
X35641993Y-103126604D02*
X35641993Y-101310504D01*
X34168793Y-104599804D02*
X35641993Y-103126604D01*
X38082270Y-99011804D02*
X38397588Y-98696486D01*
X35667393Y-99011804D02*
X38082270Y-99011804D01*
X44087493Y-102148704D02*
X43693793Y-101755004D01*
X48265793Y-102148704D02*
X44087493Y-102148704D01*
X65575893Y-55908004D02*
X65131393Y-56352504D01*
X65944193Y-55908004D02*
X65575893Y-55908004D01*
X66718893Y-107406504D02*
X66401393Y-107724004D01*
X66401393Y-107724004D02*
X56063593Y-107724004D01*
X54292391Y-107724004D02*
X54140892Y-107572505D01*
X56063593Y-107724004D02*
X54292391Y-107724004D01*
%TO.N,Net-(D41-Pad2)*%
X63597589Y-51786488D02*
X63620093Y-51763984D01*
X63597589Y-52196488D02*
X63597589Y-51786488D01*
X63620093Y-51094704D02*
X62680293Y-50154904D01*
X63620093Y-51763984D02*
X63620093Y-51094704D01*
X56241393Y-53634704D02*
X56266793Y-53660104D01*
X56241393Y-51399504D02*
X56241393Y-53634704D01*
X58347706Y-72646604D02*
X58397589Y-72696487D01*
X56879493Y-72646604D02*
X58347706Y-72646604D01*
%TO.N,Net-(D42-Pad2)*%
X66073510Y-71196487D02*
X66299793Y-70970204D01*
X63597589Y-71196487D02*
X66073510Y-71196487D01*
X57244693Y-92849381D02*
X58397588Y-91696486D01*
X57244693Y-93080904D02*
X57244693Y-92849381D01*
%TO.N,Net-(D43-Pad2)*%
X63597588Y-90196486D02*
X66517211Y-90196486D01*
X77397587Y-79316110D02*
X77397587Y-79196487D01*
X66517211Y-90196486D02*
X77397587Y-79316110D01*
%TO.N,Net-(D45-Pad2)*%
X82597587Y-76904798D02*
X81171493Y-75478704D01*
X82597587Y-77696487D02*
X82597587Y-76904798D01*
X80765093Y-70322504D02*
X79787193Y-69344604D01*
X80765093Y-70868604D02*
X80765093Y-70322504D01*
X76921109Y-60196488D02*
X77397588Y-60196488D01*
X75748593Y-61369004D02*
X76921109Y-60196488D01*
%TO.N,Net-(D46-Pad2)*%
X82597588Y-57765899D02*
X81450893Y-56619204D01*
X82597588Y-58696488D02*
X82597588Y-57765899D01*
X75418393Y-41696704D02*
X75888293Y-41226804D01*
X77367273Y-41226804D02*
X77397588Y-41196489D01*
X75888293Y-41226804D02*
X77367273Y-41226804D01*
X79507793Y-50548604D02*
X80447593Y-51488404D01*
X79507793Y-49913604D02*
X79507793Y-50548604D01*
%TO.N,Net-(D47-Pad2)*%
X84378278Y-39696489D02*
X84638593Y-39956804D01*
X82597588Y-39696489D02*
X84378278Y-39696489D01*
X85375193Y-43296904D02*
X86645193Y-43296904D01*
X86645193Y-43296904D02*
X88664493Y-41277604D01*
X93769893Y-41277604D02*
X95636793Y-39410704D01*
X88664493Y-41277604D02*
X93769893Y-41277604D01*
X94773193Y-37645404D02*
X94773193Y-36629404D01*
X95206108Y-36196489D02*
X96397587Y-36196489D01*
X94773193Y-36629404D02*
X95206108Y-36196489D01*
%TO.N,Net-(D48-Pad2)*%
X101597587Y-34696489D02*
X102657378Y-34696489D01*
X103320293Y-35359404D02*
X103320293Y-36502404D01*
X102657378Y-34696489D02*
X103320293Y-35359404D01*
X95651071Y-55943004D02*
X96397587Y-55196488D01*
X94950993Y-55943004D02*
X95651071Y-55943004D01*
%TO.N,Net-(D49-Pad2)*%
X102975677Y-53696488D02*
X104310893Y-55031704D01*
X101597587Y-53696488D02*
X102975677Y-53696488D01*
X96397102Y-74196004D02*
X96397586Y-74196488D01*
X93465093Y-74196004D02*
X96397102Y-74196004D01*
%TO.N,Net-(D50-Pad2)*%
X108005677Y-72696488D02*
X109657593Y-74348404D01*
X101597586Y-72696488D02*
X108005677Y-72696488D01*
X112829277Y-79196488D02*
X115397586Y-79196488D01*
X109924293Y-76291504D02*
X112829277Y-79196488D01*
%TO.N,Net-(D51-Pad2)*%
X120597586Y-76792097D02*
X119601693Y-75796204D01*
X120597586Y-77696488D02*
X120597586Y-76792097D01*
X115147702Y-59946604D02*
X115397586Y-60196488D01*
X113658093Y-59946604D02*
X115147702Y-59946604D01*
%TO.N,Net-(D52-Pad2)*%
X120597586Y-57961097D02*
X119436593Y-56800104D01*
X120597586Y-58696488D02*
X120597586Y-57961097D01*
X118712693Y-51326404D02*
X117693593Y-50307304D01*
X118712693Y-51742404D02*
X118712693Y-51326404D01*
X115351701Y-41150604D02*
X115397586Y-41196489D01*
X113480293Y-41150604D02*
X115351701Y-41150604D01*
%TO.N,Net-(D53-Pad2)*%
X120597586Y-39696489D02*
X123252978Y-39696489D01*
X123252978Y-39696489D02*
X125621493Y-42065004D01*
X125621493Y-42065004D02*
X128148793Y-42065004D01*
X129780279Y-43696490D02*
X134397585Y-43696490D01*
X128148793Y-42065004D02*
X129780279Y-43696490D01*
%TO.N,Net-(D54-Pad2)*%
X141648893Y-43447798D02*
X141648893Y-44198604D01*
X140397585Y-42196490D02*
X141648893Y-43447798D01*
X139597585Y-42196490D02*
X140397585Y-42196490D01*
X133769270Y-63324804D02*
X134397585Y-62696489D01*
X132187393Y-63324804D02*
X133769270Y-63324804D01*
%TO.N,Net-(D55-Pad2)*%
X141425578Y-61196489D02*
X141953693Y-61724604D01*
X139597585Y-61196489D02*
X141425578Y-61196489D01*
X134275801Y-81574704D02*
X134397585Y-81696488D01*
X132101593Y-81536604D02*
X132111193Y-81536604D01*
X132271077Y-81696488D02*
X134397585Y-81696488D01*
X132111193Y-81536604D02*
X132271077Y-81696488D01*
%TO.N,Net-(D56-Pad2)*%
X142683677Y-80196488D02*
X143071293Y-80584104D01*
X139597585Y-80196488D02*
X142683677Y-80196488D01*
X111746777Y-103196488D02*
X111676893Y-103126604D01*
X115397586Y-103196488D02*
X111746777Y-103196488D01*
X111852593Y-93088404D02*
X111912593Y-93028404D01*
X111912593Y-93028404D02*
X126552593Y-93028404D01*
X126552593Y-93028404D02*
X126732593Y-93028404D01*
X126732593Y-93028404D02*
X129232593Y-95528404D01*
X129232593Y-95528404D02*
X132562593Y-95528404D01*
X133692593Y-96658404D02*
X143032593Y-96658404D01*
X132562593Y-95528404D02*
X133692593Y-96658404D01*
%TO.N,Net-(D57-Pad2)*%
X120597586Y-101696488D02*
X125588377Y-101696488D01*
X125588377Y-101696488D02*
X127412193Y-103520304D01*
X127412193Y-103520304D02*
X133914593Y-103520304D01*
X135035344Y-104641055D02*
X137109070Y-104641055D01*
X133914593Y-103520304D02*
X135035344Y-104641055D01*
%TO.N,Net-(D58-Pad2)*%
X67684093Y-86413404D02*
X67988893Y-86108604D01*
X60330793Y-86413404D02*
X67684093Y-86413404D01*
X77437693Y-81676304D02*
X77501193Y-81676304D01*
X68509593Y-90604404D02*
X77437693Y-81676304D01*
%TO.N,Net-(D59-Pad2)*%
X142490543Y-104066814D02*
X143986103Y-104066814D01*
X143986103Y-104066814D02*
X148252893Y-108333604D01*
X148252893Y-108333604D02*
X155720493Y-108333604D01*
X157220725Y-109833836D02*
X158239862Y-109833836D01*
X155720493Y-108333604D02*
X157220725Y-109833836D01*
%TO.N,Net-(D61-Pad2)*%
X115766293Y-37534204D02*
X125446793Y-37534204D01*
X126272383Y-38359794D02*
X126272383Y-38982094D01*
X125446793Y-37534204D02*
X126272383Y-38359794D01*
X127424893Y-40134604D02*
X142080693Y-40134604D01*
X126272383Y-38982094D02*
X127424893Y-40134604D01*
%TO.N,Net-(D62-Pad2)*%
X142931593Y-43157204D02*
X140416993Y-40642604D01*
X133127193Y-40642604D02*
X132771593Y-40998204D01*
X140416993Y-40642604D02*
X133127193Y-40642604D01*
%TO.N,Net-(D64-Pad2)*%
X136606993Y-72570404D02*
X137318193Y-73281604D01*
X137318193Y-73281604D02*
X137318193Y-74805604D01*
%TO.N,Net-(D66-Pad2)*%
X130825393Y-80177704D02*
X130647593Y-80355504D01*
X132647693Y-80177704D02*
X130825393Y-80177704D01*
X129063193Y-81231804D02*
X124224493Y-81231804D01*
%TO.N,Net-(D67-Pad2)*%
X77932993Y-37930466D02*
X81762731Y-37930466D01*
X81762731Y-37930466D02*
X81960269Y-38128004D01*
X85648392Y-38248505D02*
X86213393Y-37683504D01*
X82080770Y-38248505D02*
X85648392Y-38248505D01*
X81960269Y-38128004D02*
X82080770Y-38248505D01*
X86213393Y-44185904D02*
X88994693Y-44185904D01*
X88994693Y-44185904D02*
X89248693Y-43931904D01*
X89248693Y-43931904D02*
X92144293Y-43931904D01*
X92144293Y-43931904D02*
X93477793Y-42598404D01*
X93477793Y-42598404D02*
X93477793Y-42230104D01*
X93477793Y-42230104D02*
X95484393Y-40223504D01*
X95899955Y-40223504D02*
X96474993Y-39648466D01*
X95484393Y-40223504D02*
X95899955Y-40223504D01*
X96474993Y-39022524D02*
X96933102Y-38564415D01*
X96474993Y-39648466D02*
X96474993Y-39022524D01*
%TO.N,Net-(D68-Pad2)*%
X138441854Y-101875505D02*
X135889294Y-101875505D01*
X138448055Y-101869304D02*
X138441854Y-101875505D01*
X145331893Y-101869304D02*
X138448055Y-101869304D01*
X135889294Y-101875505D02*
X135616393Y-101602604D01*
X134676593Y-101602604D02*
X133000193Y-99926204D01*
X135616393Y-101602604D02*
X134676593Y-101602604D01*
X115699693Y-95700204D02*
X115499593Y-95900304D01*
X124524424Y-95700204D02*
X115699693Y-95700204D01*
X125613524Y-96789304D02*
X124524424Y-95700204D01*
X130095431Y-96789304D02*
X125613524Y-96789304D01*
X130212832Y-96906705D02*
X130095431Y-96789304D01*
X131212594Y-96906705D02*
X130212832Y-96906705D01*
X132631893Y-98326004D02*
X131212594Y-96906705D01*
%TO.N,Net-(D69-Pad2)*%
X103971093Y-32619304D02*
X104069593Y-32717804D01*
X96386093Y-32619304D02*
X103971093Y-32619304D01*
%TO.N,Net-(D70-Pad2)*%
X100665993Y-50713704D02*
X102482093Y-50713704D01*
X111337192Y-49015103D02*
X111397493Y-49075404D01*
X104180694Y-49015103D02*
X111337192Y-49015103D01*
X102482093Y-50713704D02*
X104180694Y-49015103D01*
X103536193Y-74323004D02*
X107879593Y-74323004D01*
X107879593Y-74323004D02*
X108946393Y-75389804D01*
X110622793Y-75389804D02*
X111054425Y-74958172D01*
X108946393Y-75389804D02*
X110622793Y-75389804D01*
%TO.N,Net-(D71-Pad2)*%
X138121393Y-101120004D02*
X138092893Y-101148504D01*
X154110783Y-103637794D02*
X151592993Y-101120004D01*
X157527083Y-106419094D02*
X154745783Y-103637794D01*
X151592993Y-101120004D02*
X138121393Y-101120004D01*
X160824352Y-106419094D02*
X157527083Y-106419094D01*
X163097652Y-106977894D02*
X161383151Y-106977894D01*
X161383151Y-106977894D02*
X160824352Y-106419094D01*
X163462761Y-107343004D02*
X163097652Y-106977894D01*
X163467493Y-107343004D02*
X163462761Y-107343004D01*
X164013593Y-107889104D02*
X163467493Y-107343004D01*
X154745783Y-103637794D02*
X154110783Y-103637794D01*
X166502793Y-107889104D02*
X164013593Y-107889104D01*
X167544193Y-108930504D02*
X166502793Y-107889104D01*
%TO.N,RESET*%
X150068993Y-91279304D02*
X149065693Y-90276004D01*
X148194793Y-90276004D02*
X148193593Y-90274804D01*
X149065693Y-90276004D02*
X148194793Y-90276004D01*
X110470393Y-44058904D02*
X112896093Y-44058904D01*
X115651993Y-46814804D02*
X115651993Y-46979904D01*
X112896093Y-44058904D02*
X115651993Y-46814804D01*
X115651993Y-46979904D02*
X117048993Y-48376904D01*
X117048993Y-48376904D02*
X119004793Y-48376904D01*
X119004793Y-48376904D02*
X121519393Y-45862304D01*
X121519393Y-45862304D02*
X126281893Y-45862304D01*
X126281893Y-45862304D02*
X127475693Y-47056104D01*
X127475693Y-47056104D02*
X132225493Y-47056104D01*
X132225493Y-47056104D02*
X135895793Y-50726404D01*
X135895793Y-50726404D02*
X138042093Y-50726404D01*
X140175693Y-48592804D02*
X145700193Y-48592804D01*
X138042093Y-50726404D02*
X140175693Y-48592804D01*
%TO.N,col0*%
X106507993Y-52758404D02*
X105288793Y-51539204D01*
X106609593Y-52758404D02*
X106507993Y-52758404D01*
X104628393Y-91950604D02*
X97503693Y-91950604D01*
X97503693Y-91950604D02*
X97236993Y-91683904D01*
X73005393Y-91683904D02*
X72865693Y-91544204D01*
X97236993Y-91683904D02*
X73005393Y-91683904D01*
X37187589Y-67566487D02*
X44807589Y-67566487D01*
X37187589Y-86566486D02*
X44807589Y-86566486D01*
X37187588Y-105566485D02*
X44807588Y-105566485D01*
X53764893Y-104752204D02*
X72992693Y-104752204D01*
X53167993Y-104155304D02*
X53764893Y-104752204D01*
X46218769Y-104155304D02*
X53167993Y-104155304D01*
X44807588Y-105566485D02*
X46218769Y-104155304D01*
%TO.N,col1*%
X57187589Y-60566487D02*
X64807589Y-60566487D01*
X57187589Y-79566486D02*
X64807589Y-79566486D01*
X57187588Y-98566485D02*
X64807588Y-98566485D01*
X100107193Y-47919704D02*
X102977393Y-47919704D01*
X93884193Y-46395704D02*
X95179593Y-47691104D01*
X90607593Y-46344904D02*
X90658393Y-46395704D01*
X85108493Y-46344904D02*
X90607593Y-46344904D01*
X84727493Y-45963904D02*
X85108493Y-46344904D01*
X64807589Y-60566487D02*
X64807589Y-58191146D01*
X74567493Y-45925804D02*
X76739193Y-45925804D01*
X81082593Y-48059404D02*
X83178093Y-45963904D01*
X68200212Y-54798523D02*
X68200212Y-54299685D01*
X73373693Y-49625042D02*
X73373693Y-47119604D01*
X99878593Y-47691104D02*
X100107193Y-47919704D01*
X95179593Y-47691104D02*
X99878593Y-47691104D01*
X68200212Y-54299685D02*
X70285824Y-52214073D01*
X70285824Y-52214073D02*
X70784662Y-52214073D01*
X70784662Y-52214073D02*
X73373693Y-49625042D01*
X73373693Y-47119604D02*
X74567493Y-45925804D01*
X83178093Y-45963904D02*
X84727493Y-45963904D01*
X64807589Y-58191146D02*
X68200212Y-54798523D01*
X76739193Y-45925804D02*
X78872793Y-48059404D01*
X90658393Y-46395704D02*
X93884193Y-46395704D01*
X78872793Y-48059404D02*
X81082593Y-48059404D01*
X103675893Y-47919704D02*
X103739393Y-47856204D01*
X102977393Y-47919704D02*
X103675893Y-47919704D01*
X106609593Y-45138404D02*
X103764793Y-45138404D01*
%TO.N,col2*%
X91369593Y-50218404D02*
X86594393Y-50218404D01*
X86414062Y-99431404D02*
X87011926Y-100029268D01*
X82364793Y-99431404D02*
X86414062Y-99431404D01*
X76241593Y-99431404D02*
X82364793Y-99431404D01*
X81336593Y-48516604D02*
X81786709Y-48066488D01*
X78618793Y-48516604D02*
X81336593Y-48516604D01*
X81786709Y-48066488D02*
X83807588Y-48066488D01*
X78168677Y-48066488D02*
X78618793Y-48516604D01*
X76187588Y-48066488D02*
X78168677Y-48066488D01*
X76187588Y-67066487D02*
X78042476Y-67066487D01*
X78042476Y-67066487D02*
X78669593Y-67693604D01*
X78669593Y-67693604D02*
X81361993Y-67693604D01*
X81989110Y-67066487D02*
X83807588Y-67066487D01*
X81361993Y-67693604D02*
X81989110Y-67066487D01*
X76187587Y-86066486D02*
X83807587Y-86066486D01*
X85959504Y-50218404D02*
X86594393Y-50218404D01*
X83807588Y-48066488D02*
X85959504Y-50218404D01*
%TO.N,col3*%
X107041393Y-93728604D02*
X96576593Y-93728604D01*
X95187586Y-81066487D02*
X96919276Y-81066487D01*
X96919276Y-81066487D02*
X97541793Y-81689004D01*
X97541793Y-81689004D02*
X100234193Y-81689004D01*
X100856710Y-81066487D02*
X102807586Y-81066487D01*
X100234193Y-81689004D02*
X100856710Y-81066487D01*
X95187587Y-62066487D02*
X102807587Y-62066487D01*
X101417109Y-43066488D02*
X102807587Y-43066488D01*
X100386593Y-44097004D02*
X101417109Y-43066488D01*
X97744993Y-44097004D02*
X100386593Y-44097004D01*
X96714477Y-43066488D02*
X97744993Y-44097004D01*
X95187587Y-43066488D02*
X96714477Y-43066488D01*
X106609593Y-47678404D02*
X105745993Y-47678404D01*
X105745993Y-47678404D02*
X104983993Y-46916404D01*
X104983993Y-46916404D02*
X102977393Y-46916404D01*
X102977393Y-46916404D02*
X102621793Y-47272004D01*
X100208793Y-47272004D02*
X99573793Y-46637004D01*
X102621793Y-47272004D02*
X100208793Y-47272004D01*
X114187586Y-110066487D02*
X121807586Y-110066487D01*
X107012593Y-101118404D02*
X109452593Y-103558404D01*
X109452593Y-103558404D02*
X109452593Y-103948404D01*
X111322593Y-105818404D02*
X114042593Y-105818404D01*
X109452593Y-103948404D02*
X111322593Y-105818404D01*
%TO.N,col4*%
X134724490Y-111196569D02*
X130973658Y-111196569D01*
X127945593Y-108168504D02*
X125659593Y-108168504D01*
X130973658Y-111196569D02*
X127945593Y-108168504D01*
X120782903Y-93931804D02*
X120643093Y-93791994D01*
X125659593Y-93931804D02*
X120782903Y-93931804D01*
X114187586Y-86066487D02*
X115762276Y-86066487D01*
X115762276Y-86066487D02*
X116769593Y-87073804D01*
X116769593Y-87073804D02*
X119411193Y-87073804D01*
X120418510Y-86066487D02*
X121807586Y-86066487D01*
X119411193Y-87073804D02*
X120418510Y-86066487D01*
X120368510Y-67066487D02*
X121807586Y-67066487D01*
X119995393Y-67439604D02*
X120368510Y-67066487D01*
X115931393Y-67439604D02*
X119995393Y-67439604D01*
X115558276Y-67066487D02*
X115931393Y-67439604D01*
X114187586Y-67066487D02*
X115558276Y-67066487D01*
X120343909Y-48066488D02*
X121807586Y-48066488D01*
X116693393Y-48948404D02*
X119461993Y-48948404D01*
X115811477Y-48066488D02*
X116693393Y-48948404D01*
X119461993Y-48948404D02*
X120343909Y-48066488D01*
X114187586Y-48066488D02*
X115811477Y-48066488D01*
X134724490Y-111196569D02*
X136701358Y-111196569D01*
X136701358Y-111196569D02*
X137597593Y-112092804D01*
X141801761Y-112092804D02*
X142228725Y-112519768D01*
X137597593Y-112092804D02*
X141801761Y-112092804D01*
X112756393Y-53307681D02*
X111727116Y-52278404D01*
X108862593Y-52278404D02*
X108852593Y-52288404D01*
X111727116Y-52278404D02*
X108862593Y-52278404D01*
%TO.N,sda*%
X86137193Y-45138404D02*
X85768893Y-45506704D01*
X91369593Y-45138404D02*
X86137193Y-45138404D01*
X86137193Y-81295304D02*
X88359693Y-81295304D01*
X88359693Y-81295304D02*
X90696493Y-78958504D01*
X90696493Y-78958504D02*
X95649493Y-78958504D01*
X95649493Y-78958504D02*
X97846593Y-81155604D01*
X97846593Y-81155604D02*
X99992893Y-81155604D01*
X99992893Y-81155604D02*
X102342393Y-78806104D01*
X108031993Y-78806104D02*
X108463793Y-78806104D01*
X102342393Y-78806104D02*
X108031993Y-78806104D01*
X108031993Y-78806104D02*
X110013193Y-78806104D01*
X108463793Y-78806104D02*
X113683493Y-84025804D01*
X113683493Y-84025804D02*
X114750293Y-84025804D01*
X114750293Y-84025804D02*
X117061693Y-86337204D01*
X117061693Y-86337204D02*
X119093693Y-86337204D01*
X119093693Y-86337204D02*
X121316193Y-84114704D01*
X121316193Y-84114704D02*
X131387293Y-84114704D01*
X131387293Y-84114704D02*
X135895793Y-88623204D01*
X135895793Y-88623204D02*
X138143693Y-88623204D01*
X143007793Y-83759104D02*
X145065193Y-83759104D01*
X138143693Y-88623204D02*
X143007793Y-83759104D01*
X150242593Y-56598404D02*
X149187593Y-56598404D01*
X150782593Y-57138404D02*
X150242593Y-56598404D01*
X149187593Y-56598404D02*
X144932593Y-56598404D01*
X145125593Y-65981404D02*
X145092593Y-65948404D01*
X151579593Y-65981404D02*
X145125593Y-65981404D01*
%TO.N,scl*%
X88235793Y-47678404D02*
X88197693Y-47640304D01*
X91369593Y-47678404D02*
X88235793Y-47678404D01*
X88283493Y-65775904D02*
X93172993Y-65775904D01*
X93172993Y-65775904D02*
X94214393Y-66817304D01*
X94214393Y-66817304D02*
X110737093Y-66817304D01*
X110737093Y-66817304D02*
X112527793Y-65026604D01*
X112527793Y-65026604D02*
X114648693Y-65026604D01*
X116469477Y-66847388D02*
X119415877Y-66847388D01*
X114648693Y-65026604D02*
X116469477Y-66847388D01*
X119415877Y-66847388D02*
X121071561Y-65191704D01*
X121071561Y-65191704D02*
X131412693Y-65191704D01*
X131412693Y-65191704D02*
X135844993Y-69624004D01*
X135844993Y-69624004D02*
X138321493Y-69624004D01*
X140329843Y-67615654D02*
X141949843Y-67615654D01*
X138321493Y-69624004D02*
X140329843Y-67615654D01*
X151252593Y-55598404D02*
X151692593Y-56038404D01*
X149187593Y-55598404D02*
X151252593Y-55598404D01*
X141949843Y-67615654D02*
X142627593Y-68293404D01*
X144992593Y-55598404D02*
X144942593Y-55548404D01*
X149187593Y-55598404D02*
X144992593Y-55598404D01*
X142855593Y-68521404D02*
X142627593Y-68293404D01*
X151579593Y-68521404D02*
X142855593Y-68521404D01*
%TO.N,ENC1B*%
X96712790Y-104828404D02*
X97011926Y-104529268D01*
X87305593Y-104828404D02*
X96712790Y-104828404D01*
X91902993Y-83721004D02*
X91407693Y-83225704D01*
X93922293Y-83721004D02*
X91902993Y-83721004D01*
%TO.N,ENC1A*%
X96620090Y-109921104D02*
X97011926Y-109529268D01*
X92131593Y-109921104D02*
X96620090Y-109921104D01*
X94481093Y-89334404D02*
X94341393Y-89194704D01*
X97719593Y-89334404D02*
X94481093Y-89334404D01*
%TO.N,data*%
X112235693Y-50713704D02*
X112464293Y-50713704D01*
X112235693Y-50713704D02*
X112654793Y-50713704D01*
X112654793Y-50713704D02*
X114864593Y-52923504D01*
X114864593Y-52923504D02*
X123779993Y-52923504D01*
X123779993Y-52923504D02*
X126180293Y-50523204D01*
X126180293Y-50523204D02*
X128072593Y-50523204D01*
X128072593Y-50523204D02*
X132962093Y-55412704D01*
X132962093Y-55412704D02*
X141928293Y-55412704D01*
X147743593Y-46639404D02*
X152343593Y-46639404D01*
X143096693Y-55412704D02*
X143515793Y-54993604D01*
X141928293Y-55412704D02*
X143096693Y-55412704D01*
X147537993Y-46433804D02*
X147743593Y-46639404D01*
X144493693Y-46433804D02*
X147537993Y-46433804D01*
X112146793Y-45481304D02*
X109416293Y-45481304D01*
X109416293Y-45481304D02*
X107841493Y-43906504D01*
X107841493Y-43906504D02*
X107485893Y-43906504D01*
X107485893Y-43906504D02*
X107447793Y-43868404D01*
X107447793Y-43868404D02*
X105771393Y-43868404D01*
X105771393Y-43868404D02*
X105644393Y-43868404D01*
X105644393Y-43868404D02*
X104856993Y-43081004D01*
X104856993Y-43081004D02*
X104856993Y-42166604D01*
X104856993Y-42166604D02*
X103815593Y-41125204D01*
X103815593Y-41125204D02*
X102240793Y-41125204D01*
X102240793Y-41125204D02*
X100018293Y-43347704D01*
X100018293Y-43347704D02*
X98087893Y-43347704D01*
X95903493Y-41163304D02*
X95903493Y-41150604D01*
X98087893Y-43347704D02*
X95903493Y-41163304D01*
%TO.N,Net-(D39-Pad4)*%
X107107993Y-71024104D02*
X107930393Y-71846504D01*
X96424193Y-71024104D02*
X107107993Y-71024104D01*
X109105311Y-70773186D02*
X112477329Y-74145204D01*
X122697393Y-74145204D02*
X122738593Y-74104004D01*
X112477329Y-74145204D02*
X122697393Y-74145204D01*
%TO.N,Net-(D38-Pad4)*%
X59898993Y-65864804D02*
X58933793Y-66830004D01*
X58933793Y-66830004D02*
X54171293Y-66830004D01*
X49929493Y-66118804D02*
X49586593Y-66461704D01*
X47859393Y-66461704D02*
X47770493Y-66372804D01*
X49586593Y-66461704D02*
X47859393Y-66461704D01*
X39718693Y-57343104D02*
X39655193Y-57279604D01*
X46995793Y-57343104D02*
X39718693Y-57343104D01*
X53409293Y-66830004D02*
X54171293Y-66830004D01*
X49929493Y-66118804D02*
X52012293Y-66118804D01*
X52723493Y-66830004D02*
X53409293Y-66830004D01*
X52012293Y-66118804D02*
X52723493Y-66830004D01*
%TO.N,Net-(D41-Pad4)*%
X58397589Y-53696488D02*
X57320893Y-54773184D01*
X53328573Y-54773184D02*
X53320393Y-54765004D01*
X57320893Y-54773184D02*
X53328573Y-54773184D01*
X43649205Y-59248104D02*
X43597589Y-59196488D01*
X48202293Y-59248104D02*
X43649205Y-59248104D01*
X56067292Y-106272505D02*
X56152493Y-106187304D01*
X54140892Y-106272505D02*
X56067292Y-106272505D01*
%TO.N,Net-(D75-Pad2)*%
X36478810Y-79696487D02*
X36391293Y-79784004D01*
X38397589Y-79696487D02*
X36478810Y-79696487D01*
X40417193Y-88420004D02*
X41420493Y-89423304D01*
X40417193Y-87670704D02*
X40417193Y-88420004D01*
X42207893Y-94211204D02*
X44201793Y-94211204D01*
X44201793Y-94211204D02*
X44862193Y-94871604D01*
X44862193Y-95931881D02*
X43597588Y-97196486D01*
X44862193Y-94871604D02*
X44862193Y-95931881D01*
%TO.N,Net-(D76-Pad2)*%
X40633093Y-69687504D02*
X41610993Y-68709604D01*
X40633093Y-70436804D02*
X40633093Y-69687504D01*
%TO.N,Net-(D77-Pad2)*%
X37025709Y-60696488D02*
X36454793Y-61267404D01*
X38397589Y-60696488D02*
X37025709Y-60696488D01*
X43597589Y-77554200D02*
X43597589Y-78196487D01*
X42461893Y-76418504D02*
X43597589Y-77554200D01*
%TO.N,Net-(D80-Pad2)*%
X38457589Y-70106487D02*
X39727706Y-71376604D01*
X42267472Y-71376604D02*
X43537589Y-70106487D01*
X39727706Y-71376604D02*
X42267472Y-71376604D01*
%TO.N,Net-(D83-Pad2)*%
X38457589Y-89106486D02*
X39752307Y-90401204D01*
X42242871Y-90401204D02*
X43537589Y-89106486D01*
X39752307Y-90401204D02*
X42242871Y-90401204D01*
%TO.N,Net-(D85-Pad2)*%
X38457588Y-108106485D02*
X43537588Y-108106485D01*
%TO.N,col5*%
X109322575Y-60378404D02*
X109919475Y-60975304D01*
X106609593Y-60378404D02*
X109322575Y-60378404D01*
X109919475Y-70109704D02*
X113116775Y-73307004D01*
X113116775Y-73307004D02*
X130574493Y-73307004D01*
X130676659Y-73307004D02*
X131571726Y-74202071D01*
X130574493Y-73307004D02*
X130676659Y-73307004D01*
X134498793Y-97805304D02*
X136200593Y-99507104D01*
X150195993Y-99507104D02*
X150221393Y-99481704D01*
X136200593Y-99507104D02*
X150195993Y-99507104D01*
X150791168Y-115875679D02*
X154753156Y-115875679D01*
X150208693Y-115293204D02*
X150791168Y-115875679D01*
X133187585Y-88566487D02*
X134569076Y-88566487D01*
X134569076Y-88566487D02*
X135336993Y-89334404D01*
X135336993Y-89334404D02*
X138461193Y-89334404D01*
X139229110Y-88566487D02*
X140807585Y-88566487D01*
X138461193Y-89334404D02*
X139229110Y-88566487D01*
X133187585Y-50566489D02*
X134618278Y-50566489D01*
X134618278Y-50566489D02*
X135616393Y-51564604D01*
X135616393Y-51564604D02*
X138181793Y-51564604D01*
X139179908Y-50566489D02*
X140807585Y-50566489D01*
X138181793Y-51564604D02*
X139179908Y-50566489D01*
X133187585Y-69566488D02*
X134517477Y-69566488D01*
X134517477Y-69566488D02*
X135184593Y-70233604D01*
X135184593Y-70233604D02*
X138664393Y-70233604D01*
X139331509Y-69566488D02*
X140807585Y-69566488D01*
X138664393Y-70233604D02*
X139331509Y-69566488D01*
X154753156Y-115875679D02*
X156214068Y-115875679D01*
X156214068Y-115875679D02*
X157942993Y-117604604D01*
X161036346Y-117604604D02*
X161913614Y-118481872D01*
X157942993Y-117604604D02*
X161036346Y-117604604D01*
%TO.N,B-*%
X102852593Y-98178404D02*
X106102593Y-98178404D01*
%TO.N,Net-(J4-Pad1)*%
X108012593Y-109818404D02*
X108022593Y-109808404D01*
X104872593Y-109818404D02*
X108012593Y-109818404D01*
X109222593Y-91258404D02*
X126182593Y-91258404D01*
X126182593Y-91258404D02*
X131582593Y-91258404D01*
X131582593Y-91258404D02*
X133092593Y-92768404D01*
X133092593Y-92768404D02*
X136952593Y-92768404D01*
X136952593Y-92768404D02*
X142062593Y-92768404D01*
X142562593Y-92268404D02*
X144872593Y-92268404D01*
X142062593Y-92768404D02*
X142562593Y-92268404D01*
X146392593Y-80058404D02*
X145902593Y-79568404D01*
X150852593Y-80058404D02*
X146392593Y-80058404D01*
%TO.N,B+*%
X143852593Y-76698404D02*
X139742593Y-76698404D01*
X139742593Y-76698404D02*
X139522593Y-76918404D01*
X139522593Y-76918404D02*
X128212593Y-76918404D01*
X126702593Y-75408404D02*
X126702593Y-75158404D01*
X128212593Y-76918404D02*
X126702593Y-75408404D01*
X124002593Y-54358404D02*
X112132593Y-54358404D01*
X110922593Y-53148404D02*
X110602593Y-53148404D01*
X112132593Y-54358404D02*
X110922593Y-53148404D01*
X150852593Y-82058404D02*
X146972593Y-82058404D01*
X146972593Y-82058404D02*
X145062593Y-80148404D01*
X145062593Y-77908404D02*
X143852593Y-76698404D01*
X145062593Y-80148404D02*
X145062593Y-77908404D01*
%TO.N,Net-(J5-Pad1)*%
X102882593Y-112298404D02*
X102882593Y-113148404D01*
X103882593Y-114148404D02*
X108822593Y-114148404D01*
X102882593Y-113148404D02*
X103882593Y-114148404D01*
X109312593Y-92448404D02*
X109892593Y-92448404D01*
X109892593Y-92448404D02*
X110192593Y-92148404D01*
X110192593Y-92148404D02*
X131382593Y-92148404D01*
X131382593Y-92148404D02*
X132612593Y-93378404D01*
X132612593Y-93378404D02*
X142922593Y-93378404D01*
X143202593Y-93098404D02*
X145832593Y-93098404D01*
X142922593Y-93378404D02*
X143202593Y-93098404D01*
X146972593Y-84058404D02*
X150852593Y-84058404D01*
%TD*%
M02*
