%TF.GenerationSoftware,KiCad,Pcbnew,(5.1.10)-1*%
%TF.CreationDate,2021-12-10T08:58:01-08:00*%
%TF.ProjectId,5col-bottomplate,35636f6c-2d62-46f7-9474-6f6d706c6174,rev?*%
%TF.SameCoordinates,Original*%
%TF.FileFunction,Profile,NP*%
%FSLAX46Y46*%
G04 Gerber Fmt 4.6, Leading zero omitted, Abs format (unit mm)*
G04 Created by KiCad (PCBNEW (5.1.10)-1) date 2021-12-10 08:58:01*
%MOMM*%
%LPD*%
G01*
G04 APERTURE LIST*
%TA.AperFunction,Profile*%
%ADD10C,0.250000*%
%TD*%
G04 APERTURE END LIST*
D10*
X153468572Y-40564492D02*
X153465493Y-102254504D01*
X151446193Y-38513204D02*
X151756120Y-38536666D01*
X151756120Y-38536666D02*
X152051310Y-38604804D01*
X152051310Y-38604804D02*
X152328246Y-38714245D01*
X152328246Y-38714245D02*
X152583412Y-38861618D01*
X152583412Y-38861618D02*
X152813291Y-39043550D01*
X152813291Y-39043550D02*
X153014368Y-39256669D01*
X153014368Y-39256669D02*
X153183125Y-39497602D01*
X153183125Y-39497602D02*
X153316047Y-39762977D01*
X153316047Y-39762977D02*
X153409618Y-40049422D01*
X153409618Y-40049422D02*
X153460321Y-40353564D01*
X153460321Y-40353564D02*
X153468572Y-40564492D01*
X169048393Y-107931404D02*
X153465493Y-102254504D01*
X127462596Y-38525458D02*
X151446193Y-38513204D01*
X52107378Y-118442147D02*
X51928159Y-118239278D01*
X51928159Y-118239278D02*
X51776485Y-118017769D01*
X51776485Y-118017769D02*
X51653517Y-117780428D01*
X51653517Y-117780428D02*
X51560417Y-117530061D01*
X51560417Y-117530061D02*
X51498348Y-117269476D01*
X51498348Y-117269476D02*
X51468471Y-117001478D01*
X51468471Y-117001478D02*
X51465795Y-116892833D01*
X162413393Y-126126304D02*
X146983414Y-120510248D01*
X146983414Y-120510248D02*
X138740593Y-119076352D01*
X138740593Y-119076352D02*
X53656647Y-119083807D01*
X51465795Y-116892833D02*
X51460425Y-50682975D01*
X53656647Y-119083807D02*
X53386471Y-119067120D01*
X53386471Y-119067120D02*
X53122587Y-119017775D01*
X53122587Y-119017775D02*
X52867801Y-118936934D01*
X52867801Y-118936934D02*
X52624921Y-118825761D01*
X52624921Y-118825761D02*
X52396752Y-118685418D01*
X52396752Y-118685418D02*
X52186103Y-118517068D01*
X52186103Y-118517068D02*
X52107378Y-118442147D01*
X89511871Y-36027018D02*
X89484135Y-33331526D01*
X70511889Y-48525643D02*
X70471881Y-38284649D01*
X106005278Y-31025537D02*
X106313215Y-31044701D01*
X106313215Y-31044701D02*
X106613888Y-31101315D01*
X106613888Y-31101315D02*
X106904061Y-31194028D01*
X106904061Y-31194028D02*
X107180498Y-31321490D01*
X107180498Y-31321490D02*
X107439962Y-31482351D01*
X107439962Y-31482351D02*
X107679218Y-31675260D01*
X107679218Y-31675260D02*
X107768538Y-31761096D01*
X126761564Y-36762361D02*
X126962212Y-36994499D01*
X126962212Y-36994499D02*
X127130979Y-37247640D01*
X127130979Y-37247640D02*
X127266564Y-37518502D01*
X127266564Y-37518502D02*
X127367664Y-37803801D01*
X127367664Y-37803801D02*
X127432977Y-38100256D01*
X127432977Y-38100256D02*
X127461201Y-38404585D01*
X127461201Y-38404585D02*
X127461814Y-38527787D01*
X72720645Y-36027071D02*
X89511871Y-36027018D01*
X71127405Y-36688835D02*
X71335810Y-36504045D01*
X71335810Y-36504045D02*
X71563483Y-36347632D01*
X71563483Y-36347632D02*
X71807524Y-36220801D01*
X71807524Y-36220801D02*
X72065032Y-36124756D01*
X72065032Y-36124756D02*
X72333107Y-36060703D01*
X72333107Y-36060703D02*
X72608850Y-36029848D01*
X72608850Y-36029848D02*
X72720645Y-36027071D01*
X91765892Y-31026073D02*
X106005278Y-31025537D01*
X51460425Y-50682975D02*
X51485301Y-50354530D01*
X51485301Y-50354530D02*
X51557434Y-50041640D01*
X51557434Y-50041640D02*
X51673165Y-49747961D01*
X51673165Y-49747961D02*
X51828835Y-49477152D01*
X51828835Y-49477152D02*
X52020786Y-49232871D01*
X52020786Y-49232871D02*
X52245360Y-49018776D01*
X52245360Y-49018776D02*
X52498898Y-48838525D01*
X52498898Y-48838525D02*
X52777742Y-48695775D01*
X52777742Y-48695775D02*
X53078234Y-48594186D01*
X53078234Y-48594186D02*
X53396715Y-48537414D01*
X53396715Y-48537414D02*
X53617224Y-48526272D01*
X108486229Y-33531712D02*
X108460889Y-36027407D01*
X125010556Y-36026790D02*
X125316792Y-36045966D01*
X125316792Y-36045966D02*
X125615713Y-36102614D01*
X125615713Y-36102614D02*
X125904065Y-36195366D01*
X125904065Y-36195366D02*
X126178591Y-36322853D01*
X126178591Y-36322853D02*
X126436035Y-36483708D01*
X126436035Y-36483708D02*
X126673144Y-36676564D01*
X126673144Y-36676564D02*
X126761564Y-36762361D01*
X107768538Y-31761096D02*
X107971552Y-31993428D01*
X107971552Y-31993428D02*
X108142841Y-32246945D01*
X108142841Y-32246945D02*
X108281087Y-32518395D01*
X108281087Y-32518395D02*
X108384974Y-32804530D01*
X108384974Y-32804530D02*
X108453183Y-33102097D01*
X108453183Y-33102097D02*
X108484397Y-33407848D01*
X108484397Y-33407848D02*
X108486229Y-33531712D01*
X90144071Y-31702802D02*
X90355854Y-31513892D01*
X90355854Y-31513892D02*
X90587422Y-31353964D01*
X90587422Y-31353964D02*
X90835796Y-31224261D01*
X90835796Y-31224261D02*
X91097999Y-31126024D01*
X91097999Y-31126024D02*
X91371053Y-31060496D01*
X91371053Y-31060496D02*
X91651982Y-31028919D01*
X91651982Y-31028919D02*
X91765892Y-31026073D01*
X70471881Y-38284649D02*
X70488034Y-38006588D01*
X70488034Y-38006588D02*
X70537891Y-37734902D01*
X70537891Y-37734902D02*
X70620257Y-37472494D01*
X70620257Y-37472494D02*
X70733940Y-37222271D01*
X70733940Y-37222271D02*
X70877745Y-36987138D01*
X70877745Y-36987138D02*
X71050478Y-36770000D01*
X71050478Y-36770000D02*
X71127405Y-36688835D01*
X108460889Y-36027407D02*
X125010556Y-36026790D01*
X89484135Y-33331526D02*
X89498856Y-33048112D01*
X89498856Y-33048112D02*
X89548092Y-32771026D01*
X89548092Y-32771026D02*
X89630632Y-32503259D01*
X89630632Y-32503259D02*
X89745264Y-32247799D01*
X89745264Y-32247799D02*
X89890778Y-32007637D01*
X89890778Y-32007637D02*
X90065961Y-31785762D01*
X90065961Y-31785762D02*
X90144071Y-31702802D01*
X53617224Y-48526272D02*
X70511889Y-48525643D01*
X164836161Y-124992600D02*
X170189197Y-110362672D01*
X169055493Y-107939904D02*
X169318602Y-108058808D01*
X169318602Y-108058808D02*
X169554800Y-108211934D01*
X169554800Y-108211934D02*
X169762171Y-108395186D01*
X169762171Y-108395186D02*
X169938798Y-108604470D01*
X169938798Y-108604470D02*
X170082766Y-108835692D01*
X170082766Y-108835692D02*
X170192159Y-109084757D01*
X170192159Y-109084757D02*
X170265060Y-109347570D01*
X170265060Y-109347570D02*
X170299554Y-109620037D01*
X170299554Y-109620037D02*
X170293724Y-109898063D01*
X170293724Y-109898063D02*
X170245655Y-110177553D01*
X170245655Y-110177553D02*
X170189197Y-110362672D01*
X164836161Y-124992600D02*
X164717256Y-125255709D01*
X164717256Y-125255709D02*
X164564130Y-125491907D01*
X164564130Y-125491907D02*
X164380878Y-125699278D01*
X164380878Y-125699278D02*
X164171594Y-125875905D01*
X164171594Y-125875905D02*
X163940372Y-126019873D01*
X163940372Y-126019873D02*
X163691307Y-126129266D01*
X163691307Y-126129266D02*
X163428494Y-126202167D01*
X163428494Y-126202167D02*
X163156027Y-126236661D01*
X163156027Y-126236661D02*
X162878001Y-126230831D01*
X162878001Y-126230831D02*
X162598511Y-126182762D01*
X162598511Y-126182762D02*
X162413393Y-126126304D01*
M02*
