%TF.GenerationSoftware,KiCad,Pcbnew,(5.1.10)-1*%
%TF.CreationDate,2021-12-10T08:58:01-08:00*%
%TF.ProjectId,5col-bottomplate,35636f6c-2d62-46f7-9474-6f6d706c6174,rev?*%
%TF.SameCoordinates,Original*%
%TF.FileFunction,Legend,Bot*%
%TF.FilePolarity,Positive*%
%FSLAX46Y46*%
G04 Gerber Fmt 4.6, Leading zero omitted, Abs format (unit mm)*
G04 Created by KiCad (PCBNEW (5.1.10)-1) date 2021-12-10 08:58:01*
%MOMM*%
%LPD*%
G01*
G04 APERTURE LIST*
%ADD10C,0.250000*%
%ADD11C,0.300000*%
G04 APERTURE END LIST*
D10*
X130549780Y-73031737D02*
X130746257Y-72776509D01*
X130746257Y-72776509D02*
X130950818Y-72531686D01*
X130950818Y-72531686D02*
X131162863Y-72297206D01*
X131162863Y-72297206D02*
X131381796Y-72073010D01*
X131381796Y-72073010D02*
X131607017Y-71859035D01*
X131607017Y-71859035D02*
X131837928Y-71655222D01*
X131837928Y-71655222D02*
X132073930Y-71461510D01*
X132073930Y-71461510D02*
X132314426Y-71277838D01*
X132314426Y-71277838D02*
X132558817Y-71104147D01*
X132558817Y-71104147D02*
X132806505Y-70940375D01*
X132806505Y-70940375D02*
X133056892Y-70786462D01*
X133056892Y-70786462D02*
X133309378Y-70642348D01*
X133309378Y-70642348D02*
X133563367Y-70507971D01*
X133563367Y-70507971D02*
X133818259Y-70383271D01*
X133818259Y-70383271D02*
X134073456Y-70268188D01*
X134073456Y-70268188D02*
X134328360Y-70162661D01*
X134328360Y-70162661D02*
X134582373Y-70066630D01*
X134582373Y-70066630D02*
X134834896Y-69980034D01*
X134834896Y-69980034D02*
X135085331Y-69902812D01*
X135085331Y-69902812D02*
X135333079Y-69834904D01*
X135333079Y-69834904D02*
X135577543Y-69776249D01*
X135577543Y-69776249D02*
X136054223Y-69686457D01*
X136054223Y-69686457D02*
X136510585Y-69632952D01*
X136510585Y-69632952D02*
X136941842Y-69615249D01*
X136941842Y-69615249D02*
X137343207Y-69632863D01*
X137343207Y-69632863D02*
X137709894Y-69685311D01*
X137709894Y-69685311D02*
X137878738Y-69724446D01*
X69100301Y-78349862D02*
X69084006Y-78072188D01*
X69084006Y-78072188D02*
X69066523Y-77795345D01*
X69066523Y-77795345D02*
X69042869Y-77520163D01*
X69042869Y-77520163D02*
X69008058Y-77247474D01*
X69008058Y-77247474D02*
X68981238Y-77093091D01*
X124755405Y-70346216D02*
X124755405Y-70346216D01*
X67764155Y-83178508D02*
X67914727Y-82948987D01*
X67914727Y-82948987D02*
X68053904Y-82711869D01*
X68053904Y-82711869D02*
X68181688Y-82467156D01*
X68181688Y-82467156D02*
X68298076Y-82214845D01*
X68298076Y-82214845D02*
X68359468Y-82067258D01*
X61572905Y-87147258D02*
X61808775Y-87019379D01*
X61808775Y-87019379D02*
X62059958Y-86946811D01*
X62059958Y-86946811D02*
X62318975Y-86901306D01*
X62318975Y-86901306D02*
X62578347Y-86854614D01*
X62578347Y-86854614D02*
X62723843Y-86816529D01*
X62723843Y-86816529D02*
X62985775Y-86734025D01*
X62985775Y-86734025D02*
X63249014Y-86654607D01*
X63249014Y-86654607D02*
X63511065Y-86569966D01*
X63511065Y-86569966D02*
X63769438Y-86471795D01*
X63769438Y-86471795D02*
X63914468Y-86406425D01*
X121434884Y-81934966D02*
X121537778Y-82235590D01*
X121537778Y-82235590D02*
X121652803Y-82527358D01*
X121652803Y-82527358D02*
X121779688Y-82810407D01*
X121779688Y-82810407D02*
X121918162Y-83084870D01*
X121918162Y-83084870D02*
X122067952Y-83350884D01*
X122067952Y-83350884D02*
X122228789Y-83608585D01*
X122228789Y-83608585D02*
X122400400Y-83858108D01*
X122400400Y-83858108D02*
X122582514Y-84099589D01*
X122582514Y-84099589D02*
X122774860Y-84333163D01*
X122774860Y-84333163D02*
X122977167Y-84558966D01*
X122977167Y-84558966D02*
X123189163Y-84777134D01*
X123189163Y-84777134D02*
X123410577Y-84987803D01*
X123410577Y-84987803D02*
X123641138Y-85191108D01*
X123641138Y-85191108D02*
X123880574Y-85387185D01*
X123880574Y-85387185D02*
X124128614Y-85576168D01*
X124128614Y-85576168D02*
X124384988Y-85758196D01*
X74590405Y-86313821D02*
X74810707Y-86162556D01*
X74810707Y-86162556D02*
X75021276Y-86018531D01*
X75021276Y-86018531D02*
X75252141Y-85857469D01*
X75252141Y-85857469D02*
X75474944Y-85694236D01*
X75474944Y-85694236D02*
X75529676Y-85652362D01*
X69087072Y-83429862D02*
X68879484Y-83719750D01*
X68879484Y-83719750D02*
X68663506Y-83999000D01*
X68663506Y-83999000D02*
X68439117Y-84267514D01*
X68439117Y-84267514D02*
X68206298Y-84525195D01*
X68206298Y-84525195D02*
X67965031Y-84771947D01*
X67965031Y-84771947D02*
X67715295Y-85007672D01*
X67715295Y-85007672D02*
X67457071Y-85232274D01*
X67457071Y-85232274D02*
X67190340Y-85445656D01*
X67190340Y-85445656D02*
X66915082Y-85647720D01*
X66915082Y-85647720D02*
X66631278Y-85838371D01*
X66631278Y-85838371D02*
X66338909Y-86017511D01*
X66338909Y-86017511D02*
X66037955Y-86185042D01*
X66037955Y-86185042D02*
X65728397Y-86340869D01*
X65728397Y-86340869D02*
X65410216Y-86484895D01*
X65410216Y-86484895D02*
X65083391Y-86617022D01*
X65083391Y-86617022D02*
X64747905Y-86737154D01*
X124517280Y-70584341D02*
X124167491Y-70804592D01*
X124167491Y-70804592D02*
X123837295Y-71038525D01*
X123837295Y-71038525D02*
X123526439Y-71285868D01*
X123526439Y-71285868D02*
X123234670Y-71546349D01*
X123234670Y-71546349D02*
X122961738Y-71819698D01*
X122961738Y-71819698D02*
X122707390Y-72105644D01*
X122707390Y-72105644D02*
X122471374Y-72403914D01*
X122471374Y-72403914D02*
X122253438Y-72714237D01*
X122253438Y-72714237D02*
X122053331Y-73036343D01*
X122053331Y-73036343D02*
X121870800Y-73369959D01*
X121870800Y-73369959D02*
X121705594Y-73714816D01*
X121705594Y-73714816D02*
X121557460Y-74070640D01*
X121557460Y-74070640D02*
X121426147Y-74437162D01*
X121426147Y-74437162D02*
X121311403Y-74814109D01*
X121311403Y-74814109D02*
X121212975Y-75201211D01*
X121212975Y-75201211D02*
X121130613Y-75598196D01*
X108218947Y-77728091D02*
X108239012Y-78190226D01*
X108239012Y-78190226D02*
X108235141Y-78646122D01*
X108235141Y-78646122D02*
X108207966Y-79095275D01*
X108207966Y-79095275D02*
X108158123Y-79537179D01*
X108158123Y-79537179D02*
X108086247Y-79971332D01*
X108086247Y-79971332D02*
X107992972Y-80397230D01*
X107992972Y-80397230D02*
X107878932Y-80814369D01*
X107878932Y-80814369D02*
X107744763Y-81222244D01*
X107744763Y-81222244D02*
X107591100Y-81620353D01*
X107591100Y-81620353D02*
X107418575Y-82008191D01*
X107418575Y-82008191D02*
X107227826Y-82385255D01*
X107227826Y-82385255D02*
X107019485Y-82751040D01*
X107019485Y-82751040D02*
X106794188Y-83105043D01*
X106794188Y-83105043D02*
X106552569Y-83446760D01*
X106552569Y-83446760D02*
X106295263Y-83775687D01*
X106295263Y-83775687D02*
X106022905Y-84091320D01*
X106022905Y-84091320D02*
X105736129Y-84393156D01*
X105736129Y-84393156D02*
X105435570Y-84680690D01*
X105435570Y-84680690D02*
X105121862Y-84953419D01*
X105121862Y-84953419D02*
X104795641Y-85210838D01*
X104795641Y-85210838D02*
X104457541Y-85452445D01*
X104457541Y-85452445D02*
X104108196Y-85677735D01*
X104108196Y-85677735D02*
X103748241Y-85886204D01*
X103748241Y-85886204D02*
X103378312Y-86077349D01*
X103378312Y-86077349D02*
X102999041Y-86250665D01*
X102999041Y-86250665D02*
X102611065Y-86405649D01*
X102611065Y-86405649D02*
X102215018Y-86541797D01*
X102215018Y-86541797D02*
X101811534Y-86658605D01*
X101811534Y-86658605D02*
X101401248Y-86755569D01*
X101401248Y-86755569D02*
X100984795Y-86832186D01*
X100984795Y-86832186D02*
X100562809Y-86887951D01*
X100562809Y-86887951D02*
X100135926Y-86922362D01*
X84499051Y-73084654D02*
X84738737Y-73401017D01*
X84738737Y-73401017D02*
X84961745Y-73724673D01*
X84961745Y-73724673D02*
X85168141Y-74055081D01*
X85168141Y-74055081D02*
X85357990Y-74391706D01*
X85357990Y-74391706D02*
X85531358Y-74734008D01*
X85531358Y-74734008D02*
X85688309Y-75081450D01*
X85688309Y-75081450D02*
X85828910Y-75433495D01*
X85828910Y-75433495D02*
X85953225Y-75789605D01*
X85953225Y-75789605D02*
X86061321Y-76149241D01*
X86061321Y-76149241D02*
X86153261Y-76511867D01*
X86153261Y-76511867D02*
X86229113Y-76876944D01*
X86229113Y-76876944D02*
X86288941Y-77243935D01*
X86288941Y-77243935D02*
X86332811Y-77612301D01*
X86332811Y-77612301D02*
X86360788Y-77981506D01*
X86360788Y-77981506D02*
X86372937Y-78351011D01*
X86372937Y-78351011D02*
X86369324Y-78720279D01*
X86369324Y-78720279D02*
X86350014Y-79088771D01*
X86350014Y-79088771D02*
X86315073Y-79455951D01*
X86315073Y-79455951D02*
X86264566Y-79821280D01*
X86264566Y-79821280D02*
X86198559Y-80184220D01*
X86198559Y-80184220D02*
X86117117Y-80544234D01*
X86117117Y-80544234D02*
X86020304Y-80900785D01*
X86020304Y-80900785D02*
X85908188Y-81253334D01*
X85908188Y-81253334D02*
X85780833Y-81601343D01*
X85780833Y-81601343D02*
X85638304Y-81944275D01*
X85638304Y-81944275D02*
X85480667Y-82281592D01*
X85480667Y-82281592D02*
X85307987Y-82612756D01*
X85307987Y-82612756D02*
X85120330Y-82937230D01*
X85120330Y-82937230D02*
X84917761Y-83254476D01*
X84917761Y-83254476D02*
X84700346Y-83563955D01*
X84700346Y-83563955D02*
X84468150Y-83865131D01*
X84468150Y-83865131D02*
X84221238Y-84157466D01*
X64747905Y-86737154D02*
X64456992Y-86829270D01*
X64456992Y-86829270D02*
X64164684Y-86911794D01*
X64164684Y-86911794D02*
X63870981Y-86984202D01*
X63870981Y-86984202D02*
X63575883Y-87045972D01*
X63575883Y-87045972D02*
X63279390Y-87096579D01*
X63279390Y-87096579D02*
X62981501Y-87135501D01*
X62981501Y-87135501D02*
X62682217Y-87162214D01*
X62682217Y-87162214D02*
X62381537Y-87176196D01*
X62381537Y-87176196D02*
X62079463Y-87176923D01*
X62079463Y-87176923D02*
X61775993Y-87163871D01*
X61775993Y-87163871D02*
X61572905Y-87147258D01*
X84221238Y-84157466D02*
X83941375Y-84459177D01*
X83941375Y-84459177D02*
X83652932Y-84741968D01*
X83652932Y-84741968D02*
X83356632Y-85006218D01*
X83356632Y-85006218D02*
X83053195Y-85252308D01*
X83053195Y-85252308D02*
X82743344Y-85480618D01*
X82743344Y-85480618D02*
X82427800Y-85691529D01*
X82427800Y-85691529D02*
X82107286Y-85885420D01*
X82107286Y-85885420D02*
X81782523Y-86062672D01*
X81782523Y-86062672D02*
X81454233Y-86223666D01*
X81454233Y-86223666D02*
X81123139Y-86368781D01*
X81123139Y-86368781D02*
X80789960Y-86498398D01*
X80789960Y-86498398D02*
X80455421Y-86612897D01*
X80455421Y-86612897D02*
X80120242Y-86712659D01*
X80120242Y-86712659D02*
X79785145Y-86798064D01*
X79785145Y-86798064D02*
X79450853Y-86869492D01*
X79450853Y-86869492D02*
X79118087Y-86927323D01*
X79118087Y-86927323D02*
X78787568Y-86971938D01*
X78787568Y-86971938D02*
X78460019Y-87003717D01*
X78460019Y-87003717D02*
X78136162Y-87023040D01*
X78136162Y-87023040D02*
X77816719Y-87030288D01*
X77816719Y-87030288D02*
X77502411Y-87025841D01*
X77502411Y-87025841D02*
X77193960Y-87010080D01*
X77193960Y-87010080D02*
X76892088Y-86983383D01*
X76892088Y-86983383D02*
X76597517Y-86946133D01*
X76597517Y-86946133D02*
X76310969Y-86898709D01*
X76310969Y-86898709D02*
X76033165Y-86841492D01*
X76033165Y-86841492D02*
X75764828Y-86774861D01*
X75764828Y-86774861D02*
X75506679Y-86699197D01*
X75506679Y-86699197D02*
X75259441Y-86614881D01*
X75259441Y-86614881D02*
X75023834Y-86522293D01*
X75023834Y-86522293D02*
X74590405Y-86313821D01*
X68796030Y-80889862D02*
X68868744Y-80610427D01*
X68868744Y-80610427D02*
X68931726Y-80328856D01*
X68931726Y-80328856D02*
X68986636Y-80046810D01*
X68986636Y-80046810D02*
X69035136Y-79765951D01*
X69035136Y-79765951D02*
X69060613Y-79606633D01*
X61387697Y-70094862D02*
X61784665Y-70026297D01*
X61784665Y-70026297D02*
X62208861Y-69994067D01*
X62208861Y-69994067D02*
X62656194Y-69997920D01*
X62656194Y-69997920D02*
X63122577Y-70037604D01*
X63122577Y-70037604D02*
X63603921Y-70112867D01*
X63603921Y-70112867D02*
X63848925Y-70163763D01*
X63848925Y-70163763D02*
X64096135Y-70223458D01*
X64096135Y-70223458D02*
X64345042Y-70291923D01*
X64345042Y-70291923D02*
X64595133Y-70369124D01*
X64595133Y-70369124D02*
X64845897Y-70455032D01*
X64845897Y-70455032D02*
X65096824Y-70549614D01*
X65096824Y-70549614D02*
X65347402Y-70652839D01*
X65347402Y-70652839D02*
X65597119Y-70764675D01*
X65597119Y-70764675D02*
X65845466Y-70885092D01*
X65845466Y-70885092D02*
X66091931Y-71014056D01*
X66091931Y-71014056D02*
X66336002Y-71151538D01*
X66336002Y-71151538D02*
X66577169Y-71297505D01*
X66577169Y-71297505D02*
X66814921Y-71451926D01*
X66814921Y-71451926D02*
X67048746Y-71614769D01*
X67048746Y-71614769D02*
X67278133Y-71786003D01*
X67278133Y-71786003D02*
X67502572Y-71965597D01*
X67502572Y-71965597D02*
X67721550Y-72153519D01*
X67721550Y-72153519D02*
X67934558Y-72349737D01*
X67934558Y-72349737D02*
X68141083Y-72554221D01*
X68141083Y-72554221D02*
X68340615Y-72766937D01*
X68340615Y-72766937D02*
X68532642Y-72987856D01*
X68532642Y-72987856D02*
X68716655Y-73216946D01*
X130695301Y-83615071D02*
X130472722Y-83325004D01*
X130472722Y-83325004D02*
X130263896Y-83028075D01*
X130263896Y-83028075D02*
X130068853Y-82724707D01*
X130068853Y-82724707D02*
X129887624Y-82415324D01*
X129887624Y-82415324D02*
X129720241Y-82100351D01*
X129720241Y-82100351D02*
X129566736Y-81780211D01*
X129566736Y-81780211D02*
X129427139Y-81455328D01*
X129427139Y-81455328D02*
X129301484Y-81126127D01*
X129301484Y-81126127D02*
X129189800Y-80793030D01*
X129189800Y-80793030D02*
X129092120Y-80456461D01*
X129092120Y-80456461D02*
X129008475Y-80116846D01*
X129008475Y-80116846D02*
X128938896Y-79774607D01*
X128938896Y-79774607D02*
X128883415Y-79430169D01*
X128883415Y-79430169D02*
X128842064Y-79083955D01*
X128842064Y-79083955D02*
X128814874Y-78736389D01*
X128814874Y-78736389D02*
X128801876Y-78387896D01*
X128801876Y-78387896D02*
X128803102Y-78038898D01*
X128803102Y-78038898D02*
X128818584Y-77689821D01*
X128818584Y-77689821D02*
X128848352Y-77341088D01*
X128848352Y-77341088D02*
X128892439Y-76993123D01*
X128892439Y-76993123D02*
X128950876Y-76646349D01*
X128950876Y-76646349D02*
X129023694Y-76301192D01*
X129023694Y-76301192D02*
X129110925Y-75958073D01*
X129110925Y-75958073D02*
X129212600Y-75617419D01*
X129212600Y-75617419D02*
X129328752Y-75279651D01*
X129328752Y-75279651D02*
X129459410Y-74945195D01*
X129459410Y-74945195D02*
X129604608Y-74614475D01*
X129604608Y-74614475D02*
X129764375Y-74287913D01*
X129764375Y-74287913D02*
X129938745Y-73965935D01*
X129938745Y-73965935D02*
X130127748Y-73648963D01*
X130127748Y-73648963D02*
X130331416Y-73337422D01*
X130331416Y-73337422D02*
X130549780Y-73031737D01*
X69060613Y-79606633D02*
X69094941Y-79330442D01*
X69094941Y-79330442D02*
X69112770Y-79056389D01*
X69112770Y-79056389D02*
X69116594Y-78782809D01*
X69116594Y-78782809D02*
X69108905Y-78508043D01*
X69108905Y-78508043D02*
X69100301Y-78349862D01*
X63914468Y-86406425D02*
X64174640Y-86277545D01*
X64174640Y-86277545D02*
X64433150Y-86149140D01*
X64433150Y-86149140D02*
X64688337Y-86017887D01*
X64688337Y-86017887D02*
X64938539Y-85880461D01*
X64938539Y-85880461D02*
X65078634Y-85797883D01*
X124384988Y-85758196D02*
X124608157Y-85891218D01*
X124608157Y-85891218D02*
X124802986Y-86068932D01*
X124802986Y-86068932D02*
X124821551Y-86102154D01*
X75529676Y-85652362D02*
X75767490Y-85465099D01*
X75767490Y-85465099D02*
X75994763Y-85270473D01*
X75994763Y-85270473D02*
X76211494Y-85068560D01*
X76211494Y-85068560D02*
X76417683Y-84859439D01*
X76417683Y-84859439D02*
X76613330Y-84643186D01*
X76613330Y-84643186D02*
X76798435Y-84419879D01*
X76798435Y-84419879D02*
X76972998Y-84189596D01*
X76972998Y-84189596D02*
X77137019Y-83952414D01*
X77137019Y-83952414D02*
X77290498Y-83708411D01*
X77290498Y-83708411D02*
X77433435Y-83457664D01*
X77433435Y-83457664D02*
X77565830Y-83200251D01*
X77565830Y-83200251D02*
X77687683Y-82936249D01*
X77687683Y-82936249D02*
X77798994Y-82665735D01*
X77798994Y-82665735D02*
X77899763Y-82388789D01*
X77899763Y-82388789D02*
X77989990Y-82105485D01*
X77989990Y-82105485D02*
X78069676Y-81815904D01*
X132309259Y-83694446D02*
X132589984Y-84012905D01*
X132589984Y-84012905D02*
X132881368Y-84313555D01*
X132881368Y-84313555D02*
X133183217Y-84596571D01*
X133183217Y-84596571D02*
X133495336Y-84862126D01*
X133495336Y-84862126D02*
X133817532Y-85110396D01*
X133817532Y-85110396D02*
X134149612Y-85341554D01*
X134149612Y-85341554D02*
X134491380Y-85555776D01*
X134491380Y-85555776D02*
X134842644Y-85753234D01*
X134842644Y-85753234D02*
X135203210Y-85934105D01*
X135203210Y-85934105D02*
X135572884Y-86098562D01*
X135572884Y-86098562D02*
X135951472Y-86246780D01*
X135951472Y-86246780D02*
X136338780Y-86378932D01*
X136338780Y-86378932D02*
X136734615Y-86495195D01*
X136734615Y-86495195D02*
X137138783Y-86595741D01*
X137138783Y-86595741D02*
X137551090Y-86680745D01*
X137551090Y-86680745D02*
X137971343Y-86750383D01*
X130298426Y-77595800D02*
X130280749Y-78024443D01*
X130280749Y-78024443D02*
X130282277Y-78447117D01*
X130282277Y-78447117D02*
X130302989Y-78863745D01*
X130302989Y-78863745D02*
X130342867Y-79274250D01*
X130342867Y-79274250D02*
X130401891Y-79678554D01*
X130401891Y-79678554D02*
X130480042Y-80076578D01*
X130480042Y-80076578D02*
X130577301Y-80468247D01*
X130577301Y-80468247D02*
X130693647Y-80853482D01*
X130693647Y-80853482D02*
X130829062Y-81232206D01*
X130829062Y-81232206D02*
X130983526Y-81604340D01*
X130983526Y-81604340D02*
X131157020Y-81969809D01*
X131157020Y-81969809D02*
X131349524Y-82328534D01*
X131349524Y-82328534D02*
X131561020Y-82680438D01*
X131561020Y-82680438D02*
X131791487Y-83025442D01*
X131791487Y-83025442D02*
X132040906Y-83363471D01*
X132040906Y-83363471D02*
X132309259Y-83694446D01*
X66097280Y-85057050D02*
X66303601Y-84872697D01*
X66303601Y-84872697D02*
X66505294Y-84683716D01*
X66505294Y-84683716D02*
X66701527Y-84489275D01*
X66701527Y-84489275D02*
X66891469Y-84288544D01*
X66891469Y-84288544D02*
X66996863Y-84170696D01*
X66996863Y-84170696D02*
X67175517Y-83958953D01*
X67175517Y-83958953D02*
X67347407Y-83742107D01*
X67347407Y-83742107D02*
X67513361Y-83522650D01*
X67513361Y-83522650D02*
X67674212Y-83303074D01*
X67674212Y-83303074D02*
X67764155Y-83178508D01*
X137971343Y-86750383D02*
X137711907Y-86797342D01*
X137711907Y-86797342D02*
X137454368Y-86827471D01*
X137454368Y-86827471D02*
X137198530Y-86842078D01*
X137198530Y-86842078D02*
X136944196Y-86842470D01*
X136944196Y-86842470D02*
X136691170Y-86829956D01*
X136691170Y-86829956D02*
X136439256Y-86805845D01*
X136439256Y-86805845D02*
X136188257Y-86771443D01*
X136188257Y-86771443D02*
X135937978Y-86728059D01*
X135937978Y-86728059D02*
X135688222Y-86677001D01*
X135688222Y-86677001D02*
X135438794Y-86619577D01*
X135438794Y-86619577D02*
X135272593Y-86578404D01*
X74590405Y-86313821D02*
X74590405Y-86313821D01*
X121130613Y-75598196D02*
X121061360Y-75997538D01*
X121061360Y-75997538D02*
X121002610Y-76396803D01*
X121002610Y-76396803D02*
X120954635Y-76795913D01*
X120954635Y-76795913D02*
X120917706Y-77194790D01*
X120917706Y-77194790D02*
X120892094Y-77593357D01*
X120892094Y-77593357D02*
X120878070Y-77991537D01*
X120878070Y-77991537D02*
X120875906Y-78389252D01*
X120875906Y-78389252D02*
X120885873Y-78786424D01*
X120885873Y-78786424D02*
X120908243Y-79182976D01*
X120908243Y-79182976D02*
X120943286Y-79578830D01*
X120943286Y-79578830D02*
X120991274Y-79973910D01*
X120991274Y-79973910D02*
X121052478Y-80368136D01*
X121052478Y-80368136D02*
X121127170Y-80761433D01*
X121127170Y-80761433D02*
X121215620Y-81153721D01*
X121215620Y-81153721D02*
X121318101Y-81544925D01*
X121318101Y-81544925D02*
X121434884Y-81934966D01*
X74497801Y-70610800D02*
X74750266Y-70491628D01*
X74750266Y-70491628D02*
X75013583Y-70382348D01*
X75013583Y-70382348D02*
X75287055Y-70283236D01*
X75287055Y-70283236D02*
X75569983Y-70194572D01*
X75569983Y-70194572D02*
X75861671Y-70116633D01*
X75861671Y-70116633D02*
X76161420Y-70049700D01*
X76161420Y-70049700D02*
X76468533Y-69994050D01*
X76468533Y-69994050D02*
X76782312Y-69949961D01*
X76782312Y-69949961D02*
X77102060Y-69917713D01*
X77102060Y-69917713D02*
X77427079Y-69897584D01*
X77427079Y-69897584D02*
X77756671Y-69889852D01*
X77756671Y-69889852D02*
X78090139Y-69894796D01*
X78090139Y-69894796D02*
X78426785Y-69912695D01*
X78426785Y-69912695D02*
X78765912Y-69943828D01*
X78765912Y-69943828D02*
X79106821Y-69988472D01*
X79106821Y-69988472D02*
X79448816Y-70046906D01*
X79448816Y-70046906D02*
X79791198Y-70119409D01*
X79791198Y-70119409D02*
X80133270Y-70206260D01*
X80133270Y-70206260D02*
X80474335Y-70307737D01*
X80474335Y-70307737D02*
X80813694Y-70424118D01*
X80813694Y-70424118D02*
X81150650Y-70555683D01*
X81150650Y-70555683D02*
X81484506Y-70702709D01*
X81484506Y-70702709D02*
X81814563Y-70865476D01*
X81814563Y-70865476D02*
X82140125Y-71044261D01*
X82140125Y-71044261D02*
X82460493Y-71239344D01*
X82460493Y-71239344D02*
X82774970Y-71451003D01*
X82774970Y-71451003D02*
X83082858Y-71679517D01*
X83082858Y-71679517D02*
X83383460Y-71925163D01*
X83383460Y-71925163D02*
X83676077Y-72188222D01*
X83676077Y-72188222D02*
X83960014Y-72468971D01*
X83960014Y-72468971D02*
X84234571Y-72767688D01*
X84234571Y-72767688D02*
X84499051Y-73084654D01*
X100135926Y-86922362D02*
X99701390Y-86935690D01*
X99701390Y-86935690D02*
X99268943Y-86926363D01*
X99268943Y-86926363D02*
X98839355Y-86894823D01*
X98839355Y-86894823D02*
X98413395Y-86841514D01*
X98413395Y-86841514D02*
X97991834Y-86766878D01*
X97991834Y-86766878D02*
X97575442Y-86671360D01*
X97575442Y-86671360D02*
X97164990Y-86555401D01*
X97164990Y-86555401D02*
X96761248Y-86419447D01*
X96761248Y-86419447D02*
X96364985Y-86263939D01*
X96364985Y-86263939D02*
X95976974Y-86089322D01*
X95976974Y-86089322D02*
X95597983Y-85896038D01*
X95597983Y-85896038D02*
X95228783Y-85684530D01*
X95228783Y-85684530D02*
X94870145Y-85455243D01*
X94870145Y-85455243D02*
X94522838Y-85208620D01*
X94522838Y-85208620D02*
X94187633Y-84945102D01*
X94187633Y-84945102D02*
X93865300Y-84665135D01*
X93865300Y-84665135D02*
X93556610Y-84369161D01*
X93556610Y-84369161D02*
X93262333Y-84057624D01*
X93262333Y-84057624D02*
X92983239Y-83730966D01*
X92983239Y-83730966D02*
X92720099Y-83389632D01*
X92720099Y-83389632D02*
X92473682Y-83034064D01*
X92473682Y-83034064D02*
X92244760Y-82664705D01*
X92244760Y-82664705D02*
X92034102Y-82281999D01*
X92034102Y-82281999D02*
X91842478Y-81886390D01*
X91842478Y-81886390D02*
X91670660Y-81478320D01*
X91670660Y-81478320D02*
X91519417Y-81058233D01*
X91519417Y-81058233D02*
X91389519Y-80626572D01*
X91389519Y-80626572D02*
X91281737Y-80183781D01*
X91281737Y-80183781D02*
X91196842Y-79730302D01*
X91196842Y-79730302D02*
X91135603Y-79266579D01*
X91135603Y-79266579D02*
X91098791Y-78793056D01*
X91098791Y-78793056D02*
X91087176Y-78310175D01*
X137878738Y-69724446D02*
X137878738Y-69724446D01*
X68981238Y-77093091D02*
X68912071Y-76764949D01*
X68912071Y-76764949D02*
X68831137Y-76440550D01*
X68831137Y-76440550D02*
X68738527Y-76120225D01*
X68738527Y-76120225D02*
X68634334Y-75804306D01*
X68634334Y-75804306D02*
X68518649Y-75493126D01*
X68518649Y-75493126D02*
X68391564Y-75187015D01*
X68391564Y-75187015D02*
X68253173Y-74886306D01*
X68253173Y-74886306D02*
X68103565Y-74591331D01*
X68103565Y-74591331D02*
X67942835Y-74302422D01*
X67942835Y-74302422D02*
X67771073Y-74019909D01*
X67771073Y-74019909D02*
X67588371Y-73744126D01*
X67588371Y-73744126D02*
X67394823Y-73475405D01*
X67394823Y-73475405D02*
X67190520Y-73214076D01*
X67190520Y-73214076D02*
X66975553Y-72960472D01*
X66975553Y-72960472D02*
X66750015Y-72714924D01*
X66750015Y-72714924D02*
X66513998Y-72477765D01*
X66513998Y-72477765D02*
X66267595Y-72249327D01*
X66267595Y-72249327D02*
X66010896Y-72029941D01*
X66010896Y-72029941D02*
X65743995Y-71819938D01*
X65743995Y-71819938D02*
X65466982Y-71619652D01*
X65466982Y-71619652D02*
X65179951Y-71429414D01*
X65179951Y-71429414D02*
X64882993Y-71249555D01*
X64882993Y-71249555D02*
X64576201Y-71080408D01*
X64576201Y-71080408D02*
X64259666Y-70922305D01*
X64259666Y-70922305D02*
X63933480Y-70775576D01*
X63933480Y-70775576D02*
X63597736Y-70640555D01*
X63597736Y-70640555D02*
X63252525Y-70517573D01*
X63252525Y-70517573D02*
X62897940Y-70406961D01*
X62897940Y-70406961D02*
X62534073Y-70309053D01*
X62534073Y-70309053D02*
X62161015Y-70224179D01*
X62161015Y-70224179D02*
X61778859Y-70152671D01*
X61778859Y-70152671D02*
X61387697Y-70094862D01*
X68359468Y-82067258D02*
X68463232Y-81813729D01*
X68463232Y-81813729D02*
X68564503Y-81557234D01*
X68564503Y-81557234D02*
X68660790Y-81298601D01*
X68660790Y-81298601D02*
X68749598Y-81038664D01*
X68749598Y-81038664D02*
X68796030Y-80889862D01*
X65078634Y-85797883D02*
X65311000Y-85648118D01*
X65311000Y-85648118D02*
X65538738Y-85492895D01*
X65538738Y-85492895D02*
X65761016Y-85330549D01*
X65761016Y-85330549D02*
X65977003Y-85159420D01*
X65977003Y-85159420D02*
X66097280Y-85057050D01*
X68716655Y-73216946D02*
X68944421Y-73523371D01*
X68944421Y-73523371D02*
X69156544Y-73834663D01*
X69156544Y-73834663D02*
X69353193Y-74150417D01*
X69353193Y-74150417D02*
X69534537Y-74470228D01*
X69534537Y-74470228D02*
X69700747Y-74793692D01*
X69700747Y-74793692D02*
X69851992Y-75120405D01*
X69851992Y-75120405D02*
X69988441Y-75449961D01*
X69988441Y-75449961D02*
X70110265Y-75781957D01*
X70110265Y-75781957D02*
X70217631Y-76115987D01*
X70217631Y-76115987D02*
X70310711Y-76451648D01*
X70310711Y-76451648D02*
X70389673Y-76788534D01*
X70389673Y-76788534D02*
X70454688Y-77126241D01*
X70454688Y-77126241D02*
X70505924Y-77464366D01*
X70505924Y-77464366D02*
X70543552Y-77802502D01*
X70543552Y-77802502D02*
X70567741Y-78140246D01*
X70567741Y-78140246D02*
X70578660Y-78477193D01*
X70578660Y-78477193D02*
X70576479Y-78812938D01*
X70576479Y-78812938D02*
X70561368Y-79147077D01*
X70561368Y-79147077D02*
X70533495Y-79479206D01*
X70533495Y-79479206D02*
X70493032Y-79808920D01*
X70493032Y-79808920D02*
X70440147Y-80135814D01*
X70440147Y-80135814D02*
X70375009Y-80459484D01*
X70375009Y-80459484D02*
X70297789Y-80779526D01*
X70297789Y-80779526D02*
X70208657Y-81095534D01*
X70208657Y-81095534D02*
X70107780Y-81407104D01*
X70107780Y-81407104D02*
X69995330Y-81713833D01*
X69995330Y-81713833D02*
X69871475Y-82015314D01*
X69871475Y-82015314D02*
X69736386Y-82311144D01*
X69736386Y-82311144D02*
X69590231Y-82600919D01*
X69590231Y-82600919D02*
X69433181Y-82884233D01*
X69433181Y-82884233D02*
X69265404Y-83160682D01*
X69265404Y-83160682D02*
X69087072Y-83429862D01*
X114886447Y-72846529D02*
X115167818Y-72519388D01*
X115167818Y-72519388D02*
X115458298Y-72212381D01*
X115458298Y-72212381D02*
X115757149Y-71925102D01*
X115757149Y-71925102D02*
X116063635Y-71657144D01*
X116063635Y-71657144D02*
X116377020Y-71408099D01*
X116377020Y-71408099D02*
X116696568Y-71177561D01*
X116696568Y-71177561D02*
X117021542Y-70965122D01*
X117021542Y-70965122D02*
X117351205Y-70770376D01*
X117351205Y-70770376D02*
X117684822Y-70592916D01*
X117684822Y-70592916D02*
X118021655Y-70432335D01*
X118021655Y-70432335D02*
X118360969Y-70288225D01*
X118360969Y-70288225D02*
X118702027Y-70160181D01*
X118702027Y-70160181D02*
X119044093Y-70047794D01*
X119044093Y-70047794D02*
X119386430Y-69950659D01*
X119386430Y-69950659D02*
X119728301Y-69868367D01*
X119728301Y-69868367D02*
X120068972Y-69800513D01*
X120068972Y-69800513D02*
X120407704Y-69746688D01*
X120407704Y-69746688D02*
X120743763Y-69706487D01*
X120743763Y-69706487D02*
X121076410Y-69679503D01*
X121076410Y-69679503D02*
X121404911Y-69665327D01*
X121404911Y-69665327D02*
X121728528Y-69663554D01*
X121728528Y-69663554D02*
X122046526Y-69673776D01*
X122046526Y-69673776D02*
X122358167Y-69695587D01*
X122358167Y-69695587D02*
X122662716Y-69728579D01*
X122662716Y-69728579D02*
X122959435Y-69772346D01*
X122959435Y-69772346D02*
X123247589Y-69826480D01*
X123247589Y-69826480D02*
X123526442Y-69890575D01*
X123526442Y-69890575D02*
X123795256Y-69964223D01*
X123795256Y-69964223D02*
X124053296Y-70047019D01*
X124053296Y-70047019D02*
X124299825Y-70138554D01*
X124299825Y-70138554D02*
X124534107Y-70238422D01*
X124534107Y-70238422D02*
X124755405Y-70346216D01*
X115058426Y-83826737D02*
X114817900Y-83536470D01*
X114817900Y-83536470D02*
X114592424Y-83236592D01*
X114592424Y-83236592D02*
X114382010Y-82927722D01*
X114382010Y-82927722D02*
X114186670Y-82610480D01*
X114186670Y-82610480D02*
X114006417Y-82285487D01*
X114006417Y-82285487D02*
X113841262Y-81953363D01*
X113841262Y-81953363D02*
X113691217Y-81614727D01*
X113691217Y-81614727D02*
X113556295Y-81270200D01*
X113556295Y-81270200D02*
X113436508Y-80920403D01*
X113436508Y-80920403D02*
X113331868Y-80565954D01*
X113331868Y-80565954D02*
X113242386Y-80207475D01*
X113242386Y-80207475D02*
X113168076Y-79845584D01*
X113168076Y-79845584D02*
X113108949Y-79480904D01*
X113108949Y-79480904D02*
X113065017Y-79114053D01*
X113065017Y-79114053D02*
X113036293Y-78745652D01*
X113036293Y-78745652D02*
X113022788Y-78376320D01*
X113022788Y-78376320D02*
X113024514Y-78006679D01*
X113024514Y-78006679D02*
X113041485Y-77637347D01*
X113041485Y-77637347D02*
X113073711Y-77268946D01*
X113073711Y-77268946D02*
X113121206Y-76902095D01*
X113121206Y-76902095D02*
X113183980Y-76537414D01*
X113183980Y-76537414D02*
X113262046Y-76175524D01*
X113262046Y-76175524D02*
X113355417Y-75817045D01*
X113355417Y-75817045D02*
X113464104Y-75462596D01*
X113464104Y-75462596D02*
X113588120Y-75112799D01*
X113588120Y-75112799D02*
X113727477Y-74768272D01*
X113727477Y-74768272D02*
X113882186Y-74429636D01*
X113882186Y-74429636D02*
X114052260Y-74097512D01*
X114052260Y-74097512D02*
X114237711Y-73772519D01*
X114237711Y-73772519D02*
X114438551Y-73455277D01*
X114438551Y-73455277D02*
X114654792Y-73146407D01*
X114654792Y-73146407D02*
X114886447Y-72846529D01*
X124755405Y-70346216D02*
X124585902Y-70543485D01*
X124585902Y-70543485D02*
X124517280Y-70584341D01*
X91087176Y-78310175D02*
X91087176Y-78310175D01*
X99051134Y-69803821D02*
X99536397Y-69784351D01*
X99536397Y-69784351D02*
X100012180Y-69789913D01*
X100012180Y-69789913D02*
X100478147Y-69819728D01*
X100478147Y-69819728D02*
X100933964Y-69873015D01*
X100933964Y-69873015D02*
X101379298Y-69948995D01*
X101379298Y-69948995D02*
X101813814Y-70046887D01*
X101813814Y-70046887D02*
X102237177Y-70165911D01*
X102237177Y-70165911D02*
X102649054Y-70305288D01*
X102649054Y-70305288D02*
X103049109Y-70464238D01*
X103049109Y-70464238D02*
X103437009Y-70641979D01*
X103437009Y-70641979D02*
X103812420Y-70837734D01*
X103812420Y-70837734D02*
X104175007Y-71050721D01*
X104175007Y-71050721D02*
X104524436Y-71280160D01*
X104524436Y-71280160D02*
X104860372Y-71525272D01*
X104860372Y-71525272D02*
X105182482Y-71785276D01*
X105182482Y-71785276D02*
X105490431Y-72059393D01*
X105490431Y-72059393D02*
X105783884Y-72346842D01*
X105783884Y-72346842D02*
X106062508Y-72646844D01*
X106062508Y-72646844D02*
X106325968Y-72958618D01*
X106325968Y-72958618D02*
X106573930Y-73281385D01*
X106573930Y-73281385D02*
X106806060Y-73614365D01*
X106806060Y-73614365D02*
X107022023Y-73956777D01*
X107022023Y-73956777D02*
X107221485Y-74307841D01*
X107221485Y-74307841D02*
X107404112Y-74666779D01*
X107404112Y-74666779D02*
X107569570Y-75032809D01*
X107569570Y-75032809D02*
X107717523Y-75405151D01*
X107717523Y-75405151D02*
X107847639Y-75783026D01*
X107847639Y-75783026D02*
X107959582Y-76165654D01*
X107959582Y-76165654D02*
X108053019Y-76552254D01*
X108053019Y-76552254D02*
X108127615Y-76942047D01*
X108127615Y-76942047D02*
X108183035Y-77334252D01*
X108183035Y-77334252D02*
X108218947Y-77728091D01*
X77937384Y-74751529D02*
X77845622Y-74479604D01*
X77845622Y-74479604D02*
X77744036Y-74214481D01*
X77744036Y-74214481D02*
X77632722Y-73956141D01*
X77632722Y-73956141D02*
X77511776Y-73704564D01*
X77511776Y-73704564D02*
X77381297Y-73459731D01*
X77381297Y-73459731D02*
X77241379Y-73221622D01*
X77241379Y-73221622D02*
X77092122Y-72990218D01*
X77092122Y-72990218D02*
X76933621Y-72765500D01*
X76933621Y-72765500D02*
X76765973Y-72547448D01*
X76765973Y-72547448D02*
X76589275Y-72336043D01*
X76589275Y-72336043D02*
X76403624Y-72131265D01*
X76403624Y-72131265D02*
X76209117Y-71933096D01*
X76209117Y-71933096D02*
X76005851Y-71741515D01*
X76005851Y-71741515D02*
X75793923Y-71556504D01*
X75793923Y-71556504D02*
X75573430Y-71378042D01*
X75573430Y-71378042D02*
X75344468Y-71206112D01*
X75344468Y-71206112D02*
X75141482Y-71059144D01*
X75141482Y-71059144D02*
X74931056Y-70913416D01*
X74931056Y-70913416D02*
X74715668Y-70765208D01*
X74715668Y-70765208D02*
X74497801Y-70610800D01*
X61387697Y-70094862D02*
X61387697Y-70094862D01*
X137878738Y-69724446D02*
X137402458Y-69807137D01*
X137402458Y-69807137D02*
X136943368Y-69908333D01*
X136943368Y-69908333D02*
X136501293Y-70027236D01*
X136501293Y-70027236D02*
X136076057Y-70163049D01*
X136076057Y-70163049D02*
X135667487Y-70314976D01*
X135667487Y-70314976D02*
X135275408Y-70482219D01*
X135275408Y-70482219D02*
X134899646Y-70663981D01*
X134899646Y-70663981D02*
X134540027Y-70859466D01*
X134540027Y-70859466D02*
X134196375Y-71067877D01*
X134196375Y-71067877D02*
X133868517Y-71288416D01*
X133868517Y-71288416D02*
X133556279Y-71520287D01*
X133556279Y-71520287D02*
X133259485Y-71762693D01*
X133259485Y-71762693D02*
X132977961Y-72014836D01*
X132977961Y-72014836D02*
X132711534Y-72275920D01*
X132711534Y-72275920D02*
X132460028Y-72545149D01*
X132460028Y-72545149D02*
X132223269Y-72821724D01*
X132223269Y-72821724D02*
X132001083Y-73104849D01*
X132001083Y-73104849D02*
X131793295Y-73393727D01*
X131793295Y-73393727D02*
X131599731Y-73687561D01*
X131599731Y-73687561D02*
X131420217Y-73985555D01*
X131420217Y-73985555D02*
X131254578Y-74286910D01*
X131254578Y-74286910D02*
X131102640Y-74590831D01*
X131102640Y-74590831D02*
X130964228Y-74896520D01*
X130964228Y-74896520D02*
X130839167Y-75203181D01*
X130839167Y-75203181D02*
X130727285Y-75510015D01*
X130727285Y-75510015D02*
X130628405Y-75816228D01*
X130628405Y-75816228D02*
X130542354Y-76121021D01*
X130542354Y-76121021D02*
X130468958Y-76423597D01*
X130468958Y-76423597D02*
X130408041Y-76723160D01*
X130408041Y-76723160D02*
X130359429Y-77018913D01*
X130359429Y-77018913D02*
X130322949Y-77310058D01*
X130322949Y-77310058D02*
X130298426Y-77595800D01*
X124821551Y-86102154D02*
X124381258Y-86308998D01*
X124381258Y-86308998D02*
X124142606Y-86401325D01*
X124142606Y-86401325D02*
X123892537Y-86485670D01*
X123892537Y-86485670D02*
X123631743Y-86561595D01*
X123631743Y-86561595D02*
X123360913Y-86628662D01*
X123360913Y-86628662D02*
X123080737Y-86686432D01*
X123080737Y-86686432D02*
X122791907Y-86734466D01*
X122791907Y-86734466D02*
X122495112Y-86772327D01*
X122495112Y-86772327D02*
X122191042Y-86799575D01*
X122191042Y-86799575D02*
X121880389Y-86815773D01*
X121880389Y-86815773D02*
X121563842Y-86820482D01*
X121563842Y-86820482D02*
X121242092Y-86813263D01*
X121242092Y-86813263D02*
X120915829Y-86793678D01*
X120915829Y-86793678D02*
X120585744Y-86761288D01*
X120585744Y-86761288D02*
X120252527Y-86715656D01*
X120252527Y-86715656D02*
X119916868Y-86656342D01*
X119916868Y-86656342D02*
X119579457Y-86582909D01*
X119579457Y-86582909D02*
X119240986Y-86494917D01*
X119240986Y-86494917D02*
X118902144Y-86391929D01*
X118902144Y-86391929D02*
X118563622Y-86273505D01*
X118563622Y-86273505D02*
X118226110Y-86139209D01*
X118226110Y-86139209D02*
X117890298Y-85988600D01*
X117890298Y-85988600D02*
X117556877Y-85821240D01*
X117556877Y-85821240D02*
X117226538Y-85636692D01*
X117226538Y-85636692D02*
X116899970Y-85434516D01*
X116899970Y-85434516D02*
X116577864Y-85214275D01*
X116577864Y-85214275D02*
X116260910Y-84975529D01*
X116260910Y-84975529D02*
X115949799Y-84717841D01*
X115949799Y-84717841D02*
X115645221Y-84440772D01*
X115645221Y-84440772D02*
X115347866Y-84143883D01*
X115347866Y-84143883D02*
X115058426Y-83826737D01*
X91087176Y-78310175D02*
X91095040Y-77895480D01*
X91095040Y-77895480D02*
X91123275Y-77485183D01*
X91123275Y-77485183D02*
X91171396Y-77079803D01*
X91171396Y-77079803D02*
X91238923Y-76679861D01*
X91238923Y-76679861D02*
X91325374Y-76285877D01*
X91325374Y-76285877D02*
X91430265Y-75898374D01*
X91430265Y-75898374D02*
X91553116Y-75517871D01*
X91553116Y-75517871D02*
X91693444Y-75144890D01*
X91693444Y-75144890D02*
X91850766Y-74779950D01*
X91850766Y-74779950D02*
X92024602Y-74423574D01*
X92024602Y-74423574D02*
X92214469Y-74076281D01*
X92214469Y-74076281D02*
X92419885Y-73738593D01*
X92419885Y-73738593D02*
X92640368Y-73411030D01*
X92640368Y-73411030D02*
X92875435Y-73094114D01*
X92875435Y-73094114D02*
X93124606Y-72788364D01*
X93124606Y-72788364D02*
X93387397Y-72494302D01*
X93387397Y-72494302D02*
X93663327Y-72212449D01*
X93663327Y-72212449D02*
X93951913Y-71943325D01*
X93951913Y-71943325D02*
X94252675Y-71687451D01*
X94252675Y-71687451D02*
X94565129Y-71445348D01*
X94565129Y-71445348D02*
X94888793Y-71217537D01*
X94888793Y-71217537D02*
X95223186Y-71004538D01*
X95223186Y-71004538D02*
X95567825Y-70806873D01*
X95567825Y-70806873D02*
X95922229Y-70625062D01*
X95922229Y-70625062D02*
X96285915Y-70459626D01*
X96285915Y-70459626D02*
X96658402Y-70311086D01*
X96658402Y-70311086D02*
X97039207Y-70179962D01*
X97039207Y-70179962D02*
X97427848Y-70066776D01*
X97427848Y-70066776D02*
X97823843Y-69972048D01*
X97823843Y-69972048D02*
X98226710Y-69896299D01*
X98226710Y-69896299D02*
X98635968Y-69840049D01*
X98635968Y-69840049D02*
X99051134Y-69803821D01*
X78069676Y-81815904D02*
X78174288Y-81372055D01*
X78174288Y-81372055D02*
X78264754Y-80928516D01*
X78264754Y-80928516D02*
X78340880Y-80485287D01*
X78340880Y-80485287D02*
X78402471Y-80042368D01*
X78402471Y-80042368D02*
X78449335Y-79599760D01*
X78449335Y-79599760D02*
X78481278Y-79157461D01*
X78481278Y-79157461D02*
X78498105Y-78715472D01*
X78498105Y-78715472D02*
X78499623Y-78273794D01*
X78499623Y-78273794D02*
X78485638Y-77832425D01*
X78485638Y-77832425D02*
X78455956Y-77391367D01*
X78455956Y-77391367D02*
X78410384Y-76950619D01*
X78410384Y-76950619D02*
X78348728Y-76510181D01*
X78348728Y-76510181D02*
X78270793Y-76070052D01*
X78270793Y-76070052D02*
X78176387Y-75630234D01*
X78176387Y-75630234D02*
X78065315Y-75190726D01*
X78065315Y-75190726D02*
X77937384Y-74751529D01*
X135272593Y-86578404D02*
X134929054Y-86483064D01*
X134929054Y-86483064D02*
X134592996Y-86375651D01*
X134592996Y-86375651D02*
X134264456Y-86256185D01*
X134264456Y-86256185D02*
X133943474Y-86124684D01*
X133943474Y-86124684D02*
X133630089Y-85981169D01*
X133630089Y-85981169D02*
X133324339Y-85825659D01*
X133324339Y-85825659D02*
X133026263Y-85658172D01*
X133026263Y-85658172D02*
X132735899Y-85478729D01*
X132735899Y-85478729D02*
X132453287Y-85287348D01*
X132453287Y-85287348D02*
X132178466Y-85084050D01*
X132178466Y-85084050D02*
X131911473Y-84868853D01*
X131911473Y-84868853D02*
X131652348Y-84641777D01*
X131652348Y-84641777D02*
X131401129Y-84402842D01*
X131401129Y-84402842D02*
X131157856Y-84152066D01*
X131157856Y-84152066D02*
X130922567Y-83889469D01*
X130922567Y-83889469D02*
X130695301Y-83615071D01*
D11*
X85410107Y-117287775D02*
X85552964Y-117216346D01*
X85624393Y-117073489D01*
X85624393Y-115787775D01*
X84195821Y-116287775D02*
X84195821Y-117287775D01*
X84838678Y-116287775D02*
X84838678Y-117073489D01*
X84767250Y-117216346D01*
X84624393Y-117287775D01*
X84410107Y-117287775D01*
X84267250Y-117216346D01*
X84195821Y-117144918D01*
X82838678Y-117287775D02*
X82838678Y-116502061D01*
X82910107Y-116359204D01*
X83052964Y-116287775D01*
X83338678Y-116287775D01*
X83481535Y-116359204D01*
X82838678Y-117216346D02*
X82981535Y-117287775D01*
X83338678Y-117287775D01*
X83481535Y-117216346D01*
X83552964Y-117073489D01*
X83552964Y-116930632D01*
X83481535Y-116787775D01*
X83338678Y-116716346D01*
X82981535Y-116716346D01*
X82838678Y-116644918D01*
X82124393Y-117287775D02*
X82124393Y-115787775D01*
X81981535Y-116716346D02*
X81552964Y-117287775D01*
X81552964Y-116287775D02*
X82124393Y-116859204D01*
X80338678Y-117216346D02*
X80481535Y-117287775D01*
X80767250Y-117287775D01*
X80910107Y-117216346D01*
X80981535Y-117073489D01*
X80981535Y-116502061D01*
X80910107Y-116359204D01*
X80767250Y-116287775D01*
X80481535Y-116287775D01*
X80338678Y-116359204D01*
X80267250Y-116502061D01*
X80267250Y-116644918D01*
X80981535Y-116787775D01*
X79052964Y-117216346D02*
X79195821Y-117287775D01*
X79481535Y-117287775D01*
X79624393Y-117216346D01*
X79695821Y-117073489D01*
X79695821Y-116502061D01*
X79624393Y-116359204D01*
X79481535Y-116287775D01*
X79195821Y-116287775D01*
X79052964Y-116359204D01*
X78981535Y-116502061D01*
X78981535Y-116644918D01*
X79695821Y-116787775D01*
X78338678Y-117287775D02*
X78338678Y-115787775D01*
X78338678Y-116359204D02*
X78195821Y-116287775D01*
X77910107Y-116287775D01*
X77767250Y-116359204D01*
X77695821Y-116430632D01*
X77624393Y-116573489D01*
X77624393Y-117002061D01*
X77695821Y-117144918D01*
X77767250Y-117216346D01*
X77910107Y-117287775D01*
X78195821Y-117287775D01*
X78338678Y-117216346D01*
X75838678Y-117287775D02*
X75838678Y-115787775D01*
X75838678Y-116359204D02*
X75695821Y-116287775D01*
X75410107Y-116287775D01*
X75267250Y-116359204D01*
X75195821Y-116430632D01*
X75124393Y-116573489D01*
X75124393Y-117002061D01*
X75195821Y-117144918D01*
X75267250Y-117216346D01*
X75410107Y-117287775D01*
X75695821Y-117287775D01*
X75838678Y-117216346D01*
X74624393Y-116287775D02*
X74267250Y-117287775D01*
X73910107Y-116287775D02*
X74267250Y-117287775D01*
X74410107Y-117644918D01*
X74481535Y-117716346D01*
X74624393Y-117787775D01*
X72267250Y-117216346D02*
X72124393Y-117287775D01*
X71838678Y-117287775D01*
X71695821Y-117216346D01*
X71624393Y-117073489D01*
X71624393Y-117002061D01*
X71695821Y-116859204D01*
X71838678Y-116787775D01*
X72052964Y-116787775D01*
X72195821Y-116716346D01*
X72267250Y-116573489D01*
X72267250Y-116502061D01*
X72195821Y-116359204D01*
X72052964Y-116287775D01*
X71838678Y-116287775D01*
X71695821Y-116359204D01*
X70338678Y-117287775D02*
X70338678Y-116502061D01*
X70410107Y-116359204D01*
X70552964Y-116287775D01*
X70838678Y-116287775D01*
X70981535Y-116359204D01*
X70338678Y-117216346D02*
X70481535Y-117287775D01*
X70838678Y-117287775D01*
X70981535Y-117216346D01*
X71052964Y-117073489D01*
X71052964Y-116930632D01*
X70981535Y-116787775D01*
X70838678Y-116716346D01*
X70481535Y-116716346D01*
X70338678Y-116644918D01*
X68981535Y-117287775D02*
X68981535Y-115787775D01*
X68981535Y-117216346D02*
X69124393Y-117287775D01*
X69410107Y-117287775D01*
X69552964Y-117216346D01*
X69624393Y-117144918D01*
X69695821Y-117002061D01*
X69695821Y-116573489D01*
X69624393Y-116430632D01*
X69552964Y-116359204D01*
X69410107Y-116287775D01*
X69124393Y-116287775D01*
X68981535Y-116359204D01*
X67695821Y-117216346D02*
X67838678Y-117287775D01*
X68124393Y-117287775D01*
X68267250Y-117216346D01*
X68338678Y-117073489D01*
X68338678Y-116502061D01*
X68267250Y-116359204D01*
X68124393Y-116287775D01*
X67838678Y-116287775D01*
X67695821Y-116359204D01*
X67624393Y-116502061D01*
X67624393Y-116644918D01*
X68338678Y-116787775D01*
X66981535Y-117287775D02*
X66981535Y-115787775D01*
X66838678Y-116716346D02*
X66410107Y-117287775D01*
X66410107Y-116287775D02*
X66981535Y-116859204D01*
X65767250Y-117287775D02*
X65767250Y-115787775D01*
X65767250Y-116359204D02*
X65624393Y-116287775D01*
X65338678Y-116287775D01*
X65195821Y-116359204D01*
X65124393Y-116430632D01*
X65052964Y-116573489D01*
X65052964Y-117002061D01*
X65124393Y-117144918D01*
X65195821Y-117216346D01*
X65338678Y-117287775D01*
X65624393Y-117287775D01*
X65767250Y-117216346D01*
X63767250Y-117287775D02*
X63767250Y-116502061D01*
X63838678Y-116359204D01*
X63981535Y-116287775D01*
X64267250Y-116287775D01*
X64410107Y-116359204D01*
X63767250Y-117216346D02*
X63910107Y-117287775D01*
X64267250Y-117287775D01*
X64410107Y-117216346D01*
X64481535Y-117073489D01*
X64481535Y-116930632D01*
X64410107Y-116787775D01*
X64267250Y-116716346D01*
X63910107Y-116716346D01*
X63767250Y-116644918D01*
X63052964Y-117287775D02*
X63052964Y-116287775D01*
X63052964Y-116573489D02*
X62981535Y-116430632D01*
X62910107Y-116359204D01*
X62767250Y-116287775D01*
X62624393Y-116287775D01*
X61910107Y-117287775D02*
X62052964Y-117216346D01*
X62124393Y-117144918D01*
X62195821Y-117002061D01*
X62195821Y-116573489D01*
X62124393Y-116430632D01*
X62052964Y-116359204D01*
X61910107Y-116287775D01*
X61695821Y-116287775D01*
X61552964Y-116359204D01*
X61481535Y-116430632D01*
X61410107Y-116573489D01*
X61410107Y-117002061D01*
X61481535Y-117144918D01*
X61552964Y-117216346D01*
X61695821Y-117287775D01*
X61910107Y-117287775D01*
X60124393Y-116287775D02*
X60124393Y-117287775D01*
X60767250Y-116287775D02*
X60767250Y-117073489D01*
X60695821Y-117216346D01*
X60552964Y-117287775D01*
X60338678Y-117287775D01*
X60195821Y-117216346D01*
X60124393Y-117144918D01*
X58767250Y-117287775D02*
X58767250Y-115787775D01*
X58767250Y-117216346D02*
X58910107Y-117287775D01*
X59195821Y-117287775D01*
X59338678Y-117216346D01*
X59410107Y-117144918D01*
X59481535Y-117002061D01*
X59481535Y-116573489D01*
X59410107Y-116430632D01*
X59338678Y-116359204D01*
X59195821Y-116287775D01*
X58910107Y-116287775D01*
X58767250Y-116359204D01*
X58052964Y-117287775D02*
X58052964Y-116287775D01*
X58052964Y-115787775D02*
X58124393Y-115859204D01*
X58052964Y-115930632D01*
X57981535Y-115859204D01*
X58052964Y-115787775D01*
X58052964Y-115930632D01*
X57267250Y-117216346D02*
X57267250Y-117287775D01*
X57338678Y-117430632D01*
X57410107Y-117502061D01*
X55624393Y-116287775D02*
X55267250Y-117287775D01*
X54910107Y-116287775D01*
X54410107Y-115930632D02*
X54338678Y-115859204D01*
X54195821Y-115787775D01*
X53838678Y-115787775D01*
X53695821Y-115859204D01*
X53624393Y-115930632D01*
X53552964Y-116073489D01*
X53552964Y-116216346D01*
X53624393Y-116430632D01*
X54481535Y-117287775D01*
X53552964Y-117287775D01*
M02*
